%TF.GenerationSoftware,KiCad,Pcbnew,9.0.4*%
%TF.CreationDate,2025-09-08T12:57:20+12:00*%
%TF.ProjectId,doneIThink,646f6e65-4954-4686-996e-6b2e6b696361,rev?*%
%TF.SameCoordinates,Original*%
%TF.FileFunction,Soldermask,Top*%
%TF.FilePolarity,Negative*%
%FSLAX46Y46*%
G04 Gerber Fmt 4.6, Leading zero omitted, Abs format (unit mm)*
G04 Created by KiCad (PCBNEW 9.0.4) date 2025-09-08 12:57:20*
%MOMM*%
%LPD*%
G01*
G04 APERTURE LIST*
G04 Aperture macros list*
%AMRoundRect*
0 Rectangle with rounded corners*
0 $1 Rounding radius*
0 $2 $3 $4 $5 $6 $7 $8 $9 X,Y pos of 4 corners*
0 Add a 4 corners polygon primitive as box body*
4,1,4,$2,$3,$4,$5,$6,$7,$8,$9,$2,$3,0*
0 Add four circle primitives for the rounded corners*
1,1,$1+$1,$2,$3*
1,1,$1+$1,$4,$5*
1,1,$1+$1,$6,$7*
1,1,$1+$1,$8,$9*
0 Add four rect primitives between the rounded corners*
20,1,$1+$1,$2,$3,$4,$5,0*
20,1,$1+$1,$4,$5,$6,$7,0*
20,1,$1+$1,$6,$7,$8,$9,0*
20,1,$1+$1,$8,$9,$2,$3,0*%
G04 Aperture macros list end*
%ADD10C,3.150000*%
%ADD11RoundRect,0.237500X-0.250000X-0.237500X0.250000X-0.237500X0.250000X0.237500X-0.250000X0.237500X0*%
%ADD12RoundRect,0.237500X0.250000X0.237500X-0.250000X0.237500X-0.250000X-0.237500X0.250000X-0.237500X0*%
%ADD13RoundRect,0.237500X-0.300000X-0.237500X0.300000X-0.237500X0.300000X0.237500X-0.300000X0.237500X0*%
%ADD14C,3.200000*%
%ADD15R,1.350000X1.350000*%
%ADD16C,1.350000*%
%ADD17RoundRect,0.250000X-0.550000X1.050000X-0.550000X-1.050000X0.550000X-1.050000X0.550000X1.050000X0*%
%ADD18RoundRect,0.237500X0.300000X0.237500X-0.300000X0.237500X-0.300000X-0.237500X0.300000X-0.237500X0*%
%ADD19RoundRect,0.237500X-0.237500X0.250000X-0.237500X-0.250000X0.237500X-0.250000X0.237500X0.250000X0*%
%ADD20R,1.050000X1.500000*%
%ADD21O,1.050000X1.500000*%
%ADD22R,3.000000X3.000000*%
%ADD23C,3.000000*%
%ADD24RoundRect,0.100500X0.986500X0.301500X-0.986500X0.301500X-0.986500X-0.301500X0.986500X-0.301500X0*%
%ADD25RoundRect,0.250000X-0.250000X-0.475000X0.250000X-0.475000X0.250000X0.475000X-0.250000X0.475000X0*%
%ADD26RoundRect,0.237500X0.237500X-0.250000X0.237500X0.250000X-0.237500X0.250000X-0.237500X-0.250000X0*%
%ADD27RoundRect,0.150000X-0.825000X-0.150000X0.825000X-0.150000X0.825000X0.150000X-0.825000X0.150000X0*%
G04 APERTURE END LIST*
D10*
X257632960Y-136869986D02*
G75*
G02*
X254482960Y-136869986I-1575000J0D01*
G01*
X254482960Y-136869986D02*
G75*
G02*
X257632960Y-136869986I1575000J0D01*
G01*
X167632960Y-136869986D02*
G75*
G02*
X164482960Y-136869986I-1575000J0D01*
G01*
X164482960Y-136869986D02*
G75*
G02*
X167632960Y-136869986I1575000J0D01*
G01*
X257632960Y-46869986D02*
G75*
G02*
X254482960Y-46869986I-1575000J0D01*
G01*
X254482960Y-46869986D02*
G75*
G02*
X257632960Y-46869986I1575000J0D01*
G01*
X167632960Y-46869986D02*
G75*
G02*
X164482960Y-46869986I-1575000J0D01*
G01*
X164482960Y-46869986D02*
G75*
G02*
X167632960Y-46869986I1575000J0D01*
G01*
D11*
%TO.C,R8*%
X200425000Y-65000000D03*
X202250000Y-65000000D03*
%TD*%
%TO.C,R10*%
X191337500Y-66000000D03*
X193162500Y-66000000D03*
%TD*%
D12*
%TO.C,R7*%
X202250000Y-59750000D03*
X200425000Y-59750000D03*
%TD*%
D13*
%TO.C,C12*%
X200475000Y-58250000D03*
X202200000Y-58250000D03*
%TD*%
D14*
%TO.C,REF\u002A\u002A*%
X256157600Y-46900000D03*
%TD*%
D13*
%TO.C,C24*%
X223500000Y-65000000D03*
X225225000Y-65000000D03*
%TD*%
D15*
%TO.C,J3*%
X180970000Y-76385000D03*
D16*
X180970000Y-78385000D03*
%TD*%
D17*
%TO.C,C5*%
X225500000Y-83700000D03*
X225500000Y-87300000D03*
%TD*%
D18*
%TO.C,C13*%
X193112500Y-56000000D03*
X191387500Y-56000000D03*
%TD*%
D12*
%TO.C,R6*%
X202162500Y-61500000D03*
X200337500Y-61500000D03*
%TD*%
D19*
%TO.C,R12*%
X215000000Y-69587500D03*
X215000000Y-71412500D03*
%TD*%
D11*
%TO.C,R5*%
X191837500Y-82750000D03*
X193662500Y-82750000D03*
%TD*%
%TO.C,R4*%
X202200000Y-82685000D03*
X204025000Y-82685000D03*
%TD*%
D15*
%TO.C,J7*%
X180750000Y-60500000D03*
D16*
X180750000Y-62500000D03*
%TD*%
D13*
%TO.C,C8*%
X202250000Y-81185000D03*
X203975000Y-81185000D03*
%TD*%
D11*
%TO.C,R14*%
X226425000Y-72750000D03*
X228250000Y-72750000D03*
%TD*%
D18*
%TO.C,C11*%
X202112500Y-63250000D03*
X200387500Y-63250000D03*
%TD*%
D20*
%TO.C,U1*%
X222270000Y-77390000D03*
D21*
X221000000Y-77390000D03*
X219730000Y-77390000D03*
%TD*%
D12*
%TO.C,R13*%
X228162500Y-71000000D03*
X226337500Y-71000000D03*
%TD*%
D22*
%TO.C,J1*%
X223290000Y-97250000D03*
D23*
X218210000Y-97250000D03*
%TD*%
D24*
%TO.C,U3*%
X194720000Y-79155000D03*
X194720000Y-77885000D03*
X194720000Y-76615000D03*
X194720000Y-75345000D03*
X189780000Y-75345000D03*
X189780000Y-76615000D03*
X189780000Y-77885000D03*
X189780000Y-79155000D03*
%TD*%
D25*
%TO.C,C3*%
X183550000Y-62750000D03*
X185450000Y-62750000D03*
%TD*%
D14*
%TO.C,REF\u002A\u002A*%
X166057600Y-46870000D03*
%TD*%
D26*
%TO.C,R11*%
X212250000Y-71412500D03*
X212250000Y-69587500D03*
%TD*%
D12*
%TO.C,R2*%
X204025000Y-79435000D03*
X202200000Y-79435000D03*
%TD*%
D24*
%TO.C,U4*%
X194470000Y-62655000D03*
X194470000Y-61385000D03*
X194470000Y-60115000D03*
X194470000Y-58845000D03*
X189530000Y-58845000D03*
X189530000Y-60115000D03*
X189530000Y-61385000D03*
X189530000Y-62655000D03*
%TD*%
D17*
%TO.C,C1*%
X215750000Y-83700000D03*
X215750000Y-87300000D03*
%TD*%
D18*
%TO.C,C7*%
X203975000Y-75935000D03*
X202250000Y-75935000D03*
%TD*%
D14*
%TO.C,REF\u002A\u002A*%
X166567600Y-104730000D03*
%TD*%
D11*
%TO.C,R3*%
X202200000Y-73935000D03*
X204025000Y-73935000D03*
%TD*%
D13*
%TO.C,C9*%
X183387500Y-79250000D03*
X185112500Y-79250000D03*
%TD*%
D11*
%TO.C,R9*%
X200425000Y-56750000D03*
X202250000Y-56750000D03*
%TD*%
D27*
%TO.C,U6*%
X218275000Y-67095000D03*
X218275000Y-68365000D03*
X218275000Y-69635000D03*
X218275000Y-70905000D03*
X223225000Y-70905000D03*
X223225000Y-69635000D03*
X223225000Y-68365000D03*
X223225000Y-67095000D03*
%TD*%
D12*
%TO.C,R1*%
X204025000Y-77685000D03*
X202200000Y-77685000D03*
%TD*%
D14*
%TO.C,REF\u002A\u002A*%
X256667600Y-104760000D03*
%TD*%
G36*
X175680649Y-56719685D02*
G01*
X175726404Y-56772489D01*
X175737610Y-56823991D01*
X175739563Y-82325991D01*
X175719884Y-82393031D01*
X175667083Y-82438790D01*
X175615563Y-82450000D01*
X174081600Y-82450000D01*
X174014561Y-82430315D01*
X173968806Y-82377511D01*
X173957600Y-82326000D01*
X173957600Y-56824000D01*
X173977285Y-56756961D01*
X174030089Y-56711206D01*
X174081600Y-56700000D01*
X175613610Y-56700000D01*
X175680649Y-56719685D01*
G37*
M02*
