%TF.GenerationSoftware,KiCad,Pcbnew,9.0.4*%
%TF.CreationDate,2025-09-08T12:57:20+12:00*%
%TF.ProjectId,doneIThink,646f6e65-4954-4686-996e-6b2e6b696361,rev?*%
%TF.SameCoordinates,Original*%
%TF.FileFunction,Legend,Top*%
%TF.FilePolarity,Positive*%
%FSLAX46Y46*%
G04 Gerber Fmt 4.6, Leading zero omitted, Abs format (unit mm)*
G04 Created by KiCad (PCBNEW 9.0.4) date 2025-09-08 12:57:20*
%MOMM*%
%LPD*%
G01*
G04 APERTURE LIST*
%ADD10C,0.300000*%
%ADD11C,0.150000*%
%ADD12C,0.120000*%
%ADD13C,0.127000*%
%ADD14C,0.200000*%
G04 APERTURE END LIST*
D10*
X244340225Y-49050828D02*
X245197368Y-49050828D01*
X244768796Y-50550828D02*
X244768796Y-49050828D01*
X246554510Y-50550828D02*
X246054510Y-49836542D01*
X245697367Y-50550828D02*
X245697367Y-49050828D01*
X245697367Y-49050828D02*
X246268796Y-49050828D01*
X246268796Y-49050828D02*
X246411653Y-49122257D01*
X246411653Y-49122257D02*
X246483082Y-49193685D01*
X246483082Y-49193685D02*
X246554510Y-49336542D01*
X246554510Y-49336542D02*
X246554510Y-49550828D01*
X246554510Y-49550828D02*
X246483082Y-49693685D01*
X246483082Y-49693685D02*
X246411653Y-49765114D01*
X246411653Y-49765114D02*
X246268796Y-49836542D01*
X246268796Y-49836542D02*
X245697367Y-49836542D01*
X247197367Y-50550828D02*
X247197367Y-49050828D01*
X247197367Y-49765114D02*
X248054510Y-49765114D01*
X248054510Y-50550828D02*
X248054510Y-49050828D01*
X249625939Y-50407971D02*
X249554511Y-50479400D01*
X249554511Y-50479400D02*
X249340225Y-50550828D01*
X249340225Y-50550828D02*
X249197368Y-50550828D01*
X249197368Y-50550828D02*
X248983082Y-50479400D01*
X248983082Y-50479400D02*
X248840225Y-50336542D01*
X248840225Y-50336542D02*
X248768796Y-50193685D01*
X248768796Y-50193685D02*
X248697368Y-49907971D01*
X248697368Y-49907971D02*
X248697368Y-49693685D01*
X248697368Y-49693685D02*
X248768796Y-49407971D01*
X248768796Y-49407971D02*
X248840225Y-49265114D01*
X248840225Y-49265114D02*
X248983082Y-49122257D01*
X248983082Y-49122257D02*
X249197368Y-49050828D01*
X249197368Y-49050828D02*
X249340225Y-49050828D01*
X249340225Y-49050828D02*
X249554511Y-49122257D01*
X249554511Y-49122257D02*
X249625939Y-49193685D01*
D11*
X203920833Y-65454819D02*
X203587500Y-64978628D01*
X203349405Y-65454819D02*
X203349405Y-64454819D01*
X203349405Y-64454819D02*
X203730357Y-64454819D01*
X203730357Y-64454819D02*
X203825595Y-64502438D01*
X203825595Y-64502438D02*
X203873214Y-64550057D01*
X203873214Y-64550057D02*
X203920833Y-64645295D01*
X203920833Y-64645295D02*
X203920833Y-64788152D01*
X203920833Y-64788152D02*
X203873214Y-64883390D01*
X203873214Y-64883390D02*
X203825595Y-64931009D01*
X203825595Y-64931009D02*
X203730357Y-64978628D01*
X203730357Y-64978628D02*
X203349405Y-64978628D01*
X204492262Y-64883390D02*
X204397024Y-64835771D01*
X204397024Y-64835771D02*
X204349405Y-64788152D01*
X204349405Y-64788152D02*
X204301786Y-64692914D01*
X204301786Y-64692914D02*
X204301786Y-64645295D01*
X204301786Y-64645295D02*
X204349405Y-64550057D01*
X204349405Y-64550057D02*
X204397024Y-64502438D01*
X204397024Y-64502438D02*
X204492262Y-64454819D01*
X204492262Y-64454819D02*
X204682738Y-64454819D01*
X204682738Y-64454819D02*
X204777976Y-64502438D01*
X204777976Y-64502438D02*
X204825595Y-64550057D01*
X204825595Y-64550057D02*
X204873214Y-64645295D01*
X204873214Y-64645295D02*
X204873214Y-64692914D01*
X204873214Y-64692914D02*
X204825595Y-64788152D01*
X204825595Y-64788152D02*
X204777976Y-64835771D01*
X204777976Y-64835771D02*
X204682738Y-64883390D01*
X204682738Y-64883390D02*
X204492262Y-64883390D01*
X204492262Y-64883390D02*
X204397024Y-64931009D01*
X204397024Y-64931009D02*
X204349405Y-64978628D01*
X204349405Y-64978628D02*
X204301786Y-65073866D01*
X204301786Y-65073866D02*
X204301786Y-65264342D01*
X204301786Y-65264342D02*
X204349405Y-65359580D01*
X204349405Y-65359580D02*
X204397024Y-65407200D01*
X204397024Y-65407200D02*
X204492262Y-65454819D01*
X204492262Y-65454819D02*
X204682738Y-65454819D01*
X204682738Y-65454819D02*
X204777976Y-65407200D01*
X204777976Y-65407200D02*
X204825595Y-65359580D01*
X204825595Y-65359580D02*
X204873214Y-65264342D01*
X204873214Y-65264342D02*
X204873214Y-65073866D01*
X204873214Y-65073866D02*
X204825595Y-64978628D01*
X204825595Y-64978628D02*
X204777976Y-64931009D01*
X204777976Y-64931009D02*
X204682738Y-64883390D01*
X191607142Y-67704819D02*
X191273809Y-67228628D01*
X191035714Y-67704819D02*
X191035714Y-66704819D01*
X191035714Y-66704819D02*
X191416666Y-66704819D01*
X191416666Y-66704819D02*
X191511904Y-66752438D01*
X191511904Y-66752438D02*
X191559523Y-66800057D01*
X191559523Y-66800057D02*
X191607142Y-66895295D01*
X191607142Y-66895295D02*
X191607142Y-67038152D01*
X191607142Y-67038152D02*
X191559523Y-67133390D01*
X191559523Y-67133390D02*
X191511904Y-67181009D01*
X191511904Y-67181009D02*
X191416666Y-67228628D01*
X191416666Y-67228628D02*
X191035714Y-67228628D01*
X192559523Y-67704819D02*
X191988095Y-67704819D01*
X192273809Y-67704819D02*
X192273809Y-66704819D01*
X192273809Y-66704819D02*
X192178571Y-66847676D01*
X192178571Y-66847676D02*
X192083333Y-66942914D01*
X192083333Y-66942914D02*
X191988095Y-66990533D01*
X193178571Y-66704819D02*
X193273809Y-66704819D01*
X193273809Y-66704819D02*
X193369047Y-66752438D01*
X193369047Y-66752438D02*
X193416666Y-66800057D01*
X193416666Y-66800057D02*
X193464285Y-66895295D01*
X193464285Y-66895295D02*
X193511904Y-67085771D01*
X193511904Y-67085771D02*
X193511904Y-67323866D01*
X193511904Y-67323866D02*
X193464285Y-67514342D01*
X193464285Y-67514342D02*
X193416666Y-67609580D01*
X193416666Y-67609580D02*
X193369047Y-67657200D01*
X193369047Y-67657200D02*
X193273809Y-67704819D01*
X193273809Y-67704819D02*
X193178571Y-67704819D01*
X193178571Y-67704819D02*
X193083333Y-67657200D01*
X193083333Y-67657200D02*
X193035714Y-67609580D01*
X193035714Y-67609580D02*
X192988095Y-67514342D01*
X192988095Y-67514342D02*
X192940476Y-67323866D01*
X192940476Y-67323866D02*
X192940476Y-67085771D01*
X192940476Y-67085771D02*
X192988095Y-66895295D01*
X192988095Y-66895295D02*
X193035714Y-66800057D01*
X193035714Y-66800057D02*
X193083333Y-66752438D01*
X193083333Y-66752438D02*
X193178571Y-66704819D01*
X203920833Y-60204819D02*
X203587500Y-59728628D01*
X203349405Y-60204819D02*
X203349405Y-59204819D01*
X203349405Y-59204819D02*
X203730357Y-59204819D01*
X203730357Y-59204819D02*
X203825595Y-59252438D01*
X203825595Y-59252438D02*
X203873214Y-59300057D01*
X203873214Y-59300057D02*
X203920833Y-59395295D01*
X203920833Y-59395295D02*
X203920833Y-59538152D01*
X203920833Y-59538152D02*
X203873214Y-59633390D01*
X203873214Y-59633390D02*
X203825595Y-59681009D01*
X203825595Y-59681009D02*
X203730357Y-59728628D01*
X203730357Y-59728628D02*
X203349405Y-59728628D01*
X204254167Y-59204819D02*
X204920833Y-59204819D01*
X204920833Y-59204819D02*
X204492262Y-60204819D01*
X203944642Y-58609580D02*
X203897023Y-58657200D01*
X203897023Y-58657200D02*
X203754166Y-58704819D01*
X203754166Y-58704819D02*
X203658928Y-58704819D01*
X203658928Y-58704819D02*
X203516071Y-58657200D01*
X203516071Y-58657200D02*
X203420833Y-58561961D01*
X203420833Y-58561961D02*
X203373214Y-58466723D01*
X203373214Y-58466723D02*
X203325595Y-58276247D01*
X203325595Y-58276247D02*
X203325595Y-58133390D01*
X203325595Y-58133390D02*
X203373214Y-57942914D01*
X203373214Y-57942914D02*
X203420833Y-57847676D01*
X203420833Y-57847676D02*
X203516071Y-57752438D01*
X203516071Y-57752438D02*
X203658928Y-57704819D01*
X203658928Y-57704819D02*
X203754166Y-57704819D01*
X203754166Y-57704819D02*
X203897023Y-57752438D01*
X203897023Y-57752438D02*
X203944642Y-57800057D01*
X204897023Y-58704819D02*
X204325595Y-58704819D01*
X204611309Y-58704819D02*
X204611309Y-57704819D01*
X204611309Y-57704819D02*
X204516071Y-57847676D01*
X204516071Y-57847676D02*
X204420833Y-57942914D01*
X204420833Y-57942914D02*
X204325595Y-57990533D01*
X205277976Y-57800057D02*
X205325595Y-57752438D01*
X205325595Y-57752438D02*
X205420833Y-57704819D01*
X205420833Y-57704819D02*
X205658928Y-57704819D01*
X205658928Y-57704819D02*
X205754166Y-57752438D01*
X205754166Y-57752438D02*
X205801785Y-57800057D01*
X205801785Y-57800057D02*
X205849404Y-57895295D01*
X205849404Y-57895295D02*
X205849404Y-57990533D01*
X205849404Y-57990533D02*
X205801785Y-58133390D01*
X205801785Y-58133390D02*
X205230357Y-58704819D01*
X205230357Y-58704819D02*
X205849404Y-58704819D01*
X223719642Y-63929580D02*
X223672023Y-63977200D01*
X223672023Y-63977200D02*
X223529166Y-64024819D01*
X223529166Y-64024819D02*
X223433928Y-64024819D01*
X223433928Y-64024819D02*
X223291071Y-63977200D01*
X223291071Y-63977200D02*
X223195833Y-63881961D01*
X223195833Y-63881961D02*
X223148214Y-63786723D01*
X223148214Y-63786723D02*
X223100595Y-63596247D01*
X223100595Y-63596247D02*
X223100595Y-63453390D01*
X223100595Y-63453390D02*
X223148214Y-63262914D01*
X223148214Y-63262914D02*
X223195833Y-63167676D01*
X223195833Y-63167676D02*
X223291071Y-63072438D01*
X223291071Y-63072438D02*
X223433928Y-63024819D01*
X223433928Y-63024819D02*
X223529166Y-63024819D01*
X223529166Y-63024819D02*
X223672023Y-63072438D01*
X223672023Y-63072438D02*
X223719642Y-63120057D01*
X224100595Y-63120057D02*
X224148214Y-63072438D01*
X224148214Y-63072438D02*
X224243452Y-63024819D01*
X224243452Y-63024819D02*
X224481547Y-63024819D01*
X224481547Y-63024819D02*
X224576785Y-63072438D01*
X224576785Y-63072438D02*
X224624404Y-63120057D01*
X224624404Y-63120057D02*
X224672023Y-63215295D01*
X224672023Y-63215295D02*
X224672023Y-63310533D01*
X224672023Y-63310533D02*
X224624404Y-63453390D01*
X224624404Y-63453390D02*
X224052976Y-64024819D01*
X224052976Y-64024819D02*
X224672023Y-64024819D01*
X225529166Y-63358152D02*
X225529166Y-64024819D01*
X225291071Y-62977200D02*
X225052976Y-63691485D01*
X225052976Y-63691485D02*
X225672023Y-63691485D01*
X180636666Y-73729819D02*
X180636666Y-74444104D01*
X180636666Y-74444104D02*
X180589047Y-74586961D01*
X180589047Y-74586961D02*
X180493809Y-74682200D01*
X180493809Y-74682200D02*
X180350952Y-74729819D01*
X180350952Y-74729819D02*
X180255714Y-74729819D01*
X181017619Y-73729819D02*
X181636666Y-73729819D01*
X181636666Y-73729819D02*
X181303333Y-74110771D01*
X181303333Y-74110771D02*
X181446190Y-74110771D01*
X181446190Y-74110771D02*
X181541428Y-74158390D01*
X181541428Y-74158390D02*
X181589047Y-74206009D01*
X181589047Y-74206009D02*
X181636666Y-74301247D01*
X181636666Y-74301247D02*
X181636666Y-74539342D01*
X181636666Y-74539342D02*
X181589047Y-74634580D01*
X181589047Y-74634580D02*
X181541428Y-74682200D01*
X181541428Y-74682200D02*
X181446190Y-74729819D01*
X181446190Y-74729819D02*
X181160476Y-74729819D01*
X181160476Y-74729819D02*
X181065238Y-74682200D01*
X181065238Y-74682200D02*
X181017619Y-74634580D01*
X229059580Y-85666666D02*
X229107200Y-85714285D01*
X229107200Y-85714285D02*
X229154819Y-85857142D01*
X229154819Y-85857142D02*
X229154819Y-85952380D01*
X229154819Y-85952380D02*
X229107200Y-86095237D01*
X229107200Y-86095237D02*
X229011961Y-86190475D01*
X229011961Y-86190475D02*
X228916723Y-86238094D01*
X228916723Y-86238094D02*
X228726247Y-86285713D01*
X228726247Y-86285713D02*
X228583390Y-86285713D01*
X228583390Y-86285713D02*
X228392914Y-86238094D01*
X228392914Y-86238094D02*
X228297676Y-86190475D01*
X228297676Y-86190475D02*
X228202438Y-86095237D01*
X228202438Y-86095237D02*
X228154819Y-85952380D01*
X228154819Y-85952380D02*
X228154819Y-85857142D01*
X228154819Y-85857142D02*
X228202438Y-85714285D01*
X228202438Y-85714285D02*
X228250057Y-85666666D01*
X228154819Y-84761904D02*
X228154819Y-85238094D01*
X228154819Y-85238094D02*
X228631009Y-85285713D01*
X228631009Y-85285713D02*
X228583390Y-85238094D01*
X228583390Y-85238094D02*
X228535771Y-85142856D01*
X228535771Y-85142856D02*
X228535771Y-84904761D01*
X228535771Y-84904761D02*
X228583390Y-84809523D01*
X228583390Y-84809523D02*
X228631009Y-84761904D01*
X228631009Y-84761904D02*
X228726247Y-84714285D01*
X228726247Y-84714285D02*
X228964342Y-84714285D01*
X228964342Y-84714285D02*
X229059580Y-84761904D01*
X229059580Y-84761904D02*
X229107200Y-84809523D01*
X229107200Y-84809523D02*
X229154819Y-84904761D01*
X229154819Y-84904761D02*
X229154819Y-85142856D01*
X229154819Y-85142856D02*
X229107200Y-85238094D01*
X229107200Y-85238094D02*
X229059580Y-85285713D01*
X191607142Y-57789580D02*
X191559523Y-57837200D01*
X191559523Y-57837200D02*
X191416666Y-57884819D01*
X191416666Y-57884819D02*
X191321428Y-57884819D01*
X191321428Y-57884819D02*
X191178571Y-57837200D01*
X191178571Y-57837200D02*
X191083333Y-57741961D01*
X191083333Y-57741961D02*
X191035714Y-57646723D01*
X191035714Y-57646723D02*
X190988095Y-57456247D01*
X190988095Y-57456247D02*
X190988095Y-57313390D01*
X190988095Y-57313390D02*
X191035714Y-57122914D01*
X191035714Y-57122914D02*
X191083333Y-57027676D01*
X191083333Y-57027676D02*
X191178571Y-56932438D01*
X191178571Y-56932438D02*
X191321428Y-56884819D01*
X191321428Y-56884819D02*
X191416666Y-56884819D01*
X191416666Y-56884819D02*
X191559523Y-56932438D01*
X191559523Y-56932438D02*
X191607142Y-56980057D01*
X192559523Y-57884819D02*
X191988095Y-57884819D01*
X192273809Y-57884819D02*
X192273809Y-56884819D01*
X192273809Y-56884819D02*
X192178571Y-57027676D01*
X192178571Y-57027676D02*
X192083333Y-57122914D01*
X192083333Y-57122914D02*
X191988095Y-57170533D01*
X192892857Y-56884819D02*
X193511904Y-56884819D01*
X193511904Y-56884819D02*
X193178571Y-57265771D01*
X193178571Y-57265771D02*
X193321428Y-57265771D01*
X193321428Y-57265771D02*
X193416666Y-57313390D01*
X193416666Y-57313390D02*
X193464285Y-57361009D01*
X193464285Y-57361009D02*
X193511904Y-57456247D01*
X193511904Y-57456247D02*
X193511904Y-57694342D01*
X193511904Y-57694342D02*
X193464285Y-57789580D01*
X193464285Y-57789580D02*
X193416666Y-57837200D01*
X193416666Y-57837200D02*
X193321428Y-57884819D01*
X193321428Y-57884819D02*
X193035714Y-57884819D01*
X193035714Y-57884819D02*
X192940476Y-57837200D01*
X192940476Y-57837200D02*
X192892857Y-57789580D01*
X203745833Y-61954819D02*
X203412500Y-61478628D01*
X203174405Y-61954819D02*
X203174405Y-60954819D01*
X203174405Y-60954819D02*
X203555357Y-60954819D01*
X203555357Y-60954819D02*
X203650595Y-61002438D01*
X203650595Y-61002438D02*
X203698214Y-61050057D01*
X203698214Y-61050057D02*
X203745833Y-61145295D01*
X203745833Y-61145295D02*
X203745833Y-61288152D01*
X203745833Y-61288152D02*
X203698214Y-61383390D01*
X203698214Y-61383390D02*
X203650595Y-61431009D01*
X203650595Y-61431009D02*
X203555357Y-61478628D01*
X203555357Y-61478628D02*
X203174405Y-61478628D01*
X204602976Y-60954819D02*
X204412500Y-60954819D01*
X204412500Y-60954819D02*
X204317262Y-61002438D01*
X204317262Y-61002438D02*
X204269643Y-61050057D01*
X204269643Y-61050057D02*
X204174405Y-61192914D01*
X204174405Y-61192914D02*
X204126786Y-61383390D01*
X204126786Y-61383390D02*
X204126786Y-61764342D01*
X204126786Y-61764342D02*
X204174405Y-61859580D01*
X204174405Y-61859580D02*
X204222024Y-61907200D01*
X204222024Y-61907200D02*
X204317262Y-61954819D01*
X204317262Y-61954819D02*
X204507738Y-61954819D01*
X204507738Y-61954819D02*
X204602976Y-61907200D01*
X204602976Y-61907200D02*
X204650595Y-61859580D01*
X204650595Y-61859580D02*
X204698214Y-61764342D01*
X204698214Y-61764342D02*
X204698214Y-61526247D01*
X204698214Y-61526247D02*
X204650595Y-61431009D01*
X204650595Y-61431009D02*
X204602976Y-61383390D01*
X204602976Y-61383390D02*
X204507738Y-61335771D01*
X204507738Y-61335771D02*
X204317262Y-61335771D01*
X204317262Y-61335771D02*
X204222024Y-61383390D01*
X204222024Y-61383390D02*
X204174405Y-61431009D01*
X204174405Y-61431009D02*
X204126786Y-61526247D01*
X216884819Y-71142857D02*
X216408628Y-71476190D01*
X216884819Y-71714285D02*
X215884819Y-71714285D01*
X215884819Y-71714285D02*
X215884819Y-71333333D01*
X215884819Y-71333333D02*
X215932438Y-71238095D01*
X215932438Y-71238095D02*
X215980057Y-71190476D01*
X215980057Y-71190476D02*
X216075295Y-71142857D01*
X216075295Y-71142857D02*
X216218152Y-71142857D01*
X216218152Y-71142857D02*
X216313390Y-71190476D01*
X216313390Y-71190476D02*
X216361009Y-71238095D01*
X216361009Y-71238095D02*
X216408628Y-71333333D01*
X216408628Y-71333333D02*
X216408628Y-71714285D01*
X216884819Y-70190476D02*
X216884819Y-70761904D01*
X216884819Y-70476190D02*
X215884819Y-70476190D01*
X215884819Y-70476190D02*
X216027676Y-70571428D01*
X216027676Y-70571428D02*
X216122914Y-70666666D01*
X216122914Y-70666666D02*
X216170533Y-70761904D01*
X215980057Y-69809523D02*
X215932438Y-69761904D01*
X215932438Y-69761904D02*
X215884819Y-69666666D01*
X215884819Y-69666666D02*
X215884819Y-69428571D01*
X215884819Y-69428571D02*
X215932438Y-69333333D01*
X215932438Y-69333333D02*
X215980057Y-69285714D01*
X215980057Y-69285714D02*
X216075295Y-69238095D01*
X216075295Y-69238095D02*
X216170533Y-69238095D01*
X216170533Y-69238095D02*
X216313390Y-69285714D01*
X216313390Y-69285714D02*
X216884819Y-69857142D01*
X216884819Y-69857142D02*
X216884819Y-69238095D01*
X192583333Y-84704819D02*
X192250000Y-84228628D01*
X192011905Y-84704819D02*
X192011905Y-83704819D01*
X192011905Y-83704819D02*
X192392857Y-83704819D01*
X192392857Y-83704819D02*
X192488095Y-83752438D01*
X192488095Y-83752438D02*
X192535714Y-83800057D01*
X192535714Y-83800057D02*
X192583333Y-83895295D01*
X192583333Y-83895295D02*
X192583333Y-84038152D01*
X192583333Y-84038152D02*
X192535714Y-84133390D01*
X192535714Y-84133390D02*
X192488095Y-84181009D01*
X192488095Y-84181009D02*
X192392857Y-84228628D01*
X192392857Y-84228628D02*
X192011905Y-84228628D01*
X193488095Y-83704819D02*
X193011905Y-83704819D01*
X193011905Y-83704819D02*
X192964286Y-84181009D01*
X192964286Y-84181009D02*
X193011905Y-84133390D01*
X193011905Y-84133390D02*
X193107143Y-84085771D01*
X193107143Y-84085771D02*
X193345238Y-84085771D01*
X193345238Y-84085771D02*
X193440476Y-84133390D01*
X193440476Y-84133390D02*
X193488095Y-84181009D01*
X193488095Y-84181009D02*
X193535714Y-84276247D01*
X193535714Y-84276247D02*
X193535714Y-84514342D01*
X193535714Y-84514342D02*
X193488095Y-84609580D01*
X193488095Y-84609580D02*
X193440476Y-84657200D01*
X193440476Y-84657200D02*
X193345238Y-84704819D01*
X193345238Y-84704819D02*
X193107143Y-84704819D01*
X193107143Y-84704819D02*
X193011905Y-84657200D01*
X193011905Y-84657200D02*
X192964286Y-84609580D01*
X205945833Y-83139819D02*
X205612500Y-82663628D01*
X205374405Y-83139819D02*
X205374405Y-82139819D01*
X205374405Y-82139819D02*
X205755357Y-82139819D01*
X205755357Y-82139819D02*
X205850595Y-82187438D01*
X205850595Y-82187438D02*
X205898214Y-82235057D01*
X205898214Y-82235057D02*
X205945833Y-82330295D01*
X205945833Y-82330295D02*
X205945833Y-82473152D01*
X205945833Y-82473152D02*
X205898214Y-82568390D01*
X205898214Y-82568390D02*
X205850595Y-82616009D01*
X205850595Y-82616009D02*
X205755357Y-82663628D01*
X205755357Y-82663628D02*
X205374405Y-82663628D01*
X206802976Y-82473152D02*
X206802976Y-83139819D01*
X206564881Y-82092200D02*
X206326786Y-82806485D01*
X206326786Y-82806485D02*
X206945833Y-82806485D01*
X180416666Y-57844819D02*
X180416666Y-58559104D01*
X180416666Y-58559104D02*
X180369047Y-58701961D01*
X180369047Y-58701961D02*
X180273809Y-58797200D01*
X180273809Y-58797200D02*
X180130952Y-58844819D01*
X180130952Y-58844819D02*
X180035714Y-58844819D01*
X180797619Y-57844819D02*
X181464285Y-57844819D01*
X181464285Y-57844819D02*
X181035714Y-58844819D01*
X205945833Y-81544580D02*
X205898214Y-81592200D01*
X205898214Y-81592200D02*
X205755357Y-81639819D01*
X205755357Y-81639819D02*
X205660119Y-81639819D01*
X205660119Y-81639819D02*
X205517262Y-81592200D01*
X205517262Y-81592200D02*
X205422024Y-81496961D01*
X205422024Y-81496961D02*
X205374405Y-81401723D01*
X205374405Y-81401723D02*
X205326786Y-81211247D01*
X205326786Y-81211247D02*
X205326786Y-81068390D01*
X205326786Y-81068390D02*
X205374405Y-80877914D01*
X205374405Y-80877914D02*
X205422024Y-80782676D01*
X205422024Y-80782676D02*
X205517262Y-80687438D01*
X205517262Y-80687438D02*
X205660119Y-80639819D01*
X205660119Y-80639819D02*
X205755357Y-80639819D01*
X205755357Y-80639819D02*
X205898214Y-80687438D01*
X205898214Y-80687438D02*
X205945833Y-80735057D01*
X206517262Y-81068390D02*
X206422024Y-81020771D01*
X206422024Y-81020771D02*
X206374405Y-80973152D01*
X206374405Y-80973152D02*
X206326786Y-80877914D01*
X206326786Y-80877914D02*
X206326786Y-80830295D01*
X206326786Y-80830295D02*
X206374405Y-80735057D01*
X206374405Y-80735057D02*
X206422024Y-80687438D01*
X206422024Y-80687438D02*
X206517262Y-80639819D01*
X206517262Y-80639819D02*
X206707738Y-80639819D01*
X206707738Y-80639819D02*
X206802976Y-80687438D01*
X206802976Y-80687438D02*
X206850595Y-80735057D01*
X206850595Y-80735057D02*
X206898214Y-80830295D01*
X206898214Y-80830295D02*
X206898214Y-80877914D01*
X206898214Y-80877914D02*
X206850595Y-80973152D01*
X206850595Y-80973152D02*
X206802976Y-81020771D01*
X206802976Y-81020771D02*
X206707738Y-81068390D01*
X206707738Y-81068390D02*
X206517262Y-81068390D01*
X206517262Y-81068390D02*
X206422024Y-81116009D01*
X206422024Y-81116009D02*
X206374405Y-81163628D01*
X206374405Y-81163628D02*
X206326786Y-81258866D01*
X206326786Y-81258866D02*
X206326786Y-81449342D01*
X206326786Y-81449342D02*
X206374405Y-81544580D01*
X206374405Y-81544580D02*
X206422024Y-81592200D01*
X206422024Y-81592200D02*
X206517262Y-81639819D01*
X206517262Y-81639819D02*
X206707738Y-81639819D01*
X206707738Y-81639819D02*
X206802976Y-81592200D01*
X206802976Y-81592200D02*
X206850595Y-81544580D01*
X206850595Y-81544580D02*
X206898214Y-81449342D01*
X206898214Y-81449342D02*
X206898214Y-81258866D01*
X206898214Y-81258866D02*
X206850595Y-81163628D01*
X206850595Y-81163628D02*
X206802976Y-81116009D01*
X206802976Y-81116009D02*
X206707738Y-81068390D01*
X232107142Y-71454819D02*
X231773809Y-70978628D01*
X231535714Y-71454819D02*
X231535714Y-70454819D01*
X231535714Y-70454819D02*
X231916666Y-70454819D01*
X231916666Y-70454819D02*
X232011904Y-70502438D01*
X232011904Y-70502438D02*
X232059523Y-70550057D01*
X232059523Y-70550057D02*
X232107142Y-70645295D01*
X232107142Y-70645295D02*
X232107142Y-70788152D01*
X232107142Y-70788152D02*
X232059523Y-70883390D01*
X232059523Y-70883390D02*
X232011904Y-70931009D01*
X232011904Y-70931009D02*
X231916666Y-70978628D01*
X231916666Y-70978628D02*
X231535714Y-70978628D01*
X233059523Y-71454819D02*
X232488095Y-71454819D01*
X232773809Y-71454819D02*
X232773809Y-70454819D01*
X232773809Y-70454819D02*
X232678571Y-70597676D01*
X232678571Y-70597676D02*
X232583333Y-70692914D01*
X232583333Y-70692914D02*
X232488095Y-70740533D01*
X233916666Y-70788152D02*
X233916666Y-71454819D01*
X233678571Y-70407200D02*
X233440476Y-71121485D01*
X233440476Y-71121485D02*
X234059523Y-71121485D01*
X203857142Y-63609580D02*
X203809523Y-63657200D01*
X203809523Y-63657200D02*
X203666666Y-63704819D01*
X203666666Y-63704819D02*
X203571428Y-63704819D01*
X203571428Y-63704819D02*
X203428571Y-63657200D01*
X203428571Y-63657200D02*
X203333333Y-63561961D01*
X203333333Y-63561961D02*
X203285714Y-63466723D01*
X203285714Y-63466723D02*
X203238095Y-63276247D01*
X203238095Y-63276247D02*
X203238095Y-63133390D01*
X203238095Y-63133390D02*
X203285714Y-62942914D01*
X203285714Y-62942914D02*
X203333333Y-62847676D01*
X203333333Y-62847676D02*
X203428571Y-62752438D01*
X203428571Y-62752438D02*
X203571428Y-62704819D01*
X203571428Y-62704819D02*
X203666666Y-62704819D01*
X203666666Y-62704819D02*
X203809523Y-62752438D01*
X203809523Y-62752438D02*
X203857142Y-62800057D01*
X204809523Y-63704819D02*
X204238095Y-63704819D01*
X204523809Y-63704819D02*
X204523809Y-62704819D01*
X204523809Y-62704819D02*
X204428571Y-62847676D01*
X204428571Y-62847676D02*
X204333333Y-62942914D01*
X204333333Y-62942914D02*
X204238095Y-62990533D01*
X205761904Y-63704819D02*
X205190476Y-63704819D01*
X205476190Y-63704819D02*
X205476190Y-62704819D01*
X205476190Y-62704819D02*
X205380952Y-62847676D01*
X205380952Y-62847676D02*
X205285714Y-62942914D01*
X205285714Y-62942914D02*
X205190476Y-62990533D01*
X220238095Y-80404819D02*
X220238095Y-81214342D01*
X220238095Y-81214342D02*
X220285714Y-81309580D01*
X220285714Y-81309580D02*
X220333333Y-81357200D01*
X220333333Y-81357200D02*
X220428571Y-81404819D01*
X220428571Y-81404819D02*
X220619047Y-81404819D01*
X220619047Y-81404819D02*
X220714285Y-81357200D01*
X220714285Y-81357200D02*
X220761904Y-81309580D01*
X220761904Y-81309580D02*
X220809523Y-81214342D01*
X220809523Y-81214342D02*
X220809523Y-80404819D01*
X221809523Y-81404819D02*
X221238095Y-81404819D01*
X221523809Y-81404819D02*
X221523809Y-80404819D01*
X221523809Y-80404819D02*
X221428571Y-80547676D01*
X221428571Y-80547676D02*
X221333333Y-80642914D01*
X221333333Y-80642914D02*
X221238095Y-80690533D01*
X232107142Y-73204819D02*
X231773809Y-72728628D01*
X231535714Y-73204819D02*
X231535714Y-72204819D01*
X231535714Y-72204819D02*
X231916666Y-72204819D01*
X231916666Y-72204819D02*
X232011904Y-72252438D01*
X232011904Y-72252438D02*
X232059523Y-72300057D01*
X232059523Y-72300057D02*
X232107142Y-72395295D01*
X232107142Y-72395295D02*
X232107142Y-72538152D01*
X232107142Y-72538152D02*
X232059523Y-72633390D01*
X232059523Y-72633390D02*
X232011904Y-72681009D01*
X232011904Y-72681009D02*
X231916666Y-72728628D01*
X231916666Y-72728628D02*
X231535714Y-72728628D01*
X233059523Y-73204819D02*
X232488095Y-73204819D01*
X232773809Y-73204819D02*
X232773809Y-72204819D01*
X232773809Y-72204819D02*
X232678571Y-72347676D01*
X232678571Y-72347676D02*
X232583333Y-72442914D01*
X232583333Y-72442914D02*
X232488095Y-72490533D01*
X233392857Y-72204819D02*
X234011904Y-72204819D01*
X234011904Y-72204819D02*
X233678571Y-72585771D01*
X233678571Y-72585771D02*
X233821428Y-72585771D01*
X233821428Y-72585771D02*
X233916666Y-72633390D01*
X233916666Y-72633390D02*
X233964285Y-72681009D01*
X233964285Y-72681009D02*
X234011904Y-72776247D01*
X234011904Y-72776247D02*
X234011904Y-73014342D01*
X234011904Y-73014342D02*
X233964285Y-73109580D01*
X233964285Y-73109580D02*
X233916666Y-73157200D01*
X233916666Y-73157200D02*
X233821428Y-73204819D01*
X233821428Y-73204819D02*
X233535714Y-73204819D01*
X233535714Y-73204819D02*
X233440476Y-73157200D01*
X233440476Y-73157200D02*
X233392857Y-73109580D01*
X220416666Y-101784819D02*
X220416666Y-102499104D01*
X220416666Y-102499104D02*
X220369047Y-102641961D01*
X220369047Y-102641961D02*
X220273809Y-102737200D01*
X220273809Y-102737200D02*
X220130952Y-102784819D01*
X220130952Y-102784819D02*
X220035714Y-102784819D01*
X221416666Y-102784819D02*
X220845238Y-102784819D01*
X221130952Y-102784819D02*
X221130952Y-101784819D01*
X221130952Y-101784819D02*
X221035714Y-101927676D01*
X221035714Y-101927676D02*
X220940476Y-102022914D01*
X220940476Y-102022914D02*
X220845238Y-102070533D01*
X191873095Y-80241819D02*
X191873095Y-81051342D01*
X191873095Y-81051342D02*
X191920714Y-81146580D01*
X191920714Y-81146580D02*
X191968333Y-81194200D01*
X191968333Y-81194200D02*
X192063571Y-81241819D01*
X192063571Y-81241819D02*
X192254047Y-81241819D01*
X192254047Y-81241819D02*
X192349285Y-81194200D01*
X192349285Y-81194200D02*
X192396904Y-81146580D01*
X192396904Y-81146580D02*
X192444523Y-81051342D01*
X192444523Y-81051342D02*
X192444523Y-80241819D01*
X192825476Y-80241819D02*
X193444523Y-80241819D01*
X193444523Y-80241819D02*
X193111190Y-80622771D01*
X193111190Y-80622771D02*
X193254047Y-80622771D01*
X193254047Y-80622771D02*
X193349285Y-80670390D01*
X193349285Y-80670390D02*
X193396904Y-80718009D01*
X193396904Y-80718009D02*
X193444523Y-80813247D01*
X193444523Y-80813247D02*
X193444523Y-81051342D01*
X193444523Y-81051342D02*
X193396904Y-81146580D01*
X193396904Y-81146580D02*
X193349285Y-81194200D01*
X193349285Y-81194200D02*
X193254047Y-81241819D01*
X193254047Y-81241819D02*
X192968333Y-81241819D01*
X192968333Y-81241819D02*
X192873095Y-81194200D01*
X192873095Y-81194200D02*
X192825476Y-81146580D01*
X184333333Y-66359580D02*
X184285714Y-66407200D01*
X184285714Y-66407200D02*
X184142857Y-66454819D01*
X184142857Y-66454819D02*
X184047619Y-66454819D01*
X184047619Y-66454819D02*
X183904762Y-66407200D01*
X183904762Y-66407200D02*
X183809524Y-66311961D01*
X183809524Y-66311961D02*
X183761905Y-66216723D01*
X183761905Y-66216723D02*
X183714286Y-66026247D01*
X183714286Y-66026247D02*
X183714286Y-65883390D01*
X183714286Y-65883390D02*
X183761905Y-65692914D01*
X183761905Y-65692914D02*
X183809524Y-65597676D01*
X183809524Y-65597676D02*
X183904762Y-65502438D01*
X183904762Y-65502438D02*
X184047619Y-65454819D01*
X184047619Y-65454819D02*
X184142857Y-65454819D01*
X184142857Y-65454819D02*
X184285714Y-65502438D01*
X184285714Y-65502438D02*
X184333333Y-65550057D01*
X184666667Y-65454819D02*
X185285714Y-65454819D01*
X185285714Y-65454819D02*
X184952381Y-65835771D01*
X184952381Y-65835771D02*
X185095238Y-65835771D01*
X185095238Y-65835771D02*
X185190476Y-65883390D01*
X185190476Y-65883390D02*
X185238095Y-65931009D01*
X185238095Y-65931009D02*
X185285714Y-66026247D01*
X185285714Y-66026247D02*
X185285714Y-66264342D01*
X185285714Y-66264342D02*
X185238095Y-66359580D01*
X185238095Y-66359580D02*
X185190476Y-66407200D01*
X185190476Y-66407200D02*
X185095238Y-66454819D01*
X185095238Y-66454819D02*
X184809524Y-66454819D01*
X184809524Y-66454819D02*
X184714286Y-66407200D01*
X184714286Y-66407200D02*
X184666667Y-66359580D01*
X211274819Y-71142857D02*
X210798628Y-71476190D01*
X211274819Y-71714285D02*
X210274819Y-71714285D01*
X210274819Y-71714285D02*
X210274819Y-71333333D01*
X210274819Y-71333333D02*
X210322438Y-71238095D01*
X210322438Y-71238095D02*
X210370057Y-71190476D01*
X210370057Y-71190476D02*
X210465295Y-71142857D01*
X210465295Y-71142857D02*
X210608152Y-71142857D01*
X210608152Y-71142857D02*
X210703390Y-71190476D01*
X210703390Y-71190476D02*
X210751009Y-71238095D01*
X210751009Y-71238095D02*
X210798628Y-71333333D01*
X210798628Y-71333333D02*
X210798628Y-71714285D01*
X211274819Y-70190476D02*
X211274819Y-70761904D01*
X211274819Y-70476190D02*
X210274819Y-70476190D01*
X210274819Y-70476190D02*
X210417676Y-70571428D01*
X210417676Y-70571428D02*
X210512914Y-70666666D01*
X210512914Y-70666666D02*
X210560533Y-70761904D01*
X211274819Y-69238095D02*
X211274819Y-69809523D01*
X211274819Y-69523809D02*
X210274819Y-69523809D01*
X210274819Y-69523809D02*
X210417676Y-69619047D01*
X210417676Y-69619047D02*
X210512914Y-69714285D01*
X210512914Y-69714285D02*
X210560533Y-69809523D01*
X205783333Y-79889819D02*
X205450000Y-79413628D01*
X205211905Y-79889819D02*
X205211905Y-78889819D01*
X205211905Y-78889819D02*
X205592857Y-78889819D01*
X205592857Y-78889819D02*
X205688095Y-78937438D01*
X205688095Y-78937438D02*
X205735714Y-78985057D01*
X205735714Y-78985057D02*
X205783333Y-79080295D01*
X205783333Y-79080295D02*
X205783333Y-79223152D01*
X205783333Y-79223152D02*
X205735714Y-79318390D01*
X205735714Y-79318390D02*
X205688095Y-79366009D01*
X205688095Y-79366009D02*
X205592857Y-79413628D01*
X205592857Y-79413628D02*
X205211905Y-79413628D01*
X206164286Y-78985057D02*
X206211905Y-78937438D01*
X206211905Y-78937438D02*
X206307143Y-78889819D01*
X206307143Y-78889819D02*
X206545238Y-78889819D01*
X206545238Y-78889819D02*
X206640476Y-78937438D01*
X206640476Y-78937438D02*
X206688095Y-78985057D01*
X206688095Y-78985057D02*
X206735714Y-79080295D01*
X206735714Y-79080295D02*
X206735714Y-79175533D01*
X206735714Y-79175533D02*
X206688095Y-79318390D01*
X206688095Y-79318390D02*
X206116667Y-79889819D01*
X206116667Y-79889819D02*
X206735714Y-79889819D01*
X191623095Y-63741819D02*
X191623095Y-64551342D01*
X191623095Y-64551342D02*
X191670714Y-64646580D01*
X191670714Y-64646580D02*
X191718333Y-64694200D01*
X191718333Y-64694200D02*
X191813571Y-64741819D01*
X191813571Y-64741819D02*
X192004047Y-64741819D01*
X192004047Y-64741819D02*
X192099285Y-64694200D01*
X192099285Y-64694200D02*
X192146904Y-64646580D01*
X192146904Y-64646580D02*
X192194523Y-64551342D01*
X192194523Y-64551342D02*
X192194523Y-63741819D01*
X193099285Y-64075152D02*
X193099285Y-64741819D01*
X192861190Y-63694200D02*
X192623095Y-64408485D01*
X192623095Y-64408485D02*
X193242142Y-64408485D01*
X219309580Y-85666666D02*
X219357200Y-85714285D01*
X219357200Y-85714285D02*
X219404819Y-85857142D01*
X219404819Y-85857142D02*
X219404819Y-85952380D01*
X219404819Y-85952380D02*
X219357200Y-86095237D01*
X219357200Y-86095237D02*
X219261961Y-86190475D01*
X219261961Y-86190475D02*
X219166723Y-86238094D01*
X219166723Y-86238094D02*
X218976247Y-86285713D01*
X218976247Y-86285713D02*
X218833390Y-86285713D01*
X218833390Y-86285713D02*
X218642914Y-86238094D01*
X218642914Y-86238094D02*
X218547676Y-86190475D01*
X218547676Y-86190475D02*
X218452438Y-86095237D01*
X218452438Y-86095237D02*
X218404819Y-85952380D01*
X218404819Y-85952380D02*
X218404819Y-85857142D01*
X218404819Y-85857142D02*
X218452438Y-85714285D01*
X218452438Y-85714285D02*
X218500057Y-85666666D01*
X219404819Y-84714285D02*
X219404819Y-85285713D01*
X219404819Y-84999999D02*
X218404819Y-84999999D01*
X218404819Y-84999999D02*
X218547676Y-85095237D01*
X218547676Y-85095237D02*
X218642914Y-85190475D01*
X218642914Y-85190475D02*
X218690533Y-85285713D01*
X205945833Y-76294580D02*
X205898214Y-76342200D01*
X205898214Y-76342200D02*
X205755357Y-76389819D01*
X205755357Y-76389819D02*
X205660119Y-76389819D01*
X205660119Y-76389819D02*
X205517262Y-76342200D01*
X205517262Y-76342200D02*
X205422024Y-76246961D01*
X205422024Y-76246961D02*
X205374405Y-76151723D01*
X205374405Y-76151723D02*
X205326786Y-75961247D01*
X205326786Y-75961247D02*
X205326786Y-75818390D01*
X205326786Y-75818390D02*
X205374405Y-75627914D01*
X205374405Y-75627914D02*
X205422024Y-75532676D01*
X205422024Y-75532676D02*
X205517262Y-75437438D01*
X205517262Y-75437438D02*
X205660119Y-75389819D01*
X205660119Y-75389819D02*
X205755357Y-75389819D01*
X205755357Y-75389819D02*
X205898214Y-75437438D01*
X205898214Y-75437438D02*
X205945833Y-75485057D01*
X206279167Y-75389819D02*
X206945833Y-75389819D01*
X206945833Y-75389819D02*
X206517262Y-76389819D01*
X205945833Y-74389819D02*
X205612500Y-73913628D01*
X205374405Y-74389819D02*
X205374405Y-73389819D01*
X205374405Y-73389819D02*
X205755357Y-73389819D01*
X205755357Y-73389819D02*
X205850595Y-73437438D01*
X205850595Y-73437438D02*
X205898214Y-73485057D01*
X205898214Y-73485057D02*
X205945833Y-73580295D01*
X205945833Y-73580295D02*
X205945833Y-73723152D01*
X205945833Y-73723152D02*
X205898214Y-73818390D01*
X205898214Y-73818390D02*
X205850595Y-73866009D01*
X205850595Y-73866009D02*
X205755357Y-73913628D01*
X205755357Y-73913628D02*
X205374405Y-73913628D01*
X206279167Y-73389819D02*
X206898214Y-73389819D01*
X206898214Y-73389819D02*
X206564881Y-73770771D01*
X206564881Y-73770771D02*
X206707738Y-73770771D01*
X206707738Y-73770771D02*
X206802976Y-73818390D01*
X206802976Y-73818390D02*
X206850595Y-73866009D01*
X206850595Y-73866009D02*
X206898214Y-73961247D01*
X206898214Y-73961247D02*
X206898214Y-74199342D01*
X206898214Y-74199342D02*
X206850595Y-74294580D01*
X206850595Y-74294580D02*
X206802976Y-74342200D01*
X206802976Y-74342200D02*
X206707738Y-74389819D01*
X206707738Y-74389819D02*
X206422024Y-74389819D01*
X206422024Y-74389819D02*
X206326786Y-74342200D01*
X206326786Y-74342200D02*
X206279167Y-74294580D01*
X184083333Y-78179580D02*
X184035714Y-78227200D01*
X184035714Y-78227200D02*
X183892857Y-78274819D01*
X183892857Y-78274819D02*
X183797619Y-78274819D01*
X183797619Y-78274819D02*
X183654762Y-78227200D01*
X183654762Y-78227200D02*
X183559524Y-78131961D01*
X183559524Y-78131961D02*
X183511905Y-78036723D01*
X183511905Y-78036723D02*
X183464286Y-77846247D01*
X183464286Y-77846247D02*
X183464286Y-77703390D01*
X183464286Y-77703390D02*
X183511905Y-77512914D01*
X183511905Y-77512914D02*
X183559524Y-77417676D01*
X183559524Y-77417676D02*
X183654762Y-77322438D01*
X183654762Y-77322438D02*
X183797619Y-77274819D01*
X183797619Y-77274819D02*
X183892857Y-77274819D01*
X183892857Y-77274819D02*
X184035714Y-77322438D01*
X184035714Y-77322438D02*
X184083333Y-77370057D01*
X184559524Y-78274819D02*
X184750000Y-78274819D01*
X184750000Y-78274819D02*
X184845238Y-78227200D01*
X184845238Y-78227200D02*
X184892857Y-78179580D01*
X184892857Y-78179580D02*
X184988095Y-78036723D01*
X184988095Y-78036723D02*
X185035714Y-77846247D01*
X185035714Y-77846247D02*
X185035714Y-77465295D01*
X185035714Y-77465295D02*
X184988095Y-77370057D01*
X184988095Y-77370057D02*
X184940476Y-77322438D01*
X184940476Y-77322438D02*
X184845238Y-77274819D01*
X184845238Y-77274819D02*
X184654762Y-77274819D01*
X184654762Y-77274819D02*
X184559524Y-77322438D01*
X184559524Y-77322438D02*
X184511905Y-77370057D01*
X184511905Y-77370057D02*
X184464286Y-77465295D01*
X184464286Y-77465295D02*
X184464286Y-77703390D01*
X184464286Y-77703390D02*
X184511905Y-77798628D01*
X184511905Y-77798628D02*
X184559524Y-77846247D01*
X184559524Y-77846247D02*
X184654762Y-77893866D01*
X184654762Y-77893866D02*
X184845238Y-77893866D01*
X184845238Y-77893866D02*
X184940476Y-77846247D01*
X184940476Y-77846247D02*
X184988095Y-77798628D01*
X184988095Y-77798628D02*
X185035714Y-77703390D01*
X203920833Y-57204819D02*
X203587500Y-56728628D01*
X203349405Y-57204819D02*
X203349405Y-56204819D01*
X203349405Y-56204819D02*
X203730357Y-56204819D01*
X203730357Y-56204819D02*
X203825595Y-56252438D01*
X203825595Y-56252438D02*
X203873214Y-56300057D01*
X203873214Y-56300057D02*
X203920833Y-56395295D01*
X203920833Y-56395295D02*
X203920833Y-56538152D01*
X203920833Y-56538152D02*
X203873214Y-56633390D01*
X203873214Y-56633390D02*
X203825595Y-56681009D01*
X203825595Y-56681009D02*
X203730357Y-56728628D01*
X203730357Y-56728628D02*
X203349405Y-56728628D01*
X204397024Y-57204819D02*
X204587500Y-57204819D01*
X204587500Y-57204819D02*
X204682738Y-57157200D01*
X204682738Y-57157200D02*
X204730357Y-57109580D01*
X204730357Y-57109580D02*
X204825595Y-56966723D01*
X204825595Y-56966723D02*
X204873214Y-56776247D01*
X204873214Y-56776247D02*
X204873214Y-56395295D01*
X204873214Y-56395295D02*
X204825595Y-56300057D01*
X204825595Y-56300057D02*
X204777976Y-56252438D01*
X204777976Y-56252438D02*
X204682738Y-56204819D01*
X204682738Y-56204819D02*
X204492262Y-56204819D01*
X204492262Y-56204819D02*
X204397024Y-56252438D01*
X204397024Y-56252438D02*
X204349405Y-56300057D01*
X204349405Y-56300057D02*
X204301786Y-56395295D01*
X204301786Y-56395295D02*
X204301786Y-56633390D01*
X204301786Y-56633390D02*
X204349405Y-56728628D01*
X204349405Y-56728628D02*
X204397024Y-56776247D01*
X204397024Y-56776247D02*
X204492262Y-56823866D01*
X204492262Y-56823866D02*
X204682738Y-56823866D01*
X204682738Y-56823866D02*
X204777976Y-56776247D01*
X204777976Y-56776247D02*
X204825595Y-56728628D01*
X204825595Y-56728628D02*
X204873214Y-56633390D01*
X219988095Y-65054819D02*
X219988095Y-65864342D01*
X219988095Y-65864342D02*
X220035714Y-65959580D01*
X220035714Y-65959580D02*
X220083333Y-66007200D01*
X220083333Y-66007200D02*
X220178571Y-66054819D01*
X220178571Y-66054819D02*
X220369047Y-66054819D01*
X220369047Y-66054819D02*
X220464285Y-66007200D01*
X220464285Y-66007200D02*
X220511904Y-65959580D01*
X220511904Y-65959580D02*
X220559523Y-65864342D01*
X220559523Y-65864342D02*
X220559523Y-65054819D01*
X221464285Y-65054819D02*
X221273809Y-65054819D01*
X221273809Y-65054819D02*
X221178571Y-65102438D01*
X221178571Y-65102438D02*
X221130952Y-65150057D01*
X221130952Y-65150057D02*
X221035714Y-65292914D01*
X221035714Y-65292914D02*
X220988095Y-65483390D01*
X220988095Y-65483390D02*
X220988095Y-65864342D01*
X220988095Y-65864342D02*
X221035714Y-65959580D01*
X221035714Y-65959580D02*
X221083333Y-66007200D01*
X221083333Y-66007200D02*
X221178571Y-66054819D01*
X221178571Y-66054819D02*
X221369047Y-66054819D01*
X221369047Y-66054819D02*
X221464285Y-66007200D01*
X221464285Y-66007200D02*
X221511904Y-65959580D01*
X221511904Y-65959580D02*
X221559523Y-65864342D01*
X221559523Y-65864342D02*
X221559523Y-65626247D01*
X221559523Y-65626247D02*
X221511904Y-65531009D01*
X221511904Y-65531009D02*
X221464285Y-65483390D01*
X221464285Y-65483390D02*
X221369047Y-65435771D01*
X221369047Y-65435771D02*
X221178571Y-65435771D01*
X221178571Y-65435771D02*
X221083333Y-65483390D01*
X221083333Y-65483390D02*
X221035714Y-65531009D01*
X221035714Y-65531009D02*
X220988095Y-65626247D01*
X205695833Y-78139819D02*
X205362500Y-77663628D01*
X205124405Y-78139819D02*
X205124405Y-77139819D01*
X205124405Y-77139819D02*
X205505357Y-77139819D01*
X205505357Y-77139819D02*
X205600595Y-77187438D01*
X205600595Y-77187438D02*
X205648214Y-77235057D01*
X205648214Y-77235057D02*
X205695833Y-77330295D01*
X205695833Y-77330295D02*
X205695833Y-77473152D01*
X205695833Y-77473152D02*
X205648214Y-77568390D01*
X205648214Y-77568390D02*
X205600595Y-77616009D01*
X205600595Y-77616009D02*
X205505357Y-77663628D01*
X205505357Y-77663628D02*
X205124405Y-77663628D01*
X206648214Y-78139819D02*
X206076786Y-78139819D01*
X206362500Y-78139819D02*
X206362500Y-77139819D01*
X206362500Y-77139819D02*
X206267262Y-77282676D01*
X206267262Y-77282676D02*
X206172024Y-77377914D01*
X206172024Y-77377914D02*
X206076786Y-77425533D01*
D12*
%TO.C,R8*%
X201082776Y-64477500D02*
X201592224Y-64477500D01*
X201082776Y-65522500D02*
X201592224Y-65522500D01*
%TO.C,R10*%
X191995276Y-65477500D02*
X192504724Y-65477500D01*
X191995276Y-66522500D02*
X192504724Y-66522500D01*
%TO.C,R7*%
X201592224Y-59227500D02*
X201082776Y-59227500D01*
X201592224Y-60272500D02*
X201082776Y-60272500D01*
%TO.C,C12*%
X201191233Y-57740000D02*
X201483767Y-57740000D01*
X201191233Y-58760000D02*
X201483767Y-58760000D01*
%TO.C,C24*%
X224216233Y-64490000D02*
X224508767Y-64490000D01*
X224216233Y-65510000D02*
X224508767Y-65510000D01*
%TO.C,J3*%
X179860000Y-75275000D02*
X180970000Y-75275000D01*
X179860000Y-76385000D02*
X179860000Y-75275000D01*
X179860000Y-77385000D02*
X179860000Y-79495000D01*
X179860000Y-77385000D02*
X182080000Y-77385000D01*
X179860000Y-79495000D02*
X182080000Y-79495000D01*
X182080000Y-77385000D02*
X182080000Y-79495000D01*
%TO.C,C5*%
X223240000Y-84304437D02*
X223240000Y-87760000D01*
X223240000Y-87760000D02*
X224440000Y-87760000D01*
X224304437Y-83240000D02*
X223240000Y-84304437D01*
X224304437Y-83240000D02*
X224440000Y-83240000D01*
X226695563Y-83240000D02*
X226560000Y-83240000D01*
X226695563Y-83240000D02*
X227760000Y-84304437D01*
X227060000Y-82500000D02*
X227060000Y-83000000D01*
X227310000Y-82750000D02*
X226810000Y-82750000D01*
X227760000Y-84304437D02*
X227760000Y-87760000D01*
X227760000Y-87760000D02*
X226560000Y-87760000D01*
%TO.C,C13*%
X192396267Y-55490000D02*
X192103733Y-55490000D01*
X192396267Y-56510000D02*
X192103733Y-56510000D01*
%TO.C,R6*%
X201504724Y-60977500D02*
X200995276Y-60977500D01*
X201504724Y-62022500D02*
X200995276Y-62022500D01*
%TO.C,R12*%
X214477500Y-70245276D02*
X214477500Y-70754724D01*
X215522500Y-70245276D02*
X215522500Y-70754724D01*
%TO.C,R5*%
X192495276Y-82227500D02*
X193004724Y-82227500D01*
X192495276Y-83272500D02*
X193004724Y-83272500D01*
%TO.C,R4*%
X202857776Y-82162500D02*
X203367224Y-82162500D01*
X202857776Y-83207500D02*
X203367224Y-83207500D01*
%TO.C,J7*%
X179640000Y-59390000D02*
X180750000Y-59390000D01*
X179640000Y-60500000D02*
X179640000Y-59390000D01*
X179640000Y-61500000D02*
X179640000Y-63610000D01*
X179640000Y-61500000D02*
X181860000Y-61500000D01*
X179640000Y-63610000D02*
X181860000Y-63610000D01*
X181860000Y-61500000D02*
X181860000Y-63610000D01*
%TO.C,C8*%
X202966233Y-80675000D02*
X203258767Y-80675000D01*
X202966233Y-81695000D02*
X203258767Y-81695000D01*
%TO.C,R14*%
X227082776Y-72227500D02*
X227592224Y-72227500D01*
X227082776Y-73272500D02*
X227592224Y-73272500D01*
%TO.C,C11*%
X201396267Y-62740000D02*
X201103733Y-62740000D01*
X201396267Y-63760000D02*
X201103733Y-63760000D01*
%TO.C,U1*%
X222800000Y-75540000D02*
X219200000Y-75540000D01*
X221000000Y-79990000D02*
G75*
G02*
X219161522Y-75551522I0J2600000D01*
G01*
X222838478Y-75551522D02*
G75*
G02*
X221000000Y-79990001I-1838478J-1838478D01*
G01*
%TO.C,R13*%
X227504724Y-70477500D02*
X226995276Y-70477500D01*
X227504724Y-71522500D02*
X226995276Y-71522500D01*
%TO.C,J1*%
X215670000Y-93440000D02*
X215670000Y-101060000D01*
X215670000Y-94710000D02*
X225830000Y-94710000D01*
X215670000Y-101060000D02*
X225830000Y-101060000D01*
X225830000Y-93440000D02*
X215670000Y-93440000D01*
X225830000Y-101060000D02*
X225830000Y-93440000D01*
D13*
%TO.C,U3*%
X194200000Y-74725000D02*
X190300000Y-74725000D01*
X194200000Y-79775000D02*
X190300000Y-79775000D01*
D14*
X196390000Y-79555000D02*
G75*
G02*
X196190000Y-79555000I-100000J0D01*
G01*
X196190000Y-79555000D02*
G75*
G02*
X196390000Y-79555000I100000J0D01*
G01*
D12*
%TO.C,C3*%
X184238748Y-62015000D02*
X184761252Y-62015000D01*
X184238748Y-63485000D02*
X184761252Y-63485000D01*
%TO.C,R11*%
X211727500Y-70754724D02*
X211727500Y-70245276D01*
X212772500Y-70754724D02*
X212772500Y-70245276D01*
%TO.C,R2*%
X203367224Y-78912500D02*
X202857776Y-78912500D01*
X203367224Y-79957500D02*
X202857776Y-79957500D01*
D13*
%TO.C,U4*%
X193950000Y-58225000D02*
X190050000Y-58225000D01*
X193950000Y-63275000D02*
X190050000Y-63275000D01*
D14*
X196140000Y-63055000D02*
G75*
G02*
X195940000Y-63055000I-100000J0D01*
G01*
X195940000Y-63055000D02*
G75*
G02*
X196140000Y-63055000I100000J0D01*
G01*
D12*
%TO.C,C1*%
X213490000Y-84304437D02*
X213490000Y-87760000D01*
X213490000Y-87760000D02*
X214690000Y-87760000D01*
X214554437Y-83240000D02*
X213490000Y-84304437D01*
X214554437Y-83240000D02*
X214690000Y-83240000D01*
X216945563Y-83240000D02*
X216810000Y-83240000D01*
X216945563Y-83240000D02*
X218010000Y-84304437D01*
X217310000Y-82500000D02*
X217310000Y-83000000D01*
X217560000Y-82750000D02*
X217060000Y-82750000D01*
X218010000Y-84304437D02*
X218010000Y-87760000D01*
X218010000Y-87760000D02*
X216810000Y-87760000D01*
%TO.C,C7*%
X203258767Y-75425000D02*
X202966233Y-75425000D01*
X203258767Y-76445000D02*
X202966233Y-76445000D01*
%TO.C,R3*%
X202857776Y-73412500D02*
X203367224Y-73412500D01*
X202857776Y-74457500D02*
X203367224Y-74457500D01*
%TO.C,C9*%
X184103733Y-78740000D02*
X184396267Y-78740000D01*
X184103733Y-79760000D02*
X184396267Y-79760000D01*
%TO.C,R9*%
X201082776Y-56227500D02*
X201592224Y-56227500D01*
X201082776Y-57272500D02*
X201592224Y-57272500D01*
%TO.C,U6*%
X220750000Y-66440000D02*
X218800000Y-66440000D01*
X220750000Y-66440000D02*
X222700000Y-66440000D01*
X220750000Y-71560000D02*
X218800000Y-71560000D01*
X220750000Y-71560000D02*
X222700000Y-71560000D01*
X218050000Y-66535000D02*
X217810000Y-66205000D01*
X218290000Y-66205000D01*
X218050000Y-66535000D01*
G36*
X218050000Y-66535000D02*
G01*
X217810000Y-66205000D01*
X218290000Y-66205000D01*
X218050000Y-66535000D01*
G37*
%TO.C,R1*%
X203367224Y-77162500D02*
X202857776Y-77162500D01*
X203367224Y-78207500D02*
X202857776Y-78207500D01*
%TD*%
M02*
