%TF.GenerationSoftware,Altium Limited,Altium Designer,25.8.1 (18)*%
G04 Layer_Color=65535*
%FSLAX45Y45*%
%MOMM*%
%TF.SameCoordinates,96F0DE5A-C95F-4AE8-8FAC-F916EA61A14B*%
%TF.FilePolarity,Positive*%
%TF.FileFunction,Legend,Top*%
%TF.Part,Single*%
G01*
G75*
%TA.AperFunction,NonConductor*%
%ADD26C,0.25000*%
%ADD27C,0.20000*%
%ADD28C,0.60000*%
%ADD29C,0.50000*%
%ADD30C,0.25400*%
%ADD31C,0.10000*%
G36*
X14895947Y384510D02*
X11895948D01*
Y592026D01*
Y593660D01*
Y3384510D01*
X14895947D01*
Y384510D01*
D02*
G37*
%LPC*%
G36*
X14162286Y3239085D02*
X14160654D01*
Y3237451D01*
X13948235D01*
Y3239085D01*
X13946600D01*
Y3237451D01*
X13944968D01*
Y3165556D01*
X13871439D01*
Y3237451D01*
X13869804D01*
Y3239085D01*
X13868170D01*
Y3237451D01*
X13508693D01*
Y3239085D01*
X13507059D01*
Y3237451D01*
X13505424D01*
Y3165556D01*
X13286472D01*
Y3237451D01*
X13284837D01*
Y3239085D01*
X13283203D01*
Y3237451D01*
X12993987D01*
Y3165556D01*
X12773399D01*
Y3237451D01*
X12701503D01*
Y3165556D01*
X12627974D01*
Y3092026D01*
X12701503D01*
Y2944967D01*
X12773399D01*
Y2873072D01*
X12627974D01*
Y2652484D01*
X12335490D01*
Y2580588D01*
X12333856D01*
Y2578954D01*
X12261960D01*
Y2433530D01*
X12188431D01*
Y2578954D01*
X12043006D01*
Y2363268D01*
X12041372D01*
Y2361634D01*
X12043006D01*
Y2360000D01*
X12114902D01*
Y2286471D01*
X12043006D01*
Y2212941D01*
X12046274D01*
Y2214575D01*
X12114902D01*
Y2141046D01*
X12043006D01*
Y2139412D01*
X12041372D01*
Y2137778D01*
X12043006D01*
Y1997255D01*
X12041372D01*
Y1995621D01*
X12043006D01*
Y1993987D01*
X12188431D01*
Y1920457D01*
X12043006D01*
Y1631242D01*
X12041372D01*
Y1629608D01*
X12043006D01*
Y1627974D01*
X12188431D01*
Y1701503D01*
X12261960D01*
Y1554444D01*
X12335490D01*
Y1409020D01*
X12554444D01*
Y1482549D01*
X12407385D01*
Y1551176D01*
X12409019D01*
Y1554444D01*
X12407385D01*
Y1556078D01*
X12404117D01*
Y1554444D01*
X12335490D01*
Y1627974D01*
X12480915D01*
Y1556078D01*
X12482549D01*
Y1554444D01*
X12552810D01*
Y1556078D01*
X12554444D01*
Y1627974D01*
X12626340D01*
Y1629608D01*
X12627974D01*
Y1701503D01*
X12701503D01*
Y1627974D01*
X12848563D01*
Y1578954D01*
X12850195D01*
Y1580588D01*
X12851830D01*
Y1582222D01*
X12850195D01*
Y1627974D01*
X12848563D01*
Y1730915D01*
X12850195D01*
Y1670457D01*
X12851830D01*
Y1668823D01*
X12850195D01*
Y1662288D01*
X12851830D01*
Y1660654D01*
X12850195D01*
Y1652484D01*
X12851830D01*
Y1644314D01*
X12850195D01*
Y1642680D01*
X12851830D01*
Y1629608D01*
X12853464D01*
Y1641046D01*
X12858366D01*
Y1637778D01*
X12860001D01*
Y1636144D01*
X12858366D01*
Y1632876D01*
X12860001D01*
Y1634510D01*
X12863268D01*
Y1632876D01*
X12864902D01*
Y1629608D01*
X12863268D01*
Y1627974D01*
X12861633D01*
Y1626340D01*
X12860001D01*
Y1627974D01*
X12858366D01*
Y1621438D01*
X12860001D01*
Y1623072D01*
X12863268D01*
Y1621438D01*
X12866536D01*
Y1619804D01*
X12869804D01*
Y1614902D01*
X12868170D01*
Y1611634D01*
X12869804D01*
Y1608366D01*
X12868170D01*
Y1601830D01*
X12869804D01*
Y1593660D01*
X12868170D01*
Y1592026D01*
X12866536D01*
Y1585490D01*
X12863268D01*
Y1587124D01*
X12864902D01*
Y1588758D01*
X12860001D01*
Y1585490D01*
X12863268D01*
Y1582222D01*
X12856732D01*
Y1580588D01*
X12869804D01*
Y1578954D01*
X12874706D01*
Y1580588D01*
X12876340D01*
Y1578954D01*
X12877974D01*
Y1580588D01*
X12879608D01*
Y1578954D01*
X12881242D01*
Y1577320D01*
X12848563D01*
Y1575686D01*
X12846928D01*
Y1554444D01*
X12918823D01*
Y1556078D01*
X12920457D01*
Y1575686D01*
X12989085D01*
Y1577320D01*
X12992352D01*
Y1575686D01*
X12993987D01*
Y1482549D01*
X12920457D01*
Y1335490D01*
X12261960D01*
Y1261961D01*
X12407385D01*
Y1260327D01*
X12409019D01*
Y1258693D01*
X12407385D01*
Y1190065D01*
X12480915D01*
Y1116536D01*
X12627974D01*
Y824052D01*
X12699869D01*
Y822418D01*
X12701503D01*
Y750523D01*
X12773399D01*
Y822418D01*
X12775033D01*
Y824052D01*
X13065881D01*
Y892680D01*
X13067516D01*
Y895948D01*
X13065881D01*
Y897582D01*
X13062614D01*
Y895948D01*
X12993987D01*
Y1043007D01*
X12920457D01*
Y1116536D01*
X13065881D01*
Y1114902D01*
X13067516D01*
Y1113268D01*
X13065881D01*
Y1049542D01*
X13067516D01*
Y1047908D01*
X13065881D01*
Y1044641D01*
X13067516D01*
Y1043007D01*
X13139412D01*
Y824052D01*
X13212941D01*
Y676994D01*
X13139412D01*
Y824052D01*
X13065881D01*
Y683529D01*
X13067516D01*
Y681896D01*
X13065881D01*
Y678628D01*
X13067516D01*
Y676994D01*
X13139412D01*
Y605098D01*
X13141046D01*
Y603464D01*
X13212941D01*
Y676994D01*
X13286472D01*
Y531569D01*
X13288104D01*
Y529935D01*
X13289738D01*
Y531569D01*
X13356732D01*
Y529935D01*
X13358366D01*
Y531569D01*
X13360001D01*
Y824052D01*
X13431895D01*
Y895948D01*
X13430261D01*
Y897582D01*
X13428627D01*
Y895948D01*
X13360001D01*
Y969477D01*
X13505424D01*
Y824052D01*
X13431895D01*
Y750523D01*
X13505424D01*
Y676994D01*
X13578954D01*
Y603464D01*
X13652483D01*
Y531569D01*
X13654117D01*
Y529935D01*
X13655751D01*
Y531569D01*
X13726013D01*
Y534837D01*
X13724379D01*
Y536471D01*
X13726013D01*
Y598562D01*
X13724379D01*
Y600196D01*
X13726013D01*
Y603464D01*
X13652483D01*
Y750523D01*
X13726013D01*
Y680262D01*
X13724379D01*
Y678628D01*
X13726013D01*
Y676994D01*
X14016862D01*
Y678628D01*
X14018497D01*
Y822418D01*
X14016862D01*
Y824052D01*
X13871439D01*
Y969477D01*
X14016862D01*
Y971111D01*
X14018497D01*
Y1043007D01*
X13797908D01*
Y1114902D01*
X13799542D01*
Y1116536D01*
X13871439D01*
Y1261961D01*
X13944968D01*
Y1190065D01*
X14018497D01*
Y1261961D01*
X14237451D01*
Y1190065D01*
X14092026D01*
Y1188431D01*
X14090392D01*
Y824052D01*
X14237451D01*
Y676994D01*
X14310980D01*
Y603464D01*
X14456406D01*
Y676994D01*
X14384509D01*
Y678628D01*
X14382877D01*
Y680262D01*
X14384509D01*
Y748889D01*
X14382877D01*
Y750523D01*
X14310980D01*
Y824052D01*
X14529935D01*
Y531569D01*
X14531569D01*
Y529935D01*
X14533203D01*
Y531569D01*
X14748889D01*
Y603464D01*
X14676993D01*
Y748889D01*
X14675359D01*
Y750523D01*
X14603464D01*
Y824052D01*
X14748889D01*
Y966209D01*
X14750523D01*
Y967843D01*
X14748889D01*
Y969477D01*
X14676993D01*
Y897582D01*
X14675359D01*
Y895948D01*
X14605098D01*
Y897582D01*
X14603464D01*
Y1043007D01*
X14529935D01*
Y1116536D01*
X14456406D01*
Y1261961D01*
X14529935D01*
Y1190065D01*
X14603464D01*
Y1335490D01*
X14529935D01*
Y1409020D01*
X14456406D01*
Y1482549D01*
X14384509D01*
Y1554444D01*
X14382877D01*
Y1556078D01*
X14379608D01*
Y1554444D01*
X14315881D01*
Y1556078D01*
X14314249D01*
Y1554444D01*
X14312614D01*
Y1556078D01*
X14310980D01*
Y1627974D01*
X14237451D01*
Y1701503D01*
X14310980D01*
Y1775033D01*
X14163921D01*
Y1627974D01*
X14092026D01*
Y1629608D01*
X14090392D01*
Y1701503D01*
X14018497D01*
Y1554444D01*
X14087125D01*
Y1556078D01*
X14090392D01*
Y1482549D01*
X14163921D01*
Y1462941D01*
Y1461307D01*
Y1409020D01*
X14310980D01*
Y1471111D01*
Y1472745D01*
Y1482549D01*
X14384509D01*
Y1337124D01*
X14382877D01*
Y1335490D01*
X14310980D01*
Y1263595D01*
X14309346D01*
Y1261961D01*
X14237451D01*
Y1335490D01*
X14163921D01*
Y1409020D01*
X14090392D01*
Y1482549D01*
X14018497D01*
Y1541373D01*
Y1543007D01*
Y1554444D01*
X13944968D01*
Y1577320D01*
X13943333D01*
Y1730915D01*
X13941699D01*
Y1729281D01*
X13935162D01*
Y1730915D01*
X13928627D01*
Y1732549D01*
X13922092D01*
Y1734183D01*
X13918823D01*
Y1737451D01*
X13920457D01*
Y1739085D01*
X13925359D01*
Y1740719D01*
X13928627D01*
Y1742353D01*
X13931895D01*
Y1743987D01*
X13933530D01*
Y1745621D01*
X13935162D01*
Y1748889D01*
X13936797D01*
Y1752157D01*
X13938431D01*
Y1757059D01*
X13940065D01*
Y1755425D01*
X13941699D01*
Y1753791D01*
X13940065D01*
Y1750523D01*
X13941699D01*
Y1745621D01*
X13943333D01*
Y1775033D01*
X13941699D01*
Y1783203D01*
X13940065D01*
Y1784837D01*
X13938431D01*
Y1779935D01*
X13936797D01*
Y1778301D01*
X13935162D01*
Y1779935D01*
X13930261D01*
Y1781569D01*
X13920457D01*
Y1779935D01*
X13915555D01*
Y1781569D01*
X13905751D01*
Y1783203D01*
X13904117D01*
Y1784837D01*
X13902483D01*
Y1783203D01*
X13900850D01*
Y1781569D01*
X13899216D01*
Y1776667D01*
X13897581D01*
Y1775033D01*
X13894315D01*
Y1773399D01*
X13892680D01*
Y1776667D01*
X13894315D01*
Y1779935D01*
X13895947D01*
Y1781569D01*
X13897581D01*
Y1784837D01*
X13899216D01*
Y1786471D01*
X13902483D01*
Y1788105D01*
X13904117D01*
Y1793007D01*
X13902483D01*
Y1794641D01*
X13900850D01*
Y1796275D01*
X13899216D01*
Y1810980D01*
X13900850D01*
Y1817516D01*
X13902483D01*
Y1819150D01*
X13904117D01*
Y1825686D01*
X13905751D01*
Y1827320D01*
X13907385D01*
Y1828954D01*
X13909019D01*
Y1830588D01*
X13910654D01*
Y1832222D01*
X13913921D01*
Y1833856D01*
X13915555D01*
Y1837124D01*
X13917189D01*
Y1838758D01*
X13923724D01*
Y1840392D01*
X13922092D01*
Y1842026D01*
X13920457D01*
Y1843660D01*
X13922092D01*
Y1845294D01*
X13925359D01*
Y1846928D01*
X13928627D01*
Y1848562D01*
X13933530D01*
Y1845294D01*
X13936797D01*
Y1846928D01*
X13938431D01*
Y1845294D01*
X13940065D01*
Y1855098D01*
X13941699D01*
Y1886144D01*
X13943333D01*
Y1802810D01*
Y1801176D01*
Y1775033D01*
X14090392D01*
Y1920457D01*
X14163921D01*
Y1848562D01*
X14237451D01*
Y1993987D01*
X14310980D01*
Y2044641D01*
Y2046275D01*
Y2067516D01*
X14163921D01*
Y2141046D01*
X14090392D01*
Y2212941D01*
X14092026D01*
Y2214575D01*
X14095294D01*
Y2212941D01*
X14096928D01*
Y2214575D01*
X14234183D01*
Y2212941D01*
X14235817D01*
Y2214575D01*
X14237451D01*
Y2286471D01*
X14384509D01*
Y2358366D01*
X14382877D01*
Y2360000D01*
X14237451D01*
Y2578954D01*
X14163921D01*
Y2652484D01*
X14018497D01*
Y2797909D01*
X14016862D01*
Y2799543D01*
X13944968D01*
Y2757059D01*
Y2755425D01*
Y2652484D01*
X14018497D01*
Y2587124D01*
Y2585490D01*
Y2580588D01*
X14016862D01*
Y2578954D01*
X13944968D01*
Y2652484D01*
X13871439D01*
Y2578954D01*
X13944968D01*
Y2507059D01*
X13871439D01*
Y2578954D01*
X13799542D01*
Y2580588D01*
X13797908D01*
Y2652484D01*
X13726013D01*
Y2654118D01*
X13724379D01*
Y2655752D01*
X13726013D01*
Y2868170D01*
X13724379D01*
Y2871438D01*
X13726013D01*
Y2873072D01*
X13797908D01*
Y3092026D01*
X13726013D01*
Y3134510D01*
Y3136144D01*
Y3160654D01*
X13724379D01*
Y3163922D01*
X13726013D01*
Y3165556D01*
X13797908D01*
Y3092026D01*
X14018497D01*
Y3165556D01*
X14163921D01*
Y3237451D01*
X14162286D01*
Y3239085D01*
D02*
G37*
G36*
X13944968Y3018497D02*
X13871439D01*
Y2873072D01*
X13869804D01*
Y2871438D01*
X13868170D01*
Y2873072D01*
X13797908D01*
Y2726013D01*
X13871439D01*
Y2799543D01*
X13944968D01*
Y3018497D01*
D02*
G37*
G36*
X14240720Y3239085D02*
X14239085D01*
Y3237451D01*
X14237451D01*
Y2726013D01*
X14748889D01*
Y2727647D01*
X14750523D01*
Y2729281D01*
X14748889D01*
Y3237451D01*
X14240720D01*
Y3239085D01*
D02*
G37*
G36*
X14163921Y3092026D02*
X14092026D01*
Y3090392D01*
X14090392D01*
Y3018497D01*
X14018497D01*
Y2925359D01*
Y2923725D01*
Y2873072D01*
X14020129D01*
Y2871438D01*
X14021765D01*
Y2873072D01*
X14090392D01*
Y2727647D01*
X14092026D01*
Y2726013D01*
X14163921D01*
Y2873072D01*
X14090392D01*
Y2944967D01*
X14163921D01*
Y3092026D01*
D02*
G37*
G36*
X12552810Y3239085D02*
X12551176D01*
Y3237451D01*
X12043006D01*
Y2729281D01*
X12041372D01*
Y2727647D01*
X12043006D01*
Y2726013D01*
X12554444D01*
Y3237451D01*
X12552810D01*
Y3239085D01*
D02*
G37*
G36*
X14676993Y2652484D02*
X14603464D01*
Y2578954D01*
X14675359D01*
Y2580588D01*
X14676993D01*
Y2652484D01*
D02*
G37*
G36*
X14384509D02*
X14237451D01*
Y2578954D01*
X14384509D01*
Y2507059D01*
X14456406D01*
Y2578954D01*
X14384509D01*
Y2652484D01*
D02*
G37*
G36*
Y2507059D02*
X14310980D01*
Y2433530D01*
X14382877D01*
Y2435164D01*
X14384509D01*
Y2507059D01*
D02*
G37*
G36*
X14748889Y2433530D02*
X14676993D01*
Y2360000D01*
X14748889D01*
Y2361634D01*
X14750523D01*
Y2363268D01*
X14748889D01*
Y2430262D01*
X14750523D01*
Y2431896D01*
X14748889D01*
Y2433530D01*
D02*
G37*
G36*
X14601830Y2507059D02*
X14531569D01*
Y2505425D01*
X14529935D01*
Y2360000D01*
X14603464D01*
Y2286471D01*
X14675359D01*
Y2288105D01*
X14676993D01*
Y2360000D01*
X14603464D01*
Y2505425D01*
X14601830D01*
Y2507059D01*
D02*
G37*
G36*
X14603464Y2286471D02*
X14529935D01*
Y2214575D01*
X14528300D01*
Y2212941D01*
X14526666D01*
Y2214575D01*
X14461307D01*
Y2212941D01*
X14458038D01*
Y2214575D01*
X14456406D01*
Y2286471D01*
X14384509D01*
Y2214575D01*
X14382877D01*
Y2212941D01*
X14379608D01*
Y2214575D01*
X14315881D01*
Y2212941D01*
X14314249D01*
Y2214575D01*
X14312614D01*
Y2212941D01*
X14310980D01*
Y2067516D01*
X14382877D01*
Y2069150D01*
X14384509D01*
Y2137778D01*
X14382877D01*
Y2139412D01*
X14384509D01*
Y2141046D01*
X14529935D01*
Y2067516D01*
X14456406D01*
Y1993987D01*
X14384509D01*
Y1992353D01*
X14382877D01*
Y1990719D01*
X14384509D01*
Y1922091D01*
X14382877D01*
Y1920457D01*
X14310980D01*
Y1775033D01*
X14456406D01*
Y1701503D01*
X14384509D01*
Y1699869D01*
X14382877D01*
Y1698235D01*
X14384509D01*
Y1631242D01*
X14382877D01*
Y1629608D01*
X14384509D01*
Y1627974D01*
X14529935D01*
Y1556078D01*
X14528300D01*
Y1554444D01*
X14526666D01*
Y1556078D01*
X14525034D01*
Y1554444D01*
X14461307D01*
Y1556078D01*
X14458038D01*
Y1554444D01*
X14456406D01*
Y1482549D01*
X14529935D01*
Y1409020D01*
X14676993D01*
Y1480915D01*
X14675359D01*
Y1482549D01*
X14603464D01*
Y1627974D01*
X14675359D01*
Y1629608D01*
X14676993D01*
Y1701503D01*
X14603464D01*
Y1846928D01*
X14601830D01*
Y1848562D01*
X14529935D01*
Y1775033D01*
X14456406D01*
Y1846928D01*
X14458038D01*
Y1848562D01*
X14529935D01*
Y1920457D01*
X14601830D01*
Y1922091D01*
X14603464D01*
Y1993987D01*
X14748889D01*
Y1995621D01*
X14750523D01*
Y1997255D01*
X14748889D01*
Y2137778D01*
X14750523D01*
Y2139412D01*
X14748889D01*
Y2141046D01*
X14676993D01*
Y2212941D01*
X14675359D01*
Y2214575D01*
X14672092D01*
Y2212941D01*
X14670457D01*
Y2214575D01*
X14606732D01*
Y2212941D01*
X14605098D01*
Y2214575D01*
X14603464D01*
Y2286471D01*
D02*
G37*
G36*
X14748889Y1848562D02*
X14676993D01*
Y1806078D01*
Y1804444D01*
Y1775033D01*
X14748889D01*
Y1776667D01*
X14750523D01*
Y1778301D01*
X14748889D01*
Y1845294D01*
X14750523D01*
Y1846928D01*
X14748889D01*
Y1848562D01*
D02*
G37*
G36*
X12778301Y1556078D02*
X12775033D01*
Y1554444D01*
X12773399D01*
Y1482549D01*
X12701503D01*
Y1554444D01*
X12699869D01*
Y1556078D01*
X12696601D01*
Y1554444D01*
X12631242D01*
Y1556078D01*
X12629608D01*
Y1554444D01*
X12627974D01*
Y1409020D01*
X12846928D01*
Y1554444D01*
X12778301D01*
Y1556078D01*
D02*
G37*
G36*
X12046274D02*
X12043006D01*
Y1482549D01*
X12114902D01*
Y1409020D01*
X12188431D01*
Y1482549D01*
X12261960D01*
Y1554444D01*
X12046274D01*
Y1556078D01*
D02*
G37*
G36*
X12114902Y1409020D02*
X12043006D01*
Y1407386D01*
X12041372D01*
Y1405752D01*
X12043006D01*
Y1338758D01*
X12041372D01*
Y1337124D01*
X12043006D01*
Y1335490D01*
X12114902D01*
Y1409020D01*
D02*
G37*
G36*
X14748889Y1261961D02*
X14676993D01*
Y1116536D01*
X14748889D01*
Y1118170D01*
X14750523D01*
Y1119804D01*
X14748889D01*
Y1261961D01*
D02*
G37*
G36*
X12407385Y1190065D02*
X12335490D01*
Y1116536D01*
X12407385D01*
Y1118170D01*
X12409019D01*
Y1119804D01*
X12407385D01*
Y1190065D01*
D02*
G37*
G36*
X12188431D02*
X12043006D01*
Y1119804D01*
X12041372D01*
Y1118170D01*
X12043006D01*
Y1116536D01*
X12188431D01*
Y1190065D01*
D02*
G37*
G36*
X14676993Y1116536D02*
X14603464D01*
Y1043007D01*
X14676993D01*
Y1116536D01*
D02*
G37*
G36*
X14163921Y750523D02*
X14092026D01*
Y748889D01*
X14090392D01*
Y678628D01*
X14092026D01*
Y676994D01*
X14163921D01*
Y750523D01*
D02*
G37*
G36*
X14310980Y603464D02*
X14237451D01*
Y531569D01*
X14239085D01*
Y529935D01*
X14240720D01*
Y531569D01*
X14307712D01*
Y529935D01*
X14309346D01*
Y531569D01*
X14310980D01*
Y603464D01*
D02*
G37*
G36*
X14090392D02*
X13944968D01*
Y531569D01*
X13946600D01*
Y529935D01*
X13948235D01*
Y531569D01*
X14090392D01*
Y603464D01*
D02*
G37*
G36*
X13578954D02*
X13431895D01*
Y531569D01*
X13433530D01*
Y529935D01*
X13435162D01*
Y531569D01*
X13575687D01*
Y529935D01*
X13577319D01*
Y531569D01*
X13578954D01*
Y603464D01*
D02*
G37*
G36*
X12993987Y676994D02*
X12920457D01*
Y531569D01*
X12922092D01*
Y529935D01*
X12923724D01*
Y531569D01*
X12990720D01*
Y529935D01*
X12992352D01*
Y531569D01*
X12993987D01*
Y676994D01*
D02*
G37*
G36*
X12846928D02*
X12773399D01*
Y531569D01*
X12775033D01*
Y529935D01*
X12776667D01*
Y531569D01*
X12843660D01*
Y529935D01*
X12845294D01*
Y531569D01*
X12846928D01*
Y539739D01*
Y541373D01*
Y676994D01*
D02*
G37*
G36*
X12554444Y1043007D02*
X12043006D01*
Y1041373D01*
X12041372D01*
Y1039739D01*
X12043006D01*
Y531569D01*
X12551176D01*
Y529935D01*
X12552810D01*
Y531569D01*
X12554444D01*
Y1043007D01*
D02*
G37*
%LPD*%
G36*
X12773399Y3092026D02*
X12701503D01*
Y3123072D01*
Y3124706D01*
Y3165556D01*
X12773399D01*
Y3092026D01*
D02*
G37*
G36*
X13726013Y3020131D02*
X13724379D01*
Y3018497D01*
X13652483D01*
Y3092026D01*
X13726013D01*
Y3020131D01*
D02*
G37*
G36*
X13139412Y3092026D02*
X13067516D01*
Y3090392D01*
X13065881D01*
Y3088758D01*
Y3087124D01*
X13067516D01*
Y3085490D01*
X13065881D01*
Y3018497D01*
X13139412D01*
Y2946601D01*
X13141046D01*
Y2944967D01*
X13212941D01*
Y3092026D01*
X13286472D01*
Y3018497D01*
X13360001D01*
Y2944967D01*
X13431895D01*
Y2938432D01*
Y2936798D01*
Y2873072D01*
X13505424D01*
Y2652484D01*
X13578954D01*
Y2799543D01*
X13650850D01*
Y2797909D01*
X13652483D01*
Y2670457D01*
Y2668823D01*
Y2580588D01*
X13650850D01*
Y2578954D01*
X13578954D01*
Y2433530D01*
X13505424D01*
Y2507059D01*
X13431895D01*
Y2578954D01*
X13360001D01*
Y2652484D01*
X13286472D01*
Y2726013D01*
Y2727647D01*
Y2873072D01*
X13214575D01*
Y2871438D01*
X13212941D01*
Y2652484D01*
X13286472D01*
Y2507059D01*
X13212941D01*
Y2578954D01*
X13141046D01*
Y2580588D01*
X13139412D01*
Y2652484D01*
X13067516D01*
Y2654118D01*
X13065881D01*
Y2657386D01*
Y2659020D01*
Y2726013D01*
X12993987D01*
Y2799543D01*
X13065881D01*
Y2789739D01*
Y2788105D01*
Y2726013D01*
X13139412D01*
Y2799543D01*
X13065881D01*
Y2868170D01*
X13067516D01*
Y2871438D01*
X13065881D01*
Y2873072D01*
X12997255D01*
Y2871438D01*
X12995621D01*
Y2873072D01*
X12993987D01*
Y2944967D01*
X12920457D01*
Y3018497D01*
X12993987D01*
Y2944967D01*
X13065881D01*
Y2946601D01*
X13067516D01*
Y2949869D01*
X13065881D01*
Y3018497D01*
X12993987D01*
Y3165556D01*
X13139412D01*
Y3092026D01*
D02*
G37*
G36*
X13578954Y3160654D02*
Y3159020D01*
Y2873072D01*
X13577319D01*
Y2871438D01*
X13575687D01*
Y2873072D01*
X13505424D01*
Y3018497D01*
X13360001D01*
Y3092026D01*
X13505424D01*
Y3165556D01*
X13578954D01*
Y3160654D01*
D02*
G37*
G36*
X12920457Y2578954D02*
X12992352D01*
Y2580588D01*
X12993987D01*
Y2652484D01*
X13065881D01*
Y2511961D01*
X13067516D01*
Y2510327D01*
X13065881D01*
Y2507059D01*
X13212941D01*
Y2433530D01*
X12993987D01*
Y2360000D01*
X13360001D01*
Y2286471D01*
X13431895D01*
Y2214575D01*
X13433530D01*
Y2212941D01*
X13436797D01*
Y2214575D01*
X13498889D01*
Y2212941D01*
X13502158D01*
Y2214575D01*
X13503790D01*
Y2212941D01*
X13505424D01*
Y2193333D01*
X13361633D01*
Y2191699D01*
X13360001D01*
Y2212941D01*
X13358366D01*
Y2214575D01*
X13355098D01*
Y2212941D01*
X13353464D01*
Y2214575D01*
X13291373D01*
Y2212941D01*
X13289738D01*
Y2214575D01*
X13288104D01*
Y2212941D01*
X13286472D01*
Y2191699D01*
X13350195D01*
Y2190065D01*
X13348563D01*
Y2186798D01*
X13346928D01*
Y2185164D01*
X13343660D01*
Y2186798D01*
X13342026D01*
Y2188431D01*
X13335490D01*
Y2190065D01*
X13317516D01*
Y2188431D01*
X13312614D01*
Y2186798D01*
X13314249D01*
Y2185164D01*
X13315881D01*
Y2183530D01*
X13320784D01*
Y2181896D01*
X13324052D01*
Y2180262D01*
X13325687D01*
Y2178628D01*
X13327319D01*
Y2176994D01*
X13325687D01*
Y2175359D01*
X13322418D01*
Y2173725D01*
X13317516D01*
Y2172091D01*
X13306078D01*
Y2170457D01*
X13284837D01*
Y2168823D01*
X13270129D01*
Y2167189D01*
X13263596D01*
Y2165555D01*
X13255424D01*
Y2163922D01*
X13247255D01*
Y2162288D01*
X13243987D01*
Y2160654D01*
X13226013D01*
Y2162288D01*
X13221111D01*
Y2163922D01*
X13212941D01*
Y2165555D01*
X13193333D01*
Y2163922D01*
X13190065D01*
Y2165555D01*
X13180261D01*
Y2163922D01*
X13175359D01*
Y2165555D01*
X13173724D01*
Y2163922D01*
X13155751D01*
Y2165555D01*
X13142680D01*
Y2167189D01*
X13127974D01*
Y2168823D01*
X13124706D01*
Y2167189D01*
X13110001D01*
Y2165555D01*
X13108366D01*
Y2167189D01*
X13095294D01*
Y2168823D01*
X13093660D01*
Y2170457D01*
X13092026D01*
Y2172091D01*
X13090392D01*
Y2173725D01*
X13088757D01*
Y2175359D01*
X13087125D01*
Y2176994D01*
X13083856D01*
Y2178628D01*
X13082222D01*
Y2180262D01*
X13075687D01*
Y2181896D01*
X13072418D01*
Y2180262D01*
X13062614D01*
Y2178628D01*
X13057712D01*
Y2176994D01*
X13054443D01*
Y2173725D01*
X13056078D01*
Y2172091D01*
X13057712D01*
Y2170457D01*
X13059346D01*
Y2163922D01*
X13054443D01*
Y2162288D01*
X13047908D01*
Y2160654D01*
X13033203D01*
Y2159020D01*
X13026666D01*
Y2157386D01*
X13010327D01*
Y2155752D01*
X13003790D01*
Y2154118D01*
X12985817D01*
Y2152484D01*
X12984183D01*
Y2154118D01*
X12980914D01*
Y2152484D01*
X12972745D01*
Y2150850D01*
X12961307D01*
Y2149216D01*
X12943333D01*
Y2147582D01*
X12933530D01*
Y2145948D01*
X12907385D01*
Y2147582D01*
X12897581D01*
Y2149216D01*
X12879608D01*
Y2150850D01*
X12851830D01*
Y2152484D01*
X12850195D01*
Y2155752D01*
X12848563D01*
Y2141046D01*
X12773399D01*
Y2286471D01*
X12992352D01*
Y2288105D01*
X12993987D01*
Y2360000D01*
X12920457D01*
Y2433530D01*
X12846928D01*
Y2505425D01*
X12848563D01*
Y2507059D01*
X12920457D01*
Y2578954D01*
X12848563D01*
Y2580588D01*
X12846928D01*
Y2693333D01*
Y2694967D01*
Y2799543D01*
X12773399D01*
Y2873072D01*
X12843660D01*
Y2871438D01*
X12845294D01*
Y2873072D01*
X12846928D01*
Y2944967D01*
X12920457D01*
Y2578954D01*
D02*
G37*
G36*
X12773399Y2726013D02*
X12701503D01*
Y2799543D01*
X12773399D01*
Y2726013D01*
D02*
G37*
G36*
Y2578954D02*
X12627974D01*
Y2652484D01*
X12773399D01*
Y2578954D01*
D02*
G37*
G36*
X13431895Y2433530D02*
X13360001D01*
Y2493987D01*
Y2495621D01*
Y2507059D01*
X13431895D01*
Y2433530D01*
D02*
G37*
G36*
X12627974Y2507059D02*
X12773399D01*
Y2433530D01*
X12701503D01*
Y2288105D01*
X12699869D01*
Y2286471D01*
X12627974D01*
Y2214575D01*
X12629608D01*
Y2212941D01*
X12631242D01*
Y2214575D01*
X12694967D01*
Y2212941D01*
X12696601D01*
Y2214575D01*
X12699869D01*
Y2212941D01*
X12701503D01*
Y2141046D01*
X12773399D01*
Y2067516D01*
X12846928D01*
Y2069150D01*
X12848563D01*
Y2100196D01*
X12850195D01*
Y2096928D01*
X12860001D01*
Y2098562D01*
X12873071D01*
Y2100196D01*
X12884509D01*
Y2101830D01*
X12897581D01*
Y2103464D01*
X12907385D01*
Y2105098D01*
X12913921D01*
Y2106732D01*
X12925359D01*
Y2108366D01*
X12935162D01*
Y2110000D01*
X12944968D01*
Y2111634D01*
X12954771D01*
Y2113268D01*
X12966209D01*
Y2114902D01*
X12969476D01*
Y2113268D01*
X12971111D01*
Y2114902D01*
X12992352D01*
Y2116536D01*
X13008693D01*
Y2118170D01*
X13026666D01*
Y2119804D01*
X13036470D01*
Y2121438D01*
X13046274D01*
Y2123072D01*
X13051176D01*
Y2124706D01*
X13057712D01*
Y2126340D01*
X13059346D01*
Y2127974D01*
X13038104D01*
Y2129608D01*
X13033203D01*
Y2127974D01*
X13020129D01*
Y2129608D01*
X13007059D01*
Y2131242D01*
X12993987D01*
Y2134510D01*
X12995621D01*
Y2132876D01*
X12998889D01*
Y2134510D01*
X13005424D01*
Y2136144D01*
X13013594D01*
Y2137778D01*
X13026666D01*
Y2139412D01*
X13028300D01*
Y2137778D01*
X13031569D01*
Y2136144D01*
X13034837D01*
Y2137778D01*
X13038104D01*
Y2134510D01*
X13046274D01*
Y2136144D01*
X13047908D01*
Y2137778D01*
X13052811D01*
Y2139412D01*
X13056078D01*
Y2141046D01*
X13057712D01*
Y2142680D01*
X13059346D01*
Y2145948D01*
X13060980D01*
Y2147582D01*
X13062614D01*
Y2145948D01*
X13065881D01*
Y2144314D01*
X13067516D01*
Y2147582D01*
X13069150D01*
Y2149216D01*
X13077319D01*
Y2150850D01*
X13085490D01*
Y2149216D01*
X13095294D01*
Y2147582D01*
X13103464D01*
Y2145948D01*
X13106732D01*
Y2144314D01*
X13111633D01*
Y2145948D01*
X13114902D01*
Y2144314D01*
X13129608D01*
Y2142680D01*
X13132877D01*
Y2144314D01*
X13154117D01*
Y2145948D01*
X13160654D01*
Y2147582D01*
X13163921D01*
Y2145948D01*
X13173724D01*
Y2147582D01*
X13175359D01*
Y2145948D01*
X13193333D01*
Y2147582D01*
X13201503D01*
Y2149216D01*
X13245621D01*
Y2147582D01*
X13252158D01*
Y2145948D01*
X13255424D01*
Y2144314D01*
X13258693D01*
Y2141046D01*
X13257059D01*
Y2139412D01*
X13253790D01*
Y2137778D01*
X13248889D01*
Y2136144D01*
X13247255D01*
Y2132876D01*
X13260327D01*
Y2131242D01*
X13266862D01*
Y2132876D01*
X13325687D01*
Y2131242D01*
X13327319D01*
Y2127974D01*
X13328954D01*
Y2124706D01*
X13327319D01*
Y2116536D01*
X13325687D01*
Y2111634D01*
X13324052D01*
Y2108366D01*
X13322418D01*
Y2100196D01*
X13320784D01*
Y2098562D01*
X13322418D01*
Y2096928D01*
X13325687D01*
Y2098562D01*
X13327319D01*
Y2100196D01*
X13328954D01*
Y2101830D01*
X13330588D01*
Y2105098D01*
X13332222D01*
Y2106732D01*
X13333856D01*
Y2108366D01*
X13335490D01*
Y2110000D01*
X13337125D01*
Y2111634D01*
X13340392D01*
Y2113268D01*
X13342026D01*
Y2114902D01*
X13345294D01*
Y2116536D01*
X13348563D01*
Y2118170D01*
X13351830D01*
Y2119804D01*
X13356732D01*
Y2121438D01*
X13361633D01*
Y2123072D01*
X13368170D01*
Y2124706D01*
X13376340D01*
Y2126340D01*
X13407385D01*
Y2124706D01*
X13412286D01*
Y2123072D01*
X13417189D01*
Y2121438D01*
X13422092D01*
Y2119804D01*
X13425359D01*
Y2118170D01*
X13428627D01*
Y2116536D01*
X13431895D01*
Y2114902D01*
X13433530D01*
Y2113268D01*
X13435162D01*
Y2111634D01*
X13436797D01*
Y2110000D01*
X13440065D01*
Y2108366D01*
X13441699D01*
Y2106732D01*
X13444968D01*
Y2105098D01*
X13446600D01*
Y2103464D01*
X13448235D01*
Y2101830D01*
X13449869D01*
Y2100196D01*
X13451503D01*
Y2098562D01*
X13453137D01*
Y2096928D01*
X13454771D01*
Y2095294D01*
X13456406D01*
Y2093660D01*
X13458038D01*
Y2092026D01*
X13459673D01*
Y2090392D01*
X13461307D01*
Y2087124D01*
X13462941D01*
Y2085490D01*
X13464575D01*
Y2083856D01*
X13467844D01*
Y2085490D01*
X13469476D01*
Y2087124D01*
X13471111D01*
Y2088758D01*
X13472745D01*
Y2090392D01*
X13474379D01*
Y2093660D01*
X13476013D01*
Y2095294D01*
X13477647D01*
Y2098562D01*
X13479282D01*
Y2105098D01*
X13480914D01*
Y2113268D01*
X13479282D01*
Y2114902D01*
X13477647D01*
Y2116536D01*
X13476013D01*
Y2118170D01*
X13474379D01*
Y2119804D01*
X13472745D01*
Y2121438D01*
X13469476D01*
Y2123072D01*
X13467844D01*
Y2124706D01*
X13466209D01*
Y2126340D01*
X13464575D01*
Y2127974D01*
X13461307D01*
Y2129608D01*
X13458038D01*
Y2131242D01*
X13453137D01*
Y2132876D01*
X13451503D01*
Y2134510D01*
X13448235D01*
Y2136144D01*
X13446600D01*
Y2137778D01*
X13443333D01*
Y2139412D01*
X13438431D01*
Y2141046D01*
X13433530D01*
Y2142680D01*
X13430261D01*
Y2144314D01*
X13426993D01*
Y2145948D01*
X13420457D01*
Y2147582D01*
X13410654D01*
Y2149216D01*
X13387778D01*
Y2147582D01*
X13381242D01*
Y2145948D01*
X13371439D01*
Y2144314D01*
X13363268D01*
Y2142680D01*
X13358366D01*
Y2141046D01*
X13355098D01*
Y2139412D01*
X13351830D01*
Y2137778D01*
X13348563D01*
Y2136144D01*
X13345294D01*
Y2134510D01*
X13343660D01*
Y2132876D01*
X13342026D01*
Y2131242D01*
X13340392D01*
Y2129608D01*
X13338757D01*
Y2127974D01*
X13337125D01*
Y2131242D01*
X13338757D01*
Y2134510D01*
X13340392D01*
Y2137778D01*
X13342026D01*
Y2139412D01*
X13343660D01*
Y2141046D01*
X13345294D01*
Y2144314D01*
X13346928D01*
Y2145948D01*
X13348563D01*
Y2147582D01*
X13350195D01*
Y2150850D01*
X13351830D01*
Y2152484D01*
X13353464D01*
Y2154118D01*
X13355098D01*
Y2155752D01*
X13356732D01*
Y2159020D01*
X13358366D01*
Y2160654D01*
X13360001D01*
Y2162288D01*
X13361633D01*
Y2163922D01*
X13363268D01*
Y2165555D01*
X13364902D01*
Y2167189D01*
X13366536D01*
Y2168823D01*
X13369804D01*
Y2170457D01*
X13371439D01*
Y2172091D01*
X13374706D01*
Y2173725D01*
X13376340D01*
Y2175359D01*
X13381242D01*
Y2176994D01*
X13389412D01*
Y2178628D01*
X13391046D01*
Y2176994D01*
X13392680D01*
Y2178628D01*
X13395947D01*
Y2176994D01*
X13402483D01*
Y2175359D01*
X13409019D01*
Y2173725D01*
X13412286D01*
Y2172091D01*
X13417189D01*
Y2170457D01*
X13422092D01*
Y2168823D01*
X13425359D01*
Y2167189D01*
X13428627D01*
Y2165555D01*
X13431895D01*
Y2163922D01*
X13436797D01*
Y2162288D01*
X13438431D01*
Y2160654D01*
X13440065D01*
Y2159020D01*
X13443333D01*
Y2157386D01*
X13444968D01*
Y2155752D01*
X13448235D01*
Y2154118D01*
X13451503D01*
Y2152484D01*
X13453137D01*
Y2150850D01*
X13454771D01*
Y2149216D01*
X13456406D01*
Y2147582D01*
X13458038D01*
Y2145948D01*
X13459673D01*
Y2144314D01*
X13462941D01*
Y2142680D01*
X13464575D01*
Y2141046D01*
X13466209D01*
Y2139412D01*
X13467844D01*
Y2136144D01*
X13469476D01*
Y2134510D01*
X13476013D01*
Y2132876D01*
X13479282D01*
Y2129608D01*
X13480914D01*
Y2127974D01*
X13482549D01*
Y2126340D01*
X13484183D01*
Y2124706D01*
X13485817D01*
Y2121438D01*
X13487451D01*
Y2114902D01*
X13492352D01*
Y2116536D01*
X13493987D01*
Y2114902D01*
X13498889D01*
Y2113268D01*
X13502158D01*
Y2111634D01*
X13505424D01*
Y2110000D01*
X13507059D01*
Y2108366D01*
X13533203D01*
Y2110000D01*
X13544640D01*
Y2111634D01*
X13577319D01*
Y2113268D01*
X13582222D01*
Y2111634D01*
X13583856D01*
Y2113268D01*
X13596928D01*
Y2114902D01*
X13606732D01*
Y2116536D01*
X13610001D01*
Y2114902D01*
X13614902D01*
Y2116536D01*
X13616536D01*
Y2114902D01*
X13623071D01*
Y2116536D01*
X13629608D01*
Y2114902D01*
X13636143D01*
Y2116536D01*
X13639412D01*
Y2114902D01*
X13641046D01*
Y2116536D01*
X13642680D01*
Y2114902D01*
X13650850D01*
Y2113268D01*
X13659019D01*
Y2111634D01*
X13667189D01*
Y2110000D01*
X13675359D01*
Y2108366D01*
X13676993D01*
Y2106732D01*
X13681895D01*
Y2105098D01*
X13686797D01*
Y2103464D01*
X13690065D01*
Y2101830D01*
X13691699D01*
Y2100196D01*
X13694968D01*
Y2098562D01*
X13698235D01*
Y2096928D01*
X13699869D01*
Y2095294D01*
X13701503D01*
Y2093660D01*
X13703137D01*
Y2090392D01*
X13706406D01*
Y2088758D01*
X13708038D01*
Y2085490D01*
X13709673D01*
Y2083856D01*
X13711307D01*
Y2080588D01*
X13712941D01*
Y2078954D01*
X13714575D01*
Y2074052D01*
X13716209D01*
Y2070784D01*
X13717844D01*
Y2065882D01*
X13719476D01*
Y2060980D01*
X13721111D01*
Y2052810D01*
X13722745D01*
Y2041373D01*
X13724379D01*
Y2023399D01*
X13722745D01*
Y2011961D01*
X13721111D01*
Y2005425D01*
X13719476D01*
Y1995621D01*
X13717844D01*
Y1989085D01*
X13716209D01*
Y1985817D01*
X13714575D01*
Y1982549D01*
X13712941D01*
Y1979281D01*
X13711307D01*
Y1976013D01*
X13709673D01*
Y1972745D01*
X13708038D01*
Y1971111D01*
X13706406D01*
Y1967843D01*
X13704771D01*
Y1964575D01*
X13703137D01*
Y1961307D01*
X13701503D01*
Y1958039D01*
X13699869D01*
Y1954771D01*
X13698235D01*
Y1951503D01*
X13696600D01*
Y1948235D01*
X13694968D01*
Y1944967D01*
X13693333D01*
Y1941699D01*
X13691699D01*
Y1940065D01*
X13690065D01*
Y1936797D01*
X13688431D01*
Y1933530D01*
X13686797D01*
Y1930262D01*
X13685162D01*
Y1926994D01*
X13683530D01*
Y1925359D01*
X13681895D01*
Y1922091D01*
X13680261D01*
Y1920457D01*
X13678627D01*
Y1918823D01*
X13676993D01*
Y1915555D01*
X13675359D01*
Y1913921D01*
X13673724D01*
Y1912288D01*
X13672092D01*
Y1913921D01*
X13670457D01*
Y1912288D01*
X13662286D01*
Y1910654D01*
X13657385D01*
Y1913921D01*
X13667189D01*
Y1917189D01*
X13660654D01*
Y1915555D01*
X13655751D01*
Y1918823D01*
X13657385D01*
Y1920457D01*
X13659019D01*
Y1922091D01*
X13660654D01*
Y1925359D01*
X13662286D01*
Y1928628D01*
X13663921D01*
Y1930262D01*
X13665555D01*
Y1931896D01*
X13667189D01*
Y1935164D01*
X13668823D01*
Y1938431D01*
X13670457D01*
Y1940065D01*
X13672092D01*
Y1943333D01*
X13673724D01*
Y1944967D01*
X13675359D01*
Y1943333D01*
X13676993D01*
Y1941699D01*
X13675359D01*
Y1938431D01*
X13673724D01*
Y1933530D01*
X13672092D01*
Y1930262D01*
X13670457D01*
Y1926994D01*
X13673724D01*
Y1928628D01*
X13675359D01*
Y1930262D01*
X13676993D01*
Y1931896D01*
X13678627D01*
Y1933530D01*
X13680261D01*
Y1936797D01*
X13681895D01*
Y1938431D01*
X13683530D01*
Y1940065D01*
X13686797D01*
Y1943333D01*
X13688431D01*
Y1944967D01*
X13690065D01*
Y1948235D01*
X13691699D01*
Y1951503D01*
X13693333D01*
Y1953137D01*
X13694968D01*
Y1956405D01*
X13696600D01*
Y1958039D01*
X13698235D01*
Y1961307D01*
X13699869D01*
Y1964575D01*
X13701503D01*
Y1967843D01*
X13703137D01*
Y1971111D01*
X13704771D01*
Y1972745D01*
X13706406D01*
Y1976013D01*
X13708038D01*
Y1979281D01*
X13709673D01*
Y1982549D01*
X13711307D01*
Y1984183D01*
X13712941D01*
Y1989085D01*
X13714575D01*
Y1993987D01*
X13716209D01*
Y1998889D01*
X13717844D01*
Y2002157D01*
X13714575D01*
Y1998889D01*
X13712941D01*
Y1997255D01*
X13711307D01*
Y1995621D01*
X13709673D01*
Y1998889D01*
X13711307D01*
Y2005425D01*
X13709673D01*
Y2013595D01*
X13708038D01*
Y2015229D01*
X13706406D01*
Y2020131D01*
X13704771D01*
Y2023399D01*
X13703137D01*
Y2026667D01*
X13701503D01*
Y2028301D01*
X13699869D01*
Y2031569D01*
X13698235D01*
Y2033203D01*
X13696600D01*
Y2034837D01*
X13693333D01*
Y2039739D01*
X13691699D01*
Y2041373D01*
X13690065D01*
Y2043007D01*
X13688431D01*
Y2044641D01*
X13686797D01*
Y2046275D01*
X13685162D01*
Y2047909D01*
X13683530D01*
Y2049543D01*
X13681895D01*
Y2051176D01*
X13678627D01*
Y2052810D01*
X13676993D01*
Y2054444D01*
X13675359D01*
Y2056078D01*
X13673724D01*
Y2057712D01*
X13672092D01*
Y2059346D01*
X13668823D01*
Y2060980D01*
X13667189D01*
Y2062614D01*
X13663921D01*
Y2064248D01*
X13662286D01*
Y2065882D01*
X13660654D01*
Y2067516D01*
X13657385D01*
Y2069150D01*
X13654117D01*
Y2070784D01*
X13652483D01*
Y2072418D01*
X13649216D01*
Y2074052D01*
X13645947D01*
Y2075686D01*
X13642680D01*
Y2077320D01*
X13639412D01*
Y2078954D01*
X13636143D01*
Y2080588D01*
X13632877D01*
Y2082222D01*
X13627974D01*
Y2083856D01*
X13624706D01*
Y2085490D01*
X13621439D01*
Y2087124D01*
X13618170D01*
Y2088758D01*
X13610001D01*
Y2090392D01*
X13603464D01*
Y2092026D01*
X13593660D01*
Y2093660D01*
X13578954D01*
Y2095294D01*
X13549542D01*
Y2093660D01*
X13543005D01*
Y2092026D01*
X13539738D01*
Y2090392D01*
X13536472D01*
Y2088758D01*
X13534837D01*
Y2087124D01*
X13533203D01*
Y2083856D01*
X13531569D01*
Y2078954D01*
X13529935D01*
Y2075686D01*
X13531569D01*
Y2072418D01*
X13529935D01*
Y2070784D01*
X13531569D01*
Y2064248D01*
X13533203D01*
Y2062614D01*
X13541373D01*
Y2064248D01*
X13552811D01*
Y2065882D01*
X13565881D01*
Y2067516D01*
X13588757D01*
Y2065882D01*
X13598563D01*
Y2064248D01*
X13606732D01*
Y2062614D01*
X13611633D01*
Y2060980D01*
X13614902D01*
Y2059346D01*
X13619804D01*
Y2057712D01*
X13624706D01*
Y2056078D01*
X13626340D01*
Y2054444D01*
X13631242D01*
Y2052810D01*
X13634509D01*
Y2051176D01*
X13636143D01*
Y2049543D01*
X13639412D01*
Y2047909D01*
X13642680D01*
Y2046275D01*
X13644315D01*
Y2044641D01*
X13645947D01*
Y2043007D01*
X13649216D01*
Y2041373D01*
X13652483D01*
Y2039739D01*
X13655751D01*
Y2038105D01*
X13657385D01*
Y2036471D01*
X13659019D01*
Y2034837D01*
X13662286D01*
Y2033203D01*
X13663921D01*
Y2031569D01*
X13665555D01*
Y2029935D01*
X13668823D01*
Y2028301D01*
X13670457D01*
Y2026667D01*
X13672092D01*
Y2025033D01*
X13668823D01*
Y2026667D01*
X13663921D01*
Y2025033D01*
X13665555D01*
Y2023399D01*
X13660654D01*
Y2025033D01*
X13655751D01*
Y2026667D01*
X13652483D01*
Y2028301D01*
X13649216D01*
Y2029935D01*
X13644315D01*
Y2031569D01*
X13641046D01*
Y2033203D01*
X13639412D01*
Y2031569D01*
X13641046D01*
Y2029935D01*
X13644315D01*
Y2028301D01*
X13647581D01*
Y2026667D01*
X13649216D01*
Y2025033D01*
X13652483D01*
Y2023399D01*
X13654117D01*
Y2021765D01*
X13657385D01*
Y2020131D01*
X13660654D01*
Y2016863D01*
X13663921D01*
Y2015229D01*
X13665555D01*
Y2013595D01*
X13667189D01*
Y2011961D01*
X13670457D01*
Y2010327D01*
X13672092D01*
Y2008693D01*
X13673724D01*
Y2005425D01*
X13675359D01*
Y2003791D01*
X13676993D01*
Y2002157D01*
X13678627D01*
Y1998889D01*
X13680261D01*
Y1997255D01*
X13681895D01*
Y1993987D01*
X13683530D01*
Y1977647D01*
X13681895D01*
Y1971111D01*
X13680261D01*
Y1967843D01*
X13678627D01*
Y1964575D01*
X13676993D01*
Y1962941D01*
X13675359D01*
Y1959673D01*
X13665555D01*
Y1961307D01*
X13663921D01*
Y1962941D01*
X13660654D01*
Y1966209D01*
X13659019D01*
Y1967843D01*
X13657385D01*
Y1971111D01*
X13652483D01*
Y1976013D01*
X13649216D01*
Y1977647D01*
X13647581D01*
Y1979281D01*
X13645947D01*
Y1977647D01*
X13644315D01*
Y1976013D01*
X13641046D01*
Y1974379D01*
X13642680D01*
Y1972745D01*
X13636143D01*
Y1974379D01*
X13632877D01*
Y1976013D01*
X13627974D01*
Y1977647D01*
X13623071D01*
Y1979281D01*
X13618170D01*
Y1980915D01*
X13611633D01*
Y1982549D01*
X13605098D01*
Y1984183D01*
X13593660D01*
Y1985817D01*
X13562614D01*
Y1984183D01*
X13552811D01*
Y1982549D01*
X13546274D01*
Y1980915D01*
X13543005D01*
Y1979281D01*
X13538104D01*
Y1977647D01*
X13536472D01*
Y1976013D01*
X13533203D01*
Y1974379D01*
X13529935D01*
Y1972745D01*
X13528300D01*
Y1971111D01*
X13526666D01*
Y1969477D01*
X13525034D01*
Y1967843D01*
X13523399D01*
Y1966209D01*
X13521765D01*
Y1967843D01*
X13520129D01*
Y1990719D01*
X13521765D01*
Y1998889D01*
X13520129D01*
Y2000523D01*
X13516862D01*
Y2002157D01*
X13515228D01*
Y2005425D01*
X13513596D01*
Y2003791D01*
X13511961D01*
Y2002157D01*
X13510327D01*
Y1998889D01*
X13508693D01*
Y1997255D01*
X13507059D01*
Y1995621D01*
X13505424D01*
Y1993987D01*
X13503790D01*
Y1992353D01*
X13502158D01*
Y1989085D01*
X13500523D01*
Y1985817D01*
X13498889D01*
Y1982549D01*
X13497255D01*
Y1977647D01*
X13495621D01*
Y1972745D01*
X13493987D01*
Y1967843D01*
X13492352D01*
Y1964575D01*
X13490720D01*
Y1958039D01*
X13489085D01*
Y1954771D01*
X13487451D01*
Y1949869D01*
X13485817D01*
Y1944967D01*
X13484183D01*
Y1941699D01*
X13482549D01*
Y1936797D01*
X13480914D01*
Y1933530D01*
X13479282D01*
Y1928628D01*
X13477647D01*
Y1926994D01*
X13474379D01*
Y1925359D01*
X13469476D01*
Y1923725D01*
X13466209D01*
Y1925359D01*
X13459673D01*
Y1926994D01*
X13458038D01*
Y1928628D01*
X13456406D01*
Y1930262D01*
X13454771D01*
Y1931896D01*
X13451503D01*
Y1933530D01*
X13448235D01*
Y1935164D01*
X13446600D01*
Y1936797D01*
X13444968D01*
Y1938431D01*
X13441699D01*
Y1940065D01*
X13438431D01*
Y1941699D01*
X13435162D01*
Y1943333D01*
X13431895D01*
Y1946601D01*
X13430261D01*
Y1949869D01*
X13431895D01*
Y1953137D01*
X13433530D01*
Y1954771D01*
X13435162D01*
Y1958039D01*
X13436797D01*
Y1964575D01*
X13433530D01*
Y1962941D01*
X13430261D01*
Y1961307D01*
X13425359D01*
Y1959673D01*
X13418823D01*
Y1958039D01*
X13397581D01*
Y1959673D01*
X13391046D01*
Y1961307D01*
X13387778D01*
Y1962941D01*
X13389412D01*
Y1964575D01*
X13395947D01*
Y1966209D01*
X13389412D01*
Y1967843D01*
X13384509D01*
Y1969477D01*
X13379608D01*
Y1971111D01*
X13376340D01*
Y1972745D01*
X13371439D01*
Y1974379D01*
X13366536D01*
Y1976013D01*
X13363268D01*
Y1977647D01*
X13360001D01*
Y1979281D01*
X13356732D01*
Y1980915D01*
X13355098D01*
Y1982549D01*
X13351830D01*
Y1984183D01*
X13348563D01*
Y1985817D01*
X13346928D01*
Y1987451D01*
X13345294D01*
Y1989085D01*
X13343660D01*
Y1990719D01*
X13342026D01*
Y1993987D01*
X13340392D01*
Y1995621D01*
X13338757D01*
Y1998889D01*
X13337125D01*
Y2005425D01*
X13335490D01*
Y2010327D01*
X13333856D01*
Y2018497D01*
X13332222D01*
Y2039739D01*
X13333856D01*
Y2041373D01*
X13340392D01*
Y2043007D01*
X13346928D01*
Y2041373D01*
X13348563D01*
Y2021765D01*
X13350195D01*
Y2016863D01*
X13351830D01*
Y2013595D01*
X13353464D01*
Y2010327D01*
X13355098D01*
Y2007059D01*
X13356732D01*
Y2005425D01*
X13358366D01*
Y2003791D01*
X13360001D01*
Y2002157D01*
X13361633D01*
Y2000523D01*
X13364902D01*
Y1998889D01*
X13366536D01*
Y1997255D01*
X13369804D01*
Y1995621D01*
X13376340D01*
Y1993987D01*
X13386143D01*
Y1995621D01*
X13391046D01*
Y1997255D01*
X13394315D01*
Y1998889D01*
X13397581D01*
Y2000523D01*
X13400848D01*
Y2002157D01*
X13402483D01*
Y2003791D01*
X13404117D01*
Y2005425D01*
X13405751D01*
Y2007059D01*
X13407385D01*
Y2010327D01*
X13409019D01*
Y2011961D01*
X13412286D01*
Y2010327D01*
X13413921D01*
Y2008693D01*
X13417189D01*
Y2007059D01*
X13418823D01*
Y2005425D01*
X13420457D01*
Y2003791D01*
X13422092D01*
Y2000523D01*
X13423724D01*
Y1998889D01*
X13425359D01*
Y1997255D01*
X13426993D01*
Y1995621D01*
X13428627D01*
Y1992353D01*
X13430261D01*
Y1990719D01*
X13431895D01*
Y1987451D01*
X13433530D01*
Y1979281D01*
X13435162D01*
Y1974379D01*
X13436797D01*
Y1976013D01*
X13438431D01*
Y1977647D01*
X13444968D01*
Y1980915D01*
X13446600D01*
Y1997255D01*
X13444968D01*
Y2002157D01*
X13443333D01*
Y2003791D01*
X13435162D01*
Y2000523D01*
X13433530D01*
Y1997255D01*
X13431895D01*
Y1998889D01*
X13430261D01*
Y2000523D01*
X13428627D01*
Y2002157D01*
X13426993D01*
Y2003791D01*
X13425359D01*
Y2007059D01*
X13422092D01*
Y2010327D01*
X13420457D01*
Y2011961D01*
X13417189D01*
Y2013595D01*
X13415555D01*
Y2015229D01*
X13413921D01*
Y2016863D01*
X13412286D01*
Y2018497D01*
X13410654D01*
Y2020131D01*
X13407385D01*
Y2021765D01*
X13405751D01*
Y2023399D01*
X13404117D01*
Y2025033D01*
X13400848D01*
Y2026667D01*
X13399216D01*
Y2028301D01*
X13395947D01*
Y2029935D01*
X13394315D01*
Y2031569D01*
X13391046D01*
Y2033203D01*
X13387778D01*
Y2034837D01*
X13386143D01*
Y2036471D01*
X13382877D01*
Y2038105D01*
X13379608D01*
Y2039739D01*
X13376340D01*
Y2041373D01*
X13373071D01*
Y2043007D01*
X13368170D01*
Y2044641D01*
X13364902D01*
Y2046275D01*
X13358366D01*
Y2047909D01*
X13353464D01*
Y2049543D01*
X13345294D01*
Y2051176D01*
X13338757D01*
Y2052810D01*
X13337125D01*
Y2051176D01*
X13328954D01*
Y2052810D01*
X13330588D01*
Y2054444D01*
X13346928D01*
Y2056078D01*
X13348563D01*
Y2057712D01*
X13350195D01*
Y2062614D01*
X13346928D01*
Y2064248D01*
X13342026D01*
Y2065882D01*
X13332222D01*
Y2064248D01*
X13327319D01*
Y2070784D01*
X13324052D01*
Y2074052D01*
X13322418D01*
Y2075686D01*
X13320784D01*
Y2074052D01*
X13319150D01*
Y2064248D01*
X13320784D01*
Y2056078D01*
X13322418D01*
Y2054444D01*
X13320784D01*
Y2047909D01*
X13319150D01*
Y2044641D01*
X13317516D01*
Y2052810D01*
X13315881D01*
Y2062614D01*
X13307712D01*
Y2060980D01*
X13306078D01*
Y2065882D01*
X13304443D01*
Y2075686D01*
X13306078D01*
Y2087124D01*
X13307712D01*
Y2093660D01*
X13309346D01*
Y2100196D01*
X13310980D01*
Y2106732D01*
X13312614D01*
Y2111634D01*
X13310980D01*
Y2110000D01*
X13309346D01*
Y2105098D01*
X13307712D01*
Y2098562D01*
X13306078D01*
Y2093660D01*
X13304443D01*
Y2087124D01*
X13302811D01*
Y2082222D01*
X13301176D01*
Y2078954D01*
X13299542D01*
Y2074052D01*
X13297908D01*
Y2070784D01*
X13296274D01*
Y2067516D01*
X13293005D01*
Y2069150D01*
X13291373D01*
Y2070784D01*
X13289738D01*
Y2072418D01*
X13288104D01*
Y2074052D01*
X13284837D01*
Y2075686D01*
X13283203D01*
Y2077320D01*
X13281569D01*
Y2078954D01*
X13279935D01*
Y2082222D01*
X13278300D01*
Y2083856D01*
X13276666D01*
Y2085490D01*
X13275034D01*
Y2087124D01*
X13273399D01*
Y2088758D01*
X13271765D01*
Y2092026D01*
X13270129D01*
Y2093660D01*
X13266862D01*
Y2095294D01*
X13265228D01*
Y2096928D01*
X13255424D01*
Y2095294D01*
X13252158D01*
Y2096928D01*
X13242352D01*
Y2098562D01*
X13230914D01*
Y2096928D01*
X13226013D01*
Y2095294D01*
X13224379D01*
Y2093660D01*
X13221111D01*
Y2092026D01*
X13217844D01*
Y2090392D01*
X13214575D01*
Y2088758D01*
X13211307D01*
Y2087124D01*
X13208038D01*
Y2085490D01*
X13206406D01*
Y2083856D01*
X13204771D01*
Y2082222D01*
X13203137D01*
Y2080588D01*
X13201503D01*
Y2078954D01*
X13199869D01*
Y2074052D01*
X13198235D01*
Y2070784D01*
X13196600D01*
Y2065882D01*
X13194968D01*
Y2060980D01*
X13193333D01*
Y2059346D01*
X13191699D01*
Y2064248D01*
X13188431D01*
Y2062614D01*
X13186797D01*
Y2064248D01*
X13181895D01*
Y2062614D01*
X13176993D01*
Y2064248D01*
X13168823D01*
Y2062614D01*
X13155751D01*
Y2060980D01*
X13149216D01*
Y2062614D01*
X13142680D01*
Y2064248D01*
X13141046D01*
Y2065882D01*
X13139412D01*
Y2064248D01*
X13127974D01*
Y2062614D01*
X13114902D01*
Y2060980D01*
X13105098D01*
Y2059346D01*
X13098563D01*
Y2057712D01*
X13087125D01*
Y2056078D01*
X13080588D01*
Y2054444D01*
X13070784D01*
Y2052810D01*
X13060980D01*
Y2051176D01*
X13057712D01*
Y2049543D01*
X13047908D01*
Y2047909D01*
X13041373D01*
Y2046275D01*
X13034837D01*
Y2044641D01*
X13021765D01*
Y2043007D01*
X13015228D01*
Y2041373D01*
X13011961D01*
Y2039739D01*
X13005424D01*
Y2038105D01*
X12998889D01*
Y2036471D01*
X12990720D01*
Y2034837D01*
X12987451D01*
Y2033203D01*
X12980914D01*
Y2031569D01*
X12966209D01*
Y2029935D01*
X12959673D01*
Y2028301D01*
X12958038D01*
Y2026667D01*
X12953137D01*
Y2025033D01*
X12946600D01*
Y2023399D01*
X12933530D01*
Y2021765D01*
X12917189D01*
Y2020131D01*
X12912286D01*
Y2018497D01*
X12902483D01*
Y2016863D01*
X12894315D01*
Y2015229D01*
X12889412D01*
Y2013595D01*
X12881242D01*
Y2011961D01*
X12871439D01*
Y2010327D01*
X12861633D01*
Y2008693D01*
X12855098D01*
Y2007059D01*
X12853464D01*
Y2005425D01*
X12851830D01*
Y2007059D01*
X12850195D01*
Y2015229D01*
X12848563D01*
Y1922091D01*
X12850195D01*
Y1936797D01*
X12851830D01*
Y1940065D01*
X12853464D01*
Y1936797D01*
X12881242D01*
Y1938431D01*
X12904117D01*
Y1940065D01*
X12913921D01*
Y1941699D01*
X12915555D01*
Y1940065D01*
X12922092D01*
Y1941699D01*
X12923724D01*
Y1940065D01*
X12926993D01*
Y1941699D01*
X12933530D01*
Y1943333D01*
X12936797D01*
Y1941699D01*
X12943333D01*
Y1943333D01*
X12946600D01*
Y1944967D01*
X12948235D01*
Y1943333D01*
X12966209D01*
Y1944967D01*
X12974379D01*
Y1943333D01*
X12976013D01*
Y1944967D01*
X12977647D01*
Y1943333D01*
X12979282D01*
Y1946601D01*
X12980914D01*
Y1948235D01*
X12990720D01*
Y1949869D01*
X12993987D01*
Y1951503D01*
X12998889D01*
Y1949869D01*
X13007059D01*
Y1948235D01*
X13008693D01*
Y1946601D01*
X13010327D01*
Y1944967D01*
X13011961D01*
Y1946601D01*
X13016862D01*
Y1944967D01*
X13020129D01*
Y1946601D01*
X13021765D01*
Y1948235D01*
X13023399D01*
Y1944967D01*
X13025034D01*
Y1943333D01*
X13029935D01*
Y1941699D01*
X13031569D01*
Y1940065D01*
X13036470D01*
Y1941699D01*
X13038104D01*
Y1940065D01*
X13047908D01*
Y1938431D01*
X13049542D01*
Y1940065D01*
X13052811D01*
Y1941699D01*
X13057712D01*
Y1940065D01*
X13060980D01*
Y1941699D01*
X13057712D01*
Y1943333D01*
X13070784D01*
Y1941699D01*
X13067516D01*
Y1940065D01*
X13070784D01*
Y1938431D01*
X13072418D01*
Y1940065D01*
X13074052D01*
Y1941699D01*
X13075687D01*
Y1943333D01*
X13077319D01*
Y1944967D01*
X13078954D01*
Y1946601D01*
X13087125D01*
Y1944967D01*
X13088757D01*
Y1943333D01*
X13090392D01*
Y1944967D01*
X13092026D01*
Y1946601D01*
X13093660D01*
Y1944967D01*
X13096928D01*
Y1943333D01*
X13098563D01*
Y1940065D01*
X13100195D01*
Y1933530D01*
X13098563D01*
Y1938431D01*
X13095294D01*
Y1933530D01*
X13098563D01*
Y1928628D01*
X13096928D01*
Y1926994D01*
X13098563D01*
Y1923725D01*
X13096928D01*
Y1917189D01*
X13098563D01*
Y1909020D01*
Y1907386D01*
X13095294D01*
Y1904118D01*
X13096928D01*
Y1897582D01*
X13095294D01*
Y1889412D01*
X13096928D01*
Y1884510D01*
X13100195D01*
Y1882876D01*
X13101830D01*
Y1884510D01*
X13103464D01*
Y1886144D01*
X13110001D01*
Y1899216D01*
X13111633D01*
Y1913921D01*
X13113268D01*
Y1922091D01*
X13114902D01*
Y1928628D01*
X13116536D01*
Y1933530D01*
X13118170D01*
Y1938431D01*
X13119804D01*
Y1941699D01*
X13121439D01*
Y1944967D01*
X13123071D01*
Y1949869D01*
X13124706D01*
Y1953137D01*
X13126340D01*
Y1958039D01*
X13127974D01*
Y1959673D01*
X13129608D01*
Y1964575D01*
X13131242D01*
Y1966209D01*
X13132877D01*
Y1969477D01*
X13134509D01*
Y1972745D01*
X13136143D01*
Y1974379D01*
X13137778D01*
Y1971111D01*
X13136143D01*
Y1967843D01*
X13134509D01*
Y1964575D01*
X13132877D01*
Y1961307D01*
X13131242D01*
Y1958039D01*
X13129608D01*
Y1953137D01*
X13127974D01*
Y1949869D01*
X13126340D01*
Y1944967D01*
X13124706D01*
Y1940065D01*
X13123071D01*
Y1935164D01*
X13121439D01*
Y1928628D01*
X13119804D01*
Y1922091D01*
X13118170D01*
Y1912288D01*
X13116536D01*
Y1892680D01*
X13114902D01*
Y1840392D01*
X13116536D01*
Y1791373D01*
X13118170D01*
Y1755425D01*
X13119804D01*
Y1721111D01*
X13118170D01*
Y1717843D01*
X13116536D01*
Y1719477D01*
X13113268D01*
Y1717843D01*
X13111633D01*
Y1719477D01*
X13110001D01*
Y1721111D01*
X13108366D01*
Y1722745D01*
X13093660D01*
Y1724379D01*
X13087125D01*
Y1726013D01*
X13077319D01*
Y1727647D01*
X13069150D01*
Y1729281D01*
X13062614D01*
Y1730915D01*
X13056078D01*
Y1732549D01*
X13052811D01*
Y1734183D01*
X13049542D01*
Y1735817D01*
X13043005D01*
Y1737451D01*
X13026666D01*
Y1740719D01*
X13025034D01*
Y1743987D01*
X13023399D01*
Y1747255D01*
X13021765D01*
Y1748889D01*
X13020129D01*
Y1758693D01*
X13018497D01*
Y1760327D01*
X13016862D01*
Y1763595D01*
X13015228D01*
Y1766863D01*
X13005424D01*
Y1771765D01*
X13003790D01*
Y1773399D01*
X12998889D01*
Y1775033D01*
X12997255D01*
Y1776667D01*
X12993987D01*
Y1773399D01*
X12990720D01*
Y1771765D01*
X12989085D01*
Y1770131D01*
X12980914D01*
Y1771765D01*
X12979282D01*
Y1776667D01*
X12980914D01*
Y1779935D01*
X12982549D01*
Y1781569D01*
X12980914D01*
Y1783203D01*
X12966209D01*
Y1781569D01*
X12948235D01*
Y1783203D01*
X12944968D01*
Y1781569D01*
X12943333D01*
Y1779935D01*
X12936797D01*
Y1778301D01*
X12933530D01*
Y1776667D01*
X12925359D01*
Y1778301D01*
X12910654D01*
Y1779935D01*
X12904117D01*
Y1781569D01*
X12900848D01*
Y1793007D01*
X12899216D01*
Y1791373D01*
X12895947D01*
Y1793007D01*
X12894315D01*
Y1799543D01*
X12891046D01*
Y1801176D01*
X12889412D01*
Y1802810D01*
X12887778D01*
Y1804444D01*
X12886143D01*
Y1802810D01*
X12881242D01*
Y1804444D01*
X12873071D01*
Y1806078D01*
X12869804D01*
Y1804444D01*
X12864902D01*
Y1802810D01*
X12860001D01*
Y1804444D01*
X12853464D01*
Y1801176D01*
X12851830D01*
Y1804444D01*
X12850195D01*
Y1840392D01*
X12848563D01*
Y1775033D01*
X12775033D01*
Y1773399D01*
X12773399D01*
Y1701503D01*
X12701503D01*
Y1773399D01*
X12699869D01*
Y1775033D01*
X12627974D01*
Y2067516D01*
X12480915D01*
Y2141046D01*
X12409019D01*
Y2139412D01*
X12407385D01*
Y2070784D01*
X12409019D01*
Y2069150D01*
X12407385D01*
Y2067516D01*
X12335490D01*
Y2139412D01*
X12333856D01*
Y2141046D01*
X12261960D01*
Y2214575D01*
X12114902D01*
Y2286471D01*
X12261960D01*
Y2214575D01*
X12330588D01*
Y2212941D01*
X12333856D01*
Y2214575D01*
X12335490D01*
Y2286471D01*
X12261960D01*
Y2360000D01*
X12335490D01*
Y2355098D01*
Y2353464D01*
Y2286471D01*
X12407385D01*
Y2284837D01*
X12409019D01*
Y2283203D01*
X12407385D01*
Y2214575D01*
X12409019D01*
Y2212941D01*
X12412287D01*
Y2214575D01*
X12480915D01*
Y2141046D01*
X12554444D01*
Y2212941D01*
X12552810D01*
Y2214575D01*
X12551176D01*
Y2212941D01*
X12547908D01*
Y2214575D01*
X12480915D01*
Y2286471D01*
X12554444D01*
Y2360000D01*
X12480915D01*
Y2433530D01*
X12335490D01*
Y2507059D01*
X12480915D01*
Y2433530D01*
X12627974D01*
Y2507059D01*
X12480915D01*
Y2578954D01*
X12627974D01*
Y2507059D01*
D02*
G37*
G36*
X14163921Y2286471D02*
X14092026D01*
Y2288105D01*
X14090392D01*
Y2418823D01*
Y2420457D01*
Y2578954D01*
X14163921D01*
Y2286471D01*
D02*
G37*
G36*
X13797908Y2360000D02*
X13871439D01*
Y2415555D01*
Y2417189D01*
Y2433530D01*
X13944968D01*
Y2360000D01*
X14018497D01*
Y2214575D01*
X14016862D01*
Y2212941D01*
X14013596D01*
Y2214575D01*
X13944968D01*
Y2286471D01*
X13726013D01*
Y2358366D01*
X13724379D01*
Y2360000D01*
X13652483D01*
Y2507059D01*
X13797908D01*
Y2360000D01*
D02*
G37*
G36*
X13944968Y2191699D02*
X13943333D01*
Y2137778D01*
X13941699D01*
Y2155752D01*
X13940065D01*
Y2162288D01*
X13941699D01*
Y2172091D01*
X13940065D01*
Y2173725D01*
X13938431D01*
Y2172091D01*
X13930261D01*
Y2173725D01*
X13926993D01*
Y2172091D01*
X13900850D01*
Y2173725D01*
X13887778D01*
Y2175359D01*
X13843660D01*
Y2176994D01*
X13838757D01*
Y2178628D01*
X13828954D01*
Y2180262D01*
X13820784D01*
Y2181896D01*
X13814249D01*
Y2183530D01*
X13807712D01*
Y2185164D01*
X13806078D01*
Y2186798D01*
X13807712D01*
Y2191699D01*
X13871439D01*
Y2190065D01*
X13900850D01*
Y2188431D01*
X13902483D01*
Y2190065D01*
X13904117D01*
Y2188431D01*
X13912286D01*
Y2190065D01*
X13913921D01*
Y2188431D01*
X13941699D01*
Y2191699D01*
X13871439D01*
Y2212941D01*
X13873071D01*
Y2214575D01*
X13874706D01*
Y2212941D01*
X13877974D01*
Y2214575D01*
X13944968D01*
Y2191699D01*
D02*
G37*
G36*
X13652483Y2286471D02*
X13726013D01*
Y2217843D01*
X13724379D01*
Y2214575D01*
X13726013D01*
Y2212941D01*
X13729282D01*
Y2214575D01*
X13793005D01*
Y2212941D01*
X13794640D01*
Y2214575D01*
X13796274D01*
Y2212941D01*
X13797908D01*
Y2191699D01*
X13761961D01*
Y2186798D01*
X13758693D01*
Y2185164D01*
X13757059D01*
Y2181896D01*
X13758693D01*
Y2180262D01*
X13760327D01*
Y2178628D01*
X13771765D01*
Y2176994D01*
X13786472D01*
Y2175359D01*
X13797908D01*
Y2173725D01*
X13809346D01*
Y2172091D01*
X13814249D01*
Y2170457D01*
X13815881D01*
Y2168823D01*
X13814249D01*
Y2167189D01*
X13809346D01*
Y2165555D01*
X13804443D01*
Y2163922D01*
X13799542D01*
Y2162288D01*
X13793005D01*
Y2160654D01*
X13789738D01*
Y2159020D01*
X13783203D01*
Y2157386D01*
X13778300D01*
Y2155752D01*
X13773399D01*
Y2154118D01*
X13766862D01*
Y2152484D01*
X13753790D01*
Y2154118D01*
X13748889D01*
Y2155752D01*
X13727647D01*
Y2157386D01*
X13726013D01*
Y2159020D01*
X13722745D01*
Y2162288D01*
X13721111D01*
Y2163922D01*
X13717844D01*
Y2165555D01*
X13716209D01*
Y2167189D01*
X13714575D01*
Y2168823D01*
X13712941D01*
Y2170457D01*
X13711307D01*
Y2175359D01*
X13709673D01*
Y2178628D01*
X13704771D01*
Y2181896D01*
X13706406D01*
Y2183530D01*
X13709673D01*
Y2185164D01*
X13714575D01*
Y2183530D01*
X13716209D01*
Y2186798D01*
X13708038D01*
Y2188431D01*
X13709673D01*
Y2190065D01*
X13722745D01*
Y2191699D01*
X13680261D01*
Y2193333D01*
X13652483D01*
Y2212941D01*
X13650850D01*
Y2214575D01*
X13647581D01*
Y2212941D01*
X13645947D01*
Y2214575D01*
X13582222D01*
Y2212941D01*
X13580588D01*
Y2214575D01*
X13578954D01*
Y2252157D01*
Y2253791D01*
Y2360000D01*
X13652483D01*
Y2286471D01*
D02*
G37*
G36*
X13938431Y2155752D02*
X13933530D01*
Y2157386D01*
X13938431D01*
Y2155752D01*
D02*
G37*
G36*
X13917189D02*
X13915555D01*
Y2157386D01*
X13917189D01*
Y2155752D01*
D02*
G37*
G36*
Y2149216D02*
X13915555D01*
Y2150850D01*
X13917189D01*
Y2149216D01*
D02*
G37*
G36*
X13907385Y2165555D02*
X13909019D01*
Y2163922D01*
X13912286D01*
Y2159020D01*
X13910654D01*
Y2157386D01*
X13909019D01*
Y2149216D01*
X13902483D01*
Y2147582D01*
X13864902D01*
Y2149216D01*
X13837125D01*
Y2150850D01*
X13835490D01*
Y2152484D01*
X13832222D01*
Y2154118D01*
X13828954D01*
Y2155752D01*
X13824052D01*
Y2157386D01*
X13830588D01*
Y2159020D01*
X13833856D01*
Y2160654D01*
X13843660D01*
Y2162288D01*
X13866536D01*
Y2163922D01*
X13874706D01*
Y2165555D01*
X13884509D01*
Y2167189D01*
X13907385D01*
Y2165555D01*
D02*
G37*
G36*
X13028300Y2149216D02*
X13026666D01*
Y2147582D01*
X13020129D01*
Y2149216D01*
X13011961D01*
Y2150850D01*
X13018497D01*
Y2152484D01*
X13028300D01*
Y2149216D01*
D02*
G37*
G36*
X13330588Y2150850D02*
X13332222D01*
Y2145948D01*
X13330588D01*
Y2144314D01*
X13325687D01*
Y2145948D01*
X13322418D01*
Y2147582D01*
X13324052D01*
Y2149216D01*
X13325687D01*
Y2150850D01*
X13328954D01*
Y2152484D01*
X13330588D01*
Y2150850D01*
D02*
G37*
G36*
X13809346Y2129608D02*
X13807712D01*
Y2131242D01*
X13809346D01*
Y2129608D01*
D02*
G37*
G36*
X12856732Y2127974D02*
X12853464D01*
Y2129608D01*
X12856732D01*
Y2127974D01*
D02*
G37*
G36*
X12918823Y2129608D02*
X12920457D01*
Y2127974D01*
X12918823D01*
Y2126340D01*
X12907385D01*
Y2124706D01*
X12900848D01*
Y2123072D01*
X12895947D01*
Y2121438D01*
X12881242D01*
Y2119804D01*
X12868170D01*
Y2118170D01*
X12863268D01*
Y2119804D01*
X12853464D01*
Y2123072D01*
X12858366D01*
Y2129608D01*
X12895947D01*
Y2131242D01*
X12918823D01*
Y2129608D01*
D02*
G37*
G36*
X12850195Y2132876D02*
Y2131242D01*
X12851830D01*
Y2118170D01*
X12850195D01*
Y2114902D01*
X12848563D01*
Y2139412D01*
X12850195D01*
Y2132876D01*
D02*
G37*
G36*
X13943333Y2067516D02*
Y2065882D01*
Y2033203D01*
X13941699D01*
Y2039739D01*
X13940065D01*
Y2041373D01*
X13938431D01*
Y2039739D01*
X13926993D01*
Y2041373D01*
X13913921D01*
Y2043007D01*
X13869804D01*
Y2044641D01*
X13868170D01*
Y2043007D01*
X13835490D01*
Y2041373D01*
X13817516D01*
Y2043007D01*
X13807712D01*
Y2044641D01*
X13806078D01*
Y2043007D01*
X13796274D01*
Y2044641D01*
X13770129D01*
Y2046275D01*
X13765228D01*
Y2047909D01*
X13763596D01*
Y2052810D01*
X13761961D01*
Y2057712D01*
X13760327D01*
Y2060980D01*
X13758693D01*
Y2064248D01*
X13757059D01*
Y2069150D01*
X13755424D01*
Y2088758D01*
X13753790D01*
Y2090392D01*
X13752158D01*
Y2098562D01*
X13750523D01*
Y2100196D01*
X13748889D01*
Y2105098D01*
X13750523D01*
Y2108366D01*
X13748889D01*
Y2113268D01*
X13747255D01*
Y2114902D01*
X13745621D01*
Y2118170D01*
X13743987D01*
Y2119804D01*
X13747255D01*
Y2121438D01*
X13757059D01*
Y2123072D01*
X13765228D01*
Y2124706D01*
X13771765D01*
Y2126340D01*
X13775034D01*
Y2127974D01*
X13778300D01*
Y2126340D01*
X13781569D01*
Y2127974D01*
X13783203D01*
Y2129608D01*
X13784837D01*
Y2127974D01*
X13796274D01*
Y2129608D01*
X13802811D01*
Y2127974D01*
X13804443D01*
Y2129608D01*
X13807712D01*
Y2127974D01*
X13806078D01*
Y2126340D01*
X13802811D01*
Y2124706D01*
X13799542D01*
Y2123072D01*
X13796274D01*
Y2121438D01*
X13788104D01*
Y2118170D01*
X13789738D01*
Y2119804D01*
X13793005D01*
Y2118170D01*
X13796274D01*
Y2116536D01*
X13806078D01*
Y2114902D01*
X13856732D01*
Y2116536D01*
X13858366D01*
Y2114902D01*
X13860001D01*
Y2116536D01*
X13864902D01*
Y2114902D01*
X13892680D01*
Y2113268D01*
X13912286D01*
Y2111634D01*
X13913921D01*
Y2113268D01*
X13933530D01*
Y2111634D01*
X13935162D01*
Y2110000D01*
X13938431D01*
Y2106732D01*
X13940065D01*
Y2113268D01*
X13941699D01*
Y2131242D01*
X13943333D01*
Y2067516D01*
D02*
G37*
G36*
X13250523Y2062614D02*
X13248889D01*
Y2064248D01*
Y2065882D01*
X13250523D01*
Y2062614D01*
D02*
G37*
G36*
X13232549Y2077320D02*
X13229282D01*
Y2075686D01*
X13227647D01*
Y2074052D01*
X13226013D01*
Y2072418D01*
X13224379D01*
Y2070784D01*
X13222745D01*
Y2069150D01*
X13221111D01*
Y2067516D01*
X13219476D01*
Y2064248D01*
X13217844D01*
Y2062614D01*
X13216209D01*
Y2067516D01*
X13217844D01*
Y2074052D01*
X13219476D01*
Y2075686D01*
X13221111D01*
Y2077320D01*
X13224379D01*
Y2078954D01*
X13227647D01*
Y2080588D01*
X13232549D01*
Y2077320D01*
D02*
G37*
G36*
X13193333Y2052810D02*
X13191699D01*
Y2051176D01*
X13190065D01*
Y2054444D01*
X13193333D01*
Y2052810D01*
D02*
G37*
G36*
X13319150Y2038105D02*
X13317516D01*
Y2041373D01*
X13319150D01*
Y2038105D01*
D02*
G37*
G36*
X13369804Y2036471D02*
X13371439D01*
Y2034837D01*
X13366536D01*
Y2036471D01*
X13368170D01*
Y2038105D01*
X13369804D01*
Y2036471D01*
D02*
G37*
G36*
X13165555Y2031569D02*
X13163921D01*
Y2029935D01*
X13160654D01*
Y2028301D01*
X13157385D01*
Y2026667D01*
X13154117D01*
Y2025033D01*
X13152483D01*
Y2028301D01*
X13154117D01*
Y2029935D01*
X13159019D01*
Y2031569D01*
X13162286D01*
Y2033203D01*
X13165555D01*
Y2031569D01*
D02*
G37*
G36*
X13152483Y2023399D02*
X13150848D01*
Y2025033D01*
X13152483D01*
Y2023399D01*
D02*
G37*
G36*
X13389412Y2011961D02*
X13387778D01*
Y2013595D01*
X13389412D01*
Y2011961D01*
D02*
G37*
G36*
X13361633Y2034837D02*
X13363268D01*
Y2025033D01*
X13364902D01*
Y2020131D01*
X13366536D01*
Y2018497D01*
X13368170D01*
Y2016863D01*
X13369804D01*
Y2015229D01*
X13371439D01*
Y2013595D01*
X13373071D01*
Y2011961D01*
X13368170D01*
Y2013595D01*
X13364902D01*
Y2015229D01*
X13363268D01*
Y2016863D01*
Y2018497D01*
X13361633D01*
Y2021765D01*
X13360001D01*
Y2023399D01*
X13358366D01*
Y2034837D01*
X13360001D01*
Y2036471D01*
X13361633D01*
Y2034837D01*
D02*
G37*
G36*
X13386143Y2010327D02*
X13384509D01*
Y2011961D01*
X13386143D01*
Y2010327D01*
D02*
G37*
G36*
X13382877Y2008693D02*
X13381242D01*
Y2010327D01*
X13382877D01*
Y2008693D01*
D02*
G37*
G36*
X14090392Y2069150D02*
X14092026D01*
Y2067516D01*
X14163921D01*
Y1993987D01*
X14018497D01*
Y2141046D01*
X14090392D01*
Y2069150D01*
D02*
G37*
G36*
X13704771Y1993987D02*
X13706406D01*
Y1992353D01*
X13703137D01*
Y1993987D01*
X13701503D01*
Y1995621D01*
X13704771D01*
Y1993987D01*
D02*
G37*
G36*
X13289738Y1997255D02*
X13291373D01*
Y1995621D01*
X13293005D01*
Y1993987D01*
X13294640D01*
Y1992353D01*
X13296274D01*
Y1990719D01*
X13291373D01*
Y1992353D01*
X13289738D01*
Y1993987D01*
X13288104D01*
Y1995621D01*
X13286472D01*
Y1998889D01*
X13289738D01*
Y1997255D01*
D02*
G37*
G36*
X13139412Y1976013D02*
X13137778D01*
Y1977647D01*
X13139412D01*
Y1976013D01*
D02*
G37*
G36*
X13324052Y1990719D02*
X13325687D01*
Y1989085D01*
X13327319D01*
Y1984183D01*
X13328954D01*
Y1980915D01*
X13330588D01*
Y1976013D01*
X13332222D01*
Y1974379D01*
X13327319D01*
Y1976013D01*
X13324052D01*
Y1977647D01*
X13322418D01*
Y1979281D01*
X13319150D01*
Y1982549D01*
X13317516D01*
Y1984183D01*
X13319150D01*
Y1987451D01*
X13320784D01*
Y1990719D01*
X13322418D01*
Y1992353D01*
X13324052D01*
Y1990719D01*
D02*
G37*
G36*
X13595294Y1971111D02*
Y1969477D01*
X13593660D01*
Y1966209D01*
X13592026D01*
Y1964575D01*
X13590392D01*
Y1962941D01*
X13587125D01*
Y1961307D01*
X13578954D01*
Y1959673D01*
X13575687D01*
Y1961307D01*
X13577319D01*
Y1962941D01*
X13582222D01*
Y1964575D01*
X13585490D01*
Y1966209D01*
X13587125D01*
Y1967843D01*
X13590392D01*
Y1969477D01*
X13592026D01*
Y1971111D01*
X13593660D01*
Y1972745D01*
X13595294D01*
Y1971111D01*
D02*
G37*
G36*
X13193333Y1962941D02*
X13194968D01*
Y1956405D01*
X13193333D01*
Y1954771D01*
X13191699D01*
Y1951503D01*
X13196600D01*
Y1953137D01*
X13199869D01*
Y1951503D01*
X13201503D01*
Y1953137D01*
X13204771D01*
Y1951503D01*
X13206406D01*
Y1948235D01*
X13209673D01*
Y1944967D01*
X13211307D01*
Y1946601D01*
X13212941D01*
Y1948235D01*
X13217844D01*
Y1946601D01*
X13219476D01*
Y1944967D01*
X13221111D01*
Y1940065D01*
X13219476D01*
Y1938431D01*
X13216209D01*
Y1935164D01*
X13214575D01*
Y1933530D01*
X13217844D01*
Y1931896D01*
X13219476D01*
Y1933530D01*
X13222745D01*
Y1930262D01*
X13224379D01*
Y1926994D01*
X13226013D01*
Y1925359D01*
X13227647D01*
Y1923725D01*
X13229282D01*
Y1925359D01*
X13237451D01*
Y1923725D01*
X13243987D01*
Y1922091D01*
X13245621D01*
Y1920457D01*
X13248889D01*
Y1918823D01*
X13250523D01*
Y1917189D01*
X13252158D01*
Y1915555D01*
X13250523D01*
Y1913921D01*
X13245621D01*
Y1912288D01*
X13242352D01*
Y1913921D01*
X13239085D01*
Y1912288D01*
X13234183D01*
Y1909020D01*
X13235817D01*
Y1907386D01*
X13237451D01*
Y1904118D01*
X13239085D01*
Y1900850D01*
X13240720D01*
Y1897582D01*
X13239085D01*
Y1895948D01*
X13237451D01*
Y1894314D01*
X13234183D01*
Y1895948D01*
X13230914D01*
Y1892680D01*
X13227647D01*
Y1889412D01*
X13226013D01*
Y1887778D01*
X13230914D01*
Y1886144D01*
X13235817D01*
Y1882876D01*
X13234183D01*
Y1881242D01*
X13235817D01*
Y1879608D01*
X13237451D01*
Y1881242D01*
X13239085D01*
Y1882876D01*
X13243987D01*
Y1881242D01*
X13248889D01*
Y1882876D01*
X13250523D01*
Y1884510D01*
X13248889D01*
Y1886144D01*
Y1887778D01*
Y1891046D01*
X13250523D01*
Y1892680D01*
X13252158D01*
Y1895948D01*
X13257059D01*
Y1894314D01*
X13258693D01*
Y1891046D01*
X13260327D01*
Y1886144D01*
X13258693D01*
Y1882876D01*
X13252158D01*
Y1881242D01*
X13250523D01*
Y1877974D01*
X13248889D01*
Y1876340D01*
X13247255D01*
Y1874706D01*
X13243987D01*
Y1877974D01*
X13242352D01*
Y1879608D01*
X13239085D01*
Y1877974D01*
X13237451D01*
Y1876340D01*
X13235817D01*
Y1874706D01*
X13234183D01*
Y1873072D01*
X13229282D01*
Y1876340D01*
X13227647D01*
Y1869804D01*
X13226013D01*
Y1868170D01*
X13221111D01*
Y1864902D01*
X13227647D01*
Y1863268D01*
X13230914D01*
Y1861634D01*
X13234183D01*
Y1858366D01*
X13235817D01*
Y1856732D01*
X13237451D01*
Y1858366D01*
X13239085D01*
Y1860000D01*
X13243987D01*
Y1855098D01*
X13240720D01*
Y1853464D01*
X13239085D01*
Y1850196D01*
X13237451D01*
Y1848562D01*
X13235817D01*
Y1846928D01*
X13232549D01*
Y1848562D01*
X13229282D01*
Y1853464D01*
X13227647D01*
Y1855098D01*
X13221111D01*
Y1850196D01*
X13222745D01*
Y1848562D01*
X13227647D01*
Y1843660D01*
X13226013D01*
Y1842026D01*
X13224379D01*
Y1840392D01*
X13226013D01*
Y1837124D01*
X13224379D01*
Y1817516D01*
X13227647D01*
Y1815882D01*
X13229282D01*
Y1814248D01*
X13227647D01*
Y1809346D01*
X13229282D01*
Y1806078D01*
X13227647D01*
Y1804444D01*
X13226013D01*
Y1797909D01*
X13227647D01*
Y1789739D01*
X13226013D01*
Y1791373D01*
X13224379D01*
Y1794641D01*
X13226013D01*
Y1796275D01*
X13224379D01*
Y1797909D01*
X13222745D01*
Y1815882D01*
X13221111D01*
Y1812614D01*
X13219476D01*
Y1810980D01*
X13217844D01*
Y1799543D01*
X13219476D01*
Y1797909D01*
X13222745D01*
Y1786471D01*
X13221111D01*
Y1784837D01*
X13219476D01*
Y1781569D01*
X13211307D01*
Y1783203D01*
X13209673D01*
Y1784837D01*
X13206406D01*
Y1779935D01*
X13204771D01*
Y1778301D01*
X13199869D01*
Y1773399D01*
X13201503D01*
Y1771765D01*
X13190065D01*
Y1773399D01*
X13185162D01*
Y1771765D01*
X13183530D01*
Y1770131D01*
X13181895D01*
Y1766863D01*
X13180261D01*
Y1763595D01*
X13181895D01*
Y1758693D01*
X13180261D01*
Y1757059D01*
X13178627D01*
Y1758693D01*
X13175359D01*
Y1760327D01*
X13173724D01*
Y1761961D01*
X13172092D01*
Y1763595D01*
X13173724D01*
Y1766863D01*
X13170457D01*
Y1763595D01*
X13168823D01*
Y1760327D01*
X13170457D01*
Y1758693D01*
X13172092D01*
Y1757059D01*
X13170457D01*
Y1755425D01*
X13172092D01*
Y1752157D01*
X13176993D01*
Y1753791D01*
X13178627D01*
Y1752157D01*
X13181895D01*
Y1753791D01*
X13186797D01*
Y1755425D01*
X13188431D01*
Y1757059D01*
X13190065D01*
Y1760327D01*
X13193333D01*
Y1761961D01*
X13194968D01*
Y1763595D01*
X13196600D01*
Y1761961D01*
X13198235D01*
Y1760327D01*
X13196600D01*
Y1757059D01*
X13193333D01*
Y1755425D01*
X13190065D01*
Y1752157D01*
X13193333D01*
Y1750523D01*
X13191699D01*
Y1748889D01*
X13190065D01*
Y1747255D01*
X13186797D01*
Y1745621D01*
X13183530D01*
Y1743987D01*
X13181895D01*
Y1742353D01*
X13178627D01*
Y1740719D01*
X13175359D01*
Y1739085D01*
X13172092D01*
Y1737451D01*
X13168823D01*
Y1735817D01*
X13167189D01*
Y1734183D01*
X13163921D01*
Y1732549D01*
X13160654D01*
Y1730915D01*
X13157385D01*
Y1729281D01*
X13154117D01*
Y1727647D01*
X13150848D01*
Y1726013D01*
X13147581D01*
Y1724379D01*
X13144315D01*
Y1722745D01*
X13141046D01*
Y1737451D01*
X13142680D01*
Y1745621D01*
X13144315D01*
Y1748889D01*
X13145947D01*
Y1755425D01*
X13147581D01*
Y1761961D01*
X13149216D01*
Y1773399D01*
X13150848D01*
Y1781569D01*
X13152483D01*
Y1788105D01*
X13154117D01*
Y1794641D01*
X13155751D01*
Y1797909D01*
X13157385D01*
Y1802810D01*
X13159019D01*
Y1809346D01*
X13160654D01*
Y1814248D01*
X13162286D01*
Y1822418D01*
X13163921D01*
Y1830588D01*
X13165555D01*
Y1835490D01*
X13167189D01*
Y1842026D01*
X13168823D01*
Y1848562D01*
X13170457D01*
Y1853464D01*
X13172092D01*
Y1861634D01*
X13173724D01*
Y1869804D01*
X13175359D01*
Y1881242D01*
X13176993D01*
Y1889412D01*
X13178627D01*
Y1909020D01*
X13180261D01*
Y1946601D01*
X13178627D01*
Y1959673D01*
X13176993D01*
Y1962941D01*
X13180261D01*
Y1959673D01*
X13183530D01*
Y1961307D01*
X13185162D01*
Y1962941D01*
X13186797D01*
Y1964575D01*
X13193333D01*
Y1962941D01*
D02*
G37*
G36*
X13616536Y1972745D02*
X13619804D01*
Y1971111D01*
X13623071D01*
Y1969477D01*
X13627974D01*
Y1967843D01*
X13631242D01*
Y1966209D01*
X13634509D01*
Y1964575D01*
X13639412D01*
Y1962941D01*
X13641046D01*
Y1961307D01*
X13644315D01*
Y1959673D01*
X13647581D01*
Y1958039D01*
X13650850D01*
Y1956405D01*
X13654117D01*
Y1954771D01*
X13655751D01*
Y1953137D01*
X13657385D01*
Y1951503D01*
X13659019D01*
Y1949869D01*
X13660654D01*
Y1948235D01*
X13662286D01*
Y1946601D01*
X13663921D01*
Y1941699D01*
X13662286D01*
Y1938431D01*
X13660654D01*
Y1936797D01*
X13659019D01*
Y1935164D01*
X13657385D01*
Y1933530D01*
X13655751D01*
Y1931896D01*
X13654117D01*
Y1930262D01*
X13652483D01*
Y1928628D01*
X13650850D01*
Y1926994D01*
X13647581D01*
Y1925359D01*
X13644315D01*
Y1923725D01*
X13639412D01*
Y1922091D01*
X13629608D01*
Y1920457D01*
X13618170D01*
Y1918823D01*
X13598563D01*
Y1920457D01*
X13570784D01*
Y1918823D01*
X13574052D01*
Y1917189D01*
X13582222D01*
Y1915555D01*
X13590392D01*
Y1913921D01*
X13616536D01*
Y1912288D01*
X13614902D01*
Y1910654D01*
X13603464D01*
Y1909020D01*
X13588757D01*
Y1910654D01*
X13574052D01*
Y1912288D01*
X13567516D01*
Y1913921D01*
X13562614D01*
Y1915555D01*
X13557712D01*
Y1917189D01*
X13552811D01*
Y1918823D01*
X13547908D01*
Y1920457D01*
X13544640D01*
Y1922091D01*
X13543005D01*
Y1923725D01*
X13539738D01*
Y1925359D01*
X13536472D01*
Y1926994D01*
X13531569D01*
Y1928628D01*
X13526666D01*
Y1931896D01*
X13525034D01*
Y1933530D01*
X13523399D01*
Y1940065D01*
X13521765D01*
Y1943333D01*
X13523399D01*
Y1944967D01*
X13525034D01*
Y1943333D01*
X13526666D01*
Y1941699D01*
X13528300D01*
Y1940065D01*
X13529935D01*
Y1938431D01*
X13531569D01*
Y1936797D01*
X13533203D01*
Y1935164D01*
X13536472D01*
Y1933530D01*
X13538104D01*
Y1931896D01*
X13543005D01*
Y1933530D01*
X13541373D01*
Y1935164D01*
X13539738D01*
Y1936797D01*
X13536472D01*
Y1940065D01*
X13534837D01*
Y1941699D01*
X13533203D01*
Y1943333D01*
X13531569D01*
Y1946601D01*
X13529935D01*
Y1949869D01*
X13528300D01*
Y1959673D01*
X13529935D01*
Y1962941D01*
X13531569D01*
Y1966209D01*
X13533203D01*
Y1967843D01*
X13534837D01*
Y1969477D01*
X13538104D01*
Y1971111D01*
X13541373D01*
Y1969477D01*
X13543005D01*
Y1967843D01*
X13544640D01*
Y1964575D01*
X13546274D01*
Y1961307D01*
X13547908D01*
Y1959673D01*
X13549542D01*
Y1958039D01*
X13551176D01*
Y1956405D01*
X13552811D01*
Y1954771D01*
X13554443D01*
Y1953137D01*
X13556078D01*
Y1951503D01*
X13557712D01*
Y1949869D01*
X13560980D01*
Y1948235D01*
X13565881D01*
Y1946601D01*
X13572418D01*
Y1944967D01*
X13580588D01*
Y1946601D01*
X13587125D01*
Y1948235D01*
X13592026D01*
Y1949869D01*
X13595294D01*
Y1951503D01*
X13596928D01*
Y1953137D01*
X13598563D01*
Y1954771D01*
X13600195D01*
Y1956405D01*
X13601830D01*
Y1958039D01*
X13603464D01*
Y1959673D01*
X13605098D01*
Y1961307D01*
X13606732D01*
Y1964575D01*
X13608366D01*
Y1966209D01*
X13610001D01*
Y1971111D01*
X13611633D01*
Y1972745D01*
X13613268D01*
Y1974379D01*
X13616536D01*
Y1972745D01*
D02*
G37*
G36*
X12853464Y1944967D02*
X12851830D01*
Y1946601D01*
Y1949869D01*
X12853464D01*
Y1944967D01*
D02*
G37*
G36*
X13271765Y1948235D02*
X13273399D01*
Y1946601D01*
X13278300D01*
Y1944967D01*
X13279935D01*
Y1943333D01*
X13278300D01*
Y1941699D01*
X13275034D01*
Y1943333D01*
X13273399D01*
Y1941699D01*
X13266862D01*
Y1943333D01*
X13265228D01*
Y1946601D01*
X13266862D01*
Y1948235D01*
X13268497D01*
Y1949869D01*
X13271765D01*
Y1948235D01*
D02*
G37*
G36*
X13275034Y1935164D02*
X13276666D01*
Y1930262D01*
X13275034D01*
Y1928628D01*
X13270129D01*
Y1930262D01*
X13268497D01*
Y1931896D01*
X13265228D01*
Y1936797D01*
X13266862D01*
Y1935164D01*
X13270129D01*
Y1936797D01*
X13275034D01*
Y1935164D01*
D02*
G37*
G36*
X13227647D02*
X13226013D01*
Y1936797D01*
X13227647D01*
Y1935164D01*
D02*
G37*
G36*
X13235817Y1930262D02*
X13234183D01*
Y1928628D01*
X13230914D01*
Y1931896D01*
X13229282D01*
Y1933530D01*
X13235817D01*
Y1930262D01*
D02*
G37*
G36*
X13103464Y1925359D02*
X13101830D01*
Y1926994D01*
X13103464D01*
Y1925359D01*
D02*
G37*
G36*
X13110001Y1920457D02*
Y1918823D01*
X13108366D01*
Y1922091D01*
X13110001D01*
Y1920457D01*
D02*
G37*
G36*
X13103464D02*
X13105098D01*
Y1918823D01*
X13101830D01*
Y1922091D01*
X13103464D01*
Y1920457D01*
D02*
G37*
G36*
X13296274Y1966209D02*
X13299542D01*
Y1964575D01*
X13301176D01*
Y1962941D01*
X13302811D01*
Y1961307D01*
X13306078D01*
Y1959673D01*
X13307712D01*
Y1958039D01*
X13309346D01*
Y1956405D01*
X13312614D01*
Y1954771D01*
X13315881D01*
Y1953137D01*
X13319150D01*
Y1951503D01*
X13324052D01*
Y1949869D01*
X13327319D01*
Y1948235D01*
X13330588D01*
Y1946601D01*
X13332222D01*
Y1944967D01*
X13335490D01*
Y1943333D01*
X13338757D01*
Y1941699D01*
X13343660D01*
Y1940065D01*
X13346928D01*
Y1938431D01*
X13350195D01*
Y1936797D01*
X13353464D01*
Y1935164D01*
X13356732D01*
Y1933530D01*
X13361633D01*
Y1931896D01*
X13364902D01*
Y1930262D01*
X13368170D01*
Y1928628D01*
X13373071D01*
Y1926994D01*
X13377974D01*
Y1925359D01*
X13381242D01*
Y1923725D01*
X13384509D01*
Y1922091D01*
X13387778D01*
Y1920457D01*
X13389412D01*
Y1918823D01*
X13391046D01*
Y1917189D01*
X13382877D01*
Y1915555D01*
X13369804D01*
Y1917189D01*
X13366536D01*
Y1918823D01*
X13364902D01*
Y1920457D01*
X13361633D01*
Y1922091D01*
X13356732D01*
Y1923725D01*
X13355098D01*
Y1925359D01*
X13351830D01*
Y1926994D01*
X13350195D01*
Y1928628D01*
X13342026D01*
Y1926994D01*
X13343660D01*
Y1925359D01*
X13345294D01*
Y1923725D01*
X13346928D01*
Y1922091D01*
X13342026D01*
Y1923725D01*
X13338757D01*
Y1925359D01*
X13337125D01*
Y1926994D01*
X13333856D01*
Y1928628D01*
X13332222D01*
Y1930262D01*
X13328954D01*
Y1931896D01*
X13324052D01*
Y1933530D01*
X13322418D01*
Y1935164D01*
X13320784D01*
Y1936797D01*
X13319150D01*
Y1940065D01*
X13317516D01*
Y1941699D01*
X13315881D01*
Y1943333D01*
X13314249D01*
Y1944967D01*
X13312614D01*
Y1946601D01*
X13310980D01*
Y1949869D01*
X13307712D01*
Y1951503D01*
X13306078D01*
Y1953137D01*
X13304443D01*
Y1954771D01*
X13301176D01*
Y1956405D01*
X13299542D01*
Y1958039D01*
X13297908D01*
Y1961307D01*
X13296274D01*
Y1964575D01*
X13294640D01*
Y1967843D01*
X13296274D01*
Y1966209D01*
D02*
G37*
G36*
X13415555Y1907386D02*
X13413921D01*
Y1909020D01*
X13415555D01*
Y1907386D01*
D02*
G37*
G36*
X13337125Y1920457D02*
X13338757D01*
Y1918823D01*
X13342026D01*
Y1917189D01*
X13343660D01*
Y1915555D01*
X13346928D01*
Y1913921D01*
X13350195D01*
Y1910654D01*
X13353464D01*
Y1909020D01*
X13355098D01*
Y1907386D01*
X13358366D01*
Y1905752D01*
X13355098D01*
Y1904118D01*
X13351830D01*
Y1905752D01*
X13348563D01*
Y1910654D01*
X13346928D01*
Y1912288D01*
X13345294D01*
Y1913921D01*
X13342026D01*
Y1915555D01*
X13338757D01*
Y1918823D01*
X13335490D01*
Y1920457D01*
X13333856D01*
Y1922091D01*
X13337125D01*
Y1920457D01*
D02*
G37*
G36*
X13103464Y1899216D02*
X13100195D01*
Y1900850D01*
X13103464D01*
Y1899216D01*
D02*
G37*
G36*
X13760327Y1895948D02*
X13758693D01*
Y1894314D01*
X13755424D01*
Y1897582D01*
X13760327D01*
Y1895948D01*
D02*
G37*
G36*
X13270129Y1909020D02*
X13273399D01*
Y1907386D01*
X13275034D01*
Y1905752D01*
X13276666D01*
Y1904118D01*
X13278300D01*
Y1899216D01*
X13276666D01*
Y1895948D01*
X13273399D01*
Y1894314D01*
X13268497D01*
Y1895948D01*
X13266862D01*
Y1897582D01*
X13265228D01*
Y1899216D01*
X13263596D01*
Y1905752D01*
X13265228D01*
Y1909020D01*
X13266862D01*
Y1910654D01*
X13270129D01*
Y1909020D01*
D02*
G37*
G36*
X13881242Y1902484D02*
X13882877D01*
Y1900850D01*
X13884509D01*
Y1899216D01*
X13886143D01*
Y1897582D01*
X13889412D01*
Y1895948D01*
X13892680D01*
Y1894314D01*
X13894315D01*
Y1892680D01*
X13895947D01*
Y1891046D01*
X13902483D01*
Y1892680D01*
X13904117D01*
Y1891046D01*
X13905751D01*
Y1889412D01*
X13907385D01*
Y1886144D01*
X13905751D01*
Y1884510D01*
X13907385D01*
Y1882876D01*
X13910654D01*
Y1881242D01*
X13912286D01*
Y1879608D01*
X13913921D01*
Y1874706D01*
X13915555D01*
Y1873072D01*
X13917189D01*
Y1869804D01*
X13918823D01*
Y1866536D01*
X13915555D01*
Y1864902D01*
X13913921D01*
Y1861634D01*
X13912286D01*
Y1858366D01*
X13909019D01*
Y1856732D01*
X13905751D01*
Y1855098D01*
X13902483D01*
Y1856732D01*
X13897581D01*
Y1853464D01*
X13895947D01*
Y1850196D01*
X13894315D01*
Y1848562D01*
X13882877D01*
Y1850196D01*
X13884509D01*
Y1855098D01*
X13882877D01*
Y1853464D01*
X13881242D01*
Y1851830D01*
X13877974D01*
Y1850196D01*
X13876340D01*
Y1848562D01*
X13874706D01*
Y1850196D01*
X13866536D01*
Y1848562D01*
X13861633D01*
Y1850196D01*
X13860001D01*
Y1853464D01*
X13861633D01*
Y1855098D01*
X13858366D01*
Y1853464D01*
X13856732D01*
Y1851830D01*
X13858366D01*
Y1850196D01*
X13856732D01*
Y1846928D01*
X13853464D01*
Y1843660D01*
X13851830D01*
Y1830588D01*
X13850195D01*
Y1824052D01*
X13848563D01*
Y1822418D01*
X13850195D01*
Y1820784D01*
X13848563D01*
Y1819150D01*
X13850195D01*
Y1817516D01*
X13848563D01*
Y1815882D01*
X13851830D01*
Y1817516D01*
X13853464D01*
Y1815882D01*
X13855098D01*
Y1814248D01*
X13851830D01*
Y1812614D01*
X13853464D01*
Y1806078D01*
X13851830D01*
Y1804444D01*
X13848563D01*
Y1802810D01*
X13851830D01*
Y1799543D01*
X13853464D01*
Y1797909D01*
X13855098D01*
Y1788105D01*
X13853464D01*
Y1786471D01*
X13851830D01*
Y1784837D01*
X13850195D01*
Y1786471D01*
X13846928D01*
Y1791373D01*
X13848563D01*
Y1793007D01*
X13851830D01*
Y1796275D01*
X13850195D01*
Y1797909D01*
X13848563D01*
Y1799543D01*
X13846928D01*
Y1801176D01*
X13845294D01*
Y1804444D01*
X13846928D01*
Y1806078D01*
X13845294D01*
Y1810980D01*
X13843660D01*
Y1815882D01*
X13840392D01*
Y1817516D01*
X13843660D01*
Y1824052D01*
X13840392D01*
Y1827320D01*
X13838757D01*
Y1828954D01*
X13835490D01*
Y1827320D01*
X13833856D01*
Y1828954D01*
X13830588D01*
Y1830588D01*
X13824052D01*
Y1825686D01*
X13822418D01*
Y1824052D01*
X13812614D01*
Y1825686D01*
X13806078D01*
Y1824052D01*
X13802811D01*
Y1822418D01*
X13796274D01*
Y1820784D01*
X13794640D01*
Y1819150D01*
X13796274D01*
Y1817516D01*
X13801176D01*
Y1819150D01*
X13802811D01*
Y1810980D01*
X13804443D01*
Y1806078D01*
X13806078D01*
Y1804444D01*
X13807712D01*
Y1802810D01*
X13810980D01*
Y1799543D01*
X13814249D01*
Y1801176D01*
X13827319D01*
Y1799543D01*
X13828954D01*
Y1796275D01*
X13827319D01*
Y1791373D01*
X13820784D01*
Y1793007D01*
X13819150D01*
Y1794641D01*
X13815881D01*
Y1793007D01*
X13812614D01*
Y1794641D01*
X13809346D01*
Y1793007D01*
X13807712D01*
Y1786471D01*
X13809346D01*
Y1779935D01*
X13807712D01*
Y1778301D01*
X13802811D01*
Y1776667D01*
X13799542D01*
Y1775033D01*
X13781569D01*
Y1773399D01*
X13775034D01*
Y1775033D01*
X13768497D01*
Y1773399D01*
X13771765D01*
Y1771765D01*
X13773399D01*
Y1770131D01*
X13778300D01*
Y1768497D01*
X13779935D01*
Y1766863D01*
X13783203D01*
Y1765229D01*
X13784837D01*
Y1763595D01*
X13786472D01*
Y1761961D01*
X13788104D01*
Y1760327D01*
X13789738D01*
Y1758693D01*
X13791373D01*
Y1755425D01*
X13793005D01*
Y1753791D01*
X13794640D01*
Y1748889D01*
X13796274D01*
Y1743987D01*
X13797908D01*
Y1699869D01*
X13796274D01*
Y1690065D01*
X13794640D01*
Y1683530D01*
X13793005D01*
Y1678628D01*
X13791373D01*
Y1673725D01*
X13789738D01*
Y1670457D01*
X13788104D01*
Y1668823D01*
X13786472D01*
Y1667189D01*
X13784837D01*
Y1663921D01*
X13783203D01*
Y1662288D01*
X13781569D01*
Y1660654D01*
X13779935D01*
Y1657386D01*
X13778300D01*
Y1655752D01*
X13776666D01*
Y1654118D01*
X13775034D01*
Y1650850D01*
X13773399D01*
Y1649216D01*
X13771765D01*
Y1647582D01*
X13770129D01*
Y1645948D01*
X13768497D01*
Y1644314D01*
X13766862D01*
Y1642680D01*
X13765228D01*
Y1641046D01*
X13761961D01*
Y1639412D01*
X13760327D01*
Y1636144D01*
X13758693D01*
Y1634510D01*
X13757059D01*
Y1632876D01*
X13753790D01*
Y1631242D01*
X13747255D01*
Y1629608D01*
X13745621D01*
Y1627974D01*
X13735817D01*
Y1629608D01*
X13724379D01*
Y1627974D01*
X13722745D01*
Y1629608D01*
X13721111D01*
Y1631242D01*
X13717844D01*
Y1629608D01*
X13714575D01*
Y1631242D01*
X13712941D01*
Y1634510D01*
X13709673D01*
Y1636144D01*
X13708038D01*
Y1637778D01*
X13704771D01*
Y1642680D01*
X13706406D01*
Y1641046D01*
X13709673D01*
Y1642680D01*
X13711307D01*
Y1644314D01*
X13712941D01*
Y1645948D01*
X13714575D01*
Y1649216D01*
X13711307D01*
Y1650850D01*
X13714575D01*
Y1649216D01*
X13717844D01*
Y1654118D01*
X13716209D01*
Y1668823D01*
X13717844D01*
Y1670457D01*
X13712941D01*
Y1678628D01*
X13711307D01*
Y1680262D01*
X13712941D01*
Y1683530D01*
X13706406D01*
Y1680262D01*
X13703137D01*
Y1678628D01*
X13701503D01*
Y1676994D01*
X13699869D01*
Y1678628D01*
X13698235D01*
Y1680262D01*
X13696600D01*
Y1678628D01*
X13693333D01*
Y1676994D01*
X13688431D01*
Y1673725D01*
X13686797D01*
Y1670457D01*
X13680261D01*
Y1668823D01*
X13675359D01*
Y1667189D01*
X13673724D01*
Y1665555D01*
X13670457D01*
Y1663921D01*
X13668823D01*
Y1662288D01*
X13665555D01*
Y1657386D01*
X13663921D01*
Y1655752D01*
X13662286D01*
Y1654118D01*
X13660654D01*
Y1650850D01*
X13655751D01*
Y1649216D01*
X13657385D01*
Y1647582D01*
X13654117D01*
Y1645948D01*
X13652483D01*
Y1644314D01*
X13650850D01*
Y1641046D01*
X13649216D01*
Y1639412D01*
X13647581D01*
Y1636144D01*
X13645947D01*
Y1641046D01*
X13644315D01*
Y1704771D01*
X13642680D01*
Y1722745D01*
X13641046D01*
Y1729281D01*
X13639412D01*
Y1735817D01*
X13637778D01*
Y1739085D01*
X13636143D01*
Y1745621D01*
X13634509D01*
Y1752157D01*
X13632877D01*
Y1753791D01*
X13631242D01*
Y1757059D01*
X13627974D01*
Y1755425D01*
X13611633D01*
Y1753791D01*
X13610001D01*
Y1755425D01*
X13603464D01*
Y1757059D01*
X13598563D01*
Y1758693D01*
X13596928D01*
Y1757059D01*
X13593660D01*
Y1758693D01*
X13592026D01*
Y1761961D01*
X13593660D01*
Y1770131D01*
X13595294D01*
Y1773399D01*
X13593660D01*
Y1775033D01*
X13595294D01*
Y1778301D01*
X13593660D01*
Y1781569D01*
X13595294D01*
Y1783203D01*
X13596928D01*
Y1784837D01*
X13598563D01*
Y1786471D01*
X13600195D01*
Y1788105D01*
X13601830D01*
Y1789739D01*
X13603464D01*
Y1791373D01*
X13605098D01*
Y1793007D01*
X13606732D01*
Y1794641D01*
X13608366D01*
Y1796275D01*
X13610001D01*
Y1799543D01*
X13611633D01*
Y1801176D01*
X13613268D01*
Y1802810D01*
X13614902D01*
Y1804444D01*
X13616536D01*
Y1806078D01*
X13618170D01*
Y1810980D01*
X13619804D01*
Y1812614D01*
X13621439D01*
Y1815882D01*
X13623071D01*
Y1817516D01*
X13624706D01*
Y1824052D01*
X13626340D01*
Y1827320D01*
X13627974D01*
Y1832222D01*
X13629608D01*
Y1835490D01*
X13627974D01*
Y1837124D01*
X13629608D01*
Y1838758D01*
X13627974D01*
Y1840392D01*
X13629608D01*
Y1842026D01*
X13632877D01*
Y1845294D01*
X13637778D01*
Y1850196D01*
X13639412D01*
Y1851830D01*
X13636143D01*
Y1853464D01*
X13637778D01*
Y1855098D01*
X13641046D01*
Y1856732D01*
X13644315D01*
Y1858366D01*
X13645947D01*
Y1860000D01*
X13649216D01*
Y1861634D01*
X13652483D01*
Y1863268D01*
X13654117D01*
Y1864902D01*
X13657385D01*
Y1866536D01*
X13659019D01*
Y1868170D01*
X13662286D01*
Y1869804D01*
X13663921D01*
Y1871438D01*
X13667189D01*
Y1873072D01*
X13668823D01*
Y1869804D01*
X13667189D01*
Y1866536D01*
X13665555D01*
Y1864902D01*
X13663921D01*
Y1861634D01*
X13662286D01*
Y1858366D01*
X13660654D01*
Y1856732D01*
X13659019D01*
Y1853464D01*
X13657385D01*
Y1850196D01*
X13655751D01*
Y1848562D01*
X13654117D01*
Y1846928D01*
X13652483D01*
Y1843660D01*
X13650850D01*
Y1840392D01*
X13649216D01*
Y1835490D01*
X13647581D01*
Y1833856D01*
X13649216D01*
Y1830588D01*
X13647581D01*
Y1832222D01*
X13644315D01*
Y1830588D01*
X13642680D01*
Y1828954D01*
X13641046D01*
Y1827320D01*
X13639412D01*
Y1824052D01*
X13637778D01*
Y1822418D01*
X13636143D01*
Y1820784D01*
X13634509D01*
Y1819150D01*
X13632877D01*
Y1815882D01*
X13631242D01*
Y1814248D01*
X13629608D01*
Y1812614D01*
X13627974D01*
Y1810980D01*
X13626340D01*
Y1807712D01*
X13631242D01*
Y1806078D01*
X13647581D01*
Y1804444D01*
X13652483D01*
Y1802810D01*
X13663921D01*
Y1801176D01*
X13673724D01*
Y1799543D01*
X13683530D01*
Y1797909D01*
X13690065D01*
Y1796275D01*
X13701503D01*
Y1794641D01*
X13706406D01*
Y1793007D01*
X13711307D01*
Y1791373D01*
X13716209D01*
Y1789739D01*
X13721111D01*
Y1788105D01*
X13727647D01*
Y1786471D01*
X13734183D01*
Y1784837D01*
X13740720D01*
Y1783203D01*
X13743987D01*
Y1786471D01*
X13742352D01*
Y1796275D01*
X13743987D01*
Y1797909D01*
X13745621D01*
Y1799543D01*
X13753790D01*
Y1801176D01*
X13757059D01*
Y1804444D01*
X13755424D01*
Y1806078D01*
X13753790D01*
Y1809346D01*
X13752158D01*
Y1810980D01*
X13748889D01*
Y1812614D01*
X13747255D01*
Y1814248D01*
X13745621D01*
Y1815882D01*
X13743987D01*
Y1817516D01*
X13742352D01*
Y1819150D01*
X13740720D01*
Y1820784D01*
X13735817D01*
Y1819150D01*
X13732549D01*
Y1828954D01*
X13729282D01*
Y1830588D01*
X13726013D01*
Y1828954D01*
X13724379D01*
Y1827320D01*
X13719476D01*
Y1822418D01*
X13717844D01*
Y1819150D01*
X13716209D01*
Y1817516D01*
X13714575D01*
Y1815882D01*
X13709673D01*
Y1812614D01*
X13708038D01*
Y1810980D01*
X13706406D01*
Y1814248D01*
X13708038D01*
Y1832222D01*
X13706406D01*
Y1837124D01*
X13708038D01*
Y1848562D01*
X13709673D01*
Y1851830D01*
X13711307D01*
Y1853464D01*
X13712941D01*
Y1855098D01*
X13714575D01*
Y1858366D01*
X13716209D01*
Y1860000D01*
X13717844D01*
Y1861634D01*
X13719476D01*
Y1864902D01*
X13721111D01*
Y1866536D01*
X13724379D01*
Y1868170D01*
X13726013D01*
Y1871438D01*
X13727647D01*
Y1874706D01*
X13734183D01*
Y1876340D01*
X13735817D01*
Y1877974D01*
X13737451D01*
Y1879608D01*
X13739085D01*
Y1877974D01*
X13740720D01*
Y1879608D01*
X13743987D01*
Y1881242D01*
X13747255D01*
Y1879608D01*
X13748889D01*
Y1877974D01*
X13752158D01*
Y1874706D01*
X13755424D01*
Y1877974D01*
X13752158D01*
Y1882876D01*
X13753790D01*
Y1884510D01*
X13761961D01*
Y1886144D01*
X13765228D01*
Y1881242D01*
X13770129D01*
Y1882876D01*
X13768497D01*
Y1884510D01*
X13766862D01*
Y1886144D01*
X13768497D01*
Y1887778D01*
X13776666D01*
Y1886144D01*
X13778300D01*
Y1887778D01*
X13783203D01*
Y1891046D01*
X13786472D01*
Y1889412D01*
X13788104D01*
Y1886144D01*
X13789738D01*
Y1884510D01*
X13794640D01*
Y1886144D01*
X13796274D01*
Y1887778D01*
X13809346D01*
Y1886144D01*
X13814249D01*
Y1887778D01*
X13817516D01*
Y1889412D01*
X13827319D01*
Y1892680D01*
X13830588D01*
Y1894314D01*
X13833856D01*
Y1895948D01*
X13835490D01*
Y1899216D01*
X13838757D01*
Y1902484D01*
X13840392D01*
Y1904118D01*
X13845294D01*
Y1902484D01*
X13848563D01*
Y1900850D01*
X13851830D01*
Y1895948D01*
X13850195D01*
Y1894314D01*
X13851830D01*
Y1892680D01*
X13853464D01*
Y1894314D01*
X13858366D01*
Y1892680D01*
X13860001D01*
Y1894314D01*
X13864902D01*
Y1892680D01*
X13866536D01*
Y1894314D01*
X13869804D01*
Y1895948D01*
X13871439D01*
Y1897582D01*
X13873071D01*
Y1899216D01*
X13874706D01*
Y1900850D01*
X13876340D01*
Y1902484D01*
X13877974D01*
Y1904118D01*
X13881242D01*
Y1902484D01*
D02*
G37*
G36*
X13100195Y1887778D02*
X13098563D01*
Y1889412D01*
X13100195D01*
Y1887778D01*
D02*
G37*
G36*
X13518497Y1882876D02*
X13523399D01*
Y1881242D01*
X13525034D01*
Y1879608D01*
X13520129D01*
Y1881242D01*
X13515228D01*
Y1882876D01*
X13513596D01*
Y1884510D01*
X13518497D01*
Y1882876D01*
D02*
G37*
G36*
X13510327Y1877974D02*
X13507059D01*
Y1879608D01*
X13510327D01*
Y1877974D01*
D02*
G37*
G36*
X13297908Y1881242D02*
X13299542D01*
Y1877974D01*
X13297908D01*
Y1876340D01*
X13293005D01*
Y1882876D01*
X13297908D01*
Y1881242D01*
D02*
G37*
G36*
X13554443Y1869804D02*
X13551176D01*
Y1871438D01*
X13554443D01*
Y1869804D01*
D02*
G37*
G36*
X13312614Y1923725D02*
X13314249D01*
Y1922091D01*
X13315881D01*
Y1920457D01*
X13317516D01*
Y1918823D01*
X13319150D01*
Y1917189D01*
X13320784D01*
Y1915555D01*
X13322418D01*
Y1913921D01*
X13324052D01*
Y1912288D01*
X13325687D01*
Y1910654D01*
X13328954D01*
Y1909020D01*
X13330588D01*
Y1907386D01*
X13332222D01*
Y1905752D01*
X13333856D01*
Y1904118D01*
X13335490D01*
Y1902484D01*
X13338757D01*
Y1900850D01*
X13340392D01*
Y1899216D01*
X13342026D01*
Y1897582D01*
X13343660D01*
Y1895948D01*
X13346928D01*
Y1894314D01*
X13348563D01*
Y1892680D01*
X13351830D01*
Y1891046D01*
X13353464D01*
Y1889412D01*
X13356732D01*
Y1887778D01*
X13358366D01*
Y1886144D01*
X13361633D01*
Y1884510D01*
X13364902D01*
Y1882876D01*
X13368170D01*
Y1881242D01*
X13371439D01*
Y1879608D01*
X13374706D01*
Y1877974D01*
X13379608D01*
Y1876340D01*
X13384509D01*
Y1874706D01*
X13389412D01*
Y1873072D01*
X13395947D01*
Y1871438D01*
X13404117D01*
Y1869804D01*
X13418823D01*
Y1868170D01*
X13425359D01*
Y1866536D01*
X13438431D01*
Y1864902D01*
X13453137D01*
Y1863268D01*
X13466209D01*
Y1861634D01*
X13471111D01*
Y1860000D01*
X13476013D01*
Y1858366D01*
X13477647D01*
Y1856732D01*
X13479282D01*
Y1855098D01*
X13482549D01*
Y1853464D01*
X13485817D01*
Y1851830D01*
X13487451D01*
Y1850196D01*
X13490720D01*
Y1848562D01*
X13493987D01*
Y1846928D01*
X13497255D01*
Y1845294D01*
X13500523D01*
Y1843660D01*
X13503790D01*
Y1842026D01*
X13508693D01*
Y1840392D01*
X13510327D01*
Y1838758D01*
X13502158D01*
Y1835490D01*
X13503790D01*
Y1832222D01*
X13502158D01*
Y1830588D01*
X13505424D01*
Y1828954D01*
X13495621D01*
Y1825686D01*
X13487451D01*
Y1824052D01*
X13474379D01*
Y1825686D01*
X13464575D01*
Y1827320D01*
X13456406D01*
Y1828954D01*
X13451503D01*
Y1830588D01*
X13448235D01*
Y1832222D01*
X13444968D01*
Y1833856D01*
X13443333D01*
Y1835490D01*
X13440065D01*
Y1837124D01*
X13428627D01*
Y1835490D01*
X13430261D01*
Y1833856D01*
X13433530D01*
Y1832222D01*
X13436797D01*
Y1830588D01*
X13441699D01*
Y1828954D01*
X13446600D01*
Y1827320D01*
X13451503D01*
Y1825686D01*
X13458038D01*
Y1824052D01*
X13466209D01*
Y1822418D01*
X13477647D01*
Y1820784D01*
X13498889D01*
Y1822418D01*
X13507059D01*
Y1824052D01*
X13510327D01*
Y1822418D01*
X13513596D01*
Y1820784D01*
X13515228D01*
Y1817516D01*
X13510327D01*
Y1815882D01*
X13503790D01*
Y1814248D01*
X13490720D01*
Y1812614D01*
X13474379D01*
Y1814248D01*
X13461307D01*
Y1815882D01*
X13451503D01*
Y1817516D01*
X13444968D01*
Y1819150D01*
X13436797D01*
Y1820784D01*
X13435162D01*
Y1822418D01*
X13433530D01*
Y1824052D01*
X13431895D01*
Y1825686D01*
X13430261D01*
Y1827320D01*
X13428627D01*
Y1828954D01*
X13426993D01*
Y1830588D01*
X13425359D01*
Y1832222D01*
X13422092D01*
Y1835490D01*
X13420457D01*
Y1837124D01*
X13407385D01*
Y1835490D01*
X13402483D01*
Y1833856D01*
X13399216D01*
Y1832222D01*
X13397581D01*
Y1830588D01*
X13395947D01*
Y1828954D01*
X13394315D01*
Y1827320D01*
X13392680D01*
Y1824052D01*
X13391046D01*
Y1819150D01*
X13392680D01*
Y1817516D01*
X13394315D01*
Y1815882D01*
X13400848D01*
Y1814248D01*
X13405751D01*
Y1812614D01*
X13409019D01*
Y1810980D01*
X13417189D01*
Y1809346D01*
X13431895D01*
Y1807712D01*
X13451503D01*
Y1806078D01*
X13462941D01*
Y1804444D01*
X13474379D01*
Y1802810D01*
X13482549D01*
Y1801176D01*
X13492352D01*
Y1799543D01*
X13502158D01*
Y1797909D01*
X13525034D01*
Y1799543D01*
X13531569D01*
Y1801176D01*
X13534837D01*
Y1802810D01*
X13538104D01*
Y1804444D01*
X13539738D01*
Y1802810D01*
X13541373D01*
Y1801176D01*
X13543005D01*
Y1794641D01*
X13541373D01*
Y1793007D01*
X13538104D01*
Y1791373D01*
X13534837D01*
Y1789739D01*
X13528300D01*
Y1788105D01*
X13515228D01*
Y1786471D01*
X13464575D01*
Y1788105D01*
X13446600D01*
Y1789739D01*
X13433530D01*
Y1791373D01*
X13425359D01*
Y1793007D01*
X13412286D01*
Y1789739D01*
X13413921D01*
Y1788105D01*
X13412286D01*
Y1789739D01*
X13410654D01*
Y1791373D01*
X13400848D01*
Y1793007D01*
X13395947D01*
Y1794641D01*
X13391046D01*
Y1796275D01*
X13387778D01*
Y1797909D01*
X13381242D01*
Y1799543D01*
X13379608D01*
Y1801176D01*
X13377974D01*
Y1802810D01*
X13376340D01*
Y1804444D01*
X13374706D01*
Y1806078D01*
X13373071D01*
Y1807712D01*
X13371439D01*
Y1810980D01*
X13369804D01*
Y1812614D01*
X13368170D01*
Y1815882D01*
X13366536D01*
Y1819150D01*
X13364902D01*
Y1822418D01*
X13363268D01*
Y1825686D01*
X13361633D01*
Y1828954D01*
X13360001D01*
Y1832222D01*
X13358366D01*
Y1833856D01*
X13356732D01*
Y1828954D01*
X13353464D01*
Y1830588D01*
X13350195D01*
Y1832222D01*
X13348563D01*
Y1833856D01*
X13343660D01*
Y1835490D01*
X13337125D01*
Y1833856D01*
X13335490D01*
Y1832222D01*
X13338757D01*
Y1830588D01*
X13340392D01*
Y1825686D01*
X13342026D01*
Y1822418D01*
X13333856D01*
Y1824052D01*
X13332222D01*
Y1827320D01*
X13330588D01*
Y1828954D01*
X13332222D01*
Y1830588D01*
X13333856D01*
Y1832222D01*
X13327319D01*
Y1833856D01*
X13325687D01*
Y1837124D01*
X13324052D01*
Y1840392D01*
X13322418D01*
Y1842026D01*
X13320784D01*
Y1840392D01*
X13319150D01*
Y1846928D01*
X13317516D01*
Y1848562D01*
X13315881D01*
Y1855098D01*
X13317516D01*
Y1856732D01*
X13314249D01*
Y1853464D01*
X13312614D01*
Y1851830D01*
X13314249D01*
Y1850196D01*
Y1848562D01*
X13312614D01*
Y1851830D01*
X13307712D01*
Y1860000D01*
X13306078D01*
Y1864902D01*
X13307712D01*
Y1866536D01*
X13315881D01*
Y1868170D01*
X13328954D01*
Y1871438D01*
X13333856D01*
Y1869804D01*
X13335490D01*
Y1873072D01*
X13330588D01*
Y1874706D01*
X13328954D01*
Y1876340D01*
X13330588D01*
Y1881242D01*
X13335490D01*
Y1884510D01*
X13333856D01*
Y1889412D01*
X13332222D01*
Y1894314D01*
X13330588D01*
Y1899216D01*
X13328954D01*
Y1904118D01*
X13327319D01*
Y1907386D01*
X13324052D01*
Y1905752D01*
Y1904118D01*
X13327319D01*
Y1897582D01*
X13322418D01*
Y1905752D01*
X13319150D01*
Y1907386D01*
X13312614D01*
Y1909020D01*
X13309346D01*
Y1910654D01*
X13304443D01*
Y1913921D01*
X13302811D01*
Y1917189D01*
X13304443D01*
Y1920457D01*
X13306078D01*
Y1923725D01*
X13310980D01*
Y1925359D01*
X13312614D01*
Y1923725D01*
D02*
G37*
G36*
X13310980Y1877974D02*
X13312614D01*
Y1876340D01*
X13314249D01*
Y1874706D01*
X13315881D01*
Y1873072D01*
X13314249D01*
Y1869804D01*
X13306078D01*
Y1871438D01*
X13304443D01*
Y1877974D01*
X13307712D01*
Y1879608D01*
X13310980D01*
Y1877974D01*
D02*
G37*
G36*
X13286472Y1871438D02*
X13284837D01*
Y1869804D01*
X13281569D01*
Y1871438D01*
X13279935D01*
Y1874706D01*
X13283203D01*
Y1876340D01*
X13286472D01*
Y1871438D01*
D02*
G37*
G36*
X13484183Y1873072D02*
X13485817D01*
Y1871438D01*
X13487451D01*
Y1869804D01*
X13490720D01*
Y1868170D01*
X13487451D01*
Y1869804D01*
X13484183D01*
Y1871438D01*
X13482549D01*
Y1873072D01*
X13480914D01*
Y1874706D01*
X13484183D01*
Y1873072D01*
D02*
G37*
G36*
X13454771Y1877974D02*
X13456406D01*
Y1876340D01*
X13458038D01*
Y1874706D01*
Y1871438D01*
X13456406D01*
Y1869804D01*
X13454771D01*
Y1868170D01*
X13453137D01*
Y1866536D01*
X13448235D01*
Y1868170D01*
X13446600D01*
Y1871438D01*
X13444968D01*
Y1876340D01*
X13446600D01*
Y1877974D01*
X13449869D01*
Y1879608D01*
X13454771D01*
Y1877974D01*
D02*
G37*
G36*
X13270129Y1873072D02*
X13271765D01*
Y1871438D01*
X13276666D01*
Y1869804D01*
X13278300D01*
Y1868170D01*
X13279935D01*
Y1863268D01*
X13276666D01*
Y1864902D01*
X13275034D01*
Y1866536D01*
X13273399D01*
Y1868170D01*
X13271765D01*
Y1869804D01*
X13265228D01*
Y1873072D01*
X13266862D01*
Y1874706D01*
X13270129D01*
Y1873072D01*
D02*
G37*
G36*
X13250523Y1851830D02*
X13248889D01*
Y1855098D01*
X13250523D01*
Y1851830D01*
D02*
G37*
G36*
X13913921D02*
X13912286D01*
Y1850196D01*
X13907385D01*
Y1851830D01*
X13909019D01*
Y1853464D01*
X13910654D01*
Y1855098D01*
X13913921D01*
Y1851830D01*
D02*
G37*
G36*
X13699869Y1860000D02*
X13701503D01*
Y1858366D01*
X13703137D01*
Y1851830D01*
X13701503D01*
Y1850196D01*
X13699869D01*
Y1851830D01*
X13696600D01*
Y1855098D01*
X13694968D01*
Y1860000D01*
X13696600D01*
Y1861634D01*
X13699869D01*
Y1860000D01*
D02*
G37*
G36*
X13634509Y1850196D02*
X13631242D01*
Y1851830D01*
X13634509D01*
Y1850196D01*
D02*
G37*
G36*
X13629608Y1848562D02*
X13627974D01*
Y1850196D01*
X13629608D01*
Y1848562D01*
D02*
G37*
G36*
X13627974Y1846928D02*
X13623071D01*
Y1848562D01*
X13627974D01*
Y1846928D01*
D02*
G37*
G36*
X13889412Y1840392D02*
X13887778D01*
Y1842026D01*
X13889412D01*
Y1840392D01*
D02*
G37*
G36*
X13243987Y1848562D02*
X13247255D01*
Y1846928D01*
X13248889D01*
Y1845294D01*
Y1840392D01*
X13242352D01*
Y1850196D01*
X13243987D01*
Y1848562D01*
D02*
G37*
G36*
X13877974Y1838758D02*
X13879608D01*
Y1835490D01*
X13874706D01*
Y1837124D01*
X13873071D01*
Y1838758D01*
X13874706D01*
Y1840392D01*
X13877974D01*
Y1838758D01*
D02*
G37*
G36*
X13670457Y1835490D02*
X13668823D01*
Y1837124D01*
X13670457D01*
Y1835490D01*
D02*
G37*
G36*
X13275034Y1832222D02*
X13276666D01*
Y1828954D01*
X13271765D01*
Y1832222D01*
X13273399D01*
Y1833856D01*
X13275034D01*
Y1832222D01*
D02*
G37*
G36*
X13257059Y1828954D02*
X13255424D01*
Y1830588D01*
X13257059D01*
Y1828954D01*
D02*
G37*
G36*
X13240720Y1835490D02*
X13242352D01*
Y1833856D01*
X13243987D01*
Y1832222D01*
Y1830588D01*
Y1828954D01*
X13242352D01*
Y1827320D01*
X13239085D01*
Y1828954D01*
X13235817D01*
Y1835490D01*
X13239085D01*
Y1837124D01*
X13240720D01*
Y1835490D01*
D02*
G37*
G36*
X13886143Y1828954D02*
X13887778D01*
Y1825686D01*
X13889412D01*
Y1824052D01*
X13887778D01*
Y1822418D01*
X13882877D01*
Y1824052D01*
X13881242D01*
Y1825686D01*
X13879608D01*
Y1828954D01*
X13881242D01*
Y1830588D01*
X13886143D01*
Y1828954D01*
D02*
G37*
G36*
X13355098Y1817516D02*
X13350195D01*
Y1820784D01*
X13355098D01*
Y1817516D01*
D02*
G37*
G36*
X13840392Y1814248D02*
X13838757D01*
Y1812614D01*
X13837125D01*
Y1814248D01*
X13835490D01*
Y1815882D01*
X13840392D01*
Y1814248D01*
D02*
G37*
G36*
X13314249Y1815882D02*
X13317516D01*
Y1814248D01*
X13319150D01*
Y1810980D01*
X13317516D01*
Y1809346D01*
X13312614D01*
Y1810980D01*
X13310980D01*
Y1812614D01*
X13309346D01*
Y1814248D01*
X13310980D01*
Y1815882D01*
X13312614D01*
Y1817516D01*
X13314249D01*
Y1815882D01*
D02*
G37*
G36*
X13711307Y1802810D02*
X13708038D01*
Y1804444D01*
Y1806078D01*
X13711307D01*
Y1802810D01*
D02*
G37*
G36*
X13312614D02*
X13310980D01*
Y1804444D01*
X13312614D01*
Y1802810D01*
D02*
G37*
G36*
X13271765Y1809346D02*
X13273399D01*
Y1807712D01*
X13278300D01*
Y1806078D01*
X13279935D01*
Y1804444D01*
X13281569D01*
Y1802810D01*
X13279935D01*
Y1801176D01*
X13276666D01*
Y1802810D01*
X13271765D01*
Y1804444D01*
Y1806078D01*
Y1807712D01*
X13270129D01*
Y1809346D01*
X13268497D01*
Y1807712D01*
X13266862D01*
Y1812614D01*
X13271765D01*
Y1809346D01*
D02*
G37*
G36*
X13703137Y1797909D02*
X13701503D01*
Y1799543D01*
X13698235D01*
Y1801176D01*
X13703137D01*
Y1797909D01*
D02*
G37*
G36*
X13294640Y1796275D02*
X13293005D01*
Y1797909D01*
X13294640D01*
Y1796275D01*
D02*
G37*
G36*
X13845294Y1794641D02*
X13843660D01*
Y1793007D01*
X13838757D01*
Y1796275D01*
X13840392D01*
Y1797909D01*
X13845294D01*
Y1794641D01*
D02*
G37*
G36*
X13895947Y1788105D02*
X13894315D01*
Y1791373D01*
X13895947D01*
Y1788105D01*
D02*
G37*
G36*
X13263596Y1794641D02*
X13261961D01*
Y1793007D01*
X13263596D01*
Y1791373D01*
X13266862D01*
Y1793007D01*
X13271765D01*
Y1791373D01*
X13275034D01*
Y1793007D01*
X13276666D01*
Y1794641D01*
X13284837D01*
Y1796275D01*
X13289738D01*
Y1794641D01*
X13286472D01*
Y1793007D01*
X13283203D01*
Y1791373D01*
X13279935D01*
Y1789739D01*
X13276666D01*
Y1788105D01*
X13271765D01*
Y1786471D01*
X13270129D01*
Y1784837D01*
X13265228D01*
Y1783203D01*
X13263596D01*
Y1781569D01*
X13258693D01*
Y1779935D01*
X13255424D01*
Y1778301D01*
X13252158D01*
Y1776667D01*
X13247255D01*
Y1775033D01*
X13242352D01*
Y1773399D01*
X13237451D01*
Y1771765D01*
X13234183D01*
Y1773399D01*
X13235817D01*
Y1775033D01*
X13237451D01*
Y1776667D01*
X13239085D01*
Y1778301D01*
X13237451D01*
Y1784837D01*
X13235817D01*
Y1786471D01*
X13237451D01*
Y1784837D01*
X13239085D01*
Y1786471D01*
X13240720D01*
Y1789739D01*
X13248889D01*
Y1788105D01*
X13252158D01*
Y1789739D01*
X13253790D01*
Y1791373D01*
X13250523D01*
Y1794641D01*
X13252158D01*
Y1796275D01*
X13253790D01*
Y1797909D01*
X13257059D01*
Y1799543D01*
X13263596D01*
Y1794641D01*
D02*
G37*
G36*
X13226013Y1784837D02*
X13227647D01*
Y1783203D01*
Y1781569D01*
Y1779935D01*
X13224379D01*
Y1781569D01*
X13222745D01*
Y1784837D01*
X13224379D01*
Y1786471D01*
X13226013D01*
Y1784837D01*
D02*
G37*
G36*
X13881242Y1778301D02*
X13877974D01*
Y1779935D01*
X13881242D01*
Y1778301D01*
D02*
G37*
G36*
X13860001Y1783203D02*
X13861633D01*
Y1778301D01*
X13856732D01*
Y1779935D01*
X13855098D01*
Y1784837D01*
X13860001D01*
Y1783203D01*
D02*
G37*
G36*
X12552810Y1846928D02*
X12554444D01*
Y1775033D01*
X12480915D01*
Y1846928D01*
X12482549D01*
Y1848562D01*
X12552810D01*
Y1846928D01*
D02*
G37*
G36*
X12998889Y1770131D02*
X12995621D01*
Y1771765D01*
X12998889D01*
Y1770131D01*
D02*
G37*
G36*
X12850195Y1771765D02*
Y1770131D01*
X12848563D01*
Y1773399D01*
X12850195D01*
Y1771765D01*
D02*
G37*
G36*
X13904117Y1768497D02*
X13902483D01*
Y1770131D01*
X13904117D01*
Y1768497D01*
D02*
G37*
G36*
X13229282D02*
X13226013D01*
Y1766863D01*
X13222745D01*
Y1768497D01*
X13224379D01*
Y1770131D01*
X13229282D01*
Y1768497D01*
D02*
G37*
G36*
X13206406Y1766863D02*
X13204771D01*
Y1768497D01*
X13206406D01*
Y1766863D01*
D02*
G37*
G36*
X13366536Y1757059D02*
X13368170D01*
Y1755425D01*
X13366536D01*
Y1757059D01*
X13361633D01*
Y1758693D01*
X13366536D01*
Y1757059D01*
D02*
G37*
G36*
X13343660Y1755425D02*
X13342026D01*
Y1757059D01*
X13343660D01*
Y1755425D01*
D02*
G37*
G36*
X13353464Y1757059D02*
X13355098D01*
Y1753791D01*
X13350195D01*
Y1755425D01*
X13348563D01*
Y1757059D01*
Y1758693D01*
X13353464D01*
Y1757059D01*
D02*
G37*
G36*
X13337125Y1755425D02*
X13335490D01*
Y1753791D01*
X13333856D01*
Y1752157D01*
X13330588D01*
Y1753791D01*
X13327319D01*
Y1755425D01*
Y1757059D01*
X13337125D01*
Y1755425D01*
D02*
G37*
G36*
X13302811Y1747255D02*
X13304443D01*
Y1745621D01*
X13306078D01*
Y1743987D01*
X13307712D01*
Y1742353D01*
X13310980D01*
Y1740719D01*
X13317516D01*
Y1742353D01*
X13322418D01*
Y1743987D01*
X13325687D01*
Y1742353D01*
X13327319D01*
Y1740719D01*
X13328954D01*
Y1739085D01*
X13333856D01*
Y1740719D01*
X13346928D01*
Y1739085D01*
X13350195D01*
Y1737451D01*
X13361633D01*
Y1735817D01*
X13366536D01*
Y1737451D01*
X13369804D01*
Y1735817D01*
X13373071D01*
Y1734183D01*
X13374706D01*
Y1732549D01*
X13376340D01*
Y1729281D01*
X13379608D01*
Y1727647D01*
X13381242D01*
Y1730915D01*
X13382877D01*
Y1732549D01*
X13384509D01*
Y1730915D01*
X13386143D01*
Y1729281D01*
X13387778D01*
Y1727647D01*
X13389412D01*
Y1726013D01*
X13391046D01*
Y1724379D01*
X13395947D01*
Y1722745D01*
X13399216D01*
Y1721111D01*
X13400848D01*
Y1719477D01*
X13404117D01*
Y1721111D01*
X13410654D01*
Y1719477D01*
X13412286D01*
Y1714575D01*
X13413921D01*
Y1717843D01*
X13418823D01*
Y1716209D01*
X13420457D01*
Y1714575D01*
X13422092D01*
Y1712941D01*
X13423724D01*
Y1711307D01*
X13426993D01*
Y1709673D01*
X13428627D01*
Y1708039D01*
X13433530D01*
Y1706405D01*
X13438431D01*
Y1703137D01*
X13440065D01*
Y1701503D01*
X13441699D01*
Y1699869D01*
X13446600D01*
Y1698235D01*
X13449869D01*
Y1694967D01*
X13448235D01*
Y1693333D01*
X13446600D01*
Y1691699D01*
X13448235D01*
Y1688431D01*
X13446600D01*
Y1690065D01*
X13444968D01*
Y1691699D01*
X13443333D01*
Y1693333D01*
X13441699D01*
Y1691699D01*
X13433530D01*
Y1693333D01*
X13431895D01*
Y1696601D01*
X13430261D01*
Y1699869D01*
X13423724D01*
Y1701503D01*
X13420457D01*
Y1704771D01*
X13417189D01*
Y1706405D01*
X13415555D01*
Y1708039D01*
X13409019D01*
Y1706405D01*
X13407385D01*
Y1708039D01*
X13405751D01*
Y1709673D01*
X13404117D01*
Y1711307D01*
X13402483D01*
Y1709673D01*
X13400848D01*
Y1711307D01*
X13399216D01*
Y1712941D01*
X13397581D01*
Y1714575D01*
X13389412D01*
Y1716209D01*
X13386143D01*
Y1717843D01*
X13384509D01*
Y1719477D01*
X13382877D01*
Y1717843D01*
X13379608D01*
Y1719477D01*
X13377974D01*
Y1721111D01*
X13376340D01*
Y1722745D01*
X13374706D01*
Y1724379D01*
X13371439D01*
Y1719477D01*
X13369804D01*
Y1722745D01*
X13368170D01*
Y1724379D01*
X13366536D01*
Y1726013D01*
X13364902D01*
Y1727647D01*
X13363268D01*
Y1724379D01*
X13361633D01*
Y1726013D01*
X13358366D01*
Y1727647D01*
X13351830D01*
Y1726013D01*
X13350195D01*
Y1727647D01*
X13346928D01*
Y1729281D01*
X13338757D01*
Y1730915D01*
X13337125D01*
Y1732549D01*
X13332222D01*
Y1730915D01*
X13328954D01*
Y1732549D01*
X13327319D01*
Y1734183D01*
X13322418D01*
Y1732549D01*
X13320784D01*
Y1730915D01*
X13315881D01*
Y1732549D01*
X13314249D01*
Y1734183D01*
X13312614D01*
Y1735817D01*
X13310980D01*
Y1737451D01*
X13309346D01*
Y1730915D01*
X13307712D01*
Y1732549D01*
X13306078D01*
Y1734183D01*
X13304443D01*
Y1735817D01*
X13302811D01*
Y1737451D01*
X13301176D01*
Y1739085D01*
X13297908D01*
Y1735817D01*
X13294640D01*
Y1737451D01*
X13291373D01*
Y1739085D01*
X13289738D01*
Y1742353D01*
X13286472D01*
Y1740719D01*
X13283203D01*
Y1742353D01*
X13281569D01*
Y1745621D01*
X13284837D01*
Y1747255D01*
X13288104D01*
Y1745621D01*
X13289738D01*
Y1747255D01*
X13291373D01*
Y1748889D01*
X13297908D01*
Y1747255D01*
X13299542D01*
Y1748889D01*
X13302811D01*
Y1747255D01*
D02*
G37*
G36*
X13258693Y1739085D02*
X13260327D01*
Y1737451D01*
X13261961D01*
Y1735817D01*
X13257059D01*
Y1737451D01*
X13255424D01*
Y1739085D01*
X13257059D01*
Y1740719D01*
X13258693D01*
Y1739085D01*
D02*
G37*
G36*
X13279935Y1740719D02*
X13281569D01*
Y1739085D01*
X13283203D01*
Y1737451D01*
X13284837D01*
Y1734183D01*
X13281569D01*
Y1735817D01*
X13275034D01*
Y1734183D01*
X13273399D01*
Y1735817D01*
X13270129D01*
Y1737451D01*
X13268497D01*
Y1739085D01*
X13265228D01*
Y1742353D01*
X13270129D01*
Y1743987D01*
X13279935D01*
Y1740719D01*
D02*
G37*
G36*
X13252158Y1732549D02*
X13248889D01*
Y1730915D01*
X13243987D01*
Y1732549D01*
X13239085D01*
Y1734183D01*
Y1735817D01*
X13245621D01*
Y1734183D01*
X13248889D01*
Y1735817D01*
X13252158D01*
Y1732549D01*
D02*
G37*
G36*
X12850195Y1734183D02*
X12848563D01*
Y1735817D01*
Y1737451D01*
X12850195D01*
Y1734183D01*
D02*
G37*
G36*
X13266862D02*
X13268497D01*
Y1730915D01*
X13266862D01*
Y1732549D01*
X13265228D01*
Y1734183D01*
X13263596D01*
Y1735817D01*
X13266862D01*
Y1734183D01*
D02*
G37*
G36*
X13181895Y1709673D02*
X13178627D01*
Y1711307D01*
Y1712941D01*
X13181895D01*
Y1709673D01*
D02*
G37*
G36*
X12188431Y2067516D02*
X12335490D01*
Y1993987D01*
X12554444D01*
Y1920457D01*
X12407385D01*
Y1851830D01*
X12409019D01*
Y1850196D01*
X12407385D01*
Y1848562D01*
X12335490D01*
Y1701503D01*
X12261960D01*
Y1775033D01*
X12188431D01*
Y1701503D01*
X12114902D01*
Y1846928D01*
X12116536D01*
Y1848562D01*
X12261960D01*
Y1993987D01*
X12188431D01*
Y2067516D01*
X12114902D01*
Y2113268D01*
Y2114902D01*
Y2141046D01*
X12188431D01*
Y2067516D01*
D02*
G37*
G36*
X13167189Y1703137D02*
X13165555D01*
Y1701503D01*
X13163921D01*
Y1699869D01*
X13159019D01*
Y1698235D01*
X13155751D01*
Y1696601D01*
X13154117D01*
Y1694967D01*
X13152483D01*
Y1693333D01*
X13150848D01*
Y1691699D01*
X13145947D01*
Y1690065D01*
X13141046D01*
Y1688431D01*
X13136143D01*
Y1686797D01*
X13123071D01*
Y1685164D01*
X13121439D01*
Y1683530D01*
X13119804D01*
Y1681896D01*
X13110001D01*
Y1683530D01*
X13101830D01*
Y1681896D01*
X13088757D01*
Y1683530D01*
X13087125D01*
Y1681896D01*
X13082222D01*
Y1680262D01*
X13075687D01*
Y1681896D01*
X13074052D01*
Y1685164D01*
X13077319D01*
Y1686797D01*
X13087125D01*
Y1690065D01*
X13088757D01*
Y1691699D01*
X13096928D01*
Y1693333D01*
X13098563D01*
Y1694967D01*
X13103464D01*
Y1696601D01*
X13108366D01*
Y1694967D01*
X13111633D01*
Y1696601D01*
X13114902D01*
Y1698235D01*
X13123071D01*
Y1696601D01*
X13131242D01*
Y1698235D01*
X13137778D01*
Y1699869D01*
X13142680D01*
Y1701503D01*
X13147581D01*
Y1703137D01*
X13154117D01*
Y1704771D01*
X13157385D01*
Y1706405D01*
X13167189D01*
Y1703137D01*
D02*
G37*
G36*
X13260327Y1683530D02*
X13273399D01*
Y1681896D01*
X13275034D01*
Y1680262D01*
X13276666D01*
Y1678628D01*
X13281569D01*
Y1676994D01*
X13284837D01*
Y1680262D01*
X13286472D01*
Y1681896D01*
X13289738D01*
Y1680262D01*
X13291373D01*
Y1678628D01*
X13297908D01*
Y1676994D01*
X13306078D01*
Y1675359D01*
X13309346D01*
Y1673725D01*
X13310980D01*
Y1670457D01*
X13314249D01*
Y1668823D01*
X13317516D01*
Y1667189D01*
X13319150D01*
Y1663921D01*
X13320784D01*
Y1662288D01*
X13324052D01*
Y1663921D01*
X13325687D01*
Y1662288D01*
X13333856D01*
Y1663921D01*
X13337125D01*
Y1662288D01*
X13338757D01*
Y1657386D01*
X13340392D01*
Y1649216D01*
X13345294D01*
Y1654118D01*
X13346928D01*
Y1655752D01*
X13350195D01*
Y1657386D01*
X13353464D01*
Y1655752D01*
X13356732D01*
Y1654118D01*
X13358366D01*
Y1650850D01*
X13356732D01*
Y1649216D01*
X13355098D01*
Y1645948D01*
X13351830D01*
Y1642680D01*
X13353464D01*
Y1644314D01*
X13358366D01*
Y1645948D01*
X13360001D01*
Y1649216D01*
X13363268D01*
Y1650850D01*
X13364902D01*
Y1645948D01*
X13361633D01*
Y1641046D01*
X13366536D01*
Y1644314D01*
X13371439D01*
Y1642680D01*
X13374706D01*
Y1641046D01*
X13369804D01*
Y1636144D01*
X13371439D01*
Y1632876D01*
X13368170D01*
Y1631242D01*
X13364902D01*
Y1626340D01*
X13361633D01*
Y1623072D01*
X13368170D01*
Y1621438D01*
X13366536D01*
Y1619804D01*
X13364902D01*
Y1616536D01*
X13363268D01*
Y1614902D01*
X13364902D01*
Y1613268D01*
X13366536D01*
Y1616536D01*
X13368170D01*
Y1618170D01*
X13369804D01*
Y1623072D01*
X13368170D01*
Y1626340D01*
X13371439D01*
Y1627974D01*
X13373071D01*
Y1631242D01*
X13376340D01*
Y1632876D01*
X13377974D01*
Y1631242D01*
X13379608D01*
Y1624706D01*
X13374706D01*
Y1623072D01*
X13373071D01*
Y1619804D01*
X13379608D01*
Y1621438D01*
X13381242D01*
Y1623072D01*
X13382877D01*
Y1624706D01*
X13386143D01*
Y1623072D01*
X13387778D01*
Y1627974D01*
X13386143D01*
Y1629608D01*
X13384509D01*
Y1631242D01*
X13382877D01*
Y1634510D01*
X13387778D01*
Y1631242D01*
X13389412D01*
Y1629608D01*
X13391046D01*
Y1627974D01*
X13392680D01*
Y1626340D01*
X13391046D01*
Y1623072D01*
X13389412D01*
Y1619804D01*
X13392680D01*
Y1621438D01*
X13394315D01*
Y1623072D01*
X13397581D01*
Y1624706D01*
X13399216D01*
Y1621438D01*
X13397581D01*
Y1616536D01*
X13399216D01*
Y1614902D01*
X13400848D01*
Y1610000D01*
X13397581D01*
Y1608366D01*
X13399216D01*
Y1606732D01*
X13400848D01*
Y1605098D01*
X13402483D01*
Y1603464D01*
X13400848D01*
Y1601830D01*
X13395947D01*
Y1600196D01*
X13394315D01*
Y1598562D01*
X13392680D01*
Y1596928D01*
X13391046D01*
Y1593660D01*
X13392680D01*
Y1592026D01*
X13394315D01*
Y1593660D01*
X13395947D01*
Y1595294D01*
X13397581D01*
Y1596928D01*
X13402483D01*
Y1600196D01*
X13404117D01*
Y1598562D01*
X13407385D01*
Y1595294D01*
X13409019D01*
Y1593660D01*
X13410654D01*
Y1588758D01*
X13407385D01*
Y1587124D01*
X13405751D01*
Y1583856D01*
X13407385D01*
Y1585490D01*
X13409019D01*
Y1587124D01*
X13412286D01*
Y1585490D01*
X13413921D01*
Y1587124D01*
X13415555D01*
Y1590392D01*
X13413921D01*
Y1593660D01*
X13418823D01*
Y1596928D01*
X13423724D01*
Y1593660D01*
X13422092D01*
Y1592026D01*
X13418823D01*
Y1590392D01*
X13417189D01*
Y1580588D01*
X13415555D01*
Y1578954D01*
X13413921D01*
Y1580588D01*
X13405751D01*
Y1578954D01*
X13400848D01*
Y1582222D01*
X13399216D01*
Y1580588D01*
X13395947D01*
Y1578954D01*
X13391046D01*
Y1580588D01*
X13386143D01*
Y1578954D01*
X13368170D01*
Y1577320D01*
X13431895D01*
Y1554444D01*
X13577319D01*
Y1556078D01*
X13578954D01*
Y1575686D01*
X13580588D01*
Y1577320D01*
X13582222D01*
Y1575686D01*
X13644315D01*
Y1577320D01*
X13850195D01*
Y1578954D01*
X13848563D01*
Y1580588D01*
X13846928D01*
Y1590392D01*
X13845294D01*
Y1596928D01*
X13843660D01*
Y1601830D01*
X13842026D01*
Y1606732D01*
X13840392D01*
Y1613268D01*
X13838757D01*
Y1619804D01*
X13837125D01*
Y1623072D01*
X13835490D01*
Y1627974D01*
X13833856D01*
Y1631242D01*
X13832222D01*
Y1634510D01*
X13830588D01*
Y1637778D01*
X13828954D01*
Y1639412D01*
X13827319D01*
Y1642680D01*
X13825687D01*
Y1644314D01*
X13824052D01*
Y1647582D01*
X13822418D01*
Y1649216D01*
X13820784D01*
Y1650850D01*
X13819150D01*
Y1652484D01*
X13817516D01*
Y1654118D01*
X13815881D01*
Y1655752D01*
X13814249D01*
Y1657386D01*
X13812614D01*
Y1659020D01*
X13810980D01*
Y1660654D01*
X13809346D01*
Y1662288D01*
X13806078D01*
Y1663921D01*
X13809346D01*
Y1662288D01*
X13812614D01*
Y1660654D01*
X13814249D01*
Y1659020D01*
X13817516D01*
Y1657386D01*
X13819150D01*
Y1655752D01*
X13820784D01*
Y1654118D01*
X13822418D01*
Y1652484D01*
X13824052D01*
Y1650850D01*
X13825687D01*
Y1649216D01*
X13827319D01*
Y1647582D01*
X13828954D01*
Y1645948D01*
X13830588D01*
Y1642680D01*
X13832222D01*
Y1641046D01*
X13833856D01*
Y1637778D01*
X13835490D01*
Y1636144D01*
X13837125D01*
Y1632876D01*
X13838757D01*
Y1629608D01*
X13840392D01*
Y1627974D01*
X13842026D01*
Y1624706D01*
X13843660D01*
Y1621438D01*
X13845294D01*
Y1618170D01*
X13846928D01*
Y1614902D01*
X13848563D01*
Y1613268D01*
X13850195D01*
Y1618170D01*
X13851830D01*
Y1621438D01*
X13853464D01*
Y1624706D01*
X13855098D01*
Y1627974D01*
X13853464D01*
Y1632876D01*
X13855098D01*
Y1631242D01*
X13858366D01*
Y1632876D01*
X13861633D01*
Y1634510D01*
X13868170D01*
Y1632876D01*
X13871439D01*
Y1631242D01*
X13874706D01*
Y1626340D01*
X13876340D01*
Y1621438D01*
X13874706D01*
Y1619804D01*
X13873071D01*
Y1618170D01*
X13871439D01*
Y1613268D01*
X13869804D01*
Y1611634D01*
X13868170D01*
Y1603464D01*
X13866536D01*
Y1600196D01*
X13868170D01*
Y1595294D01*
X13866536D01*
Y1596928D01*
X13858366D01*
Y1598562D01*
X13856732D01*
Y1600196D01*
X13853464D01*
Y1593660D01*
X13855098D01*
Y1587124D01*
X13856732D01*
Y1582222D01*
X13858366D01*
Y1577320D01*
X13871439D01*
Y1554444D01*
X13944968D01*
Y1482549D01*
X14018497D01*
Y1409020D01*
X14090392D01*
Y1335490D01*
X14018497D01*
Y1409020D01*
X13871439D01*
Y1554444D01*
X13655751D01*
Y1556078D01*
X13654117D01*
Y1554444D01*
X13652483D01*
Y1482549D01*
X13724379D01*
Y1480915D01*
X13726013D01*
Y1477647D01*
X13724379D01*
Y1476013D01*
X13726013D01*
Y1412287D01*
X13724379D01*
Y1410654D01*
X13726013D01*
Y1409020D01*
X13871439D01*
Y1306078D01*
Y1304444D01*
Y1261961D01*
X13797908D01*
Y1190065D01*
X13726013D01*
Y1257059D01*
X13724379D01*
Y1258693D01*
X13726013D01*
Y1261961D01*
X13578954D01*
Y1190065D01*
X13505424D01*
Y1409020D01*
X13431895D01*
Y1554444D01*
X13364902D01*
Y1556078D01*
X13363268D01*
Y1554444D01*
X13360001D01*
Y1577320D01*
X13299542D01*
Y1578954D01*
X13296274D01*
Y1580588D01*
X13286472D01*
Y1585490D01*
X13284837D01*
Y1583856D01*
X13281569D01*
Y1582222D01*
X13278300D01*
Y1583856D01*
X13273399D01*
Y1582222D01*
X13271765D01*
Y1583856D01*
X13270129D01*
Y1585490D01*
X13266862D01*
Y1588758D01*
X13253790D01*
Y1587124D01*
X13250523D01*
Y1588758D01*
X13242352D01*
Y1590392D01*
X13230914D01*
Y1592026D01*
X13226013D01*
Y1593660D01*
X13221111D01*
Y1596928D01*
X13217844D01*
Y1595294D01*
X13208038D01*
Y1593660D01*
X13203137D01*
Y1595294D01*
X13201503D01*
Y1593660D01*
X13196600D01*
Y1592026D01*
X13194968D01*
Y1596928D01*
X13193333D01*
Y1595294D01*
X13190065D01*
Y1593660D01*
X13188431D01*
Y1596928D01*
X13183530D01*
Y1595294D01*
X13181895D01*
Y1593660D01*
X13180261D01*
Y1592026D01*
X13178627D01*
Y1593660D01*
X13176993D01*
Y1595294D01*
X13175359D01*
Y1596928D01*
X13167189D01*
Y1595294D01*
X13162286D01*
Y1593660D01*
X13160654D01*
Y1592026D01*
X13159019D01*
Y1593660D01*
X13149216D01*
Y1595294D01*
X13147581D01*
Y1593660D01*
X13144315D01*
Y1592026D01*
X13141046D01*
Y1590392D01*
X13137778D01*
Y1592026D01*
X13131242D01*
Y1590392D01*
X13127974D01*
Y1592026D01*
X13124706D01*
Y1590392D01*
X13121439D01*
Y1588758D01*
X13116536D01*
Y1590392D01*
X13114902D01*
Y1588758D01*
X13111633D01*
Y1587124D01*
X13108366D01*
Y1585490D01*
X13103464D01*
Y1587124D01*
X13096928D01*
Y1585490D01*
X13093660D01*
Y1583856D01*
X13088757D01*
Y1587124D01*
X13087125D01*
Y1590392D01*
X13088757D01*
Y1592026D01*
X13092026D01*
Y1593660D01*
X13093660D01*
Y1595294D01*
X13095294D01*
Y1598562D01*
X13096928D01*
Y1600196D01*
X13098563D01*
Y1603464D01*
X13100195D01*
Y1608366D01*
X13098563D01*
Y1611634D01*
X13100195D01*
Y1613268D01*
X13101830D01*
Y1614902D01*
X13103464D01*
Y1616536D01*
X13105098D01*
Y1618170D01*
X13106732D01*
Y1619804D01*
X13103464D01*
Y1623072D01*
X13105098D01*
Y1626340D01*
X13106732D01*
Y1631242D01*
X13110001D01*
Y1632876D01*
X13111633D01*
Y1634510D01*
X13108366D01*
Y1637778D01*
X13110001D01*
Y1639412D01*
X13111633D01*
Y1641046D01*
X13113268D01*
Y1642680D01*
X13114902D01*
Y1644314D01*
X13116536D01*
Y1647582D01*
X13118170D01*
Y1650850D01*
X13121439D01*
Y1652484D01*
X13124706D01*
Y1654118D01*
X13121439D01*
Y1655752D01*
X13123071D01*
Y1657386D01*
X13134509D01*
Y1659020D01*
X13136143D01*
Y1660654D01*
X13134509D01*
Y1662288D01*
X13131242D01*
Y1663921D01*
X13137778D01*
Y1665555D01*
X13144315D01*
Y1667189D01*
X13155751D01*
Y1668823D01*
X13163921D01*
Y1670457D01*
X13168823D01*
Y1672091D01*
X13173724D01*
Y1676994D01*
X13175359D01*
Y1678628D01*
X13176993D01*
Y1676994D01*
X13181895D01*
Y1675359D01*
X13185162D01*
Y1676994D01*
X13191699D01*
Y1678628D01*
X13193333D01*
Y1680262D01*
X13194968D01*
Y1683530D01*
X13211307D01*
Y1685164D01*
X13239085D01*
Y1683530D01*
X13243987D01*
Y1685164D01*
X13250523D01*
Y1683530D01*
X13253790D01*
Y1685164D01*
X13260327D01*
Y1683530D01*
D02*
G37*
G36*
X13562614Y1681896D02*
X13560980D01*
Y1683530D01*
X13559346D01*
Y1685164D01*
X13562614D01*
Y1681896D01*
D02*
G37*
G36*
X13453137Y1693333D02*
X13458038D01*
Y1691699D01*
X13462941D01*
Y1686797D01*
X13464575D01*
Y1681896D01*
X13462941D01*
Y1680262D01*
X13461307D01*
Y1681896D01*
X13458038D01*
Y1683530D01*
X13456406D01*
Y1685164D01*
X13454771D01*
Y1690065D01*
X13453137D01*
Y1691699D01*
X13451503D01*
Y1694967D01*
X13453137D01*
Y1693333D01*
D02*
G37*
G36*
X13709673Y1673725D02*
X13706406D01*
Y1678628D01*
X13709673D01*
Y1673725D01*
D02*
G37*
G36*
X13703137D02*
X13701503D01*
Y1675359D01*
X13703137D01*
Y1673725D01*
D02*
G37*
G36*
X13694968Y1672091D02*
X13693333D01*
Y1673725D01*
X13694968D01*
Y1672091D01*
D02*
G37*
G36*
X13492352Y1667189D02*
X13490720D01*
Y1668823D01*
X13492352D01*
Y1667189D01*
D02*
G37*
G36*
X13704771Y1662288D02*
X13703137D01*
Y1660654D01*
X13698235D01*
Y1659020D01*
X13693333D01*
Y1660654D01*
X13696600D01*
Y1662288D01*
X13699869D01*
Y1663921D01*
X13701503D01*
Y1665555D01*
X13704771D01*
Y1662288D01*
D02*
G37*
G36*
X13681895Y1665555D02*
Y1663921D01*
Y1662288D01*
X13683530D01*
Y1660654D01*
X13681895D01*
Y1659020D01*
X13680261D01*
Y1662288D01*
X13678627D01*
Y1665555D01*
X13680261D01*
Y1667189D01*
X13681895D01*
Y1665555D01*
D02*
G37*
G36*
X12858366Y1660654D02*
X12856732D01*
Y1659020D01*
X12853464D01*
Y1662288D01*
X12858366D01*
Y1660654D01*
D02*
G37*
G36*
X13712941Y1655752D02*
X13711307D01*
Y1654118D01*
X13706406D01*
Y1655752D01*
X13708038D01*
Y1657386D01*
X13709673D01*
Y1659020D01*
X13712941D01*
Y1655752D01*
D02*
G37*
G36*
X13577319Y1685164D02*
X13578954D01*
Y1681896D01*
X13592026D01*
Y1680262D01*
X13593660D01*
Y1678628D01*
X13596928D01*
Y1676994D01*
X13603464D01*
Y1675359D01*
X13608366D01*
Y1673725D01*
X13613268D01*
Y1672091D01*
X13616536D01*
Y1673725D01*
X13619804D01*
Y1672091D01*
X13621439D01*
Y1673725D01*
X13627974D01*
Y1675359D01*
X13631242D01*
Y1673725D01*
X13632877D01*
Y1672091D01*
X13634509D01*
Y1654118D01*
X13632877D01*
Y1650850D01*
X13634509D01*
Y1636144D01*
X13632877D01*
Y1634510D01*
X13631242D01*
Y1632876D01*
X13632877D01*
Y1627974D01*
X13634509D01*
Y1624706D01*
X13632877D01*
Y1623072D01*
X13634509D01*
Y1621438D01*
X13632877D01*
Y1614902D01*
X13631242D01*
Y1613268D01*
X13632877D01*
Y1608366D01*
X13634509D01*
Y1606732D01*
X13632877D01*
Y1603464D01*
X13631242D01*
Y1601830D01*
X13629608D01*
Y1598562D01*
X13627974D01*
Y1600196D01*
X13624706D01*
Y1603464D01*
X13623071D01*
Y1605098D01*
X13621439D01*
Y1606732D01*
X13619804D01*
Y1611634D01*
X13618170D01*
Y1613268D01*
X13616536D01*
Y1614902D01*
X13614902D01*
Y1616536D01*
X13613268D01*
Y1618170D01*
X13611633D01*
Y1621438D01*
X13610001D01*
Y1623072D01*
X13606732D01*
Y1624706D01*
X13605098D01*
Y1626340D01*
X13603464D01*
Y1631242D01*
X13601830D01*
Y1632876D01*
X13600195D01*
Y1634510D01*
X13598563D01*
Y1636144D01*
X13596928D01*
Y1637778D01*
X13601830D01*
Y1639412D01*
X13600195D01*
Y1641046D01*
X13598563D01*
Y1642680D01*
X13595294D01*
Y1644314D01*
X13592026D01*
Y1645948D01*
X13590392D01*
Y1647582D01*
X13588757D01*
Y1645948D01*
X13587125D01*
Y1647582D01*
X13583856D01*
Y1650850D01*
X13580588D01*
Y1655752D01*
X13578954D01*
Y1657386D01*
X13575687D01*
Y1659020D01*
X13574052D01*
Y1660654D01*
X13572418D01*
Y1662288D01*
X13570784D01*
Y1663921D01*
X13575687D01*
Y1662288D01*
X13577319D01*
Y1660654D01*
X13580588D01*
Y1659020D01*
X13585490D01*
Y1657386D01*
X13587125D01*
Y1655752D01*
X13588757D01*
Y1654118D01*
X13592026D01*
Y1657386D01*
X13590392D01*
Y1659020D01*
X13588757D01*
Y1660654D01*
X13587125D01*
Y1662288D01*
X13585490D01*
Y1670457D01*
X13582222D01*
Y1672091D01*
X13580588D01*
Y1673725D01*
X13578954D01*
Y1678628D01*
X13577319D01*
Y1680262D01*
X13575687D01*
Y1681896D01*
X13574052D01*
Y1685164D01*
X13575687D01*
Y1686797D01*
X13577319D01*
Y1685164D01*
D02*
G37*
G36*
X13706406Y1652484D02*
X13701503D01*
Y1654118D01*
X13706406D01*
Y1652484D01*
D02*
G37*
G36*
X13691699Y1649216D02*
X13690065D01*
Y1650850D01*
X13688431D01*
Y1652484D01*
X13691699D01*
Y1649216D01*
D02*
G37*
G36*
X13474379Y1683530D02*
X13476013D01*
Y1681896D01*
Y1680262D01*
X13477647D01*
Y1675359D01*
X13479282D01*
Y1672091D01*
X13480914D01*
Y1668823D01*
X13479282D01*
Y1665555D01*
X13484183D01*
Y1663921D01*
X13485817D01*
Y1662288D01*
X13487451D01*
Y1660654D01*
X13489085D01*
Y1657386D01*
X13490720D01*
Y1655752D01*
X13492352D01*
Y1650850D01*
X13490720D01*
Y1649216D01*
X13489085D01*
Y1650850D01*
X13487451D01*
Y1657386D01*
X13485817D01*
Y1659020D01*
X13484183D01*
Y1660654D01*
X13482549D01*
Y1662288D01*
X13477647D01*
Y1668823D01*
X13476013D01*
Y1672091D01*
X13472745D01*
Y1670457D01*
X13471111D01*
Y1672091D01*
X13469476D01*
Y1676994D01*
X13467844D01*
Y1678628D01*
X13466209D01*
Y1681896D01*
X13471111D01*
Y1683530D01*
X13472745D01*
Y1685164D01*
X13474379D01*
Y1683530D01*
D02*
G37*
G36*
X12855098Y1645948D02*
X12853464D01*
Y1647582D01*
X12855098D01*
Y1645948D01*
D02*
G37*
G36*
X13703137Y1644314D02*
X13701503D01*
Y1645948D01*
X13703137D01*
Y1644314D01*
D02*
G37*
G36*
X13701503Y1639412D02*
X13698235D01*
Y1641046D01*
X13701503D01*
Y1639412D01*
D02*
G37*
G36*
X12881242D02*
X12879608D01*
Y1641046D01*
X12881242D01*
Y1639412D01*
D02*
G37*
G36*
X13379608Y1636144D02*
X13376340D01*
Y1639412D01*
X13379608D01*
Y1636144D01*
D02*
G37*
G36*
X13518497Y1634510D02*
X13516862D01*
Y1636144D01*
X13518497D01*
Y1634510D01*
D02*
G37*
G36*
X12480915Y1701503D02*
X12554444D01*
Y1627974D01*
X12480915D01*
Y1675359D01*
Y1676994D01*
Y1701503D01*
X12409019D01*
Y1703137D01*
X12407385D01*
Y1773399D01*
X12409019D01*
Y1775033D01*
X12480915D01*
Y1701503D01*
D02*
G37*
G36*
X13531569Y1619804D02*
X13529935D01*
Y1621438D01*
X13531569D01*
Y1619804D01*
D02*
G37*
G36*
X13404117Y1614902D02*
X13400848D01*
Y1619804D01*
X13404117D01*
Y1614902D01*
D02*
G37*
G36*
X13547908Y1613268D02*
X13551176D01*
Y1610000D01*
X13549542D01*
Y1611634D01*
X13546274D01*
Y1614902D01*
X13547908D01*
Y1613268D01*
D02*
G37*
G36*
X13418823Y1608366D02*
X13417189D01*
Y1606732D01*
X13418823D01*
Y1605098D01*
X13420457D01*
Y1603464D01*
X13418823D01*
Y1601830D01*
X13417189D01*
Y1600196D01*
X13415555D01*
Y1598562D01*
X13413921D01*
Y1600196D01*
X13412286D01*
Y1601830D01*
X13413921D01*
Y1603464D01*
X13415555D01*
Y1605098D01*
X13413921D01*
Y1608366D01*
X13415555D01*
Y1610000D01*
X13417189D01*
Y1611634D01*
X13418823D01*
Y1608366D01*
D02*
G37*
G36*
X13428627Y1601830D02*
X13430261D01*
Y1600196D01*
X13431895D01*
Y1593660D01*
X13430261D01*
Y1592026D01*
X13428627D01*
Y1590392D01*
X13425359D01*
Y1593660D01*
X13426993D01*
Y1598562D01*
X13425359D01*
Y1600196D01*
X13423724D01*
Y1601830D01*
X13425359D01*
Y1605098D01*
X13426993D01*
Y1606732D01*
X13428627D01*
Y1601830D01*
D02*
G37*
G36*
X13085490Y1587124D02*
X13083856D01*
Y1585490D01*
X13080588D01*
Y1587124D01*
X13082222D01*
Y1588758D01*
X13085490D01*
Y1587124D01*
D02*
G37*
G36*
X13428627Y1583856D02*
X13426993D01*
Y1582222D01*
X13425359D01*
Y1585490D01*
X13428627D01*
Y1583856D01*
D02*
G37*
G36*
X13940065Y1577320D02*
X13938431D01*
Y1578954D01*
X13940065D01*
Y1577320D01*
D02*
G37*
G36*
X13456406Y1578954D02*
X13458038D01*
Y1577320D01*
X13446600D01*
Y1578954D01*
X13453137D01*
Y1580588D01*
X13456406D01*
Y1578954D01*
D02*
G37*
G36*
X13443333Y1577320D02*
X13440065D01*
Y1578954D01*
X13443333D01*
Y1577320D01*
D02*
G37*
G36*
X13435162Y1578954D02*
X13436797D01*
Y1577320D01*
X13433530D01*
Y1578954D01*
X13431895D01*
Y1580588D01*
X13435162D01*
Y1578954D01*
D02*
G37*
G36*
X13065881Y1338758D02*
X13067516D01*
Y1337124D01*
X13065881D01*
Y1335490D01*
X12993987D01*
Y1409020D01*
X13065881D01*
Y1338758D01*
D02*
G37*
G36*
X13072418Y1587124D02*
X13069150D01*
Y1585490D01*
X13070784D01*
Y1583856D01*
X13077319D01*
Y1582222D01*
X13078954D01*
Y1580588D01*
X13077319D01*
Y1578954D01*
X13075687D01*
Y1577320D01*
X13092026D01*
Y1575686D01*
X13273399D01*
Y1577320D01*
X13275034D01*
Y1575686D01*
X13276666D01*
Y1577320D01*
X13283203D01*
Y1575686D01*
X13286472D01*
Y1498889D01*
Y1497255D01*
Y1482549D01*
X13358366D01*
Y1480915D01*
X13360001D01*
Y1454771D01*
Y1453137D01*
Y1335490D01*
X13431895D01*
Y1261961D01*
X13286472D01*
Y1482549D01*
X13212941D01*
Y1554444D01*
X13211307D01*
Y1556078D01*
X13209673D01*
Y1554444D01*
X13144315D01*
Y1556078D01*
X13141046D01*
Y1554444D01*
X13139412D01*
Y1482549D01*
X13212941D01*
Y1335490D01*
X13139412D01*
Y1409020D01*
X13065881D01*
Y1572418D01*
X13067516D01*
Y1574052D01*
X13065881D01*
Y1577320D01*
X13059346D01*
Y1575686D01*
X13039738D01*
Y1577320D01*
X13028300D01*
Y1578954D01*
X13029935D01*
Y1580588D01*
X13033203D01*
Y1582222D01*
X13034837D01*
Y1583856D01*
X13038104D01*
Y1585490D01*
X13043005D01*
Y1587124D01*
X13051176D01*
Y1588758D01*
X13072418D01*
Y1587124D01*
D02*
G37*
G36*
X12993987Y1263595D02*
X12992352D01*
Y1261961D01*
X12920457D01*
Y1335490D01*
X12993987D01*
Y1263595D01*
D02*
G37*
G36*
X13139412Y1190065D02*
X13065881D01*
Y1193333D01*
X13067516D01*
Y1194967D01*
X13065881D01*
Y1257059D01*
X13067516D01*
Y1258693D01*
X13065881D01*
Y1261961D01*
X13139412D01*
Y1190065D01*
D02*
G37*
G36*
X12554444D02*
X12480915D01*
Y1217843D01*
Y1219477D01*
Y1261961D01*
X12554444D01*
Y1190065D01*
D02*
G37*
G36*
X12920457D02*
X12775033D01*
Y1188431D01*
X12773399D01*
Y1116536D01*
X12701503D01*
Y1188431D01*
X12699869D01*
Y1190065D01*
X12627974D01*
Y1261961D01*
X12920457D01*
Y1190065D01*
D02*
G37*
G36*
X13724379Y1188431D02*
X13726013D01*
Y902484D01*
X13724379D01*
Y900850D01*
X13726013D01*
Y897582D01*
X13724379D01*
Y895948D01*
X13655751D01*
Y897582D01*
X13654117D01*
Y895948D01*
X13652483D01*
Y750523D01*
X13578954D01*
Y1043007D01*
X13212941D01*
Y1116536D01*
X13578954D01*
Y1043007D01*
X13652483D01*
Y1190065D01*
X13724379D01*
Y1188431D01*
D02*
G37*
G36*
X12920457Y969477D02*
X12775033D01*
Y971111D01*
X12773399D01*
Y1043007D01*
X12920457D01*
Y969477D01*
D02*
G37*
G36*
X14529935Y897582D02*
X14528300D01*
Y895948D01*
X14458038D01*
Y897582D01*
X14456406D01*
Y969477D01*
X14529935D01*
Y897582D01*
D02*
G37*
G36*
X14382877Y1114902D02*
X14384509D01*
Y1051176D01*
Y1049542D01*
Y897582D01*
X14382877D01*
Y895948D01*
X14165555D01*
Y897582D01*
X14163921D01*
Y1116536D01*
X14382877D01*
Y1114902D01*
D02*
G37*
G36*
X13797908Y750523D02*
X13726013D01*
Y819150D01*
X13724379D01*
Y822418D01*
X13726013D01*
Y824052D01*
X13797908D01*
Y750523D01*
D02*
G37*
%LPC*%
G36*
X13360001Y2944967D02*
X13286472D01*
Y2873072D01*
X13360001D01*
Y2652484D01*
X13431895D01*
Y2610000D01*
Y2608366D01*
Y2578954D01*
X13505424D01*
Y2652484D01*
X13431895D01*
Y2786471D01*
Y2788105D01*
Y2873072D01*
X13360001D01*
Y2944967D01*
D02*
G37*
G36*
X12992352Y2214575D02*
X12989085D01*
Y2212941D01*
X12987451D01*
Y2214575D01*
X12853464D01*
Y2212941D01*
X12851830D01*
Y2214575D01*
X12848563D01*
Y2212941D01*
X12846928D01*
Y2193333D01*
X12848563D01*
Y2191699D01*
X12884509D01*
Y2190065D01*
X12879608D01*
Y2186798D01*
X12881242D01*
Y2185164D01*
X12882877D01*
Y2183530D01*
X12886143D01*
Y2181896D01*
X12897581D01*
Y2183530D01*
X12902483D01*
Y2188431D01*
X12900848D01*
Y2190065D01*
X12899216D01*
Y2191699D01*
X12992352D01*
Y2193333D01*
X12993987D01*
Y2212941D01*
X12992352D01*
Y2214575D01*
D02*
G37*
G36*
X13243987Y2191699D02*
X13217844D01*
Y2190065D01*
X13243987D01*
Y2191699D01*
D02*
G37*
G36*
X13216209D02*
X13214575D01*
Y2190065D01*
X13216209D01*
Y2191699D01*
D02*
G37*
G36*
X13139412Y2286471D02*
X13065881D01*
Y2283203D01*
X13067516D01*
Y2281569D01*
X13065881D01*
Y2193333D01*
X13067516D01*
Y2191699D01*
X13142680D01*
Y2190065D01*
X13141046D01*
Y2188431D01*
X13131242D01*
Y2186798D01*
X13155751D01*
Y2188431D01*
X13157385D01*
Y2190065D01*
X13159019D01*
Y2191699D01*
X13212941D01*
Y2212941D01*
X13211307D01*
Y2214575D01*
X13209673D01*
Y2212941D01*
X13208038D01*
Y2214575D01*
X13144315D01*
Y2212941D01*
X13141046D01*
Y2214575D01*
X13139412D01*
Y2286471D01*
D02*
G37*
G36*
X13080588Y2142680D02*
X13078954D01*
Y2141046D01*
X13080588D01*
Y2139412D01*
X13082222D01*
Y2141046D01*
X13080588D01*
Y2142680D01*
D02*
G37*
G36*
X13065881Y1941699D02*
X13064249D01*
Y1940065D01*
X13065881D01*
Y1941699D01*
D02*
G37*
G36*
X12969476D02*
X12967844D01*
Y1940065D01*
X12969476D01*
Y1941699D01*
D02*
G37*
G36*
X12962941D02*
X12961307D01*
Y1940065D01*
X12962941D01*
Y1941699D01*
D02*
G37*
G36*
X13054443Y1938431D02*
X13052811D01*
Y1936797D01*
X13054443D01*
Y1938431D01*
D02*
G37*
G36*
X13062614Y1933530D02*
X13059346D01*
Y1930262D01*
Y1928628D01*
Y1926994D01*
X13062614D01*
Y1933530D01*
D02*
G37*
G36*
X13670457Y1926994D02*
X13668823D01*
Y1923725D01*
X13670457D01*
Y1926994D01*
D02*
G37*
G36*
X13673724Y1918823D02*
X13670457D01*
Y1917189D01*
X13673724D01*
Y1918823D01*
D02*
G37*
G36*
X12773399Y2067516D02*
X12701503D01*
Y1848562D01*
X12848563D01*
Y1920457D01*
X12775033D01*
Y1922091D01*
X12773399D01*
Y2067516D01*
D02*
G37*
G36*
X12850195Y1846928D02*
X12848563D01*
Y1843660D01*
X12850195D01*
Y1845294D01*
Y1846928D01*
D02*
G37*
G36*
X13110001Y1845294D02*
X13108366D01*
Y1843660D01*
Y1842026D01*
Y1832222D01*
X13110001D01*
Y1845294D01*
D02*
G37*
G36*
X12897581Y1802810D02*
X12895947D01*
Y1801176D01*
X12897581D01*
Y1802810D01*
D02*
G37*
G36*
X12900848Y1797909D02*
X12897581D01*
Y1796275D01*
X12899216D01*
Y1794641D01*
X12900848D01*
Y1797909D01*
D02*
G37*
G36*
X13900850Y2049543D02*
X13899216D01*
Y2047909D01*
X13895947D01*
Y2049543D01*
X13889412D01*
Y2047909D01*
X13887778D01*
Y2046275D01*
X13900850D01*
Y2049543D01*
D02*
G37*
G36*
X13913921D02*
X13902483D01*
Y2047909D01*
X13905751D01*
Y2046275D01*
X13912286D01*
Y2047909D01*
X13913921D01*
Y2049543D01*
D02*
G37*
G36*
X13204771Y1944967D02*
X13203137D01*
Y1943333D01*
X13204771D01*
Y1941699D01*
X13206406D01*
Y1940065D01*
X13208038D01*
Y1941699D01*
X13206406D01*
Y1943333D01*
X13204771D01*
Y1944967D01*
D02*
G37*
G36*
X13222745Y1926994D02*
X13221111D01*
Y1925359D01*
X13219476D01*
Y1923725D01*
X13222745D01*
Y1925359D01*
Y1926994D01*
D02*
G37*
G36*
X13219476Y1874706D02*
X13217844D01*
Y1873072D01*
X13216209D01*
Y1869804D01*
X13219476D01*
Y1871438D01*
Y1873072D01*
Y1874706D01*
D02*
G37*
G36*
X13217844Y1864902D02*
X13216209D01*
Y1863268D01*
X13217844D01*
Y1864902D01*
D02*
G37*
G36*
X13227647Y1863268D02*
X13226013D01*
Y1861634D01*
X13224379D01*
Y1863268D01*
X13222745D01*
Y1861634D01*
X13221111D01*
Y1856732D01*
X13226013D01*
Y1860000D01*
X13227647D01*
Y1863268D01*
D02*
G37*
G36*
X13217844Y1861634D02*
X13216209D01*
Y1860000D01*
X13217844D01*
Y1861634D01*
D02*
G37*
G36*
X13176993Y1858366D02*
X13175359D01*
Y1856732D01*
Y1855098D01*
X13173724D01*
Y1851830D01*
X13176993D01*
Y1858366D01*
D02*
G37*
G36*
X13222745Y1846928D02*
X13221111D01*
Y1845294D01*
Y1843660D01*
Y1842026D01*
X13222745D01*
Y1846928D01*
D02*
G37*
G36*
X13173724Y1845294D02*
X13172092D01*
Y1842026D01*
X13173724D01*
Y1845294D01*
D02*
G37*
G36*
X13172092Y1838758D02*
X13170457D01*
Y1837124D01*
X13172092D01*
Y1838758D01*
D02*
G37*
G36*
X13219476Y1820784D02*
X13216209D01*
Y1819150D01*
Y1817516D01*
Y1815882D01*
X13217844D01*
Y1817516D01*
X13219476D01*
Y1820784D01*
D02*
G37*
G36*
X13172092D02*
X13170457D01*
Y1817516D01*
X13172092D01*
Y1815882D01*
X13176993D01*
Y1817516D01*
X13173724D01*
Y1819150D01*
X13172092D01*
Y1820784D01*
D02*
G37*
G36*
X13163921Y1807712D02*
X13162286D01*
Y1806078D01*
X13163921D01*
Y1807712D01*
D02*
G37*
G36*
X13214575Y1794641D02*
X13212941D01*
Y1791373D01*
X13214575D01*
Y1793007D01*
Y1794641D01*
D02*
G37*
G36*
X13217844Y1789739D02*
X13216209D01*
Y1788105D01*
X13214575D01*
Y1786471D01*
X13217844D01*
Y1789739D01*
D02*
G37*
G36*
X13784837Y1886144D02*
X13783203D01*
Y1884510D01*
Y1882876D01*
X13786472D01*
Y1884510D01*
X13784837D01*
Y1886144D01*
D02*
G37*
G36*
X13771765Y1879608D02*
X13770129D01*
Y1876340D01*
X13766862D01*
Y1874706D01*
X13765228D01*
Y1873072D01*
X13763596D01*
Y1869804D01*
X13770129D01*
Y1868170D01*
X13771765D01*
Y1860000D01*
X13770129D01*
Y1856732D01*
X13771765D01*
Y1858366D01*
X13773399D01*
Y1860000D01*
X13779935D01*
Y1858366D01*
X13783203D01*
Y1855098D01*
X13784837D01*
Y1851830D01*
X13794640D01*
Y1853464D01*
X13796274D01*
Y1855098D01*
X13799542D01*
Y1853464D01*
X13804443D01*
Y1855098D01*
X13807712D01*
Y1856732D01*
X13809346D01*
Y1860000D01*
X13810980D01*
Y1861634D01*
X13809346D01*
Y1864902D01*
X13807712D01*
Y1866536D01*
X13804443D01*
Y1868170D01*
X13796274D01*
Y1871438D01*
X13794640D01*
Y1873072D01*
X13793005D01*
Y1874706D01*
X13789738D01*
Y1873072D01*
X13788104D01*
Y1874706D01*
X13786472D01*
Y1873072D01*
X13783203D01*
Y1874706D01*
X13781569D01*
Y1876340D01*
X13776666D01*
Y1874706D01*
X13775034D01*
Y1876340D01*
X13771765D01*
Y1877974D01*
Y1879608D01*
D02*
G37*
G36*
X13752158Y1863268D02*
X13750523D01*
Y1861634D01*
X13747255D01*
Y1860000D01*
X13743987D01*
Y1858366D01*
X13742352D01*
Y1856732D01*
X13740720D01*
Y1853464D01*
X13739085D01*
Y1846928D01*
X13740720D01*
Y1845294D01*
X13742352D01*
Y1846928D01*
X13748889D01*
Y1848562D01*
X13750523D01*
Y1850196D01*
X13752158D01*
Y1851830D01*
X13755424D01*
Y1850196D01*
X13763596D01*
Y1851830D01*
X13766862D01*
Y1853464D01*
X13765228D01*
Y1858366D01*
X13761961D01*
Y1855098D01*
X13757059D01*
Y1856732D01*
X13753790D01*
Y1858366D01*
X13752158D01*
Y1863268D01*
D02*
G37*
G36*
X13843660Y1838758D02*
X13842026D01*
Y1837124D01*
X13843660D01*
Y1838758D01*
D02*
G37*
G36*
X13842026Y1837124D02*
X13838757D01*
Y1833856D01*
X13842026D01*
Y1837124D01*
D02*
G37*
G36*
X13810980Y1799543D02*
X13809346D01*
Y1796275D01*
X13810980D01*
Y1799543D01*
D02*
G37*
G36*
X13765228Y1778301D02*
X13761961D01*
Y1776667D01*
X13763596D01*
Y1775033D01*
X13766862D01*
Y1776667D01*
X13765228D01*
Y1778301D01*
D02*
G37*
G36*
X13627974Y1770131D02*
X13626340D01*
Y1766863D01*
X13627974D01*
Y1765229D01*
X13631242D01*
Y1766863D01*
X13629608D01*
Y1768497D01*
X13627974D01*
Y1770131D01*
D02*
G37*
G36*
X13719476Y1673725D02*
X13717844D01*
Y1672091D01*
X13719476D01*
Y1673725D01*
D02*
G37*
G36*
X13659019Y1657386D02*
X13657385D01*
Y1655752D01*
X13659019D01*
Y1657386D01*
D02*
G37*
G36*
X13712941Y1641046D02*
X13711307D01*
Y1639412D01*
X13712941D01*
Y1641046D01*
D02*
G37*
G36*
X13337125Y1876340D02*
X13335490D01*
Y1873072D01*
X13337125D01*
Y1876340D01*
D02*
G37*
G36*
X13485817Y1832222D02*
X13477647D01*
Y1830588D01*
X13485817D01*
Y1828954D01*
X13492352D01*
Y1830588D01*
X13485817D01*
Y1832222D01*
D02*
G37*
G36*
X13302811Y1745621D02*
X13299542D01*
Y1743987D01*
X13302811D01*
Y1745621D01*
D02*
G37*
G36*
X13257059Y1681896D02*
X13255424D01*
Y1680262D01*
X13257059D01*
Y1681896D01*
D02*
G37*
G36*
X13333856Y1650850D02*
X13332222D01*
Y1647582D01*
X13333856D01*
Y1649216D01*
Y1650850D01*
D02*
G37*
G36*
X13361633Y1639412D02*
X13358366D01*
Y1632876D01*
X13364902D01*
Y1637778D01*
X13361633D01*
Y1639412D01*
D02*
G37*
G36*
X13338757Y1618170D02*
X13335490D01*
Y1616536D01*
X13338757D01*
Y1618170D01*
D02*
G37*
G36*
X13389412Y1616536D02*
X13387778D01*
Y1614902D01*
X13389412D01*
Y1616536D01*
D02*
G37*
G36*
X13386143Y1613268D02*
X13384509D01*
Y1611634D01*
X13386143D01*
Y1613268D01*
D02*
G37*
G36*
X13363268Y1611634D02*
X13361633D01*
Y1610000D01*
X13363268D01*
Y1611634D01*
D02*
G37*
G36*
X13355098Y1610000D02*
X13353464D01*
Y1608366D01*
X13355098D01*
Y1610000D01*
D02*
G37*
G36*
X13376340Y1608366D02*
X13373071D01*
Y1606732D01*
X13371439D01*
Y1605098D01*
X13369804D01*
Y1603464D01*
X13368170D01*
Y1601830D01*
X13371439D01*
Y1603464D01*
X13374706D01*
Y1606732D01*
X13376340D01*
Y1608366D01*
D02*
G37*
G36*
X13319150Y1605098D02*
X13317516D01*
Y1601830D01*
X13319150D01*
Y1605098D01*
D02*
G37*
G36*
X13345294Y1600196D02*
X13343660D01*
Y1598562D01*
X13342026D01*
Y1595294D01*
X13345294D01*
Y1596928D01*
X13346928D01*
Y1598562D01*
X13345294D01*
Y1600196D01*
D02*
G37*
G36*
X13391046Y1593660D02*
X13389412D01*
Y1592026D01*
X13391046D01*
Y1593660D01*
D02*
G37*
G36*
X13363268Y1603464D02*
X13360001D01*
Y1601830D01*
X13356732D01*
Y1596928D01*
X13358366D01*
Y1595294D01*
X13364902D01*
Y1592026D01*
X13368170D01*
Y1593660D01*
X13369804D01*
Y1595294D01*
X13371439D01*
Y1596928D01*
X13369804D01*
Y1598562D01*
X13363268D01*
Y1603464D01*
D02*
G37*
G36*
X13405751Y1595294D02*
X13402483D01*
Y1593660D01*
X13400848D01*
Y1592026D01*
X13399216D01*
Y1590392D01*
X13397581D01*
Y1588758D01*
X13395947D01*
Y1590392D01*
X13394315D01*
Y1588758D01*
X13391046D01*
Y1585490D01*
X13400848D01*
Y1587124D01*
X13402483D01*
Y1590392D01*
X13404117D01*
Y1592026D01*
X13405751D01*
Y1595294D01*
D02*
G37*
G36*
X13371439Y1588758D02*
X13368170D01*
Y1587124D01*
X13366536D01*
Y1585490D01*
X13369804D01*
Y1587124D01*
X13371439D01*
Y1588758D01*
D02*
G37*
G36*
X13360001Y1592026D02*
X13358366D01*
Y1588758D01*
X13361633D01*
Y1587124D01*
X13360001D01*
Y1585490D01*
X13363268D01*
Y1587124D01*
X13364902D01*
Y1590392D01*
X13360001D01*
Y1592026D01*
D02*
G37*
G36*
X13342026Y1593660D02*
X13340392D01*
Y1592026D01*
X13338757D01*
Y1590392D01*
Y1585490D01*
X13340392D01*
Y1588758D01*
X13342026D01*
Y1593660D01*
D02*
G37*
G36*
X13394315Y1608366D02*
X13391046D01*
Y1606732D01*
X13387778D01*
Y1605098D01*
X13386143D01*
Y1601830D01*
X13382877D01*
Y1600196D01*
X13381242D01*
Y1596928D01*
X13382877D01*
Y1595294D01*
X13381242D01*
Y1592026D01*
X13379608D01*
Y1590392D01*
X13381242D01*
Y1587124D01*
X13379608D01*
Y1585490D01*
X13377974D01*
Y1582222D01*
X13379608D01*
Y1580588D01*
X13381242D01*
Y1582222D01*
X13382877D01*
Y1583856D01*
X13384509D01*
Y1585490D01*
X13386143D01*
Y1587124D01*
X13384509D01*
Y1588758D01*
X13386143D01*
Y1596928D01*
X13387778D01*
Y1598562D01*
X13389412D01*
Y1600196D01*
X13392680D01*
Y1601830D01*
X13394315D01*
Y1608366D01*
D02*
G37*
G36*
X13363268Y1578954D02*
X13360001D01*
Y1577320D01*
X13363268D01*
Y1578954D01*
D02*
G37*
G36*
X13652483Y1409020D02*
X13578954D01*
Y1407386D01*
Y1405752D01*
Y1335490D01*
X13652483D01*
Y1409020D01*
D02*
G37*
%LPD*%
G36*
X13361633Y1596928D02*
X13360001D01*
Y1598562D01*
X13361633D01*
Y1596928D01*
D02*
G37*
%LPC*%
G36*
X13595294Y1663921D02*
X13590392D01*
Y1662288D01*
X13592026D01*
Y1659020D01*
X13596928D01*
Y1660654D01*
X13595294D01*
Y1663921D01*
D02*
G37*
G36*
X14310980Y1043007D02*
X14237451D01*
Y969477D01*
X14309346D01*
Y971111D01*
X14310980D01*
Y1043007D01*
D02*
G37*
%LPD*%
G36*
X14670457Y3160654D02*
X14672092D01*
Y3159020D01*
X14673724D01*
Y3155752D01*
X14672092D01*
Y3154118D01*
X14673724D01*
Y2810980D01*
X14672092D01*
Y2807712D01*
X14673724D01*
Y2806078D01*
X14672092D01*
Y2802810D01*
X14314249D01*
Y3057712D01*
Y3059346D01*
Y3160654D01*
X14317516D01*
Y3162288D01*
X14319150D01*
Y3160654D01*
X14322418D01*
Y3162288D01*
X14665555D01*
Y3160654D01*
X14667189D01*
Y3162288D01*
X14670457D01*
Y3160654D01*
D02*
G37*
%LPC*%
G36*
X14603464Y3092026D02*
X14384509D01*
Y3090392D01*
X14382877D01*
Y3088758D01*
X14384509D01*
Y2876340D01*
X14382877D01*
Y2873072D01*
X14384509D01*
Y2871438D01*
X14387778D01*
Y2873072D01*
X14600195D01*
Y2871438D01*
X14601830D01*
Y2873072D01*
X14603464D01*
Y3078954D01*
Y3080588D01*
Y3092026D01*
D02*
G37*
%LPD*%
G36*
X12474379Y3160654D02*
X12477647D01*
Y2802810D01*
X12119804D01*
Y2806078D01*
X12118170D01*
Y2807712D01*
X12119804D01*
Y2810980D01*
X12118170D01*
Y3154118D01*
X12119804D01*
Y3155752D01*
X12118170D01*
Y3159020D01*
X12119804D01*
Y3160654D01*
X12121438D01*
Y3162288D01*
X12124706D01*
Y3160654D01*
X12126340D01*
Y3162288D01*
X12469477D01*
Y3160654D01*
X12472745D01*
Y3162288D01*
X12474379D01*
Y3160654D01*
D02*
G37*
%LPC*%
G36*
X12407385Y3092026D02*
X12188431D01*
Y2954771D01*
Y2953137D01*
Y2873072D01*
X12190065D01*
Y2871438D01*
X12191699D01*
Y2873072D01*
X12404117D01*
Y2871438D01*
X12407385D01*
Y2873072D01*
X12409019D01*
Y2876340D01*
X12407385D01*
Y3088758D01*
X12409019D01*
Y3090392D01*
X12407385D01*
Y3092026D01*
D02*
G37*
%LPD*%
G36*
X14676993Y2106732D02*
Y2105098D01*
Y2067516D01*
X14603464D01*
Y2141046D01*
X14676993D01*
Y2106732D01*
D02*
G37*
G36*
X12477647Y608366D02*
X12474379D01*
Y606732D01*
X12472745D01*
Y608366D01*
X12469477D01*
Y606732D01*
X12126340D01*
Y608366D01*
X12124706D01*
Y606732D01*
X12121438D01*
Y608366D01*
X12119804D01*
Y610000D01*
X12118170D01*
Y613268D01*
X12119804D01*
Y614902D01*
X12118170D01*
Y739085D01*
Y740719D01*
Y958039D01*
X12119804D01*
Y961307D01*
X12118170D01*
Y962941D01*
X12119804D01*
Y966209D01*
X12477647D01*
Y608366D01*
D02*
G37*
%LPC*%
G36*
X12407385Y897582D02*
X12404117D01*
Y895948D01*
X12191699D01*
Y897582D01*
X12190065D01*
Y895948D01*
X12188431D01*
Y676994D01*
X12407385D01*
Y678628D01*
X12409019D01*
Y680262D01*
X12407385D01*
Y714575D01*
Y716209D01*
Y892680D01*
X12409019D01*
Y895948D01*
X12407385D01*
Y897582D01*
D02*
G37*
%LPD*%
D26*
X14160300Y8619800D02*
G03*
X14160300Y8619800I-12500J0D01*
G01*
X3378000Y8308800D02*
G03*
X3378000Y8308800I-12500J0D01*
G01*
X10604300Y4733600D02*
G03*
X10604300Y4733600I-12500J0D01*
G01*
X9715300Y8435800D02*
G03*
X9715300Y8435800I-12500J0D01*
G01*
D27*
X2184400Y2558600D02*
G03*
X1952400Y2326600I0J-232000D01*
G01*
X2416400D02*
G03*
X2184400Y2558600I-232000J0D01*
G01*
X2184400Y1454600D02*
G03*
X2416400Y1686600I0J232000D01*
G01*
X1952400D02*
G03*
X2184400Y1454600I232000J0D01*
G01*
X1469800Y7109500D02*
G03*
X1701800Y6877500I232000J0D01*
G01*
X1701800D02*
G03*
X1933800Y7109500I0J232000D01*
G01*
Y7749500D02*
G03*
X1701800Y7981500I-232000J0D01*
G01*
D02*
G03*
X1469800Y7749500I-0J-232000D01*
G01*
X3683000Y8401800D02*
G03*
X3810000Y8401800I63500J0D01*
G01*
X5567900Y7109500D02*
G03*
X5799900Y6877500I232000J0D01*
G01*
X5799900D02*
G03*
X6031900Y7109500I0J232000D01*
G01*
Y7749500D02*
G03*
X5799900Y7981500I-232000J0D01*
G01*
D02*
G03*
X5567900Y7749500I-0J-232000D01*
G01*
X8016255Y7868100D02*
G03*
X8248255Y8100100I0J232000D01*
G01*
X7784254D02*
G03*
X8016254Y7868100I232000J0D01*
G01*
X8016255Y8972100D02*
G03*
X7784254Y8740100I-0J-232000D01*
G01*
X8248255D02*
G03*
X8016255Y8972100I-232000J0D01*
G01*
X8028955Y6648000D02*
G03*
X7796955Y6416000I0J-232000D01*
G01*
X8260955D02*
G03*
X8028955Y6648000I-232000J0D01*
G01*
X8028955Y5544000D02*
G03*
X8260955Y5776000I0J232000D01*
G01*
X7796955D02*
G03*
X8028955Y5544000I232000J0D01*
G01*
X2161555Y4491700D02*
G03*
X1929555Y4259700I0J-232000D01*
G01*
X2393555D02*
G03*
X2161555Y4491700I-232000J0D01*
G01*
X2161555Y3387700D02*
G03*
X2393555Y3619700I0J232000D01*
G01*
X1929555D02*
G03*
X2161555Y3387700I232000J0D01*
G01*
X10020300Y8528800D02*
G03*
X10147300Y8528800I63500J0D01*
G01*
X14013300Y6004800D02*
X14282300D01*
Y8574800D01*
X14013300D02*
X14282300D01*
X14013300Y6004800D02*
Y8574800D01*
X8324820Y8674100D02*
X8528020D01*
Y8064500D02*
Y8674100D01*
X8324820Y8064500D02*
X8528020D01*
X8324820D02*
Y8674100D01*
X8426420D02*
Y8719302D01*
Y8019298D02*
Y8064500D01*
X8337535Y5753100D02*
X8540735D01*
X8337535D02*
Y6362700D01*
X8540735D01*
Y5753100D02*
Y6362700D01*
X8439135Y5707898D02*
Y5753100D01*
Y6362700D02*
Y6407902D01*
X2571735Y4241800D02*
Y4287002D01*
Y3586998D02*
Y3632200D01*
X2673335D02*
Y4241800D01*
X2470135D02*
X2673335D01*
X2470135Y3632200D02*
Y4241800D01*
Y3632200D02*
X2673335D01*
X8604301Y5737200D02*
X9404299D01*
X8604301Y5337200D02*
Y5737200D01*
Y5337200D02*
X9404299D01*
Y5737200D01*
X8604301Y6778600D02*
X9404299D01*
X8604301Y6378600D02*
Y6778600D01*
Y6378600D02*
X9404299D01*
Y6778600D01*
X2416901Y1686601D02*
Y2326599D01*
X1951899Y1686601D02*
Y2326599D01*
X2594580Y2298700D02*
Y2343902D01*
Y1643898D02*
Y1689100D01*
X2696180D02*
Y2298700D01*
X2492980D02*
X2696180D01*
X2492980Y1689100D02*
Y2298700D01*
Y1689100D02*
X2696180D01*
X2317801Y6683400D02*
X3117799D01*
X2317801D02*
Y7083400D01*
X3117799D01*
Y6683400D02*
Y7083400D01*
X2317801Y7775600D02*
X3117799D01*
X2317801D02*
Y8175600D01*
X3117799D01*
Y7775600D02*
Y8175600D01*
X2152635Y7092198D02*
Y7137400D01*
Y7747000D02*
Y7792202D01*
X2254235Y7137400D02*
Y7747000D01*
X2051035Y7137400D02*
X2254235D01*
X2051035D02*
Y7747000D01*
X2254235D01*
X1934301Y7109501D02*
Y7749499D01*
X1469299Y7109501D02*
Y7749499D01*
X4413301Y7775600D02*
Y8175600D01*
Y7775600D02*
X5213299D01*
Y8175600D01*
X4413301D02*
X5213299D01*
X3481502Y6431798D02*
Y8401802D01*
X4011498Y6431798D02*
Y8401802D01*
X3481502D02*
X3683000D01*
X3810000D02*
X4011498D01*
X3481502Y6431798D02*
X4011498D01*
X6032398Y7109501D02*
Y7749499D01*
X5567401Y7109501D02*
Y7749499D01*
X4413301Y7096100D02*
X5213299D01*
Y6696100D02*
Y7096100D01*
X4413301Y6696100D02*
X5213299D01*
X4413301D02*
Y7096100D01*
X5380802Y7079498D02*
Y7124700D01*
Y7734300D02*
Y7779502D01*
X5482402Y7124700D02*
Y7734300D01*
X5279202Y7124700D02*
X5482402D01*
X5279202D02*
Y7734300D01*
X5482402D01*
X7783754Y8100101D02*
Y8740099D01*
X8248757Y8100101D02*
Y8740099D01*
X8261457Y5776001D02*
Y6415999D01*
X7796454Y5776001D02*
Y6415999D01*
X2749601Y4683100D02*
X3549599D01*
X2749601Y4283100D02*
Y4683100D01*
Y4283100D02*
X3549599D01*
Y4683100D01*
X2736901Y3603600D02*
X3536899D01*
X2736901Y3203600D02*
Y3603600D01*
Y3203600D02*
X3536899D01*
Y3603600D01*
X10457302Y2118599D02*
X10726298D01*
Y4688601D01*
X10457302D02*
X10726298D01*
X10457302Y2118599D02*
Y4688601D01*
X2394057Y3619698D02*
Y4259702D01*
X1929054Y3619698D02*
Y4259702D01*
X2762301Y1647800D02*
X3562299D01*
X2762301Y1247800D02*
Y1647800D01*
Y1247800D02*
X3562299D01*
Y1647800D01*
X8591601Y9102700D02*
X9391599D01*
X8591601Y8702700D02*
Y9102700D01*
Y8702700D02*
X9391599D01*
Y9102700D01*
X2762301Y2727300D02*
X3562299D01*
X2762301Y2327300D02*
Y2727300D01*
Y2327300D02*
X3562299D01*
Y2727300D01*
X8591601Y8035900D02*
X9391599D01*
X8591601Y7635900D02*
Y8035900D01*
Y7635900D02*
X9391599D01*
Y8035900D01*
X9818802Y6558798D02*
X10348798D01*
X10147300Y8528802D02*
X10348798D01*
X9818802D02*
X10020300D01*
X10348798Y6558798D02*
Y8528802D01*
X9818802Y6558798D02*
Y8528802D01*
D28*
X3611500Y8301800D02*
G03*
X3611500Y8301800I-30000J0D01*
G01*
X9948800Y8428800D02*
G03*
X9948800Y8428800I-30000J0D01*
G01*
D29*
X7404100Y9461500D02*
X13030200D01*
Y5283200D02*
Y9461500D01*
X7404100Y5283200D02*
X13030200D01*
X7404100D02*
Y9461500D01*
X952500Y457200D02*
Y4991100D01*
X9486900D01*
X952500Y457200D02*
X9486900D01*
Y4991100D01*
X990600Y5905500D02*
X6896100D01*
X990600D02*
Y9207500D01*
X6896100Y5905500D02*
Y9207500D01*
X990600D02*
X6896100D01*
D30*
X10630002Y9128450D02*
X12229998D01*
X10630002Y8528451D02*
X12229998D01*
X10630002D02*
Y9128450D01*
X12229998Y8528451D02*
Y9128450D01*
X11322451Y7569098D02*
X11922450D01*
X11322451Y5969102D02*
X11922450D01*
Y7569098D01*
X11322451Y5969102D02*
Y7569098D01*
X14452567Y6146759D02*
X14427174Y6172151D01*
X14376392D01*
X14350999Y6146759D01*
Y6045192D01*
X14376392Y6019800D01*
X14427174D01*
X14452567Y6045192D01*
Y6095975D01*
X14401784D01*
X14503351Y6019800D02*
Y6172151D01*
X14604918Y6019800D01*
Y6172151D01*
X14655701D02*
Y6019800D01*
X14731877D01*
X14757269Y6045192D01*
Y6146759D01*
X14731877Y6172151D01*
X14655701D01*
X14477966Y8508951D02*
X14376401D01*
Y8432775D01*
X14427184Y8458167D01*
X14452576D01*
X14477966Y8432775D01*
Y8381992D01*
X14452576Y8356600D01*
X14401791D01*
X14376401Y8381992D01*
X14528751Y8508951D02*
Y8407383D01*
X14579533Y8356600D01*
X14630318Y8407383D01*
Y8508951D01*
X10236167Y3581359D02*
X10210775Y3606751D01*
X10159992D01*
X10134600Y3581359D01*
Y3555967D01*
X10159992Y3530575D01*
X10210775D01*
X10236167Y3505183D01*
Y3479792D01*
X10210775Y3454400D01*
X10159992D01*
X10134600Y3479792D01*
X10286951Y3581359D02*
X10312343Y3606751D01*
X10363126D01*
X10388518Y3581359D01*
Y3555967D01*
X10363126Y3530575D01*
X10388518Y3505183D01*
Y3479792D01*
X10363126Y3454400D01*
X10312343D01*
X10286951Y3479792D01*
Y3505183D01*
X10312343Y3530575D01*
X10286951Y3555967D01*
Y3581359D01*
X10312343Y3530575D02*
X10363126D01*
X10223467Y3822659D02*
X10198075Y3848051D01*
X10147292D01*
X10121900Y3822659D01*
Y3797267D01*
X10147292Y3771875D01*
X10198075D01*
X10223467Y3746483D01*
Y3721092D01*
X10198075Y3695700D01*
X10147292D01*
X10121900Y3721092D01*
X10274251Y3848051D02*
X10375818D01*
Y3822659D01*
X10274251Y3721092D01*
Y3695700D01*
X10909267Y4076659D02*
X10883875Y4102051D01*
X10833092D01*
X10807700Y4076659D01*
Y4051267D01*
X10833092Y4025875D01*
X10883875D01*
X10909267Y4000483D01*
Y3975092D01*
X10883875Y3949700D01*
X10833092D01*
X10807700Y3975092D01*
X11061618Y4102051D02*
X10960051D01*
Y4025875D01*
X11010834Y4051267D01*
X11036226D01*
X11061618Y4025875D01*
Y3975092D01*
X11036226Y3949700D01*
X10985443D01*
X10960051Y3975092D01*
X10921967Y4292559D02*
X10896575Y4317951D01*
X10845792D01*
X10820400Y4292559D01*
Y4267167D01*
X10845792Y4241775D01*
X10896575D01*
X10921967Y4216383D01*
Y4190992D01*
X10896575Y4165600D01*
X10845792D01*
X10820400Y4190992D01*
X11048926Y4165600D02*
Y4317951D01*
X10972751Y4241775D01*
X11074318D01*
X10934667Y3327359D02*
X10909275Y3352751D01*
X10858492D01*
X10833100Y3327359D01*
Y3301967D01*
X10858492Y3276575D01*
X10909275D01*
X10934667Y3251183D01*
Y3225792D01*
X10909275Y3200400D01*
X10858492D01*
X10833100Y3225792D01*
X11087018Y3200400D02*
X10985451D01*
X11087018Y3301967D01*
Y3327359D01*
X11061626Y3352751D01*
X11010843D01*
X10985451Y3327359D01*
X10934667Y3073359D02*
X10909275Y3098751D01*
X10858492D01*
X10833100Y3073359D01*
Y3047967D01*
X10858492Y3022575D01*
X10909275D01*
X10934667Y2997183D01*
Y2971792D01*
X10909275Y2946400D01*
X10858492D01*
X10833100Y2971792D01*
X10985451Y2946400D02*
X11036234D01*
X11010843D01*
Y3098751D01*
X10985451Y3073359D01*
X10921967Y2311359D02*
X10896575Y2336751D01*
X10845792D01*
X10820400Y2311359D01*
Y2285967D01*
X10845792Y2260575D01*
X10896575D01*
X10921967Y2235183D01*
Y2209792D01*
X10896575Y2184400D01*
X10845792D01*
X10820400Y2209792D01*
X11074318Y2336751D02*
X11023534Y2311359D01*
X10972751Y2260575D01*
Y2209792D01*
X10998143Y2184400D01*
X11048926D01*
X11074318Y2209792D01*
Y2235183D01*
X11048926Y2260575D01*
X10972751D01*
X10909267Y2578059D02*
X10883875Y2603451D01*
X10833092D01*
X10807700Y2578059D01*
Y2552667D01*
X10833092Y2527275D01*
X10883875D01*
X10909267Y2501883D01*
Y2476492D01*
X10883875Y2451100D01*
X10833092D01*
X10807700Y2476492D01*
X10960051Y2578059D02*
X10985443Y2603451D01*
X11036226D01*
X11061618Y2578059D01*
Y2552667D01*
X11036226Y2527275D01*
X11010834D01*
X11036226D01*
X11061618Y2501883D01*
Y2476492D01*
X11036226Y2451100D01*
X10985443D01*
X10960051Y2476492D01*
X7586967Y9713142D02*
X7561575Y9738534D01*
X7510792D01*
X7485400Y9713142D01*
Y9687751D01*
X7510792Y9662359D01*
X7561575D01*
X7586967Y9636967D01*
Y9611575D01*
X7561575Y9586184D01*
X7510792D01*
X7485400Y9611575D01*
X7637751Y9586184D02*
Y9738534D01*
X7688534Y9687751D01*
X7739318Y9738534D01*
Y9586184D01*
X7790102Y9738534D02*
Y9586184D01*
X7866277D01*
X7891669Y9611575D01*
Y9713142D01*
X7866277Y9738534D01*
X7790102D01*
X8120195Y9687751D02*
X8170978D01*
X8196370Y9662359D01*
Y9586184D01*
X8120195D01*
X8094803Y9611575D01*
X8120195Y9636967D01*
X8196370D01*
X8247154Y9586184D02*
Y9687751D01*
X8323329D01*
X8348721Y9662359D01*
Y9586184D01*
X8501072Y9738534D02*
Y9586184D01*
X8424896D01*
X8399504Y9611575D01*
Y9662359D01*
X8424896Y9687751D01*
X8501072D01*
X8729598Y9586184D02*
X8780381D01*
X8805773Y9611575D01*
Y9662359D01*
X8780381Y9687751D01*
X8729598D01*
X8704206Y9662359D01*
Y9611575D01*
X8729598Y9586184D01*
X8881948Y9713142D02*
Y9687751D01*
X8856557D01*
X8907340D01*
X8881948D01*
Y9611575D01*
X8907340Y9586184D01*
X8983515Y9738534D02*
Y9586184D01*
Y9662359D01*
X9008907Y9687751D01*
X9059691D01*
X9085083Y9662359D01*
Y9586184D01*
X9212042D02*
X9161258D01*
X9135866Y9611575D01*
Y9662359D01*
X9161258Y9687751D01*
X9212042D01*
X9237433Y9662359D01*
Y9636967D01*
X9135866D01*
X9288217Y9687751D02*
Y9586184D01*
Y9636967D01*
X9313609Y9662359D01*
X9339000Y9687751D01*
X9364392D01*
X9592918Y9586184D02*
X9643702D01*
X9618310D01*
Y9687751D01*
X9592918D01*
X9719877Y9586184D02*
Y9687751D01*
X9796053D01*
X9821444Y9662359D01*
Y9586184D01*
X9872228Y9535400D02*
Y9687751D01*
X9948403D01*
X9973795Y9662359D01*
Y9611575D01*
X9948403Y9586184D01*
X9872228D01*
X10024579Y9687751D02*
Y9611575D01*
X10049971Y9586184D01*
X10126146D01*
Y9687751D01*
X10202321Y9713142D02*
Y9687751D01*
X10176929D01*
X10227713D01*
X10202321D01*
Y9611575D01*
X10227713Y9586184D01*
X10557806Y9687751D02*
X10481631D01*
X10456239Y9662359D01*
Y9611575D01*
X10481631Y9586184D01*
X10557806D01*
X10633982Y9687751D02*
X10684765D01*
X10710157Y9662359D01*
Y9586184D01*
X10633982D01*
X10608590Y9611575D01*
X10633982Y9636967D01*
X10710157D01*
X10760940Y9535400D02*
Y9687751D01*
X10837116D01*
X10862508Y9662359D01*
Y9611575D01*
X10837116Y9586184D01*
X10760940D01*
X3924300Y3340051D02*
Y3187700D01*
X4025867D01*
X4178218Y3340051D02*
X4076651D01*
Y3187700D01*
X4178218D01*
X4076651Y3263875D02*
X4127434D01*
X4229001Y3187700D02*
Y3340051D01*
X4330569Y3187700D01*
Y3340051D01*
X4533703Y3238483D02*
X4635270D01*
X4533703Y3289267D02*
X4635270D01*
X4939972Y3340051D02*
X4838404D01*
Y3263875D01*
X4889188Y3289267D01*
X4914580D01*
X4939972Y3263875D01*
Y3213092D01*
X4914580Y3187700D01*
X4863796D01*
X4838404Y3213092D01*
X5092322Y3340051D02*
X4990755D01*
Y3263875D01*
X5041539Y3289267D01*
X5066930D01*
X5092322Y3263875D01*
Y3213092D01*
X5066930Y3187700D01*
X5016147D01*
X4990755Y3213092D01*
X5143106Y3187700D02*
Y3213092D01*
X5168498D01*
Y3187700D01*
X5143106D01*
X5270065Y3340051D02*
X5371632D01*
Y3314659D01*
X5270065Y3213092D01*
Y3187700D01*
X5523983Y3340051D02*
X5422415D01*
Y3263875D01*
X5473199Y3289267D01*
X5498591D01*
X5523983Y3263875D01*
Y3213092D01*
X5498591Y3187700D01*
X5447807D01*
X5422415Y3213092D01*
X5574766Y3314659D02*
X5600158Y3340051D01*
X5650941D01*
X5676333Y3314659D01*
Y3289267D01*
X5650941Y3263875D01*
X5625550D01*
X5650941D01*
X5676333Y3238483D01*
Y3213092D01*
X5650941Y3187700D01*
X5600158D01*
X5574766Y3213092D01*
X5727117Y3187700D02*
Y3289267D01*
X5752509D01*
X5777900Y3263875D01*
Y3187700D01*
Y3263875D01*
X5803292Y3289267D01*
X5828684Y3263875D01*
Y3187700D01*
X5879468D02*
Y3289267D01*
X5904859D01*
X5930251Y3263875D01*
Y3187700D01*
Y3263875D01*
X5955643Y3289267D01*
X5981035Y3263875D01*
Y3187700D01*
X3822700Y4432251D02*
X3924267D01*
X3873483D01*
Y4279900D01*
X3975051Y4432251D02*
Y4279900D01*
Y4356075D01*
X4076618D01*
Y4432251D01*
Y4279900D01*
X4127401Y4432251D02*
X4178185D01*
X4152793D01*
Y4279900D01*
X4127401D01*
X4178185D01*
X4254360D02*
Y4432251D01*
X4355928Y4279900D01*
Y4432251D01*
X952500Y5295851D02*
Y5143500D01*
X1054067D01*
X1181026Y5295851D02*
X1130243D01*
X1104851Y5270459D01*
Y5168892D01*
X1130243Y5143500D01*
X1181026D01*
X1206418Y5168892D01*
Y5270459D01*
X1181026Y5295851D01*
X1257201Y5143500D02*
Y5295851D01*
X1358769Y5143500D01*
Y5295851D01*
X1511119Y5270459D02*
X1485728Y5295851D01*
X1434944D01*
X1409552Y5270459D01*
Y5168892D01*
X1434944Y5143500D01*
X1485728D01*
X1511119Y5168892D01*
Y5219675D01*
X1460336D01*
X1714254Y5295851D02*
X1815821D01*
X1765037D01*
Y5143500D01*
X1866604D02*
Y5295851D01*
X1942780D01*
X1968172Y5270459D01*
Y5219675D01*
X1942780Y5194283D01*
X1866604D01*
X1917388D02*
X1968172Y5143500D01*
X2018955D02*
Y5245067D01*
X2069739Y5295851D01*
X2120522Y5245067D01*
Y5143500D01*
Y5219675D01*
X2018955D01*
X2272873Y5270459D02*
X2247481Y5295851D01*
X2196698D01*
X2171306Y5270459D01*
Y5168892D01*
X2196698Y5143500D01*
X2247481D01*
X2272873Y5168892D01*
X2425224Y5295851D02*
X2323657D01*
Y5143500D01*
X2425224D01*
X2323657Y5219675D02*
X2374440D01*
X2577574Y5270459D02*
X2552183Y5295851D01*
X2501399D01*
X2476007Y5270459D01*
Y5245067D01*
X2501399Y5219675D01*
X2552183D01*
X2577574Y5194283D01*
Y5168892D01*
X2552183Y5143500D01*
X2501399D01*
X2476007Y5168892D01*
X1117567Y9474159D02*
X1092175Y9499551D01*
X1041392D01*
X1016000Y9474159D01*
Y9448767D01*
X1041392Y9423375D01*
X1092175D01*
X1117567Y9397983D01*
Y9372592D01*
X1092175Y9347200D01*
X1041392D01*
X1016000Y9372592D01*
X1168351Y9499551D02*
Y9347200D01*
Y9423375D01*
X1269918D01*
Y9499551D01*
Y9347200D01*
X1396877Y9499551D02*
X1346093D01*
X1320701Y9474159D01*
Y9372592D01*
X1346093Y9347200D01*
X1396877D01*
X1422269Y9372592D01*
Y9474159D01*
X1396877Y9499551D01*
X1473052Y9347200D02*
Y9499551D01*
X1549228D01*
X1574619Y9474159D01*
Y9423375D01*
X1549228Y9397983D01*
X1473052D01*
X1523836D02*
X1574619Y9347200D01*
X1625403Y9499551D02*
X1726970D01*
X1676186D01*
Y9347200D01*
X1930104Y9499551D02*
X2031672D01*
X1980888D01*
Y9347200D01*
X2082455D02*
Y9499551D01*
X2158630D01*
X2184022Y9474159D01*
Y9423375D01*
X2158630Y9397983D01*
X2082455D01*
X2133239D02*
X2184022Y9347200D01*
X2234806D02*
Y9448767D01*
X2285589Y9499551D01*
X2336373Y9448767D01*
Y9347200D01*
Y9423375D01*
X2234806D01*
X2488724Y9474159D02*
X2463332Y9499551D01*
X2412548D01*
X2387157Y9474159D01*
Y9372592D01*
X2412548Y9347200D01*
X2463332D01*
X2488724Y9372592D01*
X2641074Y9499551D02*
X2539507D01*
Y9347200D01*
X2641074D01*
X2539507Y9423375D02*
X2590291D01*
X2793425Y9474159D02*
X2768033Y9499551D01*
X2717250D01*
X2691858Y9474159D01*
Y9448767D01*
X2717250Y9423375D01*
X2768033D01*
X2793425Y9397983D01*
Y9372592D01*
X2768033Y9347200D01*
X2717250D01*
X2691858Y9372592D01*
X14015720Y8719820D02*
Y8872171D01*
X14091895D01*
X14117287Y8846779D01*
Y8795995D01*
X14091895Y8770603D01*
X14015720D01*
X14269638Y8719820D02*
X14168071D01*
X14269638Y8821387D01*
Y8846779D01*
X14244246Y8872171D01*
X14193463D01*
X14168071Y8846779D01*
X4531327Y8288061D02*
X4505935Y8262669D01*
X4455152D01*
X4429760Y8288061D01*
Y8389628D01*
X4455152Y8415020D01*
X4505935D01*
X4531327Y8389628D01*
X4582111Y8288061D02*
X4607503Y8262669D01*
X4658286D01*
X4683678Y8288061D01*
Y8313453D01*
X4658286Y8338845D01*
X4632894D01*
X4658286D01*
X4683678Y8364237D01*
Y8389628D01*
X4658286Y8415020D01*
X4607503D01*
X4582111Y8389628D01*
X3284220Y8658811D02*
Y8531852D01*
X3309612Y8506460D01*
X3360395D01*
X3385787Y8531852D01*
Y8658811D01*
X3436571Y8506460D02*
X3487354D01*
X3461963D01*
Y8658811D01*
X3436571Y8633419D01*
X10642600Y9370011D02*
Y9344619D01*
X10693383Y9293835D01*
X10744167Y9344619D01*
Y9370011D01*
X10693383Y9293835D02*
Y9217660D01*
X10794951Y9344619D02*
X10820343Y9370011D01*
X10871126D01*
X10896518Y9344619D01*
Y9319227D01*
X10871126Y9293835D01*
X10896518Y9268443D01*
Y9243052D01*
X10871126Y9217660D01*
X10820343D01*
X10794951Y9243052D01*
Y9268443D01*
X10820343Y9293835D01*
X10794951Y9319227D01*
Y9344619D01*
X10820343Y9293835D02*
X10871126D01*
X11336020Y7810451D02*
Y7785059D01*
X11386803Y7734275D01*
X11437587Y7785059D01*
Y7810451D01*
X11386803Y7734275D02*
Y7658100D01*
X11488371Y7810451D02*
X11589938D01*
Y7785059D01*
X11488371Y7683492D01*
Y7658100D01*
X7786339Y9222691D02*
Y9197299D01*
X7837123Y9146515D01*
X7887906Y9197299D01*
Y9222691D01*
X7837123Y9146515D02*
Y9070340D01*
X8040257Y9222691D02*
X7989473Y9197299D01*
X7938690Y9146515D01*
Y9095732D01*
X7964082Y9070340D01*
X8014865D01*
X8040257Y9095732D01*
Y9121123D01*
X8014865Y9146515D01*
X7938690D01*
X7800355Y6898591D02*
Y6873199D01*
X7851138Y6822415D01*
X7901922Y6873199D01*
Y6898591D01*
X7851138Y6822415D02*
Y6746240D01*
X8054273Y6898591D02*
X7952706D01*
Y6822415D01*
X8003489Y6847807D01*
X8028881D01*
X8054273Y6822415D01*
Y6771632D01*
X8028881Y6746240D01*
X7978098D01*
X7952706Y6771632D01*
X2019341Y2806675D02*
Y2781283D01*
X2070125Y2730500D01*
X2120908Y2781283D01*
Y2806675D01*
X2070125Y2730500D02*
Y2654325D01*
X2247867D02*
Y2806675D01*
X2171692Y2730500D01*
X2273259D01*
X1932940Y4742131D02*
Y4716739D01*
X1983723Y4665955D01*
X2034507Y4716739D01*
Y4742131D01*
X1983723Y4665955D02*
Y4589780D01*
X2085291Y4716739D02*
X2110683Y4742131D01*
X2161466D01*
X2186858Y4716739D01*
Y4691347D01*
X2161466Y4665955D01*
X2136074D01*
X2161466D01*
X2186858Y4640563D01*
Y4615172D01*
X2161466Y4589780D01*
X2110683D01*
X2085291Y4615172D01*
X5676941Y8229575D02*
Y8204183D01*
X5727725Y8153400D01*
X5778508Y8204183D01*
Y8229575D01*
X5727725Y8153400D02*
Y8077225D01*
X5930859D02*
X5829292D01*
X5930859Y8178792D01*
Y8204183D01*
X5905467Y8229575D01*
X5854684D01*
X5829292Y8204183D01*
X1498633Y8229575D02*
Y8204183D01*
X1549417Y8153400D01*
X1600200Y8204183D01*
Y8229575D01*
X1549417Y8153400D02*
Y8077225D01*
X1650984D02*
X1701767D01*
X1676376D01*
Y8229575D01*
X1650984Y8204183D01*
X9621520Y8785811D02*
Y8658852D01*
X9646912Y8633460D01*
X9697695D01*
X9723087Y8658852D01*
Y8785811D01*
X9875438Y8633460D02*
X9773871D01*
X9875438Y8735027D01*
Y8760419D01*
X9850046Y8785811D01*
X9799263D01*
X9773871Y8760419D01*
X10845841Y8305825D02*
Y8458175D01*
X10922017D01*
X10947408Y8432783D01*
Y8382000D01*
X10922017Y8356608D01*
X10845841D01*
X10896625D02*
X10947408Y8305825D01*
X10998192Y8432783D02*
X11023584Y8458175D01*
X11074367D01*
X11099759Y8432783D01*
Y8407392D01*
X11074367Y8382000D01*
X11099759Y8356608D01*
Y8331217D01*
X11074367Y8305825D01*
X11023584D01*
X10998192Y8331217D01*
Y8356608D01*
X11023584Y8382000D01*
X10998192Y8407392D01*
Y8432783D01*
X11023584Y8382000D02*
X11074367D01*
X11264875Y7035841D02*
X11112525D01*
Y7112017D01*
X11137917Y7137408D01*
X11188700D01*
X11214092Y7112017D01*
Y7035841D01*
Y7086625D02*
X11264875Y7137408D01*
X11112525Y7188192D02*
Y7289759D01*
X11137917D01*
X11239483Y7188192D01*
X11264875D01*
X8470875Y9067841D02*
X8318525D01*
Y9144017D01*
X8343917Y9169408D01*
X8394700D01*
X8420092Y9144017D01*
Y9067841D01*
Y9118625D02*
X8470875Y9169408D01*
X8318525Y9321759D02*
X8343917Y9270975D01*
X8394700Y9220192D01*
X8445483D01*
X8470875Y9245584D01*
Y9296367D01*
X8445483Y9321759D01*
X8420092D01*
X8394700Y9296367D01*
Y9220192D01*
X8521675Y6769141D02*
X8369325D01*
Y6845317D01*
X8394717Y6870708D01*
X8445500D01*
X8470892Y6845317D01*
Y6769141D01*
Y6819925D02*
X8521675Y6870708D01*
X8369325Y7023059D02*
Y6921492D01*
X8445500D01*
X8420108Y6972275D01*
Y6997667D01*
X8445500Y7023059D01*
X8496283D01*
X8521675Y6997667D01*
Y6946884D01*
X8496283Y6921492D01*
X2518405Y2959059D02*
X2670756D01*
Y2882883D01*
X2645364Y2857492D01*
X2594581D01*
X2569189Y2882883D01*
Y2959059D01*
Y2908275D02*
X2518405Y2857492D01*
Y2730533D02*
X2670756D01*
X2594581Y2806708D01*
Y2705141D01*
X2628875Y4597441D02*
X2476525D01*
Y4673617D01*
X2501917Y4699008D01*
X2552700D01*
X2578092Y4673617D01*
Y4597441D01*
Y4648225D02*
X2628875Y4699008D01*
X2501917Y4749792D02*
X2476525Y4775184D01*
Y4825967D01*
X2501917Y4851359D01*
X2527308D01*
X2552700Y4825967D01*
Y4800575D01*
Y4825967D01*
X2578092Y4851359D01*
X2603483D01*
X2628875Y4825967D01*
Y4775184D01*
X2603483Y4749792D01*
X5270541Y6565925D02*
Y6718275D01*
X5346717D01*
X5372108Y6692883D01*
Y6642100D01*
X5346717Y6616708D01*
X5270541D01*
X5321325D02*
X5372108Y6565925D01*
X5524459D02*
X5422892D01*
X5524459Y6667492D01*
Y6692883D01*
X5499067Y6718275D01*
X5448284D01*
X5422892Y6692883D01*
X2019333Y8140725D02*
Y8293075D01*
X2095508D01*
X2120900Y8267683D01*
Y8216900D01*
X2095508Y8191508D01*
X2019333D01*
X2070117D02*
X2120900Y8140725D01*
X2171684D02*
X2222467D01*
X2197076D01*
Y8293075D01*
X2171684Y8267683D01*
X10459720Y4833620D02*
Y4985971D01*
X10535895D01*
X10561287Y4960579D01*
Y4909795D01*
X10535895Y4884403D01*
X10459720D01*
X10612071Y4833620D02*
X10662854D01*
X10637463D01*
Y4985971D01*
X10612071Y4960579D01*
X11811029Y8102583D02*
X11785637Y8127975D01*
X11734854D01*
X11709462Y8102583D01*
Y8001017D01*
X11734854Y7975625D01*
X11785637D01*
X11811029Y8001017D01*
X11861812Y7975625D02*
X11912596D01*
X11887204D01*
Y8127975D01*
X11861812Y8102583D01*
X12090339Y8127975D02*
X12039555Y8102583D01*
X11988771Y8051800D01*
Y8001017D01*
X12014163Y7975625D01*
X12064947D01*
X12090339Y8001017D01*
Y8026408D01*
X12064947Y8051800D01*
X11988771D01*
X10833129Y8115283D02*
X10807737Y8140675D01*
X10756954D01*
X10731562Y8115283D01*
Y8013717D01*
X10756954Y7988325D01*
X10807737D01*
X10833129Y8013717D01*
X10883912Y7988325D02*
X10934696D01*
X10909304D01*
Y8140675D01*
X10883912Y8115283D01*
X11112439Y8140675D02*
X11010871D01*
Y8064500D01*
X11061655Y8089892D01*
X11087047D01*
X11112439Y8064500D01*
Y8013717D01*
X11087047Y7988325D01*
X11036263D01*
X11010871Y8013717D01*
X10833116Y7137429D02*
X10807724Y7112037D01*
Y7061253D01*
X10833116Y7035861D01*
X10934683D01*
X10960075Y7061253D01*
Y7112037D01*
X10934683Y7137429D01*
X10960075Y7188212D02*
Y7238996D01*
Y7213604D01*
X10807724D01*
X10833116Y7188212D01*
X10960075Y7391346D02*
X10807724D01*
X10883900Y7315171D01*
Y7416738D01*
X10833116Y6147303D02*
X10807724Y6121911D01*
Y6071128D01*
X10833116Y6045736D01*
X10934683D01*
X10960075Y6071128D01*
Y6121911D01*
X10934683Y6147303D01*
X10960075Y6198087D02*
Y6248870D01*
Y6223479D01*
X10807724D01*
X10833116Y6198087D01*
Y6325046D02*
X10807724Y6350437D01*
Y6401221D01*
X10833116Y6426613D01*
X10858508D01*
X10883900Y6401221D01*
Y6375829D01*
Y6401221D01*
X10909292Y6426613D01*
X10934683D01*
X10960075Y6401221D01*
Y6350437D01*
X10934683Y6325046D01*
X8709627Y8249879D02*
X8684235Y8275271D01*
X8633452D01*
X8608060Y8249879D01*
Y8148312D01*
X8633452Y8122920D01*
X8684235D01*
X8709627Y8148312D01*
X8760411Y8122920D02*
X8811194D01*
X8785803D01*
Y8275271D01*
X8760411Y8249879D01*
X8988937Y8122920D02*
X8887370D01*
X8988937Y8224487D01*
Y8249879D01*
X8963545Y8275271D01*
X8912761D01*
X8887370Y8249879D01*
X8709627Y9316679D02*
X8684235Y9342071D01*
X8633452D01*
X8608060Y9316679D01*
Y9215112D01*
X8633452Y9189720D01*
X8684235D01*
X8709627Y9215112D01*
X8760411Y9189720D02*
X8811194D01*
X8785803D01*
Y9342071D01*
X8760411Y9316679D01*
X8887370Y9189720D02*
X8938153D01*
X8912761D01*
Y9342071D01*
X8887370Y9316679D01*
X8722327Y6992579D02*
X8696935Y7017971D01*
X8646152D01*
X8620760Y6992579D01*
Y6891012D01*
X8646152Y6865620D01*
X8696935D01*
X8722327Y6891012D01*
X8773111Y6865620D02*
X8823894D01*
X8798503D01*
Y7017971D01*
X8773111Y6992579D01*
X8900070D02*
X8925461Y7017971D01*
X8976245D01*
X9001637Y6992579D01*
Y6891012D01*
X8976245Y6865620D01*
X8925461D01*
X8900070Y6891012D01*
Y6992579D01*
X8722327Y5951179D02*
X8696935Y5976571D01*
X8646152D01*
X8620760Y5951179D01*
Y5849612D01*
X8646152Y5824220D01*
X8696935D01*
X8722327Y5849612D01*
X8773111D02*
X8798503Y5824220D01*
X8849286D01*
X8874678Y5849612D01*
Y5951179D01*
X8849286Y5976571D01*
X8798503D01*
X8773111Y5951179D01*
Y5925787D01*
X8798503Y5900395D01*
X8874678D01*
X2880327Y2941279D02*
X2854935Y2966671D01*
X2804152D01*
X2778760Y2941279D01*
Y2839712D01*
X2804152Y2814320D01*
X2854935D01*
X2880327Y2839712D01*
X2931111Y2941279D02*
X2956503Y2966671D01*
X3007286D01*
X3032678Y2941279D01*
Y2915887D01*
X3007286Y2890495D01*
X3032678Y2865103D01*
Y2839712D01*
X3007286Y2814320D01*
X2956503D01*
X2931111Y2839712D01*
Y2865103D01*
X2956503Y2890495D01*
X2931111Y2915887D01*
Y2941279D01*
X2956503Y2890495D02*
X3007286D01*
X2880327Y1861779D02*
X2854935Y1887171D01*
X2804152D01*
X2778760Y1861779D01*
Y1760212D01*
X2804152Y1734820D01*
X2854935D01*
X2880327Y1760212D01*
X2931111Y1887171D02*
X3032678D01*
Y1861779D01*
X2931111Y1760212D01*
Y1734820D01*
X2867627Y4897079D02*
X2842235Y4922471D01*
X2791452D01*
X2766060Y4897079D01*
Y4795512D01*
X2791452Y4770120D01*
X2842235D01*
X2867627Y4795512D01*
X3019978Y4922471D02*
X2969194Y4897079D01*
X2918411Y4846295D01*
Y4795512D01*
X2943803Y4770120D01*
X2994586D01*
X3019978Y4795512D01*
Y4820903D01*
X2994586Y4846295D01*
X2918411D01*
X2854927Y3817579D02*
X2829535Y3842971D01*
X2778752D01*
X2753360Y3817579D01*
Y3716012D01*
X2778752Y3690620D01*
X2829535D01*
X2854927Y3716012D01*
X3007278Y3842971D02*
X2905711D01*
Y3766795D01*
X2956494Y3792187D01*
X2981886D01*
X3007278Y3766795D01*
Y3716012D01*
X2981886Y3690620D01*
X2931103D01*
X2905711Y3716012D01*
X4546608Y7315183D02*
X4521217Y7340575D01*
X4470433D01*
X4445041Y7315183D01*
Y7213617D01*
X4470433Y7188225D01*
X4521217D01*
X4546608Y7213617D01*
X4673567Y7188225D02*
Y7340575D01*
X4597392Y7264400D01*
X4698959D01*
X2463808Y7277083D02*
X2438417Y7302475D01*
X2387633D01*
X2362241Y7277083D01*
Y7175517D01*
X2387633Y7150125D01*
X2438417D01*
X2463808Y7175517D01*
X2616159Y7150125D02*
X2514592D01*
X2616159Y7251692D01*
Y7277083D01*
X2590767Y7302475D01*
X2539984D01*
X2514592Y7277083D01*
X2463800Y8381983D02*
X2438408Y8407375D01*
X2387625D01*
X2362233Y8381983D01*
Y8280417D01*
X2387625Y8255025D01*
X2438408D01*
X2463800Y8280417D01*
X2514584Y8255025D02*
X2565367D01*
X2539976D01*
Y8407375D01*
X2514584Y8381983D01*
D31*
X11570802Y7909900D02*
Y8269900D01*
X11390798Y7909900D02*
X11570802D01*
X11390798D02*
Y8269900D01*
X11570802D01*
X10703900Y6793398D02*
X11063900D01*
X10703900D02*
Y6973402D01*
X11063900D01*
Y6793398D02*
Y6973402D01*
X11199200Y8485327D02*
X11559200D01*
Y8305328D02*
Y8485327D01*
X11199200Y8305328D02*
X11559200D01*
X11199200D02*
Y8485327D01*
X11354902Y7909900D02*
Y8269900D01*
X11174898Y7909900D02*
X11354902D01*
X11174898D02*
Y8269900D01*
X11354902D01*
X11099328Y6601800D02*
Y6961800D01*
X11279327D01*
Y6601800D02*
Y6961800D01*
X11099328Y6601800D02*
X11279327D01*
X10703900Y6577975D02*
X11063900D01*
X10703900D02*
Y6757975D01*
X11063900D01*
Y6577975D02*
Y6757975D01*
%TF.MD5,3b3e4f770aee338857fb319048cebf6c*%
M02*
