%TF.GenerationSoftware,Altium Limited,Altium Designer,25.8.1 (18)*%
G04 Layer_Color=0*
%FSLAX45Y45*%
%MOMM*%
%TF.SameCoordinates,96F0DE5A-C95F-4AE8-8FAC-F916EA61A14B*%
%TF.FilePolarity,Positive*%
%TF.FileFunction,Plated,1,2,PTH,Drill*%
%TF.Part,Single*%
G01*
G75*
%TA.AperFunction,OtherDrill,Pad Free-5 (4.6mm,4.6mm)*%
%ADD49C,3.50000*%
%TA.AperFunction,ComponentDrill*%
%ADD50C,1.10000*%
%ADD51C,0.70000*%
%ADD52C,0.80000*%
%ADD53C,0.90000*%
%TA.AperFunction,ViaDrill,NotFilled*%
%ADD54C,0.71120*%
D49*
X460000Y460000D02*
D03*
D50*
X14147800Y6654800D02*
D03*
Y6908800D02*
D03*
Y7416800D02*
D03*
Y7924800D02*
D03*
Y8432800D02*
D03*
Y8178800D02*
D03*
Y7670800D02*
D03*
Y7162800D02*
D03*
Y6400800D02*
D03*
Y6146800D02*
D03*
X10591800Y2768600D02*
D03*
Y3022600D02*
D03*
Y3530600D02*
D03*
Y4038600D02*
D03*
Y4546600D02*
D03*
Y4292600D02*
D03*
Y3784600D02*
D03*
Y3276600D02*
D03*
Y2514600D02*
D03*
Y2260600D02*
D03*
D51*
X8426420Y8909299D02*
D03*
Y7829301D02*
D03*
X8439135Y5517901D02*
D03*
Y6597899D02*
D03*
X2571735Y4476999D02*
D03*
Y3397001D02*
D03*
X2184400Y1762603D02*
D03*
Y2250603D02*
D03*
X2594580Y2533899D02*
D03*
Y1453901D02*
D03*
X2152635Y6902201D02*
D03*
Y7982199D02*
D03*
X1701800Y7673503D02*
D03*
Y7185503D02*
D03*
X5799902Y7673503D02*
D03*
Y7185503D02*
D03*
X5380802Y6889501D02*
D03*
Y7969499D02*
D03*
X8016255Y8664103D02*
D03*
Y8176103D02*
D03*
X8028955Y5852003D02*
D03*
Y6340003D02*
D03*
X2161555Y3695700D02*
D03*
Y4183700D02*
D03*
D52*
X8754298Y5537200D02*
D03*
X9254302D02*
D03*
X8754298Y6578600D02*
D03*
X9254302D02*
D03*
X2467798Y6883400D02*
D03*
X2967802D02*
D03*
X2467798Y7975600D02*
D03*
X2967802D02*
D03*
X4563298D02*
D03*
X5063302D02*
D03*
Y6896100D02*
D03*
X4563298D02*
D03*
X2899598Y4483100D02*
D03*
X3399602D02*
D03*
X2886898Y3403600D02*
D03*
X3386902D02*
D03*
X2912298Y1447800D02*
D03*
X3412302D02*
D03*
X8741598Y8902700D02*
D03*
X9241602D02*
D03*
X2912298Y2527300D02*
D03*
X3412302D02*
D03*
X8741598Y7835900D02*
D03*
X9241602D02*
D03*
D53*
X3365500Y8178800D02*
D03*
Y7924800D02*
D03*
Y7670800D02*
D03*
Y7416800D02*
D03*
Y7162800D02*
D03*
Y6908800D02*
D03*
Y6654800D02*
D03*
X4127500Y8178800D02*
D03*
Y7924800D02*
D03*
Y7670800D02*
D03*
Y7416800D02*
D03*
Y7162800D02*
D03*
Y6908800D02*
D03*
Y6654800D02*
D03*
X10464800Y6781800D02*
D03*
Y7035800D02*
D03*
Y7289800D02*
D03*
Y7543800D02*
D03*
Y7797800D02*
D03*
Y8051800D02*
D03*
Y8305800D02*
D03*
X9702800Y6781800D02*
D03*
Y7035800D02*
D03*
Y7289800D02*
D03*
Y7543800D02*
D03*
Y7797800D02*
D03*
Y8051800D02*
D03*
Y8305800D02*
D03*
D54*
X11125200Y7861300D02*
D03*
X10680700Y6997700D02*
D03*
X11684000Y8191500D02*
D03*
X8839200Y1752600D02*
D03*
Y2146300D02*
D03*
X8813800Y3848100D02*
D03*
X8801100Y4165600D02*
D03*
%TF.MD5,62c609b54f6d7132f3e296aa90b525b2*%
M02*
