%TF.GenerationSoftware,Altium Limited,Altium Designer,25.8.1 (18)*%
G04 Layer_Physical_Order=2*
G04 Layer_Color=16711680*
%FSLAX45Y45*%
%MOMM*%
%TF.SameCoordinates,96F0DE5A-C95F-4AE8-8FAC-F916EA61A14B*%
%TF.FilePolarity,Positive*%
%TF.FileFunction,Copper,L2,Bot,Signal*%
%TF.Part,Single*%
G01*
G75*
%TA.AperFunction,Conductor*%
%ADD14C,0.50000*%
%TA.AperFunction,WasherPad*%
%ADD17C,4.00000*%
%TA.AperFunction,ComponentPad*%
%ADD18C,1.60000*%
G04:AMPARAMS|DCode=19|XSize=1.6mm|YSize=1.6mm|CornerRadius=0.4mm|HoleSize=0mm|Usage=FLASHONLY|Rotation=270.000|XOffset=0mm|YOffset=0mm|HoleType=Round|Shape=RoundedRectangle|*
%AMROUNDEDRECTD19*
21,1,1.60000,0.80000,0,0,270.0*
21,1,0.80000,1.60000,0,0,270.0*
1,1,0.80000,-0.40000,-0.40000*
1,1,0.80000,-0.40000,0.40000*
1,1,0.80000,0.40000,0.40000*
1,1,0.80000,0.40000,-0.40000*
%
%ADD19ROUNDEDRECTD19*%
%ADD20C,1.52400*%
%ADD21C,1.70000*%
%ADD22C,1.20000*%
%ADD23R,1.50000X1.50000*%
%ADD24C,1.50000*%
%TA.AperFunction,ViaPad*%
%ADD25C,1.27000*%
G36*
X15239999Y0D02*
X0D01*
Y10160000D01*
X15239999D01*
Y0D01*
D02*
G37*
%LPC*%
G36*
X14482201Y9885400D02*
X14437801D01*
X14394254Y9876738D01*
X14353233Y9859747D01*
X14316316Y9835080D01*
X14284920Y9803684D01*
X14260252Y9766767D01*
X14243262Y9725747D01*
X14234599Y9682200D01*
Y9637800D01*
X14243262Y9594253D01*
X14260252Y9553233D01*
X14284920Y9516316D01*
X14316316Y9484920D01*
X14353233Y9460253D01*
X14394254Y9443262D01*
X14437801Y9434600D01*
X14482201D01*
X14525748Y9443262D01*
X14566766Y9460253D01*
X14603683Y9484920D01*
X14635080Y9516316D01*
X14659747Y9553233D01*
X14676738Y9594253D01*
X14685400Y9637800D01*
Y9682200D01*
X14676738Y9725747D01*
X14659747Y9766767D01*
X14635080Y9803684D01*
X14603683Y9835080D01*
X14566766Y9859747D01*
X14525748Y9876738D01*
X14482201Y9885400D01*
D02*
G37*
G36*
X482200D02*
X437800D01*
X394253Y9876738D01*
X353233Y9859747D01*
X316316Y9835080D01*
X284920Y9803684D01*
X260253Y9766767D01*
X243262Y9725747D01*
X234600Y9682200D01*
Y9637800D01*
X243262Y9594253D01*
X260253Y9553233D01*
X284920Y9516316D01*
X316316Y9484920D01*
X353233Y9460253D01*
X394253Y9443262D01*
X437800Y9434600D01*
X482200D01*
X525747Y9443262D01*
X566767Y9460253D01*
X603684Y9484920D01*
X635080Y9516316D01*
X659747Y9553233D01*
X676738Y9594253D01*
X685400Y9637800D01*
Y9682200D01*
X676738Y9725747D01*
X659747Y9766767D01*
X635080Y9803684D01*
X603684Y9835080D01*
X566767Y9859747D01*
X525747Y9876738D01*
X482200Y9885400D01*
D02*
G37*
G36*
X9256136Y9013100D02*
X9254302D01*
Y8915400D01*
X9352002D01*
Y8917234D01*
X9344478Y8945313D01*
X9329944Y8970487D01*
X9309389Y8991042D01*
X9284215Y9005576D01*
X9256136Y9013100D01*
D02*
G37*
G36*
X9228902D02*
X9227068D01*
X9198989Y9005576D01*
X9173815Y8991042D01*
X9153260Y8970487D01*
X9138726Y8945313D01*
X9131202Y8917234D01*
Y8915400D01*
X9228902D01*
Y9013100D01*
D02*
G37*
G36*
X8439795Y9010899D02*
X8413044D01*
X8387203Y9003975D01*
X8364036Y8990599D01*
X8345119Y8971683D01*
X8331743Y8948515D01*
X8324820Y8922675D01*
Y8895923D01*
X8331743Y8870083D01*
X8345119Y8846915D01*
X8364036Y8827999D01*
X8387203Y8814623D01*
X8413044Y8807699D01*
X8439795D01*
X8465636Y8814623D01*
X8488803Y8827999D01*
X8507720Y8846915D01*
X8521096Y8870083D01*
X8528020Y8895923D01*
Y8922675D01*
X8521096Y8948515D01*
X8507720Y8971683D01*
X8488803Y8990599D01*
X8465636Y9003975D01*
X8439795Y9010899D01*
D02*
G37*
G36*
X9352002Y8890000D02*
X9254302D01*
Y8792300D01*
X9256136D01*
X9284215Y8799824D01*
X9309389Y8814358D01*
X9329944Y8834913D01*
X9344478Y8860087D01*
X9352002Y8888166D01*
Y8890000D01*
D02*
G37*
G36*
X9228902D02*
X9131202D01*
Y8888166D01*
X9138726Y8860087D01*
X9153260Y8834913D01*
X9173815Y8814358D01*
X9198989Y8799824D01*
X9227068Y8792300D01*
X9228902D01*
Y8890000D01*
D02*
G37*
G36*
X8756132Y9013100D02*
X8727064D01*
X8698985Y9005576D01*
X8673811Y8991042D01*
X8653256Y8970487D01*
X8638722Y8945313D01*
X8631198Y8917234D01*
Y8888166D01*
X8638722Y8860087D01*
X8653256Y8834913D01*
X8673811Y8814358D01*
X8698985Y8799824D01*
X8727064Y8792300D01*
X8756132D01*
X8784211Y8799824D01*
X8809385Y8814358D01*
X8829940Y8834913D01*
X8844474Y8860087D01*
X8851998Y8888166D01*
Y8917234D01*
X8844474Y8945313D01*
X8829940Y8970487D01*
X8809385Y8991042D01*
X8784211Y9005576D01*
X8756132Y9013100D01*
D02*
G37*
G36*
X8027498Y8749502D02*
X8005012D01*
X7983292Y8743683D01*
X7963818Y8732439D01*
X7947918Y8716539D01*
X7936675Y8697066D01*
X7930855Y8675346D01*
Y8652860D01*
X7936675Y8631139D01*
X7947918Y8611666D01*
X7963818Y8595766D01*
X7983292Y8584523D01*
X8005012Y8578703D01*
X8027498D01*
X8049218Y8584523D01*
X8068692Y8595766D01*
X8084592Y8611666D01*
X8095835Y8631139D01*
X8101655Y8652860D01*
Y8675346D01*
X8095835Y8697066D01*
X8084592Y8716539D01*
X8068692Y8732439D01*
X8049218Y8743683D01*
X8027498Y8749502D01*
D02*
G37*
G36*
X14187801Y8538764D02*
X14107800D01*
X14090727Y8536517D01*
X14074818Y8529927D01*
X14061156Y8519444D01*
X14050673Y8505782D01*
X14044083Y8489873D01*
X14041837Y8472800D01*
Y8392800D01*
X14044083Y8375727D01*
X14050673Y8359818D01*
X14061156Y8346156D01*
X14074818Y8335673D01*
X14090727Y8329083D01*
X14107800Y8326836D01*
X14187801D01*
X14204874Y8329083D01*
X14220782Y8335673D01*
X14234444Y8346156D01*
X14244926Y8359818D01*
X14251517Y8375727D01*
X14253764Y8392800D01*
Y8472800D01*
X14251517Y8489873D01*
X14244926Y8505782D01*
X14234444Y8519444D01*
X14220782Y8529927D01*
X14204874Y8536517D01*
X14187801Y8538764D01*
D02*
G37*
G36*
X10478018Y8406200D02*
X10451582D01*
X10426047Y8399358D01*
X10403153Y8386140D01*
X10384460Y8367447D01*
X10371242Y8344553D01*
X10364400Y8319018D01*
Y8292582D01*
X10371242Y8267047D01*
X10384460Y8244153D01*
X10403153Y8225460D01*
X10426047Y8212242D01*
X10451582Y8205400D01*
X10478018D01*
X10503553Y8212242D01*
X10526447Y8225460D01*
X10545140Y8244153D01*
X10558358Y8267047D01*
X10565200Y8292582D01*
Y8319018D01*
X10558358Y8344553D01*
X10545140Y8367447D01*
X10526447Y8386140D01*
X10503553Y8399358D01*
X10478018Y8406200D01*
D02*
G37*
G36*
X9803200D02*
X9602400D01*
Y8205400D01*
X9803200D01*
Y8406200D01*
D02*
G37*
G36*
X8027498Y8261502D02*
X8005012D01*
X7983292Y8255682D01*
X7963818Y8244439D01*
X7947918Y8228539D01*
X7936675Y8209066D01*
X7930855Y8187346D01*
Y8164859D01*
X7936675Y8143139D01*
X7947918Y8123666D01*
X7963818Y8107766D01*
X7983292Y8096523D01*
X8005012Y8090703D01*
X8027498D01*
X8049218Y8096523D01*
X8068692Y8107766D01*
X8084592Y8123666D01*
X8095835Y8143139D01*
X8101655Y8164859D01*
Y8187346D01*
X8095835Y8209066D01*
X8084592Y8228539D01*
X8068692Y8244439D01*
X8049218Y8255682D01*
X8027498Y8261502D01*
D02*
G37*
G36*
X4140718Y8279200D02*
X4114282D01*
X4088747Y8272358D01*
X4065853Y8259140D01*
X4047160Y8240447D01*
X4033942Y8217553D01*
X4027100Y8192018D01*
Y8165582D01*
X4033942Y8140047D01*
X4047160Y8117153D01*
X4065853Y8098460D01*
X4088747Y8085242D01*
X4114282Y8078400D01*
X4140718D01*
X4166253Y8085242D01*
X4189147Y8098460D01*
X4207840Y8117153D01*
X4221058Y8140047D01*
X4227900Y8165582D01*
Y8192018D01*
X4221058Y8217553D01*
X4207840Y8240447D01*
X4189147Y8259140D01*
X4166253Y8272358D01*
X4140718Y8279200D01*
D02*
G37*
G36*
X3465900D02*
X3265100D01*
Y8078400D01*
X3465900D01*
Y8279200D01*
D02*
G37*
G36*
X14161676Y8284200D02*
X14133923D01*
X14107117Y8277017D01*
X14083083Y8263141D01*
X14063458Y8243517D01*
X14049583Y8219483D01*
X14042400Y8192676D01*
Y8164924D01*
X14049583Y8138117D01*
X14063458Y8114083D01*
X14083083Y8094459D01*
X14107117Y8080583D01*
X14133923Y8073400D01*
X14161676D01*
X14188483Y8080583D01*
X14212517Y8094459D01*
X14232141Y8114083D01*
X14246017Y8138117D01*
X14253200Y8164924D01*
Y8192676D01*
X14246017Y8219483D01*
X14232141Y8243517D01*
X14212517Y8263141D01*
X14188483Y8277017D01*
X14161676Y8284200D01*
D02*
G37*
G36*
X4577832Y8086000D02*
X4575998D01*
Y7988300D01*
X4673698D01*
Y7990134D01*
X4666174Y8018213D01*
X4651640Y8043387D01*
X4631085Y8063942D01*
X4605911Y8078476D01*
X4577832Y8086000D01*
D02*
G37*
G36*
X2982336D02*
X2980502D01*
Y7988300D01*
X3078202D01*
Y7990134D01*
X3070678Y8018213D01*
X3056144Y8043387D01*
X3035589Y8063942D01*
X3010415Y8078476D01*
X2982336Y8086000D01*
D02*
G37*
G36*
X2955102D02*
X2953268D01*
X2925189Y8078476D01*
X2900015Y8063942D01*
X2879460Y8043387D01*
X2864926Y8018213D01*
X2857402Y7990134D01*
Y7988300D01*
X2955102D01*
Y8086000D01*
D02*
G37*
G36*
X4550598D02*
X4548764D01*
X4520685Y8078476D01*
X4495511Y8063942D01*
X4474956Y8043387D01*
X4460422Y8018213D01*
X4452898Y7990134D01*
Y7988300D01*
X4550598D01*
Y8086000D01*
D02*
G37*
G36*
X10478018Y8152200D02*
X10451582D01*
X10426047Y8145358D01*
X10403153Y8132140D01*
X10384460Y8113447D01*
X10371242Y8090553D01*
X10364400Y8065018D01*
Y8038582D01*
X10371242Y8013047D01*
X10384460Y7990153D01*
X10403153Y7971460D01*
X10426047Y7958242D01*
X10451582Y7951400D01*
X10478018D01*
X10503553Y7958242D01*
X10526447Y7971460D01*
X10545140Y7990153D01*
X10558358Y8013047D01*
X10565200Y8038582D01*
Y8065018D01*
X10558358Y8090553D01*
X10545140Y8113447D01*
X10526447Y8132140D01*
X10503553Y8145358D01*
X10478018Y8152200D01*
D02*
G37*
G36*
X9716018D02*
X9689582D01*
X9664047Y8145358D01*
X9641153Y8132140D01*
X9622460Y8113447D01*
X9609242Y8090553D01*
X9602400Y8065018D01*
Y8038582D01*
X9609242Y8013047D01*
X9622460Y7990153D01*
X9641153Y7971460D01*
X9664047Y7958242D01*
X9689582Y7951400D01*
X9716018D01*
X9741553Y7958242D01*
X9764447Y7971460D01*
X9783140Y7990153D01*
X9796358Y8013047D01*
X9803200Y8038582D01*
Y8065018D01*
X9796358Y8090553D01*
X9783140Y8113447D01*
X9764447Y8132140D01*
X9741553Y8145358D01*
X9716018Y8152200D01*
D02*
G37*
G36*
X2166011Y8083799D02*
X2139259D01*
X2113419Y8076875D01*
X2090251Y8063499D01*
X2071334Y8044583D01*
X2057959Y8021415D01*
X2051035Y7995575D01*
Y7968823D01*
X2057959Y7942983D01*
X2071334Y7919815D01*
X2090251Y7900899D01*
X2113419Y7887523D01*
X2139259Y7880599D01*
X2166011D01*
X2191851Y7887523D01*
X2215019Y7900899D01*
X2233935Y7919815D01*
X2247311Y7942983D01*
X2254235Y7968823D01*
Y7995575D01*
X2247311Y8021415D01*
X2233935Y8044583D01*
X2215019Y8063499D01*
X2191851Y8076875D01*
X2166011Y8083799D01*
D02*
G37*
G36*
X11137900Y7949933D02*
Y7874000D01*
X11213833D01*
X11208042Y7895614D01*
X11196338Y7915886D01*
X11179786Y7932438D01*
X11159514Y7944142D01*
X11137900Y7949933D01*
D02*
G37*
G36*
X11112500D02*
X11090886Y7944142D01*
X11070614Y7932438D01*
X11054062Y7915886D01*
X11042358Y7895614D01*
X11036567Y7874000D01*
X11112500D01*
Y7949933D01*
D02*
G37*
G36*
X4673698Y7962900D02*
X4575998D01*
Y7865200D01*
X4577832D01*
X4605911Y7872724D01*
X4631085Y7887258D01*
X4651640Y7907813D01*
X4666174Y7932987D01*
X4673698Y7961066D01*
Y7962900D01*
D02*
G37*
G36*
X4550598D02*
X4452898D01*
Y7961066D01*
X4460422Y7932987D01*
X4474956Y7907813D01*
X4495511Y7887258D01*
X4520685Y7872724D01*
X4548764Y7865200D01*
X4550598D01*
Y7962900D01*
D02*
G37*
G36*
X3078202D02*
X2980502D01*
Y7865200D01*
X2982336D01*
X3010415Y7872724D01*
X3035589Y7887258D01*
X3056144Y7907813D01*
X3070678Y7932987D01*
X3078202Y7961066D01*
Y7962900D01*
D02*
G37*
G36*
X2955102D02*
X2857402D01*
Y7961066D01*
X2864926Y7932987D01*
X2879460Y7907813D01*
X2900015Y7887258D01*
X2925189Y7872724D01*
X2953268Y7865200D01*
X2955102D01*
Y7962900D01*
D02*
G37*
G36*
X2482332Y8086000D02*
X2453264D01*
X2425185Y8078476D01*
X2400011Y8063942D01*
X2379456Y8043387D01*
X2364922Y8018213D01*
X2357398Y7990134D01*
Y7961066D01*
X2364922Y7932987D01*
X2379456Y7907813D01*
X2400011Y7887258D01*
X2425185Y7872724D01*
X2453264Y7865200D01*
X2482332D01*
X2510411Y7872724D01*
X2535585Y7887258D01*
X2556140Y7907813D01*
X2570674Y7932987D01*
X2578198Y7961066D01*
Y7990134D01*
X2570674Y8018213D01*
X2556140Y8043387D01*
X2535585Y8063942D01*
X2510411Y8078476D01*
X2482332Y8086000D01*
D02*
G37*
G36*
X9256136Y7946300D02*
X9254302D01*
Y7848600D01*
X9352002D01*
Y7850434D01*
X9344478Y7878513D01*
X9329944Y7903687D01*
X9309389Y7924242D01*
X9284215Y7938776D01*
X9256136Y7946300D01*
D02*
G37*
G36*
X9228902D02*
X9227068D01*
X9198989Y7938776D01*
X9173815Y7924242D01*
X9153260Y7903687D01*
X9138726Y7878513D01*
X9131202Y7850434D01*
Y7848600D01*
X9228902D01*
Y7946300D01*
D02*
G37*
G36*
X3378718Y8025200D02*
X3352282D01*
X3326747Y8018358D01*
X3303853Y8005140D01*
X3285160Y7986447D01*
X3271942Y7963553D01*
X3265100Y7938018D01*
Y7911582D01*
X3271942Y7886047D01*
X3285160Y7863153D01*
X3303853Y7844460D01*
X3326747Y7831242D01*
X3352282Y7824400D01*
X3378718D01*
X3404253Y7831242D01*
X3427147Y7844460D01*
X3445840Y7863153D01*
X3459058Y7886047D01*
X3465900Y7911582D01*
Y7938018D01*
X3459058Y7963553D01*
X3445840Y7986447D01*
X3427147Y8005140D01*
X3404253Y8018358D01*
X3378718Y8025200D01*
D02*
G37*
G36*
X14161676Y8030200D02*
X14133923D01*
X14107117Y8023017D01*
X14083083Y8009141D01*
X14063458Y7989517D01*
X14049583Y7965483D01*
X14042400Y7938676D01*
Y7910924D01*
X14049583Y7884117D01*
X14063458Y7860083D01*
X14083083Y7840459D01*
X14107117Y7826583D01*
X14133923Y7819400D01*
X14161676D01*
X14188483Y7826583D01*
X14212517Y7840459D01*
X14232141Y7860083D01*
X14246017Y7884117D01*
X14253200Y7910924D01*
Y7938676D01*
X14246017Y7965483D01*
X14232141Y7989517D01*
X14212517Y8009141D01*
X14188483Y8023017D01*
X14161676Y8030200D01*
D02*
G37*
G36*
X11213833Y7848600D02*
X11137900D01*
Y7772667D01*
X11159514Y7778458D01*
X11179786Y7790162D01*
X11196338Y7806714D01*
X11208042Y7826986D01*
X11213833Y7848600D01*
D02*
G37*
G36*
X11112500D02*
X11036567D01*
X11042358Y7826986D01*
X11054062Y7806714D01*
X11070614Y7790162D01*
X11090886Y7778458D01*
X11112500Y7772667D01*
Y7848600D01*
D02*
G37*
G36*
X8439795Y7930901D02*
X8413044D01*
X8387203Y7923977D01*
X8364036Y7910601D01*
X8345119Y7891685D01*
X8331743Y7868517D01*
X8324820Y7842677D01*
Y7815925D01*
X8331743Y7790085D01*
X8345119Y7766917D01*
X8364036Y7748001D01*
X8387203Y7734625D01*
X8413044Y7727701D01*
X8439795D01*
X8465636Y7734625D01*
X8488803Y7748001D01*
X8507720Y7766917D01*
X8521096Y7790085D01*
X8528020Y7815925D01*
Y7842677D01*
X8521096Y7868517D01*
X8507720Y7891685D01*
X8488803Y7910601D01*
X8465636Y7923977D01*
X8439795Y7930901D01*
D02*
G37*
G36*
X9352002Y7823200D02*
X9254302D01*
Y7725500D01*
X9256136D01*
X9284215Y7733024D01*
X9309389Y7747558D01*
X9329944Y7768113D01*
X9344478Y7793287D01*
X9352002Y7821366D01*
Y7823200D01*
D02*
G37*
G36*
X9228902D02*
X9131202D01*
Y7821366D01*
X9138726Y7793287D01*
X9153260Y7768113D01*
X9173815Y7747558D01*
X9198989Y7733024D01*
X9227068Y7725500D01*
X9228902D01*
Y7823200D01*
D02*
G37*
G36*
X8756132Y7946300D02*
X8727064D01*
X8698985Y7938776D01*
X8673811Y7924242D01*
X8653256Y7903687D01*
X8638722Y7878513D01*
X8631198Y7850434D01*
Y7821366D01*
X8638722Y7793287D01*
X8653256Y7768113D01*
X8673811Y7747558D01*
X8698985Y7733024D01*
X8727064Y7725500D01*
X8756132D01*
X8784211Y7733024D01*
X8809385Y7747558D01*
X8829940Y7768113D01*
X8844474Y7793287D01*
X8851998Y7821366D01*
Y7850434D01*
X8844474Y7878513D01*
X8829940Y7903687D01*
X8809385Y7924242D01*
X8784211Y7938776D01*
X8756132Y7946300D01*
D02*
G37*
G36*
X5077836Y8086000D02*
X5048768D01*
X5020689Y8078476D01*
X4995515Y8063942D01*
X4974960Y8043387D01*
X4960426Y8018213D01*
X4952902Y7990134D01*
Y7961066D01*
X4957803Y7942774D01*
X4737217Y7722187D01*
X4213763D01*
X4207840Y7732447D01*
X4189147Y7751140D01*
X4178887Y7757063D01*
Y7838537D01*
X4189147Y7844460D01*
X4207840Y7863153D01*
X4221058Y7886047D01*
X4227900Y7911582D01*
Y7938018D01*
X4221058Y7963553D01*
X4207840Y7986447D01*
X4189147Y8005140D01*
X4166253Y8018358D01*
X4140718Y8025200D01*
X4114282D01*
X4088747Y8018358D01*
X4065853Y8005140D01*
X4047160Y7986447D01*
X4033942Y7963553D01*
X4027100Y7938018D01*
Y7911582D01*
X4033942Y7886047D01*
X4047160Y7863153D01*
X4065853Y7844460D01*
X4076113Y7838537D01*
Y7757063D01*
X4065853Y7751140D01*
X4047160Y7732447D01*
X4033942Y7709553D01*
X4027100Y7684018D01*
Y7657582D01*
X4033942Y7632047D01*
X4047160Y7609153D01*
X4065853Y7590460D01*
X4088747Y7577242D01*
X4114282Y7570400D01*
X4140718D01*
X4166253Y7577242D01*
X4189147Y7590460D01*
X4207840Y7609153D01*
X4213763Y7619413D01*
X4758502D01*
X4778167Y7623324D01*
X4794838Y7634464D01*
X5030476Y7870101D01*
X5048768Y7865200D01*
X5077836D01*
X5105915Y7872724D01*
X5131089Y7887258D01*
X5151644Y7907813D01*
X5159353Y7921165D01*
X5291390D01*
X5299502Y7907115D01*
X5318418Y7888199D01*
X5341586Y7874823D01*
X5367426Y7867899D01*
X5394178D01*
X5420018Y7874823D01*
X5443186Y7888199D01*
X5453505Y7898518D01*
X5502209D01*
X5714816Y7685916D01*
X5714502Y7684746D01*
Y7662260D01*
X5720322Y7640539D01*
X5731565Y7621066D01*
X5747465Y7605166D01*
X5766939Y7593923D01*
X5788659Y7588103D01*
X5811145D01*
X5832865Y7593923D01*
X5852339Y7605166D01*
X5868239Y7621066D01*
X5879482Y7640539D01*
X5885302Y7662260D01*
Y7684746D01*
X5879482Y7706466D01*
X5868239Y7725939D01*
X5852339Y7741839D01*
X5832865Y7753083D01*
X5811145Y7758902D01*
X5788659D01*
X5787488Y7758588D01*
X5559830Y7986242D01*
X5543159Y7997381D01*
X5523494Y8001293D01*
X5477467D01*
X5475478Y8008715D01*
X5462102Y8031883D01*
X5443186Y8050799D01*
X5420018Y8064175D01*
X5394178Y8071099D01*
X5367426D01*
X5341586Y8064175D01*
X5318418Y8050799D01*
X5299502Y8031883D01*
X5294915Y8023939D01*
X5162872D01*
X5151644Y8043387D01*
X5131089Y8063942D01*
X5105915Y8078476D01*
X5077836Y8086000D01*
D02*
G37*
G36*
X10478018Y7898200D02*
X10451582D01*
X10426047Y7891358D01*
X10403153Y7878140D01*
X10384460Y7859447D01*
X10371242Y7836553D01*
X10364400Y7811018D01*
Y7784582D01*
X10371242Y7759047D01*
X10384460Y7736153D01*
X10403153Y7717460D01*
X10426047Y7704242D01*
X10451582Y7697400D01*
X10478018D01*
X10503553Y7704242D01*
X10526447Y7717460D01*
X10545140Y7736153D01*
X10558358Y7759047D01*
X10565200Y7784582D01*
Y7811018D01*
X10558358Y7836553D01*
X10545140Y7859447D01*
X10526447Y7878140D01*
X10503553Y7891358D01*
X10478018Y7898200D01*
D02*
G37*
G36*
X9716018D02*
X9689582D01*
X9664047Y7891358D01*
X9641153Y7878140D01*
X9622460Y7859447D01*
X9609242Y7836553D01*
X9602400Y7811018D01*
Y7784582D01*
X9609242Y7759047D01*
X9622460Y7736153D01*
X9641153Y7717460D01*
X9664047Y7704242D01*
X9689582Y7697400D01*
X9716018D01*
X9741553Y7704242D01*
X9764447Y7717460D01*
X9783140Y7736153D01*
X9796358Y7759047D01*
X9803200Y7784582D01*
Y7811018D01*
X9796358Y7836553D01*
X9783140Y7859447D01*
X9764447Y7878140D01*
X9741553Y7891358D01*
X9716018Y7898200D01*
D02*
G37*
G36*
X11695704Y8280400D02*
X11672296D01*
X11649686Y8274342D01*
X11629414Y8262638D01*
X11612862Y8246086D01*
X11601158Y8225814D01*
X11595100Y8203204D01*
Y8179796D01*
X11601158Y8157186D01*
X11612862Y8136914D01*
X11629414Y8120362D01*
X11632613Y8118515D01*
Y8034985D01*
X11192815Y7595187D01*
X10551063D01*
X10545140Y7605447D01*
X10526447Y7624140D01*
X10503553Y7637358D01*
X10478018Y7644200D01*
X10451582D01*
X10426047Y7637358D01*
X10403153Y7624140D01*
X10384460Y7605447D01*
X10371242Y7582553D01*
X10364400Y7557018D01*
Y7530582D01*
X10371242Y7505047D01*
X10384460Y7482153D01*
X10403153Y7463460D01*
X10426047Y7450242D01*
X10451582Y7443400D01*
X10478018D01*
X10503553Y7450242D01*
X10526447Y7463460D01*
X10545140Y7482153D01*
X10551063Y7492413D01*
X11214100D01*
X11233765Y7496324D01*
X11250436Y7507464D01*
X11720336Y7977364D01*
X11731476Y7994035D01*
X11735387Y8013700D01*
Y8118515D01*
X11738586Y8120362D01*
X11755138Y8136914D01*
X11766842Y8157186D01*
X11772900Y8179796D01*
Y8203204D01*
X11766842Y8225814D01*
X11755138Y8246086D01*
X11738586Y8262638D01*
X11718314Y8274342D01*
X11695704Y8280400D01*
D02*
G37*
G36*
X1713043Y7758902D02*
X1690557D01*
X1668837Y7753083D01*
X1649363Y7741839D01*
X1633463Y7725939D01*
X1622220Y7706466D01*
X1616400Y7684746D01*
Y7662260D01*
X1622220Y7640539D01*
X1633463Y7621066D01*
X1649363Y7605166D01*
X1668837Y7593923D01*
X1690557Y7588103D01*
X1713043D01*
X1734763Y7593923D01*
X1754237Y7605166D01*
X1770137Y7621066D01*
X1781380Y7640539D01*
X1787200Y7662260D01*
Y7684746D01*
X1781380Y7706466D01*
X1770137Y7725939D01*
X1754237Y7741839D01*
X1734763Y7753083D01*
X1713043Y7758902D01*
D02*
G37*
G36*
X3378718Y7771200D02*
X3352282D01*
X3326747Y7764358D01*
X3303853Y7751140D01*
X3285160Y7732447D01*
X3271942Y7709553D01*
X3265100Y7684018D01*
Y7657582D01*
X3271942Y7632047D01*
X3285160Y7609153D01*
X3303853Y7590460D01*
X3326747Y7577242D01*
X3352282Y7570400D01*
X3378718D01*
X3404253Y7577242D01*
X3427147Y7590460D01*
X3445840Y7609153D01*
X3459058Y7632047D01*
X3465900Y7657582D01*
Y7684018D01*
X3459058Y7709553D01*
X3445840Y7732447D01*
X3427147Y7751140D01*
X3404253Y7764358D01*
X3378718Y7771200D01*
D02*
G37*
G36*
X14161676Y7776200D02*
X14133923D01*
X14107117Y7769017D01*
X14083083Y7755141D01*
X14063458Y7735517D01*
X14049583Y7711483D01*
X14042400Y7684676D01*
Y7656924D01*
X14049583Y7630117D01*
X14063458Y7606083D01*
X14083083Y7586459D01*
X14107117Y7572583D01*
X14133923Y7565400D01*
X14161676D01*
X14188483Y7572583D01*
X14212517Y7586459D01*
X14232141Y7606083D01*
X14246017Y7630117D01*
X14253200Y7656924D01*
Y7684676D01*
X14246017Y7711483D01*
X14232141Y7735517D01*
X14212517Y7755141D01*
X14188483Y7769017D01*
X14161676Y7776200D01*
D02*
G37*
G36*
X9716018Y7644200D02*
X9689582D01*
X9664047Y7637358D01*
X9641153Y7624140D01*
X9622460Y7605447D01*
X9609242Y7582553D01*
X9602400Y7557018D01*
Y7530582D01*
X9609242Y7505047D01*
X9622460Y7482153D01*
X9641153Y7463460D01*
X9664047Y7450242D01*
X9689582Y7443400D01*
X9716018D01*
X9741553Y7450242D01*
X9764447Y7463460D01*
X9783140Y7482153D01*
X9796358Y7505047D01*
X9803200Y7530582D01*
Y7557018D01*
X9796358Y7582553D01*
X9783140Y7605447D01*
X9764447Y7624140D01*
X9741553Y7637358D01*
X9716018Y7644200D01*
D02*
G37*
G36*
X3378718Y7517200D02*
X3352282D01*
X3326747Y7510358D01*
X3303853Y7497140D01*
X3285160Y7478447D01*
X3276195Y7462919D01*
X3258632D01*
X3238967Y7459008D01*
X3222296Y7447868D01*
X3125964Y7351536D01*
X3114824Y7334865D01*
X3110913Y7315200D01*
Y6866585D01*
X3083355Y6839027D01*
X3071968Y6845601D01*
X3078202Y6868866D01*
Y6870700D01*
X2980502D01*
Y6773000D01*
X2982336D01*
X3005601Y6779234D01*
X3012175Y6767847D01*
X1436864Y5192536D01*
X1425724Y5175865D01*
X1421813Y5156200D01*
Y1219200D01*
X1425724Y1199535D01*
X1436864Y1182864D01*
X1957564Y662164D01*
X1974235Y651024D01*
X1993900Y647113D01*
X8597900D01*
X8617565Y651024D01*
X8634236Y662164D01*
X9243836Y1271764D01*
X9254976Y1288435D01*
X9258887Y1308100D01*
Y1943100D01*
X9254976Y1962765D01*
X9243836Y1979436D01*
X9140093Y2083179D01*
X9144953Y2094913D01*
X10457429D01*
X10477094Y2098824D01*
X10493765Y2109964D01*
X10547990Y2164188D01*
X10551117Y2162383D01*
X10577924Y2155200D01*
X10605676D01*
X10632483Y2162383D01*
X10656517Y2176259D01*
X10676141Y2195883D01*
X10690017Y2219917D01*
X10697200Y2246724D01*
Y2274476D01*
X10690017Y2301283D01*
X10676141Y2325317D01*
X10656517Y2344941D01*
X10632483Y2358817D01*
X10605676Y2366000D01*
X10577924D01*
X10551117Y2358817D01*
X10527083Y2344941D01*
X10507459Y2325317D01*
X10493583Y2301283D01*
X10486400Y2274476D01*
Y2247944D01*
X10436144Y2197687D01*
X8912185D01*
X8910338Y2200886D01*
X8893786Y2217438D01*
X8873514Y2229142D01*
X8850904Y2235200D01*
X8827496D01*
X8804886Y2229142D01*
X8784614Y2217438D01*
X8768062Y2200886D01*
X8756358Y2180614D01*
X8750300Y2158004D01*
Y2134596D01*
X8756358Y2111986D01*
X8768062Y2091714D01*
X8784614Y2075162D01*
X8804886Y2063458D01*
X8827496Y2057400D01*
X8850904D01*
X8873514Y2063458D01*
X8893786Y2075162D01*
X8910338Y2091714D01*
X8912185Y2094913D01*
X8983015D01*
X9156113Y1921815D01*
Y1329385D01*
X8576615Y749887D01*
X2015185D01*
X1524587Y1240485D01*
Y5134915D01*
X3198636Y6808964D01*
X3209776Y6825635D01*
X3213687Y6845300D01*
Y7293915D01*
X3272117Y7352344D01*
X3285160Y7355153D01*
X3303853Y7336460D01*
X3326747Y7323242D01*
X3352282Y7316400D01*
X3378718D01*
X3404253Y7323242D01*
X3427147Y7336460D01*
X3445840Y7355153D01*
X3459058Y7378047D01*
X3465900Y7403582D01*
Y7430018D01*
X3459058Y7455553D01*
X3445840Y7478447D01*
X3427147Y7497140D01*
X3404253Y7510358D01*
X3378718Y7517200D01*
D02*
G37*
G36*
X14161676Y7522200D02*
X14133923D01*
X14107117Y7515017D01*
X14083083Y7501141D01*
X14063458Y7481517D01*
X14049583Y7457483D01*
X14042400Y7430676D01*
Y7402924D01*
X14049583Y7376117D01*
X14063458Y7352083D01*
X14083083Y7332459D01*
X14107117Y7318583D01*
X14133923Y7311400D01*
X14161676D01*
X14188483Y7318583D01*
X14212517Y7332459D01*
X14232141Y7352083D01*
X14246017Y7376117D01*
X14253200Y7402924D01*
Y7430676D01*
X14246017Y7457483D01*
X14232141Y7481517D01*
X14212517Y7501141D01*
X14188483Y7515017D01*
X14161676Y7522200D01*
D02*
G37*
G36*
X10478018Y7390200D02*
X10451582D01*
X10426047Y7383358D01*
X10403153Y7370140D01*
X10384460Y7351447D01*
X10371242Y7328553D01*
X10364400Y7303018D01*
Y7276582D01*
X10367466Y7265139D01*
X10149064Y7046736D01*
X10137924Y7030065D01*
X10134013Y7010400D01*
Y5575300D01*
X10137924Y5555635D01*
X10149064Y5538964D01*
X10593564Y5094464D01*
X10610235Y5083324D01*
X10629900Y5079413D01*
X10849915D01*
X11251613Y4677715D01*
Y4123385D01*
X10964215Y3835987D01*
X10683837D01*
X10676141Y3849317D01*
X10656517Y3868941D01*
X10632483Y3882817D01*
X10605676Y3890000D01*
X10577924D01*
X10551117Y3882817D01*
X10527083Y3868941D01*
X10507459Y3849317D01*
X10493583Y3825283D01*
X10486400Y3798476D01*
Y3770724D01*
X10493583Y3743917D01*
X10507459Y3719883D01*
X10527083Y3700259D01*
X10551117Y3686383D01*
X10577924Y3679200D01*
X10605676D01*
X10632483Y3686383D01*
X10656517Y3700259D01*
X10676141Y3719883D01*
X10683837Y3733213D01*
X10985500D01*
X11005165Y3737124D01*
X11021836Y3748264D01*
X11339336Y4065764D01*
X11350476Y4082435D01*
X11354387Y4102100D01*
Y4699000D01*
X11350476Y4718665D01*
X11339336Y4735336D01*
X10907536Y5167136D01*
X10890865Y5178276D01*
X10871200Y5182187D01*
X10651185D01*
X10236787Y5596585D01*
Y6989115D01*
X10440139Y7192466D01*
X10451582Y7189400D01*
X10478018D01*
X10503553Y7196242D01*
X10526447Y7209460D01*
X10545140Y7228153D01*
X10558358Y7251047D01*
X10565200Y7276582D01*
Y7303018D01*
X10558358Y7328553D01*
X10545140Y7351447D01*
X10526447Y7370140D01*
X10503553Y7383358D01*
X10478018Y7390200D01*
D02*
G37*
G36*
X9716018D02*
X9689582D01*
X9664047Y7383358D01*
X9641153Y7370140D01*
X9622460Y7351447D01*
X9609242Y7328553D01*
X9602400Y7303018D01*
Y7276582D01*
X9609242Y7251047D01*
X9622460Y7228153D01*
X9641153Y7209460D01*
X9664047Y7196242D01*
X9689582Y7189400D01*
X9716018D01*
X9741553Y7196242D01*
X9764447Y7209460D01*
X9783140Y7228153D01*
X9796358Y7251047D01*
X9803200Y7276582D01*
Y7303018D01*
X9796358Y7328553D01*
X9783140Y7351447D01*
X9764447Y7370140D01*
X9741553Y7383358D01*
X9716018Y7390200D01*
D02*
G37*
G36*
X4140718Y7517200D02*
X4114282D01*
X4088747Y7510358D01*
X4065853Y7497140D01*
X4047160Y7478447D01*
X4033942Y7455553D01*
X4027100Y7430018D01*
Y7403582D01*
X4033942Y7378047D01*
X4047160Y7355153D01*
X4065853Y7336460D01*
X4088747Y7323242D01*
X4114282Y7316400D01*
X4140718D01*
X4166253Y7323242D01*
X4189147Y7336460D01*
X4207840Y7355153D01*
X4213763Y7365413D01*
X4521317D01*
X4957803Y6928926D01*
X4952902Y6910634D01*
Y6881566D01*
X4960426Y6853487D01*
X4974960Y6828313D01*
X4995515Y6807758D01*
X5020689Y6793224D01*
X5048768Y6785700D01*
X5077836D01*
X5105915Y6793224D01*
X5131089Y6807758D01*
X5151644Y6828313D01*
X5159206Y6841411D01*
X5291249D01*
X5299502Y6827117D01*
X5318418Y6808201D01*
X5341586Y6794825D01*
X5367426Y6787901D01*
X5394178D01*
X5420018Y6794825D01*
X5443186Y6808201D01*
X5462102Y6827117D01*
X5475478Y6850285D01*
X5477467Y6857707D01*
X5523494D01*
X5543159Y6861619D01*
X5559830Y6872758D01*
X5787489Y7100416D01*
X5788659Y7100103D01*
X5811145D01*
X5832865Y7105923D01*
X5852339Y7117166D01*
X5868239Y7133066D01*
X5879482Y7152539D01*
X5885302Y7174259D01*
Y7196746D01*
X5879482Y7218466D01*
X5868239Y7237939D01*
X5852339Y7253839D01*
X5832865Y7265082D01*
X5811145Y7270902D01*
X5788659D01*
X5766939Y7265082D01*
X5747465Y7253839D01*
X5731565Y7237939D01*
X5720322Y7218466D01*
X5714502Y7196746D01*
Y7174259D01*
X5714816Y7173089D01*
X5502209Y6960482D01*
X5453505D01*
X5443186Y6970801D01*
X5420018Y6984177D01*
X5394178Y6991101D01*
X5367426D01*
X5341586Y6984177D01*
X5318418Y6970801D01*
X5299502Y6951885D01*
X5295056Y6944185D01*
X5163019D01*
X5151644Y6963887D01*
X5131089Y6984442D01*
X5105915Y6998976D01*
X5077836Y7006500D01*
X5048768D01*
X5030476Y7001599D01*
X4578938Y7453136D01*
X4562267Y7464276D01*
X4542602Y7468187D01*
X4213763D01*
X4207840Y7478447D01*
X4189147Y7497140D01*
X4166253Y7510358D01*
X4140718Y7517200D01*
D02*
G37*
G36*
X1713043Y7270902D02*
X1690557D01*
X1668837Y7265082D01*
X1649363Y7253839D01*
X1633463Y7237939D01*
X1622220Y7218466D01*
X1616400Y7196746D01*
Y7174259D01*
X1622220Y7152539D01*
X1633463Y7133066D01*
X1649363Y7117166D01*
X1668837Y7105923D01*
X1690557Y7100103D01*
X1713043D01*
X1734763Y7105923D01*
X1754237Y7117166D01*
X1770137Y7133066D01*
X1781380Y7152539D01*
X1787200Y7174259D01*
Y7196746D01*
X1781380Y7218466D01*
X1770137Y7237939D01*
X1754237Y7253839D01*
X1734763Y7265082D01*
X1713043Y7270902D01*
D02*
G37*
G36*
X14161676Y7268200D02*
X14133923D01*
X14107117Y7261017D01*
X14083083Y7247141D01*
X14063458Y7227517D01*
X14049583Y7203483D01*
X14042400Y7176676D01*
Y7148924D01*
X14049583Y7122117D01*
X14063458Y7098083D01*
X14083083Y7078459D01*
X14107117Y7064583D01*
X14133923Y7057400D01*
X14161676D01*
X14188483Y7064583D01*
X14212517Y7078459D01*
X14232141Y7098083D01*
X14246017Y7122117D01*
X14253200Y7148924D01*
Y7176676D01*
X14246017Y7203483D01*
X14232141Y7227517D01*
X14212517Y7247141D01*
X14188483Y7261017D01*
X14161676Y7268200D01*
D02*
G37*
G36*
X10693400Y7086333D02*
Y7010400D01*
X10769333D01*
X10763542Y7032014D01*
X10751838Y7052286D01*
X10735286Y7068838D01*
X10715014Y7080542D01*
X10693400Y7086333D01*
D02*
G37*
G36*
X10668000D02*
X10646386Y7080542D01*
X10626114Y7068838D01*
X10609562Y7052286D01*
X10597858Y7032014D01*
X10592067Y7010400D01*
X10668000D01*
Y7086333D01*
D02*
G37*
G36*
X4140718Y7263200D02*
X4114282D01*
X4088747Y7256358D01*
X4065853Y7243140D01*
X4047160Y7224447D01*
X4033942Y7201553D01*
X4027100Y7176018D01*
Y7149582D01*
X4033942Y7124047D01*
X4047160Y7101153D01*
X4065853Y7082460D01*
X4088747Y7069242D01*
X4114282Y7062400D01*
X4132840D01*
X4194562Y7000679D01*
X4186764Y6990516D01*
X4166253Y7002358D01*
X4140718Y7009200D01*
X4114282D01*
X4088747Y7002358D01*
X4065853Y6989140D01*
X4047160Y6970447D01*
X4033942Y6947553D01*
X4027100Y6922018D01*
Y6895582D01*
X4033942Y6870047D01*
X4047160Y6847153D01*
X4065853Y6828460D01*
X4076113Y6822537D01*
Y6741063D01*
X4065853Y6735140D01*
X4047160Y6716447D01*
X4033942Y6693553D01*
X4027100Y6668018D01*
Y6641582D01*
X4033942Y6616047D01*
X4047160Y6593153D01*
X4065853Y6574460D01*
X4088747Y6561242D01*
X4114282Y6554400D01*
X4140718D01*
X4152161Y6557466D01*
X6148564Y4561064D01*
X6165235Y4549924D01*
X6184900Y4546013D01*
X8348015D01*
X8713156Y4180871D01*
X8712200Y4177304D01*
Y4153896D01*
X8718258Y4131286D01*
X8729962Y4111014D01*
X8746514Y4094462D01*
X8766786Y4082758D01*
X8789396Y4076700D01*
X8812804D01*
X8835414Y4082758D01*
X8855686Y4094462D01*
X8872238Y4111014D01*
X8883942Y4131286D01*
X8890000Y4153896D01*
Y4177304D01*
X8883942Y4199914D01*
X8872238Y4220186D01*
X8855686Y4236738D01*
X8835414Y4248442D01*
X8812804Y4254500D01*
X8789396D01*
X8785829Y4253544D01*
X8405636Y4633736D01*
X8388965Y4644876D01*
X8369300Y4648787D01*
X6206185D01*
X4224834Y6630139D01*
X4227900Y6641582D01*
Y6668018D01*
X4221058Y6693553D01*
X4207840Y6716447D01*
X4189147Y6735140D01*
X4178887Y6741063D01*
Y6822537D01*
X4189147Y6828460D01*
X4207840Y6847153D01*
X4221058Y6870047D01*
X4227900Y6895582D01*
Y6922018D01*
X4221058Y6947553D01*
X4209216Y6968064D01*
X4219379Y6975862D01*
X4345163Y6850077D01*
X4345164Y6850076D01*
X6354776Y4840464D01*
X6371447Y4829324D01*
X6391112Y4825413D01*
X8652815D01*
X9161604Y4316623D01*
Y4052677D01*
X9008415Y3899487D01*
X8886785D01*
X8884938Y3902686D01*
X8868386Y3919238D01*
X8848114Y3930942D01*
X8825504Y3937000D01*
X8802096D01*
X8779486Y3930942D01*
X8759214Y3919238D01*
X8742662Y3902686D01*
X8730958Y3882414D01*
X8724900Y3859804D01*
Y3836396D01*
X8730958Y3813786D01*
X8742662Y3793514D01*
X8759214Y3776962D01*
X8779486Y3765258D01*
X8802096Y3759200D01*
X8825504D01*
X8829071Y3760156D01*
X10110964Y2478264D01*
X10127635Y2467124D01*
X10147300Y2463213D01*
X10499763D01*
X10507459Y2449883D01*
X10527083Y2430259D01*
X10551117Y2416383D01*
X10577924Y2409200D01*
X10605676D01*
X10632483Y2416383D01*
X10656517Y2430259D01*
X10676141Y2449883D01*
X10690017Y2473917D01*
X10697200Y2500724D01*
Y2528476D01*
X10690017Y2555283D01*
X10676141Y2579317D01*
X10656517Y2598941D01*
X10632483Y2612817D01*
X10605676Y2620000D01*
X10577924D01*
X10551117Y2612817D01*
X10527083Y2598941D01*
X10507459Y2579317D01*
X10499763Y2565987D01*
X10168585D01*
X8949593Y3784979D01*
X8954453Y3796713D01*
X9029700D01*
X9049365Y3800624D01*
X9066036Y3811764D01*
X9249328Y3995055D01*
X9260467Y4011726D01*
X9264379Y4031391D01*
Y4337909D01*
X9260467Y4357574D01*
X9249328Y4374245D01*
X8710436Y4913136D01*
X8693765Y4924276D01*
X8674100Y4928187D01*
X6412398D01*
X4566618Y6773967D01*
X4571478Y6785700D01*
X4577832D01*
X4605911Y6793224D01*
X4631085Y6807758D01*
X4651640Y6828313D01*
X4666174Y6853487D01*
X4673698Y6881566D01*
Y6883400D01*
X4563298D01*
Y6896100D01*
X4550598D01*
Y7006500D01*
X4548764D01*
X4520685Y6998976D01*
X4495511Y6984442D01*
X4474956Y6963887D01*
X4460422Y6938713D01*
X4452898Y6910634D01*
Y6904280D01*
X4441165Y6899420D01*
X4417837Y6922748D01*
X4417836Y6922749D01*
X4219404Y7121182D01*
X4221058Y7124047D01*
X4227900Y7149582D01*
Y7176018D01*
X4221058Y7201553D01*
X4207840Y7224447D01*
X4189147Y7243140D01*
X4166253Y7256358D01*
X4140718Y7263200D01*
D02*
G37*
G36*
X10478018Y7136200D02*
X10451582D01*
X10426047Y7129358D01*
X10403153Y7116140D01*
X10384460Y7097447D01*
X10371242Y7074553D01*
X10364400Y7049018D01*
Y7022582D01*
X10371242Y6997047D01*
X10384460Y6974153D01*
X10403153Y6955460D01*
X10426047Y6942242D01*
X10451582Y6935400D01*
X10478018D01*
X10503553Y6942242D01*
X10526447Y6955460D01*
X10545140Y6974153D01*
X10558358Y6997047D01*
X10565200Y7022582D01*
Y7049018D01*
X10558358Y7074553D01*
X10545140Y7097447D01*
X10526447Y7116140D01*
X10503553Y7129358D01*
X10478018Y7136200D01*
D02*
G37*
G36*
X9716018D02*
X9689582D01*
X9664047Y7129358D01*
X9641153Y7116140D01*
X9622460Y7097447D01*
X9609242Y7074553D01*
X9602400Y7049018D01*
Y7022582D01*
X9609242Y6997047D01*
X9622460Y6974153D01*
X9641153Y6955460D01*
X9664047Y6942242D01*
X9689582Y6935400D01*
X9716018D01*
X9741553Y6942242D01*
X9764447Y6955460D01*
X9783140Y6974153D01*
X9796358Y6997047D01*
X9803200Y7022582D01*
Y7049018D01*
X9796358Y7074553D01*
X9783140Y7097447D01*
X9764447Y7116140D01*
X9741553Y7129358D01*
X9716018Y7136200D01*
D02*
G37*
G36*
X10769333Y6985000D02*
X10693400D01*
Y6909067D01*
X10715014Y6914858D01*
X10735286Y6926562D01*
X10751838Y6943114D01*
X10763542Y6963386D01*
X10769333Y6985000D01*
D02*
G37*
G36*
X10668000D02*
X10592067D01*
X10597858Y6963386D01*
X10609562Y6943114D01*
X10626114Y6926562D01*
X10646386Y6914858D01*
X10668000Y6909067D01*
Y6985000D01*
D02*
G37*
G36*
X4577832Y7006500D02*
X4575998D01*
Y6908800D01*
X4673698D01*
Y6910634D01*
X4666174Y6938713D01*
X4651640Y6963887D01*
X4631085Y6984442D01*
X4605911Y6998976D01*
X4577832Y7006500D01*
D02*
G37*
G36*
X2982336Y6993800D02*
X2980502D01*
Y6896100D01*
X3078202D01*
Y6897934D01*
X3070678Y6926013D01*
X3056144Y6951187D01*
X3035589Y6971742D01*
X3010415Y6986276D01*
X2982336Y6993800D01*
D02*
G37*
G36*
X2955102D02*
X2953268D01*
X2925189Y6986276D01*
X2900015Y6971742D01*
X2879460Y6951187D01*
X2864926Y6926013D01*
X2857402Y6897934D01*
Y6896100D01*
X2955102D01*
Y6993800D01*
D02*
G37*
G36*
X14161676Y7014200D02*
X14133923D01*
X14107117Y7007017D01*
X14083083Y6993141D01*
X14063458Y6973517D01*
X14049583Y6949483D01*
X14042400Y6922676D01*
Y6894924D01*
X14049583Y6868117D01*
X14063458Y6844083D01*
X14083083Y6824459D01*
X14107117Y6810583D01*
X14133923Y6803400D01*
X14161676D01*
X14188483Y6810583D01*
X14212517Y6824459D01*
X14232141Y6844083D01*
X14246017Y6868117D01*
X14253200Y6894924D01*
Y6922676D01*
X14246017Y6949483D01*
X14232141Y6973517D01*
X14212517Y6993141D01*
X14188483Y7007017D01*
X14161676Y7014200D01*
D02*
G37*
G36*
X2166011Y7003801D02*
X2139259D01*
X2113419Y6996877D01*
X2090251Y6983501D01*
X2071334Y6964585D01*
X2057959Y6941417D01*
X2051035Y6915577D01*
Y6888825D01*
X2057959Y6862985D01*
X2071334Y6839817D01*
X2090251Y6820901D01*
X2113419Y6807525D01*
X2139259Y6800601D01*
X2166011D01*
X2191851Y6807525D01*
X2215019Y6820901D01*
X2233935Y6839817D01*
X2247311Y6862985D01*
X2254235Y6888825D01*
Y6915577D01*
X2247311Y6941417D01*
X2233935Y6964585D01*
X2215019Y6983501D01*
X2191851Y6996877D01*
X2166011Y7003801D01*
D02*
G37*
G36*
X9716018Y6882200D02*
X9715500D01*
Y6794500D01*
X9803200D01*
Y6795018D01*
X9796358Y6820553D01*
X9783140Y6843447D01*
X9764447Y6862140D01*
X9741553Y6875358D01*
X9716018Y6882200D01*
D02*
G37*
G36*
X9690100D02*
X9689582D01*
X9664047Y6875358D01*
X9641153Y6862140D01*
X9622460Y6843447D01*
X9609242Y6820553D01*
X9602400Y6795018D01*
Y6794500D01*
X9690100D01*
Y6882200D01*
D02*
G37*
G36*
X2955102Y6870700D02*
X2857402D01*
Y6868866D01*
X2864926Y6840787D01*
X2879460Y6815613D01*
X2900015Y6795058D01*
X2925189Y6780524D01*
X2953268Y6773000D01*
X2955102D01*
Y6870700D01*
D02*
G37*
G36*
X2482332Y6993800D02*
X2453264D01*
X2425185Y6986276D01*
X2400011Y6971742D01*
X2379456Y6951187D01*
X2364922Y6926013D01*
X2357398Y6897934D01*
Y6868866D01*
X2364922Y6840787D01*
X2379456Y6815613D01*
X2400011Y6795058D01*
X2425185Y6780524D01*
X2453264Y6773000D01*
X2482332D01*
X2510411Y6780524D01*
X2535585Y6795058D01*
X2556140Y6815613D01*
X2570674Y6840787D01*
X2578198Y6868866D01*
Y6897934D01*
X2570674Y6926013D01*
X2556140Y6951187D01*
X2535585Y6971742D01*
X2510411Y6986276D01*
X2482332Y6993800D01*
D02*
G37*
G36*
X10478018Y6882200D02*
X10451582D01*
X10426047Y6875358D01*
X10403153Y6862140D01*
X10384460Y6843447D01*
X10371242Y6820553D01*
X10364400Y6795018D01*
Y6768582D01*
X10371242Y6743047D01*
X10384460Y6720153D01*
X10403153Y6701460D01*
X10426047Y6688242D01*
X10451582Y6681400D01*
X10478018D01*
X10503553Y6688242D01*
X10526447Y6701460D01*
X10545140Y6720153D01*
X10558358Y6743047D01*
X10565200Y6768582D01*
Y6795018D01*
X10558358Y6820553D01*
X10545140Y6843447D01*
X10526447Y6862140D01*
X10503553Y6875358D01*
X10478018Y6882200D01*
D02*
G37*
G36*
X9803200Y6769100D02*
X9715500D01*
Y6681400D01*
X9716018D01*
X9741553Y6688242D01*
X9764447Y6701460D01*
X9783140Y6720153D01*
X9796358Y6743047D01*
X9803200Y6768582D01*
Y6769100D01*
D02*
G37*
G36*
X9690100D02*
X9602400D01*
Y6768582D01*
X9609242Y6743047D01*
X9622460Y6720153D01*
X9641153Y6701460D01*
X9664047Y6688242D01*
X9689582Y6681400D01*
X9690100D01*
Y6769100D01*
D02*
G37*
G36*
X3378718Y6755200D02*
X3378200D01*
Y6667500D01*
X3465900D01*
Y6668018D01*
X3459058Y6693553D01*
X3445840Y6716447D01*
X3427147Y6735140D01*
X3404253Y6748358D01*
X3378718Y6755200D01*
D02*
G37*
G36*
Y7263200D02*
X3352282D01*
X3326747Y7256358D01*
X3303853Y7243140D01*
X3285160Y7224447D01*
X3271942Y7201553D01*
X3265100Y7176018D01*
Y7149582D01*
X3271942Y7124047D01*
X3285160Y7101153D01*
X3303853Y7082460D01*
X3314113Y7076537D01*
Y6995063D01*
X3303853Y6989140D01*
X3285160Y6970447D01*
X3271942Y6947553D01*
X3265100Y6922018D01*
Y6895582D01*
X3271942Y6870047D01*
X3283996Y6849169D01*
X1652616Y5217789D01*
X1641477Y5201118D01*
X1637565Y5181453D01*
Y1460647D01*
X1641477Y1440982D01*
X1652616Y1424311D01*
X2084564Y992364D01*
X2101235Y981224D01*
X2120900Y977313D01*
X8115300D01*
X8134965Y981224D01*
X8151636Y992364D01*
X8823929Y1664656D01*
X8827496Y1663700D01*
X8850904D01*
X8873514Y1669758D01*
X8893786Y1681462D01*
X8910338Y1698014D01*
X8922042Y1718286D01*
X8928100Y1740896D01*
Y1764304D01*
X8922042Y1786914D01*
X8910338Y1807186D01*
X8893786Y1823738D01*
X8873514Y1835442D01*
X8850904Y1841500D01*
X8827496D01*
X8804886Y1835442D01*
X8784614Y1823738D01*
X8768062Y1807186D01*
X8756358Y1786914D01*
X8750300Y1764304D01*
Y1740896D01*
X8751256Y1737329D01*
X8094015Y1080087D01*
X2142185D01*
X1740340Y1481933D01*
Y5160167D01*
X3254380Y6674207D01*
X3261206Y6670266D01*
X3264471Y6667500D01*
X3352800D01*
Y6755829D01*
X3350034Y6759094D01*
X3346093Y6765920D01*
X3382700Y6802527D01*
X3388348Y6810981D01*
X3404253Y6815242D01*
X3427147Y6828460D01*
X3445840Y6847153D01*
X3459058Y6870047D01*
X3465900Y6895582D01*
Y6922018D01*
X3459058Y6947553D01*
X3445840Y6970447D01*
X3427147Y6989140D01*
X3416887Y6995063D01*
Y7076537D01*
X3427147Y7082460D01*
X3445840Y7101153D01*
X3459058Y7124047D01*
X3465900Y7149582D01*
Y7176018D01*
X3459058Y7201553D01*
X3445840Y7224447D01*
X3427147Y7243140D01*
X3404253Y7256358D01*
X3378718Y7263200D01*
D02*
G37*
G36*
X9268836Y6689000D02*
X9267002D01*
Y6591300D01*
X9364702D01*
Y6593134D01*
X9357178Y6621213D01*
X9342644Y6646387D01*
X9322089Y6666942D01*
X9296915Y6681476D01*
X9268836Y6689000D01*
D02*
G37*
G36*
X9241602D02*
X9239768D01*
X9211689Y6681476D01*
X9186515Y6666942D01*
X9165960Y6646387D01*
X9151426Y6621213D01*
X9143902Y6593134D01*
Y6591300D01*
X9241602D01*
Y6689000D01*
D02*
G37*
G36*
X3465900Y6642100D02*
X3378200D01*
Y6554400D01*
X3378718D01*
X3404253Y6561242D01*
X3427147Y6574460D01*
X3445840Y6593153D01*
X3459058Y6616047D01*
X3465900Y6641582D01*
Y6642100D01*
D02*
G37*
G36*
X3352800D02*
X3265100D01*
Y6641582D01*
X3271942Y6616047D01*
X3285160Y6593153D01*
X3303853Y6574460D01*
X3326747Y6561242D01*
X3352282Y6554400D01*
X3352800D01*
Y6642100D01*
D02*
G37*
G36*
X14161676Y6760200D02*
X14133923D01*
X14107117Y6753017D01*
X14083083Y6739141D01*
X14063458Y6719517D01*
X14049583Y6695483D01*
X14042400Y6668676D01*
Y6640924D01*
X14049583Y6614117D01*
X14063458Y6590083D01*
X14083083Y6570459D01*
X14107117Y6556583D01*
X14133923Y6549400D01*
X14161676D01*
X14188483Y6556583D01*
X14212517Y6570459D01*
X14232141Y6590083D01*
X14246017Y6614117D01*
X14253200Y6640924D01*
Y6668676D01*
X14246017Y6695483D01*
X14232141Y6719517D01*
X14212517Y6739141D01*
X14188483Y6753017D01*
X14161676Y6760200D01*
D02*
G37*
G36*
X8452511Y6699499D02*
X8425759D01*
X8399919Y6692575D01*
X8376751Y6679199D01*
X8357834Y6660283D01*
X8344459Y6637115D01*
X8337535Y6611275D01*
Y6584523D01*
X8344459Y6558683D01*
X8357834Y6535515D01*
X8376751Y6516599D01*
X8399919Y6503223D01*
X8425759Y6496299D01*
X8452511D01*
X8478351Y6503223D01*
X8501519Y6516599D01*
X8520435Y6535515D01*
X8533811Y6558683D01*
X8540735Y6584523D01*
Y6611275D01*
X8533811Y6637115D01*
X8520435Y6660283D01*
X8501519Y6679199D01*
X8478351Y6692575D01*
X8452511Y6699499D01*
D02*
G37*
G36*
X9364702Y6565900D02*
X9267002D01*
Y6468200D01*
X9268836D01*
X9296915Y6475724D01*
X9322089Y6490258D01*
X9342644Y6510813D01*
X9357178Y6535987D01*
X9364702Y6564066D01*
Y6565900D01*
D02*
G37*
G36*
X9241602D02*
X9143902D01*
Y6564066D01*
X9151426Y6535987D01*
X9165960Y6510813D01*
X9186515Y6490258D01*
X9211689Y6475724D01*
X9239768Y6468200D01*
X9241602D01*
Y6565900D01*
D02*
G37*
G36*
X14161676Y6506200D02*
X14133923D01*
X14107117Y6499017D01*
X14083083Y6485141D01*
X14063458Y6465517D01*
X14049583Y6441483D01*
X14042400Y6414676D01*
Y6386924D01*
X14049583Y6360117D01*
X14063458Y6336083D01*
X14083083Y6316459D01*
X14107117Y6302583D01*
X14133923Y6295400D01*
X14161676D01*
X14188483Y6302583D01*
X14212517Y6316459D01*
X14232141Y6336083D01*
X14246017Y6360117D01*
X14253200Y6386924D01*
Y6414676D01*
X14246017Y6441483D01*
X14232141Y6465517D01*
X14212517Y6485141D01*
X14188483Y6499017D01*
X14161676Y6506200D01*
D02*
G37*
G36*
X8040198Y6425402D02*
X8017712D01*
X7995992Y6419583D01*
X7976518Y6408339D01*
X7960618Y6392439D01*
X7949375Y6372966D01*
X7943555Y6351246D01*
Y6328760D01*
X7949375Y6307039D01*
X7960618Y6287566D01*
X7976518Y6271666D01*
X7995992Y6260423D01*
X8017712Y6254603D01*
X8040198D01*
X8061918Y6260423D01*
X8081392Y6271666D01*
X8097292Y6287566D01*
X8108535Y6307039D01*
X8114355Y6328760D01*
Y6351246D01*
X8108535Y6372966D01*
X8097292Y6392439D01*
X8081392Y6408339D01*
X8061918Y6419583D01*
X8040198Y6425402D01*
D02*
G37*
G36*
X14161676Y6252200D02*
X14160500D01*
Y6159500D01*
X14253200D01*
Y6160676D01*
X14246017Y6187483D01*
X14232141Y6211517D01*
X14212517Y6231141D01*
X14188483Y6245017D01*
X14161676Y6252200D01*
D02*
G37*
G36*
X14135100D02*
X14133923D01*
X14107117Y6245017D01*
X14083083Y6231141D01*
X14063458Y6211517D01*
X14049583Y6187483D01*
X14042400Y6160676D01*
Y6159500D01*
X14135100D01*
Y6252200D01*
D02*
G37*
G36*
X14253200Y6134100D02*
X14160500D01*
Y6041400D01*
X14161676D01*
X14188483Y6048583D01*
X14212517Y6062459D01*
X14232141Y6082083D01*
X14246017Y6106117D01*
X14253200Y6132924D01*
Y6134100D01*
D02*
G37*
G36*
X14135100D02*
X14042400D01*
Y6132924D01*
X14049583Y6106117D01*
X14063458Y6082083D01*
X14083083Y6062459D01*
X14107117Y6048583D01*
X14133923Y6041400D01*
X14135100D01*
Y6134100D01*
D02*
G37*
G36*
X8040198Y5937402D02*
X8017712D01*
X7995992Y5931582D01*
X7976518Y5920339D01*
X7960618Y5904439D01*
X7949375Y5884966D01*
X7943555Y5863246D01*
Y5840759D01*
X7949375Y5819039D01*
X7960618Y5799566D01*
X7976518Y5783666D01*
X7995992Y5772423D01*
X8017712Y5766603D01*
X8040198D01*
X8061918Y5772423D01*
X8081392Y5783666D01*
X8097292Y5799566D01*
X8108535Y5819039D01*
X8114355Y5840759D01*
Y5863246D01*
X8108535Y5884966D01*
X8097292Y5904439D01*
X8081392Y5920339D01*
X8061918Y5931582D01*
X8040198Y5937402D01*
D02*
G37*
G36*
X9268836Y5647600D02*
X9267002D01*
Y5549900D01*
X9364702D01*
Y5551734D01*
X9357178Y5579813D01*
X9342644Y5604987D01*
X9322089Y5625542D01*
X9296915Y5640076D01*
X9268836Y5647600D01*
D02*
G37*
G36*
X9241602D02*
X9239768D01*
X9211689Y5640076D01*
X9186515Y5625542D01*
X9165960Y5604987D01*
X9151426Y5579813D01*
X9143902Y5551734D01*
Y5549900D01*
X9241602D01*
Y5647600D01*
D02*
G37*
G36*
X9364702Y5524500D02*
X9267002D01*
Y5426800D01*
X9268836D01*
X9296915Y5434324D01*
X9322089Y5448858D01*
X9342644Y5469413D01*
X9357178Y5494587D01*
X9364702Y5522666D01*
Y5524500D01*
D02*
G37*
G36*
X9241602D02*
X9143902D01*
Y5522666D01*
X9151426Y5494587D01*
X9165960Y5469413D01*
X9186515Y5448858D01*
X9211689Y5434324D01*
X9239768Y5426800D01*
X9241602D01*
Y5524500D01*
D02*
G37*
G36*
X8768832Y5647600D02*
X8739764D01*
X8711685Y5640076D01*
X8686511Y5625542D01*
X8665956Y5604987D01*
X8651422Y5579813D01*
X8643898Y5551734D01*
Y5522666D01*
X8651422Y5494587D01*
X8665956Y5469413D01*
X8686511Y5448858D01*
X8711685Y5434324D01*
X8739764Y5426800D01*
X8768832D01*
X8796911Y5434324D01*
X8822085Y5448858D01*
X8842640Y5469413D01*
X8857174Y5494587D01*
X8864698Y5522666D01*
Y5551734D01*
X8857174Y5579813D01*
X8842640Y5604987D01*
X8822085Y5625542D01*
X8796911Y5640076D01*
X8768832Y5647600D01*
D02*
G37*
G36*
X8452511Y5619501D02*
X8425759D01*
X8399919Y5612577D01*
X8376751Y5599201D01*
X8357834Y5580285D01*
X8344459Y5557117D01*
X8337535Y5531277D01*
Y5504525D01*
X8344459Y5478685D01*
X8357834Y5455517D01*
X8376751Y5436601D01*
X8399919Y5423225D01*
X8425759Y5416301D01*
X8452511D01*
X8478351Y5423225D01*
X8501519Y5436601D01*
X8520435Y5455517D01*
X8533811Y5478685D01*
X8540735Y5504525D01*
Y5531277D01*
X8533811Y5557117D01*
X8520435Y5580285D01*
X8501519Y5599201D01*
X8478351Y5612577D01*
X8452511Y5619501D01*
D02*
G37*
G36*
X3414136Y4593500D02*
X3412302D01*
Y4495800D01*
X3510002D01*
Y4497634D01*
X3502478Y4525713D01*
X3487944Y4550887D01*
X3467389Y4571442D01*
X3442215Y4585976D01*
X3414136Y4593500D01*
D02*
G37*
G36*
X3386902D02*
X3385068D01*
X3356989Y4585976D01*
X3331815Y4571442D01*
X3311260Y4550887D01*
X3296726Y4525713D01*
X3289202Y4497634D01*
Y4495800D01*
X3386902D01*
Y4593500D01*
D02*
G37*
G36*
X10631800Y4652564D02*
X10551800D01*
X10534727Y4650317D01*
X10518818Y4643727D01*
X10505156Y4633244D01*
X10494673Y4619582D01*
X10488083Y4603673D01*
X10485836Y4586600D01*
Y4506600D01*
X10488083Y4489527D01*
X10494673Y4473618D01*
X10505156Y4459956D01*
X10518818Y4449473D01*
X10534727Y4442883D01*
X10551800Y4440636D01*
X10631800D01*
X10648873Y4442883D01*
X10664782Y4449473D01*
X10678444Y4459956D01*
X10688927Y4473618D01*
X10695517Y4489527D01*
X10697764Y4506600D01*
Y4586600D01*
X10695517Y4603673D01*
X10688927Y4619582D01*
X10678444Y4633244D01*
X10664782Y4643727D01*
X10648873Y4650317D01*
X10631800Y4652564D01*
D02*
G37*
G36*
X2585111Y4578599D02*
X2558359D01*
X2532519Y4571675D01*
X2509351Y4558299D01*
X2490434Y4539383D01*
X2477059Y4516215D01*
X2470135Y4490375D01*
Y4463623D01*
X2477059Y4437783D01*
X2490434Y4414615D01*
X2509351Y4395699D01*
X2532519Y4382323D01*
X2558359Y4375399D01*
X2585111D01*
X2610951Y4382323D01*
X2634119Y4395699D01*
X2653035Y4414615D01*
X2666411Y4437783D01*
X2673335Y4463623D01*
Y4490375D01*
X2666411Y4516215D01*
X2653035Y4539383D01*
X2634119Y4558299D01*
X2610951Y4571675D01*
X2585111Y4578599D01*
D02*
G37*
G36*
X3510002Y4470400D02*
X3412302D01*
Y4372700D01*
X3414136D01*
X3442215Y4380224D01*
X3467389Y4394758D01*
X3487944Y4415313D01*
X3502478Y4440487D01*
X3510002Y4468566D01*
Y4470400D01*
D02*
G37*
G36*
X3386902D02*
X3289202D01*
Y4468566D01*
X3296726Y4440487D01*
X3311260Y4415313D01*
X3331815Y4394758D01*
X3356989Y4380224D01*
X3385068Y4372700D01*
X3386902D01*
Y4470400D01*
D02*
G37*
G36*
X2914132Y4593500D02*
X2885064D01*
X2856985Y4585976D01*
X2831811Y4571442D01*
X2811256Y4550887D01*
X2796722Y4525713D01*
X2789198Y4497634D01*
Y4468566D01*
X2796722Y4440487D01*
X2811256Y4415313D01*
X2831811Y4394758D01*
X2856985Y4380224D01*
X2885064Y4372700D01*
X2914132D01*
X2942211Y4380224D01*
X2967385Y4394758D01*
X2987940Y4415313D01*
X3002474Y4440487D01*
X3009998Y4468566D01*
Y4497634D01*
X3002474Y4525713D01*
X2987940Y4550887D01*
X2967385Y4571442D01*
X2942211Y4585976D01*
X2914132Y4593500D01*
D02*
G37*
G36*
X10605676Y4398000D02*
X10577924D01*
X10551117Y4390817D01*
X10527083Y4376941D01*
X10507459Y4357317D01*
X10493583Y4333283D01*
X10486400Y4306476D01*
Y4278724D01*
X10493583Y4251917D01*
X10507459Y4227883D01*
X10527083Y4208259D01*
X10551117Y4194383D01*
X10577924Y4187200D01*
X10605676D01*
X10632483Y4194383D01*
X10656517Y4208259D01*
X10676141Y4227883D01*
X10690017Y4251917D01*
X10697200Y4278724D01*
Y4306476D01*
X10690017Y4333283D01*
X10676141Y4357317D01*
X10656517Y4376941D01*
X10632483Y4390817D01*
X10605676Y4398000D01*
D02*
G37*
G36*
X2172798Y4269100D02*
X2150312D01*
X2128592Y4263280D01*
X2109118Y4252037D01*
X2093218Y4236137D01*
X2081975Y4216663D01*
X2076155Y4194943D01*
Y4172457D01*
X2081975Y4150737D01*
X2093218Y4131263D01*
X2109118Y4115363D01*
X2128592Y4104120D01*
X2150312Y4098300D01*
X2172798D01*
X2194518Y4104120D01*
X2213992Y4115363D01*
X2229892Y4131263D01*
X2241135Y4150737D01*
X2246955Y4172457D01*
Y4194943D01*
X2241135Y4216663D01*
X2229892Y4236137D01*
X2213992Y4252037D01*
X2194518Y4263280D01*
X2172798Y4269100D01*
D02*
G37*
G36*
X8768832Y6689000D02*
X8739764D01*
X8711685Y6681476D01*
X8686511Y6666942D01*
X8665956Y6646387D01*
X8651422Y6621213D01*
X8643898Y6593134D01*
Y6564066D01*
X8651422Y6535987D01*
X8665956Y6510813D01*
X8686511Y6490258D01*
X8711685Y6475724D01*
X8739764Y6468200D01*
X8768832D01*
X8787124Y6473101D01*
X9622619Y5637607D01*
Y4956394D01*
X9626530Y4936729D01*
X9637670Y4920058D01*
X10490384Y4067344D01*
X10486400Y4052476D01*
Y4024724D01*
X10493583Y3997917D01*
X10507459Y3973883D01*
X10527083Y3954259D01*
X10551117Y3940383D01*
X10577924Y3933200D01*
X10605676D01*
X10632483Y3940383D01*
X10656517Y3954259D01*
X10676141Y3973883D01*
X10690017Y3997917D01*
X10697200Y4024724D01*
Y4052476D01*
X10690017Y4079283D01*
X10676141Y4103317D01*
X10656517Y4122941D01*
X10632483Y4136817D01*
X10605676Y4144000D01*
X10577924D01*
X10563056Y4140016D01*
X9725393Y4977679D01*
Y5658892D01*
X9721481Y5678557D01*
X9710342Y5695228D01*
X8859797Y6545774D01*
X8864698Y6564066D01*
Y6593134D01*
X8857174Y6621213D01*
X8842640Y6646387D01*
X8822085Y6666942D01*
X8796911Y6681476D01*
X8768832Y6689000D01*
D02*
G37*
G36*
X2172798Y3781100D02*
X2150312D01*
X2128592Y3775280D01*
X2109118Y3764037D01*
X2093218Y3748137D01*
X2081975Y3728663D01*
X2076155Y3706943D01*
Y3684457D01*
X2081975Y3662737D01*
X2093218Y3643263D01*
X2109118Y3627363D01*
X2128592Y3616120D01*
X2150312Y3610300D01*
X2172798D01*
X2194518Y3616120D01*
X2213992Y3627363D01*
X2229892Y3643263D01*
X2241135Y3662737D01*
X2246955Y3684457D01*
Y3706943D01*
X2241135Y3728663D01*
X2229892Y3748137D01*
X2213992Y3764037D01*
X2194518Y3775280D01*
X2172798Y3781100D01*
D02*
G37*
G36*
X10605676Y3636000D02*
X10577924D01*
X10551117Y3628817D01*
X10527083Y3614941D01*
X10507459Y3595317D01*
X10493583Y3571283D01*
X10486400Y3544476D01*
Y3516724D01*
X10493583Y3489917D01*
X10507459Y3465883D01*
X10527083Y3446259D01*
X10551117Y3432383D01*
X10577924Y3425200D01*
X10605676D01*
X10632483Y3432383D01*
X10656517Y3446259D01*
X10676141Y3465883D01*
X10690017Y3489917D01*
X10697200Y3516724D01*
Y3544476D01*
X10690017Y3571283D01*
X10676141Y3595317D01*
X10656517Y3614941D01*
X10632483Y3628817D01*
X10605676Y3636000D01*
D02*
G37*
G36*
X3401436Y3514000D02*
X3399602D01*
Y3416300D01*
X3497302D01*
Y3418134D01*
X3489778Y3446213D01*
X3475244Y3471387D01*
X3454689Y3491942D01*
X3429515Y3506476D01*
X3401436Y3514000D01*
D02*
G37*
G36*
X3374202D02*
X3372368D01*
X3344289Y3506476D01*
X3319115Y3491942D01*
X3298560Y3471387D01*
X3284026Y3446213D01*
X3276502Y3418134D01*
Y3416300D01*
X3374202D01*
Y3514000D01*
D02*
G37*
G36*
X2585111Y3498601D02*
X2558359D01*
X2532519Y3491677D01*
X2509351Y3478301D01*
X2490434Y3459385D01*
X2477059Y3436217D01*
X2470135Y3410377D01*
Y3383625D01*
X2477059Y3357785D01*
X2490434Y3334617D01*
X2509351Y3315701D01*
X2532519Y3302325D01*
X2558359Y3295401D01*
X2585111D01*
X2610951Y3302325D01*
X2634119Y3315701D01*
X2653035Y3334617D01*
X2666411Y3357785D01*
X2673335Y3383625D01*
Y3410377D01*
X2666411Y3436217D01*
X2653035Y3459385D01*
X2634119Y3478301D01*
X2610951Y3491677D01*
X2585111Y3498601D01*
D02*
G37*
G36*
X3497302Y3390900D02*
X3399602D01*
Y3293200D01*
X3401436D01*
X3429515Y3300724D01*
X3454689Y3315258D01*
X3475244Y3335813D01*
X3489778Y3360987D01*
X3497302Y3389066D01*
Y3390900D01*
D02*
G37*
G36*
X3374202D02*
X3276502D01*
Y3389066D01*
X3284026Y3360987D01*
X3298560Y3335813D01*
X3319115Y3315258D01*
X3344289Y3300724D01*
X3372368Y3293200D01*
X3374202D01*
Y3390900D01*
D02*
G37*
G36*
X2901432Y3514000D02*
X2872364D01*
X2844285Y3506476D01*
X2819111Y3491942D01*
X2798556Y3471387D01*
X2784022Y3446213D01*
X2776498Y3418134D01*
Y3389066D01*
X2784022Y3360987D01*
X2798556Y3335813D01*
X2819111Y3315258D01*
X2844285Y3300724D01*
X2872364Y3293200D01*
X2901432D01*
X2929511Y3300724D01*
X2954685Y3315258D01*
X2975240Y3335813D01*
X2989774Y3360987D01*
X2997298Y3389066D01*
Y3418134D01*
X2989774Y3446213D01*
X2975240Y3471387D01*
X2954685Y3491942D01*
X2929511Y3506476D01*
X2901432Y3514000D01*
D02*
G37*
G36*
X10605676Y3382000D02*
X10577924D01*
X10551117Y3374817D01*
X10527083Y3360941D01*
X10507459Y3341317D01*
X10493583Y3317283D01*
X10486400Y3290476D01*
Y3262724D01*
X10493583Y3235917D01*
X10507459Y3211883D01*
X10527083Y3192259D01*
X10551117Y3178383D01*
X10577924Y3171200D01*
X10605676D01*
X10632483Y3178383D01*
X10656517Y3192259D01*
X10676141Y3211883D01*
X10690017Y3235917D01*
X10697200Y3262724D01*
Y3290476D01*
X10690017Y3317283D01*
X10676141Y3341317D01*
X10656517Y3360941D01*
X10632483Y3374817D01*
X10605676Y3382000D01*
D02*
G37*
G36*
Y3128000D02*
X10577924D01*
X10551117Y3120817D01*
X10527083Y3106941D01*
X10507459Y3087317D01*
X10493583Y3063283D01*
X10486400Y3036476D01*
Y3008724D01*
X10493583Y2981917D01*
X10507459Y2957883D01*
X10527083Y2938259D01*
X10551117Y2924383D01*
X10577924Y2917200D01*
X10605676D01*
X10632483Y2924383D01*
X10656517Y2938259D01*
X10676141Y2957883D01*
X10690017Y2981917D01*
X10697200Y3008724D01*
Y3036476D01*
X10690017Y3063283D01*
X10676141Y3087317D01*
X10656517Y3106941D01*
X10632483Y3120817D01*
X10605676Y3128000D01*
D02*
G37*
G36*
Y2874000D02*
X10577924D01*
X10551117Y2866817D01*
X10527083Y2852941D01*
X10507459Y2833317D01*
X10493583Y2809283D01*
X10486400Y2782476D01*
Y2754724D01*
X10493583Y2727917D01*
X10507459Y2703883D01*
X10527083Y2684259D01*
X10551117Y2670383D01*
X10577924Y2663200D01*
X10605676D01*
X10632483Y2670383D01*
X10656517Y2684259D01*
X10676141Y2703883D01*
X10690017Y2727917D01*
X10697200Y2754724D01*
Y2782476D01*
X10690017Y2809283D01*
X10676141Y2833317D01*
X10656517Y2852941D01*
X10632483Y2866817D01*
X10605676Y2874000D01*
D02*
G37*
G36*
X3426836Y2637700D02*
X3425002D01*
Y2540000D01*
X3522702D01*
Y2541834D01*
X3515178Y2569913D01*
X3500644Y2595087D01*
X3480089Y2615642D01*
X3454915Y2630176D01*
X3426836Y2637700D01*
D02*
G37*
G36*
X3399602D02*
X3397768D01*
X3369689Y2630176D01*
X3344515Y2615642D01*
X3323960Y2595087D01*
X3309426Y2569913D01*
X3301902Y2541834D01*
Y2540000D01*
X3399602D01*
Y2637700D01*
D02*
G37*
G36*
X2607955Y2635499D02*
X2581204D01*
X2555363Y2628575D01*
X2532196Y2615199D01*
X2513279Y2596283D01*
X2499903Y2573115D01*
X2492980Y2547275D01*
Y2520523D01*
X2499903Y2494683D01*
X2513279Y2471515D01*
X2532196Y2452599D01*
X2555363Y2439223D01*
X2581204Y2432299D01*
X2607955D01*
X2633796Y2439223D01*
X2656963Y2452599D01*
X2675880Y2471515D01*
X2689256Y2494683D01*
X2696180Y2520523D01*
Y2547275D01*
X2689256Y2573115D01*
X2675880Y2596283D01*
X2656963Y2615199D01*
X2633796Y2628575D01*
X2607955Y2635499D01*
D02*
G37*
G36*
X3522702Y2514600D02*
X3425002D01*
Y2416900D01*
X3426836D01*
X3454915Y2424424D01*
X3480089Y2438958D01*
X3500644Y2459513D01*
X3515178Y2484687D01*
X3522702Y2512766D01*
Y2514600D01*
D02*
G37*
G36*
X3399602D02*
X3301902D01*
Y2512766D01*
X3309426Y2484687D01*
X3323960Y2459513D01*
X3344515Y2438958D01*
X3369689Y2424424D01*
X3397768Y2416900D01*
X3399602D01*
Y2514600D01*
D02*
G37*
G36*
X2926832Y2637700D02*
X2897764D01*
X2869685Y2630176D01*
X2844511Y2615642D01*
X2823956Y2595087D01*
X2809422Y2569913D01*
X2801898Y2541834D01*
Y2512766D01*
X2809422Y2484687D01*
X2823956Y2459513D01*
X2844511Y2438958D01*
X2869685Y2424424D01*
X2897764Y2416900D01*
X2926832D01*
X2954911Y2424424D01*
X2980085Y2438958D01*
X3000640Y2459513D01*
X3015174Y2484687D01*
X3022698Y2512766D01*
Y2541834D01*
X3015174Y2569913D01*
X3000640Y2595087D01*
X2980085Y2615642D01*
X2954911Y2630176D01*
X2926832Y2637700D01*
D02*
G37*
G36*
X2195643Y2336002D02*
X2173157D01*
X2151437Y2330183D01*
X2131963Y2318939D01*
X2116063Y2303039D01*
X2104820Y2283566D01*
X2099000Y2261846D01*
Y2239360D01*
X2104820Y2217639D01*
X2116063Y2198166D01*
X2131963Y2182266D01*
X2151437Y2171023D01*
X2173157Y2165203D01*
X2195643D01*
X2217363Y2171023D01*
X2236837Y2182266D01*
X2252737Y2198166D01*
X2263980Y2217639D01*
X2269800Y2239360D01*
Y2261846D01*
X2263980Y2283566D01*
X2252737Y2303039D01*
X2236837Y2318939D01*
X2217363Y2330183D01*
X2195643Y2336002D01*
D02*
G37*
G36*
Y1848002D02*
X2173157D01*
X2151437Y1842182D01*
X2131963Y1830939D01*
X2116063Y1815039D01*
X2104820Y1795566D01*
X2099000Y1773846D01*
Y1751359D01*
X2104820Y1729639D01*
X2116063Y1710166D01*
X2131963Y1694266D01*
X2151437Y1683023D01*
X2173157Y1677203D01*
X2195643D01*
X2217363Y1683023D01*
X2236837Y1694266D01*
X2252737Y1710166D01*
X2263980Y1729639D01*
X2269800Y1751359D01*
Y1773846D01*
X2263980Y1795566D01*
X2252737Y1815039D01*
X2236837Y1830939D01*
X2217363Y1842182D01*
X2195643Y1848002D01*
D02*
G37*
G36*
X3426836Y1558200D02*
X3425002D01*
Y1460500D01*
X3522702D01*
Y1462334D01*
X3515178Y1490413D01*
X3500644Y1515587D01*
X3480089Y1536142D01*
X3454915Y1550676D01*
X3426836Y1558200D01*
D02*
G37*
G36*
X3399602D02*
X3397768D01*
X3369689Y1550676D01*
X3344515Y1536142D01*
X3323960Y1515587D01*
X3309426Y1490413D01*
X3301902Y1462334D01*
Y1460500D01*
X3399602D01*
Y1558200D01*
D02*
G37*
G36*
X2607955Y1555501D02*
X2581204D01*
X2555363Y1548577D01*
X2532196Y1535201D01*
X2513279Y1516285D01*
X2499903Y1493117D01*
X2492980Y1467277D01*
Y1440525D01*
X2499903Y1414685D01*
X2513279Y1391517D01*
X2532196Y1372601D01*
X2555363Y1359225D01*
X2581204Y1352301D01*
X2607955D01*
X2633796Y1359225D01*
X2656963Y1372601D01*
X2675880Y1391517D01*
X2689256Y1414685D01*
X2696180Y1440525D01*
Y1467277D01*
X2689256Y1493117D01*
X2675880Y1516285D01*
X2656963Y1535201D01*
X2633796Y1548577D01*
X2607955Y1555501D01*
D02*
G37*
G36*
X3522702Y1435100D02*
X3425002D01*
Y1337400D01*
X3426836D01*
X3454915Y1344924D01*
X3480089Y1359458D01*
X3500644Y1380013D01*
X3515178Y1405187D01*
X3522702Y1433266D01*
Y1435100D01*
D02*
G37*
G36*
X3399602D02*
X3301902D01*
Y1433266D01*
X3309426Y1405187D01*
X3323960Y1380013D01*
X3344515Y1359458D01*
X3369689Y1344924D01*
X3397768Y1337400D01*
X3399602D01*
Y1435100D01*
D02*
G37*
G36*
X2926832Y1558200D02*
X2897764D01*
X2869685Y1550676D01*
X2844511Y1536142D01*
X2823956Y1515587D01*
X2809422Y1490413D01*
X2801898Y1462334D01*
Y1433266D01*
X2809422Y1405187D01*
X2823956Y1380013D01*
X2844511Y1359458D01*
X2869685Y1344924D01*
X2897764Y1337400D01*
X2926832D01*
X2954911Y1344924D01*
X2980085Y1359458D01*
X3000640Y1380013D01*
X3015174Y1405187D01*
X3022698Y1433266D01*
Y1462334D01*
X3015174Y1490413D01*
X3000640Y1515587D01*
X2980085Y1536142D01*
X2954911Y1550676D01*
X2926832Y1558200D01*
D02*
G37*
G36*
X479738Y660400D02*
X472700D01*
Y472700D01*
X660400D01*
Y479738D01*
X652699Y518455D01*
X637592Y554925D01*
X615661Y587748D01*
X587748Y615661D01*
X554925Y637592D01*
X518455Y652699D01*
X479738Y660400D01*
D02*
G37*
G36*
X447300D02*
X440263D01*
X401546Y652699D01*
X365075Y637592D01*
X332253Y615661D01*
X304339Y587748D01*
X282408Y554925D01*
X267301Y518455D01*
X259600Y479738D01*
Y472700D01*
X447300D01*
Y660400D01*
D02*
G37*
G36*
X660400Y447300D02*
X472700D01*
Y259600D01*
X479738D01*
X518455Y267301D01*
X554925Y282408D01*
X587748Y304339D01*
X615661Y332253D01*
X637592Y365075D01*
X652699Y401546D01*
X660400Y440263D01*
Y447300D01*
D02*
G37*
G36*
X447300D02*
X259600D01*
Y440263D01*
X267301Y401546D01*
X282408Y365075D01*
X304339Y332253D01*
X332253Y304339D01*
X365075Y282408D01*
X401546Y267301D01*
X440263Y259600D01*
X447300D01*
Y447300D01*
D02*
G37*
%LPD*%
D14*
X10185400Y7010400D02*
X10464800Y7289800D01*
X10185400Y5575300D02*
Y7010400D01*
Y5575300D02*
X10629900Y5130800D01*
X11303000Y4102100D02*
Y4699000D01*
X10871200Y5130800D02*
X11303000Y4699000D01*
X10985500Y3784600D02*
X11303000Y4102100D01*
X10629900Y5130800D02*
X10871200D01*
X10591800Y3784600D02*
X10985500D01*
X10464800Y7543800D02*
X11214100D01*
X11684000Y8013700D01*
X9674006Y4956394D02*
X10591800Y4038600D01*
X9674006Y4956394D02*
Y5658892D01*
X8754298Y6578600D02*
X9674006Y5658892D01*
X10147300Y2514600D02*
X10591800D01*
X8813800Y3848100D02*
X10147300Y2514600D01*
X4127500Y6654800D02*
X6184900Y4597400D01*
X4127500Y7140413D02*
X4381500Y6886413D01*
X4127500Y7140413D02*
Y7162800D01*
Y6654800D02*
Y6908800D01*
X4381500Y6886412D02*
Y6886413D01*
Y6886412D02*
X6391112Y4876800D01*
X8674100D01*
X9212991Y4337909D01*
X9004300Y2146300D02*
X10457429D01*
X8839200D02*
X9004300D01*
X10457429D02*
X10571729Y2260600D01*
X10591800D01*
X11684000Y8013700D02*
Y8191500D01*
X9212991Y4031391D02*
Y4337909D01*
X8369300Y4597400D02*
X8801100Y4165600D01*
X6184900Y4597400D02*
X8369300D01*
X9029700Y3848100D02*
X9212991Y4031391D01*
X8813800Y3848100D02*
X9029700D01*
X3346364Y6838864D02*
Y6889664D01*
X1688953Y1460647D02*
X2120900Y1028700D01*
X1688953Y1460647D02*
Y5181453D01*
X3346364Y6838864D01*
X1473200Y5156200D02*
X3162300Y6845300D01*
Y7315200D01*
X1473200Y1219200D02*
Y5156200D01*
Y1219200D02*
X1993900Y698500D01*
X3162300Y7315200D02*
X3258632Y7411532D01*
X3360232D01*
X3365500Y7416800D01*
X3346364Y6889664D02*
X3365500Y6908800D01*
Y7162800D01*
X1993900Y698500D02*
X8597900D01*
X9004300Y2146300D02*
X9207500Y1943100D01*
Y1308100D02*
Y1943100D01*
X8597900Y698500D02*
X9207500Y1308100D01*
X2120900Y1028700D02*
X8115300D01*
X8839200Y1752600D01*
X4127500Y7670800D02*
Y7924800D01*
Y7670800D02*
X4758502D01*
X5063302Y7975600D01*
X4127500Y7416800D02*
X4542602D01*
X5063302Y6896100D01*
X4127500Y7924800D02*
X4145031D01*
X5066350Y7972552D02*
X5377749D01*
X5063302Y7975600D02*
X5066350Y7972552D01*
X5377749D02*
X5380802Y7969499D01*
X5400396Y7949905D01*
X5523494D02*
X5799902Y7673503D01*
X5400396Y7949905D02*
X5523494D01*
X5066599Y6892798D02*
X5377500D01*
X5380802Y6889501D01*
X5063302Y6896100D02*
X5066599Y6892798D01*
X5400396Y6909095D02*
X5523494D01*
X5799902Y7185503D01*
X5380802Y6889501D02*
X5400396Y6909095D01*
D17*
X14460001Y9660000D02*
D03*
X460000D02*
D03*
D18*
X14147800Y6654800D02*
D03*
Y6908800D02*
D03*
Y7416800D02*
D03*
Y7924800D02*
D03*
Y8178800D02*
D03*
Y7670800D02*
D03*
Y7162800D02*
D03*
Y6400800D02*
D03*
Y6146800D02*
D03*
X10591800Y2768600D02*
D03*
Y3022600D02*
D03*
Y3530600D02*
D03*
Y4038600D02*
D03*
Y4292600D02*
D03*
Y3784600D02*
D03*
Y3276600D02*
D03*
Y2514600D02*
D03*
Y2260600D02*
D03*
D19*
X14147800Y8432800D02*
D03*
X10591800Y4546600D02*
D03*
D20*
X8426420Y8909299D02*
D03*
Y7829301D02*
D03*
X8439135Y5517901D02*
D03*
Y6597899D02*
D03*
X2571735Y4476999D02*
D03*
Y3397001D02*
D03*
X2594580Y2533899D02*
D03*
Y1453901D02*
D03*
X2152635Y6902201D02*
D03*
Y7982199D02*
D03*
X5380802Y6889501D02*
D03*
Y7969499D02*
D03*
D21*
X8754298Y5537200D02*
D03*
X9254302D02*
D03*
X8754298Y6578600D02*
D03*
X9254302D02*
D03*
X2467798Y6883400D02*
D03*
X2967802D02*
D03*
X2467798Y7975600D02*
D03*
X2967802D02*
D03*
X4563298D02*
D03*
X5063302D02*
D03*
Y6896100D02*
D03*
X4563298D02*
D03*
X2899598Y4483100D02*
D03*
X3399602D02*
D03*
X2886898Y3403600D02*
D03*
X3386902D02*
D03*
X2912298Y1447800D02*
D03*
X3412302D02*
D03*
X8741598Y8902700D02*
D03*
X9241602D02*
D03*
X2912298Y2527300D02*
D03*
X3412302D02*
D03*
X8741598Y7835900D02*
D03*
X9241602D02*
D03*
D22*
X2184400Y1762603D02*
D03*
Y2250603D02*
D03*
X1701800Y7673503D02*
D03*
Y7185503D02*
D03*
X5799902Y7673503D02*
D03*
Y7185503D02*
D03*
X8016255Y8664103D02*
D03*
Y8176103D02*
D03*
X8028955Y5852003D02*
D03*
Y6340003D02*
D03*
X2161555Y3695700D02*
D03*
Y4183700D02*
D03*
D23*
X3365500Y8178800D02*
D03*
X9702800Y8305800D02*
D03*
D24*
X3365500Y7924800D02*
D03*
Y7670800D02*
D03*
Y7416800D02*
D03*
Y7162800D02*
D03*
Y6908800D02*
D03*
Y6654800D02*
D03*
X4127500Y8178800D02*
D03*
Y7924800D02*
D03*
Y7670800D02*
D03*
Y7416800D02*
D03*
Y7162800D02*
D03*
Y6908800D02*
D03*
Y6654800D02*
D03*
X10464800Y6781800D02*
D03*
Y7035800D02*
D03*
Y7289800D02*
D03*
Y7543800D02*
D03*
Y7797800D02*
D03*
Y8051800D02*
D03*
Y8305800D02*
D03*
X9702800Y6781800D02*
D03*
Y7035800D02*
D03*
Y7289800D02*
D03*
Y7543800D02*
D03*
Y7797800D02*
D03*
Y8051800D02*
D03*
D25*
X11125200Y7861300D02*
D03*
X10680700Y6997700D02*
D03*
X11684000Y8191500D02*
D03*
X8839200Y1752600D02*
D03*
Y2146300D02*
D03*
X8813800Y3848100D02*
D03*
X8801100Y4165600D02*
D03*
%TF.MD5,952f4ac4726451c9780d38c313606a12*%
M02*
