%TF.GenerationSoftware,KiCad,Pcbnew,8.0.8*%
%TF.CreationDate,2025-07-26T16:54:29+12:00*%
%TF.ProjectId,esf1,65736631-2e6b-4696-9361-645f70636258,rev?*%
%TF.SameCoordinates,Original*%
%TF.FileFunction,Copper,L1,Top*%
%TF.FilePolarity,Positive*%
%FSLAX46Y46*%
G04 Gerber Fmt 4.6, Leading zero omitted, Abs format (unit mm)*
G04 Created by KiCad (PCBNEW 8.0.8) date 2025-07-26 16:54:29*
%MOMM*%
%LPD*%
G01*
G04 APERTURE LIST*
%TA.AperFunction,Conductor*%
%ADD10C,1.200000*%
%TD*%
G04 APERTURE END LIST*
D10*
%TO.N,*%
X-14902400Y4700000D02*
X-14902400Y-4899999D01*
X14897599Y4800000D02*
X14897599Y-4799999D01*
X10897600Y-1600000D02*
X14897600Y-1600000D01*
X-14902400Y-100000D02*
X-10902400Y-100000D01*
X10897600Y-3199999D02*
X14897600Y-3199999D01*
X-9302400Y-1700000D02*
X-5302400Y-1700000D01*
X-9302400Y1500000D02*
X-5302400Y1500000D01*
X5297600Y-3199999D02*
X9297600Y-3199999D01*
X10897600Y-4800000D02*
X14897600Y-4800000D01*
X-9302400Y-3299999D02*
X-5302400Y-3299999D01*
X-5302401Y4700000D02*
X-5302401Y-4899999D01*
X5297600Y-1600000D02*
X9297600Y-1600000D01*
X10897600Y1600000D02*
X14897600Y1600000D01*
X-14902400Y1500000D02*
X-10902400Y1500000D01*
X10897600Y3200000D02*
X14897600Y3200000D01*
X5297600Y4800000D02*
X5297600Y-4799999D01*
X-12602400Y-5100000D02*
X-12602400Y-6100000D01*
X5297600Y3200000D02*
X9297600Y3200000D01*
X10897600Y0D02*
X14897600Y0D01*
X5297600Y1600000D02*
X9297600Y1600000D01*
X-14902400Y4700000D02*
X-5302401Y4700000D01*
X-9302400Y3100000D02*
X-5302400Y3100000D01*
X-14902400Y-4900000D02*
X-10902400Y-4900000D01*
X-14902400Y3100000D02*
X-10902400Y3100000D01*
X5297600Y4800000D02*
X14897599Y4800000D01*
X-14902400Y-3299999D02*
X-10902400Y-3299999D01*
X-9302400Y-100000D02*
X-5302400Y-100000D01*
X-14902400Y-1700000D02*
X-10902400Y-1700000D01*
X5297600Y0D02*
X9297600Y0D01*
X7597600Y-5000000D02*
X7597600Y-6000000D01*
X-9302400Y-4900000D02*
X-5302400Y-4900000D01*
X5297600Y-4800000D02*
X9297600Y-4800000D01*
%TD*%
M02*
