%FSLAX25Y25*%
%MOIN*%
G70*
G01*
G75*
G04 Layer_Color=8388736*
%ADD10R,0.09000X0.07000*%
%ADD11R,0.04737X0.04737*%
%ADD12O,0.09461X0.03162*%
%ADD13O,0.03162X0.09461*%
%ADD14R,0.04343X0.04737*%
%ADD15R,0.04737X0.04343*%
%ADD16R,0.06706X0.05918*%
%ADD17R,0.05918X0.06706*%
%ADD18R,0.07887X0.05328*%
%ADD19R,0.04737X0.04737*%
%ADD20R,0.11824X0.07099*%
%ADD21O,0.01981X0.03753*%
%ADD22R,0.10170X0.07887*%
%ADD23O,0.07800X0.06800*%
%ADD24R,0.07800X0.06800*%
%ADD25R,0.06800X0.07800*%
%ADD26O,0.06800X0.07800*%
%ADD27C,0.06706*%
%ADD28R,0.06706X0.08674*%
%ADD29C,0.10642*%
%ADD30R,0.08674X0.08674*%
%ADD31C,0.04800*%
%ADD32C,0.10800*%
%ADD33C,0.24422*%
%ADD34C,0.07800*%
D10*
X35000Y76000D02*
D03*
D11*
X151150Y60000D02*
D03*
X144850D02*
D03*
X149150Y116000D02*
D03*
X142850D02*
D03*
X154850Y96000D02*
D03*
X161150D02*
D03*
X103850Y59000D02*
D03*
X110150D02*
D03*
D12*
X154949Y35000D02*
D03*
Y40000D02*
D03*
Y45000D02*
D03*
Y50000D02*
D03*
X136051Y35000D02*
D03*
Y40000D02*
D03*
Y45000D02*
D03*
Y50000D02*
D03*
X155949Y72500D02*
D03*
Y77500D02*
D03*
Y82500D02*
D03*
Y87500D02*
D03*
X137051Y72500D02*
D03*
Y77500D02*
D03*
Y82500D02*
D03*
Y87500D02*
D03*
D13*
X200000Y88949D02*
D03*
X195000D02*
D03*
X190000D02*
D03*
X185000D02*
D03*
X200000Y70051D02*
D03*
X195000D02*
D03*
X190000D02*
D03*
X185000D02*
D03*
X108500Y89449D02*
D03*
X103500D02*
D03*
X98500D02*
D03*
X93500D02*
D03*
X108500Y70551D02*
D03*
X103500D02*
D03*
X98500D02*
D03*
X93500D02*
D03*
D14*
X149346Y106000D02*
D03*
X142654D02*
D03*
X132653Y96000D02*
D03*
X139347D02*
D03*
X36846Y48500D02*
D03*
X30154D02*
D03*
X36846Y60500D02*
D03*
X30154D02*
D03*
X30154Y92500D02*
D03*
X36847D02*
D03*
X181653Y103500D02*
D03*
X188347D02*
D03*
X206347D02*
D03*
X199653D02*
D03*
X173346Y56000D02*
D03*
X166654D02*
D03*
X89653Y104000D02*
D03*
X96346D02*
D03*
X112346D02*
D03*
X105654D02*
D03*
X112654Y51346D02*
D03*
X119346D02*
D03*
D15*
X19500Y65847D02*
D03*
Y59153D02*
D03*
Y51846D02*
D03*
Y45154D02*
D03*
Y77153D02*
D03*
Y83846D02*
D03*
X210500Y82846D02*
D03*
Y76153D02*
D03*
X165500Y41846D02*
D03*
Y35153D02*
D03*
X119000Y83346D02*
D03*
Y76653D02*
D03*
X122000Y42193D02*
D03*
Y35500D02*
D03*
X193000Y42347D02*
D03*
Y35654D02*
D03*
X128000Y58653D02*
D03*
Y65346D02*
D03*
D16*
X174000Y73740D02*
D03*
Y66260D02*
D03*
X82000Y76240D02*
D03*
Y68760D02*
D03*
D17*
X36847Y40500D02*
D03*
X30154D02*
D03*
D18*
X51500Y78504D02*
D03*
Y66496D02*
D03*
Y86496D02*
D03*
Y98504D02*
D03*
D19*
X174000Y89150D02*
D03*
Y82850D02*
D03*
X82000Y91650D02*
D03*
Y85350D02*
D03*
X187000Y114350D02*
D03*
Y120650D02*
D03*
X199000Y114350D02*
D03*
Y120650D02*
D03*
X175500Y35350D02*
D03*
Y41650D02*
D03*
X95000Y114850D02*
D03*
Y121150D02*
D03*
X107000Y114850D02*
D03*
Y121150D02*
D03*
X112000Y35697D02*
D03*
Y41996D02*
D03*
X193000Y56150D02*
D03*
Y49850D02*
D03*
D20*
X44980Y114500D02*
D03*
X30020D02*
D03*
D21*
X38937Y82004D02*
D03*
X36968D02*
D03*
X35000D02*
D03*
X33031D02*
D03*
X31063D02*
D03*
Y69996D02*
D03*
X33031D02*
D03*
X35000D02*
D03*
X36968D02*
D03*
X38937D02*
D03*
D22*
X35000Y76000D02*
D03*
D23*
X173000Y123500D02*
D03*
X213000Y113500D02*
D03*
X81000Y124000D02*
D03*
X119000Y114000D02*
D03*
X157000Y3500D02*
D03*
X137000D02*
D03*
D24*
X173000Y113500D02*
D03*
X213000Y123500D02*
D03*
X81000Y114000D02*
D03*
X119000Y124000D02*
D03*
X157000Y13500D02*
D03*
X137000D02*
D03*
D25*
X187000Y133500D02*
D03*
X53000Y134000D02*
D03*
X95000D02*
D03*
D26*
X197000Y133500D02*
D03*
X43000Y134000D02*
D03*
X105000D02*
D03*
D27*
X23000D02*
D03*
X33000D02*
D03*
D28*
X204000Y48000D02*
D03*
X120000Y62000D02*
D03*
D29*
X87992Y20047D02*
D03*
X112008D02*
D03*
X87992Y-3968D02*
D03*
X112008D02*
D03*
X179992Y20047D02*
D03*
X204008D02*
D03*
X179992Y-3968D02*
D03*
X204008D02*
D03*
D30*
X100000Y8000D02*
D03*
X192000D02*
D03*
D31*
X99000Y37000D02*
D03*
X89000D02*
D03*
X79000D02*
D03*
X69000Y27000D02*
D03*
X68500Y37000D02*
D03*
X58500D02*
D03*
X48500D02*
D03*
X137500Y65500D02*
D03*
X155500Y123500D02*
D03*
X145500D02*
D03*
X135500D02*
D03*
X125500Y132000D02*
D03*
X135500D02*
D03*
X145500D02*
D03*
X155500D02*
D03*
X165500D02*
D03*
X125500Y139500D02*
D03*
X135500D02*
D03*
X145500D02*
D03*
X155500D02*
D03*
X165500D02*
D03*
X10500Y19500D02*
D03*
Y29500D02*
D03*
Y39500D02*
D03*
X3000Y19500D02*
D03*
Y29500D02*
D03*
Y39500D02*
D03*
X-4500Y19500D02*
D03*
Y29500D02*
D03*
Y39500D02*
D03*
X10500Y49500D02*
D03*
Y59500D02*
D03*
Y69500D02*
D03*
Y79500D02*
D03*
Y89500D02*
D03*
Y99500D02*
D03*
Y109500D02*
D03*
Y119500D02*
D03*
X3000Y49500D02*
D03*
Y59500D02*
D03*
Y69500D02*
D03*
Y79500D02*
D03*
Y89500D02*
D03*
Y99500D02*
D03*
Y109500D02*
D03*
Y119500D02*
D03*
X-4500Y49500D02*
D03*
Y59500D02*
D03*
Y69500D02*
D03*
Y79500D02*
D03*
Y89500D02*
D03*
Y99500D02*
D03*
Y109500D02*
D03*
Y119500D02*
D03*
X176000Y147500D02*
D03*
X206000D02*
D03*
X216000D02*
D03*
X125500D02*
D03*
X135500D02*
D03*
X145500D02*
D03*
X155500D02*
D03*
X165500D02*
D03*
X75500D02*
D03*
X85500D02*
D03*
X115500D02*
D03*
X205000Y64000D02*
D03*
X215000D02*
D03*
Y54000D02*
D03*
Y44000D02*
D03*
X205000Y34000D02*
D03*
X215000D02*
D03*
X18500Y26500D02*
D03*
X28500D02*
D03*
X38500D02*
D03*
X48500D02*
D03*
X58500D02*
D03*
X18500Y16500D02*
D03*
X28500D02*
D03*
X38500D02*
D03*
X48500D02*
D03*
X58500D02*
D03*
X18500Y6500D02*
D03*
X28500D02*
D03*
X38500D02*
D03*
X48500D02*
D03*
X58500D02*
D03*
X18500Y-3500D02*
D03*
X28500D02*
D03*
X48500D02*
D03*
X222500Y144000D02*
D03*
Y134000D02*
D03*
Y124000D02*
D03*
Y114000D02*
D03*
Y104000D02*
D03*
Y94000D02*
D03*
Y84000D02*
D03*
Y74000D02*
D03*
Y64000D02*
D03*
Y54000D02*
D03*
Y44000D02*
D03*
Y34000D02*
D03*
X49000Y55000D02*
D03*
X147693Y66520D02*
D03*
X74000Y66496D02*
D03*
X185000Y57500D02*
D03*
Y46500D02*
D03*
X175000Y103500D02*
D03*
X212500D02*
D03*
X165500Y72500D02*
D03*
X93000Y59500D02*
D03*
X83000Y104000D02*
D03*
X115386Y96614D02*
D03*
X124000Y96000D02*
D03*
X165500Y82500D02*
D03*
X49000Y50500D02*
D03*
X54500D02*
D03*
Y55000D02*
D03*
X33500Y54500D02*
D03*
X26500D02*
D03*
X19500Y38500D02*
D03*
X146000Y96000D02*
D03*
X165000Y48500D02*
D03*
X126500Y72500D02*
D03*
X159500Y60000D02*
D03*
X227000Y58000D02*
D03*
X160000Y112500D02*
D03*
X69000Y16500D02*
D03*
Y6500D02*
D03*
Y-3500D02*
D03*
X219000Y17500D02*
D03*
Y7500D02*
D03*
Y-2500D02*
D03*
X131500Y27500D02*
D03*
X141500D02*
D03*
X151500D02*
D03*
X125000Y16500D02*
D03*
Y6500D02*
D03*
Y-3500D02*
D03*
X167000Y17500D02*
D03*
Y7500D02*
D03*
Y-2500D02*
D03*
D32*
X38500Y-3500D02*
D03*
X58500D02*
D03*
D33*
X241000Y137000D02*
D03*
X0Y0D02*
D03*
Y137000D02*
D03*
X241000Y0D02*
D03*
D34*
X100000Y146000D02*
D03*
X191500Y146500D02*
D03*
M02*
