M48
; DRILL file {KiCad 8.0.8} date 2025-08-26T11:44:21+1200
; FORMAT={-:-/ absolute / inch / decimal}
; #@! TF.CreationDate,2025-08-26T11:44:21+12:00
; #@! TF.GenerationSoftware,Kicad,Pcbnew,8.0.8
; #@! TF.FileFunction,Plated,1,2,PTH
FMAT,2
INCH
; #@! TA.AperFunction,Plated,PTH,ViaDrill
T1C0.0118
; #@! TA.AperFunction,Plated,PTH,ViaDrill
T2C0.0197
; #@! TA.AperFunction,Plated,PTH,ComponentDrill
T3C0.0295
; #@! TA.AperFunction,Plated,PTH,ViaDrill
T4C0.0315
; #@! TA.AperFunction,Plated,PTH,ComponentDrill
T5C0.0315
; #@! TA.AperFunction,Plated,PTH,ComponentDrill
T6C0.0598
%
G90
G05
T1
X6.9779Y-3.1902
X6.9975Y-3.2823
X7.0954Y-2.552
X7.2259Y-2.4701
X7.2353Y-3.0594
X7.2381Y-3.1016
X7.2381Y-3.224
X7.531Y-3.0122
X7.6023Y-2.298
X7.6097Y-2.8177
X7.6279Y-2.174
X7.9719Y-2.4731
X8.1849Y-2.5043
X8.2208Y-2.8524
X8.4723Y-2.5791
T2
X7.272Y-2.6283
X7.9594Y-2.5386
X7.9696Y-3.1236
X8.142Y-2.5504
X8.5401Y-2.8228
T3
X7.6432Y-3.4929
X7.6432Y-3.5429
X7.6432Y-3.5929
X8.1971Y-3.4815
X8.1971Y-3.5315
X8.1971Y-3.5815
X8.868Y-3.1216
X8.8909Y-2.5109
X8.918Y-3.1216
X8.9409Y-2.5109
X8.968Y-3.1216
X8.9909Y-2.5109
T4
X6.8802Y-2.595
X6.8802Y-2.8648
X6.8802Y-3.1856
X6.8802Y-2.2745
X7.4707Y-2.2742
X7.4707Y-2.595
X7.4707Y-2.8648
X7.4707Y-3.1856
X8.0613Y-2.2742
X8.0613Y-2.595
X8.0613Y-2.8648
X8.0613Y-3.1856
X8.6518Y-2.2742
X8.6518Y-2.595
X8.6518Y-2.8648
X8.6518Y-3.1856
T5
X7.0964Y-2.7315
X7.1121Y-3.328
X7.1751Y-2.7315
X7.1909Y-3.328
X7.8566Y-2.7295
X7.8712Y-2.1331
X7.9353Y-2.7295
X7.9499Y-2.1331
X8.3172Y-2.3213
X8.3196Y-3.152
X8.396Y-2.3213
X8.3983Y-3.152
X8.8838Y-3.3331
X8.8897Y-2.7315
X8.9625Y-3.3331
X8.9684Y-2.7315
T6
X7.6649Y-3.848
X7.8649Y-3.848
X8.118Y-3.8476
X8.318Y-3.8476
M30
