%TF.GenerationSoftware,KiCad,Pcbnew,8.0.8*%
%TF.CreationDate,2025-08-26T11:44:10+12:00*%
%TF.ProjectId,esfgrid_ckt_Multi,65736667-7269-4645-9f63-6b745f4d756c,rev?*%
%TF.SameCoordinates,Original*%
%TF.FileFunction,Legend,Top*%
%TF.FilePolarity,Positive*%
%FSLAX46Y46*%
G04 Gerber Fmt 4.6, Leading zero omitted, Abs format (unit mm)*
G04 Created by KiCad (PCBNEW 8.0.8) date 2025-08-26 11:44:10*
%MOMM*%
%LPD*%
G01*
G04 APERTURE LIST*
%ADD10C,0.100000*%
%ADD11C,0.120000*%
G04 APERTURE END LIST*
D10*
X184701960Y-70152419D02*
X184892436Y-70152419D01*
X184892436Y-70152419D02*
X184987674Y-70200038D01*
X184987674Y-70200038D02*
X185082912Y-70295276D01*
X185082912Y-70295276D02*
X185130531Y-70485752D01*
X185130531Y-70485752D02*
X185130531Y-70819085D01*
X185130531Y-70819085D02*
X185082912Y-71009561D01*
X185082912Y-71009561D02*
X184987674Y-71104800D01*
X184987674Y-71104800D02*
X184892436Y-71152419D01*
X184892436Y-71152419D02*
X184701960Y-71152419D01*
X184701960Y-71152419D02*
X184606722Y-71104800D01*
X184606722Y-71104800D02*
X184511484Y-71009561D01*
X184511484Y-71009561D02*
X184463865Y-70819085D01*
X184463865Y-70819085D02*
X184463865Y-70485752D01*
X184463865Y-70485752D02*
X184511484Y-70295276D01*
X184511484Y-70295276D02*
X184606722Y-70200038D01*
X184606722Y-70200038D02*
X184701960Y-70152419D01*
X186273388Y-70104800D02*
X185416246Y-71390514D01*
X186606722Y-71152419D02*
X186606722Y-70152419D01*
X186606722Y-70152419D02*
X186987674Y-70152419D01*
X186987674Y-70152419D02*
X187082912Y-70200038D01*
X187082912Y-70200038D02*
X187130531Y-70247657D01*
X187130531Y-70247657D02*
X187178150Y-70342895D01*
X187178150Y-70342895D02*
X187178150Y-70485752D01*
X187178150Y-70485752D02*
X187130531Y-70580990D01*
X187130531Y-70580990D02*
X187082912Y-70628609D01*
X187082912Y-70628609D02*
X186987674Y-70676228D01*
X186987674Y-70676228D02*
X186606722Y-70676228D01*
X176645293Y-68860038D02*
X176550055Y-68812419D01*
X176550055Y-68812419D02*
X176407198Y-68812419D01*
X176407198Y-68812419D02*
X176264341Y-68860038D01*
X176264341Y-68860038D02*
X176169103Y-68955276D01*
X176169103Y-68955276D02*
X176121484Y-69050514D01*
X176121484Y-69050514D02*
X176073865Y-69240990D01*
X176073865Y-69240990D02*
X176073865Y-69383847D01*
X176073865Y-69383847D02*
X176121484Y-69574323D01*
X176121484Y-69574323D02*
X176169103Y-69669561D01*
X176169103Y-69669561D02*
X176264341Y-69764800D01*
X176264341Y-69764800D02*
X176407198Y-69812419D01*
X176407198Y-69812419D02*
X176502436Y-69812419D01*
X176502436Y-69812419D02*
X176645293Y-69764800D01*
X176645293Y-69764800D02*
X176692912Y-69717180D01*
X176692912Y-69717180D02*
X176692912Y-69383847D01*
X176692912Y-69383847D02*
X176502436Y-69383847D01*
X177121484Y-69145752D02*
X177121484Y-69812419D01*
X177121484Y-69240990D02*
X177169103Y-69193371D01*
X177169103Y-69193371D02*
X177264341Y-69145752D01*
X177264341Y-69145752D02*
X177407198Y-69145752D01*
X177407198Y-69145752D02*
X177502436Y-69193371D01*
X177502436Y-69193371D02*
X177550055Y-69288609D01*
X177550055Y-69288609D02*
X177550055Y-69812419D01*
X178454817Y-69812419D02*
X178454817Y-68812419D01*
X178454817Y-69764800D02*
X178359579Y-69812419D01*
X178359579Y-69812419D02*
X178169103Y-69812419D01*
X178169103Y-69812419D02*
X178073865Y-69764800D01*
X178073865Y-69764800D02*
X178026246Y-69717180D01*
X178026246Y-69717180D02*
X177978627Y-69621942D01*
X177978627Y-69621942D02*
X177978627Y-69336228D01*
X177978627Y-69336228D02*
X178026246Y-69240990D01*
X178026246Y-69240990D02*
X178073865Y-69193371D01*
X178073865Y-69193371D02*
X178169103Y-69145752D01*
X178169103Y-69145752D02*
X178359579Y-69145752D01*
X178359579Y-69145752D02*
X178454817Y-69193371D01*
X201121960Y-66512419D02*
X201312436Y-66512419D01*
X201312436Y-66512419D02*
X201407674Y-66560038D01*
X201407674Y-66560038D02*
X201502912Y-66655276D01*
X201502912Y-66655276D02*
X201550531Y-66845752D01*
X201550531Y-66845752D02*
X201550531Y-67179085D01*
X201550531Y-67179085D02*
X201502912Y-67369561D01*
X201502912Y-67369561D02*
X201407674Y-67464800D01*
X201407674Y-67464800D02*
X201312436Y-67512419D01*
X201312436Y-67512419D02*
X201121960Y-67512419D01*
X201121960Y-67512419D02*
X201026722Y-67464800D01*
X201026722Y-67464800D02*
X200931484Y-67369561D01*
X200931484Y-67369561D02*
X200883865Y-67179085D01*
X200883865Y-67179085D02*
X200883865Y-66845752D01*
X200883865Y-66845752D02*
X200931484Y-66655276D01*
X200931484Y-66655276D02*
X201026722Y-66560038D01*
X201026722Y-66560038D02*
X201121960Y-66512419D01*
X202693388Y-66464800D02*
X201836246Y-67750514D01*
X203026722Y-67512419D02*
X203026722Y-66512419D01*
X203026722Y-66512419D02*
X203407674Y-66512419D01*
X203407674Y-66512419D02*
X203502912Y-66560038D01*
X203502912Y-66560038D02*
X203550531Y-66607657D01*
X203550531Y-66607657D02*
X203598150Y-66702895D01*
X203598150Y-66702895D02*
X203598150Y-66845752D01*
X203598150Y-66845752D02*
X203550531Y-66940990D01*
X203550531Y-66940990D02*
X203502912Y-66988609D01*
X203502912Y-66988609D02*
X203407674Y-67036228D01*
X203407674Y-67036228D02*
X203026722Y-67036228D01*
X196265293Y-67710038D02*
X196170055Y-67662419D01*
X196170055Y-67662419D02*
X196027198Y-67662419D01*
X196027198Y-67662419D02*
X195884341Y-67710038D01*
X195884341Y-67710038D02*
X195789103Y-67805276D01*
X195789103Y-67805276D02*
X195741484Y-67900514D01*
X195741484Y-67900514D02*
X195693865Y-68090990D01*
X195693865Y-68090990D02*
X195693865Y-68233847D01*
X195693865Y-68233847D02*
X195741484Y-68424323D01*
X195741484Y-68424323D02*
X195789103Y-68519561D01*
X195789103Y-68519561D02*
X195884341Y-68614800D01*
X195884341Y-68614800D02*
X196027198Y-68662419D01*
X196027198Y-68662419D02*
X196122436Y-68662419D01*
X196122436Y-68662419D02*
X196265293Y-68614800D01*
X196265293Y-68614800D02*
X196312912Y-68567180D01*
X196312912Y-68567180D02*
X196312912Y-68233847D01*
X196312912Y-68233847D02*
X196122436Y-68233847D01*
X196741484Y-67995752D02*
X196741484Y-68662419D01*
X196741484Y-68090990D02*
X196789103Y-68043371D01*
X196789103Y-68043371D02*
X196884341Y-67995752D01*
X196884341Y-67995752D02*
X197027198Y-67995752D01*
X197027198Y-67995752D02*
X197122436Y-68043371D01*
X197122436Y-68043371D02*
X197170055Y-68138609D01*
X197170055Y-68138609D02*
X197170055Y-68662419D01*
X198074817Y-68662419D02*
X198074817Y-67662419D01*
X198074817Y-68614800D02*
X197979579Y-68662419D01*
X197979579Y-68662419D02*
X197789103Y-68662419D01*
X197789103Y-68662419D02*
X197693865Y-68614800D01*
X197693865Y-68614800D02*
X197646246Y-68567180D01*
X197646246Y-68567180D02*
X197598627Y-68471942D01*
X197598627Y-68471942D02*
X197598627Y-68186228D01*
X197598627Y-68186228D02*
X197646246Y-68090990D01*
X197646246Y-68090990D02*
X197693865Y-68043371D01*
X197693865Y-68043371D02*
X197789103Y-67995752D01*
X197789103Y-67995752D02*
X197979579Y-67995752D01*
X197979579Y-67995752D02*
X198074817Y-68043371D01*
X223835293Y-66640038D02*
X223740055Y-66592419D01*
X223740055Y-66592419D02*
X223597198Y-66592419D01*
X223597198Y-66592419D02*
X223454341Y-66640038D01*
X223454341Y-66640038D02*
X223359103Y-66735276D01*
X223359103Y-66735276D02*
X223311484Y-66830514D01*
X223311484Y-66830514D02*
X223263865Y-67020990D01*
X223263865Y-67020990D02*
X223263865Y-67163847D01*
X223263865Y-67163847D02*
X223311484Y-67354323D01*
X223311484Y-67354323D02*
X223359103Y-67449561D01*
X223359103Y-67449561D02*
X223454341Y-67544800D01*
X223454341Y-67544800D02*
X223597198Y-67592419D01*
X223597198Y-67592419D02*
X223692436Y-67592419D01*
X223692436Y-67592419D02*
X223835293Y-67544800D01*
X223835293Y-67544800D02*
X223882912Y-67497180D01*
X223882912Y-67497180D02*
X223882912Y-67163847D01*
X223882912Y-67163847D02*
X223692436Y-67163847D01*
X224311484Y-66925752D02*
X224311484Y-67592419D01*
X224311484Y-67020990D02*
X224359103Y-66973371D01*
X224359103Y-66973371D02*
X224454341Y-66925752D01*
X224454341Y-66925752D02*
X224597198Y-66925752D01*
X224597198Y-66925752D02*
X224692436Y-66973371D01*
X224692436Y-66973371D02*
X224740055Y-67068609D01*
X224740055Y-67068609D02*
X224740055Y-67592419D01*
X225644817Y-67592419D02*
X225644817Y-66592419D01*
X225644817Y-67544800D02*
X225549579Y-67592419D01*
X225549579Y-67592419D02*
X225359103Y-67592419D01*
X225359103Y-67592419D02*
X225263865Y-67544800D01*
X225263865Y-67544800D02*
X225216246Y-67497180D01*
X225216246Y-67497180D02*
X225168627Y-67401942D01*
X225168627Y-67401942D02*
X225168627Y-67116228D01*
X225168627Y-67116228D02*
X225216246Y-67020990D01*
X225216246Y-67020990D02*
X225263865Y-66973371D01*
X225263865Y-66973371D02*
X225359103Y-66925752D01*
X225359103Y-66925752D02*
X225549579Y-66925752D01*
X225549579Y-66925752D02*
X225644817Y-66973371D01*
X227073389Y-66592419D02*
X227263865Y-66592419D01*
X227263865Y-66592419D02*
X227359103Y-66640038D01*
X227359103Y-66640038D02*
X227454341Y-66735276D01*
X227454341Y-66735276D02*
X227501960Y-66925752D01*
X227501960Y-66925752D02*
X227501960Y-67259085D01*
X227501960Y-67259085D02*
X227454341Y-67449561D01*
X227454341Y-67449561D02*
X227359103Y-67544800D01*
X227359103Y-67544800D02*
X227263865Y-67592419D01*
X227263865Y-67592419D02*
X227073389Y-67592419D01*
X227073389Y-67592419D02*
X226978151Y-67544800D01*
X226978151Y-67544800D02*
X226882913Y-67449561D01*
X226882913Y-67449561D02*
X226835294Y-67259085D01*
X226835294Y-67259085D02*
X226835294Y-66925752D01*
X226835294Y-66925752D02*
X226882913Y-66735276D01*
X226882913Y-66735276D02*
X226978151Y-66640038D01*
X226978151Y-66640038D02*
X227073389Y-66592419D01*
X228644817Y-66544800D02*
X227787675Y-67830514D01*
X228978151Y-67592419D02*
X228978151Y-66592419D01*
X228978151Y-66592419D02*
X229359103Y-66592419D01*
X229359103Y-66592419D02*
X229454341Y-66640038D01*
X229454341Y-66640038D02*
X229501960Y-66687657D01*
X229501960Y-66687657D02*
X229549579Y-66782895D01*
X229549579Y-66782895D02*
X229549579Y-66925752D01*
X229549579Y-66925752D02*
X229501960Y-67020990D01*
X229501960Y-67020990D02*
X229454341Y-67068609D01*
X229454341Y-67068609D02*
X229359103Y-67116228D01*
X229359103Y-67116228D02*
X228978151Y-67116228D01*
X209671960Y-81932419D02*
X209862436Y-81932419D01*
X209862436Y-81932419D02*
X209957674Y-81980038D01*
X209957674Y-81980038D02*
X210052912Y-82075276D01*
X210052912Y-82075276D02*
X210100531Y-82265752D01*
X210100531Y-82265752D02*
X210100531Y-82599085D01*
X210100531Y-82599085D02*
X210052912Y-82789561D01*
X210052912Y-82789561D02*
X209957674Y-82884800D01*
X209957674Y-82884800D02*
X209862436Y-82932419D01*
X209862436Y-82932419D02*
X209671960Y-82932419D01*
X209671960Y-82932419D02*
X209576722Y-82884800D01*
X209576722Y-82884800D02*
X209481484Y-82789561D01*
X209481484Y-82789561D02*
X209433865Y-82599085D01*
X209433865Y-82599085D02*
X209433865Y-82265752D01*
X209433865Y-82265752D02*
X209481484Y-82075276D01*
X209481484Y-82075276D02*
X209576722Y-81980038D01*
X209576722Y-81980038D02*
X209671960Y-81932419D01*
X211243388Y-81884800D02*
X210386246Y-83170514D01*
X211576722Y-82932419D02*
X211576722Y-81932419D01*
X211576722Y-81932419D02*
X211957674Y-81932419D01*
X211957674Y-81932419D02*
X212052912Y-81980038D01*
X212052912Y-81980038D02*
X212100531Y-82027657D01*
X212100531Y-82027657D02*
X212148150Y-82122895D01*
X212148150Y-82122895D02*
X212148150Y-82265752D01*
X212148150Y-82265752D02*
X212100531Y-82360990D01*
X212100531Y-82360990D02*
X212052912Y-82408609D01*
X212052912Y-82408609D02*
X211957674Y-82456228D01*
X211957674Y-82456228D02*
X211576722Y-82456228D01*
X213862436Y-81980038D02*
X213767198Y-81932419D01*
X213767198Y-81932419D02*
X213624341Y-81932419D01*
X213624341Y-81932419D02*
X213481484Y-81980038D01*
X213481484Y-81980038D02*
X213386246Y-82075276D01*
X213386246Y-82075276D02*
X213338627Y-82170514D01*
X213338627Y-82170514D02*
X213291008Y-82360990D01*
X213291008Y-82360990D02*
X213291008Y-82503847D01*
X213291008Y-82503847D02*
X213338627Y-82694323D01*
X213338627Y-82694323D02*
X213386246Y-82789561D01*
X213386246Y-82789561D02*
X213481484Y-82884800D01*
X213481484Y-82884800D02*
X213624341Y-82932419D01*
X213624341Y-82932419D02*
X213719579Y-82932419D01*
X213719579Y-82932419D02*
X213862436Y-82884800D01*
X213862436Y-82884800D02*
X213910055Y-82837180D01*
X213910055Y-82837180D02*
X213910055Y-82503847D01*
X213910055Y-82503847D02*
X213719579Y-82503847D01*
X214338627Y-82265752D02*
X214338627Y-82932419D01*
X214338627Y-82360990D02*
X214386246Y-82313371D01*
X214386246Y-82313371D02*
X214481484Y-82265752D01*
X214481484Y-82265752D02*
X214624341Y-82265752D01*
X214624341Y-82265752D02*
X214719579Y-82313371D01*
X214719579Y-82313371D02*
X214767198Y-82408609D01*
X214767198Y-82408609D02*
X214767198Y-82932419D01*
X215671960Y-82932419D02*
X215671960Y-81932419D01*
X215671960Y-82884800D02*
X215576722Y-82932419D01*
X215576722Y-82932419D02*
X215386246Y-82932419D01*
X215386246Y-82932419D02*
X215291008Y-82884800D01*
X215291008Y-82884800D02*
X215243389Y-82837180D01*
X215243389Y-82837180D02*
X215195770Y-82741942D01*
X215195770Y-82741942D02*
X215195770Y-82456228D01*
X215195770Y-82456228D02*
X215243389Y-82360990D01*
X215243389Y-82360990D02*
X215291008Y-82313371D01*
X215291008Y-82313371D02*
X215386246Y-82265752D01*
X215386246Y-82265752D02*
X215576722Y-82265752D01*
X215576722Y-82265752D02*
X215671960Y-82313371D01*
X209965293Y-55440038D02*
X209870055Y-55392419D01*
X209870055Y-55392419D02*
X209727198Y-55392419D01*
X209727198Y-55392419D02*
X209584341Y-55440038D01*
X209584341Y-55440038D02*
X209489103Y-55535276D01*
X209489103Y-55535276D02*
X209441484Y-55630514D01*
X209441484Y-55630514D02*
X209393865Y-55820990D01*
X209393865Y-55820990D02*
X209393865Y-55963847D01*
X209393865Y-55963847D02*
X209441484Y-56154323D01*
X209441484Y-56154323D02*
X209489103Y-56249561D01*
X209489103Y-56249561D02*
X209584341Y-56344800D01*
X209584341Y-56344800D02*
X209727198Y-56392419D01*
X209727198Y-56392419D02*
X209822436Y-56392419D01*
X209822436Y-56392419D02*
X209965293Y-56344800D01*
X209965293Y-56344800D02*
X210012912Y-56297180D01*
X210012912Y-56297180D02*
X210012912Y-55963847D01*
X210012912Y-55963847D02*
X209822436Y-55963847D01*
X210441484Y-55725752D02*
X210441484Y-56392419D01*
X210441484Y-55820990D02*
X210489103Y-55773371D01*
X210489103Y-55773371D02*
X210584341Y-55725752D01*
X210584341Y-55725752D02*
X210727198Y-55725752D01*
X210727198Y-55725752D02*
X210822436Y-55773371D01*
X210822436Y-55773371D02*
X210870055Y-55868609D01*
X210870055Y-55868609D02*
X210870055Y-56392419D01*
X211774817Y-56392419D02*
X211774817Y-55392419D01*
X211774817Y-56344800D02*
X211679579Y-56392419D01*
X211679579Y-56392419D02*
X211489103Y-56392419D01*
X211489103Y-56392419D02*
X211393865Y-56344800D01*
X211393865Y-56344800D02*
X211346246Y-56297180D01*
X211346246Y-56297180D02*
X211298627Y-56201942D01*
X211298627Y-56201942D02*
X211298627Y-55916228D01*
X211298627Y-55916228D02*
X211346246Y-55820990D01*
X211346246Y-55820990D02*
X211393865Y-55773371D01*
X211393865Y-55773371D02*
X211489103Y-55725752D01*
X211489103Y-55725752D02*
X211679579Y-55725752D01*
X211679579Y-55725752D02*
X211774817Y-55773371D01*
X213203389Y-55392419D02*
X213393865Y-55392419D01*
X213393865Y-55392419D02*
X213489103Y-55440038D01*
X213489103Y-55440038D02*
X213584341Y-55535276D01*
X213584341Y-55535276D02*
X213631960Y-55725752D01*
X213631960Y-55725752D02*
X213631960Y-56059085D01*
X213631960Y-56059085D02*
X213584341Y-56249561D01*
X213584341Y-56249561D02*
X213489103Y-56344800D01*
X213489103Y-56344800D02*
X213393865Y-56392419D01*
X213393865Y-56392419D02*
X213203389Y-56392419D01*
X213203389Y-56392419D02*
X213108151Y-56344800D01*
X213108151Y-56344800D02*
X213012913Y-56249561D01*
X213012913Y-56249561D02*
X212965294Y-56059085D01*
X212965294Y-56059085D02*
X212965294Y-55725752D01*
X212965294Y-55725752D02*
X213012913Y-55535276D01*
X213012913Y-55535276D02*
X213108151Y-55440038D01*
X213108151Y-55440038D02*
X213203389Y-55392419D01*
X214774817Y-55344800D02*
X213917675Y-56630514D01*
X215108151Y-56392419D02*
X215108151Y-55392419D01*
X215108151Y-55392419D02*
X215489103Y-55392419D01*
X215489103Y-55392419D02*
X215584341Y-55440038D01*
X215584341Y-55440038D02*
X215631960Y-55487657D01*
X215631960Y-55487657D02*
X215679579Y-55582895D01*
X215679579Y-55582895D02*
X215679579Y-55725752D01*
X215679579Y-55725752D02*
X215631960Y-55820990D01*
X215631960Y-55820990D02*
X215584341Y-55868609D01*
X215584341Y-55868609D02*
X215489103Y-55916228D01*
X215489103Y-55916228D02*
X215108151Y-55916228D01*
X225365293Y-86840038D02*
X225270055Y-86792419D01*
X225270055Y-86792419D02*
X225127198Y-86792419D01*
X225127198Y-86792419D02*
X224984341Y-86840038D01*
X224984341Y-86840038D02*
X224889103Y-86935276D01*
X224889103Y-86935276D02*
X224841484Y-87030514D01*
X224841484Y-87030514D02*
X224793865Y-87220990D01*
X224793865Y-87220990D02*
X224793865Y-87363847D01*
X224793865Y-87363847D02*
X224841484Y-87554323D01*
X224841484Y-87554323D02*
X224889103Y-87649561D01*
X224889103Y-87649561D02*
X224984341Y-87744800D01*
X224984341Y-87744800D02*
X225127198Y-87792419D01*
X225127198Y-87792419D02*
X225222436Y-87792419D01*
X225222436Y-87792419D02*
X225365293Y-87744800D01*
X225365293Y-87744800D02*
X225412912Y-87697180D01*
X225412912Y-87697180D02*
X225412912Y-87363847D01*
X225412912Y-87363847D02*
X225222436Y-87363847D01*
X225841484Y-87125752D02*
X225841484Y-87792419D01*
X225841484Y-87220990D02*
X225889103Y-87173371D01*
X225889103Y-87173371D02*
X225984341Y-87125752D01*
X225984341Y-87125752D02*
X226127198Y-87125752D01*
X226127198Y-87125752D02*
X226222436Y-87173371D01*
X226222436Y-87173371D02*
X226270055Y-87268609D01*
X226270055Y-87268609D02*
X226270055Y-87792419D01*
X227174817Y-87792419D02*
X227174817Y-86792419D01*
X227174817Y-87744800D02*
X227079579Y-87792419D01*
X227079579Y-87792419D02*
X226889103Y-87792419D01*
X226889103Y-87792419D02*
X226793865Y-87744800D01*
X226793865Y-87744800D02*
X226746246Y-87697180D01*
X226746246Y-87697180D02*
X226698627Y-87601942D01*
X226698627Y-87601942D02*
X226698627Y-87316228D01*
X226698627Y-87316228D02*
X226746246Y-87220990D01*
X226746246Y-87220990D02*
X226793865Y-87173371D01*
X226793865Y-87173371D02*
X226889103Y-87125752D01*
X226889103Y-87125752D02*
X227079579Y-87125752D01*
X227079579Y-87125752D02*
X227174817Y-87173371D01*
X228603389Y-86792419D02*
X228793865Y-86792419D01*
X228793865Y-86792419D02*
X228889103Y-86840038D01*
X228889103Y-86840038D02*
X228984341Y-86935276D01*
X228984341Y-86935276D02*
X229031960Y-87125752D01*
X229031960Y-87125752D02*
X229031960Y-87459085D01*
X229031960Y-87459085D02*
X228984341Y-87649561D01*
X228984341Y-87649561D02*
X228889103Y-87744800D01*
X228889103Y-87744800D02*
X228793865Y-87792419D01*
X228793865Y-87792419D02*
X228603389Y-87792419D01*
X228603389Y-87792419D02*
X228508151Y-87744800D01*
X228508151Y-87744800D02*
X228412913Y-87649561D01*
X228412913Y-87649561D02*
X228365294Y-87459085D01*
X228365294Y-87459085D02*
X228365294Y-87125752D01*
X228365294Y-87125752D02*
X228412913Y-86935276D01*
X228412913Y-86935276D02*
X228508151Y-86840038D01*
X228508151Y-86840038D02*
X228603389Y-86792419D01*
X230174817Y-86744800D02*
X229317675Y-88030514D01*
X230508151Y-87792419D02*
X230508151Y-86792419D01*
X230508151Y-86792419D02*
X230889103Y-86792419D01*
X230889103Y-86792419D02*
X230984341Y-86840038D01*
X230984341Y-86840038D02*
X231031960Y-86887657D01*
X231031960Y-86887657D02*
X231079579Y-86982895D01*
X231079579Y-86982895D02*
X231079579Y-87125752D01*
X231079579Y-87125752D02*
X231031960Y-87220990D01*
X231031960Y-87220990D02*
X230984341Y-87268609D01*
X230984341Y-87268609D02*
X230889103Y-87316228D01*
X230889103Y-87316228D02*
X230508151Y-87316228D01*
X179675293Y-87070038D02*
X179580055Y-87022419D01*
X179580055Y-87022419D02*
X179437198Y-87022419D01*
X179437198Y-87022419D02*
X179294341Y-87070038D01*
X179294341Y-87070038D02*
X179199103Y-87165276D01*
X179199103Y-87165276D02*
X179151484Y-87260514D01*
X179151484Y-87260514D02*
X179103865Y-87450990D01*
X179103865Y-87450990D02*
X179103865Y-87593847D01*
X179103865Y-87593847D02*
X179151484Y-87784323D01*
X179151484Y-87784323D02*
X179199103Y-87879561D01*
X179199103Y-87879561D02*
X179294341Y-87974800D01*
X179294341Y-87974800D02*
X179437198Y-88022419D01*
X179437198Y-88022419D02*
X179532436Y-88022419D01*
X179532436Y-88022419D02*
X179675293Y-87974800D01*
X179675293Y-87974800D02*
X179722912Y-87927180D01*
X179722912Y-87927180D02*
X179722912Y-87593847D01*
X179722912Y-87593847D02*
X179532436Y-87593847D01*
X180151484Y-87355752D02*
X180151484Y-88022419D01*
X180151484Y-87450990D02*
X180199103Y-87403371D01*
X180199103Y-87403371D02*
X180294341Y-87355752D01*
X180294341Y-87355752D02*
X180437198Y-87355752D01*
X180437198Y-87355752D02*
X180532436Y-87403371D01*
X180532436Y-87403371D02*
X180580055Y-87498609D01*
X180580055Y-87498609D02*
X180580055Y-88022419D01*
X181484817Y-88022419D02*
X181484817Y-87022419D01*
X181484817Y-87974800D02*
X181389579Y-88022419D01*
X181389579Y-88022419D02*
X181199103Y-88022419D01*
X181199103Y-88022419D02*
X181103865Y-87974800D01*
X181103865Y-87974800D02*
X181056246Y-87927180D01*
X181056246Y-87927180D02*
X181008627Y-87831942D01*
X181008627Y-87831942D02*
X181008627Y-87546228D01*
X181008627Y-87546228D02*
X181056246Y-87450990D01*
X181056246Y-87450990D02*
X181103865Y-87403371D01*
X181103865Y-87403371D02*
X181199103Y-87355752D01*
X181199103Y-87355752D02*
X181389579Y-87355752D01*
X181389579Y-87355752D02*
X181484817Y-87403371D01*
X182913389Y-87022419D02*
X183103865Y-87022419D01*
X183103865Y-87022419D02*
X183199103Y-87070038D01*
X183199103Y-87070038D02*
X183294341Y-87165276D01*
X183294341Y-87165276D02*
X183341960Y-87355752D01*
X183341960Y-87355752D02*
X183341960Y-87689085D01*
X183341960Y-87689085D02*
X183294341Y-87879561D01*
X183294341Y-87879561D02*
X183199103Y-87974800D01*
X183199103Y-87974800D02*
X183103865Y-88022419D01*
X183103865Y-88022419D02*
X182913389Y-88022419D01*
X182913389Y-88022419D02*
X182818151Y-87974800D01*
X182818151Y-87974800D02*
X182722913Y-87879561D01*
X182722913Y-87879561D02*
X182675294Y-87689085D01*
X182675294Y-87689085D02*
X182675294Y-87355752D01*
X182675294Y-87355752D02*
X182722913Y-87165276D01*
X182722913Y-87165276D02*
X182818151Y-87070038D01*
X182818151Y-87070038D02*
X182913389Y-87022419D01*
X184484817Y-86974800D02*
X183627675Y-88260514D01*
X184818151Y-88022419D02*
X184818151Y-87022419D01*
X184818151Y-87022419D02*
X185199103Y-87022419D01*
X185199103Y-87022419D02*
X185294341Y-87070038D01*
X185294341Y-87070038D02*
X185341960Y-87117657D01*
X185341960Y-87117657D02*
X185389579Y-87212895D01*
X185389579Y-87212895D02*
X185389579Y-87355752D01*
X185389579Y-87355752D02*
X185341960Y-87450990D01*
X185341960Y-87450990D02*
X185294341Y-87498609D01*
X185294341Y-87498609D02*
X185199103Y-87546228D01*
X185199103Y-87546228D02*
X184818151Y-87546228D01*
X199345293Y-50620038D02*
X199250055Y-50572419D01*
X199250055Y-50572419D02*
X199107198Y-50572419D01*
X199107198Y-50572419D02*
X198964341Y-50620038D01*
X198964341Y-50620038D02*
X198869103Y-50715276D01*
X198869103Y-50715276D02*
X198821484Y-50810514D01*
X198821484Y-50810514D02*
X198773865Y-51000990D01*
X198773865Y-51000990D02*
X198773865Y-51143847D01*
X198773865Y-51143847D02*
X198821484Y-51334323D01*
X198821484Y-51334323D02*
X198869103Y-51429561D01*
X198869103Y-51429561D02*
X198964341Y-51524800D01*
X198964341Y-51524800D02*
X199107198Y-51572419D01*
X199107198Y-51572419D02*
X199202436Y-51572419D01*
X199202436Y-51572419D02*
X199345293Y-51524800D01*
X199345293Y-51524800D02*
X199392912Y-51477180D01*
X199392912Y-51477180D02*
X199392912Y-51143847D01*
X199392912Y-51143847D02*
X199202436Y-51143847D01*
X199821484Y-50905752D02*
X199821484Y-51572419D01*
X199821484Y-51000990D02*
X199869103Y-50953371D01*
X199869103Y-50953371D02*
X199964341Y-50905752D01*
X199964341Y-50905752D02*
X200107198Y-50905752D01*
X200107198Y-50905752D02*
X200202436Y-50953371D01*
X200202436Y-50953371D02*
X200250055Y-51048609D01*
X200250055Y-51048609D02*
X200250055Y-51572419D01*
X201154817Y-51572419D02*
X201154817Y-50572419D01*
X201154817Y-51524800D02*
X201059579Y-51572419D01*
X201059579Y-51572419D02*
X200869103Y-51572419D01*
X200869103Y-51572419D02*
X200773865Y-51524800D01*
X200773865Y-51524800D02*
X200726246Y-51477180D01*
X200726246Y-51477180D02*
X200678627Y-51381942D01*
X200678627Y-51381942D02*
X200678627Y-51096228D01*
X200678627Y-51096228D02*
X200726246Y-51000990D01*
X200726246Y-51000990D02*
X200773865Y-50953371D01*
X200773865Y-50953371D02*
X200869103Y-50905752D01*
X200869103Y-50905752D02*
X201059579Y-50905752D01*
X201059579Y-50905752D02*
X201154817Y-50953371D01*
X202583389Y-50572419D02*
X202773865Y-50572419D01*
X202773865Y-50572419D02*
X202869103Y-50620038D01*
X202869103Y-50620038D02*
X202964341Y-50715276D01*
X202964341Y-50715276D02*
X203011960Y-50905752D01*
X203011960Y-50905752D02*
X203011960Y-51239085D01*
X203011960Y-51239085D02*
X202964341Y-51429561D01*
X202964341Y-51429561D02*
X202869103Y-51524800D01*
X202869103Y-51524800D02*
X202773865Y-51572419D01*
X202773865Y-51572419D02*
X202583389Y-51572419D01*
X202583389Y-51572419D02*
X202488151Y-51524800D01*
X202488151Y-51524800D02*
X202392913Y-51429561D01*
X202392913Y-51429561D02*
X202345294Y-51239085D01*
X202345294Y-51239085D02*
X202345294Y-50905752D01*
X202345294Y-50905752D02*
X202392913Y-50715276D01*
X202392913Y-50715276D02*
X202488151Y-50620038D01*
X202488151Y-50620038D02*
X202583389Y-50572419D01*
X204154817Y-50524800D02*
X203297675Y-51810514D01*
X204488151Y-51572419D02*
X204488151Y-50572419D01*
X204488151Y-50572419D02*
X204869103Y-50572419D01*
X204869103Y-50572419D02*
X204964341Y-50620038D01*
X204964341Y-50620038D02*
X205011960Y-50667657D01*
X205011960Y-50667657D02*
X205059579Y-50762895D01*
X205059579Y-50762895D02*
X205059579Y-50905752D01*
X205059579Y-50905752D02*
X205011960Y-51000990D01*
X205011960Y-51000990D02*
X204964341Y-51048609D01*
X204964341Y-51048609D02*
X204869103Y-51096228D01*
X204869103Y-51096228D02*
X204488151Y-51096228D01*
X211351484Y-102801466D02*
X212113389Y-102801466D01*
X205360055Y-102355752D02*
X205360055Y-103165276D01*
X205360055Y-103165276D02*
X205312436Y-103260514D01*
X205312436Y-103260514D02*
X205264817Y-103308133D01*
X205264817Y-103308133D02*
X205169579Y-103355752D01*
X205169579Y-103355752D02*
X205026722Y-103355752D01*
X205026722Y-103355752D02*
X204931484Y-103308133D01*
X205360055Y-102974800D02*
X205264817Y-103022419D01*
X205264817Y-103022419D02*
X205074341Y-103022419D01*
X205074341Y-103022419D02*
X204979103Y-102974800D01*
X204979103Y-102974800D02*
X204931484Y-102927180D01*
X204931484Y-102927180D02*
X204883865Y-102831942D01*
X204883865Y-102831942D02*
X204883865Y-102546228D01*
X204883865Y-102546228D02*
X204931484Y-102450990D01*
X204931484Y-102450990D02*
X204979103Y-102403371D01*
X204979103Y-102403371D02*
X205074341Y-102355752D01*
X205074341Y-102355752D02*
X205264817Y-102355752D01*
X205264817Y-102355752D02*
X205360055Y-102403371D01*
X205836246Y-102355752D02*
X205836246Y-103022419D01*
X205836246Y-102450990D02*
X205883865Y-102403371D01*
X205883865Y-102403371D02*
X205979103Y-102355752D01*
X205979103Y-102355752D02*
X206121960Y-102355752D01*
X206121960Y-102355752D02*
X206217198Y-102403371D01*
X206217198Y-102403371D02*
X206264817Y-102498609D01*
X206264817Y-102498609D02*
X206264817Y-103022419D01*
X207169579Y-103022419D02*
X207169579Y-102022419D01*
X207169579Y-102974800D02*
X207074341Y-103022419D01*
X207074341Y-103022419D02*
X206883865Y-103022419D01*
X206883865Y-103022419D02*
X206788627Y-102974800D01*
X206788627Y-102974800D02*
X206741008Y-102927180D01*
X206741008Y-102927180D02*
X206693389Y-102831942D01*
X206693389Y-102831942D02*
X206693389Y-102546228D01*
X206693389Y-102546228D02*
X206741008Y-102450990D01*
X206741008Y-102450990D02*
X206788627Y-102403371D01*
X206788627Y-102403371D02*
X206883865Y-102355752D01*
X206883865Y-102355752D02*
X207074341Y-102355752D01*
X207074341Y-102355752D02*
X207169579Y-102403371D01*
X200030055Y-102405752D02*
X200030055Y-103215276D01*
X200030055Y-103215276D02*
X199982436Y-103310514D01*
X199982436Y-103310514D02*
X199934817Y-103358133D01*
X199934817Y-103358133D02*
X199839579Y-103405752D01*
X199839579Y-103405752D02*
X199696722Y-103405752D01*
X199696722Y-103405752D02*
X199601484Y-103358133D01*
X200030055Y-103024800D02*
X199934817Y-103072419D01*
X199934817Y-103072419D02*
X199744341Y-103072419D01*
X199744341Y-103072419D02*
X199649103Y-103024800D01*
X199649103Y-103024800D02*
X199601484Y-102977180D01*
X199601484Y-102977180D02*
X199553865Y-102881942D01*
X199553865Y-102881942D02*
X199553865Y-102596228D01*
X199553865Y-102596228D02*
X199601484Y-102500990D01*
X199601484Y-102500990D02*
X199649103Y-102453371D01*
X199649103Y-102453371D02*
X199744341Y-102405752D01*
X199744341Y-102405752D02*
X199934817Y-102405752D01*
X199934817Y-102405752D02*
X200030055Y-102453371D01*
X200506246Y-102405752D02*
X200506246Y-103072419D01*
X200506246Y-102500990D02*
X200553865Y-102453371D01*
X200553865Y-102453371D02*
X200649103Y-102405752D01*
X200649103Y-102405752D02*
X200791960Y-102405752D01*
X200791960Y-102405752D02*
X200887198Y-102453371D01*
X200887198Y-102453371D02*
X200934817Y-102548609D01*
X200934817Y-102548609D02*
X200934817Y-103072419D01*
X201839579Y-103072419D02*
X201839579Y-102072419D01*
X201839579Y-103024800D02*
X201744341Y-103072419D01*
X201744341Y-103072419D02*
X201553865Y-103072419D01*
X201553865Y-103072419D02*
X201458627Y-103024800D01*
X201458627Y-103024800D02*
X201411008Y-102977180D01*
X201411008Y-102977180D02*
X201363389Y-102881942D01*
X201363389Y-102881942D02*
X201363389Y-102596228D01*
X201363389Y-102596228D02*
X201411008Y-102500990D01*
X201411008Y-102500990D02*
X201458627Y-102453371D01*
X201458627Y-102453371D02*
X201553865Y-102405752D01*
X201553865Y-102405752D02*
X201744341Y-102405752D01*
X201744341Y-102405752D02*
X201839579Y-102453371D01*
X193651484Y-102951466D02*
X194413389Y-102951466D01*
X194032436Y-103332419D02*
X194032436Y-102570514D01*
D11*
%TO.C,C18*%
X216197600Y-70643733D02*
X216197600Y-70936267D01*
X215177600Y-70643733D02*
X215177600Y-70936267D01*
%TO.C,C17*%
X207217600Y-67206267D02*
X207217600Y-66913733D01*
X208237600Y-67206267D02*
X208237600Y-66913733D01*
%TO.C,U7*%
X199777600Y-61852500D02*
X199777600Y-59902500D01*
X199777600Y-61852500D02*
X199777600Y-63802500D01*
X194657600Y-61852500D02*
X194657600Y-59902500D01*
X194657600Y-61852500D02*
X194657600Y-63802500D01*
X200012600Y-59392500D02*
X199682600Y-59152500D01*
X200012600Y-58912500D01*
X200012600Y-59392500D01*
G36*
X200012600Y-59392500D02*
G01*
X199682600Y-59152500D01*
X200012600Y-58912500D01*
X200012600Y-59392500D01*
G37*
%TO.C,U5*%
X209317600Y-71625000D02*
X208987600Y-71865000D01*
X208987600Y-71385000D01*
X209317600Y-71625000D01*
G36*
X209317600Y-71625000D02*
G01*
X208987600Y-71865000D01*
X208987600Y-71385000D01*
X209317600Y-71625000D01*
G37*
X214342600Y-68925000D02*
X214342600Y-66975000D01*
X214342600Y-68925000D02*
X214342600Y-70875000D01*
X209222600Y-68925000D02*
X209222600Y-66975000D01*
X209222600Y-68925000D02*
X209222600Y-70875000D01*
%TO.C,U4*%
X182847600Y-74575000D02*
X180897600Y-74575000D01*
X182847600Y-74575000D02*
X184797600Y-74575000D01*
X182847600Y-79695000D02*
X180897600Y-79695000D01*
X182847600Y-79695000D02*
X184797600Y-79695000D01*
X180147600Y-74670000D02*
X179907600Y-74340000D01*
X180387600Y-74340000D01*
X180147600Y-74670000D01*
G36*
X180147600Y-74670000D02*
G01*
X179907600Y-74340000D01*
X180387600Y-74340000D01*
X180147600Y-74670000D01*
G37*
%TO.C,R27*%
X199899824Y-71287500D02*
X199390376Y-71287500D01*
X199899824Y-72332500D02*
X199390376Y-72332500D01*
%TO.C,R26*%
X201240100Y-75107224D02*
X201240100Y-74597776D01*
X200195100Y-75107224D02*
X200195100Y-74597776D01*
%TO.C,R25*%
X196245100Y-70735276D02*
X196245100Y-71244724D01*
X197290100Y-70735276D02*
X197290100Y-71244724D01*
%TO.C,R24*%
X190195376Y-75572500D02*
X190704824Y-75572500D01*
X190195376Y-74527500D02*
X190704824Y-74527500D01*
%TO.C,R23*%
X198000376Y-81882500D02*
X198509824Y-81882500D01*
X198000376Y-80837500D02*
X198509824Y-80837500D01*
%TO.C,R21*%
X193680100Y-82707224D02*
X193680100Y-82197776D01*
X192635100Y-82707224D02*
X192635100Y-82197776D01*
%TO.C,R20*%
X190100376Y-79222500D02*
X190609824Y-79222500D01*
X190100376Y-78177500D02*
X190609824Y-78177500D01*
%TO.C,R19*%
X227205100Y-58955276D02*
X227205100Y-59464724D01*
X228250100Y-58955276D02*
X228250100Y-59464724D01*
%TO.C,R18*%
X229950100Y-59432224D02*
X229950100Y-58922776D01*
X228905100Y-59432224D02*
X228905100Y-58922776D01*
%TO.C,R17*%
X225285100Y-58962776D02*
X225285100Y-59472224D01*
X226330100Y-58962776D02*
X226330100Y-59472224D01*
%TO.C,R16*%
X211772324Y-74352500D02*
X211262876Y-74352500D01*
X211772324Y-73307500D02*
X211262876Y-73307500D01*
%TO.C,R13*%
X213562876Y-61857500D02*
X214072324Y-61857500D01*
X213562876Y-62902500D02*
X214072324Y-62902500D01*
%TO.C,R12*%
X211362876Y-75227500D02*
X211872324Y-75227500D01*
X211362876Y-76272500D02*
X211872324Y-76272500D01*
%TO.C,R11*%
X214182324Y-64732500D02*
X213672876Y-64732500D01*
X214182324Y-63687500D02*
X213672876Y-63687500D01*
%TO.C,R10*%
X184472876Y-72597500D02*
X184982324Y-72597500D01*
X184472876Y-73642500D02*
X184982324Y-73642500D01*
%TO.C,R9*%
X175332876Y-78437500D02*
X175842324Y-78437500D01*
X175332876Y-79482500D02*
X175842324Y-79482500D01*
%TO.C,R8*%
X175432876Y-74367500D02*
X175942324Y-74367500D01*
X175432876Y-75412500D02*
X175942324Y-75412500D01*
%TO.C,R7*%
X177805100Y-80372224D02*
X177805100Y-79862776D01*
X178850100Y-80372224D02*
X178850100Y-79862776D01*
%TO.C,R6*%
X181092324Y-73582500D02*
X180582876Y-73582500D01*
X181092324Y-72537500D02*
X180582876Y-72537500D01*
%TO.C,C25*%
X195607600Y-70863733D02*
X195607600Y-71156267D01*
X194587600Y-70863733D02*
X194587600Y-71156267D01*
%TO.C,C24*%
X201187600Y-78331233D02*
X201187600Y-78623767D01*
X200167600Y-78331233D02*
X200167600Y-78623767D01*
%TO.C,C23*%
X192127600Y-72573767D02*
X192127600Y-72281233D01*
X191107600Y-72573767D02*
X191107600Y-72281233D01*
%TO.C,C21*%
X229878833Y-56850000D02*
X230171367Y-56850000D01*
X229878833Y-55830000D02*
X230171367Y-55830000D01*
%TO.C,C16*%
X208151367Y-76250000D02*
X207858833Y-76250000D01*
X208151367Y-75230000D02*
X207858833Y-75230000D01*
%TO.C,C15*%
X208727600Y-63426267D02*
X208727600Y-63133733D01*
X209747600Y-63426267D02*
X209747600Y-63133733D01*
%TO.C,C14*%
X181341367Y-81330000D02*
X181048833Y-81330000D01*
X181341367Y-80310000D02*
X181048833Y-80310000D01*
%TO.C,C13*%
X184591333Y-80280000D02*
X184883867Y-80280000D01*
X184591333Y-81300000D02*
X184883867Y-81300000D01*
%TO.C,C12*%
X177241367Y-77220000D02*
X176948833Y-77220000D01*
X177241367Y-76200000D02*
X176948833Y-76200000D01*
%TO.C,C11*%
X177737600Y-74123767D02*
X177737600Y-73831233D01*
X178757600Y-74123767D02*
X178757600Y-73831233D01*
%TO.C,C29*%
X195817601Y-56066233D02*
X195817601Y-56358767D01*
X194797601Y-56066233D02*
X194797601Y-56358767D01*
%TO.C,C28*%
X201397600Y-63533733D02*
X201397600Y-63826267D01*
X200377600Y-63533733D02*
X200377600Y-63826267D01*
%TO.C,C31*%
X230717600Y-80834983D02*
X230717600Y-81127517D01*
X229697600Y-80834983D02*
X229697600Y-81127517D01*
%TO.C,C2*%
X214897600Y-96274437D02*
X214897600Y-99730000D01*
X214897600Y-99730000D02*
X216097600Y-99730000D01*
X215962037Y-95210000D02*
X214897600Y-96274437D01*
X215962037Y-95210000D02*
X216097600Y-95210000D01*
X218353163Y-95210000D02*
X218217600Y-95210000D01*
X218353163Y-95210000D02*
X219417600Y-96274437D01*
X218717600Y-94470000D02*
X218717600Y-94970000D01*
X218967600Y-94720000D02*
X218467600Y-94720000D01*
X219417600Y-96274437D02*
X219417600Y-99730000D01*
X219417600Y-99730000D02*
X218217600Y-99730000D01*
%TO.C,C30*%
X223977600Y-74554983D02*
X223977600Y-74847517D01*
X222957600Y-74554983D02*
X222957600Y-74847517D01*
%TO.C,J16*%
X214317600Y-57900000D02*
X214317600Y-58960000D01*
X213257600Y-57900000D02*
X214317600Y-57900000D01*
X212257600Y-57900000D02*
X210197600Y-57900000D01*
X212257600Y-57900000D02*
X212257600Y-60020000D01*
X210197600Y-57900000D02*
X210197600Y-60020000D01*
X212257600Y-60020000D02*
X210197600Y-60020000D01*
%TO.C,Q1*%
X227097600Y-61177500D02*
G75*
G02*
X228936078Y-65615978I0J-2600000D01*
G01*
X225259122Y-65615978D02*
G75*
G02*
X227097600Y-61177499I1838478J1838478D01*
G01*
X225297600Y-65627500D02*
X228897600Y-65627500D01*
%TO.C,R36*%
X225750100Y-74474026D02*
X225750100Y-74983474D01*
X224705100Y-74474026D02*
X224705100Y-74983474D01*
%TO.C,C32*%
X229298833Y-71341250D02*
X229591367Y-71341250D01*
X229298833Y-72361250D02*
X229591367Y-72361250D01*
%TO.C,C7*%
X178647600Y-59103767D02*
X178647600Y-58811233D01*
X177627600Y-59103767D02*
X177627600Y-58811233D01*
%TO.C,U1*%
X192287600Y-88190000D02*
X192287600Y-91790000D01*
X192299122Y-88151522D02*
G75*
G02*
X196737601Y-89990000I1838478J-1838478D01*
G01*
X196737600Y-89990000D02*
G75*
G02*
X192299122Y-91828478I-2600000J0D01*
G01*
%TO.C,C10*%
X181231367Y-65290000D02*
X180938833Y-65290000D01*
X181231367Y-66310000D02*
X180938833Y-66310000D01*
%TO.C,C8*%
X177131367Y-61180000D02*
X176838833Y-61180000D01*
X177131367Y-62200000D02*
X176838833Y-62200000D01*
%TO.C,J3*%
X179187600Y-68320000D02*
X179187600Y-70440000D01*
X181247600Y-68320000D02*
X179187600Y-68320000D01*
X181247600Y-68320000D02*
X181247600Y-70440000D01*
X181247600Y-70440000D02*
X179187600Y-70440000D01*
X182247600Y-68320000D02*
X183307600Y-68320000D01*
X183307600Y-68320000D02*
X183307600Y-69380000D01*
%TO.C,R22*%
X193690100Y-74777776D02*
X193690100Y-75287224D01*
X192645100Y-74777776D02*
X192645100Y-75287224D01*
%TO.C,R5*%
X184362876Y-57577500D02*
X184872324Y-57577500D01*
X184362876Y-58622500D02*
X184872324Y-58622500D01*
%TO.C,J18*%
X228857600Y-68320000D02*
X228857600Y-69380000D01*
X227797600Y-68320000D02*
X228857600Y-68320000D01*
X226797600Y-70440000D02*
X224737600Y-70440000D01*
X226797600Y-68320000D02*
X226797600Y-70440000D01*
X226797600Y-68320000D02*
X224737600Y-68320000D01*
X224737600Y-68320000D02*
X224737600Y-70440000D01*
%TO.C,J8*%
X198867600Y-53120000D02*
X198867600Y-55240000D01*
X200927600Y-53120000D02*
X198867600Y-53120000D01*
X200927600Y-53120000D02*
X200927600Y-55240000D01*
X200927600Y-55240000D02*
X198867600Y-55240000D01*
X201927600Y-53120000D02*
X202987600Y-53120000D01*
X202987600Y-53120000D02*
X202987600Y-54180000D01*
%TO.C,C4*%
X216132600Y-90081252D02*
X216132600Y-89558748D01*
X217602600Y-90081252D02*
X217602600Y-89558748D01*
%TO.C,R4*%
X175222876Y-63417500D02*
X175732324Y-63417500D01*
X175222876Y-64462500D02*
X175732324Y-64462500D01*
%TO.C,J2*%
X203657600Y-93920000D02*
X203657600Y-101540000D01*
X203657600Y-95190000D02*
X213817600Y-95190000D01*
X203657600Y-101540000D02*
X213817600Y-101540000D01*
X213817600Y-93920000D02*
X203657600Y-93920000D01*
X213817600Y-101540000D02*
X213817600Y-93920000D01*
%TO.C,R29*%
X192845100Y-67909724D02*
X192845100Y-67400276D01*
X193890100Y-67909724D02*
X193890100Y-67400276D01*
%TO.C,R28*%
X190310376Y-63379999D02*
X190819824Y-63379999D01*
X190310376Y-64424999D02*
X190819824Y-64424999D01*
%TO.C,J17*%
X210257600Y-81120000D02*
X210257600Y-80060000D01*
X211317600Y-81120000D02*
X210257600Y-81120000D01*
X212317600Y-81120000D02*
X214377600Y-81120000D01*
X212317600Y-81120000D02*
X212317600Y-79000000D01*
X214377600Y-81120000D02*
X214377600Y-79000000D01*
X212317600Y-79000000D02*
X214377600Y-79000000D01*
%TO.C,C3*%
X197602600Y-89231252D02*
X197602600Y-88708748D01*
X199072600Y-89231252D02*
X199072600Y-88708748D01*
%TO.C,C1*%
X186737600Y-96524437D02*
X186737600Y-99980000D01*
X186737600Y-99980000D02*
X187937600Y-99980000D01*
X187802037Y-95460000D02*
X186737600Y-96524437D01*
X187802037Y-95460000D02*
X187937600Y-95460000D01*
X190193163Y-95460000D02*
X190057600Y-95460000D01*
X190193163Y-95460000D02*
X191257600Y-96524437D01*
X190557600Y-94720000D02*
X190557600Y-95220000D01*
X190807600Y-94970000D02*
X190307600Y-94970000D01*
X191257600Y-96524437D02*
X191257600Y-99980000D01*
X191257600Y-99980000D02*
X190057600Y-99980000D01*
%TO.C,U2*%
X210057600Y-91500000D02*
X210057600Y-87900000D01*
X205607600Y-89700000D02*
G75*
G02*
X210046078Y-87861522I2600000J0D01*
G01*
X210046078Y-91538478D02*
G75*
G02*
X205607599Y-89700000I-1838478J1838478D01*
G01*
%TO.C,J1*%
X192147600Y-93930000D02*
X192147600Y-101550000D01*
X192147600Y-95200000D02*
X202307600Y-95200000D01*
X192147600Y-101550000D02*
X202307600Y-101550000D01*
X202307600Y-93930000D02*
X192147600Y-93930000D01*
X202307600Y-101550000D02*
X202307600Y-93930000D01*
%TO.C,C26*%
X193867600Y-63638732D02*
X193867600Y-63931266D01*
X192847600Y-63638732D02*
X192847600Y-63931266D01*
%TO.C,R37*%
X228325100Y-74943474D02*
X228325100Y-74434026D01*
X229370100Y-74943474D02*
X229370100Y-74434026D01*
%TO.C,C22*%
X192637600Y-78436233D02*
X192637600Y-78728767D01*
X193657600Y-78436233D02*
X193657600Y-78728767D01*
%TO.C,Q2*%
X224717600Y-81138750D02*
X228317600Y-81138750D01*
X224679122Y-81127228D02*
G75*
G02*
X226517600Y-76688749I1838478J1838478D01*
G01*
X226517600Y-76688750D02*
G75*
G02*
X228356078Y-81127228I0J-2600000D01*
G01*
%TO.C,R35*%
X200109824Y-57535000D02*
X199600376Y-57535000D01*
X200109824Y-56490000D02*
X199600376Y-56490000D01*
%TO.C,C27*%
X191317600Y-57776267D02*
X191317600Y-57483733D01*
X192337600Y-57776267D02*
X192337600Y-57483733D01*
%TO.C,R14*%
X210695100Y-63065276D02*
X210695100Y-63574724D01*
X211740100Y-63065276D02*
X211740100Y-63574724D01*
%TO.C,U3*%
X182737600Y-59555000D02*
X180787600Y-59555000D01*
X182737600Y-59555000D02*
X184687600Y-59555000D01*
X182737600Y-64675000D02*
X180787600Y-64675000D01*
X182737600Y-64675000D02*
X184687600Y-64675000D01*
X180037600Y-59650000D02*
X179797600Y-59320000D01*
X180277600Y-59320000D01*
X180037600Y-59650000D01*
G36*
X180037600Y-59650000D02*
G01*
X179797600Y-59320000D01*
X180277600Y-59320000D01*
X180037600Y-59650000D01*
G37*
%TO.C,C20*%
X231297600Y-65323733D02*
X231297600Y-65616267D01*
X230277600Y-65323733D02*
X230277600Y-65616267D01*
%TO.C,C5*%
X199897600Y-88264437D02*
X199897600Y-91720000D01*
X199897600Y-91720000D02*
X201097600Y-91720000D01*
X200962037Y-87200000D02*
X199897600Y-88264437D01*
X200962037Y-87200000D02*
X201097600Y-87200000D01*
X203353163Y-87200000D02*
X203217600Y-87200000D01*
X203353163Y-87200000D02*
X204417600Y-88264437D01*
X203717600Y-86460000D02*
X203717600Y-86960000D01*
X203967600Y-86710000D02*
X203467600Y-86710000D01*
X204417600Y-88264437D02*
X204417600Y-91720000D01*
X204417600Y-91720000D02*
X203217600Y-91720000D01*
%TO.C,R3*%
X175322876Y-59347500D02*
X175832324Y-59347500D01*
X175322876Y-60392500D02*
X175832324Y-60392500D01*
%TO.C,R33*%
X197500101Y-55937776D02*
X197500101Y-56447224D01*
X196455101Y-55937776D02*
X196455101Y-56447224D01*
%TO.C,C6*%
X210717600Y-87160000D02*
X211917600Y-87160000D01*
X210717600Y-90615563D02*
X210717600Y-87160000D01*
X211167600Y-92170000D02*
X211667600Y-92170000D01*
X211417600Y-92420000D02*
X211417600Y-91920000D01*
X211782037Y-91680000D02*
X210717600Y-90615563D01*
X211782037Y-91680000D02*
X211917600Y-91680000D01*
X214173163Y-91680000D02*
X214037600Y-91680000D01*
X214173163Y-91680000D02*
X215237600Y-90615563D01*
X215237600Y-87160000D02*
X214037600Y-87160000D01*
X215237600Y-90615563D02*
X215237600Y-87160000D01*
%TO.C,R1*%
X180982324Y-57517500D02*
X180472876Y-57517500D01*
X180982324Y-58562500D02*
X180472876Y-58562500D01*
%TO.C,C9*%
X184481333Y-66280000D02*
X184773867Y-66280000D01*
X184481333Y-65260000D02*
X184773867Y-65260000D01*
%TO.C,R31*%
X198210375Y-66040000D02*
X198719823Y-66040000D01*
X198210375Y-67085000D02*
X198719823Y-67085000D01*
%TO.C,R32*%
X190405376Y-59730000D02*
X190914824Y-59730000D01*
X190405376Y-60775000D02*
X190914824Y-60775000D01*
%TO.C,C19*%
X224557600Y-59043733D02*
X224557600Y-59336267D01*
X223537600Y-59043733D02*
X223537600Y-59336267D01*
%TO.C,R30*%
X193900100Y-59980276D02*
X193900100Y-60489724D01*
X192855100Y-59980276D02*
X192855100Y-60489724D01*
%TO.C,R34*%
X200405100Y-60309725D02*
X200405100Y-59800277D01*
X201450100Y-60309725D02*
X201450100Y-59800277D01*
%TO.C,R15*%
X207730376Y-74382500D02*
X208239824Y-74382500D01*
X207730376Y-73337500D02*
X208239824Y-73337500D01*
%TO.C,U6*%
X199802600Y-74190000D02*
X199472600Y-73950000D01*
X199802600Y-73710000D01*
X199802600Y-74190000D01*
G36*
X199802600Y-74190000D02*
G01*
X199472600Y-73950000D01*
X199802600Y-73710000D01*
X199802600Y-74190000D01*
G37*
X194447600Y-76650000D02*
X194447600Y-78600000D01*
X194447600Y-76650000D02*
X194447600Y-74700000D01*
X199567600Y-76650000D02*
X199567600Y-78600000D01*
X199567600Y-76650000D02*
X199567600Y-74700000D01*
%TO.C,R2*%
X177695100Y-65352224D02*
X177695100Y-64842776D01*
X178740100Y-65352224D02*
X178740100Y-64842776D01*
%TO.C,R38*%
X227670100Y-74466526D02*
X227670100Y-74975974D01*
X226625100Y-74466526D02*
X226625100Y-74975974D01*
%TO.C,J19*%
X224587600Y-83600000D02*
X224587600Y-85720000D01*
X226647600Y-83600000D02*
X224587600Y-83600000D01*
X226647600Y-83600000D02*
X226647600Y-85720000D01*
X226647600Y-85720000D02*
X224587600Y-85720000D01*
X227647600Y-83600000D02*
X228707600Y-83600000D01*
X228707600Y-83600000D02*
X228707600Y-84660000D01*
%TO.C,J7*%
X181647600Y-85590000D02*
X179587600Y-85590000D01*
X179587600Y-83470000D02*
X179587600Y-85590000D01*
X181647600Y-83470000D02*
X181647600Y-85590000D01*
X181647600Y-83470000D02*
X179587600Y-83470000D01*
X182647600Y-83470000D02*
X183707600Y-83470000D01*
X183707600Y-83470000D02*
X183707600Y-84530000D01*
%TO.C,J9*%
X202617600Y-68270000D02*
X202617600Y-69330000D01*
X201557600Y-68270000D02*
X202617600Y-68270000D01*
X200557600Y-70390000D02*
X198497600Y-70390000D01*
X200557600Y-68270000D02*
X200557600Y-70390000D01*
X200557600Y-68270000D02*
X198497600Y-68270000D01*
X198497600Y-68270000D02*
X198497600Y-70390000D01*
%TD*%
M02*
