%TF.GenerationSoftware,KiCad,Pcbnew,8.0.8*%
%TF.CreationDate,2025-08-26T11:44:10+12:00*%
%TF.ProjectId,esfgrid_ckt_Multi,65736667-7269-4645-9f63-6b745f4d756c,rev?*%
%TF.SameCoordinates,Original*%
%TF.FileFunction,Paste,Top*%
%TF.FilePolarity,Positive*%
%FSLAX46Y46*%
G04 Gerber Fmt 4.6, Leading zero omitted, Abs format (unit mm)*
G04 Created by KiCad (PCBNEW 8.0.8) date 2025-08-26 11:44:10*
%MOMM*%
%LPD*%
G01*
G04 APERTURE LIST*
G04 Aperture macros list*
%AMRoundRect*
0 Rectangle with rounded corners*
0 $1 Rounding radius*
0 $2 $3 $4 $5 $6 $7 $8 $9 X,Y pos of 4 corners*
0 Add a 4 corners polygon primitive as box body*
4,1,4,$2,$3,$4,$5,$6,$7,$8,$9,$2,$3,0*
0 Add four circle primitives for the rounded corners*
1,1,$1+$1,$2,$3*
1,1,$1+$1,$4,$5*
1,1,$1+$1,$6,$7*
1,1,$1+$1,$8,$9*
0 Add four rect primitives between the rounded corners*
20,1,$1+$1,$2,$3,$4,$5,0*
20,1,$1+$1,$4,$5,$6,$7,0*
20,1,$1+$1,$6,$7,$8,$9,0*
20,1,$1+$1,$8,$9,$2,$3,0*%
G04 Aperture macros list end*
%ADD10RoundRect,0.237500X-0.237500X0.300000X-0.237500X-0.300000X0.237500X-0.300000X0.237500X0.300000X0*%
%ADD11RoundRect,0.237500X0.237500X-0.300000X0.237500X0.300000X-0.237500X0.300000X-0.237500X-0.300000X0*%
%ADD12RoundRect,0.150000X-0.150000X0.825000X-0.150000X-0.825000X0.150000X-0.825000X0.150000X0.825000X0*%
%ADD13RoundRect,0.150000X0.150000X-0.825000X0.150000X0.825000X-0.150000X0.825000X-0.150000X-0.825000X0*%
%ADD14RoundRect,0.150000X-0.825000X-0.150000X0.825000X-0.150000X0.825000X0.150000X-0.825000X0.150000X0*%
%ADD15RoundRect,0.237500X0.250000X0.237500X-0.250000X0.237500X-0.250000X-0.237500X0.250000X-0.237500X0*%
%ADD16RoundRect,0.237500X0.237500X-0.250000X0.237500X0.250000X-0.237500X0.250000X-0.237500X-0.250000X0*%
%ADD17RoundRect,0.237500X-0.237500X0.250000X-0.237500X-0.250000X0.237500X-0.250000X0.237500X0.250000X0*%
%ADD18RoundRect,0.237500X-0.250000X-0.237500X0.250000X-0.237500X0.250000X0.237500X-0.250000X0.237500X0*%
%ADD19RoundRect,0.237500X-0.300000X-0.237500X0.300000X-0.237500X0.300000X0.237500X-0.300000X0.237500X0*%
%ADD20RoundRect,0.237500X0.300000X0.237500X-0.300000X0.237500X-0.300000X-0.237500X0.300000X-0.237500X0*%
%ADD21RoundRect,0.250000X-0.550000X1.050000X-0.550000X-1.050000X0.550000X-1.050000X0.550000X1.050000X0*%
%ADD22RoundRect,0.250000X0.475000X-0.250000X0.475000X0.250000X-0.475000X0.250000X-0.475000X-0.250000X0*%
%ADD23RoundRect,0.250000X0.550000X-1.050000X0.550000X1.050000X-0.550000X1.050000X-0.550000X-1.050000X0*%
G04 APERTURE END LIST*
D10*
%TO.C,C18*%
X215687600Y-69927500D03*
X215687600Y-71652500D03*
%TD*%
D11*
%TO.C,C17*%
X207727600Y-67922500D03*
X207727600Y-66197500D03*
%TD*%
D12*
%TO.C,U7*%
X199122600Y-59377500D03*
X197852600Y-59377500D03*
X196582600Y-59377500D03*
X195312600Y-59377500D03*
X195312600Y-64327500D03*
X196582600Y-64327500D03*
X197852600Y-64327500D03*
X199122600Y-64327500D03*
%TD*%
D13*
%TO.C,U5*%
X209877600Y-66450000D03*
X211147600Y-66450000D03*
X212417600Y-66450000D03*
X213687600Y-66450000D03*
X213687600Y-71400000D03*
X212417600Y-71400000D03*
X211147600Y-71400000D03*
X209877600Y-71400000D03*
%TD*%
D14*
%TO.C,U4*%
X180372600Y-75230000D03*
X180372600Y-76500000D03*
X180372600Y-77770000D03*
X180372600Y-79040000D03*
X185322600Y-79040000D03*
X185322600Y-77770000D03*
X185322600Y-76500000D03*
X185322600Y-75230000D03*
%TD*%
D15*
%TO.C,R27*%
X198732600Y-71810000D03*
X200557600Y-71810000D03*
%TD*%
D16*
%TO.C,R26*%
X200717600Y-73940000D03*
X200717600Y-75765000D03*
%TD*%
D17*
%TO.C,R25*%
X196767600Y-71902500D03*
X196767600Y-70077500D03*
%TD*%
D18*
%TO.C,R24*%
X191362600Y-75050000D03*
X189537600Y-75050000D03*
%TD*%
%TO.C,R23*%
X199167600Y-81360000D03*
X197342600Y-81360000D03*
%TD*%
D16*
%TO.C,R21*%
X193157600Y-81540000D03*
X193157600Y-83365000D03*
%TD*%
D18*
%TO.C,R20*%
X191267600Y-78700000D03*
X189442600Y-78700000D03*
%TD*%
D17*
%TO.C,R19*%
X227727600Y-60122500D03*
X227727600Y-58297500D03*
%TD*%
D16*
%TO.C,R18*%
X229427600Y-58265000D03*
X229427600Y-60090000D03*
%TD*%
D17*
%TO.C,R17*%
X225807600Y-60130000D03*
X225807600Y-58305000D03*
%TD*%
D15*
%TO.C,R16*%
X212430100Y-73830000D03*
X210605100Y-73830000D03*
%TD*%
D18*
%TO.C,R13*%
X212905100Y-62380000D03*
X214730100Y-62380000D03*
%TD*%
%TO.C,R12*%
X210705100Y-75750000D03*
X212530100Y-75750000D03*
%TD*%
D15*
%TO.C,R11*%
X214840100Y-64210000D03*
X213015100Y-64210000D03*
%TD*%
D18*
%TO.C,R10*%
X183815100Y-73120000D03*
X185640100Y-73120000D03*
%TD*%
%TO.C,R9*%
X174675100Y-78960000D03*
X176500100Y-78960000D03*
%TD*%
%TO.C,R8*%
X174775100Y-74890000D03*
X176600100Y-74890000D03*
%TD*%
D16*
%TO.C,R7*%
X178327600Y-81030000D03*
X178327600Y-79205000D03*
%TD*%
D15*
%TO.C,R6*%
X181750100Y-73060000D03*
X179925100Y-73060000D03*
%TD*%
D10*
%TO.C,C25*%
X195097600Y-70147500D03*
X195097600Y-71872500D03*
%TD*%
%TO.C,C24*%
X200677600Y-77615000D03*
X200677600Y-79340000D03*
%TD*%
D11*
%TO.C,C23*%
X191617600Y-71565000D03*
X191617600Y-73290000D03*
%TD*%
D19*
%TO.C,C21*%
X230887600Y-56340000D03*
X229162600Y-56340000D03*
%TD*%
D20*
%TO.C,C16*%
X208867600Y-75740000D03*
X207142600Y-75740000D03*
%TD*%
D11*
%TO.C,C15*%
X209237600Y-64142500D03*
X209237600Y-62417500D03*
%TD*%
D20*
%TO.C,C14*%
X182057600Y-80820000D03*
X180332600Y-80820000D03*
%TD*%
D19*
%TO.C,C13*%
X183875100Y-80790000D03*
X185600100Y-80790000D03*
%TD*%
D20*
%TO.C,C12*%
X177957600Y-76710000D03*
X176232600Y-76710000D03*
%TD*%
D11*
%TO.C,C11*%
X178247600Y-74840000D03*
X178247600Y-73115000D03*
%TD*%
D10*
%TO.C,C29*%
X195307601Y-55350000D03*
X195307601Y-57075000D03*
%TD*%
%TO.C,C28*%
X200887600Y-62817500D03*
X200887600Y-64542500D03*
%TD*%
%TO.C,C31*%
X230207600Y-80118750D03*
X230207600Y-81843750D03*
%TD*%
D21*
%TO.C,C2*%
X217157600Y-95670000D03*
X217157600Y-99270000D03*
%TD*%
D10*
%TO.C,C30*%
X223467600Y-73838750D03*
X223467600Y-75563750D03*
%TD*%
D17*
%TO.C,R36*%
X225227600Y-73816250D03*
X225227600Y-75641250D03*
%TD*%
D19*
%TO.C,C32*%
X228582600Y-71851250D03*
X230307600Y-71851250D03*
%TD*%
D11*
%TO.C,C7*%
X178137600Y-59820000D03*
X178137600Y-58095000D03*
%TD*%
D20*
%TO.C,C10*%
X181947600Y-65800000D03*
X180222600Y-65800000D03*
%TD*%
%TO.C,C8*%
X177847600Y-61690000D03*
X176122600Y-61690000D03*
%TD*%
D17*
%TO.C,R22*%
X193167600Y-75945000D03*
X193167600Y-74120000D03*
%TD*%
D18*
%TO.C,R5*%
X183705100Y-58100000D03*
X185530100Y-58100000D03*
%TD*%
D22*
%TO.C,C4*%
X216867600Y-90770000D03*
X216867600Y-88870000D03*
%TD*%
D18*
%TO.C,R4*%
X174565100Y-63940000D03*
X176390100Y-63940000D03*
%TD*%
D16*
%TO.C,R29*%
X193367600Y-68567500D03*
X193367600Y-66742500D03*
%TD*%
D18*
%TO.C,R28*%
X189652600Y-63902499D03*
X191477600Y-63902499D03*
%TD*%
D22*
%TO.C,C3*%
X198337600Y-89920000D03*
X198337600Y-88020000D03*
%TD*%
D21*
%TO.C,C1*%
X188997600Y-95920000D03*
X188997600Y-99520000D03*
%TD*%
D10*
%TO.C,C26*%
X193357600Y-62922499D03*
X193357600Y-64647499D03*
%TD*%
D16*
%TO.C,R37*%
X228847600Y-75601250D03*
X228847600Y-73776250D03*
%TD*%
D10*
%TO.C,C22*%
X193147600Y-79445000D03*
X193147600Y-77720000D03*
%TD*%
D15*
%TO.C,R35*%
X200767600Y-57012500D03*
X198942600Y-57012500D03*
%TD*%
D11*
%TO.C,C27*%
X191827600Y-58492500D03*
X191827600Y-56767500D03*
%TD*%
D17*
%TO.C,R14*%
X211217600Y-62407500D03*
X211217600Y-64232500D03*
%TD*%
D14*
%TO.C,U3*%
X180262600Y-60210000D03*
X180262600Y-61480000D03*
X180262600Y-62750000D03*
X180262600Y-64020000D03*
X185212600Y-64020000D03*
X185212600Y-62750000D03*
X185212600Y-61480000D03*
X185212600Y-60210000D03*
%TD*%
D10*
%TO.C,C20*%
X230787600Y-66332500D03*
X230787600Y-64607500D03*
%TD*%
D21*
%TO.C,C5*%
X202157600Y-87660000D03*
X202157600Y-91260000D03*
%TD*%
D18*
%TO.C,R3*%
X174665100Y-59870000D03*
X176490100Y-59870000D03*
%TD*%
D17*
%TO.C,R33*%
X196977601Y-55280000D03*
X196977601Y-57105000D03*
%TD*%
D23*
%TO.C,C6*%
X212977600Y-91220000D03*
X212977600Y-87620000D03*
%TD*%
D15*
%TO.C,R1*%
X181640100Y-58040000D03*
X179815100Y-58040000D03*
%TD*%
D19*
%TO.C,C9*%
X183765100Y-65770000D03*
X185490100Y-65770000D03*
%TD*%
D18*
%TO.C,R31*%
X197552599Y-66562500D03*
X199377599Y-66562500D03*
%TD*%
%TO.C,R32*%
X189747600Y-60252500D03*
X191572600Y-60252500D03*
%TD*%
D10*
%TO.C,C19*%
X224047600Y-60052500D03*
X224047600Y-58327500D03*
%TD*%
D17*
%TO.C,R30*%
X193377600Y-59322500D03*
X193377600Y-61147500D03*
%TD*%
D16*
%TO.C,R34*%
X200927600Y-60967501D03*
X200927600Y-59142501D03*
%TD*%
D18*
%TO.C,R15*%
X207072600Y-73860000D03*
X208897600Y-73860000D03*
%TD*%
D12*
%TO.C,U6*%
X198912600Y-79125000D03*
X197642600Y-79125000D03*
X196372600Y-79125000D03*
X195102600Y-79125000D03*
X195102600Y-74175000D03*
X196372600Y-74175000D03*
X197642600Y-74175000D03*
X198912600Y-74175000D03*
%TD*%
D16*
%TO.C,R2*%
X178217600Y-66010000D03*
X178217600Y-64185000D03*
%TD*%
D17*
%TO.C,R38*%
X227147600Y-73808750D03*
X227147600Y-75633750D03*
%TD*%
M02*
