%TF.GenerationSoftware,KiCad,Pcbnew,8.0.8*%
%TF.CreationDate,2025-08-26T11:44:10+12:00*%
%TF.ProjectId,esfgrid_ckt_Multi,65736667-7269-4645-9f63-6b745f4d756c,rev?*%
%TF.SameCoordinates,Original*%
%TF.FileFunction,Copper,L2,Bot*%
%TF.FilePolarity,Positive*%
%FSLAX46Y46*%
G04 Gerber Fmt 4.6, Leading zero omitted, Abs format (unit mm)*
G04 Created by KiCad (PCBNEW 8.0.8) date 2025-08-26 11:44:10*
%MOMM*%
%LPD*%
G01*
G04 APERTURE LIST*
%TA.AperFunction,ComponentPad*%
%ADD10R,1.350000X1.350000*%
%TD*%
%TA.AperFunction,ComponentPad*%
%ADD11O,1.350000X1.350000*%
%TD*%
%TA.AperFunction,ComponentPad*%
%ADD12O,1.050000X1.500000*%
%TD*%
%TA.AperFunction,ComponentPad*%
%ADD13R,1.050000X1.500000*%
%TD*%
%TA.AperFunction,ComponentPad*%
%ADD14R,1.500000X1.050000*%
%TD*%
%TA.AperFunction,ComponentPad*%
%ADD15O,1.500000X1.050000*%
%TD*%
%TA.AperFunction,ComponentPad*%
%ADD16R,3.000000X3.000000*%
%TD*%
%TA.AperFunction,ComponentPad*%
%ADD17C,3.000000*%
%TD*%
%TA.AperFunction,ViaPad*%
%ADD18C,0.800000*%
%TD*%
%TA.AperFunction,ViaPad*%
%ADD19C,1.000000*%
%TD*%
%TA.AperFunction,ViaPad*%
%ADD20C,0.600000*%
%TD*%
%TA.AperFunction,ViaPad*%
%ADD21C,1.500000*%
%TD*%
%TA.AperFunction,Conductor*%
%ADD22C,0.500000*%
%TD*%
%TA.AperFunction,Conductor*%
%ADD23C,1.000000*%
%TD*%
G04 APERTURE END LIST*
D10*
%TO.P,J16,1,Pin_1*%
%TO.N,/vo13*%
X213257600Y-58960000D03*
D11*
%TO.P,J16,2,Pin_2*%
%TO.N,GNDA*%
X211257600Y-58960000D03*
%TD*%
D12*
%TO.P,Q1,3,D*%
%TO.N,Net-(Q1-D)*%
X228367600Y-63777500D03*
%TO.P,Q1,2,S*%
%TO.N,Net-(Q1-S)*%
X227097600Y-63777500D03*
D13*
%TO.P,Q1,1,G*%
%TO.N,Net-(Q1-G)*%
X225827600Y-63777500D03*
%TD*%
D14*
%TO.P,U1,1,VO*%
%TO.N,/vp*%
X194137600Y-88720000D03*
D15*
%TO.P,U1,2,GND*%
%TO.N,GNDA*%
X194137600Y-89990000D03*
%TO.P,U1,3,VI*%
%TO.N,Net-(J1-Pin_2)*%
X194137600Y-91260000D03*
%TD*%
D10*
%TO.P,J3,1,Pin_1*%
%TO.N,/vo11*%
X182247600Y-69380000D03*
D11*
%TO.P,J3,2,Pin_2*%
%TO.N,GNDA*%
X180247600Y-69380000D03*
%TD*%
D10*
%TO.P,J18,1,Pin_1*%
%TO.N,/vo14*%
X227797600Y-69380000D03*
D11*
%TO.P,J18,2,Pin_2*%
%TO.N,GNDA*%
X225797600Y-69380000D03*
%TD*%
D10*
%TO.P,J8,1,Pin_1*%
%TO.N,/vo12*%
X201927600Y-54180000D03*
D11*
%TO.P,J8,2,Pin_2*%
%TO.N,GNDA*%
X199927600Y-54180000D03*
%TD*%
D16*
%TO.P,J2,1,Pin_1*%
%TO.N,Net-(J2-Pin_1)*%
X211277600Y-97730000D03*
D17*
%TO.P,J2,2,Pin_2*%
%TO.N,GNDA*%
X206197600Y-97730000D03*
%TD*%
D10*
%TO.P,J17,1,Pin_1*%
%TO.N,/vo23*%
X211317600Y-80060000D03*
D11*
%TO.P,J17,2,Pin_2*%
%TO.N,GNDA*%
X213317600Y-80060000D03*
%TD*%
D14*
%TO.P,U2,1,GND*%
%TO.N,GNDA*%
X208207600Y-90970000D03*
D15*
%TO.P,U2,2,VI*%
%TO.N,Net-(J2-Pin_1)*%
X208207600Y-89700000D03*
%TO.P,U2,3,VO*%
%TO.N,/vn*%
X208207600Y-88430000D03*
%TD*%
D16*
%TO.P,J1,1,Pin_1*%
%TO.N,GNDA*%
X199767600Y-97740000D03*
D17*
%TO.P,J1,2,Pin_2*%
%TO.N,Net-(J1-Pin_2)*%
X194687600Y-97740000D03*
%TD*%
D13*
%TO.P,Q2,1,G*%
%TO.N,Net-(Q2-G)*%
X225247600Y-79288750D03*
D12*
%TO.P,Q2,2,S*%
%TO.N,Net-(Q2-S)*%
X226517600Y-79288750D03*
%TO.P,Q2,3,D*%
%TO.N,Net-(Q2-D)*%
X227787600Y-79288750D03*
%TD*%
D11*
%TO.P,J19,2,Pin_2*%
%TO.N,GNDA*%
X225647600Y-84660000D03*
D10*
%TO.P,J19,1,Pin_1*%
%TO.N,/vo24*%
X227647600Y-84660000D03*
%TD*%
D11*
%TO.P,J7,2,Pin_2*%
%TO.N,GNDA*%
X180647600Y-84530000D03*
D10*
%TO.P,J7,1,Pin_1*%
%TO.N,/vo21*%
X182647600Y-84530000D03*
%TD*%
%TO.P,J9,1,Pin_1*%
%TO.N,/vo22*%
X201557600Y-69330000D03*
D11*
%TO.P,J9,2,Pin_2*%
%TO.N,GNDA*%
X199557600Y-69330000D03*
%TD*%
D18*
%TO.N,GNDA*%
X202485100Y-62817500D03*
X207897600Y-63610000D03*
X177237600Y-81030000D03*
X193097600Y-58370000D03*
X183847600Y-81890000D03*
X183847600Y-78780000D03*
X191287600Y-76510000D03*
X215197600Y-65510000D03*
%TO.N,/vo23*%
X208807600Y-72450000D03*
%TO.N,/vn*%
X180222600Y-64820000D03*
X177737600Y-83370000D03*
X193747600Y-55220000D03*
X193287600Y-71570000D03*
D19*
%TO.N,/vp*%
X206807600Y-64780000D03*
%TO.N,/vn*%
X216917600Y-71700000D03*
%TO.N,/vp*%
X202427600Y-79340000D03*
X202167600Y-64480000D03*
X184707600Y-66760000D03*
D20*
%TO.N,/vo11*%
X183537600Y-62740000D03*
%TO.N,/vo21*%
X183777600Y-77710000D03*
D21*
%TO.N,/vs2_22*%
X189755915Y-80913689D03*
%TO.N,/vs1_21*%
X174755915Y-72765541D03*
%TO.N,/vs2_21*%
X174755915Y-80913689D03*
%TO.N,/vs1_24*%
X219755915Y-72765541D03*
%TO.N,/vs1_22*%
X189755915Y-72765541D03*
%TO.N,/vs1_23*%
X204755915Y-72765541D03*
%TO.N,GNDA*%
X219755915Y-80913689D03*
X204755915Y-65913689D03*
X204755915Y-80913689D03*
X219755915Y-65913689D03*
%TO.N,/vs1_13*%
X204755915Y-57765541D03*
%TO.N,/vs2_12*%
X189755915Y-65913689D03*
%TO.N,/vs1_12*%
X189755915Y-57765541D03*
%TO.N,/vs1_11*%
X174757600Y-57771852D03*
%TO.N,/vs2_11*%
X174755915Y-65913689D03*
%TO.N,/vs1_14*%
X219755915Y-57765541D03*
%TD*%
D22*
%TO.N,GNDA*%
X183847600Y-78780000D02*
X183847600Y-81890000D01*
%TO.N,/vo21*%
X183777600Y-77710000D02*
X183077600Y-77710000D01*
X183077600Y-77710000D02*
X182647600Y-78140000D01*
X182647600Y-78140000D02*
X182647600Y-84530000D01*
%TO.N,/vo23*%
X211317600Y-74960000D02*
X208807600Y-72450000D01*
X211317600Y-80060000D02*
X211317600Y-74960000D01*
%TO.N,/vn*%
X177737600Y-83260000D02*
X180647600Y-80350000D01*
X180647600Y-80350000D02*
X178257600Y-77960000D01*
X178257600Y-66785000D02*
X180222600Y-64820000D01*
X177737600Y-83370000D02*
X177737600Y-83260000D01*
X178257600Y-77960000D02*
X178257600Y-66785000D01*
D23*
X177737600Y-87620000D02*
X177737600Y-83370000D01*
X204137600Y-90750000D02*
X204137600Y-93570000D01*
X206457600Y-88430000D02*
X204137600Y-90750000D01*
X183687600Y-93570000D02*
X177737600Y-87620000D01*
X204137600Y-93570000D02*
X183687600Y-93570000D01*
X208207600Y-88430000D02*
X206457600Y-88430000D01*
X192427600Y-51070000D02*
X192427600Y-53900000D01*
X192427600Y-53900000D02*
X193747600Y-55220000D01*
X193607600Y-49890000D02*
X192427600Y-51070000D01*
X193607600Y-49890000D02*
X213047600Y-49890000D01*
X216917600Y-71700000D02*
X216917600Y-53760000D01*
X216917600Y-53760000D02*
X213047600Y-49890000D01*
X208207600Y-82314764D02*
X197462836Y-71570000D01*
X197462836Y-71570000D02*
X193287600Y-71570000D01*
X208207600Y-88430000D02*
X208207600Y-82314764D01*
D22*
%TO.N,/vp*%
X206507600Y-64480000D02*
X206807600Y-64780000D01*
X202167600Y-64480000D02*
X206507600Y-64480000D01*
D23*
%TO.N,/vn*%
X216947600Y-83120000D02*
X216947600Y-71730000D01*
X208207600Y-86360000D02*
X210337600Y-84230000D01*
X208207600Y-88430000D02*
X208207600Y-86360000D01*
X216947600Y-71730000D02*
X216917600Y-71700000D01*
X210337600Y-84230000D02*
X215837600Y-84230000D01*
X215837600Y-84230000D02*
X216947600Y-83120000D01*
D22*
%TO.N,/vp*%
X194137600Y-87630000D02*
X194137600Y-88720000D01*
X202427600Y-79340000D02*
X194137600Y-87630000D01*
X192197600Y-68890000D02*
X192227600Y-68920000D01*
X186297600Y-66760000D02*
X188427600Y-68890000D01*
X184707600Y-66760000D02*
X186297600Y-66760000D01*
X196667600Y-64480000D02*
X202167600Y-64480000D01*
X188427600Y-68890000D02*
X192197600Y-68890000D01*
X192227600Y-68920000D02*
X196667600Y-64480000D01*
X184707600Y-66760000D02*
X184707600Y-79290000D01*
X184707600Y-79290000D02*
X194137600Y-88720000D01*
%TO.N,/vo11*%
X182247600Y-64030000D02*
X182247600Y-69380000D01*
X183537600Y-62740000D02*
X182247600Y-64030000D01*
D23*
%TO.N,GNDA*%
X208207600Y-95720000D02*
X206197600Y-97730000D01*
X208207600Y-90970000D02*
X208207600Y-95720000D01*
%TD*%
%TA.AperFunction,Conductor*%
%TO.N,GNDA*%
G36*
X236460999Y-43439671D02*
G01*
X236506754Y-43492475D01*
X236517960Y-43543986D01*
X236517960Y-102180020D01*
X236498275Y-102247059D01*
X236445471Y-102292814D01*
X236393876Y-102304020D01*
X170636307Y-102259479D01*
X170569281Y-102239749D01*
X170523562Y-102186914D01*
X170512391Y-102135232D01*
X170517149Y-99745610D01*
X170521142Y-97739998D01*
X192681990Y-97739998D01*
X192681990Y-97740001D01*
X192702404Y-98025433D01*
X192763228Y-98305037D01*
X192763230Y-98305043D01*
X192763231Y-98305046D01*
X192863233Y-98573161D01*
X192863235Y-98573166D01*
X193000370Y-98824309D01*
X193000375Y-98824317D01*
X193171854Y-99053387D01*
X193171870Y-99053405D01*
X193374194Y-99255729D01*
X193374212Y-99255745D01*
X193603282Y-99427224D01*
X193603290Y-99427229D01*
X193854433Y-99564364D01*
X193854432Y-99564364D01*
X193854436Y-99564365D01*
X193854439Y-99564367D01*
X194122554Y-99664369D01*
X194122560Y-99664370D01*
X194122562Y-99664371D01*
X194402166Y-99725195D01*
X194402168Y-99725195D01*
X194402172Y-99725196D01*
X194655820Y-99743337D01*
X194687599Y-99745610D01*
X194687600Y-99745610D01*
X194687601Y-99745610D01*
X194716195Y-99743564D01*
X194973028Y-99725196D01*
X195209325Y-99673793D01*
X195252637Y-99664371D01*
X195252637Y-99664370D01*
X195252646Y-99664369D01*
X195520761Y-99564367D01*
X195771915Y-99427226D01*
X196000995Y-99255739D01*
X196203339Y-99053395D01*
X196374826Y-98824315D01*
X196511967Y-98573161D01*
X196611969Y-98305046D01*
X196672796Y-98025428D01*
X196693210Y-97740000D01*
X196672796Y-97454572D01*
X196627321Y-97245528D01*
X196611971Y-97174962D01*
X196611970Y-97174960D01*
X196611969Y-97174954D01*
X196511967Y-96906839D01*
X196374826Y-96655685D01*
X196367541Y-96645953D01*
X196203345Y-96426612D01*
X196203329Y-96426594D01*
X196001005Y-96224270D01*
X196000987Y-96224254D01*
X195958108Y-96192155D01*
X197767600Y-96192155D01*
X197767600Y-97490000D01*
X199048536Y-97490000D01*
X199036807Y-97518316D01*
X199007600Y-97665147D01*
X199007600Y-97814853D01*
X199036807Y-97961684D01*
X199048536Y-97990000D01*
X197767600Y-97990000D01*
X197767600Y-99287844D01*
X197774001Y-99347372D01*
X197774003Y-99347379D01*
X197824245Y-99482086D01*
X197824249Y-99482093D01*
X197910409Y-99597187D01*
X197910412Y-99597190D01*
X198025506Y-99683350D01*
X198025513Y-99683354D01*
X198160220Y-99733596D01*
X198160227Y-99733598D01*
X198219755Y-99739999D01*
X198219772Y-99740000D01*
X199517600Y-99740000D01*
X199517600Y-98459064D01*
X199545916Y-98470793D01*
X199692747Y-98500000D01*
X199842453Y-98500000D01*
X199989284Y-98470793D01*
X200017600Y-98459064D01*
X200017600Y-99740000D01*
X201315428Y-99740000D01*
X201315444Y-99739999D01*
X201374972Y-99733598D01*
X201374979Y-99733596D01*
X201509686Y-99683354D01*
X201509693Y-99683350D01*
X201624787Y-99597190D01*
X201624790Y-99597187D01*
X201710950Y-99482093D01*
X201710954Y-99482086D01*
X201761196Y-99347379D01*
X201761198Y-99347372D01*
X201767599Y-99287844D01*
X201767600Y-99287824D01*
X201767600Y-97990000D01*
X200486664Y-97990000D01*
X200498393Y-97961684D01*
X200527600Y-97814853D01*
X200527600Y-97729998D01*
X204192491Y-97729998D01*
X204192491Y-97730001D01*
X204212900Y-98015362D01*
X204273709Y-98294895D01*
X204373691Y-98562958D01*
X204510791Y-98814038D01*
X204510796Y-98814046D01*
X204617482Y-98956562D01*
X204617483Y-98956563D01*
X205512368Y-98061678D01*
X205524097Y-98089995D01*
X205607270Y-98214472D01*
X205713128Y-98320330D01*
X205837605Y-98403503D01*
X205865920Y-98415231D01*
X204971035Y-99310115D01*
X204971036Y-99310116D01*
X205113553Y-99416803D01*
X205113561Y-99416808D01*
X205364642Y-99553908D01*
X205364641Y-99553908D01*
X205632704Y-99653890D01*
X205912237Y-99714699D01*
X206197599Y-99735109D01*
X206197601Y-99735109D01*
X206482962Y-99714699D01*
X206762495Y-99653890D01*
X207030558Y-99553908D01*
X207281638Y-99416808D01*
X207281639Y-99416807D01*
X207424163Y-99310115D01*
X206529279Y-98415231D01*
X206557595Y-98403503D01*
X206682072Y-98320330D01*
X206787930Y-98214472D01*
X206871103Y-98089995D01*
X206882831Y-98061679D01*
X207777715Y-98956563D01*
X207884407Y-98814039D01*
X207884408Y-98814038D01*
X208021508Y-98562958D01*
X208121490Y-98294895D01*
X208182299Y-98015362D01*
X208202709Y-97730001D01*
X208202709Y-97729998D01*
X208182299Y-97444637D01*
X208121490Y-97165104D01*
X208021508Y-96897041D01*
X207884408Y-96645961D01*
X207884403Y-96645953D01*
X207777716Y-96503436D01*
X207777715Y-96503435D01*
X206882831Y-97398320D01*
X206871103Y-97370005D01*
X206787930Y-97245528D01*
X206682072Y-97139670D01*
X206557595Y-97056497D01*
X206529278Y-97044767D01*
X207391911Y-96182135D01*
X209277100Y-96182135D01*
X209277100Y-99277870D01*
X209277101Y-99277876D01*
X209283508Y-99337483D01*
X209333802Y-99472328D01*
X209333806Y-99472335D01*
X209420052Y-99587544D01*
X209420055Y-99587547D01*
X209535264Y-99673793D01*
X209535271Y-99673797D01*
X209670117Y-99724091D01*
X209670116Y-99724091D01*
X209677044Y-99724835D01*
X209729727Y-99730500D01*
X212825472Y-99730499D01*
X212885083Y-99724091D01*
X213019931Y-99673796D01*
X213135146Y-99587546D01*
X213221396Y-99472331D01*
X213271691Y-99337483D01*
X213278100Y-99277873D01*
X213278099Y-96182128D01*
X213271691Y-96122517D01*
X213242106Y-96043196D01*
X213221397Y-95987671D01*
X213221393Y-95987664D01*
X213135147Y-95872455D01*
X213135144Y-95872452D01*
X213019935Y-95786206D01*
X213019928Y-95786202D01*
X212885082Y-95735908D01*
X212885083Y-95735908D01*
X212825483Y-95729501D01*
X212825481Y-95729500D01*
X212825473Y-95729500D01*
X212825464Y-95729500D01*
X209729729Y-95729500D01*
X209729723Y-95729501D01*
X209670116Y-95735908D01*
X209535271Y-95786202D01*
X209535264Y-95786206D01*
X209420055Y-95872452D01*
X209420052Y-95872455D01*
X209333806Y-95987664D01*
X209333802Y-95987671D01*
X209283508Y-96122517D01*
X209277101Y-96182116D01*
X209277101Y-96182123D01*
X209277100Y-96182135D01*
X207391911Y-96182135D01*
X207424163Y-96149883D01*
X207424162Y-96149882D01*
X207281646Y-96043196D01*
X207281638Y-96043191D01*
X207030557Y-95906091D01*
X207030558Y-95906091D01*
X206762495Y-95806109D01*
X206482962Y-95745300D01*
X206197601Y-95724891D01*
X206197599Y-95724891D01*
X205912237Y-95745300D01*
X205632704Y-95806109D01*
X205364641Y-95906091D01*
X205113561Y-96043191D01*
X205113553Y-96043196D01*
X204971035Y-96149882D01*
X205865921Y-97044767D01*
X205837605Y-97056497D01*
X205713128Y-97139670D01*
X205607270Y-97245528D01*
X205524097Y-97370005D01*
X205512368Y-97398321D01*
X204617482Y-96503435D01*
X204510796Y-96645953D01*
X204510791Y-96645961D01*
X204373691Y-96897041D01*
X204273709Y-97165104D01*
X204212900Y-97444637D01*
X204192491Y-97729998D01*
X200527600Y-97729998D01*
X200527600Y-97665147D01*
X200498393Y-97518316D01*
X200486664Y-97490000D01*
X201767600Y-97490000D01*
X201767600Y-96192172D01*
X201767599Y-96192155D01*
X201761198Y-96132627D01*
X201761196Y-96132620D01*
X201710954Y-95997913D01*
X201710950Y-95997906D01*
X201624790Y-95882812D01*
X201624787Y-95882809D01*
X201509693Y-95796649D01*
X201509686Y-95796645D01*
X201374979Y-95746403D01*
X201374972Y-95746401D01*
X201315444Y-95740000D01*
X200017600Y-95740000D01*
X200017600Y-97020935D01*
X199989284Y-97009207D01*
X199842453Y-96980000D01*
X199692747Y-96980000D01*
X199545916Y-97009207D01*
X199517600Y-97020935D01*
X199517600Y-95740000D01*
X198219755Y-95740000D01*
X198160227Y-95746401D01*
X198160220Y-95746403D01*
X198025513Y-95796645D01*
X198025506Y-95796649D01*
X197910412Y-95882809D01*
X197910409Y-95882812D01*
X197824249Y-95997906D01*
X197824245Y-95997913D01*
X197774003Y-96132620D01*
X197774001Y-96132627D01*
X197767600Y-96192155D01*
X195958108Y-96192155D01*
X195771917Y-96052775D01*
X195771909Y-96052770D01*
X195520766Y-95915635D01*
X195520767Y-95915635D01*
X195404989Y-95872452D01*
X195252646Y-95815631D01*
X195252643Y-95815630D01*
X195252637Y-95815628D01*
X194973033Y-95754804D01*
X194687601Y-95734390D01*
X194687599Y-95734390D01*
X194402166Y-95754804D01*
X194122562Y-95815628D01*
X193854433Y-95915635D01*
X193603290Y-96052770D01*
X193603282Y-96052775D01*
X193374212Y-96224254D01*
X193374194Y-96224270D01*
X193171870Y-96426594D01*
X193171854Y-96426612D01*
X193000375Y-96655682D01*
X193000370Y-96655690D01*
X192863235Y-96906833D01*
X192763228Y-97174962D01*
X192702404Y-97454566D01*
X192681990Y-97739998D01*
X170521142Y-97739998D01*
X170549947Y-83271456D01*
X176737100Y-83271456D01*
X176737100Y-87718544D01*
X176768847Y-87878145D01*
X176775547Y-87911829D01*
X176775549Y-87911837D01*
X176850964Y-88093907D01*
X176850971Y-88093920D01*
X176960459Y-88257780D01*
X176960460Y-88257781D01*
X176960461Y-88257782D01*
X177099818Y-88397139D01*
X177099819Y-88397139D01*
X177106886Y-88404206D01*
X177106885Y-88404206D01*
X177106889Y-88404209D01*
X183049815Y-94347137D01*
X183049819Y-94347140D01*
X183213679Y-94456628D01*
X183213685Y-94456631D01*
X183213686Y-94456632D01*
X183395765Y-94532052D01*
X183556989Y-94564121D01*
X183589057Y-94570499D01*
X183589058Y-94570500D01*
X183589059Y-94570500D01*
X204236143Y-94570500D01*
X204366182Y-94544632D01*
X204429435Y-94532051D01*
X204611514Y-94456632D01*
X204775382Y-94347139D01*
X204914739Y-94207782D01*
X205024232Y-94043914D01*
X205099651Y-93861835D01*
X205138100Y-93668541D01*
X205138100Y-91215782D01*
X205157785Y-91148743D01*
X205174419Y-91128101D01*
X205964900Y-90337620D01*
X206745421Y-89557099D01*
X206806742Y-89523616D01*
X206876434Y-89528600D01*
X206932367Y-89570472D01*
X206956784Y-89635936D01*
X206957100Y-89644782D01*
X206957100Y-89801007D01*
X206996507Y-89999119D01*
X206996510Y-89999131D01*
X207030147Y-90080338D01*
X207037616Y-90149807D01*
X207018005Y-90194864D01*
X207018495Y-90195132D01*
X207015510Y-90200596D01*
X207014860Y-90202092D01*
X207014246Y-90202911D01*
X207014245Y-90202913D01*
X206964003Y-90337620D01*
X206964001Y-90337627D01*
X206957600Y-90397155D01*
X206957600Y-90720000D01*
X207841734Y-90720000D01*
X207865926Y-90722383D01*
X207868723Y-90722939D01*
X207881595Y-90725499D01*
X207881596Y-90725500D01*
X207881597Y-90725500D01*
X207921770Y-90725500D01*
X207907525Y-90739745D01*
X207858156Y-90825255D01*
X207832600Y-90920630D01*
X207832600Y-91019370D01*
X207858156Y-91114745D01*
X207907525Y-91200255D01*
X207927270Y-91220000D01*
X206957600Y-91220000D01*
X206957600Y-91542844D01*
X206964001Y-91602372D01*
X206964003Y-91602379D01*
X207014245Y-91737086D01*
X207014249Y-91737093D01*
X207100409Y-91852187D01*
X207100412Y-91852190D01*
X207215506Y-91938350D01*
X207215513Y-91938354D01*
X207350220Y-91988596D01*
X207350227Y-91988598D01*
X207409755Y-91994999D01*
X207409772Y-91995000D01*
X207957600Y-91995000D01*
X207957600Y-91250330D01*
X207977345Y-91270075D01*
X208062855Y-91319444D01*
X208158230Y-91345000D01*
X208256970Y-91345000D01*
X208352345Y-91319444D01*
X208437855Y-91270075D01*
X208457600Y-91250330D01*
X208457600Y-91995000D01*
X209005428Y-91995000D01*
X209005444Y-91994999D01*
X209064972Y-91988598D01*
X209064979Y-91988596D01*
X209199686Y-91938354D01*
X209199693Y-91938350D01*
X209314787Y-91852190D01*
X209314790Y-91852187D01*
X209400950Y-91737093D01*
X209400954Y-91737086D01*
X209451196Y-91602379D01*
X209451198Y-91602372D01*
X209457599Y-91542844D01*
X209457600Y-91542827D01*
X209457600Y-91220000D01*
X208487930Y-91220000D01*
X208507675Y-91200255D01*
X208557044Y-91114745D01*
X208582600Y-91019370D01*
X208582600Y-90920630D01*
X208557044Y-90825255D01*
X208507675Y-90739745D01*
X208493430Y-90725500D01*
X208533604Y-90725500D01*
X208533604Y-90725499D01*
X208547073Y-90722820D01*
X208549274Y-90722383D01*
X208573466Y-90720000D01*
X209457600Y-90720000D01*
X209457600Y-90397172D01*
X209457599Y-90397155D01*
X209451198Y-90337627D01*
X209451196Y-90337620D01*
X209400954Y-90202913D01*
X209400953Y-90202911D01*
X209400345Y-90202099D01*
X209399990Y-90201148D01*
X209396703Y-90195128D01*
X209397568Y-90194655D01*
X209375929Y-90136634D01*
X209385052Y-90080338D01*
X209418691Y-89999127D01*
X209458100Y-89801003D01*
X209458100Y-89598997D01*
X209418691Y-89400873D01*
X209341386Y-89214244D01*
X209287694Y-89133889D01*
X209266817Y-89067214D01*
X209285301Y-88999834D01*
X209287678Y-88996134D01*
X209341386Y-88915756D01*
X209418691Y-88729127D01*
X209458100Y-88531003D01*
X209458100Y-88328997D01*
X209418691Y-88130873D01*
X209341386Y-87944244D01*
X209341384Y-87944241D01*
X209341382Y-87944237D01*
X209228998Y-87776042D01*
X209208120Y-87709364D01*
X209208100Y-87707151D01*
X209208100Y-86825782D01*
X209227785Y-86758743D01*
X209244419Y-86738101D01*
X210715701Y-85266819D01*
X210777024Y-85233334D01*
X210803382Y-85230500D01*
X215936142Y-85230500D01*
X215955470Y-85226655D01*
X216032788Y-85211275D01*
X216129436Y-85192051D01*
X216182765Y-85169961D01*
X216311514Y-85116632D01*
X216475382Y-85007139D01*
X216614739Y-84867782D01*
X216614740Y-84867779D01*
X216621806Y-84860714D01*
X216621809Y-84860710D01*
X217072520Y-84409999D01*
X224497094Y-84409999D01*
X224497095Y-84410000D01*
X225331914Y-84410000D01*
X225327520Y-84414394D01*
X225274859Y-84505606D01*
X225247600Y-84607339D01*
X225247600Y-84712661D01*
X225274859Y-84814394D01*
X225327520Y-84905606D01*
X225331914Y-84910000D01*
X224497095Y-84910000D01*
X224547251Y-85086280D01*
X224644315Y-85281208D01*
X224775545Y-85454985D01*
X224936468Y-85601685D01*
X225121612Y-85716322D01*
X225121623Y-85716327D01*
X225324660Y-85794984D01*
X225397600Y-85808619D01*
X225397600Y-84975686D01*
X225401994Y-84980080D01*
X225493206Y-85032741D01*
X225594939Y-85060000D01*
X225700261Y-85060000D01*
X225801994Y-85032741D01*
X225893206Y-84980080D01*
X225897600Y-84975686D01*
X225897600Y-85808619D01*
X225970539Y-85794984D01*
X226173576Y-85716327D01*
X226173587Y-85716322D01*
X226358727Y-85601687D01*
X226369706Y-85591679D01*
X226432509Y-85561060D01*
X226501897Y-85569256D01*
X226552513Y-85609003D01*
X226615052Y-85692544D01*
X226615055Y-85692547D01*
X226730264Y-85778793D01*
X226730271Y-85778797D01*
X226865117Y-85829091D01*
X226865116Y-85829091D01*
X226872044Y-85829835D01*
X226924727Y-85835500D01*
X228370472Y-85835499D01*
X228430083Y-85829091D01*
X228564931Y-85778796D01*
X228680146Y-85692546D01*
X228766396Y-85577331D01*
X228816691Y-85442483D01*
X228823100Y-85382873D01*
X228823099Y-83937128D01*
X228816691Y-83877517D01*
X228790437Y-83807127D01*
X228766397Y-83742671D01*
X228766393Y-83742664D01*
X228680147Y-83627455D01*
X228680144Y-83627452D01*
X228564935Y-83541206D01*
X228564928Y-83541202D01*
X228430082Y-83490908D01*
X228430083Y-83490908D01*
X228370483Y-83484501D01*
X228370481Y-83484500D01*
X228370473Y-83484500D01*
X228370464Y-83484500D01*
X226924729Y-83484500D01*
X226924723Y-83484501D01*
X226865116Y-83490908D01*
X226730271Y-83541202D01*
X226730264Y-83541206D01*
X226615055Y-83627452D01*
X226615052Y-83627455D01*
X226552513Y-83710997D01*
X226496580Y-83752868D01*
X226426888Y-83757852D01*
X226369709Y-83728323D01*
X226358730Y-83718314D01*
X226358725Y-83718310D01*
X226173587Y-83603677D01*
X226173585Y-83603676D01*
X225970531Y-83525013D01*
X225970521Y-83525010D01*
X225897601Y-83511378D01*
X225897600Y-83511379D01*
X225897600Y-84344314D01*
X225893206Y-84339920D01*
X225801994Y-84287259D01*
X225700261Y-84260000D01*
X225594939Y-84260000D01*
X225493206Y-84287259D01*
X225401994Y-84339920D01*
X225397600Y-84344314D01*
X225397600Y-83511379D01*
X225397598Y-83511378D01*
X225324678Y-83525010D01*
X225324668Y-83525013D01*
X225121614Y-83603676D01*
X225121612Y-83603677D01*
X224936469Y-83718314D01*
X224936468Y-83718314D01*
X224775545Y-83865014D01*
X224644315Y-84038791D01*
X224547251Y-84233719D01*
X224497094Y-84409999D01*
X217072520Y-84409999D01*
X217585378Y-83897141D01*
X217585382Y-83897139D01*
X217724739Y-83757782D01*
X217834232Y-83593914D01*
X217909651Y-83411835D01*
X217922232Y-83348582D01*
X217948100Y-83218543D01*
X217948100Y-78490885D01*
X224222100Y-78490885D01*
X224222100Y-80086620D01*
X224222101Y-80086626D01*
X224228508Y-80146233D01*
X224278802Y-80281078D01*
X224278806Y-80281085D01*
X224365052Y-80396294D01*
X224365055Y-80396297D01*
X224480264Y-80482543D01*
X224480271Y-80482547D01*
X224615117Y-80532841D01*
X224615116Y-80532841D01*
X224622044Y-80533585D01*
X224674727Y-80539250D01*
X225820472Y-80539249D01*
X225880083Y-80532841D01*
X226014931Y-80482546D01*
X226016030Y-80481722D01*
X226017317Y-80481242D01*
X226022712Y-80478297D01*
X226023135Y-80479072D01*
X226081487Y-80457302D01*
X226137798Y-80466423D01*
X226218473Y-80499841D01*
X226384377Y-80532841D01*
X226416592Y-80539249D01*
X226416596Y-80539250D01*
X226416597Y-80539250D01*
X226618604Y-80539250D01*
X226618605Y-80539249D01*
X226816727Y-80499841D01*
X227003356Y-80422536D01*
X227083710Y-80368844D01*
X227150386Y-80347967D01*
X227217766Y-80366451D01*
X227221465Y-80368828D01*
X227301844Y-80422536D01*
X227488473Y-80499841D01*
X227654377Y-80532841D01*
X227686592Y-80539249D01*
X227686596Y-80539250D01*
X227686597Y-80539250D01*
X227888604Y-80539250D01*
X227888605Y-80539249D01*
X228086727Y-80499841D01*
X228273356Y-80422536D01*
X228441318Y-80310308D01*
X228584158Y-80167468D01*
X228696386Y-79999506D01*
X228773691Y-79812877D01*
X228813100Y-79614753D01*
X228813100Y-78962747D01*
X228773691Y-78764623D01*
X228696386Y-78577994D01*
X228696384Y-78577991D01*
X228696382Y-78577987D01*
X228584158Y-78410031D01*
X228441318Y-78267191D01*
X228273362Y-78154967D01*
X228273352Y-78154962D01*
X228086727Y-78077659D01*
X228086719Y-78077657D01*
X227888607Y-78038250D01*
X227888603Y-78038250D01*
X227686597Y-78038250D01*
X227686592Y-78038250D01*
X227488480Y-78077657D01*
X227488472Y-78077659D01*
X227301844Y-78154963D01*
X227221491Y-78208654D01*
X227154813Y-78229532D01*
X227087433Y-78211047D01*
X227083709Y-78208654D01*
X227003355Y-78154963D01*
X226816727Y-78077659D01*
X226816719Y-78077657D01*
X226618607Y-78038250D01*
X226618603Y-78038250D01*
X226416597Y-78038250D01*
X226416592Y-78038250D01*
X226218480Y-78077657D01*
X226218468Y-78077660D01*
X226137798Y-78111075D01*
X226068329Y-78118544D01*
X226022942Y-78098786D01*
X226022714Y-78099204D01*
X226018047Y-78096655D01*
X226016032Y-78095778D01*
X226014931Y-78094954D01*
X226014930Y-78094953D01*
X226014928Y-78094952D01*
X225880082Y-78044658D01*
X225880083Y-78044658D01*
X225820483Y-78038251D01*
X225820481Y-78038250D01*
X225820473Y-78038250D01*
X225820464Y-78038250D01*
X224674729Y-78038250D01*
X224674723Y-78038251D01*
X224615116Y-78044658D01*
X224480271Y-78094952D01*
X224480264Y-78094956D01*
X224365055Y-78181202D01*
X224365052Y-78181205D01*
X224278806Y-78296414D01*
X224278802Y-78296421D01*
X224228508Y-78431267D01*
X224222101Y-78490866D01*
X224222100Y-78490885D01*
X217948100Y-78490885D01*
X217948100Y-74514000D01*
X217967785Y-74446961D01*
X218020589Y-74401206D01*
X218072100Y-74390000D01*
X221497600Y-74390000D01*
X221537600Y-74350000D01*
X221537600Y-70970000D01*
X221427600Y-70860000D01*
X218042100Y-70860000D01*
X217975061Y-70840315D01*
X217929306Y-70787511D01*
X217918100Y-70736000D01*
X217918100Y-69129999D01*
X224647094Y-69129999D01*
X224647095Y-69130000D01*
X225481914Y-69130000D01*
X225477520Y-69134394D01*
X225424859Y-69225606D01*
X225397600Y-69327339D01*
X225397600Y-69432661D01*
X225424859Y-69534394D01*
X225477520Y-69625606D01*
X225481914Y-69630000D01*
X224647095Y-69630000D01*
X224697251Y-69806280D01*
X224794315Y-70001208D01*
X224925545Y-70174985D01*
X225086468Y-70321685D01*
X225271612Y-70436322D01*
X225271623Y-70436327D01*
X225474660Y-70514984D01*
X225547600Y-70528619D01*
X225547600Y-69695686D01*
X225551994Y-69700080D01*
X225643206Y-69752741D01*
X225744939Y-69780000D01*
X225850261Y-69780000D01*
X225951994Y-69752741D01*
X226043206Y-69700080D01*
X226047600Y-69695686D01*
X226047600Y-70528619D01*
X226120539Y-70514984D01*
X226323576Y-70436327D01*
X226323587Y-70436322D01*
X226508727Y-70321687D01*
X226519706Y-70311679D01*
X226582509Y-70281060D01*
X226651897Y-70289256D01*
X226702513Y-70329003D01*
X226765052Y-70412544D01*
X226765055Y-70412547D01*
X226880264Y-70498793D01*
X226880271Y-70498797D01*
X227015117Y-70549091D01*
X227015116Y-70549091D01*
X227022044Y-70549835D01*
X227074727Y-70555500D01*
X228520472Y-70555499D01*
X228580083Y-70549091D01*
X228714931Y-70498796D01*
X228830146Y-70412546D01*
X228916396Y-70297331D01*
X228966691Y-70162483D01*
X228973100Y-70102873D01*
X228973099Y-68657128D01*
X228966691Y-68597517D01*
X228948042Y-68547517D01*
X228916397Y-68462671D01*
X228916393Y-68462664D01*
X228830147Y-68347455D01*
X228830144Y-68347452D01*
X228714935Y-68261206D01*
X228714928Y-68261202D01*
X228580082Y-68210908D01*
X228580083Y-68210908D01*
X228520483Y-68204501D01*
X228520481Y-68204500D01*
X228520473Y-68204500D01*
X228520464Y-68204500D01*
X227074729Y-68204500D01*
X227074723Y-68204501D01*
X227015116Y-68210908D01*
X226880271Y-68261202D01*
X226880264Y-68261206D01*
X226765055Y-68347452D01*
X226765052Y-68347455D01*
X226702513Y-68430997D01*
X226646580Y-68472868D01*
X226576888Y-68477852D01*
X226519709Y-68448323D01*
X226508730Y-68438314D01*
X226508725Y-68438310D01*
X226323587Y-68323677D01*
X226323585Y-68323676D01*
X226120531Y-68245013D01*
X226120521Y-68245010D01*
X226047601Y-68231378D01*
X226047600Y-68231379D01*
X226047600Y-69064314D01*
X226043206Y-69059920D01*
X225951994Y-69007259D01*
X225850261Y-68980000D01*
X225744939Y-68980000D01*
X225643206Y-69007259D01*
X225551994Y-69059920D01*
X225547600Y-69064314D01*
X225547600Y-68231379D01*
X225547598Y-68231378D01*
X225474678Y-68245010D01*
X225474668Y-68245013D01*
X225271614Y-68323676D01*
X225271612Y-68323677D01*
X225086469Y-68438314D01*
X225086468Y-68438314D01*
X224925545Y-68585014D01*
X224794315Y-68758791D01*
X224697251Y-68953719D01*
X224647094Y-69129999D01*
X217918100Y-69129999D01*
X217918100Y-62979635D01*
X224802100Y-62979635D01*
X224802100Y-64575370D01*
X224802101Y-64575376D01*
X224808508Y-64634983D01*
X224858802Y-64769828D01*
X224858806Y-64769835D01*
X224945052Y-64885044D01*
X224945055Y-64885047D01*
X225060264Y-64971293D01*
X225060271Y-64971297D01*
X225195117Y-65021591D01*
X225195116Y-65021591D01*
X225202044Y-65022335D01*
X225254727Y-65028000D01*
X226400472Y-65027999D01*
X226460083Y-65021591D01*
X226594931Y-64971296D01*
X226596030Y-64970472D01*
X226597317Y-64969992D01*
X226602712Y-64967047D01*
X226603135Y-64967822D01*
X226661487Y-64946052D01*
X226717798Y-64955173D01*
X226798473Y-64988591D01*
X226964377Y-65021591D01*
X226996592Y-65027999D01*
X226996596Y-65028000D01*
X226996597Y-65028000D01*
X227198604Y-65028000D01*
X227198605Y-65027999D01*
X227396727Y-64988591D01*
X227583356Y-64911286D01*
X227663710Y-64857594D01*
X227730386Y-64836717D01*
X227797766Y-64855201D01*
X227801465Y-64857578D01*
X227881844Y-64911286D01*
X228068473Y-64988591D01*
X228234377Y-65021591D01*
X228266592Y-65027999D01*
X228266596Y-65028000D01*
X228266597Y-65028000D01*
X228468604Y-65028000D01*
X228468605Y-65027999D01*
X228666727Y-64988591D01*
X228853356Y-64911286D01*
X229021318Y-64799058D01*
X229164158Y-64656218D01*
X229276386Y-64488256D01*
X229353691Y-64301627D01*
X229393100Y-64103503D01*
X229393100Y-63451497D01*
X229353691Y-63253373D01*
X229276386Y-63066744D01*
X229276384Y-63066741D01*
X229276382Y-63066737D01*
X229164158Y-62898781D01*
X229021318Y-62755941D01*
X228853362Y-62643717D01*
X228853352Y-62643712D01*
X228666727Y-62566409D01*
X228666719Y-62566407D01*
X228468607Y-62527000D01*
X228468603Y-62527000D01*
X228266597Y-62527000D01*
X228266592Y-62527000D01*
X228068480Y-62566407D01*
X228068472Y-62566409D01*
X227881844Y-62643713D01*
X227801491Y-62697404D01*
X227734813Y-62718282D01*
X227667433Y-62699797D01*
X227663709Y-62697404D01*
X227583355Y-62643713D01*
X227396727Y-62566409D01*
X227396719Y-62566407D01*
X227198607Y-62527000D01*
X227198603Y-62527000D01*
X226996597Y-62527000D01*
X226996592Y-62527000D01*
X226798480Y-62566407D01*
X226798468Y-62566410D01*
X226717798Y-62599825D01*
X226648329Y-62607294D01*
X226602942Y-62587536D01*
X226602714Y-62587954D01*
X226598047Y-62585405D01*
X226596032Y-62584528D01*
X226594931Y-62583704D01*
X226594930Y-62583703D01*
X226594928Y-62583702D01*
X226460082Y-62533408D01*
X226460083Y-62533408D01*
X226400483Y-62527001D01*
X226400481Y-62527000D01*
X226400473Y-62527000D01*
X226400464Y-62527000D01*
X225254729Y-62527000D01*
X225254723Y-62527001D01*
X225195116Y-62533408D01*
X225060271Y-62583702D01*
X225060264Y-62583706D01*
X224945055Y-62669952D01*
X224945052Y-62669955D01*
X224858806Y-62785164D01*
X224858802Y-62785171D01*
X224808508Y-62920017D01*
X224802101Y-62979616D01*
X224802100Y-62979635D01*
X217918100Y-62979635D01*
X217918100Y-59624000D01*
X217937785Y-59556961D01*
X217990589Y-59511206D01*
X218042100Y-59500000D01*
X221527600Y-59500000D01*
X221567600Y-59460000D01*
X221567600Y-56080000D01*
X221457600Y-55970000D01*
X218042100Y-55970000D01*
X217975061Y-55950315D01*
X217929306Y-55897511D01*
X217918100Y-55846000D01*
X217918100Y-53661456D01*
X217918099Y-53661454D01*
X217879653Y-53468173D01*
X217879651Y-53468167D01*
X217879651Y-53468165D01*
X217875079Y-53457128D01*
X217815838Y-53314106D01*
X217804232Y-53286086D01*
X217695714Y-53123677D01*
X217694740Y-53122219D01*
X217633723Y-53061202D01*
X217555382Y-52982861D01*
X217555381Y-52982860D01*
X213831808Y-49259288D01*
X213831806Y-49259285D01*
X213831806Y-49259286D01*
X213824739Y-49252219D01*
X213824739Y-49252218D01*
X213685382Y-49112861D01*
X213685381Y-49112860D01*
X213685380Y-49112859D01*
X213521520Y-49003371D01*
X213521511Y-49003366D01*
X213448915Y-48973296D01*
X213392765Y-48950038D01*
X213339436Y-48927949D01*
X213339432Y-48927948D01*
X213339428Y-48927946D01*
X213242788Y-48908724D01*
X213146144Y-48889500D01*
X213146141Y-48889500D01*
X193509059Y-48889500D01*
X193509055Y-48889500D01*
X193412412Y-48908724D01*
X193315767Y-48927947D01*
X193315761Y-48927949D01*
X193262434Y-48950037D01*
X193262434Y-48950038D01*
X193216915Y-48968892D01*
X193133689Y-49003366D01*
X193133679Y-49003371D01*
X192969819Y-49112859D01*
X192900140Y-49182538D01*
X192830461Y-49252218D01*
X192830458Y-49252221D01*
X191789821Y-50292858D01*
X191789818Y-50292861D01*
X191720138Y-50362540D01*
X191650459Y-50432219D01*
X191540971Y-50596079D01*
X191540964Y-50596092D01*
X191465550Y-50778160D01*
X191465547Y-50778170D01*
X191427100Y-50971456D01*
X191427100Y-53998544D01*
X191465547Y-54191833D01*
X191465549Y-54191837D01*
X191487638Y-54245164D01*
X191540966Y-54373911D01*
X191540971Y-54373920D01*
X191650460Y-54537781D01*
X191650463Y-54537785D01*
X191794137Y-54681459D01*
X191794159Y-54681479D01*
X193109815Y-55997136D01*
X193109819Y-55997139D01*
X193273679Y-56106627D01*
X193273683Y-56106629D01*
X193273686Y-56106631D01*
X193455764Y-56182051D01*
X193649055Y-56220499D01*
X193649058Y-56220500D01*
X193649060Y-56220500D01*
X193846142Y-56220500D01*
X193846143Y-56220499D01*
X194039436Y-56182051D01*
X194221514Y-56106631D01*
X194385381Y-55997139D01*
X194524739Y-55857781D01*
X194634231Y-55693914D01*
X194709651Y-55511836D01*
X194748100Y-55318540D01*
X194748100Y-55121460D01*
X194748100Y-55121457D01*
X194748099Y-55121455D01*
X194709652Y-54928171D01*
X194709651Y-54928164D01*
X194634231Y-54746086D01*
X194634229Y-54746083D01*
X194634227Y-54746079D01*
X194524739Y-54582219D01*
X194524736Y-54582215D01*
X193872520Y-53929999D01*
X198777094Y-53929999D01*
X198777095Y-53930000D01*
X199611914Y-53930000D01*
X199607520Y-53934394D01*
X199554859Y-54025606D01*
X199527600Y-54127339D01*
X199527600Y-54232661D01*
X199554859Y-54334394D01*
X199607520Y-54425606D01*
X199611914Y-54430000D01*
X198777095Y-54430000D01*
X198827251Y-54606280D01*
X198924315Y-54801208D01*
X199055545Y-54974985D01*
X199216468Y-55121685D01*
X199401612Y-55236322D01*
X199401623Y-55236327D01*
X199604660Y-55314984D01*
X199677600Y-55328619D01*
X199677600Y-54495686D01*
X199681994Y-54500080D01*
X199773206Y-54552741D01*
X199874939Y-54580000D01*
X199980261Y-54580000D01*
X200081994Y-54552741D01*
X200173206Y-54500080D01*
X200177600Y-54495686D01*
X200177600Y-55328619D01*
X200250539Y-55314984D01*
X200453576Y-55236327D01*
X200453587Y-55236322D01*
X200638727Y-55121687D01*
X200649706Y-55111679D01*
X200712509Y-55081060D01*
X200781897Y-55089256D01*
X200832513Y-55129003D01*
X200895052Y-55212544D01*
X200895055Y-55212547D01*
X201010264Y-55298793D01*
X201010271Y-55298797D01*
X201145117Y-55349091D01*
X201145116Y-55349091D01*
X201152044Y-55349835D01*
X201204727Y-55355500D01*
X202650472Y-55355499D01*
X202710083Y-55349091D01*
X202844931Y-55298796D01*
X202960146Y-55212546D01*
X203046396Y-55097331D01*
X203096691Y-54962483D01*
X203103100Y-54902873D01*
X203103099Y-53457128D01*
X203103099Y-53457127D01*
X203103099Y-53457123D01*
X203096691Y-53397516D01*
X203046397Y-53262671D01*
X203046393Y-53262664D01*
X202960147Y-53147455D01*
X202960144Y-53147452D01*
X202844935Y-53061206D01*
X202844928Y-53061202D01*
X202710082Y-53010908D01*
X202710083Y-53010908D01*
X202650483Y-53004501D01*
X202650481Y-53004500D01*
X202650473Y-53004500D01*
X202650464Y-53004500D01*
X201204729Y-53004500D01*
X201204723Y-53004501D01*
X201145116Y-53010908D01*
X201010271Y-53061202D01*
X201010264Y-53061206D01*
X200895055Y-53147452D01*
X200895052Y-53147455D01*
X200832513Y-53230997D01*
X200776580Y-53272868D01*
X200706888Y-53277852D01*
X200649709Y-53248323D01*
X200638730Y-53238314D01*
X200638725Y-53238310D01*
X200453587Y-53123677D01*
X200453585Y-53123676D01*
X200250531Y-53045013D01*
X200250521Y-53045010D01*
X200177601Y-53031378D01*
X200177600Y-53031379D01*
X200177600Y-53864314D01*
X200173206Y-53859920D01*
X200081994Y-53807259D01*
X199980261Y-53780000D01*
X199874939Y-53780000D01*
X199773206Y-53807259D01*
X199681994Y-53859920D01*
X199677600Y-53864314D01*
X199677600Y-53031379D01*
X199677598Y-53031378D01*
X199604678Y-53045010D01*
X199604668Y-53045013D01*
X199401614Y-53123676D01*
X199401612Y-53123677D01*
X199216469Y-53238314D01*
X199216468Y-53238314D01*
X199055545Y-53385014D01*
X198924315Y-53558791D01*
X198827251Y-53753719D01*
X198777094Y-53929999D01*
X193872520Y-53929999D01*
X193464419Y-53521898D01*
X193430934Y-53460575D01*
X193428100Y-53434217D01*
X193428100Y-51535782D01*
X193447785Y-51468743D01*
X193464419Y-51448101D01*
X193985701Y-50926819D01*
X194047024Y-50893334D01*
X194073382Y-50890500D01*
X212581818Y-50890500D01*
X212648857Y-50910185D01*
X212669499Y-50926819D01*
X215880781Y-54138101D01*
X215914266Y-54199424D01*
X215917100Y-54225782D01*
X215917100Y-71644754D01*
X215916503Y-71656907D01*
X215912259Y-71699999D01*
X215916503Y-71743090D01*
X215917100Y-71755244D01*
X215917100Y-71798543D01*
X215925545Y-71841005D01*
X215927330Y-71853034D01*
X215931575Y-71896130D01*
X215931575Y-71896131D01*
X215941761Y-71929707D01*
X215947100Y-71965702D01*
X215947100Y-82654218D01*
X215927415Y-82721257D01*
X215910781Y-82741899D01*
X215459499Y-83193181D01*
X215398176Y-83226666D01*
X215371818Y-83229500D01*
X210239055Y-83229500D01*
X210142412Y-83248724D01*
X210045770Y-83267946D01*
X210045766Y-83267948D01*
X210024357Y-83276816D01*
X209863688Y-83343366D01*
X209863679Y-83343371D01*
X209699819Y-83452859D01*
X209661771Y-83490908D01*
X209560461Y-83592218D01*
X209419781Y-83732898D01*
X209358458Y-83766383D01*
X209288766Y-83761399D01*
X209232833Y-83719527D01*
X209208416Y-83654063D01*
X209208100Y-83645217D01*
X209208100Y-82216220D01*
X209169652Y-82022934D01*
X209169651Y-82022933D01*
X209169651Y-82022929D01*
X209169649Y-82022924D01*
X209094235Y-81840856D01*
X209094228Y-81840843D01*
X208984739Y-81676982D01*
X208984736Y-81676978D01*
X208842286Y-81534528D01*
X208842255Y-81534499D01*
X198707756Y-71400000D01*
X202927600Y-71400000D01*
X202927600Y-74440000D01*
X206567600Y-74440000D01*
X206607600Y-74400000D01*
X206607600Y-72450000D01*
X207902140Y-72450000D01*
X207921926Y-72638256D01*
X207921927Y-72638259D01*
X207980418Y-72818277D01*
X207980421Y-72818284D01*
X208075067Y-72982216D01*
X208201729Y-73122888D01*
X208354865Y-73234148D01*
X208354870Y-73234151D01*
X208527791Y-73311142D01*
X208527793Y-73311142D01*
X208527797Y-73311144D01*
X208592929Y-73324987D01*
X208654409Y-73358178D01*
X208654828Y-73358596D01*
X210530781Y-75234549D01*
X210564266Y-75295872D01*
X210567100Y-75322230D01*
X210567100Y-78792884D01*
X210547415Y-78859923D01*
X210494611Y-78905678D01*
X210486434Y-78909066D01*
X210400269Y-78941203D01*
X210400264Y-78941206D01*
X210285055Y-79027452D01*
X210285052Y-79027455D01*
X210198806Y-79142664D01*
X210198802Y-79142671D01*
X210148508Y-79277517D01*
X210142101Y-79337116D01*
X210142100Y-79337135D01*
X210142100Y-80782870D01*
X210142101Y-80782876D01*
X210148508Y-80842483D01*
X210198802Y-80977328D01*
X210198806Y-80977335D01*
X210285052Y-81092544D01*
X210285055Y-81092547D01*
X210400264Y-81178793D01*
X210400271Y-81178797D01*
X210535117Y-81229091D01*
X210535116Y-81229091D01*
X210542044Y-81229835D01*
X210594727Y-81235500D01*
X212040472Y-81235499D01*
X212100083Y-81229091D01*
X212234931Y-81178796D01*
X212350146Y-81092546D01*
X212376714Y-81057055D01*
X212412687Y-81009003D01*
X212468620Y-80967132D01*
X212538312Y-80962148D01*
X212595491Y-80991677D01*
X212606469Y-81001685D01*
X212606474Y-81001689D01*
X212791612Y-81116322D01*
X212791623Y-81116327D01*
X212994660Y-81194984D01*
X213067600Y-81208619D01*
X213067600Y-80375686D01*
X213071994Y-80380080D01*
X213163206Y-80432741D01*
X213264939Y-80460000D01*
X213370261Y-80460000D01*
X213471994Y-80432741D01*
X213563206Y-80380080D01*
X213567600Y-80375686D01*
X213567600Y-81208619D01*
X213640539Y-81194984D01*
X213843576Y-81116327D01*
X213843587Y-81116322D01*
X214028730Y-81001685D01*
X214028731Y-81001685D01*
X214189654Y-80854985D01*
X214320884Y-80681208D01*
X214417948Y-80486280D01*
X214468105Y-80310000D01*
X213633286Y-80310000D01*
X213637680Y-80305606D01*
X213690341Y-80214394D01*
X213717600Y-80112661D01*
X213717600Y-80007339D01*
X213690341Y-79905606D01*
X213637680Y-79814394D01*
X213633286Y-79810000D01*
X214468105Y-79810000D01*
X214468105Y-79809999D01*
X214417948Y-79633719D01*
X214320884Y-79438791D01*
X214189654Y-79265014D01*
X214028731Y-79118314D01*
X213843587Y-79003677D01*
X213843585Y-79003676D01*
X213640531Y-78925013D01*
X213640521Y-78925010D01*
X213567601Y-78911378D01*
X213567600Y-78911379D01*
X213567600Y-79744314D01*
X213563206Y-79739920D01*
X213471994Y-79687259D01*
X213370261Y-79660000D01*
X213264939Y-79660000D01*
X213163206Y-79687259D01*
X213071994Y-79739920D01*
X213067600Y-79744314D01*
X213067600Y-78911379D01*
X213067598Y-78911378D01*
X212994678Y-78925010D01*
X212994668Y-78925013D01*
X212791614Y-79003676D01*
X212791612Y-79003677D01*
X212606469Y-79118314D01*
X212606468Y-79118314D01*
X212595487Y-79128325D01*
X212532682Y-79158940D01*
X212463295Y-79150740D01*
X212412686Y-79110997D01*
X212350146Y-79027454D01*
X212318383Y-79003676D01*
X212234935Y-78941206D01*
X212234930Y-78941203D01*
X212148766Y-78909066D01*
X212092833Y-78867194D01*
X212068416Y-78801730D01*
X212068100Y-78792884D01*
X212068100Y-74886079D01*
X212039259Y-74741092D01*
X212039258Y-74741091D01*
X212039258Y-74741087D01*
X211982684Y-74604505D01*
X211949786Y-74555270D01*
X211932901Y-74529999D01*
X211900556Y-74481589D01*
X211900552Y-74481584D01*
X209720370Y-72301402D01*
X209690121Y-72252041D01*
X209634779Y-72081716D01*
X209540133Y-71917784D01*
X209413471Y-71777112D01*
X209413470Y-71777111D01*
X209260334Y-71665851D01*
X209260329Y-71665848D01*
X209087407Y-71588857D01*
X209087402Y-71588855D01*
X208941601Y-71557865D01*
X208902246Y-71549500D01*
X208712954Y-71549500D01*
X208680497Y-71556398D01*
X208527797Y-71588855D01*
X208527792Y-71588857D01*
X208354870Y-71665848D01*
X208354865Y-71665851D01*
X208201729Y-71777111D01*
X208075066Y-71917785D01*
X207980421Y-72081715D01*
X207980418Y-72081722D01*
X207939459Y-72207782D01*
X207921926Y-72261744D01*
X207902140Y-72450000D01*
X206607600Y-72450000D01*
X206607600Y-71020000D01*
X206497600Y-70910000D01*
X202927600Y-70910000D01*
X202927600Y-71400000D01*
X198707756Y-71400000D01*
X198244315Y-70936559D01*
X198244295Y-70936537D01*
X198100621Y-70792863D01*
X198100617Y-70792860D01*
X197936756Y-70683371D01*
X197936747Y-70683366D01*
X197864151Y-70653296D01*
X197808001Y-70630038D01*
X197754672Y-70607949D01*
X197754668Y-70607948D01*
X197754664Y-70607946D01*
X197658024Y-70588724D01*
X197561380Y-70569500D01*
X197561377Y-70569500D01*
X193189059Y-70569500D01*
X193189057Y-70569500D01*
X192995770Y-70607947D01*
X192995760Y-70607950D01*
X192813692Y-70683364D01*
X192813679Y-70683371D01*
X192649818Y-70792860D01*
X192649814Y-70792863D01*
X192510463Y-70932214D01*
X192510460Y-70932218D01*
X192400971Y-71096079D01*
X192400964Y-71096092D01*
X192325550Y-71278160D01*
X192325547Y-71278170D01*
X192287100Y-71471456D01*
X192287100Y-71471459D01*
X192287100Y-71668541D01*
X192287100Y-71668543D01*
X192287099Y-71668543D01*
X192325547Y-71861829D01*
X192325550Y-71861839D01*
X192400964Y-72043907D01*
X192400971Y-72043920D01*
X192510460Y-72207781D01*
X192510463Y-72207785D01*
X192649814Y-72347136D01*
X192649818Y-72347139D01*
X192813679Y-72456628D01*
X192813692Y-72456635D01*
X192995760Y-72532049D01*
X192995765Y-72532051D01*
X192995769Y-72532051D01*
X192995770Y-72532052D01*
X193189056Y-72570500D01*
X193189059Y-72570500D01*
X196997054Y-72570500D01*
X197064093Y-72590185D01*
X197084735Y-72606819D01*
X202609581Y-78131665D01*
X202643066Y-78192988D01*
X202638082Y-78262680D01*
X202596210Y-78318613D01*
X202530746Y-78343030D01*
X202509747Y-78342749D01*
X202427601Y-78334659D01*
X202427600Y-78334659D01*
X202231470Y-78353975D01*
X202042866Y-78411188D01*
X201869067Y-78504086D01*
X201869060Y-78504090D01*
X201716716Y-78629116D01*
X201591690Y-78781460D01*
X201591686Y-78781467D01*
X201498788Y-78955266D01*
X201441575Y-79143870D01*
X201432727Y-79233701D01*
X201406565Y-79298488D01*
X201397005Y-79309226D01*
X193680281Y-87025951D01*
X193618958Y-87059436D01*
X193549266Y-87054452D01*
X193504919Y-87025951D01*
X189330649Y-82851681D01*
X189297164Y-82790358D01*
X189302148Y-82720666D01*
X189344020Y-82664733D01*
X189409484Y-82640316D01*
X189418330Y-82640000D01*
X191477600Y-82640000D01*
X191517600Y-82600000D01*
X191517600Y-79220000D01*
X191407600Y-79110000D01*
X187837600Y-79110000D01*
X187837600Y-81059270D01*
X187817915Y-81126309D01*
X187765111Y-81172064D01*
X187695953Y-81182008D01*
X187632397Y-81152983D01*
X187625919Y-81146951D01*
X185494419Y-79015451D01*
X185460934Y-78954128D01*
X185458100Y-78927770D01*
X185458100Y-71450000D01*
X187867600Y-71450000D01*
X187867600Y-74490000D01*
X191507600Y-74490000D01*
X191547600Y-74450000D01*
X191547600Y-71070000D01*
X191437600Y-70960000D01*
X187867600Y-70960000D01*
X187867600Y-71450000D01*
X185458100Y-71450000D01*
X185458100Y-67634500D01*
X185477785Y-67567461D01*
X185530589Y-67521706D01*
X185582100Y-67510500D01*
X185935370Y-67510500D01*
X186002409Y-67530185D01*
X186023051Y-67546819D01*
X187949186Y-69472954D01*
X187978658Y-69492645D01*
X188022870Y-69522186D01*
X188072105Y-69555084D01*
X188072106Y-69555084D01*
X188072107Y-69555085D01*
X188072109Y-69555086D01*
X188208682Y-69611656D01*
X188208687Y-69611658D01*
X188208691Y-69611658D01*
X188208692Y-69611659D01*
X188353679Y-69640500D01*
X188353682Y-69640500D01*
X188353683Y-69640500D01*
X188501517Y-69640500D01*
X191990653Y-69640500D01*
X192014845Y-69642883D01*
X192153679Y-69670500D01*
X192153682Y-69670500D01*
X192301519Y-69670500D01*
X192404173Y-69650080D01*
X192446512Y-69641658D01*
X192583094Y-69585084D01*
X192706016Y-69502952D01*
X193128969Y-69079999D01*
X198407094Y-69079999D01*
X198407095Y-69080000D01*
X199241914Y-69080000D01*
X199237520Y-69084394D01*
X199184859Y-69175606D01*
X199157600Y-69277339D01*
X199157600Y-69382661D01*
X199184859Y-69484394D01*
X199237520Y-69575606D01*
X199241914Y-69580000D01*
X198407095Y-69580000D01*
X198457251Y-69756280D01*
X198554315Y-69951208D01*
X198685545Y-70124985D01*
X198846468Y-70271685D01*
X199031612Y-70386322D01*
X199031623Y-70386327D01*
X199234660Y-70464984D01*
X199307600Y-70478619D01*
X199307600Y-69645686D01*
X199311994Y-69650080D01*
X199403206Y-69702741D01*
X199504939Y-69730000D01*
X199610261Y-69730000D01*
X199711994Y-69702741D01*
X199803206Y-69650080D01*
X199807600Y-69645686D01*
X199807600Y-70478619D01*
X199880539Y-70464984D01*
X200083576Y-70386327D01*
X200083587Y-70386322D01*
X200268727Y-70271687D01*
X200279706Y-70261679D01*
X200342509Y-70231060D01*
X200411897Y-70239256D01*
X200462513Y-70279003D01*
X200525052Y-70362544D01*
X200525055Y-70362547D01*
X200640264Y-70448793D01*
X200640271Y-70448797D01*
X200775117Y-70499091D01*
X200775116Y-70499091D01*
X200782044Y-70499835D01*
X200834727Y-70505500D01*
X202280472Y-70505499D01*
X202340083Y-70499091D01*
X202474931Y-70448796D01*
X202590146Y-70362546D01*
X202676396Y-70247331D01*
X202726691Y-70112483D01*
X202733100Y-70052873D01*
X202733099Y-68607128D01*
X202726691Y-68547517D01*
X202685959Y-68438310D01*
X202676397Y-68412671D01*
X202676393Y-68412664D01*
X202590147Y-68297455D01*
X202590144Y-68297452D01*
X202474935Y-68211206D01*
X202474928Y-68211202D01*
X202340082Y-68160908D01*
X202340083Y-68160908D01*
X202280483Y-68154501D01*
X202280481Y-68154500D01*
X202280473Y-68154500D01*
X202280464Y-68154500D01*
X200834729Y-68154500D01*
X200834723Y-68154501D01*
X200775116Y-68160908D01*
X200640271Y-68211202D01*
X200640264Y-68211206D01*
X200525055Y-68297452D01*
X200525052Y-68297455D01*
X200462513Y-68380997D01*
X200406580Y-68422868D01*
X200336888Y-68427852D01*
X200279709Y-68398323D01*
X200268730Y-68388314D01*
X200268725Y-68388310D01*
X200083587Y-68273677D01*
X200083585Y-68273676D01*
X199880531Y-68195013D01*
X199880521Y-68195010D01*
X199807601Y-68181378D01*
X199807600Y-68181379D01*
X199807600Y-69014314D01*
X199803206Y-69009920D01*
X199711994Y-68957259D01*
X199610261Y-68930000D01*
X199504939Y-68930000D01*
X199403206Y-68957259D01*
X199311994Y-69009920D01*
X199307600Y-69014314D01*
X199307600Y-68181379D01*
X199307598Y-68181378D01*
X199234678Y-68195010D01*
X199234668Y-68195013D01*
X199031614Y-68273676D01*
X199031612Y-68273677D01*
X198846469Y-68388314D01*
X198846468Y-68388314D01*
X198685545Y-68535014D01*
X198554315Y-68708791D01*
X198457251Y-68903719D01*
X198407094Y-69079999D01*
X193128969Y-69079999D01*
X196942148Y-65266818D01*
X197003471Y-65233334D01*
X197029829Y-65230500D01*
X201460622Y-65230500D01*
X201527661Y-65250185D01*
X201539287Y-65258647D01*
X201609060Y-65315909D01*
X201609067Y-65315913D01*
X201782866Y-65408811D01*
X201782869Y-65408811D01*
X201782873Y-65408814D01*
X201971468Y-65466024D01*
X202167600Y-65485341D01*
X202363732Y-65466024D01*
X202552327Y-65408814D01*
X202726138Y-65315910D01*
X202795913Y-65258647D01*
X202860223Y-65231334D01*
X202874578Y-65230500D01*
X205839620Y-65230500D01*
X205906659Y-65250185D01*
X205948978Y-65296047D01*
X205971690Y-65338539D01*
X206096716Y-65490883D01*
X206249060Y-65615909D01*
X206249067Y-65615913D01*
X206422866Y-65708811D01*
X206422869Y-65708811D01*
X206422873Y-65708814D01*
X206611468Y-65766024D01*
X206807600Y-65785341D01*
X207003732Y-65766024D01*
X207192327Y-65708814D01*
X207218196Y-65694987D01*
X207366132Y-65615913D01*
X207366138Y-65615910D01*
X207518483Y-65490883D01*
X207643510Y-65338538D01*
X207736414Y-65164727D01*
X207793624Y-64976132D01*
X207812941Y-64780000D01*
X207793624Y-64583868D01*
X207736414Y-64395273D01*
X207736411Y-64395269D01*
X207736411Y-64395266D01*
X207643513Y-64221467D01*
X207643509Y-64221460D01*
X207518483Y-64069116D01*
X207366139Y-63944090D01*
X207366132Y-63944086D01*
X207192333Y-63851188D01*
X207192327Y-63851186D01*
X207003732Y-63793976D01*
X207003729Y-63793975D01*
X206807600Y-63774659D01*
X206807595Y-63774659D01*
X206804822Y-63774932D01*
X206802982Y-63774659D01*
X206801510Y-63774659D01*
X206801510Y-63774440D01*
X206745221Y-63766091D01*
X206726515Y-63758343D01*
X206726513Y-63758342D01*
X206726511Y-63758341D01*
X206726510Y-63758341D01*
X206581520Y-63729500D01*
X206581518Y-63729500D01*
X202874578Y-63729500D01*
X202807539Y-63709815D01*
X202795913Y-63701353D01*
X202726139Y-63644090D01*
X202726132Y-63644086D01*
X202552333Y-63551188D01*
X202552327Y-63551186D01*
X202363732Y-63493976D01*
X202363729Y-63493975D01*
X202167600Y-63474659D01*
X201971470Y-63493975D01*
X201782866Y-63551188D01*
X201609067Y-63644086D01*
X201609060Y-63644090D01*
X201539287Y-63701353D01*
X201474977Y-63728666D01*
X201460622Y-63729500D01*
X196593680Y-63729500D01*
X196448692Y-63758340D01*
X196448682Y-63758343D01*
X196312111Y-63814912D01*
X196312098Y-63814919D01*
X196189184Y-63897048D01*
X196189180Y-63897051D01*
X191983051Y-68103181D01*
X191921728Y-68136666D01*
X191895370Y-68139500D01*
X188789830Y-68139500D01*
X188722791Y-68119815D01*
X188702149Y-68103181D01*
X188420649Y-67821681D01*
X188387164Y-67760358D01*
X188392148Y-67690666D01*
X188434020Y-67634733D01*
X188499484Y-67610316D01*
X188508330Y-67610000D01*
X191567600Y-67610000D01*
X191607600Y-67570000D01*
X191607600Y-64190000D01*
X191497600Y-64080000D01*
X187927600Y-64080000D01*
X187927600Y-67029269D01*
X187907915Y-67096308D01*
X187855111Y-67142063D01*
X187785953Y-67152007D01*
X187722397Y-67122982D01*
X187715919Y-67116950D01*
X186776020Y-66177051D01*
X186690510Y-66119916D01*
X186690509Y-66119915D01*
X186653100Y-66094919D01*
X186653088Y-66094912D01*
X186516517Y-66038343D01*
X186516507Y-66038340D01*
X186371520Y-66009500D01*
X186371518Y-66009500D01*
X185414578Y-66009500D01*
X185347539Y-65989815D01*
X185335913Y-65981353D01*
X185266139Y-65924090D01*
X185266132Y-65924086D01*
X185092333Y-65831188D01*
X185092327Y-65831186D01*
X184903732Y-65773976D01*
X184903729Y-65773975D01*
X184707600Y-65754659D01*
X184511470Y-65773975D01*
X184322866Y-65831188D01*
X184149067Y-65924086D01*
X184149060Y-65924090D01*
X183996716Y-66049116D01*
X183871690Y-66201460D01*
X183871686Y-66201467D01*
X183778788Y-66375266D01*
X183721575Y-66563870D01*
X183702259Y-66760000D01*
X183721575Y-66956129D01*
X183721576Y-66956132D01*
X183763964Y-67095867D01*
X183778788Y-67144733D01*
X183871684Y-67318529D01*
X183871687Y-67318533D01*
X183871690Y-67318538D01*
X183928954Y-67388314D01*
X183956266Y-67452620D01*
X183957100Y-67466976D01*
X183957100Y-76785903D01*
X183937415Y-76852942D01*
X183884611Y-76898697D01*
X183819218Y-76909124D01*
X183804818Y-76907501D01*
X183777600Y-76904435D01*
X183777598Y-76904435D01*
X183777597Y-76904435D01*
X183777596Y-76904435D01*
X183598350Y-76924630D01*
X183598345Y-76924631D01*
X183518583Y-76952542D01*
X183477628Y-76959500D01*
X183003680Y-76959500D01*
X182858692Y-76988340D01*
X182858686Y-76988342D01*
X182722108Y-77044914D01*
X182722096Y-77044921D01*
X182672869Y-77077813D01*
X182599188Y-77127044D01*
X182599180Y-77127050D01*
X182064650Y-77661580D01*
X182064644Y-77661588D01*
X182015412Y-77735268D01*
X182015413Y-77735269D01*
X181982521Y-77784496D01*
X181982514Y-77784508D01*
X181925942Y-77921086D01*
X181925940Y-77921092D01*
X181897100Y-78066079D01*
X181897100Y-83262884D01*
X181877415Y-83329923D01*
X181824611Y-83375678D01*
X181816434Y-83379066D01*
X181730269Y-83411203D01*
X181730264Y-83411206D01*
X181615055Y-83497452D01*
X181615052Y-83497455D01*
X181552513Y-83580997D01*
X181496580Y-83622868D01*
X181426888Y-83627852D01*
X181369709Y-83598323D01*
X181358730Y-83588314D01*
X181358725Y-83588310D01*
X181173587Y-83473677D01*
X181173585Y-83473676D01*
X180970531Y-83395013D01*
X180970521Y-83395010D01*
X180897601Y-83381378D01*
X180897600Y-83381379D01*
X180897600Y-84214314D01*
X180893206Y-84209920D01*
X180801994Y-84157259D01*
X180700261Y-84130000D01*
X180594939Y-84130000D01*
X180493206Y-84157259D01*
X180401994Y-84209920D01*
X180397600Y-84214314D01*
X180397600Y-83381379D01*
X180397598Y-83381378D01*
X180324678Y-83395010D01*
X180324668Y-83395013D01*
X180121614Y-83473676D01*
X180121612Y-83473677D01*
X179936469Y-83588314D01*
X179936468Y-83588314D01*
X179775545Y-83735014D01*
X179644315Y-83908791D01*
X179547251Y-84103719D01*
X179497094Y-84279999D01*
X179497095Y-84280000D01*
X180331914Y-84280000D01*
X180327520Y-84284394D01*
X180274859Y-84375606D01*
X180247600Y-84477339D01*
X180247600Y-84582661D01*
X180274859Y-84684394D01*
X180327520Y-84775606D01*
X180331914Y-84780000D01*
X179497095Y-84780000D01*
X179547251Y-84956280D01*
X179644315Y-85151208D01*
X179775545Y-85324985D01*
X179936468Y-85471685D01*
X180121612Y-85586322D01*
X180121623Y-85586327D01*
X180324660Y-85664984D01*
X180397600Y-85678619D01*
X180397600Y-84845686D01*
X180401994Y-84850080D01*
X180493206Y-84902741D01*
X180594939Y-84930000D01*
X180700261Y-84930000D01*
X180801994Y-84902741D01*
X180893206Y-84850080D01*
X180897600Y-84845686D01*
X180897600Y-85678619D01*
X180970539Y-85664984D01*
X181173576Y-85586327D01*
X181173587Y-85586322D01*
X181358727Y-85471687D01*
X181369706Y-85461679D01*
X181432509Y-85431060D01*
X181501897Y-85439256D01*
X181552513Y-85479003D01*
X181615052Y-85562544D01*
X181615055Y-85562547D01*
X181730264Y-85648793D01*
X181730271Y-85648797D01*
X181865117Y-85699091D01*
X181865116Y-85699091D01*
X181872044Y-85699835D01*
X181924727Y-85705500D01*
X183370472Y-85705499D01*
X183430083Y-85699091D01*
X183564931Y-85648796D01*
X183680146Y-85562546D01*
X183766396Y-85447331D01*
X183816691Y-85312483D01*
X183816691Y-85312482D01*
X183816692Y-85312480D01*
X183819400Y-85287282D01*
X183823100Y-85252873D01*
X183823099Y-83807128D01*
X183816691Y-83747517D01*
X183811238Y-83732898D01*
X183766397Y-83612671D01*
X183766393Y-83612664D01*
X183680147Y-83497455D01*
X183680144Y-83497452D01*
X183564935Y-83411206D01*
X183564930Y-83411203D01*
X183478766Y-83379066D01*
X183422833Y-83337194D01*
X183398416Y-83271730D01*
X183398100Y-83262884D01*
X183398100Y-78600061D01*
X183417785Y-78533022D01*
X183470589Y-78487267D01*
X183539747Y-78477323D01*
X183563056Y-78483020D01*
X183598340Y-78495367D01*
X183598350Y-78495369D01*
X183777596Y-78515565D01*
X183777600Y-78515565D01*
X183777602Y-78515565D01*
X183819216Y-78510876D01*
X183888038Y-78522930D01*
X183939417Y-78570279D01*
X183957100Y-78634096D01*
X183957100Y-79363918D01*
X183957100Y-79363920D01*
X183957099Y-79363920D01*
X183985940Y-79508907D01*
X183985943Y-79508917D01*
X184042512Y-79645488D01*
X184042516Y-79645495D01*
X184063887Y-79677479D01*
X184063888Y-79677482D01*
X184124646Y-79768414D01*
X184124652Y-79768421D01*
X192850781Y-88494549D01*
X192884266Y-88555872D01*
X192887100Y-88582230D01*
X192887100Y-89292870D01*
X192887101Y-89292876D01*
X192893508Y-89352483D01*
X192943802Y-89487328D01*
X192943803Y-89487330D01*
X192943804Y-89487331D01*
X192944977Y-89488898D01*
X192945662Y-89490733D01*
X192948054Y-89495114D01*
X192947424Y-89495457D01*
X192969396Y-89554361D01*
X192960274Y-89610662D01*
X192926989Y-89691021D01*
X192926987Y-89691025D01*
X192917247Y-89740000D01*
X193281929Y-89740000D01*
X193295184Y-89740710D01*
X193339727Y-89745500D01*
X193851770Y-89745499D01*
X193837525Y-89759745D01*
X193788156Y-89845255D01*
X193762600Y-89940630D01*
X193762600Y-90039370D01*
X193788156Y-90134745D01*
X193837525Y-90220255D01*
X193851770Y-90234500D01*
X193811597Y-90234500D01*
X193811596Y-90234500D01*
X193795926Y-90237617D01*
X193771734Y-90240000D01*
X192917247Y-90240000D01*
X192926987Y-90288974D01*
X192926990Y-90288983D01*
X193004252Y-90475513D01*
X193004259Y-90475526D01*
X193057803Y-90555659D01*
X193078681Y-90622336D01*
X193060197Y-90689716D01*
X193057804Y-90693439D01*
X193003814Y-90774243D01*
X192926509Y-90960872D01*
X192926507Y-90960880D01*
X192887100Y-91158992D01*
X192887100Y-91361007D01*
X192926507Y-91559119D01*
X192926509Y-91559127D01*
X193003812Y-91745752D01*
X193003817Y-91745762D01*
X193116041Y-91913718D01*
X193258881Y-92056558D01*
X193426837Y-92168782D01*
X193426841Y-92168784D01*
X193426844Y-92168786D01*
X193613473Y-92246091D01*
X193811592Y-92285499D01*
X193811596Y-92285500D01*
X193811597Y-92285500D01*
X194463604Y-92285500D01*
X194463605Y-92285499D01*
X194661727Y-92246091D01*
X194848356Y-92168786D01*
X195016318Y-92056558D01*
X195159158Y-91913718D01*
X195271386Y-91745756D01*
X195348691Y-91559127D01*
X195388100Y-91361003D01*
X195388100Y-91158997D01*
X195348691Y-90960873D01*
X195271386Y-90774244D01*
X195217394Y-90693439D01*
X195196517Y-90626764D01*
X195215001Y-90559384D01*
X195217396Y-90555658D01*
X195270944Y-90475518D01*
X195270946Y-90475515D01*
X195348209Y-90288983D01*
X195348212Y-90288974D01*
X195357953Y-90240000D01*
X194503466Y-90240000D01*
X194479274Y-90237617D01*
X194463604Y-90234500D01*
X194463603Y-90234500D01*
X194423430Y-90234500D01*
X194437675Y-90220255D01*
X194487044Y-90134745D01*
X194512600Y-90039370D01*
X194512600Y-89940630D01*
X194487044Y-89845255D01*
X194437675Y-89759745D01*
X194423429Y-89745499D01*
X194935472Y-89745499D01*
X194980023Y-89740709D01*
X194993275Y-89740000D01*
X195357953Y-89740000D01*
X195348211Y-89691025D01*
X195348209Y-89691017D01*
X195314926Y-89610664D01*
X195307457Y-89541195D01*
X195327444Y-89495282D01*
X195327144Y-89495118D01*
X195328981Y-89491752D01*
X195330227Y-89488892D01*
X195331396Y-89487331D01*
X195381691Y-89352483D01*
X195388100Y-89292873D01*
X195388099Y-88147128D01*
X195381691Y-88087517D01*
X195331396Y-87952669D01*
X195331395Y-87952668D01*
X195331393Y-87952664D01*
X195245147Y-87837456D01*
X195245148Y-87837456D01*
X195245146Y-87837454D01*
X195214654Y-87814627D01*
X195172784Y-87758695D01*
X195167800Y-87689003D01*
X195201283Y-87627683D01*
X202458374Y-80370591D01*
X202519695Y-80337108D01*
X202533893Y-80334871D01*
X202623732Y-80326024D01*
X202812327Y-80268814D01*
X202824479Y-80262319D01*
X202899232Y-80222362D01*
X202986138Y-80175910D01*
X203138483Y-80050883D01*
X203263510Y-79898538D01*
X203356414Y-79724727D01*
X203413624Y-79536132D01*
X203432941Y-79340000D01*
X203424850Y-79257851D01*
X203437869Y-79189207D01*
X203485934Y-79138497D01*
X203553784Y-79121822D01*
X203619879Y-79144478D01*
X203635934Y-79158018D01*
X207170781Y-82692865D01*
X207204266Y-82754188D01*
X207207100Y-82780546D01*
X207207100Y-87305500D01*
X207187415Y-87372539D01*
X207134611Y-87418294D01*
X207083100Y-87429500D01*
X206359056Y-87429500D01*
X206165771Y-87467946D01*
X206165767Y-87467948D01*
X206165765Y-87467948D01*
X206165764Y-87467949D01*
X206090345Y-87499188D01*
X206090343Y-87499189D01*
X205983689Y-87543366D01*
X205983679Y-87543371D01*
X205848882Y-87633440D01*
X205848881Y-87633442D01*
X205820570Y-87652357D01*
X205819812Y-87652865D01*
X204071807Y-89400872D01*
X203499820Y-89972859D01*
X203499818Y-89972861D01*
X203433309Y-90039370D01*
X203360459Y-90112219D01*
X203250971Y-90276079D01*
X203250964Y-90276092D01*
X203218812Y-90353717D01*
X203175550Y-90458160D01*
X203175547Y-90458170D01*
X203170381Y-90484144D01*
X203137100Y-90651456D01*
X203137100Y-92445500D01*
X203117415Y-92512539D01*
X203064611Y-92558294D01*
X203013100Y-92569500D01*
X184153383Y-92569500D01*
X184086344Y-92549815D01*
X184065702Y-92533181D01*
X178774419Y-87241898D01*
X178740934Y-87180575D01*
X178738100Y-87154217D01*
X178738100Y-83372229D01*
X178757785Y-83305190D01*
X178774419Y-83284548D01*
X181230548Y-80828419D01*
X181230551Y-80828416D01*
X181312684Y-80705495D01*
X181369258Y-80568913D01*
X181382997Y-80499841D01*
X181398100Y-80423917D01*
X181398100Y-80276082D01*
X181398100Y-80276079D01*
X181369259Y-80131092D01*
X181369258Y-80131091D01*
X181369258Y-80131087D01*
X181350839Y-80086620D01*
X181312687Y-79994511D01*
X181312680Y-79994498D01*
X181230551Y-79871584D01*
X181230548Y-79871580D01*
X179044419Y-77685451D01*
X179010934Y-77624128D01*
X179008100Y-77597770D01*
X179008100Y-70054039D01*
X179027785Y-69987000D01*
X179080589Y-69941245D01*
X179149747Y-69931301D01*
X179213303Y-69960326D01*
X179241241Y-69996370D01*
X179241298Y-69996336D01*
X179241628Y-69996869D01*
X179243103Y-69998772D01*
X179244317Y-70001211D01*
X179375545Y-70174985D01*
X179536468Y-70321685D01*
X179721612Y-70436322D01*
X179721623Y-70436327D01*
X179924660Y-70514984D01*
X179997600Y-70528619D01*
X179997600Y-69695686D01*
X180001994Y-69700080D01*
X180093206Y-69752741D01*
X180194939Y-69780000D01*
X180300261Y-69780000D01*
X180401994Y-69752741D01*
X180493206Y-69700080D01*
X180497600Y-69695686D01*
X180497600Y-70528619D01*
X180570539Y-70514984D01*
X180773576Y-70436327D01*
X180773587Y-70436322D01*
X180958727Y-70321687D01*
X180969706Y-70311679D01*
X181032509Y-70281060D01*
X181101897Y-70289256D01*
X181152513Y-70329003D01*
X181215052Y-70412544D01*
X181215055Y-70412547D01*
X181330264Y-70498793D01*
X181330271Y-70498797D01*
X181465117Y-70549091D01*
X181465116Y-70549091D01*
X181472044Y-70549835D01*
X181524727Y-70555500D01*
X182970472Y-70555499D01*
X183030083Y-70549091D01*
X183164931Y-70498796D01*
X183280146Y-70412546D01*
X183366396Y-70297331D01*
X183416691Y-70162483D01*
X183423100Y-70102873D01*
X183423099Y-68657128D01*
X183416691Y-68597517D01*
X183398042Y-68547517D01*
X183366397Y-68462671D01*
X183366393Y-68462664D01*
X183280147Y-68347455D01*
X183280144Y-68347452D01*
X183164935Y-68261206D01*
X183164930Y-68261203D01*
X183078766Y-68229066D01*
X183022833Y-68187194D01*
X182998416Y-68121730D01*
X182998100Y-68112884D01*
X182998100Y-64392228D01*
X183017785Y-64325189D01*
X183034415Y-64304551D01*
X183845659Y-63493306D01*
X183881732Y-63470657D01*
X183880844Y-63468813D01*
X183887115Y-63465792D01*
X183887116Y-63465790D01*
X183887122Y-63465789D01*
X184039862Y-63369816D01*
X184167416Y-63242262D01*
X184263389Y-63089522D01*
X184322968Y-62919255D01*
X184325275Y-62898781D01*
X184343165Y-62740003D01*
X184343165Y-62739996D01*
X184322969Y-62560750D01*
X184322968Y-62560745D01*
X184265586Y-62396758D01*
X184263389Y-62390478D01*
X184167416Y-62237738D01*
X184039862Y-62110184D01*
X183887123Y-62014211D01*
X183716854Y-61954631D01*
X183716849Y-61954630D01*
X183537604Y-61934435D01*
X183537596Y-61934435D01*
X183358350Y-61954630D01*
X183358345Y-61954631D01*
X183188076Y-62014211D01*
X183035337Y-62110184D01*
X182907784Y-62237737D01*
X182811808Y-62390483D01*
X182808786Y-62396758D01*
X182806961Y-62395878D01*
X182784292Y-62431939D01*
X181664650Y-63551580D01*
X181664644Y-63551588D01*
X181615412Y-63625268D01*
X181615413Y-63625269D01*
X181582521Y-63674496D01*
X181582514Y-63674508D01*
X181525942Y-63811086D01*
X181525940Y-63811092D01*
X181497100Y-63956079D01*
X181497100Y-68112884D01*
X181477415Y-68179923D01*
X181424611Y-68225678D01*
X181416434Y-68229066D01*
X181330269Y-68261203D01*
X181330264Y-68261206D01*
X181215055Y-68347452D01*
X181215052Y-68347455D01*
X181152513Y-68430997D01*
X181096580Y-68472868D01*
X181026888Y-68477852D01*
X180969709Y-68448323D01*
X180958730Y-68438314D01*
X180958725Y-68438310D01*
X180773587Y-68323677D01*
X180773585Y-68323676D01*
X180570531Y-68245013D01*
X180570521Y-68245010D01*
X180497601Y-68231378D01*
X180497600Y-68231379D01*
X180497600Y-69064314D01*
X180493206Y-69059920D01*
X180401994Y-69007259D01*
X180300261Y-68980000D01*
X180194939Y-68980000D01*
X180093206Y-69007259D01*
X180001994Y-69059920D01*
X179997600Y-69064314D01*
X179997600Y-68231379D01*
X179997598Y-68231378D01*
X179924678Y-68245010D01*
X179924668Y-68245013D01*
X179721614Y-68323676D01*
X179721612Y-68323677D01*
X179536469Y-68438314D01*
X179536468Y-68438314D01*
X179375545Y-68585014D01*
X179244316Y-68758789D01*
X179243100Y-68761233D01*
X179242206Y-68762196D01*
X179241298Y-68763664D01*
X179241010Y-68763486D01*
X179195596Y-68812469D01*
X179127933Y-68829890D01*
X179061593Y-68807964D01*
X179017638Y-68753652D01*
X179008100Y-68705960D01*
X179008100Y-67147228D01*
X179027785Y-67080189D01*
X179044414Y-67059552D01*
X180375370Y-65728595D01*
X180436691Y-65695112D01*
X180437027Y-65695039D01*
X180502403Y-65681144D01*
X180675330Y-65604151D01*
X180828471Y-65492888D01*
X180955133Y-65352216D01*
X181049779Y-65188284D01*
X181108274Y-65008256D01*
X181128060Y-64820000D01*
X181108274Y-64631744D01*
X181049779Y-64451716D01*
X180955133Y-64287784D01*
X180828471Y-64147112D01*
X180768454Y-64103507D01*
X180675334Y-64035851D01*
X180675329Y-64035848D01*
X180502407Y-63958857D01*
X180502402Y-63958855D01*
X180356601Y-63927865D01*
X180317246Y-63919500D01*
X180127954Y-63919500D01*
X180095497Y-63926398D01*
X179942797Y-63958855D01*
X179942792Y-63958857D01*
X179769870Y-64035848D01*
X179769865Y-64035851D01*
X179616729Y-64147111D01*
X179490066Y-64287785D01*
X179395421Y-64451715D01*
X179395419Y-64451719D01*
X179340078Y-64622041D01*
X179309828Y-64671403D01*
X177674648Y-66306583D01*
X177651624Y-66341042D01*
X177628753Y-66375273D01*
X177592514Y-66429507D01*
X177592513Y-66429509D01*
X177535943Y-66566082D01*
X177535940Y-66566092D01*
X177507100Y-66711079D01*
X177507100Y-66711082D01*
X177507100Y-78033918D01*
X177507100Y-78033920D01*
X177507099Y-78033920D01*
X177535940Y-78178907D01*
X177535942Y-78178913D01*
X177592516Y-78315495D01*
X177597322Y-78322687D01*
X177597325Y-78322697D01*
X177597328Y-78322696D01*
X177669871Y-78431267D01*
X177674651Y-78438420D01*
X179498550Y-80262319D01*
X179532035Y-80323642D01*
X179527051Y-80393334D01*
X179498550Y-80437681D01*
X177575369Y-82360861D01*
X177514046Y-82394346D01*
X177511880Y-82394797D01*
X177445770Y-82407947D01*
X177445760Y-82407950D01*
X177263692Y-82483364D01*
X177263679Y-82483371D01*
X177099818Y-82592860D01*
X177099814Y-82592863D01*
X176960463Y-82732214D01*
X176960460Y-82732218D01*
X176850971Y-82896079D01*
X176850964Y-82896092D01*
X176775550Y-83078160D01*
X176775547Y-83078170D01*
X176737100Y-83271456D01*
X170549947Y-83271456D01*
X170554013Y-81229091D01*
X170557236Y-79610000D01*
X172737600Y-79610000D01*
X172737600Y-82650000D01*
X176377600Y-82650000D01*
X176417600Y-82610000D01*
X176417600Y-79230000D01*
X176307600Y-79120000D01*
X172737600Y-79120000D01*
X172737600Y-79610000D01*
X170557236Y-79610000D01*
X170573322Y-71530000D01*
X172977600Y-71530000D01*
X172977600Y-74570000D01*
X176617600Y-74570000D01*
X176657600Y-74530000D01*
X176657600Y-71150000D01*
X176547600Y-71040000D01*
X172977600Y-71040000D01*
X172977600Y-71530000D01*
X170573322Y-71530000D01*
X170587139Y-64590000D01*
X172837600Y-64590000D01*
X172837600Y-67630000D01*
X176477600Y-67630000D01*
X176517600Y-67590000D01*
X176517600Y-64210000D01*
X176407600Y-64100000D01*
X172837600Y-64100000D01*
X172837600Y-64590000D01*
X170587139Y-64590000D01*
X170603405Y-56420000D01*
X173027600Y-56420000D01*
X173027600Y-59460000D01*
X176667600Y-59460000D01*
X176707600Y-59420000D01*
X176707600Y-56190000D01*
X187677600Y-56190000D01*
X187677600Y-59230000D01*
X191317600Y-59230000D01*
X191357600Y-59190000D01*
X191357600Y-56470000D01*
X203017600Y-56470000D01*
X203017600Y-59510000D01*
X206657600Y-59510000D01*
X206697600Y-59470000D01*
X206697600Y-58709999D01*
X210107094Y-58709999D01*
X210107095Y-58710000D01*
X210941914Y-58710000D01*
X210937520Y-58714394D01*
X210884859Y-58805606D01*
X210857600Y-58907339D01*
X210857600Y-59012661D01*
X210884859Y-59114394D01*
X210937520Y-59205606D01*
X210941914Y-59210000D01*
X210107095Y-59210000D01*
X210157251Y-59386280D01*
X210254315Y-59581208D01*
X210385545Y-59754985D01*
X210546468Y-59901685D01*
X210731612Y-60016322D01*
X210731623Y-60016327D01*
X210934660Y-60094984D01*
X211007600Y-60108619D01*
X211007600Y-59275686D01*
X211011994Y-59280080D01*
X211103206Y-59332741D01*
X211204939Y-59360000D01*
X211310261Y-59360000D01*
X211411994Y-59332741D01*
X211503206Y-59280080D01*
X211507600Y-59275686D01*
X211507600Y-60108619D01*
X211580539Y-60094984D01*
X211783576Y-60016327D01*
X211783587Y-60016322D01*
X211968727Y-59901687D01*
X211979706Y-59891679D01*
X212042509Y-59861060D01*
X212111897Y-59869256D01*
X212162513Y-59909003D01*
X212225052Y-59992544D01*
X212225055Y-59992547D01*
X212340264Y-60078793D01*
X212340271Y-60078797D01*
X212475117Y-60129091D01*
X212475116Y-60129091D01*
X212482044Y-60129835D01*
X212534727Y-60135500D01*
X213980472Y-60135499D01*
X214040083Y-60129091D01*
X214174931Y-60078796D01*
X214290146Y-59992546D01*
X214376396Y-59877331D01*
X214426691Y-59742483D01*
X214433100Y-59682873D01*
X214433099Y-58237128D01*
X214426691Y-58177517D01*
X214376396Y-58042669D01*
X214376395Y-58042668D01*
X214376393Y-58042664D01*
X214290147Y-57927455D01*
X214290144Y-57927452D01*
X214174935Y-57841206D01*
X214174928Y-57841202D01*
X214040082Y-57790908D01*
X214040083Y-57790908D01*
X213980483Y-57784501D01*
X213980481Y-57784500D01*
X213980473Y-57784500D01*
X213980464Y-57784500D01*
X212534729Y-57784500D01*
X212534723Y-57784501D01*
X212475116Y-57790908D01*
X212340271Y-57841202D01*
X212340264Y-57841206D01*
X212225055Y-57927452D01*
X212225052Y-57927455D01*
X212162513Y-58010997D01*
X212106580Y-58052868D01*
X212036888Y-58057852D01*
X211979709Y-58028323D01*
X211968730Y-58018314D01*
X211968725Y-58018310D01*
X211783587Y-57903677D01*
X211783585Y-57903676D01*
X211580531Y-57825013D01*
X211580521Y-57825010D01*
X211507601Y-57811378D01*
X211507600Y-57811379D01*
X211507600Y-58644314D01*
X211503206Y-58639920D01*
X211411994Y-58587259D01*
X211310261Y-58560000D01*
X211204939Y-58560000D01*
X211103206Y-58587259D01*
X211011994Y-58639920D01*
X211007600Y-58644314D01*
X211007600Y-57811379D01*
X211007598Y-57811378D01*
X210934678Y-57825010D01*
X210934668Y-57825013D01*
X210731614Y-57903676D01*
X210731612Y-57903677D01*
X210546469Y-58018314D01*
X210546468Y-58018314D01*
X210385545Y-58165014D01*
X210254315Y-58338791D01*
X210157251Y-58533719D01*
X210107094Y-58709999D01*
X206697600Y-58709999D01*
X206697600Y-56090000D01*
X206587600Y-55980000D01*
X203017600Y-55980000D01*
X203017600Y-56470000D01*
X191357600Y-56470000D01*
X191357600Y-55810000D01*
X191247600Y-55700000D01*
X187677600Y-55700000D01*
X187677600Y-56190000D01*
X176707600Y-56190000D01*
X176707600Y-56040000D01*
X176597600Y-55930000D01*
X173027600Y-55930000D01*
X173027600Y-56420000D01*
X170603405Y-56420000D01*
X170629040Y-43543739D01*
X170648858Y-43476739D01*
X170701753Y-43431089D01*
X170753040Y-43419986D01*
X236393960Y-43419986D01*
X236460999Y-43439671D01*
G37*
%TD.AperFunction*%
%TD*%
M02*
