%TF.GenerationSoftware,KiCad,Pcbnew,8.0.8*%
%TF.CreationDate,2025-07-28T08:21:31+12:00*%
%TF.ProjectId,esf8grid,65736638-6772-4696-942e-6b696361645f,rev?*%
%TF.SameCoordinates,Original*%
%TF.FileFunction,Copper,L1,Top*%
%TF.FilePolarity,Positive*%
%FSLAX46Y46*%
G04 Gerber Fmt 4.6, Leading zero omitted, Abs format (unit mm)*
G04 Created by KiCad (PCBNEW 8.0.8) date 2025-07-28 08:21:31*
%MOMM*%
%LPD*%
G01*
G04 APERTURE LIST*
%TA.AperFunction,Conductor*%
%ADD10C,0.200000*%
%TD*%
%TA.AperFunction,Conductor*%
%ADD11C,0.555555*%
%TD*%
G04 APERTURE END LIST*
D10*
%TO.N,*%
X110623155Y-62875926D02*
X110623155Y-67320371D01*
D11*
X125623155Y-73338889D02*
X130067600Y-73338889D01*
X110623155Y-64357408D02*
X115067600Y-64357408D01*
X110623155Y-56857408D02*
X115067600Y-56857408D01*
X133123155Y-57598149D02*
X137567600Y-57598149D01*
X133123155Y-73338889D02*
X137567600Y-73338889D01*
X133123155Y-65838889D02*
X137567600Y-65838889D01*
D10*
X110623155Y-70375926D02*
X110623155Y-74820371D01*
D11*
X118123155Y-73338889D02*
X122567600Y-73338889D01*
X118123155Y-65838889D02*
X122567600Y-65838889D01*
X125623155Y-66579630D02*
X130067600Y-66579630D01*
X133123155Y-74820371D02*
X137567600Y-74820371D01*
X125623155Y-55375926D02*
X130067600Y-55375926D01*
X118123155Y-51579630D02*
X122567600Y-51579630D01*
X133123155Y-73338889D02*
X137567600Y-73338889D01*
X125623155Y-64357408D02*
X130067600Y-64357408D01*
X110623155Y-57598149D02*
X115067600Y-57598149D01*
X110623155Y-71857408D02*
X115067600Y-71857408D01*
D10*
X118123155Y-70375926D02*
X118123155Y-74820371D01*
X118123155Y-47875926D02*
X118123155Y-52320371D01*
D11*
X125623155Y-71116667D02*
X130067600Y-71116667D01*
D10*
X118123155Y-55375926D02*
X118123155Y-59820371D01*
X110623155Y-47875926D02*
X110623155Y-52320371D01*
D11*
X118123155Y-63616667D02*
X122567600Y-63616667D01*
X110623155Y-63616667D02*
X115067600Y-63616667D01*
X118123155Y-71116667D02*
X122567600Y-71116667D01*
X110623155Y-50098149D02*
X115067600Y-50098149D01*
X133123155Y-59820371D02*
X137567600Y-59820371D01*
X110623155Y-64357408D02*
X115067600Y-64357408D01*
X133123155Y-58338889D02*
X137567600Y-58338889D01*
X118123155Y-50098149D02*
X122567600Y-50098149D01*
X110623155Y-66579630D02*
X115067600Y-66579630D01*
X125623155Y-47875926D02*
X130067600Y-47875926D01*
D10*
X118123155Y-55375926D02*
X118123155Y-59820371D01*
D11*
X110623155Y-59820371D02*
X115067600Y-59820371D01*
X125623155Y-65098149D02*
X130067600Y-65098149D01*
X118123155Y-59079630D02*
X122567600Y-59079630D01*
X125623155Y-56116667D02*
X130067600Y-56116667D01*
D10*
X110623155Y-55375926D02*
X110623155Y-59820371D01*
D11*
X133123155Y-56116667D02*
X137567600Y-56116667D01*
X125623155Y-64357408D02*
X130067600Y-64357408D01*
X118123155Y-71116667D02*
X122567600Y-71116667D01*
X133123155Y-48616667D02*
X137567600Y-48616667D01*
D10*
X118123155Y-47875926D02*
X118123155Y-52320371D01*
D11*
X110623155Y-59820371D02*
X115067600Y-59820371D01*
X125623155Y-59079630D02*
X130067600Y-59079630D01*
X125623155Y-56857408D02*
X130067600Y-56857408D01*
X125623155Y-67320371D02*
X130067600Y-67320371D01*
X110623155Y-65098149D02*
X115067600Y-65098149D01*
X118123155Y-65838889D02*
X122567600Y-65838889D01*
X133123155Y-70375926D02*
X137567600Y-70375926D01*
X118123155Y-59820371D02*
X122567600Y-59820371D01*
X133123155Y-71116667D02*
X137567600Y-71116667D01*
X118123155Y-50838889D02*
X122567600Y-50838889D01*
X118123155Y-47875926D02*
X122567600Y-47875926D01*
X110623155Y-59079630D02*
X115067600Y-59079630D01*
X125623155Y-62875926D02*
X130067600Y-62875926D01*
X125623155Y-66579630D02*
X130067600Y-66579630D01*
X133123155Y-71116667D02*
X137567600Y-71116667D01*
D10*
X133123155Y-47875926D02*
X133123155Y-52320371D01*
D11*
X110623155Y-71116667D02*
X115067600Y-71116667D01*
X110623155Y-47875926D02*
X115067600Y-47875926D01*
X133123155Y-50838889D02*
X137567600Y-50838889D01*
D10*
X125623155Y-47875926D02*
X125623155Y-52320371D01*
D11*
X125623155Y-62875926D02*
X130067600Y-62875926D01*
X133123155Y-72598149D02*
X137567600Y-72598149D01*
X133123155Y-67320371D02*
X137567600Y-67320371D01*
X125623155Y-72598149D02*
X130067600Y-72598149D01*
X133123155Y-47875926D02*
X137567600Y-47875926D01*
X133123155Y-71116667D02*
X137567600Y-71116667D01*
X118123155Y-57598149D02*
X122567600Y-57598149D01*
X110623155Y-63616667D02*
X115067600Y-63616667D01*
X110623155Y-66579630D02*
X115067600Y-66579630D01*
X133123155Y-52320371D02*
X137567600Y-52320371D01*
X118123155Y-50098149D02*
X122567600Y-50098149D01*
X125623155Y-64357408D02*
X130067600Y-64357408D01*
X118123155Y-58338889D02*
X122567600Y-58338889D01*
X133123155Y-72598149D02*
X137567600Y-72598149D01*
X125623155Y-70375926D02*
X130067600Y-70375926D01*
X133123155Y-63616667D02*
X137567600Y-63616667D01*
X125623155Y-74079630D02*
X130067600Y-74079630D01*
X118123155Y-74079630D02*
X122567600Y-74079630D01*
X118123155Y-73338889D02*
X122567600Y-73338889D01*
D10*
X133123155Y-70375926D02*
X133123155Y-74820371D01*
D11*
X110623155Y-55375926D02*
X115067600Y-55375926D01*
X125623155Y-65098149D02*
X130067600Y-65098149D01*
X125623155Y-67320371D02*
X130067600Y-67320371D01*
X110623155Y-65838889D02*
X115067600Y-65838889D01*
X118123155Y-74079630D02*
X122567600Y-74079630D01*
X118123155Y-65098149D02*
X122567600Y-65098149D01*
X125623155Y-48616667D02*
X130067600Y-48616667D01*
X118123155Y-74820371D02*
X122567600Y-74820371D01*
X125623155Y-52320371D02*
X130067600Y-52320371D01*
X110623155Y-71116667D02*
X115067600Y-71116667D01*
X133123155Y-62875926D02*
X137567600Y-62875926D01*
D10*
X125623155Y-55375926D02*
X125623155Y-59820371D01*
D11*
X133123155Y-67320371D02*
X137567600Y-67320371D01*
X125623155Y-52320371D02*
X130067600Y-52320371D01*
X125623155Y-74820371D02*
X130067600Y-74820371D01*
X118123155Y-51579630D02*
X122567600Y-51579630D01*
X133123155Y-49357408D02*
X137567600Y-49357408D01*
X118123155Y-67320371D02*
X122567600Y-67320371D01*
X118123155Y-66579630D02*
X122567600Y-66579630D01*
X110623155Y-47875926D02*
X115067600Y-47875926D01*
X125623155Y-63616667D02*
X130067600Y-63616667D01*
X110623155Y-74079630D02*
X115067600Y-74079630D01*
X133123155Y-70375926D02*
X137567600Y-70375926D01*
X133123155Y-57598149D02*
X137567600Y-57598149D01*
X133123155Y-64357408D02*
X137567600Y-64357408D01*
D10*
X125623155Y-70375926D02*
X125623155Y-74820371D01*
D11*
X133123155Y-59820371D02*
X137567600Y-59820371D01*
X125623155Y-62875926D02*
X130067600Y-62875926D01*
X118123155Y-48616667D02*
X122567600Y-48616667D01*
X118123155Y-55375926D02*
X122567600Y-55375926D01*
X110623155Y-47875926D02*
X115067600Y-47875926D01*
X125623155Y-48616667D02*
X130067600Y-48616667D01*
X125623155Y-71857408D02*
X130067600Y-71857408D01*
X110623155Y-56116667D02*
X115067600Y-56116667D01*
X125623155Y-56857408D02*
X130067600Y-56857408D01*
X125623155Y-65838889D02*
X130067600Y-65838889D01*
X110623155Y-71116667D02*
X115067600Y-71116667D01*
X118123155Y-48616667D02*
X122567600Y-48616667D01*
D10*
X110623155Y-70375926D02*
X110623155Y-74820371D01*
D11*
X133123155Y-59820371D02*
X137567600Y-59820371D01*
X118123155Y-62875926D02*
X122567600Y-62875926D01*
X133123155Y-74079630D02*
X137567600Y-74079630D01*
X133123155Y-65098149D02*
X137567600Y-65098149D01*
X125623155Y-52320371D02*
X130067600Y-52320371D01*
X110623155Y-55375926D02*
X115067600Y-55375926D01*
X118123155Y-55375926D02*
X122567600Y-55375926D01*
X133123155Y-58338889D02*
X137567600Y-58338889D01*
X110623155Y-50098149D02*
X115067600Y-50098149D01*
X125623155Y-57598149D02*
X130067600Y-57598149D01*
X125623155Y-63616667D02*
X130067600Y-63616667D01*
X125623155Y-58338889D02*
X130067600Y-58338889D01*
X125623155Y-71116667D02*
X130067600Y-71116667D01*
X133123155Y-56857408D02*
X137567600Y-56857408D01*
X133123155Y-52320371D02*
X137567600Y-52320371D01*
X110623155Y-55375926D02*
X115067600Y-55375926D01*
X133123155Y-50098149D02*
X137567600Y-50098149D01*
X133123155Y-47875926D02*
X137567600Y-47875926D01*
X110623155Y-48616667D02*
X115067600Y-48616667D01*
X125623155Y-55375926D02*
X130067600Y-55375926D01*
X125623155Y-71116667D02*
X130067600Y-71116667D01*
X125623155Y-59820371D02*
X130067600Y-59820371D01*
X125623155Y-59820371D02*
X130067600Y-59820371D01*
D10*
X133123155Y-62875926D02*
X133123155Y-67320371D01*
D11*
X110623155Y-73338889D02*
X115067600Y-73338889D01*
X133123155Y-47875926D02*
X137567600Y-47875926D01*
D10*
X118123155Y-70375926D02*
X118123155Y-74820371D01*
D11*
X110623155Y-74820371D02*
X115067600Y-74820371D01*
D10*
X133123155Y-47875926D02*
X133123155Y-52320371D01*
D11*
X118123155Y-72598149D02*
X122567600Y-72598149D01*
X118123155Y-48616667D02*
X122567600Y-48616667D01*
X133123155Y-50098149D02*
X137567600Y-50098149D01*
X110623155Y-67320371D02*
X115067600Y-67320371D01*
X125623155Y-50838889D02*
X130067600Y-50838889D01*
X110623155Y-49357408D02*
X115067600Y-49357408D01*
X133123155Y-74079630D02*
X137567600Y-74079630D01*
D10*
X133123155Y-55375926D02*
X133123155Y-59820371D01*
D11*
X133123155Y-56116667D02*
X137567600Y-56116667D01*
X125623155Y-73338889D02*
X130067600Y-73338889D01*
X118123155Y-66579630D02*
X122567600Y-66579630D01*
X118123155Y-58338889D02*
X122567600Y-58338889D01*
X125623155Y-58338889D02*
X130067600Y-58338889D01*
D10*
X118123155Y-47875926D02*
X118123155Y-52320371D01*
D11*
X110623155Y-62875926D02*
X115067600Y-62875926D01*
D10*
X118123155Y-62875926D02*
X118123155Y-67320371D01*
D11*
X133123155Y-62875926D02*
X137567600Y-62875926D01*
X133123155Y-62875926D02*
X137567600Y-62875926D01*
X110623155Y-51579630D02*
X115067600Y-51579630D01*
X133123155Y-66579630D02*
X137567600Y-66579630D01*
X133123155Y-64357408D02*
X137567600Y-64357408D01*
X118123155Y-74820371D02*
X122567600Y-74820371D01*
X133123155Y-51579630D02*
X137567600Y-51579630D01*
X110623155Y-50838889D02*
X115067600Y-50838889D01*
X118123155Y-56116667D02*
X122567600Y-56116667D01*
D10*
X125623155Y-62875926D02*
X125623155Y-67320371D01*
D11*
X110623155Y-62875926D02*
X115067600Y-62875926D01*
X133123155Y-56857408D02*
X137567600Y-56857408D01*
X118123155Y-62875926D02*
X122567600Y-62875926D01*
X118123155Y-56857408D02*
X122567600Y-56857408D01*
X133123155Y-72598149D02*
X137567600Y-72598149D01*
X118123155Y-67320371D02*
X122567600Y-67320371D01*
X133123155Y-49357408D02*
X137567600Y-49357408D01*
X118123155Y-63616667D02*
X122567600Y-63616667D01*
X110623155Y-56116667D02*
X115067600Y-56116667D01*
X118123155Y-65098149D02*
X122567600Y-65098149D01*
X118123155Y-57598149D02*
X122567600Y-57598149D01*
D10*
X118123155Y-62875926D02*
X118123155Y-67320371D01*
D11*
X133123155Y-55375926D02*
X137567600Y-55375926D01*
X125623155Y-59079630D02*
X130067600Y-59079630D01*
X118123155Y-52320371D02*
X122567600Y-52320371D01*
X110623155Y-51579630D02*
X115067600Y-51579630D01*
X125623155Y-65838889D02*
X130067600Y-65838889D01*
X133123155Y-55375926D02*
X137567600Y-55375926D01*
X118123155Y-49357408D02*
X122567600Y-49357408D01*
X118123155Y-67320371D02*
X122567600Y-67320371D01*
X110623155Y-65838889D02*
X115067600Y-65838889D01*
D10*
X125623155Y-55375926D02*
X125623155Y-59820371D01*
X133123155Y-62875926D02*
X133123155Y-67320371D01*
D11*
X125623155Y-50838889D02*
X130067600Y-50838889D01*
X133123155Y-66579630D02*
X137567600Y-66579630D01*
X118123155Y-70375926D02*
X122567600Y-70375926D01*
D10*
X118123155Y-70375926D02*
X118123155Y-74820371D01*
D11*
X110623155Y-74820371D02*
X115067600Y-74820371D01*
X118123155Y-59820371D02*
X122567600Y-59820371D01*
X110623155Y-56116667D02*
X115067600Y-56116667D01*
X110623155Y-59079630D02*
X115067600Y-59079630D01*
X110623155Y-65838889D02*
X115067600Y-65838889D01*
X133123155Y-65838889D02*
X137567600Y-65838889D01*
X133123155Y-50838889D02*
X137567600Y-50838889D01*
X118123155Y-64357408D02*
X122567600Y-64357408D01*
X125623155Y-74079630D02*
X130067600Y-74079630D01*
X133123155Y-58338889D02*
X137567600Y-58338889D01*
X110623155Y-72598149D02*
X115067600Y-72598149D01*
X110623155Y-72598149D02*
X115067600Y-72598149D01*
X125623155Y-49357408D02*
X130067600Y-49357408D01*
D10*
X110623155Y-47875926D02*
X110623155Y-52320371D01*
D11*
X118123155Y-71857408D02*
X122567600Y-71857408D01*
X133123155Y-66579630D02*
X137567600Y-66579630D01*
X133123155Y-71857408D02*
X137567600Y-71857408D01*
X110623155Y-67320371D02*
X115067600Y-67320371D01*
X125623155Y-48616667D02*
X130067600Y-48616667D01*
X125623155Y-50838889D02*
X130067600Y-50838889D01*
X110623155Y-63616667D02*
X115067600Y-63616667D01*
X110623155Y-70375926D02*
X115067600Y-70375926D01*
X110623155Y-58338889D02*
X115067600Y-58338889D01*
X133123155Y-57598149D02*
X137567600Y-57598149D01*
X118123155Y-71857408D02*
X122567600Y-71857408D01*
X110623155Y-70375926D02*
X115067600Y-70375926D01*
X110623155Y-65098149D02*
X115067600Y-65098149D01*
X110623155Y-64357408D02*
X115067600Y-64357408D01*
X125623155Y-74079630D02*
X130067600Y-74079630D01*
X125623155Y-55375926D02*
X130067600Y-55375926D01*
X118123155Y-47875926D02*
X122567600Y-47875926D01*
X118123155Y-57598149D02*
X122567600Y-57598149D01*
X110623155Y-73338889D02*
X115067600Y-73338889D01*
X110623155Y-50838889D02*
X115067600Y-50838889D01*
X125623155Y-70375926D02*
X130067600Y-70375926D01*
D10*
X110623155Y-55375926D02*
X110623155Y-59820371D01*
D11*
X125623155Y-67320371D02*
X130067600Y-67320371D01*
X118123155Y-64357408D02*
X122567600Y-64357408D01*
X125623155Y-63616667D02*
X130067600Y-63616667D01*
X133123155Y-74079630D02*
X137567600Y-74079630D01*
X118123155Y-50098149D02*
X122567600Y-50098149D01*
X125623155Y-71857408D02*
X130067600Y-71857408D01*
X133123155Y-74820371D02*
X137567600Y-74820371D01*
X118123155Y-49357408D02*
X122567600Y-49357408D01*
X110623155Y-74079630D02*
X115067600Y-74079630D01*
X133123155Y-51579630D02*
X137567600Y-51579630D01*
D10*
X133123155Y-55375926D02*
X133123155Y-59820371D01*
X118123155Y-62875926D02*
X118123155Y-67320371D01*
D11*
X110623155Y-50098149D02*
X115067600Y-50098149D01*
X133123155Y-52320371D02*
X137567600Y-52320371D01*
X118123155Y-70375926D02*
X122567600Y-70375926D01*
X125623155Y-59079630D02*
X130067600Y-59079630D01*
X110623155Y-70375926D02*
X115067600Y-70375926D01*
X118123155Y-74820371D02*
X122567600Y-74820371D01*
X110623155Y-52320371D02*
X115067600Y-52320371D01*
X125623155Y-57598149D02*
X130067600Y-57598149D01*
D10*
X110623155Y-62875926D02*
X110623155Y-67320371D01*
D11*
X133123155Y-74820371D02*
X137567600Y-74820371D01*
D10*
X110623155Y-55375926D02*
X110623155Y-59820371D01*
D11*
X110623155Y-52320371D02*
X115067600Y-52320371D01*
X110623155Y-67320371D02*
X115067600Y-67320371D01*
X125623155Y-72598149D02*
X130067600Y-72598149D01*
X133123155Y-48616667D02*
X137567600Y-48616667D01*
X133123155Y-49357408D02*
X137567600Y-49357408D01*
X118123155Y-66579630D02*
X122567600Y-66579630D01*
X125623155Y-59820371D02*
X130067600Y-59820371D01*
X110623155Y-71857408D02*
X115067600Y-71857408D01*
X110623155Y-48616667D02*
X115067600Y-48616667D01*
X125623155Y-70375926D02*
X130067600Y-70375926D01*
X125623155Y-72598149D02*
X130067600Y-72598149D01*
X125623155Y-74820371D02*
X130067600Y-74820371D01*
X125623155Y-49357408D02*
X130067600Y-49357408D01*
X133123155Y-50838889D02*
X137567600Y-50838889D01*
X125623155Y-56116667D02*
X130067600Y-56116667D01*
X125623155Y-47875926D02*
X130067600Y-47875926D01*
X110623155Y-65098149D02*
X115067600Y-65098149D01*
X133123155Y-65098149D02*
X137567600Y-65098149D01*
X118123155Y-56857408D02*
X122567600Y-56857408D01*
X125623155Y-56116667D02*
X130067600Y-56116667D01*
X133123155Y-63616667D02*
X137567600Y-63616667D01*
X125623155Y-50098149D02*
X130067600Y-50098149D01*
X110623155Y-49357408D02*
X115067600Y-49357408D01*
X133123155Y-50098149D02*
X137567600Y-50098149D01*
X125623155Y-51579630D02*
X130067600Y-51579630D01*
X125623155Y-73338889D02*
X130067600Y-73338889D01*
X118123155Y-62875926D02*
X122567600Y-62875926D01*
D10*
X125623155Y-62875926D02*
X125623155Y-67320371D01*
X133123155Y-47875926D02*
X133123155Y-52320371D01*
X110623155Y-62875926D02*
X110623155Y-67320371D01*
D11*
X133123155Y-56857408D02*
X137567600Y-56857408D01*
D10*
X125623155Y-55375926D02*
X125623155Y-59820371D01*
D11*
X118123155Y-49357408D02*
X122567600Y-49357408D01*
D10*
X125623155Y-70375926D02*
X125623155Y-74820371D01*
D11*
X125623155Y-47875926D02*
X130067600Y-47875926D01*
X133123155Y-64357408D02*
X137567600Y-64357408D01*
X125623155Y-66579630D02*
X130067600Y-66579630D01*
X133123155Y-67320371D02*
X137567600Y-67320371D01*
X133123155Y-48616667D02*
X137567600Y-48616667D01*
X125623155Y-49357408D02*
X130067600Y-49357408D01*
X118123155Y-50838889D02*
X122567600Y-50838889D01*
X118123155Y-52320371D02*
X122567600Y-52320371D01*
D10*
X118123155Y-55375926D02*
X118123155Y-59820371D01*
D11*
X133123155Y-56116667D02*
X137567600Y-56116667D01*
X118123155Y-74079630D02*
X122567600Y-74079630D01*
X125623155Y-71857408D02*
X130067600Y-71857408D01*
X133123155Y-65838889D02*
X137567600Y-65838889D01*
X125623155Y-51579630D02*
X130067600Y-51579630D01*
X133123155Y-65098149D02*
X137567600Y-65098149D01*
X118123155Y-71857408D02*
X122567600Y-71857408D01*
X133123155Y-73338889D02*
X137567600Y-73338889D01*
X133123155Y-59079630D02*
X137567600Y-59079630D01*
X110623155Y-59079630D02*
X115067600Y-59079630D01*
X110623155Y-52320371D02*
X115067600Y-52320371D01*
X118123155Y-59079630D02*
X122567600Y-59079630D01*
X110623155Y-71857408D02*
X115067600Y-71857408D01*
X133123155Y-59079630D02*
X137567600Y-59079630D01*
X110623155Y-50838889D02*
X115067600Y-50838889D01*
X118123155Y-59820371D02*
X122567600Y-59820371D01*
X110623155Y-49357408D02*
X115067600Y-49357408D01*
X110623155Y-74079630D02*
X115067600Y-74079630D01*
X125623155Y-65098149D02*
X130067600Y-65098149D01*
X118123155Y-73338889D02*
X122567600Y-73338889D01*
X133123155Y-71857408D02*
X137567600Y-71857408D01*
X125623155Y-74820371D02*
X130067600Y-74820371D01*
D10*
X133123155Y-55375926D02*
X133123155Y-59820371D01*
D11*
X118123155Y-59079630D02*
X122567600Y-59079630D01*
D10*
X110623155Y-70375926D02*
X110623155Y-74820371D01*
X125623155Y-62875926D02*
X125623155Y-67320371D01*
D11*
X125623155Y-56857408D02*
X130067600Y-56857408D01*
X125623155Y-58338889D02*
X130067600Y-58338889D01*
D10*
X125623155Y-47875926D02*
X125623155Y-52320371D01*
D11*
X125623155Y-50098149D02*
X130067600Y-50098149D01*
X118123155Y-65098149D02*
X122567600Y-65098149D01*
X118123155Y-52320371D02*
X122567600Y-52320371D01*
X118123155Y-47875926D02*
X122567600Y-47875926D01*
X110623155Y-72598149D02*
X115067600Y-72598149D01*
X110623155Y-48616667D02*
X115067600Y-48616667D01*
X110623155Y-56857408D02*
X115067600Y-56857408D01*
X133123155Y-63616667D02*
X137567600Y-63616667D01*
X118123155Y-72598149D02*
X122567600Y-72598149D01*
X110623155Y-57598149D02*
X115067600Y-57598149D01*
X110623155Y-57598149D02*
X115067600Y-57598149D01*
D10*
X133123155Y-62875926D02*
X133123155Y-67320371D01*
D11*
X133123155Y-71857408D02*
X137567600Y-71857408D01*
D10*
X110623155Y-47875926D02*
X110623155Y-52320371D01*
X133123155Y-70375926D02*
X133123155Y-74820371D01*
D11*
X118123155Y-58338889D02*
X122567600Y-58338889D01*
X133123155Y-55375926D02*
X137567600Y-55375926D01*
X118123155Y-56116667D02*
X122567600Y-56116667D01*
D10*
X125623155Y-47875926D02*
X125623155Y-52320371D01*
D11*
X125623155Y-51579630D02*
X130067600Y-51579630D01*
X133123155Y-51579630D02*
X137567600Y-51579630D01*
X110623155Y-58338889D02*
X115067600Y-58338889D01*
X118123155Y-70375926D02*
X122567600Y-70375926D01*
X118123155Y-55375926D02*
X122567600Y-55375926D01*
X133123155Y-59079630D02*
X137567600Y-59079630D01*
X133123155Y-70375926D02*
X137567600Y-70375926D01*
X125623155Y-50098149D02*
X130067600Y-50098149D01*
X110623155Y-58338889D02*
X115067600Y-58338889D01*
X110623155Y-51579630D02*
X115067600Y-51579630D01*
X118123155Y-56116667D02*
X122567600Y-56116667D01*
D10*
X125623155Y-70375926D02*
X125623155Y-74820371D01*
D11*
X118123155Y-64357408D02*
X122567600Y-64357408D01*
X118123155Y-63616667D02*
X122567600Y-63616667D01*
X110623155Y-56857408D02*
X115067600Y-56857408D01*
X118123155Y-51579630D02*
X122567600Y-51579630D01*
X118123155Y-71116667D02*
X122567600Y-71116667D01*
X110623155Y-62875926D02*
X115067600Y-62875926D01*
X118123155Y-72598149D02*
X122567600Y-72598149D01*
X125623155Y-57598149D02*
X130067600Y-57598149D01*
X110623155Y-73338889D02*
X115067600Y-73338889D01*
X110623155Y-74820371D02*
X115067600Y-74820371D01*
X118123155Y-56857408D02*
X122567600Y-56857408D01*
X110623155Y-66579630D02*
X115067600Y-66579630D01*
X110623155Y-59820371D02*
X115067600Y-59820371D01*
X118123155Y-65838889D02*
X122567600Y-65838889D01*
X118123155Y-50838889D02*
X122567600Y-50838889D01*
X125623155Y-65838889D02*
X130067600Y-65838889D01*
D10*
X133123155Y-70375926D02*
X133123155Y-74820371D01*
%TD*%
M02*
