%TF.GenerationSoftware,KiCad,Pcbnew,8.0.8*%
%TF.CreationDate,2025-07-13T10:35:40+12:00*%
%TF.ProjectId,esf1,65736631-2e6b-4696-9361-645f70636258,rev?*%
%TF.SameCoordinates,Original*%
%TF.FileFunction,Copper,L2,Inr*%
%TF.FilePolarity,Positive*%
%FSLAX46Y46*%
G04 Gerber Fmt 4.6, Leading zero omitted, Abs format (unit mm)*
G04 Created by KiCad (PCBNEW 8.0.8) date 2025-07-13 10:35:40*
%MOMM*%
%LPD*%
G01*
G04 APERTURE LIST*
G04 APERTURE END LIST*
%TA.AperFunction,NonConductor*%
G36*
X9950639Y9987915D02*
G01*
X9996394Y9935111D01*
X10007600Y9883600D01*
X10007600Y-9883600D01*
X9987915Y-9950639D01*
X9935111Y-9996394D01*
X9883600Y-10007600D01*
X-9858200Y-10007600D01*
X-9925239Y-9987915D01*
X-9970994Y-9935111D01*
X-9982200Y-9883600D01*
X-9982200Y-7919595D01*
X-7687044Y-7919595D01*
X-6523040Y-9083600D01*
X-6019792Y-9083600D01*
X-4855788Y-7919596D01*
X-4855789Y-7919595D01*
X-3727246Y-7919595D01*
X-2563242Y-9083600D01*
X-2059994Y-9083600D01*
X-895990Y-7919596D01*
X-895991Y-7919595D01*
X232551Y-7919595D01*
X1396556Y-9083600D01*
X1899804Y-9083600D01*
X3063808Y-7919596D01*
X3063807Y-7919595D01*
X4192349Y-7919595D01*
X5356354Y-9083600D01*
X5859602Y-9083600D01*
X7023606Y-7919596D01*
X5607977Y-6503967D01*
X4192349Y-7919595D01*
X3063807Y-7919595D01*
X1648179Y-6503967D01*
X232551Y-7919595D01*
X-895991Y-7919595D01*
X-2311618Y-6503967D01*
X-3727246Y-7919595D01*
X-4855789Y-7919595D01*
X-6271416Y-6503967D01*
X-7687044Y-7919595D01*
X-9982200Y-7919595D01*
X-9982200Y-5330953D01*
X-9058200Y-5330953D01*
X-9058200Y-6548440D01*
X-8251315Y-7355325D01*
X-6835687Y-5939697D01*
X-5707145Y-5939697D01*
X-4291517Y-7355325D01*
X-2875889Y-5939697D01*
X-1747347Y-5939697D01*
X-331719Y-7355325D01*
X1083909Y-5939697D01*
X2212450Y-5939697D01*
X3628078Y-7355325D01*
X5043707Y-5939697D01*
X6172248Y-5939697D01*
X7587876Y-7355325D01*
X9003505Y-5939697D01*
X7587876Y-4524068D01*
X6172248Y-5939697D01*
X5043707Y-5939697D01*
X3628078Y-4524068D01*
X2212450Y-5939697D01*
X1083909Y-5939697D01*
X-331719Y-4524068D01*
X-1747347Y-5939697D01*
X-2875889Y-5939697D01*
X-4291517Y-4524068D01*
X-5707145Y-5939697D01*
X-6835687Y-5939697D01*
X-8251315Y-4524068D01*
X-9058200Y-5330953D01*
X-9982200Y-5330953D01*
X-9982200Y-3959798D01*
X-7687044Y-3959798D01*
X-6271416Y-5375426D01*
X-4855788Y-3959798D01*
X-3727246Y-3959798D01*
X-2311618Y-5375426D01*
X-895990Y-3959798D01*
X232551Y-3959798D01*
X1648179Y-5375426D01*
X3063808Y-3959798D01*
X4192349Y-3959798D01*
X5607977Y-5375426D01*
X7023606Y-3959798D01*
X5607977Y-2544169D01*
X4192349Y-3959798D01*
X3063808Y-3959798D01*
X1648179Y-2544169D01*
X232551Y-3959798D01*
X-895990Y-3959798D01*
X-2311618Y-2544169D01*
X-3727246Y-3959798D01*
X-4855788Y-3959798D01*
X-6271416Y-2544169D01*
X-7687044Y-3959798D01*
X-9982200Y-3959798D01*
X-9982200Y-1371155D01*
X-9058200Y-1371155D01*
X-9058200Y-2588642D01*
X-8251315Y-3395527D01*
X-6835687Y-1979899D01*
X-5707145Y-1979899D01*
X-4291517Y-3395527D01*
X-2875889Y-1979899D01*
X-1747347Y-1979899D01*
X-331719Y-3395527D01*
X1083909Y-1979899D01*
X2212450Y-1979899D01*
X3628078Y-3395527D01*
X5043707Y-1979899D01*
X6172248Y-1979899D01*
X7587876Y-3395527D01*
X9003505Y-1979899D01*
X7587876Y-564270D01*
X6172248Y-1979899D01*
X5043707Y-1979899D01*
X3628078Y-564270D01*
X2212450Y-1979899D01*
X1083909Y-1979899D01*
X-331719Y-564270D01*
X-1747347Y-1979899D01*
X-2875889Y-1979899D01*
X-4291517Y-564270D01*
X-5707145Y-1979899D01*
X-6835687Y-1979899D01*
X-8251315Y-564270D01*
X-9058200Y-1371155D01*
X-9982200Y-1371155D01*
X-9982200Y0D01*
X-7687044Y0D01*
X-6271416Y-1415628D01*
X-4855788Y0D01*
X-3727246Y0D01*
X-2311618Y-1415628D01*
X-895990Y0D01*
X232551Y0D01*
X1648179Y-1415628D01*
X3063808Y0D01*
X4192349Y0D01*
X5607977Y-1415628D01*
X7023606Y0D01*
X5607977Y1415628D01*
X4192349Y0D01*
X3063808Y0D01*
X1648179Y1415628D01*
X232551Y0D01*
X-895990Y0D01*
X-2311618Y1415628D01*
X-3727246Y0D01*
X-4855788Y0D01*
X-6271416Y1415628D01*
X-7687044Y0D01*
X-9982200Y0D01*
X-9982200Y2588642D01*
X-9058200Y2588642D01*
X-9058200Y1371155D01*
X-8251315Y564270D01*
X-6835687Y1979899D01*
X-5707145Y1979899D01*
X-4291517Y564270D01*
X-2875889Y1979899D01*
X-1747347Y1979899D01*
X-331719Y564270D01*
X1083909Y1979899D01*
X2212450Y1979899D01*
X3628078Y564270D01*
X5043707Y1979899D01*
X6172248Y1979899D01*
X7587876Y564270D01*
X9003505Y1979899D01*
X7587876Y3395527D01*
X6172248Y1979899D01*
X5043707Y1979899D01*
X3628078Y3395527D01*
X2212450Y1979899D01*
X1083909Y1979899D01*
X-331719Y3395527D01*
X-1747347Y1979899D01*
X-2875889Y1979899D01*
X-4291517Y3395527D01*
X-5707145Y1979899D01*
X-6835687Y1979899D01*
X-8251315Y3395527D01*
X-9058200Y2588642D01*
X-9982200Y2588642D01*
X-9982200Y3959798D01*
X-7687044Y3959798D01*
X-6271416Y2544169D01*
X-4855788Y3959798D01*
X-3727246Y3959798D01*
X-2311618Y2544169D01*
X-895990Y3959798D01*
X232551Y3959798D01*
X1648179Y2544169D01*
X3063808Y3959798D01*
X4192349Y3959798D01*
X5607977Y2544169D01*
X7023606Y3959798D01*
X5607977Y5375426D01*
X4192349Y3959798D01*
X3063808Y3959798D01*
X1648179Y5375426D01*
X232551Y3959798D01*
X-895990Y3959798D01*
X-2311618Y5375426D01*
X-3727246Y3959798D01*
X-4855788Y3959798D01*
X-6271416Y5375426D01*
X-7687044Y3959798D01*
X-9982200Y3959798D01*
X-9982200Y6548440D01*
X-9058200Y6548440D01*
X-9058200Y5330953D01*
X-8251315Y4524068D01*
X-6835687Y5939697D01*
X-5707145Y5939697D01*
X-4291517Y4524068D01*
X-2875889Y5939697D01*
X-1747347Y5939697D01*
X-331719Y4524068D01*
X1083909Y5939697D01*
X2212450Y5939697D01*
X3628078Y4524068D01*
X5043707Y5939697D01*
X6172248Y5939697D01*
X7587876Y4524068D01*
X9003505Y5939697D01*
X7587876Y7355325D01*
X6172248Y5939697D01*
X5043707Y5939697D01*
X3628078Y7355325D01*
X2212450Y5939697D01*
X1083909Y5939697D01*
X-331719Y7355325D01*
X-1747347Y5939697D01*
X-2875889Y5939697D01*
X-4291517Y7355325D01*
X-5707145Y5939697D01*
X-6835687Y5939697D01*
X-8251315Y7355325D01*
X-9058200Y6548440D01*
X-9982200Y6548440D01*
X-9982200Y7919596D01*
X-7687045Y7919596D01*
X-6271416Y6503967D01*
X-4855788Y7919596D01*
X-3727247Y7919596D01*
X-2311618Y6503967D01*
X-895990Y7919596D01*
X232551Y7919596D01*
X1648179Y6503967D01*
X3063808Y7919596D01*
X4192349Y7919596D01*
X5607977Y6503967D01*
X7023606Y7919596D01*
X5859602Y9083600D01*
X5356354Y9083600D01*
X4192349Y7919596D01*
X3063808Y7919596D01*
X1899804Y9083600D01*
X1396556Y9083600D01*
X232551Y7919596D01*
X-895990Y7919596D01*
X-2059994Y9083600D01*
X-2563242Y9083600D01*
X-3727247Y7919596D01*
X-4855788Y7919596D01*
X-6019792Y9083600D01*
X-6523040Y9083600D01*
X-7687045Y7919596D01*
X-9982200Y7919596D01*
X-9982200Y9883600D01*
X-9962515Y9950639D01*
X-9909711Y9996394D01*
X-9858200Y10007600D01*
X9883600Y10007600D01*
X9950639Y9987915D01*
G37*
%TD.AperFunction*%
M02*
