%TF.GenerationSoftware,KiCad,Pcbnew,9.0.4*%
%TF.CreationDate,2025-09-23T10:18:57+12:00*%
%TF.ProjectId,esfgrid_ckt_IA,65736667-7269-4645-9f63-6b745f49412e,rev?*%
%TF.SameCoordinates,Original*%
%TF.FileFunction,Soldermask,Bot*%
%TF.FilePolarity,Negative*%
%FSLAX46Y46*%
G04 Gerber Fmt 4.6, Leading zero omitted, Abs format (unit mm)*
G04 Created by KiCad (PCBNEW 9.0.4) date 2025-09-23 10:18:57*
%MOMM*%
%LPD*%
G01*
G04 APERTURE LIST*
%ADD10R,1.350000X1.350000*%
%ADD11C,1.350000*%
%ADD12R,1.500000X1.050000*%
%ADD13O,1.500000X1.050000*%
%ADD14C,3.200000*%
%ADD15R,3.000000X3.000000*%
%ADD16C,3.000000*%
%ADD17O,1.350000X1.350000*%
%ADD18R,1.500000X1.000000*%
G04 APERTURE END LIST*
%TO.C,JP26*%
G36*
X206570000Y-95395000D02*
G01*
X208070000Y-95395000D01*
X208070000Y-95695000D01*
X206570000Y-95695000D01*
X206570000Y-95395000D01*
G37*
%TO.C,JP10*%
G36*
X236610000Y-65530000D02*
G01*
X238110000Y-65530000D01*
X238110000Y-65830000D01*
X236610000Y-65830000D01*
X236610000Y-65530000D01*
G37*
%TO.C,JP21*%
G36*
X176620000Y-87130000D02*
G01*
X178120000Y-87130000D01*
X178120000Y-87430000D01*
X176620000Y-87430000D01*
X176620000Y-87130000D01*
G37*
%TO.C,JP36*%
G36*
X206570000Y-110680000D02*
G01*
X208070000Y-110680000D01*
X208070000Y-110980000D01*
X206570000Y-110980000D01*
X206570000Y-110680000D01*
G37*
%TO.C,JP7*%
G36*
X221557600Y-57492500D02*
G01*
X223057600Y-57492500D01*
X223057600Y-57792500D01*
X221557600Y-57792500D01*
X221557600Y-57492500D01*
G37*
%TO.C,JP23*%
G36*
X191570000Y-87790000D02*
G01*
X193070000Y-87790000D01*
X193070000Y-88090000D01*
X191570000Y-88090000D01*
X191570000Y-87790000D01*
G37*
%TO.C,JP31*%
G36*
X176610000Y-102500000D02*
G01*
X178110000Y-102500000D01*
X178110000Y-102800000D01*
X176610000Y-102800000D01*
X176610000Y-102500000D01*
G37*
%TO.C,JP18*%
G36*
X221580000Y-80780000D02*
G01*
X223080000Y-80780000D01*
X223080000Y-81080000D01*
X221580000Y-81080000D01*
X221580000Y-80780000D01*
G37*
%TO.C,JP50*%
G36*
X236590000Y-125480000D02*
G01*
X238090000Y-125480000D01*
X238090000Y-125780000D01*
X236590000Y-125780000D01*
X236590000Y-125480000D01*
G37*
%TO.C,JP8*%
G36*
X221557600Y-65482500D02*
G01*
X223057600Y-65482500D01*
X223057600Y-65782500D01*
X221557600Y-65782500D01*
X221557600Y-65482500D01*
G37*
%TO.C,JP17*%
G36*
X221580000Y-72790000D02*
G01*
X223080000Y-72790000D01*
X223080000Y-73090000D01*
X221580000Y-73090000D01*
X221580000Y-72790000D01*
G37*
%TO.C,JP41*%
G36*
X176557600Y-117760000D02*
G01*
X178057600Y-117760000D01*
X178057600Y-118060000D01*
X176557600Y-118060000D01*
X176557600Y-117760000D01*
G37*
%TO.C,JP4*%
G36*
X191597600Y-65487500D02*
G01*
X193097600Y-65487500D01*
X193097600Y-65787500D01*
X191597600Y-65787500D01*
X191597600Y-65487500D01*
G37*
%TO.C,JP29*%
G36*
X236600000Y-87810000D02*
G01*
X238100000Y-87810000D01*
X238100000Y-88110000D01*
X236600000Y-88110000D01*
X236600000Y-87810000D01*
G37*
%TO.C,JP33*%
G36*
X191607500Y-102442500D02*
G01*
X193107500Y-102442500D01*
X193107500Y-102742500D01*
X191607500Y-102742500D01*
X191607500Y-102442500D01*
G37*
%TO.C,JP34*%
G36*
X191607500Y-110432500D02*
G01*
X193107500Y-110432500D01*
X193107500Y-110732500D01*
X191607500Y-110732500D01*
X191607500Y-110432500D01*
G37*
%TO.C,JP5*%
G36*
X206585000Y-57490000D02*
G01*
X208085000Y-57490000D01*
X208085000Y-57790000D01*
X206585000Y-57790000D01*
X206585000Y-57490000D01*
G37*
%TO.C,JP16*%
G36*
X206550000Y-80440000D02*
G01*
X208050000Y-80440000D01*
X208050000Y-80740000D01*
X206550000Y-80740000D01*
X206550000Y-80440000D01*
G37*
%TO.C,JP47*%
G36*
X221580000Y-117560000D02*
G01*
X223080000Y-117560000D01*
X223080000Y-117860000D01*
X221580000Y-117860000D01*
X221580000Y-117560000D01*
G37*
%TO.C,JP40*%
G36*
X236580000Y-110460000D02*
G01*
X238080000Y-110460000D01*
X238080000Y-110760000D01*
X236580000Y-110760000D01*
X236580000Y-110460000D01*
G37*
%TO.C,JP44*%
G36*
X191550000Y-125320000D02*
G01*
X193050000Y-125320000D01*
X193050000Y-125620000D01*
X191550000Y-125620000D01*
X191550000Y-125320000D01*
G37*
%TO.C,JP32*%
G36*
X176610000Y-110490000D02*
G01*
X178110000Y-110490000D01*
X178110000Y-110790000D01*
X176610000Y-110790000D01*
X176610000Y-110490000D01*
G37*
%TO.C,JP24*%
G36*
X191570000Y-95780000D02*
G01*
X193070000Y-95780000D01*
X193070000Y-96080000D01*
X191570000Y-96080000D01*
X191570000Y-95780000D01*
G37*
%TO.C,JP46*%
G36*
X206562500Y-125440000D02*
G01*
X208062500Y-125440000D01*
X208062500Y-125740000D01*
X206562500Y-125740000D01*
X206562500Y-125440000D01*
G37*
%TO.C,JP15*%
G36*
X206550000Y-72450000D02*
G01*
X208050000Y-72450000D01*
X208050000Y-72750000D01*
X206550000Y-72750000D01*
X206550000Y-72450000D01*
G37*
%TO.C,JP38*%
G36*
X221570000Y-110710000D02*
G01*
X223070000Y-110710000D01*
X223070000Y-111010000D01*
X221570000Y-111010000D01*
X221570000Y-110710000D01*
G37*
%TO.C,JP43*%
G36*
X191550000Y-117330000D02*
G01*
X193050000Y-117330000D01*
X193050000Y-117630000D01*
X191550000Y-117630000D01*
X191550000Y-117330000D01*
G37*
%TO.C,JP39*%
G36*
X236580000Y-102470000D02*
G01*
X238080000Y-102470000D01*
X238080000Y-102770000D01*
X236580000Y-102770000D01*
X236580000Y-102470000D01*
G37*
%TO.C,JP35*%
G36*
X206570000Y-102690000D02*
G01*
X208070000Y-102690000D01*
X208070000Y-102990000D01*
X206570000Y-102990000D01*
X206570000Y-102690000D01*
G37*
%TO.C,JP30*%
G36*
X236600000Y-95800000D02*
G01*
X238100000Y-95800000D01*
X238100000Y-96100000D01*
X236600000Y-96100000D01*
X236600000Y-95800000D01*
G37*
%TO.C,JP27*%
G36*
X221565000Y-87590000D02*
G01*
X223065000Y-87590000D01*
X223065000Y-87890000D01*
X221565000Y-87890000D01*
X221565000Y-87590000D01*
G37*
%TO.C,JP6*%
G36*
X206585000Y-65480000D02*
G01*
X208085000Y-65480000D01*
X208085000Y-65780000D01*
X206585000Y-65780000D01*
X206585000Y-65480000D01*
G37*
%TO.C,JP19*%
G36*
X236580000Y-72675000D02*
G01*
X238080000Y-72675000D01*
X238080000Y-72975000D01*
X236580000Y-72975000D01*
X236580000Y-72675000D01*
G37*
%TO.C,JP22*%
G36*
X176620000Y-95120000D02*
G01*
X178120000Y-95120000D01*
X178120000Y-95420000D01*
X176620000Y-95420000D01*
X176620000Y-95120000D01*
G37*
%TO.C,JP11*%
G36*
X176630000Y-72570000D02*
G01*
X178130000Y-72570000D01*
X178130000Y-72870000D01*
X176630000Y-72870000D01*
X176630000Y-72570000D01*
G37*
%TO.C,JP42*%
G36*
X176557600Y-125750000D02*
G01*
X178057600Y-125750000D01*
X178057600Y-126050000D01*
X176557600Y-126050000D01*
X176557600Y-125750000D01*
G37*
%TO.C,JP45*%
G36*
X206562500Y-117450000D02*
G01*
X208062500Y-117450000D01*
X208062500Y-117750000D01*
X206562500Y-117750000D01*
X206562500Y-117450000D01*
G37*
%TO.C,JP14*%
G36*
X191600000Y-80620000D02*
G01*
X193100000Y-80620000D01*
X193100000Y-80920000D01*
X191600000Y-80920000D01*
X191600000Y-80620000D01*
G37*
%TO.C,JP13*%
G36*
X191600000Y-72630000D02*
G01*
X193100000Y-72630000D01*
X193100000Y-72930000D01*
X191600000Y-72930000D01*
X191600000Y-72630000D01*
G37*
%TO.C,JP37*%
G36*
X221570000Y-102720000D02*
G01*
X223070000Y-102720000D01*
X223070000Y-103020000D01*
X221570000Y-103020000D01*
X221570000Y-102720000D01*
G37*
%TO.C,JP48*%
G36*
X221580000Y-125550000D02*
G01*
X223080000Y-125550000D01*
X223080000Y-125850000D01*
X221580000Y-125850000D01*
X221580000Y-125550000D01*
G37*
%TO.C,JP3*%
G36*
X191597600Y-57497500D02*
G01*
X193097600Y-57497500D01*
X193097600Y-57797500D01*
X191597600Y-57797500D01*
X191597600Y-57497500D01*
G37*
%TO.C,JP9*%
G36*
X236610000Y-57540000D02*
G01*
X238110000Y-57540000D01*
X238110000Y-57840000D01*
X236610000Y-57840000D01*
X236610000Y-57540000D01*
G37*
%TO.C,JP25*%
G36*
X206570000Y-87405000D02*
G01*
X208070000Y-87405000D01*
X208070000Y-87705000D01*
X206570000Y-87705000D01*
X206570000Y-87405000D01*
G37*
%TO.C,JP20*%
G36*
X236580000Y-80665000D02*
G01*
X238080000Y-80665000D01*
X238080000Y-80965000D01*
X236580000Y-80965000D01*
X236580000Y-80665000D01*
G37*
%TO.C,JP28*%
G36*
X221565000Y-95580000D02*
G01*
X223065000Y-95580000D01*
X223065000Y-95880000D01*
X221565000Y-95880000D01*
X221565000Y-95580000D01*
G37*
%TO.C,JP49*%
G36*
X236590000Y-117490000D02*
G01*
X238090000Y-117490000D01*
X238090000Y-117790000D01*
X236590000Y-117790000D01*
X236590000Y-117490000D01*
G37*
%TO.C,JP12*%
G36*
X176630000Y-80560000D02*
G01*
X178130000Y-80560000D01*
X178130000Y-80860000D01*
X176630000Y-80860000D01*
X176630000Y-80560000D01*
G37*
%TD*%
D10*
%TO.C,J18*%
X184500000Y-114000000D03*
D11*
X182500000Y-114000000D03*
%TD*%
D10*
%TO.C,J6*%
X229500000Y-69000000D03*
D11*
X227500000Y-69000000D03*
%TD*%
D10*
%TO.C,J27*%
X244500000Y-129000000D03*
D11*
X242500000Y-129000000D03*
%TD*%
D10*
%TO.C,J13*%
X184500000Y-99000000D03*
D11*
X182500000Y-99000000D03*
%TD*%
D12*
%TO.C,U1*%
X201825000Y-137395000D03*
D13*
X201825000Y-138665000D03*
X201825000Y-139935000D03*
%TD*%
D14*
%TO.C,REF\u002A\u002A*%
X166057960Y-136869986D03*
%TD*%
D10*
%TO.C,J25*%
X214500000Y-129000000D03*
D11*
X212500000Y-129000000D03*
%TD*%
D10*
%TO.C,J19*%
X199500000Y-114000000D03*
D11*
X197500000Y-114000000D03*
%TD*%
D10*
%TO.C,J16*%
X229500000Y-99000000D03*
D11*
X227500000Y-99000000D03*
%TD*%
D10*
%TO.C,J8*%
X184500000Y-84000000D03*
D11*
X182500000Y-84000000D03*
%TD*%
D15*
%TO.C,J2*%
X218965000Y-146405000D03*
D16*
X213885000Y-146405000D03*
%TD*%
D10*
%TO.C,J14*%
X199500000Y-99000000D03*
D11*
X197500000Y-99000000D03*
%TD*%
D10*
%TO.C,J17*%
X244500000Y-99000000D03*
D11*
X242500000Y-99000000D03*
%TD*%
D10*
%TO.C,J20*%
X214500000Y-114000000D03*
D11*
X212500000Y-114000000D03*
%TD*%
D12*
%TO.C,U2*%
X215895000Y-139645000D03*
D13*
X215895000Y-138375000D03*
X215895000Y-137105000D03*
%TD*%
D15*
%TO.C,J1*%
X207455000Y-146415000D03*
D16*
X202375000Y-146415000D03*
%TD*%
D10*
%TO.C,J11*%
X229500000Y-84000000D03*
D11*
X227500000Y-84000000D03*
%TD*%
D10*
%TO.C,J4*%
X199500000Y-69000000D03*
D11*
X197500000Y-69000000D03*
%TD*%
D10*
%TO.C,J9*%
X199500000Y-84000000D03*
D11*
X197500000Y-84000000D03*
%TD*%
D14*
%TO.C,REF\u002A\u002A*%
X256057960Y-46869986D03*
%TD*%
D10*
%TO.C,J3*%
X184500000Y-69000000D03*
D17*
X182500000Y-69000000D03*
%TD*%
D10*
%TO.C,J21*%
X229500000Y-114000000D03*
D11*
X227500000Y-114000000D03*
%TD*%
D10*
%TO.C,J7*%
X244500000Y-69000000D03*
D11*
X242500000Y-69000000D03*
%TD*%
D10*
%TO.C,J5*%
X214500000Y-69000000D03*
D11*
X212500000Y-69000000D03*
%TD*%
D10*
%TO.C,J15*%
X214500000Y-99000000D03*
D11*
X212500000Y-99000000D03*
%TD*%
D10*
%TO.C,J10*%
X214500000Y-84000000D03*
D11*
X212500000Y-84000000D03*
%TD*%
D10*
%TO.C,J24*%
X199600000Y-129000000D03*
D11*
X197600000Y-129000000D03*
%TD*%
D10*
%TO.C,J26*%
X229500000Y-129000000D03*
D11*
X227500000Y-129000000D03*
%TD*%
D10*
%TO.C,J22*%
X244500000Y-114000000D03*
D11*
X242500000Y-114000000D03*
%TD*%
D10*
%TO.C,J23*%
X184500000Y-129000000D03*
D11*
X182500000Y-129000000D03*
%TD*%
D14*
%TO.C,REF\u002A\u002A*%
X256057960Y-136869986D03*
%TD*%
%TO.C,REF\u002A\u002A*%
X166750000Y-46869986D03*
%TD*%
D10*
%TO.C,J12*%
X244500000Y-84000000D03*
D11*
X242500000Y-84000000D03*
%TD*%
D18*
%TO.C,JP26*%
X207320000Y-94895000D03*
X207320000Y-96195000D03*
%TD*%
%TO.C,JP10*%
X237360000Y-65030000D03*
X237360000Y-66330000D03*
%TD*%
%TO.C,JP21*%
X177370000Y-86630000D03*
X177370000Y-87930000D03*
%TD*%
%TO.C,JP36*%
X207320000Y-110180000D03*
X207320000Y-111480000D03*
%TD*%
%TO.C,JP7*%
X222307600Y-56992500D03*
X222307600Y-58292500D03*
%TD*%
%TO.C,JP23*%
X192320000Y-87290000D03*
X192320000Y-88590000D03*
%TD*%
%TO.C,JP31*%
X177360000Y-102000000D03*
X177360000Y-103300000D03*
%TD*%
%TO.C,JP18*%
X222330000Y-80280000D03*
X222330000Y-81580000D03*
%TD*%
%TO.C,JP1*%
X177357600Y-57010000D03*
X177357600Y-58310000D03*
%TD*%
%TO.C,JP50*%
X237340000Y-124980000D03*
X237340000Y-126280000D03*
%TD*%
%TO.C,JP8*%
X222307600Y-64982500D03*
X222307600Y-66282500D03*
%TD*%
%TO.C,JP17*%
X222330000Y-72290000D03*
X222330000Y-73590000D03*
%TD*%
%TO.C,JP41*%
X177307600Y-117260000D03*
X177307600Y-118560000D03*
%TD*%
%TO.C,JP4*%
X192347600Y-64987500D03*
X192347600Y-66287500D03*
%TD*%
%TO.C,JP29*%
X237350000Y-87310000D03*
X237350000Y-88610000D03*
%TD*%
%TO.C,JP33*%
X192357500Y-101942500D03*
X192357500Y-103242500D03*
%TD*%
%TO.C,JP34*%
X192357500Y-109932500D03*
X192357500Y-111232500D03*
%TD*%
%TO.C,JP5*%
X207335000Y-56990000D03*
X207335000Y-58290000D03*
%TD*%
%TO.C,JP16*%
X207300000Y-79940000D03*
X207300000Y-81240000D03*
%TD*%
%TO.C,JP47*%
X222330000Y-117060000D03*
X222330000Y-118360000D03*
%TD*%
%TO.C,JP40*%
X237330000Y-109960000D03*
X237330000Y-111260000D03*
%TD*%
%TO.C,JP2*%
X177357600Y-65000000D03*
X177357600Y-66300000D03*
%TD*%
%TO.C,JP44*%
X192300000Y-124820000D03*
X192300000Y-126120000D03*
%TD*%
%TO.C,JP32*%
X177360000Y-109990000D03*
X177360000Y-111290000D03*
%TD*%
%TO.C,JP24*%
X192320000Y-95280000D03*
X192320000Y-96580000D03*
%TD*%
%TO.C,JP46*%
X207312500Y-124940000D03*
X207312500Y-126240000D03*
%TD*%
%TO.C,JP15*%
X207300000Y-71950000D03*
X207300000Y-73250000D03*
%TD*%
%TO.C,JP38*%
X222320000Y-110210000D03*
X222320000Y-111510000D03*
%TD*%
%TO.C,JP43*%
X192300000Y-116830000D03*
X192300000Y-118130000D03*
%TD*%
%TO.C,JP39*%
X237330000Y-101970000D03*
X237330000Y-103270000D03*
%TD*%
%TO.C,JP35*%
X207320000Y-102190000D03*
X207320000Y-103490000D03*
%TD*%
%TO.C,JP30*%
X237350000Y-95300000D03*
X237350000Y-96600000D03*
%TD*%
%TO.C,JP27*%
X222315000Y-87090000D03*
X222315000Y-88390000D03*
%TD*%
%TO.C,JP6*%
X207335000Y-64980000D03*
X207335000Y-66280000D03*
%TD*%
%TO.C,JP19*%
X237330000Y-72175000D03*
X237330000Y-73475000D03*
%TD*%
%TO.C,JP22*%
X177370000Y-94620000D03*
X177370000Y-95920000D03*
%TD*%
%TO.C,JP11*%
X177380000Y-72070000D03*
X177380000Y-73370000D03*
%TD*%
%TO.C,JP42*%
X177307600Y-125250000D03*
X177307600Y-126550000D03*
%TD*%
%TO.C,JP45*%
X207312500Y-116950000D03*
X207312500Y-118250000D03*
%TD*%
%TO.C,JP14*%
X192350000Y-80120000D03*
X192350000Y-81420000D03*
%TD*%
%TO.C,JP13*%
X192350000Y-72130000D03*
X192350000Y-73430000D03*
%TD*%
%TO.C,JP37*%
X222320000Y-102220000D03*
X222320000Y-103520000D03*
%TD*%
%TO.C,JP48*%
X222330000Y-125050000D03*
X222330000Y-126350000D03*
%TD*%
%TO.C,JP3*%
X192347600Y-56997500D03*
X192347600Y-58297500D03*
%TD*%
%TO.C,JP9*%
X237360000Y-57040000D03*
X237360000Y-58340000D03*
%TD*%
%TO.C,JP25*%
X207320000Y-86905000D03*
X207320000Y-88205000D03*
%TD*%
%TO.C,JP20*%
X237330000Y-80165000D03*
X237330000Y-81465000D03*
%TD*%
%TO.C,JP28*%
X222315000Y-95080000D03*
X222315000Y-96380000D03*
%TD*%
%TO.C,JP49*%
X237340000Y-116990000D03*
X237340000Y-118290000D03*
%TD*%
%TO.C,JP12*%
X177380000Y-80060000D03*
X177380000Y-81360000D03*
%TD*%
G36*
X205600649Y-56789685D02*
G01*
X205646404Y-56842489D01*
X205657610Y-56893991D01*
X205662992Y-127145991D01*
X205643313Y-127213031D01*
X205590512Y-127258790D01*
X205538992Y-127270000D01*
X204001600Y-127270000D01*
X203934561Y-127250315D01*
X203888806Y-127197511D01*
X203877600Y-127146000D01*
X203877600Y-56894000D01*
X203897285Y-56826961D01*
X203950089Y-56781206D01*
X204001600Y-56770000D01*
X205533610Y-56770000D01*
X205600649Y-56789685D01*
G37*
G36*
X175581009Y-56689671D02*
G01*
X175626764Y-56742475D01*
X175637970Y-56793977D01*
X175643352Y-127045977D01*
X175623673Y-127113017D01*
X175570872Y-127158776D01*
X175519352Y-127169986D01*
X173981960Y-127169986D01*
X173914921Y-127150301D01*
X173869166Y-127097497D01*
X173857960Y-127045986D01*
X173857960Y-56793986D01*
X173877645Y-56726947D01*
X173930449Y-56681192D01*
X173981960Y-56669986D01*
X175513970Y-56669986D01*
X175581009Y-56689671D01*
G37*
G36*
X220600649Y-56789685D02*
G01*
X220646404Y-56842489D01*
X220657610Y-56893991D01*
X220662992Y-127145991D01*
X220643313Y-127213031D01*
X220590512Y-127258790D01*
X220538992Y-127270000D01*
X219001600Y-127270000D01*
X218934561Y-127250315D01*
X218888806Y-127197511D01*
X218877600Y-127146000D01*
X218877600Y-56894000D01*
X218897285Y-56826961D01*
X218950089Y-56781206D01*
X219001600Y-56770000D01*
X220533610Y-56770000D01*
X220600649Y-56789685D01*
G37*
G36*
X190600649Y-56789685D02*
G01*
X190646404Y-56842489D01*
X190657610Y-56893991D01*
X190662992Y-127145991D01*
X190643313Y-127213031D01*
X190590512Y-127258790D01*
X190538992Y-127270000D01*
X189001600Y-127270000D01*
X188934561Y-127250315D01*
X188888806Y-127197511D01*
X188877600Y-127146000D01*
X188877600Y-56894000D01*
X188897285Y-56826961D01*
X188950089Y-56781206D01*
X189001600Y-56770000D01*
X190533610Y-56770000D01*
X190600649Y-56789685D01*
G37*
G36*
X235600649Y-56789685D02*
G01*
X235646404Y-56842489D01*
X235657610Y-56893991D01*
X235662992Y-127145991D01*
X235643313Y-127213031D01*
X235590512Y-127258790D01*
X235538992Y-127270000D01*
X234001600Y-127270000D01*
X233934561Y-127250315D01*
X233888806Y-127197511D01*
X233877600Y-127146000D01*
X233877600Y-56894000D01*
X233897285Y-56826961D01*
X233950089Y-56781206D01*
X234001600Y-56770000D01*
X235533610Y-56770000D01*
X235600649Y-56789685D01*
G37*
M02*
