M48
; DRILL file {KiCad 9.0.4} date 2025-09-23T10:18:52+1200
; FORMAT={-:-/ absolute / metric / decimal}
; #@! TF.CreationDate,2025-09-23T10:18:52+12:00
; #@! TF.GenerationSoftware,Kicad,Pcbnew,9.0.4
; #@! TF.FileFunction,Plated,1,2,PTH
FMAT,2
METRIC
; #@! TA.AperFunction,Plated,PTH,ViaDrill
T1C0.300
; #@! TA.AperFunction,Plated,PTH,ViaDrill
T2C0.700
; #@! TA.AperFunction,Plated,PTH,ComponentDrill
T3C0.750
; #@! TA.AperFunction,Plated,PTH,ViaDrill
T4C0.800
; #@! TA.AperFunction,Plated,PTH,ComponentDrill
T5C0.800
; #@! TA.AperFunction,Plated,PTH,ComponentDrill
T6C1.520
%
G90
G05
T1
X177.188Y-119.88
X177.19Y-123.91
X177.238Y-59.63
X177.24Y-104.62
X177.24Y-63.66
X177.242Y-108.65
X177.25Y-89.25
X177.252Y-93.28
X177.26Y-74.69
X177.262Y-78.72
X178.778Y-126.56
X178.828Y-66.31
X178.83Y-111.3
X178.84Y-95.93
X178.85Y-81.37
X179.038Y-116.75
X179.088Y-56.5
X179.09Y-101.49
X179.1Y-86.12
X179.11Y-71.56
X192.18Y-119.45
X192.183Y-123.48
X192.2Y-89.91
X192.202Y-93.94
X192.228Y-59.617
X192.23Y-74.75
X192.23Y-63.647
X192.232Y-78.78
X192.237Y-104.562
X192.24Y-108.593
X193.77Y-126.13
X193.79Y-96.59
X193.818Y-66.297
X193.82Y-81.43
X193.827Y-111.242
X194.03Y-116.32
X194.05Y-86.78
X194.078Y-56.487
X194.08Y-71.62
X194.087Y-101.432
X207.18Y-74.57
X207.183Y-78.6
X207.192Y-119.57
X207.195Y-123.6
X207.2Y-89.525
X207.2Y-104.81
X207.202Y-93.555
X207.202Y-108.84
X207.215Y-59.61
X207.218Y-63.64
X208.77Y-81.25
X208.782Y-126.25
X208.79Y-96.205
X208.79Y-111.49
X208.805Y-66.29
X209.03Y-71.44
X209.042Y-116.44
X209.05Y-86.395
X209.05Y-101.68
X209.065Y-56.48
X222.188Y-59.612
X222.19Y-63.642
X222.195Y-89.71
X222.197Y-93.74
X222.2Y-104.84
X222.202Y-108.87
X222.21Y-74.91
X222.21Y-119.68
X222.212Y-78.94
X222.212Y-123.71
X223.778Y-66.293
X223.785Y-96.39
X223.79Y-111.52
X223.8Y-81.59
X223.8Y-126.36
X224.038Y-56.482
X224.045Y-86.58
X224.05Y-101.71
X224.06Y-71.78
X224.06Y-116.55
X237.21Y-74.795
X237.21Y-104.59
X237.212Y-78.825
X237.212Y-108.62
X237.22Y-119.61
X237.222Y-123.64
X237.23Y-89.93
X237.232Y-93.96
X237.24Y-59.66
X237.242Y-63.69
X238.8Y-81.475
X238.8Y-111.27
X238.81Y-126.29
X238.82Y-96.61
X238.83Y-66.34
X239.06Y-71.665
X239.06Y-101.46
X239.07Y-116.48
X239.08Y-86.8
X239.09Y-56.53
T2
X180.052Y-55.971
X180.778Y-117.99
X180.83Y-102.73
X180.84Y-87.36
X180.85Y-72.8
X182.553Y-127.105
X182.603Y-66.855
X182.605Y-111.845
X182.615Y-96.475
X182.625Y-81.915
X183.0Y-63.69
X183.31Y-108.89
X183.35Y-93.71
X183.47Y-78.64
X183.508Y-123.92
X184.75Y-61.25
X184.75Y-119.75
X184.875Y-104.773
X184.91Y-90.232
X184.959Y-75.271
X193.5Y-52.5
X194.819Y-55.675
X195.77Y-117.56
X195.79Y-88.02
X195.82Y-72.86
X195.827Y-102.672
X197.545Y-126.675
X197.565Y-97.135
X197.593Y-66.843
X197.595Y-81.975
X197.602Y-111.787
X197.765Y-79.015
X197.8Y-63.295
X198.17Y-123.22
X198.23Y-94.37
X198.27Y-108.8
X199.25Y-76.0
X199.835Y-91.283
X199.863Y-59.754
X199.922Y-120.207
X199.986Y-105.247
X200.024Y-62.017
X201.68Y-66.83
X207.0Y-54.25
X210.044Y-55.978
X210.77Y-72.68
X210.782Y-117.68
X210.79Y-87.635
X210.79Y-102.92
X212.25Y-54.5
X212.545Y-81.795
X212.558Y-126.795
X212.565Y-96.75
X212.565Y-112.035
X212.58Y-66.835
X212.713Y-79.055
X213.038Y-63.163
X213.21Y-124.055
X213.23Y-109.295
X213.32Y-93.93
X214.75Y-76.0
X214.75Y-120.75
X214.835Y-90.75
X214.86Y-107.21
X215.263Y-62.01
X218.0Y-53.0
X222.0Y-51.75
X225.5Y-55.75
X225.785Y-87.82
X225.79Y-102.95
X225.8Y-73.02
X225.8Y-117.79
X227.553Y-66.837
X227.56Y-96.935
X227.565Y-112.065
X227.575Y-82.135
X227.575Y-126.905
X227.92Y-63.67
X227.926Y-79.395
X228.515Y-94.04
X228.52Y-109.342
X228.53Y-123.78
X229.838Y-106.428
X229.849Y-121.275
X229.854Y-75.978
X229.947Y-90.449
X230.028Y-62.242
X240.75Y-56.25
X240.8Y-72.905
X240.8Y-102.7
X240.81Y-117.72
X240.82Y-88.04
X242.575Y-82.02
X242.575Y-111.815
X242.585Y-126.835
X242.595Y-97.155
X242.605Y-66.885
X243.23Y-94.38
X243.28Y-63.28
X243.47Y-123.95
X243.48Y-77.44
X243.53Y-79.12
X243.53Y-109.092
X244.916Y-120.468
X245.05Y-107.22
X245.07Y-92.56
X245.08Y-62.29
T3
X201.825Y-137.395
X201.825Y-138.665
X201.825Y-139.935
X215.895Y-137.105
X215.895Y-138.375
X215.895Y-139.645
T4
X174.756Y-65.914
X174.756Y-72.766
X174.756Y-80.914
X174.756Y-87.766
X174.756Y-95.914
X174.756Y-102.766
X174.756Y-110.914
X174.756Y-117.766
X174.756Y-125.914
X174.758Y-57.772
X189.756Y-57.766
X189.756Y-65.914
X189.756Y-72.766
X189.756Y-80.914
X189.756Y-87.766
X189.756Y-95.914
X189.756Y-102.766
X189.756Y-110.914
X189.756Y-117.766
X189.756Y-125.914
X204.756Y-57.766
X204.756Y-65.914
X204.756Y-72.766
X204.756Y-80.914
X204.756Y-87.766
X204.756Y-95.914
X204.756Y-102.766
X204.756Y-110.914
X204.756Y-117.766
X204.756Y-125.914
X219.756Y-57.766
X219.756Y-65.914
X219.756Y-72.766
X219.756Y-80.914
X219.756Y-87.766
X219.756Y-95.914
X219.756Y-102.766
X219.756Y-110.914
X219.756Y-117.766
X219.756Y-125.914
X234.756Y-57.766
X234.756Y-65.914
X234.756Y-72.766
X234.756Y-80.914
X234.756Y-87.766
X234.756Y-95.914
X234.756Y-102.766
X234.756Y-110.914
X234.756Y-117.766
X234.756Y-125.914
T5
X182.5Y-69.0
X182.5Y-84.0
X182.5Y-99.0
X182.5Y-114.0
X182.5Y-129.0
X184.5Y-69.0
X184.5Y-84.0
X184.5Y-99.0
X184.5Y-114.0
X184.5Y-129.0
X197.5Y-69.0
X197.5Y-84.0
X197.5Y-99.0
X197.5Y-114.0
X197.6Y-129.0
X199.5Y-69.0
X199.5Y-84.0
X199.5Y-99.0
X199.5Y-114.0
X199.6Y-129.0
X212.5Y-69.0
X212.5Y-84.0
X212.5Y-99.0
X212.5Y-114.0
X212.5Y-129.0
X214.5Y-69.0
X214.5Y-84.0
X214.5Y-99.0
X214.5Y-114.0
X214.5Y-129.0
X227.5Y-69.0
X227.5Y-84.0
X227.5Y-99.0
X227.5Y-114.0
X227.5Y-129.0
X229.5Y-69.0
X229.5Y-84.0
X229.5Y-99.0
X229.5Y-114.0
X229.5Y-129.0
X242.5Y-69.0
X242.5Y-84.0
X242.5Y-99.0
X242.5Y-114.0
X242.5Y-129.0
X244.5Y-69.0
X244.5Y-84.0
X244.5Y-99.0
X244.5Y-114.0
X244.5Y-129.0
T6
X202.375Y-146.415
X207.455Y-146.415
X213.885Y-146.405
X218.965Y-146.405
M30
