%TF.GenerationSoftware,Altium Limited,Altium Designer,24.0.1 (36)*%
G04 Layer_Physical_Order=1*
G04 Layer_Color=255*
%FSLAX45Y45*%
%MOMM*%
%TF.SameCoordinates,3215C8D0-E6B2-4662-8DC9-F85C750AE4ED*%
%TF.FilePolarity,Positive*%
%TF.FileFunction,Copper,L1,Top,Signal*%
%TF.Part,Single*%
G01*
G75*
%TA.AperFunction,SMDPad,CuDef*%
%ADD10R,1.40000X1.10000*%
%ADD11R,10.00000X10.00000*%
%TA.AperFunction,Conductor*%
%ADD12C,0.25400*%
%TA.AperFunction,ComponentPad*%
%ADD13C,1.65100*%
%TA.AperFunction,ViaPad*%
%ADD14C,1.27000*%
D10*
X13000000Y8068200D02*
D03*
Y8268200D02*
D03*
X5622200Y8068200D02*
D03*
Y8268200D02*
D03*
Y7468200D02*
D03*
Y7668200D02*
D03*
Y6868200D02*
D03*
Y7068200D02*
D03*
Y6268200D02*
D03*
Y6468200D02*
D03*
X13000000Y7468200D02*
D03*
Y7668200D02*
D03*
Y6868200D02*
D03*
Y7068200D02*
D03*
Y8668200D02*
D03*
Y8868200D02*
D03*
X5622200Y8668200D02*
D03*
Y8868200D02*
D03*
D11*
X11200000Y5212700D02*
D03*
X9200000D02*
D03*
X7200000D02*
D03*
X11200000Y7212700D02*
D03*
X9200000D02*
D03*
X7200000D02*
D03*
X11200000Y9212700D02*
D03*
X9200000D02*
D03*
X7200000D02*
D03*
D12*
X10166100Y8178800D02*
X11200000Y9212700D01*
X6413500Y8178800D02*
X10166100D01*
X6350000Y8115300D02*
X6413500Y8178800D01*
X13006799Y8661400D02*
X13258800D01*
X13000000Y8668200D02*
X13006799Y8661400D01*
X13009000Y8077200D02*
X13309599D01*
X13000000Y8068200D02*
X13009000Y8077200D01*
X13205907Y7518400D02*
X13233400D01*
X13000000Y7468200D02*
X13155707D01*
X13205907Y7518400D01*
X13000000Y6868200D02*
X13002499Y6870700D01*
X13271500D01*
X5615100Y6261100D02*
X5622200Y6268200D01*
X5384800Y6261100D02*
X5615100D01*
X5612000Y6858000D02*
X5622200Y6868200D01*
X5397500Y6858000D02*
X5612000D01*
X5384800Y7442200D02*
X5596200D01*
X5622200Y7468200D01*
X5410200Y8051800D02*
X5605800D01*
X5622200Y8068200D01*
X5410200Y8661400D02*
X5615400D01*
X5622200Y8668200D01*
X13728200Y8268200D02*
X13919200Y8077200D01*
X12985001Y8268200D02*
X13728200D01*
X11950700Y7233900D02*
X12985001Y8268200D01*
X9245600Y6032500D02*
X12065000D01*
X9156700Y5943600D02*
X9245600Y6032500D01*
X12065000D02*
X12344400Y6311900D01*
Y7027600D01*
X12985001Y7668200D01*
X7264400Y6261100D02*
X11935821D01*
X7200000Y6196700D02*
X7264400Y6261100D01*
X11935821D02*
X11950700Y6275979D01*
Y7233900D01*
X9156700Y5256000D02*
Y5943600D01*
Y5256000D02*
X9200000Y5212700D01*
X7200000D02*
Y6196700D01*
X11892900Y5212700D02*
X12687300Y6007100D01*
Y6794500D02*
X12918700Y7025900D01*
X12687300Y6007100D02*
Y6794500D01*
X11200000Y5212700D02*
X11892900D01*
X12957700Y7025900D02*
X13000000Y7068200D01*
X12918700Y7025900D02*
X12957700D01*
X13000000Y7068200D02*
X13014999D01*
X12985001Y7668200D02*
X13000000D01*
X13516000Y7569200D02*
X13919200D01*
X13014999Y7068200D02*
X13516000Y7569200D01*
X13014999Y7668200D02*
X13170000Y7823200D01*
X13000000Y7668200D02*
X13014999D01*
X13170000Y7823200D02*
X13919200D01*
X13382201Y8868200D02*
X13919200Y8331200D01*
X13000000Y8868200D02*
X13382201D01*
X11200000Y7212700D02*
X12855499Y8868200D01*
X13000000D01*
X8455500Y6468200D02*
X9200000Y7212700D01*
X5622200Y6468200D02*
X8455500D01*
X5038000D02*
X5622200D01*
X4483100Y7023100D02*
X5038000Y6468200D01*
X4620200Y7668200D02*
X5622200D01*
X4483100Y7531100D02*
X4620200Y7668200D01*
X4483100Y7277100D02*
X4692000Y7068200D01*
X5622200D01*
X5637200D02*
X5781700Y7212700D01*
X7200000D01*
X5622200Y7068200D02*
X5637200D01*
X5622200Y8268200D02*
X5748700Y8394700D01*
X8382000D02*
X9200000Y9212700D01*
X5748700Y8394700D02*
X8382000D01*
X4966200Y8268200D02*
X5622200D01*
Y7668200D02*
X5902900D01*
X6350000Y8115300D01*
X4483100Y7785100D02*
X4966200Y8268200D01*
X4483100Y8039100D02*
X5312200Y8868200D01*
X5622200D01*
X6855500D01*
X7200000Y9212700D01*
D13*
X13919200Y8331200D02*
D03*
Y7315200D02*
D03*
Y7569200D02*
D03*
Y7823200D02*
D03*
Y8077200D02*
D03*
X4483100Y8039100D02*
D03*
Y7023100D02*
D03*
Y7277100D02*
D03*
Y7531100D02*
D03*
Y7785100D02*
D03*
D14*
X5410200Y8661400D02*
D03*
X5384800Y6261100D02*
D03*
X5410200Y8051800D02*
D03*
X5384800Y7442200D02*
D03*
X5397500Y6858000D02*
D03*
X13271500Y6870700D02*
D03*
X13233400Y7518400D02*
D03*
X13309599Y8077200D02*
D03*
X13258800Y8661400D02*
D03*
%TF.MD5,61fe0d38f5b6267f6dfd46eb205cc300*%
M02*
