G04*
G04 #@! TF.GenerationSoftware,Altium Limited,Altium Designer,25.8.1 (18)*
G04*
G04 Layer_Physical_Order=1*
G04 Layer_Color=255*
%FSLAX44Y44*%
%MOMM*%
G71*
G04*
G04 #@! TF.SameCoordinates,729A6F0E-C14C-4E7B-A74A-3A0F7BF57B29*
G04*
G04*
G04 #@! TF.FilePolarity,Positive*
G04*
G01*
G75*
%ADD13C,0.5000*%
%ADD14C,0.2540*%
%ADD16R,5.5000X2.0000*%
%ADD17R,1.4000X1.1000*%
%ADD18R,1.1000X1.4000*%
%ADD19R,2.0000X5.5000*%
%ADD34C,5.0000*%
%ADD35C,4.0000*%
%ADD36C,1.6000*%
G04:AMPARAMS|DCode=37|XSize=1.6mm|YSize=1.6mm|CornerRadius=0.4mm|HoleSize=0mm|Usage=FLASHONLY|Rotation=270.000|XOffset=0mm|YOffset=0mm|HoleType=Round|Shape=RoundedRectangle|*
%AMROUNDEDRECTD37*
21,1,1.6000,0.8000,0,0,270.0*
21,1,0.8000,1.6000,0,0,270.0*
1,1,0.8000,-0.4000,-0.4000*
1,1,0.8000,-0.4000,0.4000*
1,1,0.8000,0.4000,0.4000*
1,1,0.8000,0.4000,-0.4000*
%
%ADD37ROUNDEDRECTD37*%
%ADD38C,1.5240*%
%ADD39C,1.7000*%
%ADD40C,1.2000*%
%ADD41R,1.5000X1.5000*%
%ADD42C,1.5000*%
%ADD43C,1.2700*%
G36*
X1524000Y0D02*
X0D01*
Y1016000D01*
X1524000D01*
Y0D01*
D02*
G37*
%LPC*%
G36*
X1446000Y988649D02*
X1441581Y988214D01*
X1437333Y986925D01*
X1436746Y986612D01*
X1436136Y986735D01*
X1435468Y986991D01*
X1435257Y987307D01*
X1435077Y987643D01*
X1434978Y987724D01*
X1434906Y987831D01*
X1434590Y988043D01*
X1434296Y988284D01*
X1434173Y988321D01*
X1434066Y988393D01*
X1433693Y988467D01*
X1433329Y988577D01*
X1433201Y988565D01*
X1433075Y988590D01*
X376000D01*
X375009Y988393D01*
X374169Y987831D01*
X373607Y986991D01*
X373410Y986000D01*
Y776000D01*
X373607Y775009D01*
X374169Y774169D01*
X375009Y773607D01*
X376000Y773410D01*
X403517D01*
X404078Y772271D01*
X403980Y772143D01*
X402968Y769701D01*
X402623Y767080D01*
X402968Y764459D01*
X403980Y762017D01*
X405589Y759919D01*
X407687Y758310D01*
X410129Y757298D01*
X412750Y756953D01*
X415371Y757298D01*
X417813Y758310D01*
X419911Y759919D01*
X421520Y762017D01*
X422532Y764459D01*
X422877Y767080D01*
X422532Y769701D01*
X421520Y772143D01*
X421422Y772271D01*
X421983Y773410D01*
X572440D01*
X573002Y772271D01*
X572531Y771657D01*
X571670Y769580D01*
X571376Y767350D01*
X571670Y765121D01*
X572531Y763043D01*
X573899Y761260D01*
X575683Y759891D01*
X577761Y759030D01*
X579990Y758737D01*
X582220Y759030D01*
X584297Y759891D01*
X586081Y761260D01*
X587450Y763043D01*
X588310Y765121D01*
X588604Y767350D01*
X588310Y769580D01*
X587450Y771657D01*
X586979Y772271D01*
X587540Y773410D01*
X833486D01*
X833849Y773483D01*
X834218Y773516D01*
X834341Y773580D01*
X834477Y773607D01*
X834785Y773813D01*
X835113Y773985D01*
X835202Y774092D01*
X835317Y774169D01*
X836752Y774643D01*
X837518Y774055D01*
X839990Y773032D01*
X842642Y772682D01*
X845294Y773032D01*
X847766Y774055D01*
X849888Y775684D01*
X851517Y777806D01*
X851647Y778122D01*
X864475D01*
X864516Y778022D01*
X866286Y775716D01*
X868592Y773947D01*
X871278Y772834D01*
X874160Y772455D01*
X877042Y772834D01*
X879727Y773947D01*
X880419Y774477D01*
X880923Y774498D01*
X882033Y774169D01*
X882090Y774131D01*
X882131Y774076D01*
X882508Y773851D01*
X882873Y773607D01*
X882940Y773594D01*
X882999Y773559D01*
X883433Y773496D01*
X883864Y773410D01*
X914456D01*
X914887Y773496D01*
X915321Y773559D01*
X915380Y773594D01*
X915447Y773607D01*
X915812Y773851D01*
X916189Y774076D01*
X916230Y774131D01*
X916287Y774169D01*
X917397Y774498D01*
X917901Y774477D01*
X918593Y773947D01*
X921278Y772834D01*
X922890Y772622D01*
Y783590D01*
X925430D01*
Y772622D01*
X927042Y772834D01*
X929728Y773947D01*
X930420Y774477D01*
X930923Y774498D01*
X932033Y774169D01*
X932090Y774131D01*
X932131Y774076D01*
X932458Y773881D01*
X932510Y773844D01*
X932759Y772621D01*
X932729Y772358D01*
X932728Y772355D01*
X886871Y726499D01*
X763270D01*
X761303Y726108D01*
X759636Y724994D01*
X716456Y681814D01*
X715342Y680146D01*
X714951Y678180D01*
Y576580D01*
X715342Y574613D01*
X716456Y572946D01*
X778686Y510716D01*
X780353Y509602D01*
X782320Y509211D01*
X938941D01*
X1022526Y425626D01*
X1024193Y424512D01*
X1026160Y424121D01*
X1049900D01*
X1049973Y423945D01*
X1051663Y421743D01*
X1053865Y420053D01*
X1056429Y418991D01*
X1059180Y418629D01*
X1061932Y418991D01*
X1064495Y420053D01*
X1066697Y421743D01*
X1068387Y423945D01*
X1069449Y426508D01*
X1069811Y429260D01*
X1069449Y432011D01*
X1068387Y434576D01*
X1066697Y436777D01*
X1064495Y438467D01*
X1061932Y439529D01*
X1059180Y439891D01*
X1056429Y439529D01*
X1053865Y438467D01*
X1051663Y436777D01*
X1049973Y434576D01*
X1049900Y434399D01*
X1028288D01*
X944704Y517984D01*
X943036Y519098D01*
X941070Y519489D01*
X784448D01*
X725229Y578708D01*
Y676051D01*
X765398Y716221D01*
X889000D01*
X890966Y716612D01*
X892634Y717726D01*
X939389Y764481D01*
X960120D01*
X962086Y764872D01*
X963754Y765986D01*
X967753Y769986D01*
X970280Y769653D01*
X972901Y769998D01*
X975343Y771010D01*
X977441Y772619D01*
X977996Y773344D01*
X978146Y773485D01*
X979410Y773757D01*
X979571Y773702D01*
X979713Y773607D01*
X980046Y773541D01*
X980366Y773432D01*
X980537Y773444D01*
X980704Y773410D01*
X1036056D01*
X1036223Y773444D01*
X1036394Y773432D01*
X1036714Y773541D01*
X1037047Y773607D01*
X1037189Y773702D01*
X1037350Y773757D01*
X1038614Y773485D01*
X1038764Y773344D01*
X1039319Y772619D01*
X1041417Y771010D01*
X1043859Y769998D01*
X1046480Y769653D01*
X1049101Y769998D01*
X1051543Y771010D01*
X1053641Y772619D01*
X1054196Y773344D01*
X1054346Y773485D01*
X1055610Y773757D01*
X1055771Y773702D01*
X1055913Y773607D01*
X1056246Y773541D01*
X1056494Y773457D01*
X1056947Y772623D01*
X1056973Y772140D01*
X1049007Y764174D01*
X1046480Y764507D01*
X1043859Y764162D01*
X1041417Y763150D01*
X1039319Y761541D01*
X1037710Y759443D01*
X1036698Y757001D01*
X1036353Y754380D01*
X1036698Y751759D01*
X1037710Y749317D01*
X1039319Y747219D01*
X1041417Y745610D01*
X1043859Y744598D01*
X1046480Y744253D01*
X1049101Y744598D01*
X1051543Y745610D01*
X1053641Y747219D01*
X1055250Y749317D01*
X1056262Y751759D01*
X1056607Y754380D01*
X1056274Y756907D01*
X1063848Y764481D01*
X1228502D01*
X1259781Y733202D01*
Y485998D01*
X1131982Y358199D01*
X1068460D01*
X1068387Y358376D01*
X1066697Y360577D01*
X1064495Y362267D01*
X1061932Y363329D01*
X1059180Y363691D01*
X1056429Y363329D01*
X1053865Y362267D01*
X1051663Y360577D01*
X1049973Y358376D01*
X1048911Y355812D01*
X1048549Y353060D01*
X1048911Y350308D01*
X1049973Y347744D01*
X1051663Y345543D01*
X1053865Y343853D01*
X1056429Y342791D01*
X1059180Y342429D01*
X1061932Y342791D01*
X1064495Y343853D01*
X1066697Y345543D01*
X1068387Y347744D01*
X1068460Y347921D01*
X1134110D01*
X1136077Y348312D01*
X1137744Y349426D01*
X1268554Y480236D01*
X1269668Y481903D01*
X1270059Y483870D01*
Y735330D01*
X1269668Y737297D01*
X1268554Y738964D01*
X1235377Y772140D01*
X1235903Y773410D01*
X1404929D01*
X1405468Y772140D01*
X1404511Y769831D01*
X1404149Y767080D01*
X1404511Y764329D01*
X1405573Y761765D01*
X1407263Y759563D01*
X1409465Y757873D01*
X1412029Y756811D01*
X1414780Y756449D01*
X1417531Y756811D01*
X1420096Y757873D01*
X1422297Y759563D01*
X1423987Y761765D01*
X1425049Y764329D01*
X1425411Y767080D01*
X1425049Y769831D01*
X1424092Y772140D01*
X1424631Y773410D01*
X1486000D01*
X1486991Y773607D01*
X1487831Y774169D01*
X1488393Y775009D01*
X1488590Y776000D01*
Y986000D01*
X1488393Y986991D01*
X1487831Y987831D01*
X1486991Y988393D01*
X1486000Y988590D01*
X1458925D01*
X1458799Y988565D01*
X1458671Y988577D01*
X1458307Y988467D01*
X1457934Y988393D01*
X1457827Y988321D01*
X1457704Y988284D01*
X1457410Y988043D01*
X1457094Y987831D01*
X1457022Y987724D01*
X1456923Y987643D01*
X1456743Y987307D01*
X1456532Y986991D01*
X1455864Y986735D01*
X1455254Y986612D01*
X1454667Y986925D01*
X1450419Y988214D01*
X1446000Y988649D01*
D02*
G37*
G36*
X46000D02*
X41581Y988214D01*
X37333Y986925D01*
X33417Y984832D01*
X29985Y982015D01*
X27168Y978583D01*
X25075Y974667D01*
X23786Y970419D01*
X23351Y966000D01*
X23786Y961581D01*
X25075Y957333D01*
X27168Y953417D01*
X29985Y949985D01*
X33417Y947168D01*
X37333Y945075D01*
X41581Y943786D01*
X46000Y943351D01*
X50419Y943786D01*
X54667Y945075D01*
X58583Y947168D01*
X62015Y949985D01*
X64832Y953417D01*
X66925Y957333D01*
X68214Y961581D01*
X68649Y966000D01*
X68214Y970419D01*
X66925Y974667D01*
X64832Y978583D01*
X62015Y982015D01*
X58583Y984832D01*
X54667Y986925D01*
X50419Y988214D01*
X46000Y988649D01*
D02*
G37*
G36*
X298050Y808528D02*
Y798830D01*
X307748D01*
X307536Y800442D01*
X306424Y803128D01*
X304654Y805434D01*
X302348Y807203D01*
X299662Y808316D01*
X298050Y808528D01*
D02*
G37*
G36*
X295510D02*
X293898Y808316D01*
X291213Y807203D01*
X288906Y805434D01*
X287137Y803128D01*
X286024Y800442D01*
X285812Y798830D01*
X295510D01*
Y808528D01*
D02*
G37*
G36*
X307748Y796290D02*
X298050D01*
Y786592D01*
X299662Y786804D01*
X302348Y787917D01*
X304654Y789686D01*
X306424Y791992D01*
X307536Y794678D01*
X307748Y796290D01*
D02*
G37*
G36*
X295510D02*
X285812D01*
X286024Y794678D01*
X287137Y791992D01*
X288906Y789686D01*
X291213Y787917D01*
X293898Y786804D01*
X295510Y786592D01*
Y796290D01*
D02*
G37*
G36*
X346590Y827920D02*
X326510D01*
Y807840D01*
X331411D01*
Y801192D01*
X329389Y799641D01*
X327780Y797543D01*
X326768Y795101D01*
X326423Y792480D01*
X326768Y789859D01*
X327780Y787417D01*
X328440Y786557D01*
X312831Y770949D01*
X256129D01*
X251919Y775159D01*
Y787739D01*
X252347Y787917D01*
X254654Y789686D01*
X256423Y791992D01*
X257536Y794678D01*
X257915Y797560D01*
X257536Y800442D01*
X256423Y803128D01*
X254654Y805434D01*
X252347Y807203D01*
X249662Y808316D01*
X246780Y808695D01*
X243898Y808316D01*
X241212Y807203D01*
X238906Y805434D01*
X237136Y803128D01*
X237096Y803029D01*
X224269D01*
X224138Y803344D01*
X222510Y805466D01*
X220387Y807095D01*
X217916Y808118D01*
X215264Y808468D01*
X212611Y808118D01*
X210140Y807095D01*
X208017Y805466D01*
X206389Y803344D01*
X206019Y802452D01*
X200143D01*
X198177Y802061D01*
X196510Y800947D01*
X171370Y775807D01*
X170180Y775964D01*
X167951Y775670D01*
X165873Y774810D01*
X164089Y773441D01*
X162720Y771657D01*
X161860Y769580D01*
X161566Y767350D01*
X161860Y765121D01*
X162720Y763043D01*
X164089Y761260D01*
X165873Y759891D01*
X167951Y759030D01*
X170180Y758737D01*
X172409Y759030D01*
X174487Y759891D01*
X176271Y761260D01*
X177640Y763043D01*
X178500Y765121D01*
X178794Y767350D01*
X178637Y768540D01*
X202272Y792175D01*
X207096D01*
X208017Y790974D01*
X210140Y789345D01*
X212611Y788321D01*
X215264Y787972D01*
X217916Y788321D01*
X220387Y789345D01*
X222510Y790974D01*
X223874Y792751D01*
X236822D01*
X237136Y791992D01*
X238906Y789686D01*
X241212Y787917D01*
X241641Y787739D01*
Y773030D01*
X242032Y771064D01*
X243146Y769397D01*
X250366Y762176D01*
X252034Y761062D01*
X254000Y760671D01*
X314960D01*
X316926Y761062D01*
X318594Y762176D01*
X325392Y768975D01*
X326595Y768381D01*
X326423Y767080D01*
X326441Y766945D01*
X310125Y750629D01*
X257810D01*
X255844Y750238D01*
X254176Y749124D01*
X243146Y738093D01*
X242032Y736426D01*
X241641Y734460D01*
Y698161D01*
X241212Y697983D01*
X238906Y696214D01*
X237528Y694418D01*
X224522D01*
X224138Y695344D01*
X222510Y697466D01*
X220387Y699095D01*
X217916Y700119D01*
X215264Y700468D01*
X212611Y700119D01*
X210140Y699095D01*
X208017Y697466D01*
X206400Y695359D01*
X200639D01*
X178637Y717361D01*
X178794Y718550D01*
X178500Y720780D01*
X177640Y722857D01*
X176271Y724641D01*
X174487Y726010D01*
X172409Y726870D01*
X170180Y727164D01*
X167951Y726870D01*
X165873Y726010D01*
X164089Y724641D01*
X162720Y722857D01*
X161860Y720780D01*
X161566Y718550D01*
X161860Y716321D01*
X162720Y714243D01*
X164089Y712459D01*
X165873Y711091D01*
X167951Y710230D01*
X170180Y709937D01*
X171370Y710093D01*
X194876Y686587D01*
X196544Y685472D01*
X198510Y685081D01*
X206400D01*
X208017Y682974D01*
X210140Y681345D01*
X212611Y680322D01*
X215264Y679972D01*
X217916Y680322D01*
X220387Y681345D01*
X222510Y682974D01*
X223405Y684141D01*
X236569D01*
X237136Y682772D01*
X238906Y680466D01*
X241212Y678697D01*
X243898Y677584D01*
X246780Y677205D01*
X249662Y677584D01*
X252347Y678697D01*
X254654Y680466D01*
X256423Y682772D01*
X257536Y685458D01*
X257915Y688340D01*
X257536Y691222D01*
X256423Y693908D01*
X254654Y696214D01*
X252347Y697983D01*
X251919Y698161D01*
Y732331D01*
X259939Y740351D01*
X312254D01*
X314220Y740742D01*
X315888Y741856D01*
X332091Y758060D01*
X333929Y757298D01*
X336550Y756953D01*
X339077Y757286D01*
X375861Y720501D01*
Y628650D01*
X376252Y626684D01*
X377366Y625016D01*
X473886Y528496D01*
X475554Y527382D01*
X477520Y526991D01*
X653192D01*
X732966Y447216D01*
X734633Y446102D01*
X736600Y445711D01*
X877981D01*
X1025066Y298626D01*
X1026733Y297512D01*
X1028700Y297121D01*
X1049900D01*
X1049973Y296945D01*
X1051663Y294743D01*
X1053865Y293053D01*
X1056429Y291991D01*
X1059180Y291629D01*
X1061932Y291991D01*
X1064495Y293053D01*
X1066697Y294743D01*
X1068387Y296945D01*
X1069449Y299508D01*
X1069811Y302260D01*
X1069449Y305012D01*
X1068387Y307575D01*
X1066697Y309777D01*
X1064495Y311467D01*
X1061932Y312529D01*
X1059180Y312891D01*
X1056429Y312529D01*
X1053865Y311467D01*
X1051663Y309777D01*
X1049973Y307575D01*
X1049900Y307399D01*
X1030828D01*
X883744Y454484D01*
X882076Y455598D01*
X880110Y455989D01*
X738728D01*
X658954Y535764D01*
X657287Y536878D01*
X655320Y537269D01*
X479649D01*
X386139Y630779D01*
Y722630D01*
X385748Y724596D01*
X384634Y726264D01*
X346344Y764553D01*
X346677Y767080D01*
X346332Y769701D01*
X345320Y772143D01*
X343711Y774241D01*
X341613Y775850D01*
X339171Y776862D01*
X336550Y777207D01*
X335249Y777035D01*
X334655Y778238D01*
X338270Y781853D01*
X338803Y782650D01*
X339171Y782698D01*
X341613Y783710D01*
X343711Y785319D01*
X345320Y787417D01*
X346332Y789859D01*
X346677Y792480D01*
X346332Y795101D01*
X345320Y797543D01*
X343711Y799641D01*
X341689Y801192D01*
Y807840D01*
X346590D01*
Y827920D01*
D02*
G37*
G36*
X970280Y764507D02*
X967659Y764162D01*
X965217Y763150D01*
X963119Y761541D01*
X961568Y759519D01*
X952500D01*
X950534Y759128D01*
X948866Y758014D01*
X871796Y680943D01*
X870682Y679276D01*
X870291Y677310D01*
Y667681D01*
X869862Y667503D01*
X867556Y665734D01*
X866198Y663964D01*
X853182D01*
X852788Y664914D01*
X851160Y667036D01*
X849037Y668665D01*
X846566Y669688D01*
X843913Y670038D01*
X841261Y669688D01*
X838790Y668665D01*
X836667Y667036D01*
X835050Y664929D01*
X828685D01*
X826719Y664538D01*
X825051Y663423D01*
X804085Y642457D01*
X802896Y642614D01*
X800666Y642320D01*
X798589Y641460D01*
X796805Y640091D01*
X795436Y638307D01*
X794575Y636230D01*
X794282Y634000D01*
X794575Y631771D01*
X795436Y629693D01*
X796805Y627910D01*
X798589Y626541D01*
X800666Y625680D01*
X802896Y625387D01*
X805125Y625680D01*
X807202Y626541D01*
X808986Y627910D01*
X810355Y629693D01*
X811216Y631771D01*
X811509Y634000D01*
X811353Y635190D01*
X830814Y654651D01*
X835050D01*
X836667Y652544D01*
X838790Y650915D01*
X841261Y649891D01*
X843913Y649542D01*
X846566Y649891D01*
X849037Y650915D01*
X851160Y652544D01*
X852037Y653687D01*
X865209D01*
X865786Y652292D01*
X867556Y649986D01*
X869862Y648217D01*
X872548Y647104D01*
X875430Y646725D01*
X878312Y647104D01*
X880997Y648217D01*
X883304Y649986D01*
X885073Y652292D01*
X886186Y654978D01*
X886565Y657860D01*
X886186Y660742D01*
X885073Y663428D01*
X883304Y665734D01*
X880997Y667503D01*
X880568Y667681D01*
Y675181D01*
X954629Y749241D01*
X961568D01*
X963119Y747219D01*
X965217Y745610D01*
X967659Y744598D01*
X970280Y744253D01*
X972901Y744598D01*
X975343Y745610D01*
X977441Y747219D01*
X979050Y749317D01*
X980062Y751759D01*
X980407Y754380D01*
X980062Y757001D01*
X979050Y759443D01*
X977441Y761541D01*
X975343Y763150D01*
X972901Y764162D01*
X970280Y764507D01*
D02*
G37*
G36*
X412750Y751807D02*
X410129Y751462D01*
X407687Y750450D01*
X405589Y748841D01*
X403980Y746743D01*
X402968Y744301D01*
X402623Y741680D01*
X402968Y739059D01*
X403980Y736617D01*
X405589Y734519D01*
X407687Y732910D01*
X410129Y731898D01*
X412750Y731553D01*
X415371Y731898D01*
X417813Y732910D01*
X419911Y734519D01*
X421520Y736617D01*
X422532Y739059D01*
X422877Y741680D01*
X422532Y744301D01*
X421520Y746743D01*
X419911Y748841D01*
X417813Y750450D01*
X415371Y751462D01*
X412750Y751807D01*
D02*
G37*
G36*
X336550D02*
X333929Y751462D01*
X331487Y750450D01*
X329389Y748841D01*
X327780Y746743D01*
X326768Y744301D01*
X326423Y741680D01*
X326768Y739059D01*
X327780Y736617D01*
X329389Y734519D01*
X331487Y732910D01*
X333929Y731898D01*
X336550Y731553D01*
X339171Y731898D01*
X341613Y732910D01*
X343711Y734519D01*
X345320Y736617D01*
X346332Y739059D01*
X346677Y741680D01*
X346332Y744301D01*
X345320Y746743D01*
X343711Y748841D01*
X341613Y750450D01*
X339171Y751462D01*
X336550Y751807D01*
D02*
G37*
G36*
X1414780Y752311D02*
X1412029Y751949D01*
X1409465Y750887D01*
X1407263Y749197D01*
X1405573Y746995D01*
X1404511Y744432D01*
X1404149Y741680D01*
X1404511Y738929D01*
X1405573Y736365D01*
X1407263Y734163D01*
X1409465Y732473D01*
X1412029Y731411D01*
X1414780Y731049D01*
X1417531Y731411D01*
X1420096Y732473D01*
X1422297Y734163D01*
X1423987Y736365D01*
X1425049Y738929D01*
X1425411Y741680D01*
X1425049Y744432D01*
X1423987Y746995D01*
X1422297Y749197D01*
X1420096Y750887D01*
X1417531Y751949D01*
X1414780Y752311D01*
D02*
G37*
G36*
X412750Y726407D02*
X410129Y726062D01*
X407687Y725050D01*
X405589Y723441D01*
X403980Y721343D01*
X402968Y718901D01*
X402623Y716280D01*
X402968Y713659D01*
X403980Y711217D01*
X405589Y709119D01*
X407687Y707510D01*
X410129Y706498D01*
X412750Y706153D01*
X415371Y706498D01*
X417813Y707510D01*
X419911Y709119D01*
X421520Y711217D01*
X422532Y713659D01*
X422877Y716280D01*
X422532Y718901D01*
X421520Y721343D01*
X419911Y723441D01*
X417813Y725050D01*
X415371Y726062D01*
X412750Y726407D01*
D02*
G37*
G36*
X336550D02*
X333929Y726062D01*
X331487Y725050D01*
X329389Y723441D01*
X327780Y721343D01*
X326768Y718901D01*
X326423Y716280D01*
X326768Y713659D01*
X327780Y711217D01*
X329389Y709119D01*
X331487Y707510D01*
X333929Y706498D01*
X336550Y706153D01*
X339171Y706498D01*
X341613Y707510D01*
X343711Y709119D01*
X345320Y711217D01*
X346332Y713659D01*
X346677Y716280D01*
X346332Y718901D01*
X345320Y721343D01*
X343711Y723441D01*
X341613Y725050D01*
X339171Y726062D01*
X336550Y726407D01*
D02*
G37*
G36*
X1414780Y726911D02*
X1412029Y726549D01*
X1409465Y725487D01*
X1407263Y723797D01*
X1405573Y721596D01*
X1404511Y719032D01*
X1404149Y716280D01*
X1404511Y713529D01*
X1405573Y710965D01*
X1407263Y708763D01*
X1409465Y707073D01*
X1412029Y706011D01*
X1414780Y705649D01*
X1417531Y706011D01*
X1420096Y707073D01*
X1422297Y708763D01*
X1423987Y710965D01*
X1425049Y713529D01*
X1425411Y716280D01*
X1425049Y719032D01*
X1423987Y721596D01*
X1422297Y723797D01*
X1420096Y725487D01*
X1417531Y726549D01*
X1414780Y726911D01*
D02*
G37*
G36*
X1066800Y708569D02*
X1065749Y708431D01*
X1063587Y707535D01*
X1061730Y706110D01*
X1060305Y704253D01*
X1059409Y702091D01*
X1059270Y701040D01*
X1066800D01*
Y708569D01*
D02*
G37*
G36*
X970280Y739107D02*
X967659Y738762D01*
X965217Y737750D01*
X963119Y736141D01*
X961510Y734043D01*
X960498Y731601D01*
X960153Y728980D01*
X960498Y726359D01*
X961510Y723917D01*
X963119Y721819D01*
X965141Y720268D01*
Y712292D01*
X963119Y710741D01*
X961510Y708643D01*
X960498Y706201D01*
X960153Y703580D01*
X960486Y701053D01*
X946326Y686894D01*
X945212Y685227D01*
X944821Y683260D01*
Y630379D01*
X878741Y564298D01*
X878312Y564476D01*
X875430Y564855D01*
X872548Y564476D01*
X869862Y563363D01*
X867556Y561594D01*
X865786Y559288D01*
X865209Y557894D01*
X852036D01*
X851160Y559036D01*
X849037Y560665D01*
X846566Y561689D01*
X843913Y562038D01*
X841261Y561689D01*
X838790Y560665D01*
X836667Y559036D01*
X835614Y559749D01*
X811353Y584011D01*
X811509Y585200D01*
X811216Y587430D01*
X810355Y589507D01*
X808986Y591291D01*
X807202Y592660D01*
X805125Y593520D01*
X802896Y593814D01*
X800666Y593520D01*
X798589Y592660D01*
X796805Y591291D01*
X795436Y589507D01*
X794575Y587430D01*
X794282Y585200D01*
X794575Y582971D01*
X795436Y580893D01*
X796805Y579109D01*
X798589Y577741D01*
X800666Y576880D01*
X802896Y576587D01*
X804085Y576743D01*
X830713Y550116D01*
X832380Y549002D01*
X834223Y548635D01*
X835039Y546666D01*
X836667Y544544D01*
X838790Y542915D01*
X841261Y541892D01*
X843913Y541542D01*
X846566Y541892D01*
X849037Y542915D01*
X851160Y544544D01*
X852788Y546666D01*
X853182Y547617D01*
X866198D01*
X867556Y545846D01*
X869862Y544077D01*
X872548Y542964D01*
X875430Y542585D01*
X878312Y542964D01*
X880997Y544077D01*
X883304Y545846D01*
X885073Y548152D01*
X886186Y550838D01*
X886565Y553720D01*
X886186Y556602D01*
X886008Y557031D01*
X953594Y624617D01*
X954708Y626284D01*
X955099Y628250D01*
Y681132D01*
X967753Y693786D01*
X970280Y693453D01*
X972901Y693798D01*
X975343Y694810D01*
X977441Y696419D01*
X979050Y698517D01*
X980062Y700959D01*
X980407Y703580D01*
X980062Y706201D01*
X979050Y708643D01*
X977441Y710741D01*
X975419Y712292D01*
Y720268D01*
X977441Y721819D01*
X979050Y723917D01*
X980062Y726359D01*
X980407Y728980D01*
X980062Y731601D01*
X979050Y734043D01*
X977441Y736141D01*
X975343Y737750D01*
X972901Y738762D01*
X970280Y739107D01*
D02*
G37*
G36*
X1174785Y754450D02*
X1149705D01*
Y704549D01*
X1131663D01*
X1129696Y704157D01*
X1128029Y703044D01*
X1121205Y696220D01*
X1109392D01*
Y693399D01*
X1106430D01*
Y697880D01*
X1097617D01*
X1064797Y730700D01*
X1063130Y731814D01*
X1061163Y732205D01*
X1056011D01*
X1055250Y734043D01*
X1053641Y736141D01*
X1051543Y737750D01*
X1049101Y738762D01*
X1046480Y739107D01*
X1043859Y738762D01*
X1041417Y737750D01*
X1039319Y736141D01*
X1037710Y734043D01*
X1036698Y731601D01*
X1036353Y728980D01*
X1036698Y726359D01*
X1037710Y723917D01*
X1039319Y721819D01*
X1041417Y720210D01*
X1043859Y719198D01*
X1046480Y718853D01*
X1049101Y719198D01*
X1051543Y720210D01*
X1053641Y721819D01*
X1053724Y721928D01*
X1059035D01*
X1071698Y709264D01*
X1070979Y708187D01*
X1070391Y708431D01*
X1069340Y708569D01*
Y699770D01*
Y690849D01*
X1070350Y689942D01*
Y689610D01*
X1078390D01*
X1086430D01*
Y692873D01*
X1087603Y693359D01*
X1090350Y690613D01*
Y678800D01*
X1106430D01*
Y683121D01*
X1109392D01*
Y680140D01*
X1128473D01*
Y688953D01*
X1133791Y694271D01*
X1154745D01*
X1155242Y694370D01*
X1174785D01*
Y754450D01*
D02*
G37*
G36*
X1066800Y698500D02*
X1059270D01*
X1059409Y697449D01*
X1060305Y695287D01*
X1061730Y693430D01*
X1063587Y692005D01*
X1065749Y691109D01*
X1066800Y690971D01*
Y698500D01*
D02*
G37*
G36*
X457600Y700578D02*
Y690880D01*
X467298D01*
X467086Y692492D01*
X465973Y695178D01*
X464204Y697484D01*
X461897Y699253D01*
X459212Y700366D01*
X457600Y700578D01*
D02*
G37*
G36*
X455060D02*
X453448Y700366D01*
X450762Y699253D01*
X448456Y697484D01*
X446686Y695178D01*
X445574Y692492D01*
X445362Y690880D01*
X455060D01*
Y700578D01*
D02*
G37*
G36*
X298050Y699308D02*
Y689610D01*
X307748D01*
X307536Y691222D01*
X306424Y693908D01*
X304654Y696214D01*
X302348Y697983D01*
X299662Y699096D01*
X298050Y699308D01*
D02*
G37*
G36*
X295510D02*
X293898Y699096D01*
X291213Y697983D01*
X288906Y696214D01*
X287137Y693908D01*
X286024Y691222D01*
X285812Y689610D01*
X295510D01*
Y699308D01*
D02*
G37*
G36*
X412750Y701007D02*
X410129Y700662D01*
X407687Y699650D01*
X405589Y698041D01*
X403980Y695943D01*
X402968Y693501D01*
X402623Y690880D01*
X402968Y688259D01*
X403980Y685817D01*
X405589Y683719D01*
X407687Y682110D01*
X410129Y681098D01*
X412750Y680753D01*
X415371Y681098D01*
X417813Y682110D01*
X419911Y683719D01*
X421520Y685817D01*
X422532Y688259D01*
X422877Y690880D01*
X422532Y693501D01*
X421520Y695943D01*
X419911Y698041D01*
X417813Y699650D01*
X415371Y700662D01*
X412750Y701007D01*
D02*
G37*
G36*
X336550D02*
X333929Y700662D01*
X331487Y699650D01*
X329389Y698041D01*
X327780Y695943D01*
X326768Y693501D01*
X326423Y690880D01*
X326768Y688259D01*
X327780Y685817D01*
X329389Y683719D01*
X331487Y682110D01*
X333929Y681098D01*
X336550Y680753D01*
X339171Y681098D01*
X341613Y682110D01*
X343711Y683719D01*
X345320Y685817D01*
X346332Y688259D01*
X346677Y690880D01*
X346332Y693501D01*
X345320Y695943D01*
X343711Y698041D01*
X341613Y699650D01*
X339171Y700662D01*
X336550Y701007D01*
D02*
G37*
G36*
X1414780Y701511D02*
X1412029Y701149D01*
X1409465Y700087D01*
X1407263Y698397D01*
X1405573Y696196D01*
X1404511Y693632D01*
X1404149Y690880D01*
X1404511Y688129D01*
X1405573Y685564D01*
X1407263Y683363D01*
X1409465Y681673D01*
X1412029Y680611D01*
X1414780Y680249D01*
X1417531Y680611D01*
X1420096Y681673D01*
X1422297Y683363D01*
X1423987Y685564D01*
X1425049Y688129D01*
X1425411Y690880D01*
X1425049Y693632D01*
X1423987Y696196D01*
X1422297Y698397D01*
X1420096Y700087D01*
X1417531Y701149D01*
X1414780Y701511D01*
D02*
G37*
G36*
X971550Y688139D02*
Y679450D01*
X980239D01*
X980062Y680801D01*
X979050Y683243D01*
X977441Y685341D01*
X975343Y686950D01*
X972901Y687962D01*
X971550Y688139D01*
D02*
G37*
G36*
X969010D02*
X967659Y687962D01*
X965217Y686950D01*
X963119Y685341D01*
X961510Y683243D01*
X960498Y680801D01*
X960321Y679450D01*
X969010D01*
Y688139D01*
D02*
G37*
G36*
X538080Y699198D02*
X535428Y698849D01*
X532956Y697825D01*
X530834Y696196D01*
X529205Y694074D01*
X528182Y691602D01*
X527832Y688950D01*
X528182Y686298D01*
X529205Y683826D01*
X530834Y681704D01*
X532956Y680075D01*
X535428Y679052D01*
X538080Y678702D01*
X540732Y679052D01*
X543204Y680075D01*
X545326Y681704D01*
X546955Y683826D01*
X547979Y686298D01*
X548328Y688950D01*
X547979Y691602D01*
X546955Y694074D01*
X545326Y696196D01*
X543204Y697825D01*
X540732Y698849D01*
X538080Y699198D01*
D02*
G37*
G36*
X467298Y688340D02*
X457600D01*
Y678642D01*
X459212Y678854D01*
X461897Y679967D01*
X464204Y681736D01*
X465973Y684042D01*
X467086Y686728D01*
X467298Y688340D01*
D02*
G37*
G36*
X455060D02*
X445362D01*
X445574Y686728D01*
X446686Y684042D01*
X448456Y681736D01*
X450762Y679967D01*
X453448Y678854D01*
X455060Y678642D01*
Y688340D01*
D02*
G37*
G36*
X506330Y700745D02*
X503448Y700366D01*
X500763Y699253D01*
X498456Y697484D01*
X496687Y695178D01*
X495574Y692492D01*
X495195Y689610D01*
X495574Y686728D01*
X496687Y684042D01*
X498456Y681736D01*
X500763Y679967D01*
X503448Y678854D01*
X506330Y678475D01*
X509212Y678854D01*
X511898Y679967D01*
X514204Y681736D01*
X515974Y684042D01*
X517086Y686728D01*
X517466Y689610D01*
X517086Y692492D01*
X515974Y695178D01*
X514204Y697484D01*
X511898Y699253D01*
X509212Y700366D01*
X506330Y700745D01*
D02*
G37*
G36*
X307748Y687070D02*
X298050D01*
Y677372D01*
X299662Y677584D01*
X302348Y678697D01*
X304654Y680466D01*
X306424Y682772D01*
X307536Y685458D01*
X307748Y687070D01*
D02*
G37*
G36*
X295510D02*
X285812D01*
X286024Y685458D01*
X287137Y682772D01*
X288906Y680466D01*
X291213Y678697D01*
X293898Y677584D01*
X295510Y677372D01*
Y687070D01*
D02*
G37*
G36*
X980239Y676910D02*
X971550D01*
Y668221D01*
X972901Y668398D01*
X975343Y669410D01*
X977441Y671019D01*
X979050Y673117D01*
X980062Y675559D01*
X980239Y676910D01*
D02*
G37*
G36*
X969010D02*
X960321D01*
X960498Y675559D01*
X961510Y673117D01*
X963119Y671019D01*
X965217Y669410D01*
X967659Y668398D01*
X969010Y668221D01*
Y676910D01*
D02*
G37*
G36*
X1086430Y687070D02*
X1078390D01*
X1070350D01*
Y678800D01*
X1073251D01*
Y676337D01*
X1070350D01*
Y668067D01*
X1078390D01*
X1086430D01*
Y676337D01*
X1083529D01*
Y678800D01*
X1086430D01*
Y687070D01*
D02*
G37*
G36*
X337820Y675439D02*
Y666750D01*
X346509D01*
X346332Y668101D01*
X345320Y670543D01*
X343711Y672641D01*
X341613Y674250D01*
X339171Y675262D01*
X337820Y675439D01*
D02*
G37*
G36*
X335280D02*
X333929Y675262D01*
X331487Y674250D01*
X329389Y672641D01*
X327780Y670543D01*
X326768Y668101D01*
X326591Y666750D01*
X335280D01*
Y675439D01*
D02*
G37*
G36*
X926700Y668828D02*
Y659130D01*
X936398D01*
X936186Y660742D01*
X935074Y663428D01*
X933304Y665734D01*
X930998Y667503D01*
X928312Y668616D01*
X926700Y668828D01*
D02*
G37*
G36*
X924160D02*
X922548Y668616D01*
X919863Y667503D01*
X917556Y665734D01*
X915787Y663428D01*
X914674Y660742D01*
X914462Y659130D01*
X924160D01*
Y668828D01*
D02*
G37*
G36*
X346509Y664210D02*
X337820D01*
Y655521D01*
X339171Y655698D01*
X341613Y656710D01*
X343711Y658319D01*
X345320Y660417D01*
X346332Y662859D01*
X346509Y664210D01*
D02*
G37*
G36*
X335280D02*
X326591D01*
X326768Y662859D01*
X327780Y660417D01*
X329389Y658319D01*
X331487Y656710D01*
X333929Y655698D01*
X335280Y655521D01*
Y664210D01*
D02*
G37*
G36*
X412750Y675607D02*
X410129Y675262D01*
X407687Y674250D01*
X405589Y672641D01*
X403980Y670543D01*
X402968Y668101D01*
X402623Y665480D01*
X402968Y662859D01*
X403980Y660417D01*
X405589Y658319D01*
X407687Y656710D01*
X410129Y655698D01*
X412750Y655353D01*
X415371Y655698D01*
X417813Y656710D01*
X419911Y658319D01*
X421520Y660417D01*
X422532Y662859D01*
X422877Y665480D01*
X422532Y668101D01*
X421520Y670543D01*
X419911Y672641D01*
X417813Y674250D01*
X415371Y675262D01*
X412750Y675607D01*
D02*
G37*
G36*
X1414780Y676111D02*
X1412029Y675749D01*
X1409465Y674687D01*
X1407263Y672997D01*
X1405573Y670796D01*
X1404511Y668232D01*
X1404149Y665480D01*
X1404511Y662729D01*
X1405573Y660164D01*
X1407263Y657963D01*
X1409465Y656273D01*
X1412029Y655211D01*
X1414780Y654849D01*
X1417531Y655211D01*
X1420096Y656273D01*
X1422297Y657963D01*
X1423987Y660164D01*
X1425049Y662729D01*
X1425411Y665480D01*
X1425049Y668232D01*
X1423987Y670796D01*
X1422297Y672997D01*
X1420096Y674687D01*
X1417531Y675749D01*
X1414780Y676111D01*
D02*
G37*
G36*
X936398Y656590D02*
X926700D01*
Y646892D01*
X928312Y647104D01*
X930998Y648217D01*
X933304Y649986D01*
X935074Y652292D01*
X936186Y654978D01*
X936398Y656590D01*
D02*
G37*
G36*
X924160D02*
X914462D01*
X914674Y654978D01*
X915787Y652292D01*
X917556Y649986D01*
X919863Y648217D01*
X922548Y647104D01*
X924160Y646892D01*
Y656590D01*
D02*
G37*
G36*
X1414780Y650711D02*
X1412029Y650349D01*
X1409465Y649287D01*
X1407263Y647597D01*
X1405573Y645396D01*
X1404511Y642831D01*
X1404149Y640080D01*
X1404511Y637328D01*
X1405573Y634765D01*
X1407263Y632563D01*
X1409465Y630873D01*
X1412029Y629811D01*
X1414780Y629449D01*
X1417531Y629811D01*
X1420096Y630873D01*
X1422297Y632563D01*
X1423987Y634765D01*
X1425049Y637328D01*
X1425411Y640080D01*
X1425049Y642831D01*
X1423987Y645396D01*
X1422297Y647597D01*
X1420096Y649287D01*
X1417531Y650349D01*
X1414780Y650711D01*
D02*
G37*
G36*
X1416050Y625144D02*
Y615950D01*
X1425244D01*
X1425049Y617431D01*
X1423987Y619995D01*
X1422297Y622197D01*
X1420096Y623887D01*
X1417531Y624949D01*
X1416050Y625144D01*
D02*
G37*
G36*
X1413510D02*
X1412029Y624949D01*
X1409465Y623887D01*
X1407263Y622197D01*
X1405573Y619995D01*
X1404511Y617431D01*
X1404316Y615950D01*
X1413510D01*
Y625144D01*
D02*
G37*
G36*
X1425244Y613410D02*
X1416050D01*
Y604216D01*
X1417531Y604411D01*
X1420096Y605473D01*
X1422297Y607163D01*
X1423987Y609365D01*
X1425049Y611928D01*
X1425244Y613410D01*
D02*
G37*
G36*
X1413510D02*
X1404316D01*
X1404511Y611928D01*
X1405573Y609365D01*
X1407263Y607163D01*
X1409465Y605473D01*
X1412029Y604411D01*
X1413510Y604216D01*
Y613410D01*
D02*
G37*
G36*
X1046480Y713707D02*
X1043859Y713362D01*
X1041417Y712350D01*
X1039319Y710741D01*
X1037710Y708643D01*
X1036698Y706201D01*
X1036353Y703580D01*
X1036698Y700959D01*
X1037710Y698517D01*
X1039319Y696419D01*
X1041341Y694868D01*
Y686892D01*
X1039319Y685341D01*
X1037710Y683243D01*
X1036698Y680801D01*
X1036353Y678180D01*
X1036698Y675559D01*
X1037710Y673117D01*
X1039319Y671019D01*
X1041417Y669410D01*
X1043859Y668398D01*
X1046480Y668053D01*
X1049007Y668386D01*
X1066269Y651124D01*
X1067936Y650010D01*
X1069902Y649619D01*
X1087850D01*
X1089817Y650010D01*
X1091484Y651124D01*
X1097617Y657257D01*
X1106430D01*
Y662350D01*
X1109392D01*
Y660140D01*
X1121205D01*
X1130569Y650777D01*
X1132236Y649663D01*
X1134202Y649271D01*
X1149705D01*
Y599370D01*
X1174785D01*
Y659450D01*
X1155242D01*
X1154745Y659549D01*
X1136331D01*
X1128473Y667407D01*
Y676220D01*
X1109392D01*
Y672627D01*
X1106430D01*
Y676337D01*
X1090350D01*
Y664525D01*
X1087603Y661778D01*
X1086430Y662264D01*
Y665527D01*
X1078390D01*
X1070350D01*
Y663237D01*
X1069177Y662750D01*
X1056274Y675653D01*
X1056607Y678180D01*
X1056262Y680801D01*
X1055250Y683243D01*
X1053641Y685341D01*
X1051619Y686892D01*
Y694868D01*
X1053641Y696419D01*
X1055250Y698517D01*
X1056262Y700959D01*
X1056607Y703580D01*
X1056262Y706201D01*
X1055250Y708643D01*
X1053641Y710741D01*
X1051543Y712350D01*
X1049101Y713362D01*
X1046480Y713707D01*
D02*
G37*
G36*
X926700Y564688D02*
Y554990D01*
X936398D01*
X936186Y556602D01*
X935074Y559288D01*
X933304Y561594D01*
X930998Y563363D01*
X928312Y564476D01*
X926700Y564688D01*
D02*
G37*
G36*
X924160D02*
X922548Y564476D01*
X919863Y563363D01*
X917556Y561594D01*
X915787Y559288D01*
X914674Y556602D01*
X914462Y554990D01*
X924160D01*
Y564688D01*
D02*
G37*
G36*
X936398Y552450D02*
X926700D01*
Y542752D01*
X928312Y542964D01*
X930998Y544077D01*
X933304Y545846D01*
X935074Y548152D01*
X936186Y550838D01*
X936398Y552450D01*
D02*
G37*
G36*
X924160D02*
X914462D01*
X914674Y550838D01*
X915787Y548152D01*
X917556Y545846D01*
X919863Y544077D01*
X922548Y542964D01*
X924160Y542752D01*
Y552450D01*
D02*
G37*
G36*
X289960Y459445D02*
X287078Y459066D01*
X284392Y457953D01*
X282086Y456184D01*
X280316Y453878D01*
X279493Y451890D01*
X266435D01*
X266048Y452824D01*
X264420Y454946D01*
X262297Y456575D01*
X259826Y457598D01*
X257174Y457948D01*
X254521Y457598D01*
X252050Y456575D01*
X249927Y454946D01*
X248299Y452824D01*
X247275Y450352D01*
X247179Y449625D01*
X243526D01*
X242040Y449329D01*
X240779Y448487D01*
X218807Y426515D01*
X218385Y426690D01*
X216155Y426984D01*
X213926Y426690D01*
X211849Y425830D01*
X210065Y424461D01*
X208696Y422677D01*
X207835Y420599D01*
X207542Y418370D01*
X207835Y416141D01*
X208696Y414063D01*
X210065Y412279D01*
X211849Y410910D01*
X213926Y410050D01*
X216155Y409756D01*
X218385Y410050D01*
X220462Y410910D01*
X222246Y412279D01*
X223615Y414063D01*
X224476Y416141D01*
X224769Y418370D01*
X224476Y420599D01*
X224301Y421022D01*
X245135Y441856D01*
X248851D01*
X249927Y440454D01*
X252050Y438825D01*
X254521Y437801D01*
X257174Y437452D01*
X259826Y437801D01*
X262297Y438825D01*
X264420Y440454D01*
X266048Y442576D01*
X266688Y444120D01*
X279746D01*
X280316Y442742D01*
X282086Y440436D01*
X284392Y438667D01*
X287078Y437554D01*
X289960Y437175D01*
X292842Y437554D01*
X294525Y438251D01*
X318963Y413813D01*
X320223Y412971D01*
X321710Y412675D01*
X872097D01*
X872345Y412077D01*
X873770Y410220D01*
X875627Y408795D01*
X877789Y407899D01*
X880110Y407593D01*
X882431Y407899D01*
X884593Y408795D01*
X886450Y410220D01*
X887875Y412077D01*
X888771Y414239D01*
X889077Y416560D01*
X888771Y418881D01*
X887875Y421043D01*
X886450Y422900D01*
X884593Y424325D01*
X882431Y425221D01*
X880110Y425527D01*
X877789Y425221D01*
X875627Y424325D01*
X873770Y422900D01*
X872345Y421043D01*
X872097Y420445D01*
X323319D01*
X300019Y443745D01*
X300716Y445428D01*
X301095Y448310D01*
X300716Y451192D01*
X299603Y453878D01*
X297834Y456184D01*
X295527Y457953D01*
X292842Y459066D01*
X289960Y459445D01*
D02*
G37*
G36*
X341230Y459278D02*
Y449580D01*
X350928D01*
X350716Y451192D01*
X349604Y453878D01*
X347834Y456184D01*
X345528Y457953D01*
X342842Y459066D01*
X341230Y459278D01*
D02*
G37*
G36*
X338690D02*
X337078Y459066D01*
X334393Y457953D01*
X332086Y456184D01*
X330317Y453878D01*
X329204Y451192D01*
X328992Y449580D01*
X338690D01*
Y459278D01*
D02*
G37*
G36*
X1063180Y465256D02*
X1055180D01*
X1053473Y465032D01*
X1051882Y464373D01*
X1050516Y463324D01*
X1049467Y461958D01*
X1048808Y460367D01*
X1048584Y458660D01*
Y450660D01*
X1048808Y448953D01*
X1049467Y447362D01*
X1050516Y445996D01*
X1051882Y444947D01*
X1053473Y444288D01*
X1055180Y444064D01*
X1063180D01*
X1064887Y444288D01*
X1066478Y444947D01*
X1067844Y445996D01*
X1068893Y447362D01*
X1069552Y448953D01*
X1069776Y450660D01*
Y458660D01*
X1069552Y460367D01*
X1068893Y461958D01*
X1067844Y463324D01*
X1066478Y464373D01*
X1064887Y465032D01*
X1063180Y465256D01*
D02*
G37*
G36*
X350928Y447040D02*
X341230D01*
Y437342D01*
X342842Y437554D01*
X345528Y438667D01*
X347834Y440436D01*
X349604Y442742D01*
X350716Y445428D01*
X350928Y447040D01*
D02*
G37*
G36*
X338690D02*
X328992D01*
X329204Y445428D01*
X330317Y442742D01*
X332086Y440436D01*
X334393Y438667D01*
X337078Y437554D01*
X338690Y437342D01*
Y447040D01*
D02*
G37*
G36*
X1059180Y414491D02*
X1056429Y414129D01*
X1053865Y413067D01*
X1051663Y411377D01*
X1049973Y409175D01*
X1048911Y406612D01*
X1048549Y403860D01*
X1048911Y401109D01*
X1049973Y398545D01*
X1051663Y396343D01*
X1053865Y394653D01*
X1056429Y393591D01*
X1059180Y393229D01*
X1061932Y393591D01*
X1064495Y394653D01*
X1066697Y396343D01*
X1068387Y398545D01*
X1069449Y401109D01*
X1069811Y403860D01*
X1069449Y406612D01*
X1068387Y409175D01*
X1066697Y411377D01*
X1064495Y413067D01*
X1061932Y414129D01*
X1059180Y414491D01*
D02*
G37*
G36*
X881380Y393777D02*
X879059Y393471D01*
X876897Y392575D01*
X875040Y391150D01*
X873615Y389293D01*
X873367Y388695D01*
X323850D01*
X322363Y388399D01*
X321103Y387557D01*
X287612Y354065D01*
X286770Y352805D01*
X286474Y351319D01*
Y351203D01*
X285808Y351116D01*
X283122Y350003D01*
X280816Y348234D01*
X279046Y345928D01*
X278213Y343914D01*
X266425D01*
X266048Y344824D01*
X264420Y346946D01*
X262297Y348575D01*
X259826Y349599D01*
X257174Y349948D01*
X254521Y349599D01*
X252050Y348575D01*
X249927Y346946D01*
X248851Y345544D01*
X245675D01*
X224301Y366918D01*
X224476Y367341D01*
X224769Y369570D01*
X224476Y371799D01*
X223615Y373877D01*
X222246Y375661D01*
X220462Y377030D01*
X218385Y377890D01*
X216155Y378184D01*
X213926Y377890D01*
X211849Y377030D01*
X210065Y375661D01*
X208696Y373877D01*
X207835Y371799D01*
X207542Y369570D01*
X207835Y367341D01*
X208696Y365263D01*
X210065Y363479D01*
X211849Y362110D01*
X213926Y361250D01*
X216155Y360956D01*
X218385Y361250D01*
X218807Y361425D01*
X241319Y338913D01*
X242579Y338070D01*
X244066Y337775D01*
X247179D01*
X247275Y337048D01*
X248299Y334576D01*
X249927Y332454D01*
X252050Y330825D01*
X254521Y329802D01*
X257174Y329452D01*
X259826Y329802D01*
X262297Y330825D01*
X264420Y332454D01*
X266048Y334576D01*
X266698Y336145D01*
X278486D01*
X279046Y334792D01*
X280816Y332486D01*
X283122Y330717D01*
X285808Y329604D01*
X288690Y329225D01*
X291572Y329604D01*
X294257Y330717D01*
X296564Y332486D01*
X298333Y334792D01*
X299446Y337478D01*
X299825Y340360D01*
X299446Y343242D01*
X298333Y345928D01*
X296564Y348234D01*
X295180Y349296D01*
X295097Y350563D01*
X325459Y380925D01*
X873367D01*
X873615Y380327D01*
X875040Y378470D01*
X876897Y377045D01*
X879059Y376149D01*
X881380Y375843D01*
X883701Y376149D01*
X885863Y377045D01*
X887720Y378470D01*
X889145Y380327D01*
X890041Y382489D01*
X890347Y384810D01*
X890041Y387131D01*
X889145Y389293D01*
X887720Y391150D01*
X885863Y392575D01*
X883701Y393471D01*
X881380Y393777D01*
D02*
G37*
G36*
X1059180Y389091D02*
X1056429Y388729D01*
X1053865Y387667D01*
X1051663Y385977D01*
X1049973Y383775D01*
X1048911Y381212D01*
X1048549Y378460D01*
X1048911Y375709D01*
X1049973Y373144D01*
X1051663Y370943D01*
X1053865Y369253D01*
X1056429Y368191D01*
X1059180Y367829D01*
X1061932Y368191D01*
X1064495Y369253D01*
X1066697Y370943D01*
X1068387Y373144D01*
X1069449Y375709D01*
X1069811Y378460D01*
X1069449Y381212D01*
X1068387Y383775D01*
X1066697Y385977D01*
X1064495Y387667D01*
X1061932Y388729D01*
X1059180Y389091D01*
D02*
G37*
G36*
X339960Y351328D02*
Y341630D01*
X349658D01*
X349446Y343242D01*
X348334Y345928D01*
X346564Y348234D01*
X344258Y350003D01*
X341572Y351116D01*
X339960Y351328D01*
D02*
G37*
G36*
X337420D02*
X335808Y351116D01*
X333123Y350003D01*
X330816Y348234D01*
X329047Y345928D01*
X327934Y343242D01*
X327722Y341630D01*
X337420D01*
Y351328D01*
D02*
G37*
G36*
X349658Y339090D02*
X339960D01*
Y329392D01*
X341572Y329604D01*
X344258Y330717D01*
X346564Y332486D01*
X348334Y334792D01*
X349446Y337478D01*
X349658Y339090D01*
D02*
G37*
G36*
X337420D02*
X327722D01*
X327934Y337478D01*
X329047Y334792D01*
X330816Y332486D01*
X333123Y330717D01*
X335808Y329604D01*
X337420Y329392D01*
Y339090D01*
D02*
G37*
G36*
X579990Y727164D02*
X577761Y726870D01*
X575683Y726010D01*
X573899Y724641D01*
X572531Y722857D01*
X571670Y720780D01*
X571376Y718550D01*
X571670Y716321D01*
X572531Y714243D01*
X573899Y712459D01*
X574851Y711729D01*
Y663226D01*
X575243Y661259D01*
X576357Y659592D01*
X769682Y466266D01*
X771349Y465152D01*
X773316Y464761D01*
X914811D01*
X1048985Y330588D01*
X1048911Y330411D01*
X1048549Y327660D01*
X1048911Y324908D01*
X1049973Y322345D01*
X1051663Y320143D01*
X1053865Y318453D01*
X1056429Y317391D01*
X1059180Y317029D01*
X1061932Y317391D01*
X1064495Y318453D01*
X1066697Y320143D01*
X1068387Y322345D01*
X1069449Y324908D01*
X1069811Y327660D01*
X1069449Y330411D01*
X1068387Y332976D01*
X1066697Y335177D01*
X1064495Y336867D01*
X1061932Y337929D01*
X1059180Y338291D01*
X1056429Y337929D01*
X1056252Y337855D01*
X920574Y473534D01*
X918906Y474648D01*
X916940Y475039D01*
X775444D01*
X585129Y665354D01*
Y711729D01*
X586081Y712459D01*
X587450Y714243D01*
X588310Y716321D01*
X588604Y718550D01*
X588310Y720780D01*
X587450Y722857D01*
X586081Y724641D01*
X584297Y726010D01*
X582220Y726870D01*
X579990Y727164D01*
D02*
G37*
G36*
X1059180Y287491D02*
X1056429Y287129D01*
X1053865Y286067D01*
X1051663Y284377D01*
X1049973Y282176D01*
X1048911Y279611D01*
X1048549Y276860D01*
X1048911Y274109D01*
X1049973Y271544D01*
X1051663Y269343D01*
X1053865Y267653D01*
X1056429Y266591D01*
X1059180Y266229D01*
X1061932Y266591D01*
X1064495Y267653D01*
X1066697Y269343D01*
X1068387Y271544D01*
X1069449Y274109D01*
X1069811Y276860D01*
X1069449Y279611D01*
X1068387Y282176D01*
X1066697Y284377D01*
X1064495Y286067D01*
X1061932Y287129D01*
X1059180Y287491D01*
D02*
G37*
G36*
X291230Y263865D02*
X288348Y263486D01*
X285662Y262373D01*
X283356Y260604D01*
X281586Y258298D01*
X281546Y258199D01*
X268463D01*
X268333Y258514D01*
X266704Y260636D01*
X264582Y262265D01*
X262110Y263288D01*
X259458Y263638D01*
X256806Y263288D01*
X254334Y262265D01*
X252212Y260636D01*
X250583Y258514D01*
X249778Y256569D01*
X244811D01*
X242844Y256178D01*
X241177Y255064D01*
X219630Y233517D01*
X218440Y233674D01*
X216211Y233380D01*
X214133Y232520D01*
X212349Y231151D01*
X210980Y229367D01*
X210120Y227290D01*
X209826Y225060D01*
X210120Y222831D01*
X210980Y220753D01*
X212349Y218969D01*
X214133Y217601D01*
X216211Y216740D01*
X218440Y216447D01*
X220669Y216740D01*
X222747Y217601D01*
X224531Y218969D01*
X225900Y220753D01*
X226760Y222831D01*
X227054Y225060D01*
X226897Y226250D01*
X246939Y246292D01*
X252098D01*
X252212Y246144D01*
X254334Y244515D01*
X256806Y243491D01*
X259458Y243142D01*
X262110Y243491D01*
X264582Y244515D01*
X266704Y246144D01*
X268068Y247922D01*
X281272D01*
X281586Y247162D01*
X283356Y244856D01*
X285662Y243087D01*
X288348Y241974D01*
X288738Y241923D01*
X288778Y241717D01*
X289892Y240050D01*
X318946Y210996D01*
X320614Y209882D01*
X322580Y209491D01*
X876657D01*
X877580Y208290D01*
X879437Y206865D01*
X881599Y205969D01*
X883920Y205663D01*
X886241Y205969D01*
X888403Y206865D01*
X890260Y208290D01*
X891685Y210147D01*
X892581Y212309D01*
X892887Y214630D01*
X892581Y216951D01*
X891685Y219113D01*
X890260Y220970D01*
X888403Y222395D01*
X886241Y223291D01*
X883920Y223597D01*
X881599Y223291D01*
X879437Y222395D01*
X877580Y220970D01*
X876657Y219769D01*
X324709D01*
X299328Y245149D01*
X300873Y247162D01*
X301986Y249848D01*
X302365Y252730D01*
X301986Y255612D01*
X300873Y258298D01*
X299104Y260604D01*
X296797Y262373D01*
X294112Y263486D01*
X291230Y263865D01*
D02*
G37*
G36*
X342500Y263698D02*
Y254000D01*
X352198D01*
X351986Y255612D01*
X350874Y258298D01*
X349104Y260604D01*
X346798Y262373D01*
X344112Y263486D01*
X342500Y263698D01*
D02*
G37*
G36*
X339960D02*
X338348Y263486D01*
X335663Y262373D01*
X333356Y260604D01*
X331587Y258298D01*
X330474Y255612D01*
X330262Y254000D01*
X339960D01*
Y263698D01*
D02*
G37*
G36*
X352198Y251460D02*
X342500D01*
Y241762D01*
X344112Y241974D01*
X346798Y243087D01*
X349104Y244856D01*
X350874Y247162D01*
X351986Y249848D01*
X352198Y251460D01*
D02*
G37*
G36*
X339960D02*
X330262D01*
X330474Y249848D01*
X331587Y247162D01*
X333356Y244856D01*
X335663Y243087D01*
X338348Y241974D01*
X339960Y241762D01*
Y251460D01*
D02*
G37*
G36*
X1059180Y262091D02*
X1056429Y261729D01*
X1053865Y260667D01*
X1051663Y258977D01*
X1049973Y256775D01*
X1048911Y254212D01*
X1048549Y251460D01*
X1048911Y248708D01*
X1049973Y246145D01*
X1051663Y243943D01*
X1053865Y242253D01*
X1056429Y241191D01*
X1059180Y240829D01*
X1061932Y241191D01*
X1064495Y242253D01*
X1066697Y243943D01*
X1068387Y246145D01*
X1069449Y248708D01*
X1069811Y251460D01*
X1069449Y254212D01*
X1068387Y256775D01*
X1066697Y258977D01*
X1064495Y260667D01*
X1061932Y261729D01*
X1059180Y262091D01*
D02*
G37*
G36*
Y236691D02*
X1056429Y236329D01*
X1053865Y235267D01*
X1051663Y233577D01*
X1049973Y231376D01*
X1048911Y228811D01*
X1048549Y226060D01*
X1048911Y223309D01*
X1049973Y220744D01*
X1051663Y218543D01*
X1053865Y216853D01*
X1056429Y215791D01*
X1059180Y215429D01*
X1061932Y215791D01*
X1064495Y216853D01*
X1066697Y218543D01*
X1068387Y220744D01*
X1069449Y223309D01*
X1069811Y226060D01*
X1069449Y228811D01*
X1068387Y231376D01*
X1066697Y233577D01*
X1064495Y235267D01*
X1061932Y236329D01*
X1059180Y236691D01*
D02*
G37*
G36*
X218440Y184874D02*
X216211Y184580D01*
X214133Y183720D01*
X212349Y182351D01*
X210980Y180567D01*
X210120Y178490D01*
X209826Y176260D01*
X210120Y174031D01*
X210980Y171953D01*
X212349Y170170D01*
X214133Y168801D01*
X216211Y167940D01*
X218440Y167647D01*
X219630Y167803D01*
X243717Y143716D01*
X245384Y142602D01*
X247351Y142211D01*
X249778D01*
X250583Y140266D01*
X252212Y138144D01*
X254334Y136515D01*
X256806Y135492D01*
X259458Y135142D01*
X262110Y135492D01*
X264582Y136515D01*
X266704Y138144D01*
X268087Y139946D01*
X281283D01*
X281586Y139212D01*
X283356Y136906D01*
X285662Y135137D01*
X288348Y134024D01*
X291230Y133645D01*
X294112Y134024D01*
X296797Y135137D01*
X299104Y136906D01*
X300873Y139212D01*
X301986Y141898D01*
X302365Y144780D01*
X301986Y147662D01*
X300947Y150170D01*
X322169Y171391D01*
X875900D01*
X876155Y170777D01*
X877580Y168920D01*
X879437Y167495D01*
X881599Y166599D01*
X883920Y166293D01*
X886241Y166599D01*
X888403Y167495D01*
X890260Y168920D01*
X891685Y170777D01*
X892581Y172939D01*
X892887Y175260D01*
X892581Y177581D01*
X891685Y179743D01*
X890260Y181600D01*
X888403Y183025D01*
X886241Y183921D01*
X883920Y184227D01*
X881599Y183921D01*
X879437Y183025D01*
X877669Y181669D01*
X320040D01*
X318074Y181278D01*
X316406Y180164D01*
X292050Y155807D01*
X291230Y155915D01*
X288348Y155536D01*
X285662Y154423D01*
X283356Y152654D01*
X281586Y150348D01*
X281535Y150224D01*
X268453D01*
X268333Y150514D01*
X266704Y152636D01*
X264582Y154265D01*
X262110Y155289D01*
X259458Y155638D01*
X256806Y155289D01*
X254334Y154265D01*
X252212Y152636D01*
X252098Y152488D01*
X249479D01*
X226897Y175070D01*
X227054Y176260D01*
X226760Y178490D01*
X225900Y180567D01*
X224531Y182351D01*
X222747Y183720D01*
X220669Y184580D01*
X218440Y184874D01*
D02*
G37*
G36*
X342500Y155748D02*
Y146050D01*
X352198D01*
X351986Y147662D01*
X350874Y150348D01*
X349104Y152654D01*
X346798Y154423D01*
X344112Y155536D01*
X342500Y155748D01*
D02*
G37*
G36*
X339960D02*
X338348Y155536D01*
X335663Y154423D01*
X333356Y152654D01*
X331587Y150348D01*
X330474Y147662D01*
X330262Y146050D01*
X339960D01*
Y155748D01*
D02*
G37*
G36*
X352198Y143510D02*
X342500D01*
Y133812D01*
X344112Y134024D01*
X346798Y135137D01*
X349104Y136906D01*
X350874Y139212D01*
X351986Y141898D01*
X352198Y143510D01*
D02*
G37*
G36*
X339960D02*
X330262D01*
X330474Y141898D01*
X331587Y139212D01*
X333356Y136906D01*
X335663Y135137D01*
X338348Y134024D01*
X339960Y133812D01*
Y143510D01*
D02*
G37*
G36*
X47270Y73525D02*
Y47270D01*
X73525D01*
X73285Y50321D01*
X72273Y54537D01*
X70614Y58542D01*
X68349Y62238D01*
X65534Y65534D01*
X62238Y68349D01*
X58542Y70614D01*
X54537Y72273D01*
X50321Y73285D01*
X47270Y73525D01*
D02*
G37*
G36*
X44730D02*
X41679Y73285D01*
X37463Y72273D01*
X33458Y70614D01*
X29762Y68349D01*
X26466Y65534D01*
X23651Y62238D01*
X21386Y58542D01*
X19727Y54537D01*
X18715Y50321D01*
X18475Y47270D01*
X44730D01*
Y73525D01*
D02*
G37*
G36*
X73525Y44730D02*
X47270D01*
Y18475D01*
X50321Y18715D01*
X54537Y19727D01*
X58542Y21386D01*
X62238Y23651D01*
X65534Y26466D01*
X68349Y29762D01*
X70614Y33458D01*
X72273Y37463D01*
X73285Y41679D01*
X73525Y44730D01*
D02*
G37*
G36*
X44730D02*
X18475D01*
X18715Y41679D01*
X19727Y37463D01*
X21386Y33458D01*
X23651Y29762D01*
X26466Y26466D01*
X29762Y23651D01*
X33458Y21386D01*
X37463Y19727D01*
X41679Y18715D01*
X44730Y18475D01*
Y44730D01*
D02*
G37*
%LPD*%
G36*
X1486000Y776000D02*
X1420410D01*
X1418848Y776902D01*
X1416168Y777620D01*
X1413392D01*
X1410712Y776902D01*
X1409150Y776000D01*
X1113763D01*
X1113690Y777240D01*
X1115951Y777846D01*
X1117979Y779016D01*
X1119634Y780671D01*
X1120804Y782699D01*
X1121410Y784960D01*
Y787300D01*
X1121232Y787965D01*
X1124217Y790950D01*
X1136030D01*
Y793851D01*
X1138540D01*
Y790950D01*
X1157620D01*
Y807030D01*
X1138540D01*
Y804129D01*
X1136030D01*
Y807030D01*
X1121956D01*
X1121470Y808203D01*
X1124217Y810950D01*
X1136030D01*
Y827030D01*
X1132344D01*
Y829993D01*
X1135960D01*
Y849072D01*
X1127147D01*
X1125639Y850581D01*
Y875345D01*
X1125540Y875842D01*
Y895385D01*
X1065460D01*
Y870305D01*
X1115361D01*
Y848453D01*
X1115753Y846486D01*
X1116867Y844819D01*
X1119880Y841805D01*
Y829993D01*
X1122066D01*
Y827030D01*
X1116950D01*
Y818217D01*
X1109051Y810319D01*
X1055106D01*
X1054514Y811345D01*
X1052645Y813214D01*
X1050355Y814536D01*
X1047802Y815220D01*
X1045158D01*
X1042605Y814536D01*
X1040315Y813214D01*
X1038446Y811345D01*
X1037124Y809055D01*
X1036440Y806502D01*
Y803858D01*
X1037124Y801305D01*
X1038446Y799015D01*
X1040315Y797146D01*
X1041341Y796554D01*
Y788406D01*
X1040315Y787814D01*
X1038446Y785945D01*
X1037124Y783655D01*
X1036440Y781102D01*
Y778458D01*
X1036829Y777008D01*
X1036056Y776000D01*
X980704D01*
X979931Y777008D01*
X980320Y778458D01*
Y781102D01*
X979636Y783655D01*
X978314Y785945D01*
X976445Y787814D01*
X974155Y789136D01*
X971602Y789820D01*
X968958D01*
X967814Y789513D01*
X943434Y813894D01*
X941767Y815008D01*
X939800Y815399D01*
X900830D01*
X898863Y815008D01*
X897196Y813894D01*
X877442Y794140D01*
X875613Y794630D01*
X872706D01*
X869899Y793878D01*
X867381Y792424D01*
X865326Y790369D01*
X864188Y788399D01*
X851216D01*
X850772Y789168D01*
X848880Y791060D01*
X846564Y792398D01*
X843979Y793090D01*
X841304D01*
X838720Y792398D01*
X836404Y791060D01*
X835923Y790580D01*
X810134Y816369D01*
X810165Y816486D01*
Y818735D01*
X809584Y820907D01*
X808459Y822854D01*
X806869Y824444D01*
X804922Y825568D01*
X802750Y826150D01*
X800501D01*
X798329Y825568D01*
X796382Y824444D01*
X794792Y822854D01*
X793668Y820907D01*
X793085Y818735D01*
Y816486D01*
X793668Y814314D01*
X794792Y812367D01*
X796382Y810777D01*
X798329Y809652D01*
X800501Y809070D01*
X802750D01*
X802867Y809102D01*
X830713Y781256D01*
X832380Y780142D01*
X832898Y780039D01*
X833174Y779008D01*
X834178Y777270D01*
X833486Y776000D01*
X417380D01*
X416625Y776436D01*
X414072Y777120D01*
X411428D01*
X408875Y776436D01*
X408120Y776000D01*
X376000D01*
Y986000D01*
X1433075D01*
X1433461Y984730D01*
X1431632Y983508D01*
X1428492Y980368D01*
X1426025Y976677D01*
X1424326Y972575D01*
X1423460Y968220D01*
Y963780D01*
X1424326Y959425D01*
X1426025Y955323D01*
X1428492Y951632D01*
X1431632Y948492D01*
X1435323Y946025D01*
X1439425Y944326D01*
X1443780Y943460D01*
X1448220D01*
X1452575Y944326D01*
X1456677Y946025D01*
X1460368Y948492D01*
X1463508Y951632D01*
X1465975Y955323D01*
X1467674Y959425D01*
X1468540Y963780D01*
Y968220D01*
X1467674Y972575D01*
X1465975Y976677D01*
X1463508Y980368D01*
X1460368Y983508D01*
X1458539Y984730D01*
X1458925Y986000D01*
X1486000D01*
Y776000D01*
D02*
G37*
G36*
X1116950Y802023D02*
Y798217D01*
X1113740Y795007D01*
X1113690Y795020D01*
X1111350D01*
X1109089Y794414D01*
X1107061Y793244D01*
X1105406Y791589D01*
X1104236Y789561D01*
X1103630Y787300D01*
Y784960D01*
X1104236Y782699D01*
X1105406Y780671D01*
X1107061Y779016D01*
X1109089Y777846D01*
X1111350Y777240D01*
X1111277Y776000D01*
X1056904D01*
X1056131Y777008D01*
X1056520Y778458D01*
Y781102D01*
X1055836Y783655D01*
X1054514Y785945D01*
X1052645Y787814D01*
X1051619Y788406D01*
Y796554D01*
X1052645Y797146D01*
X1054514Y799015D01*
X1055106Y800041D01*
X1111180D01*
X1113146Y800432D01*
X1114814Y801546D01*
X1115777Y802510D01*
X1116950Y802023D01*
D02*
G37*
G36*
X960547Y782246D02*
X960240Y781102D01*
Y778458D01*
X960547Y777314D01*
X959233Y776000D01*
X933865D01*
X933259Y777270D01*
X934448Y779329D01*
X935200Y782137D01*
Y785043D01*
X934448Y787851D01*
X932994Y790369D01*
X930939Y792424D01*
X928421Y793878D01*
X925614Y794630D01*
X922707D01*
X919899Y793878D01*
X917382Y792424D01*
X915326Y790369D01*
X913873Y787851D01*
X913120Y785043D01*
Y782137D01*
X913873Y779329D01*
X915061Y777270D01*
X914456Y776000D01*
X883864D01*
X883259Y777270D01*
X884447Y779329D01*
X885200Y782137D01*
Y785043D01*
X884710Y786873D01*
X902958Y805121D01*
X937672D01*
X960547Y782246D01*
D02*
G37*
%LPC*%
G36*
X875613Y901310D02*
X872706D01*
X869899Y900558D01*
X867381Y899104D01*
X865326Y897049D01*
X864569Y895739D01*
X851597D01*
X850772Y897168D01*
X848880Y899060D01*
X846564Y900397D01*
X843979Y901090D01*
X841304D01*
X838720Y900397D01*
X836404Y899060D01*
X834512Y897168D01*
X833877Y896069D01*
X826145D01*
X824179Y895677D01*
X822512Y894564D01*
X802867Y874919D01*
X802750Y874950D01*
X800501D01*
X798329Y874368D01*
X796382Y873244D01*
X794792Y871654D01*
X793668Y869707D01*
X793085Y867535D01*
Y865286D01*
X793668Y863114D01*
X794792Y861167D01*
X796382Y859577D01*
X798329Y858452D01*
X800501Y857870D01*
X802750D01*
X804922Y858452D01*
X806869Y859577D01*
X808459Y861167D01*
X809584Y863114D01*
X810165Y865286D01*
Y867535D01*
X810134Y867652D01*
X828274Y885791D01*
X833877D01*
X834512Y884691D01*
X836404Y882800D01*
X838720Y881462D01*
X841304Y880770D01*
X843979D01*
X846564Y881462D01*
X848880Y882800D01*
X850772Y884691D01*
X851217Y885462D01*
X864188D01*
X865326Y883491D01*
X867381Y881436D01*
X869899Y879982D01*
X872706Y879230D01*
X875613D01*
X877442Y879720D01*
X930216Y826946D01*
X931883Y825832D01*
X933850Y825441D01*
X960240D01*
Y820540D01*
X965141D01*
Y813806D01*
X964115Y813214D01*
X962246Y811345D01*
X960924Y809055D01*
X960240Y806502D01*
Y803858D01*
X960924Y801305D01*
X962246Y799015D01*
X964115Y797146D01*
X966405Y795824D01*
X968958Y795140D01*
X971602D01*
X974155Y795824D01*
X976445Y797146D01*
X978314Y799015D01*
X979636Y801305D01*
X980320Y803858D01*
Y806502D01*
X979636Y809055D01*
X978314Y811345D01*
X976445Y813214D01*
X975419Y813806D01*
Y820540D01*
X980320D01*
Y840620D01*
X960240D01*
Y835719D01*
X935978D01*
X884710Y886987D01*
X885200Y888817D01*
Y891723D01*
X884447Y894531D01*
X882994Y897049D01*
X880938Y899104D01*
X878421Y900558D01*
X875613Y901310D01*
D02*
G37*
G36*
X925614D02*
X922707D01*
X919899Y900558D01*
X917382Y899104D01*
X915326Y897049D01*
X913873Y894531D01*
X913120Y891723D01*
Y888817D01*
X913873Y886009D01*
X915326Y883491D01*
X917382Y881436D01*
X919899Y879982D01*
X922707Y879230D01*
X925614D01*
X928421Y879982D01*
X930939Y881436D01*
X932994Y883491D01*
X934448Y886009D01*
X935200Y888817D01*
Y891723D01*
X934448Y894531D01*
X932994Y897049D01*
X930939Y899104D01*
X928421Y900558D01*
X925614Y901310D01*
D02*
G37*
G36*
X1418780Y853876D02*
X1416050D01*
Y844550D01*
X1425376D01*
Y847280D01*
X1425152Y848987D01*
X1424493Y850578D01*
X1423444Y851944D01*
X1422078Y852993D01*
X1420487Y853652D01*
X1418780Y853876D01*
D02*
G37*
G36*
X1413510D02*
X1410780D01*
X1409073Y853652D01*
X1407482Y852993D01*
X1406116Y851944D01*
X1405067Y850578D01*
X1404408Y848987D01*
X1404184Y847280D01*
Y844550D01*
X1413510D01*
Y853876D01*
D02*
G37*
G36*
X1425376Y842010D02*
X1416050D01*
Y832684D01*
X1418780D01*
X1420487Y832908D01*
X1422078Y833567D01*
X1423444Y834616D01*
X1424493Y835982D01*
X1425152Y837573D01*
X1425376Y839280D01*
Y842010D01*
D02*
G37*
G36*
X1413510D02*
X1404184D01*
Y839280D01*
X1404408Y837573D01*
X1405067Y835982D01*
X1406116Y834616D01*
X1407482Y833567D01*
X1409073Y832908D01*
X1410780Y832684D01*
X1413510D01*
Y842010D01*
D02*
G37*
G36*
X1047802Y840620D02*
X1047750D01*
Y831850D01*
X1056520D01*
Y831902D01*
X1055836Y834455D01*
X1054514Y836745D01*
X1052645Y838614D01*
X1050355Y839936D01*
X1047802Y840620D01*
D02*
G37*
G36*
X1045210D02*
X1045158D01*
X1042605Y839936D01*
X1040315Y838614D01*
X1038446Y836745D01*
X1037124Y834455D01*
X1036440Y831902D01*
Y831850D01*
X1045210D01*
Y840620D01*
D02*
G37*
G36*
X1056520Y829310D02*
X1047750D01*
Y820540D01*
X1047802D01*
X1050355Y821224D01*
X1052645Y822546D01*
X1054514Y824415D01*
X1055836Y826705D01*
X1056520Y829258D01*
Y829310D01*
D02*
G37*
G36*
X1045210D02*
X1036440D01*
Y829258D01*
X1037124Y826705D01*
X1038446Y824415D01*
X1040315Y822546D01*
X1042605Y821224D01*
X1045158Y820540D01*
X1045210D01*
Y829310D01*
D02*
G37*
G36*
X414072Y827920D02*
X414020D01*
Y819150D01*
X422790D01*
Y819202D01*
X422106Y821755D01*
X420784Y824045D01*
X418915Y825914D01*
X416625Y827236D01*
X414072Y827920D01*
D02*
G37*
G36*
X411480D02*
X411428D01*
X408875Y827236D01*
X406585Y825914D01*
X404716Y824045D01*
X403394Y821755D01*
X402710Y819202D01*
Y819150D01*
X411480D01*
Y827920D01*
D02*
G37*
G36*
X1220540Y895385D02*
X1160460D01*
Y875842D01*
X1160361Y875345D01*
Y860741D01*
X1148693Y849072D01*
X1139880D01*
Y829993D01*
X1142861D01*
Y827030D01*
X1138540D01*
Y810950D01*
X1157620D01*
Y813851D01*
X1161194D01*
X1161286Y813691D01*
X1162941Y812036D01*
X1164969Y810866D01*
X1167230Y810260D01*
X1169570D01*
X1171831Y810866D01*
X1173859Y812036D01*
X1175514Y813691D01*
X1176684Y815719D01*
X1177290Y817980D01*
Y820320D01*
X1176684Y822581D01*
X1175514Y824609D01*
X1173859Y826264D01*
X1171831Y827434D01*
X1169570Y828040D01*
X1167230D01*
X1164969Y827434D01*
X1162941Y826264D01*
X1161286Y824609D01*
X1161009Y824129D01*
X1157620D01*
Y827030D01*
X1153139D01*
Y829993D01*
X1155960D01*
Y841805D01*
X1169134Y854979D01*
X1170247Y856646D01*
X1170639Y858613D01*
Y870305D01*
X1220540D01*
Y895385D01*
D02*
G37*
G36*
X422790Y816610D02*
X414020D01*
Y807840D01*
X414072D01*
X416625Y808524D01*
X418915Y809846D01*
X420784Y811715D01*
X422106Y814005D01*
X422790Y816558D01*
Y816610D01*
D02*
G37*
G36*
X411480D02*
X402710D01*
Y816558D01*
X403394Y814005D01*
X404716Y811715D01*
X406585Y809846D01*
X408875Y808524D01*
X411428Y807840D01*
X411480D01*
Y816610D01*
D02*
G37*
G36*
X1416168Y828420D02*
X1413392D01*
X1410712Y827702D01*
X1408308Y826314D01*
X1406346Y824352D01*
X1404958Y821948D01*
X1404240Y819268D01*
Y816492D01*
X1404958Y813812D01*
X1406346Y811408D01*
X1408308Y809446D01*
X1410712Y808058D01*
X1413392Y807340D01*
X1416168D01*
X1418848Y808058D01*
X1421252Y809446D01*
X1423214Y811408D01*
X1424602Y813812D01*
X1425320Y816492D01*
Y819268D01*
X1424602Y821948D01*
X1423214Y824352D01*
X1421252Y826314D01*
X1418848Y827702D01*
X1416168Y828420D01*
D02*
G37*
G36*
X539418Y807110D02*
X536743D01*
X534159Y806417D01*
X531842Y805080D01*
X529950Y803188D01*
X528613Y800872D01*
X527920Y798288D01*
Y795612D01*
X528613Y793028D01*
X529950Y790712D01*
X531842Y788820D01*
X534159Y787482D01*
X536743Y786790D01*
X539418D01*
X542002Y787482D01*
X544319Y788820D01*
X546210Y790712D01*
X547548Y793028D01*
X548240Y795612D01*
Y798288D01*
X547548Y800872D01*
X546210Y803188D01*
X544319Y805080D01*
X542002Y806417D01*
X539418Y807110D01*
D02*
G37*
G36*
X507784Y808600D02*
X504877D01*
X502069Y807848D01*
X499552Y806394D01*
X497496Y804339D01*
X496043Y801821D01*
X495290Y799013D01*
Y796107D01*
X496043Y793299D01*
X497496Y790781D01*
X499552Y788726D01*
X502069Y787272D01*
X504877Y786520D01*
X507784D01*
X510592Y787272D01*
X513109Y788726D01*
X515164Y790781D01*
X516618Y793299D01*
X517370Y796107D01*
Y799013D01*
X516618Y801821D01*
X515164Y804339D01*
X513109Y806394D01*
X510592Y807848D01*
X507784Y808600D01*
D02*
G37*
G36*
X457783D02*
X454876D01*
X452068Y807848D01*
X449551Y806394D01*
X447496Y804339D01*
X446042Y801821D01*
X445290Y799013D01*
Y796107D01*
X446042Y793299D01*
X447496Y790781D01*
X449551Y788726D01*
X452068Y787272D01*
X454876Y786520D01*
X457783D01*
X460591Y787272D01*
X463108Y788726D01*
X465164Y790781D01*
X466617Y793299D01*
X467370Y796107D01*
Y799013D01*
X466617Y801821D01*
X465164Y804339D01*
X463108Y806394D01*
X460591Y807848D01*
X457783Y808600D01*
D02*
G37*
G36*
X414072Y802520D02*
X411428D01*
X408875Y801836D01*
X406585Y800514D01*
X404716Y798645D01*
X403394Y796355D01*
X402710Y793802D01*
Y791158D01*
X403394Y788605D01*
X404716Y786315D01*
X406585Y784446D01*
X408875Y783124D01*
X411428Y782440D01*
X414072D01*
X416625Y783124D01*
X418915Y784446D01*
X420784Y786315D01*
X422106Y788605D01*
X422790Y791158D01*
Y793802D01*
X422106Y796355D01*
X420784Y798645D01*
X418915Y800514D01*
X416625Y801836D01*
X414072Y802520D01*
D02*
G37*
G36*
X1416168Y803020D02*
X1413392D01*
X1410712Y802302D01*
X1408308Y800914D01*
X1406346Y798952D01*
X1404958Y796548D01*
X1404240Y793868D01*
Y791092D01*
X1404958Y788412D01*
X1406346Y786008D01*
X1408308Y784046D01*
X1410712Y782658D01*
X1413392Y781940D01*
X1416168D01*
X1418848Y782658D01*
X1421252Y784046D01*
X1423214Y786008D01*
X1424602Y788412D01*
X1425320Y791092D01*
Y793868D01*
X1424602Y796548D01*
X1423214Y798952D01*
X1421252Y800914D01*
X1418848Y802302D01*
X1416168Y803020D01*
D02*
G37*
%LPD*%
D13*
X736600Y450850D02*
X880110D01*
X1028700Y302260D01*
X1059180D01*
X477520Y532130D02*
X655320D01*
X736600Y450850D01*
X381000Y628650D02*
X477520Y532130D01*
X381000Y628650D02*
Y722630D01*
X916940Y469900D02*
X1059180Y327660D01*
X773316Y469900D02*
X916940D01*
X579990Y663226D02*
X773316Y469900D01*
X336550Y767080D02*
X381000Y722630D01*
X782320Y514350D02*
X941070D01*
X1026160Y429260D01*
X720090Y576580D02*
X782320Y514350D01*
X720090Y576580D02*
Y678180D01*
X579990Y663226D02*
Y718550D01*
X1112520Y786520D02*
X1124990Y798990D01*
X1126490D01*
X1112520Y786130D02*
Y786520D01*
X1126490Y798990D02*
X1148080D01*
X1059180Y353060D02*
X1134110D01*
X1264920Y483870D02*
Y735330D01*
X1134110Y353060D02*
X1264920Y483870D01*
X1230630Y769620D02*
X1264920Y735330D01*
X1061720Y769620D02*
X1230630D01*
X1046480Y754380D02*
X1061720Y769620D01*
X937260D02*
X960120D01*
X763270Y721360D02*
X889000D01*
X937260Y769620D01*
X960120D02*
X970280Y779780D01*
X1026160Y429260D02*
X1059180D01*
X720090Y678180D02*
X763270Y721360D01*
X1068460Y699770D02*
X1078390Y689840D01*
Y688340D02*
Y689840D01*
X1068070Y699770D02*
X1068460D01*
X1078390Y666797D02*
Y688340D01*
X290900Y253060D02*
X293526Y250434D01*
X952500Y754380D02*
X970280D01*
X875430Y677310D02*
X952500Y754380D01*
X875430Y657860D02*
Y677310D01*
Y553720D02*
X949960Y628250D01*
Y683260D02*
X970280Y703580D01*
X949960Y628250D02*
Y683260D01*
X970280Y703580D02*
Y728980D01*
X900830Y810260D02*
X939800D01*
X970280Y779780D01*
X874160Y783590D02*
X900830Y810260D01*
X970280Y805180D02*
Y830580D01*
X933850D02*
X970280D01*
X874160Y890270D02*
X933850Y830580D01*
X844879Y552755D02*
X874465D01*
X843913Y551790D02*
X844879Y552755D01*
X874465D02*
X875430Y553720D01*
X802896Y585200D02*
X834346Y553750D01*
X841954D01*
X843913Y551790D01*
X844879Y658825D02*
X874465D01*
X843913Y659790D02*
X844879Y658825D01*
X874465D02*
X875430Y657860D01*
X828685Y659790D02*
X843913D01*
X802896Y634000D02*
X828685Y659790D01*
X842972Y783260D02*
X873830D01*
X874160Y783590D01*
X842642Y782930D02*
X842972Y783260D01*
X801626Y817610D02*
X834346Y784890D01*
X840683D01*
X842642Y782930D01*
X842972Y890600D02*
X873830D01*
X874160Y890270D01*
X842642Y890930D02*
X842972Y890600D01*
X826145Y890930D02*
X842642D01*
X801626Y866410D02*
X826145Y890930D01*
X1148080Y818990D02*
X1163160D01*
X1163320Y819150D01*
X1046480Y779780D02*
Y805180D01*
X1111180D01*
X1124990Y818990D02*
X1126490D01*
X1111180Y805180D02*
X1124990Y818990D01*
X1126490D02*
X1127205Y819705D01*
Y838818D02*
X1127920Y839532D01*
X1127205Y819705D02*
Y838818D01*
X1147920Y839532D02*
X1148000Y839453D01*
Y819070D02*
Y839453D01*
Y819070D02*
X1148080Y818990D01*
X1147920Y839532D02*
Y841033D01*
X1173000Y882845D02*
X1190500D01*
X1165500Y875345D02*
X1173000Y882845D01*
X1165500Y858613D02*
Y875345D01*
X1147920Y841033D02*
X1165500Y858613D01*
X1120500Y848453D02*
X1127920Y841033D01*
X1095500Y882845D02*
X1113000D01*
X1120500Y875345D01*
Y848453D02*
Y875345D01*
X1127920Y839532D02*
Y841033D01*
X1046480Y678180D02*
Y703580D01*
X1098390Y688340D02*
Y689840D01*
X1061163Y727066D02*
X1098390Y689840D01*
X1048394Y727066D02*
X1061163D01*
X1046480Y728980D02*
X1048394Y727066D01*
X1069902Y654758D02*
X1087850D01*
X1046480Y678180D02*
X1069902Y654758D01*
X1098390Y665298D02*
Y666797D01*
X1087850Y654758D02*
X1098390Y665298D01*
X1131663Y699410D02*
X1154745D01*
X1162245Y706910D02*
Y724410D01*
X1154745Y699410D02*
X1162245Y706910D01*
X1120433Y688180D02*
X1131663Y699410D01*
X1118932Y688180D02*
X1120433D01*
X1098390Y688340D02*
X1098470Y688260D01*
X1118853D01*
X1118932Y688180D01*
X1099081Y667489D02*
X1118241D01*
X1118932Y668180D01*
X1098390Y666797D02*
X1099081Y667489D01*
X1162245Y629410D02*
Y646910D01*
X1154745Y654410D02*
X1162245Y646910D01*
X1134202Y654410D02*
X1154745D01*
X1120433Y668180D02*
X1134202Y654410D01*
X1118932Y668180D02*
X1120433D01*
X320040Y176530D02*
X880110D01*
X291230Y147720D02*
X320040Y176530D01*
X291230Y144780D02*
Y147720D01*
X293526Y243684D02*
X322580Y214630D01*
X293526Y243684D02*
Y250434D01*
X322580Y214630D02*
X880110D01*
X259763Y145085D02*
X290925D01*
X259458Y145390D02*
X259763Y145085D01*
X290925D02*
X291230Y144780D01*
X257499Y147350D02*
X259458Y145390D01*
X218440Y176260D02*
X247351Y147350D01*
X257499D01*
X259788Y253060D02*
X290900D01*
X259458Y253390D02*
X259788Y253060D01*
X244811Y251430D02*
X257499D01*
X259458Y253390D01*
X218440Y225060D02*
X244811Y251430D01*
X257810Y745490D02*
X312254D01*
X246780Y688340D02*
Y734460D01*
X257810Y745490D01*
X312254D02*
X333844Y767080D01*
X334636Y785486D02*
Y790566D01*
X336550Y792480D01*
X314960Y765810D02*
X334636Y785486D01*
X254000Y765810D02*
X314960D01*
X336550Y792480D02*
Y817880D01*
X246780Y773030D02*
Y797560D01*
Y773030D02*
X254000Y765810D01*
X333844Y767080D02*
X336550D01*
X245840Y689280D02*
X246780Y688340D01*
X216204Y689280D02*
X245840D01*
X215264Y690220D02*
X216204Y689280D01*
X198510Y690220D02*
X215264D01*
X170180Y718550D02*
X198510Y690220D01*
X170180Y767350D02*
X200143Y797314D01*
X214357D02*
X215264Y798220D01*
X200143Y797314D02*
X214357D01*
X246450Y797890D02*
X246780Y797560D01*
X215264Y798220D02*
X215594Y797890D01*
X246450D01*
D14*
X321710Y416560D02*
X880110D01*
X289960Y448310D02*
X321710Y416560D01*
X323850Y384810D02*
X881380D01*
X290359Y351319D02*
X323850Y384810D01*
X288360Y340030D02*
X290359Y342029D01*
Y351319D01*
X257174Y339700D02*
X257504Y340030D01*
X288360D01*
X255214Y341660D02*
X257174Y339700D01*
X216155Y369570D02*
X244066Y341660D01*
X255214D01*
X257479Y448005D02*
X289655D01*
X257174Y447700D02*
X257479Y448005D01*
X289655D02*
X289960Y448310D01*
X255214Y445741D02*
X257174Y447700D01*
X216155Y418370D02*
X243526Y445741D01*
X255214D01*
D16*
X1190500Y882845D02*
D03*
X1095500D02*
D03*
D17*
X1148080Y818990D02*
D03*
Y798990D02*
D03*
X1126490Y818990D02*
D03*
Y798990D02*
D03*
X1118932Y668180D02*
D03*
Y688180D02*
D03*
D18*
X1098390Y688340D02*
D03*
X1078390D02*
D03*
X1127920Y839532D02*
D03*
X1147920D02*
D03*
X1098390Y666797D02*
D03*
X1078390D02*
D03*
D19*
X1162245Y629410D02*
D03*
Y724410D02*
D03*
D34*
X46000Y46000D02*
D03*
D35*
X1446000Y966000D02*
D03*
X46000D02*
D03*
D36*
X1414780Y665480D02*
D03*
Y690880D02*
D03*
Y741680D02*
D03*
Y792480D02*
D03*
Y817880D02*
D03*
Y767080D02*
D03*
Y716280D02*
D03*
Y640080D02*
D03*
Y614680D02*
D03*
X1059180Y276860D02*
D03*
Y302260D02*
D03*
Y353060D02*
D03*
Y403860D02*
D03*
Y429260D02*
D03*
Y378460D02*
D03*
Y327660D02*
D03*
Y251460D02*
D03*
Y226060D02*
D03*
D37*
X1414780Y843280D02*
D03*
X1059180Y454660D02*
D03*
D38*
X842642Y890930D02*
D03*
Y782930D02*
D03*
X843913Y551790D02*
D03*
Y659790D02*
D03*
X257174Y447700D02*
D03*
Y339700D02*
D03*
X259458Y253390D02*
D03*
Y145390D02*
D03*
X215264Y690220D02*
D03*
Y798220D02*
D03*
X538080Y688950D02*
D03*
Y796950D02*
D03*
D39*
X875430Y553720D02*
D03*
X925430D02*
D03*
X875430Y657860D02*
D03*
X925430D02*
D03*
X246780Y688340D02*
D03*
X296780D02*
D03*
X246780Y797560D02*
D03*
X296780D02*
D03*
X456330D02*
D03*
X506330D02*
D03*
Y689610D02*
D03*
X456330D02*
D03*
X289960Y448310D02*
D03*
X339960D02*
D03*
X288690Y340360D02*
D03*
X338690D02*
D03*
X291230Y144780D02*
D03*
X341230D02*
D03*
X874160Y890270D02*
D03*
X924160D02*
D03*
X291230Y252730D02*
D03*
X341230D02*
D03*
X874160Y783590D02*
D03*
X924160D02*
D03*
D40*
X218440Y176260D02*
D03*
Y225060D02*
D03*
X170180Y767350D02*
D03*
Y718550D02*
D03*
X579990Y767350D02*
D03*
Y718550D02*
D03*
X801626Y866410D02*
D03*
Y817610D02*
D03*
X802896Y585200D02*
D03*
Y634000D02*
D03*
X216155Y369570D02*
D03*
Y418370D02*
D03*
D41*
X336550Y817880D02*
D03*
X970280Y830580D02*
D03*
D42*
X336550Y792480D02*
D03*
Y767080D02*
D03*
Y741680D02*
D03*
Y716280D02*
D03*
Y690880D02*
D03*
Y665480D02*
D03*
X412750Y817880D02*
D03*
Y792480D02*
D03*
Y767080D02*
D03*
Y741680D02*
D03*
Y716280D02*
D03*
Y690880D02*
D03*
Y665480D02*
D03*
X1046480Y678180D02*
D03*
Y703580D02*
D03*
Y728980D02*
D03*
Y754380D02*
D03*
Y779780D02*
D03*
Y805180D02*
D03*
Y830580D02*
D03*
X970280Y678180D02*
D03*
Y703580D02*
D03*
Y728980D02*
D03*
Y754380D02*
D03*
Y779780D02*
D03*
Y805180D02*
D03*
D43*
X1112520Y786130D02*
D03*
X1068070Y699770D02*
D03*
X1168400Y819150D02*
D03*
X883920Y175260D02*
D03*
Y214630D02*
D03*
X881380Y384810D02*
D03*
X880110Y416560D02*
D03*
M02*
