G04*
G04 #@! TF.GenerationSoftware,Altium Limited,Altium Designer,25.8.1 (18)*
G04*
G04 Layer_Color=8388736*
%FSLAX44Y44*%
%MOMM*%
G71*
G04*
G04 #@! TF.SameCoordinates,729A6F0E-C14C-4E7B-A74A-3A0F7BF57B29*
G04*
G04*
G04 #@! TF.FilePolarity,Negative*
G04*
G01*
G75*
%ADD20R,5.7032X2.2032*%
%ADD21R,1.6032X1.3032*%
%ADD22R,1.3032X1.6032*%
%ADD23R,2.2032X5.7032*%
%ADD24C,5.2032*%
%ADD25C,4.2032*%
%ADD26C,1.8032*%
G04:AMPARAMS|DCode=27|XSize=1.8032mm|YSize=1.8032mm|CornerRadius=0.5016mm|HoleSize=0mm|Usage=FLASHONLY|Rotation=270.000|XOffset=0mm|YOffset=0mm|HoleType=Round|Shape=RoundedRectangle|*
%AMROUNDEDRECTD27*
21,1,1.8032,0.8000,0,0,270.0*
21,1,0.8000,1.8032,0,0,270.0*
1,1,1.0032,-0.4000,-0.4000*
1,1,1.0032,-0.4000,0.4000*
1,1,1.0032,0.4000,0.4000*
1,1,1.0032,0.4000,-0.4000*
%
%ADD27ROUNDEDRECTD27*%
%ADD28C,1.7272*%
%ADD29C,1.9032*%
%ADD30C,1.4032*%
%ADD31R,1.7032X1.7032*%
%ADD32C,1.7032*%
%ADD33C,1.4732*%
D20*
X1190500Y882845D02*
D03*
X1095500D02*
D03*
D21*
X1148080Y818990D02*
D03*
Y798990D02*
D03*
X1126490Y818990D02*
D03*
Y798990D02*
D03*
X1118932Y668180D02*
D03*
Y688180D02*
D03*
D22*
X1098390Y688340D02*
D03*
X1078390D02*
D03*
X1127920Y839532D02*
D03*
X1147920D02*
D03*
X1098390Y666797D02*
D03*
X1078390D02*
D03*
D23*
X1162245Y629410D02*
D03*
Y724410D02*
D03*
D24*
X46000Y46000D02*
D03*
D25*
X1446000Y966000D02*
D03*
X46000D02*
D03*
D26*
X1414780Y665480D02*
D03*
Y690880D02*
D03*
Y741680D02*
D03*
Y792480D02*
D03*
Y817880D02*
D03*
Y767080D02*
D03*
Y716280D02*
D03*
Y640080D02*
D03*
Y614680D02*
D03*
X1059180Y276860D02*
D03*
Y302260D02*
D03*
Y353060D02*
D03*
Y403860D02*
D03*
Y429260D02*
D03*
Y378460D02*
D03*
Y327660D02*
D03*
Y251460D02*
D03*
Y226060D02*
D03*
D27*
X1414780Y843280D02*
D03*
X1059180Y454660D02*
D03*
D28*
X842642Y890930D02*
D03*
Y782930D02*
D03*
X843913Y551790D02*
D03*
Y659790D02*
D03*
X257174Y447700D02*
D03*
Y339700D02*
D03*
X259458Y253390D02*
D03*
Y145390D02*
D03*
X215264Y690220D02*
D03*
Y798220D02*
D03*
X538080Y688950D02*
D03*
Y796950D02*
D03*
D29*
X875430Y553720D02*
D03*
X925430D02*
D03*
X875430Y657860D02*
D03*
X925430D02*
D03*
X246780Y688340D02*
D03*
X296780D02*
D03*
X246780Y797560D02*
D03*
X296780D02*
D03*
X456330D02*
D03*
X506330D02*
D03*
Y689610D02*
D03*
X456330D02*
D03*
X289960Y448310D02*
D03*
X339960D02*
D03*
X288690Y340360D02*
D03*
X338690D02*
D03*
X291230Y144780D02*
D03*
X341230D02*
D03*
X874160Y890270D02*
D03*
X924160D02*
D03*
X291230Y252730D02*
D03*
X341230D02*
D03*
X874160Y783590D02*
D03*
X924160D02*
D03*
D30*
X218440Y176260D02*
D03*
Y225060D02*
D03*
X170180Y767350D02*
D03*
Y718550D02*
D03*
X579990Y767350D02*
D03*
Y718550D02*
D03*
X801626Y866410D02*
D03*
Y817610D02*
D03*
X802896Y585200D02*
D03*
Y634000D02*
D03*
X216155Y369570D02*
D03*
Y418370D02*
D03*
D31*
X336550Y817880D02*
D03*
X970280Y830580D02*
D03*
D32*
X336550Y792480D02*
D03*
Y767080D02*
D03*
Y741680D02*
D03*
Y716280D02*
D03*
Y690880D02*
D03*
Y665480D02*
D03*
X412750Y817880D02*
D03*
Y792480D02*
D03*
Y767080D02*
D03*
Y741680D02*
D03*
Y716280D02*
D03*
Y690880D02*
D03*
Y665480D02*
D03*
X1046480Y678180D02*
D03*
Y703580D02*
D03*
Y728980D02*
D03*
Y754380D02*
D03*
Y779780D02*
D03*
Y805180D02*
D03*
Y830580D02*
D03*
X970280Y678180D02*
D03*
Y703580D02*
D03*
Y728980D02*
D03*
Y754380D02*
D03*
Y779780D02*
D03*
Y805180D02*
D03*
D33*
X1112520Y786130D02*
D03*
X1068070Y699770D02*
D03*
X1168400Y819150D02*
D03*
X883920Y175260D02*
D03*
Y214630D02*
D03*
X881380Y384810D02*
D03*
X880110Y416560D02*
D03*
M02*
