%TF.GenerationSoftware,KiCad,Pcbnew,9.0.4*%
%TF.CreationDate,2025-10-06T13:07:05+13:00*%
%TF.ProjectId,sigProc_esfgrid_cct_IA,73696750-726f-4635-9f65-736667726964,rev?*%
%TF.SameCoordinates,Original*%
%TF.FileFunction,Soldermask,Bot*%
%TF.FilePolarity,Negative*%
%FSLAX46Y46*%
G04 Gerber Fmt 4.6, Leading zero omitted, Abs format (unit mm)*
G04 Created by KiCad (PCBNEW 9.0.4) date 2025-10-06 13:07:05*
%MOMM*%
%LPD*%
G01*
G04 APERTURE LIST*
G04 Aperture macros list*
%AMRoundRect*
0 Rectangle with rounded corners*
0 $1 Rounding radius*
0 $2 $3 $4 $5 $6 $7 $8 $9 X,Y pos of 4 corners*
0 Add a 4 corners polygon primitive as box body*
4,1,4,$2,$3,$4,$5,$6,$7,$8,$9,$2,$3,0*
0 Add four circle primitives for the rounded corners*
1,1,$1+$1,$2,$3*
1,1,$1+$1,$4,$5*
1,1,$1+$1,$6,$7*
1,1,$1+$1,$8,$9*
0 Add four rect primitives between the rounded corners*
20,1,$1+$1,$2,$3,$4,$5,0*
20,1,$1+$1,$4,$5,$6,$7,0*
20,1,$1+$1,$6,$7,$8,$9,0*
20,1,$1+$1,$8,$9,$2,$3,0*%
G04 Aperture macros list end*
%ADD10R,1.350000X1.350000*%
%ADD11C,1.350000*%
%ADD12R,1.500000X1.050000*%
%ADD13O,1.500000X1.050000*%
%ADD14C,3.200000*%
%ADD15R,3.000000X3.000000*%
%ADD16C,3.000000*%
%ADD17RoundRect,0.102000X-0.765000X0.765000X-0.765000X-0.765000X0.765000X-0.765000X0.765000X0.765000X0*%
%ADD18C,1.734000*%
%ADD19R,1.500000X1.000000*%
G04 APERTURE END LIST*
%TO.C,JP26*%
G36*
X165820000Y-91145000D02*
G01*
X167320000Y-91145000D01*
X167320000Y-91445000D01*
X165820000Y-91445000D01*
X165820000Y-91145000D01*
G37*
%TO.C,JP10*%
G36*
X195860000Y-61280000D02*
G01*
X197360000Y-61280000D01*
X197360000Y-61580000D01*
X195860000Y-61580000D01*
X195860000Y-61280000D01*
G37*
%TO.C,JP21*%
G36*
X135870000Y-82880000D02*
G01*
X137370000Y-82880000D01*
X137370000Y-83180000D01*
X135870000Y-83180000D01*
X135870000Y-82880000D01*
G37*
%TO.C,JP36*%
G36*
X165820000Y-106430000D02*
G01*
X167320000Y-106430000D01*
X167320000Y-106730000D01*
X165820000Y-106730000D01*
X165820000Y-106430000D01*
G37*
%TO.C,JP7*%
G36*
X180807600Y-53242500D02*
G01*
X182307600Y-53242500D01*
X182307600Y-53542500D01*
X180807600Y-53542500D01*
X180807600Y-53242500D01*
G37*
%TO.C,JP23*%
G36*
X150820000Y-83540000D02*
G01*
X152320000Y-83540000D01*
X152320000Y-83840000D01*
X150820000Y-83840000D01*
X150820000Y-83540000D01*
G37*
%TO.C,JP31*%
G36*
X135860000Y-98250000D02*
G01*
X137360000Y-98250000D01*
X137360000Y-98550000D01*
X135860000Y-98550000D01*
X135860000Y-98250000D01*
G37*
%TO.C,JP18*%
G36*
X180830000Y-76530000D02*
G01*
X182330000Y-76530000D01*
X182330000Y-76830000D01*
X180830000Y-76830000D01*
X180830000Y-76530000D01*
G37*
%TO.C,JP50*%
G36*
X195840000Y-121230000D02*
G01*
X197340000Y-121230000D01*
X197340000Y-121530000D01*
X195840000Y-121530000D01*
X195840000Y-121230000D01*
G37*
%TO.C,JP8*%
G36*
X180807600Y-61232500D02*
G01*
X182307600Y-61232500D01*
X182307600Y-61532500D01*
X180807600Y-61532500D01*
X180807600Y-61232500D01*
G37*
%TO.C,JP17*%
G36*
X180830000Y-68540000D02*
G01*
X182330000Y-68540000D01*
X182330000Y-68840000D01*
X180830000Y-68840000D01*
X180830000Y-68540000D01*
G37*
%TO.C,JP41*%
G36*
X135807600Y-113510000D02*
G01*
X137307600Y-113510000D01*
X137307600Y-113810000D01*
X135807600Y-113810000D01*
X135807600Y-113510000D01*
G37*
%TO.C,JP4*%
G36*
X150847600Y-61237500D02*
G01*
X152347600Y-61237500D01*
X152347600Y-61537500D01*
X150847600Y-61537500D01*
X150847600Y-61237500D01*
G37*
%TO.C,JP29*%
G36*
X195850000Y-83560000D02*
G01*
X197350000Y-83560000D01*
X197350000Y-83860000D01*
X195850000Y-83860000D01*
X195850000Y-83560000D01*
G37*
%TO.C,JP33*%
G36*
X150857500Y-98192500D02*
G01*
X152357500Y-98192500D01*
X152357500Y-98492500D01*
X150857500Y-98492500D01*
X150857500Y-98192500D01*
G37*
%TO.C,JP34*%
G36*
X150857500Y-106182500D02*
G01*
X152357500Y-106182500D01*
X152357500Y-106482500D01*
X150857500Y-106482500D01*
X150857500Y-106182500D01*
G37*
%TO.C,JP5*%
G36*
X165835000Y-53240000D02*
G01*
X167335000Y-53240000D01*
X167335000Y-53540000D01*
X165835000Y-53540000D01*
X165835000Y-53240000D01*
G37*
%TO.C,JP16*%
G36*
X165800000Y-76190000D02*
G01*
X167300000Y-76190000D01*
X167300000Y-76490000D01*
X165800000Y-76490000D01*
X165800000Y-76190000D01*
G37*
%TO.C,JP47*%
G36*
X180830000Y-113310000D02*
G01*
X182330000Y-113310000D01*
X182330000Y-113610000D01*
X180830000Y-113610000D01*
X180830000Y-113310000D01*
G37*
%TO.C,JP40*%
G36*
X195830000Y-106210000D02*
G01*
X197330000Y-106210000D01*
X197330000Y-106510000D01*
X195830000Y-106510000D01*
X195830000Y-106210000D01*
G37*
%TO.C,JP44*%
G36*
X150800000Y-121070000D02*
G01*
X152300000Y-121070000D01*
X152300000Y-121370000D01*
X150800000Y-121370000D01*
X150800000Y-121070000D01*
G37*
%TO.C,JP32*%
G36*
X135860000Y-106240000D02*
G01*
X137360000Y-106240000D01*
X137360000Y-106540000D01*
X135860000Y-106540000D01*
X135860000Y-106240000D01*
G37*
%TO.C,JP24*%
G36*
X150820000Y-91530000D02*
G01*
X152320000Y-91530000D01*
X152320000Y-91830000D01*
X150820000Y-91830000D01*
X150820000Y-91530000D01*
G37*
%TO.C,JP46*%
G36*
X165812500Y-121190000D02*
G01*
X167312500Y-121190000D01*
X167312500Y-121490000D01*
X165812500Y-121490000D01*
X165812500Y-121190000D01*
G37*
%TO.C,JP15*%
G36*
X165800000Y-68200000D02*
G01*
X167300000Y-68200000D01*
X167300000Y-68500000D01*
X165800000Y-68500000D01*
X165800000Y-68200000D01*
G37*
%TO.C,JP38*%
G36*
X180820000Y-106460000D02*
G01*
X182320000Y-106460000D01*
X182320000Y-106760000D01*
X180820000Y-106760000D01*
X180820000Y-106460000D01*
G37*
%TO.C,JP43*%
G36*
X150800000Y-113080000D02*
G01*
X152300000Y-113080000D01*
X152300000Y-113380000D01*
X150800000Y-113380000D01*
X150800000Y-113080000D01*
G37*
%TO.C,JP39*%
G36*
X195830000Y-98220000D02*
G01*
X197330000Y-98220000D01*
X197330000Y-98520000D01*
X195830000Y-98520000D01*
X195830000Y-98220000D01*
G37*
%TO.C,JP35*%
G36*
X165820000Y-98440000D02*
G01*
X167320000Y-98440000D01*
X167320000Y-98740000D01*
X165820000Y-98740000D01*
X165820000Y-98440000D01*
G37*
%TO.C,JP30*%
G36*
X195850000Y-91550000D02*
G01*
X197350000Y-91550000D01*
X197350000Y-91850000D01*
X195850000Y-91850000D01*
X195850000Y-91550000D01*
G37*
%TO.C,JP27*%
G36*
X180815000Y-83340000D02*
G01*
X182315000Y-83340000D01*
X182315000Y-83640000D01*
X180815000Y-83640000D01*
X180815000Y-83340000D01*
G37*
%TO.C,JP6*%
G36*
X165835000Y-61230000D02*
G01*
X167335000Y-61230000D01*
X167335000Y-61530000D01*
X165835000Y-61530000D01*
X165835000Y-61230000D01*
G37*
%TO.C,JP19*%
G36*
X195830000Y-68425000D02*
G01*
X197330000Y-68425000D01*
X197330000Y-68725000D01*
X195830000Y-68725000D01*
X195830000Y-68425000D01*
G37*
%TO.C,JP22*%
G36*
X135870000Y-90870000D02*
G01*
X137370000Y-90870000D01*
X137370000Y-91170000D01*
X135870000Y-91170000D01*
X135870000Y-90870000D01*
G37*
%TO.C,JP11*%
G36*
X135880000Y-68320000D02*
G01*
X137380000Y-68320000D01*
X137380000Y-68620000D01*
X135880000Y-68620000D01*
X135880000Y-68320000D01*
G37*
%TO.C,JP42*%
G36*
X135807600Y-121500000D02*
G01*
X137307600Y-121500000D01*
X137307600Y-121800000D01*
X135807600Y-121800000D01*
X135807600Y-121500000D01*
G37*
%TO.C,JP45*%
G36*
X165812500Y-113200000D02*
G01*
X167312500Y-113200000D01*
X167312500Y-113500000D01*
X165812500Y-113500000D01*
X165812500Y-113200000D01*
G37*
%TO.C,JP14*%
G36*
X150850000Y-76370000D02*
G01*
X152350000Y-76370000D01*
X152350000Y-76670000D01*
X150850000Y-76670000D01*
X150850000Y-76370000D01*
G37*
%TO.C,JP13*%
G36*
X150850000Y-68380000D02*
G01*
X152350000Y-68380000D01*
X152350000Y-68680000D01*
X150850000Y-68680000D01*
X150850000Y-68380000D01*
G37*
%TO.C,JP37*%
G36*
X180820000Y-98470000D02*
G01*
X182320000Y-98470000D01*
X182320000Y-98770000D01*
X180820000Y-98770000D01*
X180820000Y-98470000D01*
G37*
%TO.C,JP48*%
G36*
X180830000Y-121300000D02*
G01*
X182330000Y-121300000D01*
X182330000Y-121600000D01*
X180830000Y-121600000D01*
X180830000Y-121300000D01*
G37*
%TO.C,JP3*%
G36*
X150847600Y-53247500D02*
G01*
X152347600Y-53247500D01*
X152347600Y-53547500D01*
X150847600Y-53547500D01*
X150847600Y-53247500D01*
G37*
%TO.C,JP9*%
G36*
X195860000Y-53290000D02*
G01*
X197360000Y-53290000D01*
X197360000Y-53590000D01*
X195860000Y-53590000D01*
X195860000Y-53290000D01*
G37*
%TO.C,JP25*%
G36*
X165820000Y-83155000D02*
G01*
X167320000Y-83155000D01*
X167320000Y-83455000D01*
X165820000Y-83455000D01*
X165820000Y-83155000D01*
G37*
%TO.C,JP20*%
G36*
X195830000Y-76415000D02*
G01*
X197330000Y-76415000D01*
X197330000Y-76715000D01*
X195830000Y-76715000D01*
X195830000Y-76415000D01*
G37*
%TO.C,JP28*%
G36*
X180815000Y-91330000D02*
G01*
X182315000Y-91330000D01*
X182315000Y-91630000D01*
X180815000Y-91630000D01*
X180815000Y-91330000D01*
G37*
%TO.C,JP49*%
G36*
X195840000Y-113240000D02*
G01*
X197340000Y-113240000D01*
X197340000Y-113540000D01*
X195840000Y-113540000D01*
X195840000Y-113240000D01*
G37*
%TO.C,JP12*%
G36*
X135880000Y-76310000D02*
G01*
X137380000Y-76310000D01*
X137380000Y-76610000D01*
X135880000Y-76610000D01*
X135880000Y-76310000D01*
G37*
%TD*%
D10*
%TO.C,J30*%
X125775000Y-98350000D03*
D11*
X125775000Y-100350000D03*
X125775000Y-102350000D03*
X125775000Y-104350000D03*
%TD*%
D10*
%TO.C,J29*%
X192125000Y-44300000D03*
D11*
X194125000Y-44300000D03*
X196125000Y-44300000D03*
X198125000Y-44300000D03*
%TD*%
D10*
%TO.C,J28*%
X221425000Y-44175000D03*
D11*
X223425000Y-44175000D03*
X225425000Y-44175000D03*
X227425000Y-44175000D03*
%TD*%
D10*
%TO.C,J18*%
X143750000Y-109750000D03*
D11*
X141750000Y-109750000D03*
%TD*%
D10*
%TO.C,J6*%
X188750000Y-64750000D03*
D11*
X186750000Y-64750000D03*
%TD*%
D10*
%TO.C,J27*%
X203750000Y-124750000D03*
D11*
X201750000Y-124750000D03*
%TD*%
D10*
%TO.C,J13*%
X143750000Y-94750000D03*
D11*
X141750000Y-94750000D03*
%TD*%
D12*
%TO.C,U1*%
X161075000Y-133145000D03*
D13*
X161075000Y-134415000D03*
X161075000Y-135685000D03*
%TD*%
D14*
%TO.C,REF\u002A\u002A*%
X125307960Y-132619986D03*
%TD*%
D10*
%TO.C,J25*%
X173750000Y-124750000D03*
D11*
X171750000Y-124750000D03*
%TD*%
D10*
%TO.C,J19*%
X158750000Y-109750000D03*
D11*
X156750000Y-109750000D03*
%TD*%
D12*
%TO.C,U29*%
X194250000Y-133980000D03*
D13*
X194250000Y-135250000D03*
X194250000Y-136520000D03*
%TD*%
D10*
%TO.C,J16*%
X188750000Y-94750000D03*
D11*
X186750000Y-94750000D03*
%TD*%
D10*
%TO.C,J8*%
X143750000Y-79750000D03*
D11*
X141750000Y-79750000D03*
%TD*%
D15*
%TO.C,J2*%
X178215000Y-142155000D03*
D16*
X173135000Y-142155000D03*
%TD*%
D10*
%TO.C,J14*%
X158750000Y-94750000D03*
D11*
X156750000Y-94750000D03*
%TD*%
D10*
%TO.C,J17*%
X203750000Y-94750000D03*
D11*
X201750000Y-94750000D03*
%TD*%
D10*
%TO.C,J20*%
X173750000Y-109750000D03*
D11*
X171750000Y-109750000D03*
%TD*%
D12*
%TO.C,U2*%
X175145000Y-135395000D03*
D13*
X175145000Y-134125000D03*
X175145000Y-132855000D03*
%TD*%
D15*
%TO.C,J1*%
X166705000Y-142165000D03*
D16*
X161625000Y-142165000D03*
%TD*%
D10*
%TO.C,J11*%
X188750000Y-79750000D03*
D11*
X186750000Y-79750000D03*
%TD*%
D10*
%TO.C,J4*%
X158750000Y-64750000D03*
D11*
X156750000Y-64750000D03*
%TD*%
D10*
%TO.C,J9*%
X158750000Y-79750000D03*
D11*
X156750000Y-79750000D03*
%TD*%
D14*
%TO.C,REF\u002A\u002A*%
X215307960Y-42619986D03*
%TD*%
D17*
%TO.C,U28*%
X252000000Y-134500000D03*
D18*
X252000000Y-131960000D03*
X252000000Y-129420000D03*
X252000000Y-126880000D03*
X252000000Y-124340000D03*
X252000000Y-121800000D03*
X252000000Y-119260000D03*
X252000000Y-116720000D03*
X252000000Y-114180000D03*
X252000000Y-111640000D03*
X252000000Y-109100000D03*
X252000000Y-106560000D03*
X252000000Y-104020000D03*
X252000000Y-101480000D03*
X252000000Y-98940000D03*
X252000000Y-96400000D03*
X252000000Y-93860000D03*
X252000000Y-91320000D03*
X252000000Y-88780000D03*
X252000000Y-86240000D03*
X252000000Y-83700000D03*
X252000000Y-81160000D03*
X252000000Y-78620000D03*
X252000000Y-76080000D03*
X252000000Y-73540000D03*
X252000000Y-71000000D03*
D17*
X231680000Y-134500000D03*
D18*
X231680000Y-131960000D03*
X231680000Y-129420000D03*
X231680000Y-126880000D03*
X231680000Y-124340000D03*
X231680000Y-121800000D03*
X231680000Y-119260000D03*
X231680000Y-116720000D03*
X231680000Y-114180000D03*
X231680000Y-111640000D03*
X231680000Y-109100000D03*
X231680000Y-106560000D03*
X231680000Y-104020000D03*
X231680000Y-101480000D03*
X231680000Y-98940000D03*
X231680000Y-96400000D03*
X231680000Y-93860000D03*
X231680000Y-91320000D03*
X231680000Y-88780000D03*
X231680000Y-86240000D03*
X231680000Y-83700000D03*
X231680000Y-81160000D03*
X231680000Y-78620000D03*
X231680000Y-76080000D03*
X231680000Y-73540000D03*
X231680000Y-71000000D03*
D17*
X231680000Y-58300000D03*
D18*
X231680000Y-55760000D03*
X231680000Y-53220000D03*
X231680000Y-50680000D03*
X231680000Y-48140000D03*
X231680000Y-45600000D03*
X231680000Y-43060000D03*
D17*
X252000000Y-58300000D03*
D18*
X252000000Y-55760000D03*
X252000000Y-53220000D03*
X252000000Y-50680000D03*
X252000000Y-48140000D03*
X252000000Y-45600000D03*
X252000000Y-43060000D03*
%TD*%
D10*
%TO.C,J21*%
X188750000Y-109750000D03*
D11*
X186750000Y-109750000D03*
%TD*%
D10*
%TO.C,J7*%
X203750000Y-64750000D03*
D11*
X201750000Y-64750000D03*
%TD*%
D10*
%TO.C,J5*%
X173750000Y-64750000D03*
D11*
X171750000Y-64750000D03*
%TD*%
D10*
%TO.C,J3*%
X143750000Y-65250000D03*
D11*
X141750000Y-65250000D03*
%TD*%
D10*
%TO.C,J15*%
X173750000Y-94750000D03*
D11*
X171750000Y-94750000D03*
%TD*%
D10*
%TO.C,J10*%
X173750000Y-79750000D03*
D11*
X171750000Y-79750000D03*
%TD*%
D10*
%TO.C,J24*%
X158850000Y-124750000D03*
D11*
X156850000Y-124750000D03*
%TD*%
D10*
%TO.C,J26*%
X188750000Y-124750000D03*
D11*
X186750000Y-124750000D03*
%TD*%
D10*
%TO.C,J22*%
X203750000Y-109750000D03*
D11*
X201750000Y-109750000D03*
%TD*%
D10*
%TO.C,J23*%
X143750000Y-124750000D03*
D11*
X141750000Y-124750000D03*
%TD*%
D14*
%TO.C,REF\u002A\u002A*%
X215307960Y-132619986D03*
%TD*%
%TO.C,REF\u002A\u002A*%
X126000000Y-42619986D03*
%TD*%
D10*
%TO.C,J12*%
X203750000Y-79750000D03*
D11*
X201750000Y-79750000D03*
%TD*%
D19*
%TO.C,JP26*%
X166570000Y-90645000D03*
X166570000Y-91945000D03*
%TD*%
%TO.C,JP10*%
X196610000Y-60780000D03*
X196610000Y-62080000D03*
%TD*%
%TO.C,JP21*%
X136620000Y-82380000D03*
X136620000Y-83680000D03*
%TD*%
%TO.C,JP36*%
X166570000Y-105930000D03*
X166570000Y-107230000D03*
%TD*%
%TO.C,JP7*%
X181557600Y-52742500D03*
X181557600Y-54042500D03*
%TD*%
%TO.C,JP23*%
X151570000Y-83040000D03*
X151570000Y-84340000D03*
%TD*%
%TO.C,JP31*%
X136610000Y-97750000D03*
X136610000Y-99050000D03*
%TD*%
%TO.C,JP18*%
X181580000Y-76030000D03*
X181580000Y-77330000D03*
%TD*%
%TO.C,JP1*%
X136607600Y-52760000D03*
X136607600Y-54060000D03*
%TD*%
%TO.C,JP50*%
X196590000Y-120730000D03*
X196590000Y-122030000D03*
%TD*%
%TO.C,JP8*%
X181557600Y-60732500D03*
X181557600Y-62032500D03*
%TD*%
%TO.C,JP17*%
X181580000Y-68040000D03*
X181580000Y-69340000D03*
%TD*%
%TO.C,JP41*%
X136557600Y-113010000D03*
X136557600Y-114310000D03*
%TD*%
%TO.C,JP4*%
X151597600Y-60737500D03*
X151597600Y-62037500D03*
%TD*%
%TO.C,JP29*%
X196600000Y-83060000D03*
X196600000Y-84360000D03*
%TD*%
%TO.C,JP33*%
X151607500Y-97692500D03*
X151607500Y-98992500D03*
%TD*%
%TO.C,JP34*%
X151607500Y-105682500D03*
X151607500Y-106982500D03*
%TD*%
%TO.C,JP5*%
X166585000Y-52740000D03*
X166585000Y-54040000D03*
%TD*%
%TO.C,JP16*%
X166550000Y-75690000D03*
X166550000Y-76990000D03*
%TD*%
%TO.C,JP47*%
X181580000Y-112810000D03*
X181580000Y-114110000D03*
%TD*%
%TO.C,JP40*%
X196580000Y-105710000D03*
X196580000Y-107010000D03*
%TD*%
%TO.C,JP2*%
X136607600Y-60750000D03*
X136607600Y-62050000D03*
%TD*%
%TO.C,JP44*%
X151550000Y-120570000D03*
X151550000Y-121870000D03*
%TD*%
%TO.C,JP32*%
X136610000Y-105740000D03*
X136610000Y-107040000D03*
%TD*%
%TO.C,JP24*%
X151570000Y-91030000D03*
X151570000Y-92330000D03*
%TD*%
%TO.C,JP46*%
X166562500Y-120690000D03*
X166562500Y-121990000D03*
%TD*%
%TO.C,JP15*%
X166550000Y-67700000D03*
X166550000Y-69000000D03*
%TD*%
%TO.C,JP38*%
X181570000Y-105960000D03*
X181570000Y-107260000D03*
%TD*%
%TO.C,JP43*%
X151550000Y-112580000D03*
X151550000Y-113880000D03*
%TD*%
%TO.C,JP39*%
X196580000Y-97720000D03*
X196580000Y-99020000D03*
%TD*%
%TO.C,JP35*%
X166570000Y-97940000D03*
X166570000Y-99240000D03*
%TD*%
%TO.C,JP30*%
X196600000Y-91050000D03*
X196600000Y-92350000D03*
%TD*%
%TO.C,JP27*%
X181565000Y-82840000D03*
X181565000Y-84140000D03*
%TD*%
%TO.C,JP6*%
X166585000Y-60730000D03*
X166585000Y-62030000D03*
%TD*%
%TO.C,JP19*%
X196580000Y-67925000D03*
X196580000Y-69225000D03*
%TD*%
%TO.C,JP22*%
X136620000Y-90370000D03*
X136620000Y-91670000D03*
%TD*%
%TO.C,JP11*%
X136630000Y-67820000D03*
X136630000Y-69120000D03*
%TD*%
%TO.C,JP42*%
X136557600Y-121000000D03*
X136557600Y-122300000D03*
%TD*%
%TO.C,JP45*%
X166562500Y-112700000D03*
X166562500Y-114000000D03*
%TD*%
%TO.C,JP14*%
X151600000Y-75870000D03*
X151600000Y-77170000D03*
%TD*%
%TO.C,JP13*%
X151600000Y-67880000D03*
X151600000Y-69180000D03*
%TD*%
%TO.C,JP37*%
X181570000Y-97970000D03*
X181570000Y-99270000D03*
%TD*%
%TO.C,JP48*%
X181580000Y-120800000D03*
X181580000Y-122100000D03*
%TD*%
%TO.C,JP3*%
X151597600Y-52747500D03*
X151597600Y-54047500D03*
%TD*%
%TO.C,JP9*%
X196610000Y-52790000D03*
X196610000Y-54090000D03*
%TD*%
%TO.C,JP25*%
X166570000Y-82655000D03*
X166570000Y-83955000D03*
%TD*%
%TO.C,JP20*%
X196580000Y-75915000D03*
X196580000Y-77215000D03*
%TD*%
%TO.C,JP28*%
X181565000Y-90830000D03*
X181565000Y-92130000D03*
%TD*%
%TO.C,JP49*%
X196590000Y-112740000D03*
X196590000Y-114040000D03*
%TD*%
%TO.C,JP12*%
X136630000Y-75810000D03*
X136630000Y-77110000D03*
%TD*%
G36*
X164850649Y-52539685D02*
G01*
X164896404Y-52592489D01*
X164907610Y-52643991D01*
X164912992Y-122895991D01*
X164893313Y-122963031D01*
X164840512Y-123008790D01*
X164788992Y-123020000D01*
X163251600Y-123020000D01*
X163184561Y-123000315D01*
X163138806Y-122947511D01*
X163127600Y-122896000D01*
X163127600Y-52644000D01*
X163147285Y-52576961D01*
X163200089Y-52531206D01*
X163251600Y-52520000D01*
X164783610Y-52520000D01*
X164850649Y-52539685D01*
G37*
G36*
X134831009Y-52439671D02*
G01*
X134876764Y-52492475D01*
X134887970Y-52543977D01*
X134893352Y-122795977D01*
X134873673Y-122863017D01*
X134820872Y-122908776D01*
X134769352Y-122919986D01*
X133231960Y-122919986D01*
X133164921Y-122900301D01*
X133119166Y-122847497D01*
X133107960Y-122795986D01*
X133107960Y-52543986D01*
X133127645Y-52476947D01*
X133180449Y-52431192D01*
X133231960Y-52419986D01*
X134763970Y-52419986D01*
X134831009Y-52439671D01*
G37*
G36*
X179850649Y-52539685D02*
G01*
X179896404Y-52592489D01*
X179907610Y-52643991D01*
X179912992Y-122895991D01*
X179893313Y-122963031D01*
X179840512Y-123008790D01*
X179788992Y-123020000D01*
X178251600Y-123020000D01*
X178184561Y-123000315D01*
X178138806Y-122947511D01*
X178127600Y-122896000D01*
X178127600Y-52644000D01*
X178147285Y-52576961D01*
X178200089Y-52531206D01*
X178251600Y-52520000D01*
X179783610Y-52520000D01*
X179850649Y-52539685D01*
G37*
G36*
X149850649Y-52539685D02*
G01*
X149896404Y-52592489D01*
X149907610Y-52643991D01*
X149912992Y-122895991D01*
X149893313Y-122963031D01*
X149840512Y-123008790D01*
X149788992Y-123020000D01*
X148251600Y-123020000D01*
X148184561Y-123000315D01*
X148138806Y-122947511D01*
X148127600Y-122896000D01*
X148127600Y-52644000D01*
X148147285Y-52576961D01*
X148200089Y-52531206D01*
X148251600Y-52520000D01*
X149783610Y-52520000D01*
X149850649Y-52539685D01*
G37*
G36*
X194850649Y-52539685D02*
G01*
X194896404Y-52592489D01*
X194907610Y-52643991D01*
X194912992Y-122895991D01*
X194893313Y-122963031D01*
X194840512Y-123008790D01*
X194788992Y-123020000D01*
X193251600Y-123020000D01*
X193184561Y-123000315D01*
X193138806Y-122947511D01*
X193127600Y-122896000D01*
X193127600Y-52644000D01*
X193147285Y-52576961D01*
X193200089Y-52531206D01*
X193251600Y-52520000D01*
X194783610Y-52520000D01*
X194850649Y-52539685D01*
G37*
M02*
