M48
; DRILL file {KiCad 9.0.4} date 2025-10-06T13:07:03+1300
; FORMAT={-:-/ absolute / metric / decimal}
; #@! TF.CreationDate,2025-10-06T13:07:03+13:00
; #@! TF.GenerationSoftware,Kicad,Pcbnew,9.0.4
; #@! TF.FileFunction,Plated,1,2,PTH
FMAT,2
METRIC
; #@! TA.AperFunction,Plated,PTH,ViaDrill
T1C0.300
; #@! TA.AperFunction,Plated,PTH,ViaDrill
T2C0.700
; #@! TA.AperFunction,Plated,PTH,ComponentDrill
T3C0.750
; #@! TA.AperFunction,Plated,PTH,ViaDrill
T4C0.800
; #@! TA.AperFunction,Plated,PTH,ComponentDrill
T5C0.800
; #@! TA.AperFunction,Plated,PTH,ComponentDrill
T6C1.020
; #@! TA.AperFunction,Plated,PTH,ViaDrill
T7C1.100
; #@! TA.AperFunction,Plated,PTH,ComponentDrill
T8C1.520
%
G90
G05
T1
X136.438Y-115.63
X136.44Y-119.66
X136.488Y-55.38
X136.49Y-100.37
X136.49Y-59.41
X136.493Y-104.4
X136.5Y-85.0
X136.502Y-89.03
X136.51Y-70.44
X136.512Y-74.47
X137.5Y-64.0
X137.5Y-65.75
X137.5Y-80.5
X137.5Y-96.25
X137.5Y-109.75
X137.5Y-111.75
X137.75Y-51.5
X137.75Y-79.5
X137.75Y-93.75
X137.75Y-123.75
X138.5Y-68.25
X138.5Y-83.0
X138.5Y-98.25
X138.5Y-113.5
X139.302Y-51.721
X139.5Y-61.75
X139.5Y-106.75
X139.5Y-121.5
X139.75Y-76.75
X139.75Y-91.5
X141.803Y-122.855
X141.853Y-62.605
X141.855Y-107.595
X141.865Y-92.225
X141.875Y-77.665
X143.25Y-74.0
X143.25Y-88.75
X143.25Y-104.1
X143.529Y-119.029
X143.625Y-58.625
X144.0Y-102.25
X144.0Y-117.5
X144.25Y-86.75
X144.5Y-57.0
X144.5Y-72.25
X144.75Y-62.25
X145.0Y-77.5
X145.0Y-92.0
X145.0Y-105.25
X145.25Y-122.75
X151.43Y-115.2
X151.433Y-119.23
X151.45Y-85.66
X151.452Y-89.69
X151.478Y-55.367
X151.48Y-70.5
X151.48Y-59.398
X151.482Y-74.53
X151.487Y-100.312
X151.49Y-104.343
X152.25Y-124.25
X152.5Y-81.25
X152.5Y-94.5
X152.5Y-96.25
X152.5Y-108.5
X152.75Y-48.25
X152.75Y-63.75
X152.75Y-66.5
X152.75Y-78.75
X152.75Y-111.25
X153.328Y-52.237
X153.5Y-68.25
X153.5Y-83.5
X153.5Y-98.25
X153.5Y-113.0
X154.069Y-51.425
X155.0Y-62.0
X155.0Y-77.175
X155.0Y-92.25
X155.014Y-121.986
X155.25Y-107.0
X156.8Y-122.75
X156.815Y-92.885
X156.843Y-62.592
X156.845Y-77.725
X156.852Y-107.537
X157.0Y-48.5
X158.346Y-118.596
X159.0Y-56.75
X159.0Y-86.5
X159.138Y-58.0
X159.25Y-73.0
X159.25Y-101.75
X159.3Y-88.28
X159.311Y-102.926
X159.375Y-116.625
X159.5Y-71.75
X159.75Y-62.25
X159.75Y-77.5
X159.75Y-92.5
X159.75Y-107.25
X160.0Y-122.5
X166.25Y-49.05
X166.43Y-70.32
X166.433Y-74.35
X166.442Y-115.32
X166.445Y-119.35
X166.45Y-85.275
X166.45Y-100.56
X166.452Y-89.305
X166.452Y-104.59
X166.465Y-55.36
X166.468Y-59.39
X167.5Y-63.5
X167.5Y-124.75
X167.75Y-66.25
X167.75Y-79.25
X167.75Y-81.25
X167.75Y-93.5
X167.75Y-96.25
X167.75Y-109.0
X167.75Y-111.25
X168.315Y-52.23
X168.5Y-68.25
X168.5Y-83.0
X168.5Y-98.25
X168.5Y-113.25
X169.294Y-51.728
X170.25Y-62.25
X170.25Y-77.0
X170.25Y-92.0
X170.25Y-107.235
X170.25Y-122.0
X171.8Y-78.0
X171.812Y-123.0
X171.82Y-93.0
X171.82Y-108.0
X171.835Y-63.0
X174.085Y-87.7
X174.25Y-56.75
X174.25Y-58.0
X174.25Y-103.102
X174.26Y-72.92
X174.292Y-117.94
X174.481Y-71.81
X174.5Y-86.75
X174.5Y-102.0
X174.5Y-116.75
X174.75Y-77.25
X175.0Y-62.25
X175.0Y-92.25
X175.0Y-107.5
X175.0Y-122.25
X181.438Y-55.362
X181.44Y-59.392
X181.445Y-85.46
X181.447Y-89.49
X181.45Y-100.59
X181.452Y-104.62
X181.46Y-70.66
X181.46Y-115.43
X181.463Y-74.69
X181.463Y-119.46
X182.5Y-64.0
X182.5Y-66.5
X182.5Y-79.5
X182.5Y-95.75
X182.5Y-124.0
X182.75Y-81.655
X182.75Y-93.75
X182.75Y-109.0
X182.75Y-111.25
X183.25Y-48.5
X183.25Y-49.2
X183.288Y-52.232
X183.5Y-68.5
X183.5Y-83.25
X183.5Y-98.5
X183.5Y-113.25
X184.75Y-51.5
X185.0Y-77.25
X185.0Y-122.25
X185.25Y-92.25
X185.25Y-107.25
X185.5Y-62.0
X186.808Y-63.0
X186.815Y-93.0
X186.82Y-108.0
X186.825Y-77.885
X186.83Y-123.0
X189.197Y-88.002
X189.25Y-56.75
X189.278Y-57.992
X189.3Y-103.21
X189.302Y-73.052
X189.31Y-118.05
X189.5Y-72.0
X189.5Y-87.0
X189.5Y-102.0
X189.5Y-116.75
X189.75Y-62.25
X189.75Y-107.5
X189.75Y-122.25
X190.0Y-77.5
X190.0Y-92.25
X194.006Y-106.664
X196.46Y-70.545
X196.46Y-100.34
X196.462Y-74.575
X196.462Y-104.37
X196.47Y-115.36
X196.472Y-119.39
X196.48Y-85.68
X196.482Y-89.71
X196.49Y-55.41
X196.492Y-59.44
X197.5Y-64.0
X197.5Y-66.25
X197.5Y-123.5
X197.704Y-108.5
X197.724Y-93.974
X197.75Y-79.0
X197.75Y-81.91
X197.75Y-96.25
X197.75Y-111.0
X198.34Y-52.28
X198.5Y-53.25
X198.5Y-68.25
X198.5Y-83.5
X198.5Y-98.0
X198.75Y-113.25
X200.25Y-62.25
X200.25Y-77.25
X200.25Y-92.355
X200.25Y-107.0
X200.25Y-122.25
X201.83Y-78.0
X201.83Y-108.0
X201.84Y-123.0
X201.845Y-92.905
X201.86Y-63.0
X204.166Y-118.0
X204.285Y-73.19
X204.3Y-102.97
X204.32Y-88.31
X204.33Y-58.04
X204.5Y-56.75
X204.5Y-72.0
X204.5Y-87.0
X204.5Y-101.75
X204.5Y-116.75
X205.0Y-62.5
X205.0Y-77.5
X205.0Y-92.5
X205.0Y-107.25
X205.25Y-122.0
X206.35Y-52.25
X207.6Y-117.311
X207.625Y-51.5
X207.625Y-81.5
X207.8Y-66.299
X207.825Y-67.025
X207.85Y-73.165
X207.875Y-58.03
X207.875Y-86.361
X208.05Y-112.612
X208.2Y-82.2
X208.35Y-67.575
X208.45Y-88.3
X208.55Y-103.5
X208.55Y-117.98
X208.65Y-98.95
X208.725Y-114.325
X208.875Y-111.45
X209.05Y-71.226
X209.1Y-102.301
X209.225Y-82.75
X209.25Y-96.45
X209.3Y-50.512
X209.325Y-49.812
X209.7Y-98.021
X214.237Y-67.688
X214.275Y-58.03
X214.325Y-87.65
X214.35Y-109.4
X214.4Y-81.037
X214.967Y-69.742
X215.462Y-91.688
X215.6Y-49.95
X216.023Y-53.227
X216.112Y-76.612
X216.137Y-103.512
X216.15Y-84.4
X216.525Y-83.025
X216.575Y-50.5
X216.598Y-55.302
X216.625Y-71.625
X216.637Y-96.887
X216.725Y-66.4
X217.075Y-120.625
X217.079Y-98.646
X217.125Y-119.15
X217.175Y-113.45
X217.275Y-105.775
X217.625Y-124.475
X217.925Y-125.925
X221.421Y-60.685
X221.438Y-86.866
X221.446Y-119.94
X221.465Y-67.219
X221.473Y-100.18
X221.479Y-50.514
X221.486Y-106.901
X221.491Y-80.344
X221.498Y-113.414
X221.5Y-57.25
X221.5Y-73.75
X221.5Y-93.662
X221.5Y-126.662
X224.1Y-50.525
X224.146Y-106.696
X224.15Y-74.05
X224.15Y-87.525
X224.15Y-94.475
X224.15Y-100.675
X224.175Y-80.325
X224.2Y-127.65
X224.3Y-66.275
X224.35Y-114.8
X224.35Y-121.7
X224.375Y-61.45
X224.425Y-58.0
X224.55Y-104.312
X224.812Y-108.137
X224.9Y-118.133
X224.95Y-102.812
X225.0Y-86.775
X225.024Y-85.451
X225.062Y-73.562
X225.1Y-91.112
X225.112Y-76.612
X225.148Y-120.427
X225.148Y-80.035
X225.275Y-89.612
X225.3Y-96.212
X225.444Y-98.306
X225.8Y-70.3
X225.9Y-106.375
X225.95Y-128.354
X226.162Y-53.912
X226.287Y-56.037
X226.975Y-51.975
X227.05Y-80.425
X227.075Y-118.133
X227.1Y-77.05
X227.137Y-60.387
X227.15Y-92.175
X227.15Y-94.375
X227.45Y-65.2
X227.9Y-63.9
X228.425Y-128.354
X228.775Y-120.734
X229.475Y-110.4
X234.575Y-122.9
X236.825Y-125.325
X237.35Y-118.1
X238.45Y-74.8
X239.0Y-128.4
X239.275Y-120.625
X243.625Y-110.425
X246.3Y-74.75
X248.047Y-122.927
X248.065Y-125.485
X248.25Y-120.6
X248.394Y-128.354
X248.55Y-118.1
T2
X144.5Y-49.25
X165.75Y-146.29
X185.0Y-47.5
T3
X161.075Y-133.145
X161.075Y-134.415
X161.075Y-135.685
X175.145Y-132.855
X175.145Y-134.125
X175.145Y-135.395
X194.25Y-133.98
X194.25Y-135.25
X194.25Y-136.52
T4
X134.006Y-61.664
X134.006Y-68.516
X134.006Y-76.664
X134.006Y-83.516
X134.006Y-91.664
X134.006Y-98.516
X134.006Y-106.664
X134.006Y-113.516
X134.006Y-121.664
X134.008Y-53.522
X149.006Y-53.516
X149.006Y-61.664
X149.006Y-68.516
X149.006Y-76.664
X149.006Y-83.516
X149.006Y-91.664
X149.006Y-98.516
X149.006Y-106.664
X149.006Y-113.516
X149.006Y-121.664
X164.006Y-53.516
X164.006Y-61.664
X164.006Y-68.516
X164.006Y-76.664
X164.006Y-83.516
X164.006Y-91.664
X164.006Y-98.516
X164.006Y-106.664
X164.006Y-113.516
X164.006Y-121.664
X179.006Y-53.516
X179.006Y-61.664
X179.006Y-68.516
X179.006Y-76.664
X179.006Y-83.516
X179.006Y-91.664
X179.006Y-98.516
X179.006Y-106.664
X179.006Y-113.516
X179.006Y-121.664
X194.006Y-53.516
X194.006Y-61.664
X194.006Y-68.516
X194.006Y-76.664
X194.006Y-83.516
X194.006Y-91.664
X194.006Y-98.516
X194.006Y-113.516
X194.006Y-121.664
T5
X125.775Y-98.35
X125.775Y-100.35
X125.775Y-102.35
X125.775Y-104.35
X141.75Y-65.25
X141.75Y-79.75
X141.75Y-94.75
X141.75Y-109.75
X141.75Y-124.75
X143.75Y-65.25
X143.75Y-79.75
X143.75Y-94.75
X143.75Y-109.75
X143.75Y-124.75
X156.75Y-64.75
X156.75Y-79.75
X156.75Y-94.75
X156.75Y-109.75
X156.85Y-124.75
X158.75Y-64.75
X158.75Y-79.75
X158.75Y-94.75
X158.75Y-109.75
X158.85Y-124.75
X171.75Y-64.75
X171.75Y-79.75
X171.75Y-94.75
X171.75Y-109.75
X171.75Y-124.75
X173.75Y-64.75
X173.75Y-79.75
X173.75Y-94.75
X173.75Y-109.75
X173.75Y-124.75
X186.75Y-64.75
X186.75Y-79.75
X186.75Y-94.75
X186.75Y-109.75
X186.75Y-124.75
X188.75Y-64.75
X188.75Y-79.75
X188.75Y-94.75
X188.75Y-109.75
X188.75Y-124.75
X192.125Y-44.3
X194.125Y-44.3
X196.125Y-44.3
X198.125Y-44.3
X201.75Y-64.75
X201.75Y-79.75
X201.75Y-94.75
X201.75Y-109.75
X201.75Y-124.75
X203.75Y-64.75
X203.75Y-79.75
X203.75Y-94.75
X203.75Y-109.75
X203.75Y-124.75
X221.425Y-44.175
X223.425Y-44.175
X225.425Y-44.175
X227.425Y-44.175
T6
X231.68Y-43.06
X231.68Y-45.6
X231.68Y-48.14
X231.68Y-50.68
X231.68Y-53.22
X231.68Y-55.76
X231.68Y-58.3
X231.68Y-71.0
X231.68Y-73.54
X231.68Y-76.08
X231.68Y-78.62
X231.68Y-81.16
X231.68Y-83.7
X231.68Y-86.24
X231.68Y-88.78
X231.68Y-91.32
X231.68Y-93.86
X231.68Y-96.4
X231.68Y-98.94
X231.68Y-101.48
X231.68Y-104.02
X231.68Y-106.56
X231.68Y-109.1
X231.68Y-111.64
X231.68Y-114.18
X231.68Y-116.72
X231.68Y-119.26
X231.68Y-121.8
X231.68Y-124.34
X231.68Y-126.88
X231.68Y-129.42
X231.68Y-131.96
X231.68Y-134.5
X252.0Y-43.06
X252.0Y-45.6
X252.0Y-48.14
X252.0Y-50.68
X252.0Y-53.22
X252.0Y-55.76
X252.0Y-58.3
X252.0Y-71.0
X252.0Y-73.54
X252.0Y-76.08
X252.0Y-78.62
X252.0Y-81.16
X252.0Y-83.7
X252.0Y-86.24
X252.0Y-88.78
X252.0Y-91.32
X252.0Y-93.86
X252.0Y-96.4
X252.0Y-98.94
X252.0Y-101.48
X252.0Y-104.02
X252.0Y-106.56
X252.0Y-109.1
X252.0Y-111.64
X252.0Y-114.18
X252.0Y-116.72
X252.0Y-119.26
X252.0Y-121.8
X252.0Y-124.34
X252.0Y-126.88
X252.0Y-129.42
X252.0Y-131.96
X252.0Y-134.5
T7
X223.15Y-137.4
T8
X161.625Y-142.165
X166.705Y-142.165
X173.135Y-142.155
X178.215Y-142.155
M30
