%TF.GenerationSoftware,KiCad,Pcbnew,9.0.4*%
%TF.CreationDate,2025-10-06T13:07:05+13:00*%
%TF.ProjectId,sigProc_esfgrid_cct_IA,73696750-726f-4635-9f65-736667726964,rev?*%
%TF.SameCoordinates,Original*%
%TF.FileFunction,Paste,Top*%
%TF.FilePolarity,Positive*%
%FSLAX46Y46*%
G04 Gerber Fmt 4.6, Leading zero omitted, Abs format (unit mm)*
G04 Created by KiCad (PCBNEW 9.0.4) date 2025-10-06 13:07:05*
%MOMM*%
%LPD*%
G01*
G04 APERTURE LIST*
G04 Aperture macros list*
%AMRoundRect*
0 Rectangle with rounded corners*
0 $1 Rounding radius*
0 $2 $3 $4 $5 $6 $7 $8 $9 X,Y pos of 4 corners*
0 Add a 4 corners polygon primitive as box body*
4,1,4,$2,$3,$4,$5,$6,$7,$8,$9,$2,$3,0*
0 Add four circle primitives for the rounded corners*
1,1,$1+$1,$2,$3*
1,1,$1+$1,$4,$5*
1,1,$1+$1,$6,$7*
1,1,$1+$1,$8,$9*
0 Add four rect primitives between the rounded corners*
20,1,$1+$1,$2,$3,$4,$5,0*
20,1,$1+$1,$4,$5,$6,$7,0*
20,1,$1+$1,$6,$7,$8,$9,0*
20,1,$1+$1,$8,$9,$2,$3,0*%
G04 Aperture macros list end*
%ADD10RoundRect,0.237500X-0.250000X-0.237500X0.250000X-0.237500X0.250000X0.237500X-0.250000X0.237500X0*%
%ADD11RoundRect,0.237500X-0.237500X0.250000X-0.237500X-0.250000X0.237500X-0.250000X0.237500X0.250000X0*%
%ADD12RoundRect,0.237500X0.237500X-0.250000X0.237500X0.250000X-0.237500X0.250000X-0.237500X-0.250000X0*%
%ADD13RoundRect,0.237500X-0.237500X0.300000X-0.237500X-0.300000X0.237500X-0.300000X0.237500X0.300000X0*%
%ADD14RoundRect,0.237500X-0.300000X-0.237500X0.300000X-0.237500X0.300000X0.237500X-0.300000X0.237500X0*%
%ADD15RoundRect,0.250000X-1.050000X-0.550000X1.050000X-0.550000X1.050000X0.550000X-1.050000X0.550000X0*%
%ADD16RoundRect,0.237500X0.300000X0.237500X-0.300000X0.237500X-0.300000X-0.237500X0.300000X-0.237500X0*%
%ADD17RoundRect,0.250000X-0.550000X1.050000X-0.550000X-1.050000X0.550000X-1.050000X0.550000X1.050000X0*%
%ADD18RoundRect,0.237500X0.237500X-0.300000X0.237500X0.300000X-0.237500X0.300000X-0.237500X-0.300000X0*%
%ADD19RoundRect,0.150000X-0.825000X-0.150000X0.825000X-0.150000X0.825000X0.150000X-0.825000X0.150000X0*%
%ADD20RoundRect,0.250000X0.475000X-0.250000X0.475000X0.250000X-0.475000X0.250000X-0.475000X-0.250000X0*%
%ADD21RoundRect,0.250000X-0.250000X-0.475000X0.250000X-0.475000X0.250000X0.475000X-0.250000X0.475000X0*%
%ADD22RoundRect,0.250000X0.250000X0.475000X-0.250000X0.475000X-0.250000X-0.475000X0.250000X-0.475000X0*%
%ADD23RoundRect,0.250000X0.550000X-1.050000X0.550000X1.050000X-0.550000X1.050000X-0.550000X-1.050000X0*%
G04 APERTURE END LIST*
D10*
%TO.C,R20*%
X187402600Y-53322500D03*
X189227600Y-53322500D03*
%TD*%
D11*
%TO.C,R170*%
X220758061Y-117487500D03*
X220758061Y-119312500D03*
%TD*%
D12*
%TO.C,R27*%
X138530000Y-75560000D03*
X138530000Y-73735000D03*
%TD*%
%TO.C,R82*%
X153507500Y-105432500D03*
X153507500Y-103607500D03*
%TD*%
D13*
%TO.C,C88*%
X136497600Y-120797500D03*
X136497600Y-122522500D03*
%TD*%
%TO.C,C104*%
X196530000Y-120527500D03*
X196530000Y-122252500D03*
%TD*%
%TO.C,C124*%
X222258061Y-81175000D03*
X222258061Y-82900000D03*
%TD*%
D10*
%TO.C,R38*%
X164605000Y-71450000D03*
X166430000Y-71450000D03*
%TD*%
D11*
%TO.C,R106*%
X153510000Y-114135000D03*
X153510000Y-115960000D03*
%TD*%
D13*
%TO.C,C130*%
X222258061Y-101037500D03*
X222258061Y-102762500D03*
%TD*%
%TO.C,C64*%
X196540000Y-90847500D03*
X196540000Y-92572500D03*
%TD*%
D14*
%TO.C,C105*%
X204127500Y-121120000D03*
X205852500Y-121120000D03*
%TD*%
D15*
%TO.C,C109*%
X146450000Y-43500000D03*
X150050000Y-43500000D03*
%TD*%
D16*
%TO.C,C82*%
X187282500Y-106350000D03*
X185557500Y-106350000D03*
%TD*%
D13*
%TO.C,C96*%
X166502500Y-120487500D03*
X166502500Y-122212500D03*
%TD*%
D11*
%TO.C,R167*%
X219258061Y-127387500D03*
X219258061Y-129212500D03*
%TD*%
D17*
%TO.C,C2*%
X184095000Y-140095000D03*
X184095000Y-143695000D03*
%TD*%
D18*
%TO.C,C125*%
X222258061Y-86200000D03*
X222258061Y-84475000D03*
%TD*%
D10*
%TO.C,R53*%
X134675000Y-86130000D03*
X136500000Y-86130000D03*
%TD*%
D13*
%TO.C,C68*%
X136550000Y-105537500D03*
X136550000Y-107262500D03*
%TD*%
D11*
%TO.C,R140*%
X220758061Y-71175000D03*
X220758061Y-73000000D03*
%TD*%
D19*
%TO.C,U22*%
X200920000Y-100420000D03*
X200920000Y-101690000D03*
X200920000Y-102960000D03*
X200920000Y-104230000D03*
X205870000Y-104230000D03*
X205870000Y-102960000D03*
X205870000Y-101690000D03*
X205870000Y-100420000D03*
%TD*%
D12*
%TO.C,R72*%
X198500000Y-90800000D03*
X198500000Y-88975000D03*
%TD*%
D11*
%TO.C,R51*%
X138580000Y-83935000D03*
X138580000Y-85760000D03*
%TD*%
D13*
%TO.C,C55*%
X166590000Y-82462500D03*
X166590000Y-84187500D03*
%TD*%
D16*
%TO.C,C46*%
X202292500Y-76305000D03*
X200567500Y-76305000D03*
%TD*%
D14*
%TO.C,C45*%
X204117500Y-76305000D03*
X205842500Y-76305000D03*
%TD*%
D18*
%TO.C,C131*%
X222258061Y-106062500D03*
X222258061Y-104337500D03*
%TD*%
D12*
%TO.C,R154*%
X220758061Y-96212500D03*
X220758061Y-94387500D03*
%TD*%
%TO.C,R92*%
X183470000Y-105710000D03*
X183470000Y-103885000D03*
%TD*%
D16*
%TO.C,C34*%
X157312500Y-76260000D03*
X155587500Y-76260000D03*
%TD*%
D10*
%TO.C,R113*%
X164617500Y-116450000D03*
X166442500Y-116450000D03*
%TD*%
D13*
%TO.C,C79*%
X181590000Y-97777500D03*
X181590000Y-99502500D03*
%TD*%
D12*
%TO.C,R149*%
X219258061Y-86250000D03*
X219258061Y-84425000D03*
%TD*%
D11*
%TO.C,R159*%
X219258061Y-100987500D03*
X219258061Y-102812500D03*
%TD*%
D10*
%TO.C,R94*%
X179627500Y-103610000D03*
X181452500Y-103610000D03*
%TD*%
D16*
%TO.C,C42*%
X187292500Y-76420000D03*
X185567500Y-76420000D03*
%TD*%
D10*
%TO.C,R79*%
X134667500Y-103390000D03*
X136492500Y-103390000D03*
%TD*%
D13*
%TO.C,C7*%
X136627600Y-52567500D03*
X136627600Y-54292500D03*
%TD*%
D10*
%TO.C,R25*%
X202455000Y-53370000D03*
X204280000Y-53370000D03*
%TD*%
D14*
%TO.C,C85*%
X204117500Y-106100000D03*
X205842500Y-106100000D03*
%TD*%
D18*
%TO.C,C116*%
X222258061Y-56412500D03*
X222258061Y-54687500D03*
%TD*%
D12*
%TO.C,R57*%
X153470000Y-90780000D03*
X153470000Y-88955000D03*
%TD*%
D10*
%TO.C,R88*%
X164625000Y-101690000D03*
X166450000Y-101690000D03*
%TD*%
%TO.C,R28*%
X134685000Y-71570000D03*
X136510000Y-71570000D03*
%TD*%
%TO.C,R43*%
X179635000Y-71790000D03*
X181460000Y-71790000D03*
%TD*%
D13*
%TO.C,C83*%
X196600000Y-97527500D03*
X196600000Y-99252500D03*
%TD*%
D16*
%TO.C,C54*%
X157282500Y-91420000D03*
X155557500Y-91420000D03*
%TD*%
D11*
%TO.C,R76*%
X138570000Y-99305000D03*
X138570000Y-101130000D03*
%TD*%
D10*
%TO.C,R10*%
X157442600Y-53327500D03*
X159267600Y-53327500D03*
%TD*%
D11*
%TO.C,R41*%
X183540000Y-69595000D03*
X183540000Y-71420000D03*
%TD*%
D14*
%TO.C,C17*%
X174122500Y-61120000D03*
X175847500Y-61120000D03*
%TD*%
D19*
%TO.C,U21*%
X185910000Y-100670000D03*
X185910000Y-101940000D03*
X185910000Y-103210000D03*
X185910000Y-104480000D03*
X190860000Y-104480000D03*
X190860000Y-103210000D03*
X190860000Y-101940000D03*
X190860000Y-100670000D03*
%TD*%
D14*
%TO.C,C37*%
X174087500Y-76080000D03*
X175812500Y-76080000D03*
%TD*%
D11*
%TO.C,R31*%
X153560000Y-69435000D03*
X153560000Y-71260000D03*
%TD*%
D10*
%TO.C,R73*%
X194655000Y-86810000D03*
X196480000Y-86810000D03*
%TD*%
%TO.C,R84*%
X149665000Y-103332500D03*
X151490000Y-103332500D03*
%TD*%
%TO.C,R99*%
X194637500Y-103360000D03*
X196462500Y-103360000D03*
%TD*%
D13*
%TO.C,C8*%
X136547600Y-60547500D03*
X136547600Y-62272500D03*
%TD*%
D10*
%TO.C,R40*%
X172395000Y-68280000D03*
X174220000Y-68280000D03*
%TD*%
D14*
%TO.C,C41*%
X189117500Y-76420000D03*
X190842500Y-76420000D03*
%TD*%
D13*
%TO.C,C92*%
X151490000Y-120367500D03*
X151490000Y-122092500D03*
%TD*%
D18*
%TO.C,C136*%
X222258061Y-119262500D03*
X222258061Y-117537500D03*
%TD*%
D13*
%TO.C,C137*%
X222258061Y-120837500D03*
X222258061Y-122562500D03*
%TD*%
D11*
%TO.C,R144*%
X220758061Y-77825000D03*
X220758061Y-79650000D03*
%TD*%
D16*
%TO.C,C74*%
X157320000Y-106072500D03*
X155595000Y-106072500D03*
%TD*%
D11*
%TO.C,R66*%
X183525000Y-84395000D03*
X183525000Y-86220000D03*
%TD*%
%TO.C,R156*%
X220758061Y-97687500D03*
X220758061Y-99512500D03*
%TD*%
D16*
%TO.C,C106*%
X202302500Y-121120000D03*
X200577500Y-121120000D03*
%TD*%
D12*
%TO.C,R145*%
X219258061Y-79650000D03*
X219258061Y-77825000D03*
%TD*%
D13*
%TO.C,C27*%
X136650000Y-67627500D03*
X136650000Y-69352500D03*
%TD*%
D10*
%TO.C,R33*%
X149655000Y-71630000D03*
X151480000Y-71630000D03*
%TD*%
D12*
%TO.C,R150*%
X220758061Y-89550000D03*
X220758061Y-87725000D03*
%TD*%
D13*
%TO.C,C24*%
X196550000Y-60577500D03*
X196550000Y-62302500D03*
%TD*%
D11*
%TO.C,R101*%
X138517600Y-114565000D03*
X138517600Y-116390000D03*
%TD*%
D10*
%TO.C,R114*%
X164620000Y-118340000D03*
X166445000Y-118340000D03*
%TD*%
D20*
%TO.C,C139*%
X216675000Y-140375000D03*
X216675000Y-138475000D03*
%TD*%
D18*
%TO.C,C127*%
X222258061Y-92862500D03*
X222258061Y-91137500D03*
%TD*%
D13*
%TO.C,C91*%
X151570000Y-112387500D03*
X151570000Y-114112500D03*
%TD*%
D21*
%TO.C,C108*%
X172600000Y-47500000D03*
X174500000Y-47500000D03*
%TD*%
D19*
%TO.C,U10*%
X170890000Y-70400000D03*
X170890000Y-71670000D03*
X170890000Y-72940000D03*
X170890000Y-74210000D03*
X175840000Y-74210000D03*
X175840000Y-72940000D03*
X175840000Y-71670000D03*
X175840000Y-70400000D03*
%TD*%
%TO.C,U19*%
X155947500Y-100392500D03*
X155947500Y-101662500D03*
X155947500Y-102932500D03*
X155947500Y-104202500D03*
X160897500Y-104202500D03*
X160897500Y-102932500D03*
X160897500Y-101662500D03*
X160897500Y-100392500D03*
%TD*%
%TO.C,U15*%
X170910000Y-85355000D03*
X170910000Y-86625000D03*
X170910000Y-87895000D03*
X170910000Y-89165000D03*
X175860000Y-89165000D03*
X175860000Y-87895000D03*
X175860000Y-86625000D03*
X175860000Y-85355000D03*
%TD*%
D11*
%TO.C,R61*%
X168530000Y-84210000D03*
X168530000Y-86035000D03*
%TD*%
D10*
%TO.C,R104*%
X134615100Y-118650000D03*
X136440100Y-118650000D03*
%TD*%
D19*
%TO.C,U23*%
X140897600Y-115710000D03*
X140897600Y-116980000D03*
X140897600Y-118250000D03*
X140897600Y-119520000D03*
X145847600Y-119520000D03*
X145847600Y-118250000D03*
X145847600Y-116980000D03*
X145847600Y-115710000D03*
%TD*%
D16*
%TO.C,C22*%
X187270100Y-61122500D03*
X185545100Y-61122500D03*
%TD*%
D12*
%TO.C,R162*%
X220758061Y-109412500D03*
X220758061Y-107587500D03*
%TD*%
D11*
%TO.C,R56*%
X153530000Y-84595000D03*
X153530000Y-86420000D03*
%TD*%
D10*
%TO.C,R15*%
X172430000Y-53320000D03*
X174255000Y-53320000D03*
%TD*%
D13*
%TO.C,C132*%
X222258061Y-107637500D03*
X222258061Y-109362500D03*
%TD*%
%TO.C,C75*%
X166590000Y-97747500D03*
X166590000Y-99472500D03*
%TD*%
D11*
%TO.C,R6*%
X153557600Y-54302500D03*
X153557600Y-56127500D03*
%TD*%
D14*
%TO.C,C89*%
X144095100Y-121390000D03*
X145820100Y-121390000D03*
%TD*%
D12*
%TO.C,R157*%
X219258061Y-99512500D03*
X219258061Y-97687500D03*
%TD*%
D16*
%TO.C,C50*%
X142332500Y-90760000D03*
X140607500Y-90760000D03*
%TD*%
D20*
%TO.C,C4*%
X183805000Y-135195000D03*
X183805000Y-133295000D03*
%TD*%
D12*
%TO.C,R52*%
X138520000Y-90120000D03*
X138520000Y-88295000D03*
%TD*%
D16*
%TO.C,C14*%
X157310100Y-61127500D03*
X155585100Y-61127500D03*
%TD*%
D12*
%TO.C,R122*%
X198490000Y-120480000D03*
X198490000Y-118655000D03*
%TD*%
D11*
%TO.C,R126*%
X220758061Y-47987500D03*
X220758061Y-49812500D03*
%TD*%
%TO.C,R151*%
X219258061Y-87725000D03*
X219258061Y-89550000D03*
%TD*%
D10*
%TO.C,R45*%
X187425000Y-68620000D03*
X189250000Y-68620000D03*
%TD*%
D12*
%TO.C,R47*%
X198480000Y-75665000D03*
X198480000Y-73840000D03*
%TD*%
D18*
%TO.C,C133*%
X222258061Y-112662500D03*
X222258061Y-110937500D03*
%TD*%
D10*
%TO.C,R18*%
X179612600Y-56492500D03*
X181437600Y-56492500D03*
%TD*%
D13*
%TO.C,C32*%
X151540000Y-75667500D03*
X151540000Y-77392500D03*
%TD*%
D12*
%TO.C,R161*%
X219258061Y-106112500D03*
X219258061Y-104287500D03*
%TD*%
D13*
%TO.C,C15*%
X166605000Y-52547500D03*
X166605000Y-54272500D03*
%TD*%
D11*
%TO.C,R71*%
X198560000Y-84615000D03*
X198560000Y-86440000D03*
%TD*%
D19*
%TO.C,U9*%
X155940000Y-70580000D03*
X155940000Y-71850000D03*
X155940000Y-73120000D03*
X155940000Y-74390000D03*
X160890000Y-74390000D03*
X160890000Y-73120000D03*
X160890000Y-71850000D03*
X160890000Y-70580000D03*
%TD*%
D10*
%TO.C,R14*%
X164642500Y-58380000D03*
X166467500Y-58380000D03*
%TD*%
D13*
%TO.C,C20*%
X181497600Y-60530000D03*
X181497600Y-62255000D03*
%TD*%
D12*
%TO.C,R137*%
X219258061Y-66400000D03*
X219258061Y-64575000D03*
%TD*%
D10*
%TO.C,R39*%
X164607500Y-73340000D03*
X166432500Y-73340000D03*
%TD*%
D13*
%TO.C,C87*%
X136577600Y-112817500D03*
X136577600Y-114542500D03*
%TD*%
D10*
%TO.C,R19*%
X179615100Y-58382500D03*
X181440100Y-58382500D03*
%TD*%
D16*
%TO.C,C78*%
X172282500Y-106320000D03*
X170557500Y-106320000D03*
%TD*%
D20*
%TO.C,C3*%
X165275000Y-134345000D03*
X165275000Y-132445000D03*
%TD*%
D11*
%TO.C,R86*%
X168530000Y-99495000D03*
X168530000Y-101320000D03*
%TD*%
D12*
%TO.C,R175*%
X219258061Y-125912500D03*
X219258061Y-124087500D03*
%TD*%
D13*
%TO.C,C48*%
X136560000Y-90167500D03*
X136560000Y-91892500D03*
%TD*%
D14*
%TO.C,C21*%
X189095100Y-61122500D03*
X190820100Y-61122500D03*
%TD*%
D13*
%TO.C,C52*%
X151510000Y-90827500D03*
X151510000Y-92552500D03*
%TD*%
D10*
%TO.C,R49*%
X194637500Y-73565000D03*
X196462500Y-73565000D03*
%TD*%
D17*
%TO.C,C1*%
X155935000Y-140345000D03*
X155935000Y-143945000D03*
%TD*%
D12*
%TO.C,R77*%
X138510000Y-105490000D03*
X138510000Y-103665000D03*
%TD*%
D10*
%TO.C,R118*%
X179635000Y-116560000D03*
X181460000Y-116560000D03*
%TD*%
%TO.C,R103*%
X134612600Y-116760000D03*
X136437600Y-116760000D03*
%TD*%
D12*
%TO.C,R97*%
X198480000Y-105460000D03*
X198480000Y-103635000D03*
%TD*%
D10*
%TO.C,R35*%
X157445000Y-68460000D03*
X159270000Y-68460000D03*
%TD*%
D16*
%TO.C,C38*%
X172262500Y-76080000D03*
X170537500Y-76080000D03*
%TD*%
D12*
%TO.C,R32*%
X153500000Y-75620000D03*
X153500000Y-73795000D03*
%TD*%
D11*
%TO.C,R152*%
X220758061Y-91087500D03*
X220758061Y-92912500D03*
%TD*%
D13*
%TO.C,C67*%
X136630000Y-97557500D03*
X136630000Y-99282500D03*
%TD*%
%TO.C,C43*%
X196600000Y-67732500D03*
X196600000Y-69457500D03*
%TD*%
D11*
%TO.C,R169*%
X219258061Y-114187500D03*
X219258061Y-116012500D03*
%TD*%
%TO.C,R11*%
X168545000Y-54295000D03*
X168545000Y-56120000D03*
%TD*%
D16*
%TO.C,C30*%
X142342500Y-76200000D03*
X140617500Y-76200000D03*
%TD*%
D14*
%TO.C,C49*%
X144157500Y-90760000D03*
X145882500Y-90760000D03*
%TD*%
D19*
%TO.C,U26*%
X185920000Y-115510000D03*
X185920000Y-116780000D03*
X185920000Y-118050000D03*
X185920000Y-119320000D03*
X190870000Y-119320000D03*
X190870000Y-118050000D03*
X190870000Y-116780000D03*
X190870000Y-115510000D03*
%TD*%
D11*
%TO.C,R155*%
X219258061Y-94387500D03*
X219258061Y-96212500D03*
%TD*%
D10*
%TO.C,R100*%
X202425000Y-98300000D03*
X204250000Y-98300000D03*
%TD*%
D13*
%TO.C,C31*%
X151620000Y-67687500D03*
X151620000Y-69412500D03*
%TD*%
D19*
%TO.C,U27*%
X200930000Y-115440000D03*
X200930000Y-116710000D03*
X200930000Y-117980000D03*
X200930000Y-119250000D03*
X205880000Y-119250000D03*
X205880000Y-117980000D03*
X205880000Y-116710000D03*
X205880000Y-115440000D03*
%TD*%
%TO.C,U8*%
X140970000Y-70520000D03*
X140970000Y-71790000D03*
X140970000Y-73060000D03*
X140970000Y-74330000D03*
X145920000Y-74330000D03*
X145920000Y-73060000D03*
X145920000Y-71790000D03*
X145920000Y-70520000D03*
%TD*%
D10*
%TO.C,R95*%
X187415000Y-98550000D03*
X189240000Y-98550000D03*
%TD*%
D11*
%TO.C,R96*%
X198540000Y-99275000D03*
X198540000Y-101100000D03*
%TD*%
D19*
%TO.C,U16*%
X185905000Y-85540000D03*
X185905000Y-86810000D03*
X185905000Y-88080000D03*
X185905000Y-89350000D03*
X190855000Y-89350000D03*
X190855000Y-88080000D03*
X190855000Y-86810000D03*
X190855000Y-85540000D03*
%TD*%
%TO.C,U14*%
X155910000Y-85740000D03*
X155910000Y-87010000D03*
X155910000Y-88280000D03*
X155910000Y-89550000D03*
X160860000Y-89550000D03*
X160860000Y-88280000D03*
X160860000Y-87010000D03*
X160860000Y-85740000D03*
%TD*%
D14*
%TO.C,C65*%
X204137500Y-91440000D03*
X205862500Y-91440000D03*
%TD*%
D13*
%TO.C,C72*%
X151547500Y-105480000D03*
X151547500Y-107205000D03*
%TD*%
%TO.C,C19*%
X181577600Y-52550000D03*
X181577600Y-54275000D03*
%TD*%
D12*
%TO.C,R107*%
X153450000Y-120320000D03*
X153450000Y-118495000D03*
%TD*%
D11*
%TO.C,R174*%
X220758061Y-124087500D03*
X220758061Y-125912500D03*
%TD*%
D10*
%TO.C,R119*%
X179637500Y-118450000D03*
X181462500Y-118450000D03*
%TD*%
D13*
%TO.C,C16*%
X166525000Y-60527500D03*
X166525000Y-62252500D03*
%TD*%
D20*
%TO.C,C112*%
X198360000Y-135950000D03*
X198360000Y-134050000D03*
%TD*%
D13*
%TO.C,C71*%
X151627500Y-97500000D03*
X151627500Y-99225000D03*
%TD*%
D10*
%TO.C,R123*%
X194645000Y-116490000D03*
X196470000Y-116490000D03*
%TD*%
D14*
%TO.C,C9*%
X144145100Y-61140000D03*
X145870100Y-61140000D03*
%TD*%
D11*
%TO.C,R26*%
X138590000Y-69375000D03*
X138590000Y-71200000D03*
%TD*%
D12*
%TO.C,R141*%
X219258061Y-73000000D03*
X219258061Y-71175000D03*
%TD*%
D11*
%TO.C,R147*%
X219258061Y-81125000D03*
X219258061Y-82950000D03*
%TD*%
D13*
%TO.C,C115*%
X222258061Y-51375000D03*
X222258061Y-53100000D03*
%TD*%
D10*
%TO.C,R34*%
X149657500Y-73520000D03*
X151482500Y-73520000D03*
%TD*%
%TO.C,R108*%
X149587500Y-116330000D03*
X151412500Y-116330000D03*
%TD*%
%TO.C,R124*%
X194647500Y-118380000D03*
X196472500Y-118380000D03*
%TD*%
D22*
%TO.C,C107*%
X149400000Y-48250000D03*
X147500000Y-48250000D03*
%TD*%
D14*
%TO.C,C33*%
X159137500Y-76260000D03*
X160862500Y-76260000D03*
%TD*%
D13*
%TO.C,C47*%
X136640000Y-82187500D03*
X136640000Y-83912500D03*
%TD*%
%TO.C,C56*%
X166510000Y-90442500D03*
X166510000Y-92167500D03*
%TD*%
D11*
%TO.C,R91*%
X183530000Y-99525000D03*
X183530000Y-101350000D03*
%TD*%
D13*
%TO.C,C28*%
X136570000Y-75607500D03*
X136570000Y-77332500D03*
%TD*%
D10*
%TO.C,R93*%
X179625000Y-101720000D03*
X181450000Y-101720000D03*
%TD*%
D14*
%TO.C,C97*%
X174100000Y-121080000D03*
X175825000Y-121080000D03*
%TD*%
D18*
%TO.C,C121*%
X222258061Y-72950000D03*
X222258061Y-71225000D03*
%TD*%
D19*
%TO.C,U25*%
X170902500Y-115400000D03*
X170902500Y-116670000D03*
X170902500Y-117940000D03*
X170902500Y-119210000D03*
X175852500Y-119210000D03*
X175852500Y-117940000D03*
X175852500Y-116670000D03*
X175852500Y-115400000D03*
%TD*%
D10*
%TO.C,R30*%
X142475000Y-68400000D03*
X144300000Y-68400000D03*
%TD*%
D12*
%TO.C,R22*%
X198510000Y-60530000D03*
X198510000Y-58705000D03*
%TD*%
D19*
%TO.C,U24*%
X155890000Y-115280000D03*
X155890000Y-116550000D03*
X155890000Y-117820000D03*
X155890000Y-119090000D03*
X160840000Y-119090000D03*
X160840000Y-117820000D03*
X160840000Y-116550000D03*
X160840000Y-115280000D03*
%TD*%
D13*
%TO.C,C117*%
X222258061Y-58012500D03*
X222258061Y-59737500D03*
%TD*%
D17*
%TO.C,C111*%
X194360000Y-139950000D03*
X194360000Y-143550000D03*
%TD*%
D12*
%TO.C,R142*%
X220758061Y-76300000D03*
X220758061Y-74475000D03*
%TD*%
D14*
%TO.C,C25*%
X204147500Y-61170000D03*
X205872500Y-61170000D03*
%TD*%
D11*
%TO.C,R160*%
X220758061Y-104287500D03*
X220758061Y-106112500D03*
%TD*%
D14*
%TO.C,C73*%
X159145000Y-106072500D03*
X160870000Y-106072500D03*
%TD*%
%TO.C,C61*%
X189102500Y-91220000D03*
X190827500Y-91220000D03*
%TD*%
D10*
%TO.C,R74*%
X194657500Y-88700000D03*
X196482500Y-88700000D03*
%TD*%
D13*
%TO.C,C36*%
X166490000Y-75487500D03*
X166490000Y-77212500D03*
%TD*%
D10*
%TO.C,R23*%
X194665000Y-56540000D03*
X196490000Y-56540000D03*
%TD*%
%TO.C,R58*%
X149625000Y-86790000D03*
X151450000Y-86790000D03*
%TD*%
D12*
%TO.C,R165*%
X219258061Y-112712500D03*
X219258061Y-110887500D03*
%TD*%
D10*
%TO.C,R85*%
X157452500Y-98272500D03*
X159277500Y-98272500D03*
%TD*%
D13*
%TO.C,C40*%
X181520000Y-75827500D03*
X181520000Y-77552500D03*
%TD*%
D19*
%TO.C,U7*%
X200950000Y-55490000D03*
X200950000Y-56760000D03*
X200950000Y-58030000D03*
X200950000Y-59300000D03*
X205900000Y-59300000D03*
X205900000Y-58030000D03*
X205900000Y-56760000D03*
X205900000Y-55490000D03*
%TD*%
D13*
%TO.C,C95*%
X166582500Y-112507500D03*
X166582500Y-114232500D03*
%TD*%
%TO.C,C80*%
X181510000Y-105757500D03*
X181510000Y-107482500D03*
%TD*%
D19*
%TO.C,U20*%
X170910000Y-100640000D03*
X170910000Y-101910000D03*
X170910000Y-103180000D03*
X170910000Y-104450000D03*
X175860000Y-104450000D03*
X175860000Y-103180000D03*
X175860000Y-101910000D03*
X175860000Y-100640000D03*
%TD*%
D13*
%TO.C,C39*%
X181600000Y-67847500D03*
X181600000Y-69572500D03*
%TD*%
%TO.C,C128*%
X222258061Y-94437500D03*
X222258061Y-96162500D03*
%TD*%
D11*
%TO.C,R16*%
X183517600Y-54297500D03*
X183517600Y-56122500D03*
%TD*%
D13*
%TO.C,C35*%
X166570000Y-67507500D03*
X166570000Y-69232500D03*
%TD*%
%TO.C,C12*%
X151537600Y-60535000D03*
X151537600Y-62260000D03*
%TD*%
D19*
%TO.C,U3*%
X140947600Y-55460000D03*
X140947600Y-56730000D03*
X140947600Y-58000000D03*
X140947600Y-59270000D03*
X145897600Y-59270000D03*
X145897600Y-58000000D03*
X145897600Y-56730000D03*
X145897600Y-55460000D03*
%TD*%
D13*
%TO.C,C51*%
X151590000Y-82847500D03*
X151590000Y-84572500D03*
%TD*%
D19*
%TO.C,U17*%
X200940000Y-85760000D03*
X200940000Y-87030000D03*
X200940000Y-88300000D03*
X200940000Y-89570000D03*
X205890000Y-89570000D03*
X205890000Y-88300000D03*
X205890000Y-87030000D03*
X205890000Y-85760000D03*
%TD*%
D10*
%TO.C,R13*%
X164640000Y-56490000D03*
X166465000Y-56490000D03*
%TD*%
D12*
%TO.C,R42*%
X183480000Y-75780000D03*
X183480000Y-73955000D03*
%TD*%
%TO.C,R132*%
X220758061Y-59787500D03*
X220758061Y-57962500D03*
%TD*%
D16*
%TO.C,C102*%
X187292500Y-121190000D03*
X185567500Y-121190000D03*
%TD*%
D14*
%TO.C,C81*%
X189107500Y-106350000D03*
X190832500Y-106350000D03*
%TD*%
D13*
%TO.C,C44*%
X196520000Y-75712500D03*
X196520000Y-77437500D03*
%TD*%
D11*
%TO.C,R121*%
X198550000Y-114295000D03*
X198550000Y-116120000D03*
%TD*%
D10*
%TO.C,R90*%
X172415000Y-98520000D03*
X174240000Y-98520000D03*
%TD*%
D11*
%TO.C,R111*%
X168522500Y-114255000D03*
X168522500Y-116080000D03*
%TD*%
D12*
%TO.C,R87*%
X168470000Y-105680000D03*
X168470000Y-103855000D03*
%TD*%
%TO.C,R12*%
X168485000Y-60480000D03*
X168485000Y-58655000D03*
%TD*%
D11*
%TO.C,R139*%
X219258061Y-67875000D03*
X219258061Y-69700000D03*
%TD*%
D17*
%TO.C,C5*%
X169095000Y-132085000D03*
X169095000Y-135685000D03*
%TD*%
D10*
%TO.C,R55*%
X142465000Y-82960000D03*
X144290000Y-82960000D03*
%TD*%
D18*
%TO.C,C114*%
X222258061Y-49787500D03*
X222258061Y-48062500D03*
%TD*%
D12*
%TO.C,R166*%
X220758061Y-129212500D03*
X220758061Y-127387500D03*
%TD*%
D11*
%TO.C,R163*%
X219258061Y-107587500D03*
X219258061Y-109412500D03*
%TD*%
D12*
%TO.C,R67*%
X183465000Y-90580000D03*
X183465000Y-88755000D03*
%TD*%
D17*
%TO.C,C113*%
X202610000Y-132900000D03*
X202610000Y-136500000D03*
%TD*%
D10*
%TO.C,R98*%
X194635000Y-101470000D03*
X196460000Y-101470000D03*
%TD*%
D14*
%TO.C,C69*%
X144147500Y-106130000D03*
X145872500Y-106130000D03*
%TD*%
D12*
%TO.C,R153*%
X219258061Y-92912500D03*
X219258061Y-91087500D03*
%TD*%
D18*
%TO.C,C138*%
X222258061Y-125862500D03*
X222258061Y-124137500D03*
%TD*%
D19*
%TO.C,U5*%
X170925000Y-55440000D03*
X170925000Y-56710000D03*
X170925000Y-57980000D03*
X170925000Y-59250000D03*
X175875000Y-59250000D03*
X175875000Y-57980000D03*
X175875000Y-56710000D03*
X175875000Y-55440000D03*
%TD*%
D10*
%TO.C,R3*%
X134662600Y-56510000D03*
X136487600Y-56510000D03*
%TD*%
D11*
%TO.C,R143*%
X219258061Y-74475000D03*
X219258061Y-76300000D03*
%TD*%
D10*
%TO.C,R80*%
X142455000Y-98330000D03*
X144280000Y-98330000D03*
%TD*%
D12*
%TO.C,R37*%
X168450000Y-75440000D03*
X168450000Y-73615000D03*
%TD*%
%TO.C,R146*%
X220758061Y-82950000D03*
X220758061Y-81125000D03*
%TD*%
D13*
%TO.C,C122*%
X222258061Y-74525000D03*
X222258061Y-76250000D03*
%TD*%
D18*
%TO.C,C119*%
X222258061Y-66350000D03*
X222258061Y-64625000D03*
%TD*%
%TO.C,C123*%
X222258061Y-79600000D03*
X222258061Y-77875000D03*
%TD*%
D13*
%TO.C,C11*%
X151617600Y-52555000D03*
X151617600Y-54280000D03*
%TD*%
D19*
%TO.C,U13*%
X140960000Y-85080000D03*
X140960000Y-86350000D03*
X140960000Y-87620000D03*
X140960000Y-88890000D03*
X145910000Y-88890000D03*
X145910000Y-87620000D03*
X145910000Y-86350000D03*
X145910000Y-85080000D03*
%TD*%
D11*
%TO.C,R130*%
X220758061Y-54637500D03*
X220758061Y-56462500D03*
%TD*%
D13*
%TO.C,C63*%
X196620000Y-82867500D03*
X196620000Y-84592500D03*
%TD*%
D12*
%TO.C,R171*%
X219258061Y-119312500D03*
X219258061Y-117487500D03*
%TD*%
%TO.C,R158*%
X220758061Y-102812500D03*
X220758061Y-100987500D03*
%TD*%
D23*
%TO.C,C6*%
X179915000Y-135645000D03*
X179915000Y-132045000D03*
%TD*%
D12*
%TO.C,R172*%
X220758061Y-122612500D03*
X220758061Y-120787500D03*
%TD*%
D11*
%TO.C,R129*%
X219258061Y-51325000D03*
X219258061Y-53150000D03*
%TD*%
D14*
%TO.C,C57*%
X174107500Y-91035000D03*
X175832500Y-91035000D03*
%TD*%
D10*
%TO.C,R65*%
X172415000Y-83235000D03*
X174240000Y-83235000D03*
%TD*%
D13*
%TO.C,C135*%
X222258061Y-114237500D03*
X222258061Y-115962500D03*
%TD*%
D10*
%TO.C,R78*%
X134665000Y-101500000D03*
X136490000Y-101500000D03*
%TD*%
D11*
%TO.C,R1*%
X138567600Y-54315000D03*
X138567600Y-56140000D03*
%TD*%
%TO.C,R46*%
X198540000Y-69480000D03*
X198540000Y-71305000D03*
%TD*%
%TO.C,R21*%
X198570000Y-54345000D03*
X198570000Y-56170000D03*
%TD*%
%TO.C,R116*%
X183540000Y-114365000D03*
X183540000Y-116190000D03*
%TD*%
D10*
%TO.C,R8*%
X149652600Y-56497500D03*
X151477600Y-56497500D03*
%TD*%
%TO.C,R24*%
X194667500Y-58430000D03*
X196492500Y-58430000D03*
%TD*%
D11*
%TO.C,R133*%
X219258061Y-57962500D03*
X219258061Y-59787500D03*
%TD*%
D14*
%TO.C,C13*%
X159135100Y-61127500D03*
X160860100Y-61127500D03*
%TD*%
D11*
%TO.C,R36*%
X168510000Y-69255000D03*
X168510000Y-71080000D03*
%TD*%
D14*
%TO.C,C53*%
X159107500Y-91420000D03*
X160832500Y-91420000D03*
%TD*%
D12*
%TO.C,R131*%
X219258061Y-56462500D03*
X219258061Y-54637500D03*
%TD*%
D16*
%TO.C,C26*%
X202322500Y-61170000D03*
X200597500Y-61170000D03*
%TD*%
D13*
%TO.C,C134*%
X222258061Y-127437500D03*
X222258061Y-129162500D03*
%TD*%
D11*
%TO.C,R81*%
X153567500Y-99247500D03*
X153567500Y-101072500D03*
%TD*%
D19*
%TO.C,U11*%
X185920000Y-70740000D03*
X185920000Y-72010000D03*
X185920000Y-73280000D03*
X185920000Y-74550000D03*
X190870000Y-74550000D03*
X190870000Y-73280000D03*
X190870000Y-72010000D03*
X190870000Y-70740000D03*
%TD*%
D10*
%TO.C,R69*%
X179622500Y-88480000D03*
X181447500Y-88480000D03*
%TD*%
D11*
%TO.C,R136*%
X220758061Y-64575000D03*
X220758061Y-66400000D03*
%TD*%
D19*
%TO.C,U18*%
X140950000Y-100450000D03*
X140950000Y-101720000D03*
X140950000Y-102990000D03*
X140950000Y-104260000D03*
X145900000Y-104260000D03*
X145900000Y-102990000D03*
X145900000Y-101720000D03*
X145900000Y-100450000D03*
%TD*%
D10*
%TO.C,R60*%
X157415000Y-83620000D03*
X159240000Y-83620000D03*
%TD*%
%TO.C,R120*%
X187425000Y-113390000D03*
X189250000Y-113390000D03*
%TD*%
D16*
%TO.C,C86*%
X202292500Y-106100000D03*
X200567500Y-106100000D03*
%TD*%
%TO.C,C98*%
X172275000Y-121080000D03*
X170550000Y-121080000D03*
%TD*%
D12*
%TO.C,R7*%
X153497600Y-60487500D03*
X153497600Y-58662500D03*
%TD*%
D13*
%TO.C,C99*%
X181600000Y-112617500D03*
X181600000Y-114342500D03*
%TD*%
%TO.C,C76*%
X166510000Y-105727500D03*
X166510000Y-107452500D03*
%TD*%
D12*
%TO.C,R128*%
X220758061Y-53150000D03*
X220758061Y-51325000D03*
%TD*%
D13*
%TO.C,C120*%
X222258061Y-67925000D03*
X222258061Y-69650000D03*
%TD*%
D10*
%TO.C,R105*%
X142402600Y-113590000D03*
X144227600Y-113590000D03*
%TD*%
D11*
%TO.C,R148*%
X220758061Y-84425000D03*
X220758061Y-86250000D03*
%TD*%
D10*
%TO.C,R83*%
X149662500Y-101442500D03*
X151487500Y-101442500D03*
%TD*%
D12*
%TO.C,R138*%
X220758061Y-69700000D03*
X220758061Y-67875000D03*
%TD*%
%TO.C,R117*%
X183480000Y-120550000D03*
X183480000Y-118725000D03*
%TD*%
D14*
%TO.C,C77*%
X174107500Y-106320000D03*
X175832500Y-106320000D03*
%TD*%
D10*
%TO.C,R63*%
X164625000Y-86405000D03*
X166450000Y-86405000D03*
%TD*%
D12*
%TO.C,R134*%
X220758061Y-63100000D03*
X220758061Y-61275000D03*
%TD*%
D10*
%TO.C,R64*%
X164627500Y-88295000D03*
X166452500Y-88295000D03*
%TD*%
D15*
%TO.C,C110*%
X171450000Y-43250000D03*
X175050000Y-43250000D03*
%TD*%
D10*
%TO.C,R4*%
X134665100Y-58400000D03*
X136490100Y-58400000D03*
%TD*%
%TO.C,R70*%
X187410000Y-83420000D03*
X189235000Y-83420000D03*
%TD*%
%TO.C,R9*%
X149655100Y-58387500D03*
X151480100Y-58387500D03*
%TD*%
D16*
%TO.C,C90*%
X142270100Y-121390000D03*
X140545100Y-121390000D03*
%TD*%
D10*
%TO.C,R54*%
X134677500Y-88020000D03*
X136502500Y-88020000D03*
%TD*%
D16*
%TO.C,C66*%
X202312500Y-91440000D03*
X200587500Y-91440000D03*
%TD*%
D10*
%TO.C,R115*%
X172407500Y-113280000D03*
X174232500Y-113280000D03*
%TD*%
D12*
%TO.C,R102*%
X138457600Y-120750000D03*
X138457600Y-118925000D03*
%TD*%
D10*
%TO.C,R29*%
X134687500Y-73460000D03*
X136512500Y-73460000D03*
%TD*%
D14*
%TO.C,C29*%
X144167500Y-76200000D03*
X145892500Y-76200000D03*
%TD*%
D16*
%TO.C,C10*%
X142320100Y-61140000D03*
X140595100Y-61140000D03*
%TD*%
D14*
%TO.C,C93*%
X159087500Y-120960000D03*
X160812500Y-120960000D03*
%TD*%
D19*
%TO.C,U12*%
X200920000Y-70625000D03*
X200920000Y-71895000D03*
X200920000Y-73165000D03*
X200920000Y-74435000D03*
X205870000Y-74435000D03*
X205870000Y-73165000D03*
X205870000Y-71895000D03*
X205870000Y-70625000D03*
%TD*%
%TO.C,U4*%
X155937600Y-55447500D03*
X155937600Y-56717500D03*
X155937600Y-57987500D03*
X155937600Y-59257500D03*
X160887600Y-59257500D03*
X160887600Y-57987500D03*
X160887600Y-56717500D03*
X160887600Y-55447500D03*
%TD*%
D11*
%TO.C,R173*%
X219258061Y-120787500D03*
X219258061Y-122612500D03*
%TD*%
D16*
%TO.C,C62*%
X187277500Y-91220000D03*
X185552500Y-91220000D03*
%TD*%
D19*
%TO.C,U6*%
X185897600Y-55442500D03*
X185897600Y-56712500D03*
X185897600Y-57982500D03*
X185897600Y-59252500D03*
X190847600Y-59252500D03*
X190847600Y-57982500D03*
X190847600Y-56712500D03*
X190847600Y-55442500D03*
%TD*%
D12*
%TO.C,R112*%
X168462500Y-120440000D03*
X168462500Y-118615000D03*
%TD*%
D18*
%TO.C,C129*%
X222258061Y-99462500D03*
X222258061Y-97737500D03*
%TD*%
D16*
%TO.C,C70*%
X142322500Y-106130000D03*
X140597500Y-106130000D03*
%TD*%
D13*
%TO.C,C84*%
X196520000Y-105507500D03*
X196520000Y-107232500D03*
%TD*%
D17*
%TO.C,C140*%
X220250000Y-137400000D03*
X220250000Y-141000000D03*
%TD*%
D13*
%TO.C,C118*%
X222258061Y-61325000D03*
X222258061Y-63050000D03*
%TD*%
D10*
%TO.C,R75*%
X202445000Y-83640000D03*
X204270000Y-83640000D03*
%TD*%
D12*
%TO.C,R168*%
X220758061Y-116012500D03*
X220758061Y-114187500D03*
%TD*%
D10*
%TO.C,R50*%
X202425000Y-68505000D03*
X204250000Y-68505000D03*
%TD*%
D13*
%TO.C,C103*%
X196610000Y-112547500D03*
X196610000Y-114272500D03*
%TD*%
D11*
%TO.C,R135*%
X219258061Y-61275000D03*
X219258061Y-63100000D03*
%TD*%
D10*
%TO.C,R48*%
X194635000Y-71675000D03*
X196460000Y-71675000D03*
%TD*%
D13*
%TO.C,C126*%
X222258061Y-87775000D03*
X222258061Y-89500000D03*
%TD*%
%TO.C,C23*%
X196630000Y-52597500D03*
X196630000Y-54322500D03*
%TD*%
D10*
%TO.C,R109*%
X149607500Y-118220000D03*
X151432500Y-118220000D03*
%TD*%
%TO.C,R44*%
X179637500Y-73680000D03*
X181462500Y-73680000D03*
%TD*%
D11*
%TO.C,R164*%
X220758061Y-110887500D03*
X220758061Y-112712500D03*
%TD*%
D10*
%TO.C,R89*%
X164627500Y-103580000D03*
X166452500Y-103580000D03*
%TD*%
D13*
%TO.C,C100*%
X181520000Y-120597500D03*
X181520000Y-122322500D03*
%TD*%
D10*
%TO.C,R110*%
X157395000Y-113160000D03*
X159220000Y-113160000D03*
%TD*%
D12*
%TO.C,R2*%
X138507600Y-60500000D03*
X138507600Y-58675000D03*
%TD*%
D10*
%TO.C,R68*%
X179620000Y-86590000D03*
X181445000Y-86590000D03*
%TD*%
D16*
%TO.C,C58*%
X172282500Y-91035000D03*
X170557500Y-91035000D03*
%TD*%
D10*
%TO.C,R59*%
X149627500Y-88680000D03*
X151452500Y-88680000D03*
%TD*%
D12*
%TO.C,R17*%
X183457600Y-60482500D03*
X183457600Y-58657500D03*
%TD*%
D16*
%TO.C,C94*%
X157262500Y-120960000D03*
X155537500Y-120960000D03*
%TD*%
D12*
%TO.C,R62*%
X168470000Y-90395000D03*
X168470000Y-88570000D03*
%TD*%
D13*
%TO.C,C59*%
X181585000Y-82647500D03*
X181585000Y-84372500D03*
%TD*%
D10*
%TO.C,R5*%
X142452600Y-53340000D03*
X144277600Y-53340000D03*
%TD*%
D12*
%TO.C,R127*%
X219258061Y-49812500D03*
X219258061Y-47987500D03*
%TD*%
D16*
%TO.C,C18*%
X172297500Y-61120000D03*
X170572500Y-61120000D03*
%TD*%
D13*
%TO.C,C60*%
X181505000Y-90627500D03*
X181505000Y-92352500D03*
%TD*%
D10*
%TO.C,R125*%
X202435000Y-113320000D03*
X204260000Y-113320000D03*
%TD*%
D14*
%TO.C,C101*%
X189117500Y-121190000D03*
X190842500Y-121190000D03*
%TD*%
M02*
